<?xml version="1.0" encoding="UTF-8" standalone="no"?>
<!-- Generator: Adobe Illustrator 22.0.1, SVG Export Plug-In . SVG Version: 6.00 Build 0)  -->

<svg
   xmlns:dc="http://purl.org/dc/elements/1.1/"
   xmlns:cc="http://creativecommons.org/ns#"
   xmlns:rdf="http://www.w3.org/1999/02/22-rdf-syntax-ns#"
   xmlns:svg="http://www.w3.org/2000/svg"
   xmlns="http://www.w3.org/2000/svg"
   xmlns:sodipodi="http://sodipodi.sourceforge.net/DTD/sodipodi-0.dtd"
   xmlns:inkscape="http://www.inkscape.org/namespaces/inkscape"
   version="1.1"
   id="VERTICAL"
   x="0px"
   y="0px"
   viewBox="0 0 640.34253 459.89999"
   xml:space="preserve"
   sodipodi:docname="logo.svg"
   width="640.34253"
   height="459.89999"
   inkscape:version="0.92.4 (5da689c313, 2019-01-14)"><metadata
   id="metadata162"><rdf:RDF><cc:Work
       rdf:about=""><dc:format>image/svg+xml</dc:format><dc:type
         rdf:resource="http://purl.org/dc/dcmitype/StillImage" /><dc:title></dc:title></cc:Work></rdf:RDF></metadata><defs
   id="defs160" /><sodipodi:namedview
   pagecolor="#ffffff"
   bordercolor="#666666"
   borderopacity="1"
   objecttolerance="10"
   gridtolerance="10"
   guidetolerance="10"
   inkscape:pageopacity="0"
   inkscape:pageshadow="2"
   inkscape:window-width="1680"
   inkscape:window-height="986"
   id="namedview158"
   showgrid="false"
   fit-margin-top="0"
   fit-margin-left="0"
   fit-margin-right="0"
   fit-margin-bottom="0"
   inkscape:zoom="0.73046875"
   inkscape:cx="338.34852"
   inkscape:cy="217.6"
   inkscape:window-x="0"
   inkscape:window-y="36"
   inkscape:window-maximized="1"
   inkscape:current-layer="VERTICAL" />
<style
   type="text/css"
   id="style111">
	.st0{fill:#2B3544;}
	.st1{fill:url(#SVGID_1_);}
	.st2{opacity:0.5;fill:url(#SVGID_2_);}
	.st3{opacity:0.8;fill:url(#SVGID_3_);}
	.st4{opacity:0.8;fill:url(#SVGID_4_);}
	.st5{opacity:0.5;fill:url(#SVGID_5_);}
</style>

<g
   id="g155"
   transform="translate(-178.65148,-269.7)">
	<g
   id="g153">
		<linearGradient
   id="SVGID_1_"
   gradientUnits="userSpaceOnUse"
   x1="511.84689"
   y1="717.21698"
   x2="480.1066"
   y2="528.40417">
			<stop
   offset="0"
   style="stop-color:#2D75BE"
   id="stop116" />
			<stop
   offset="1"
   style="stop-color:#25C7A1"
   id="stop118" />
		</linearGradient>
		<path
   class="st1"
   d="m 812.2,519.3 c -4.4,-20.2 -16.6,-39.2 -34.4,-53.5 -17.6,-14.1 -38.7,-22.2 -59.5,-22.7 -29.5,-0.8 -60.4,15.4 -84.8,44.3 -10.8,12.7 -19.7,26.7 -28.1,40.7 -0.7,-0.4 -1.5,-0.7 -2.2,-1.1 h -0.1 c -23.8,-11.2 -48.3,-22.8 -74.3,-25.6 -30.6,-3.3 -57.4,6.5 -82.2,29.7 -19.8,18.6 -36,40.4 -51.6,61.4 -0.6,0.8 -1.2,1.6 -1.8,2.4 -11,-14.3 -22.9,-28.4 -41,-35.2 -30.5,-11.3 -63.3,5.5 -82.2,27.2 -16.9,19.4 -26.7,40.1 -37,62 -1,2.1 -1.9,4.1 -2.9,6.2 -9.2,19.5 -22.6,43.1 -44.1,54.9 -1.2,0.4 -2.3,1 -3.2,1.8 -3.2,2.3 -4.8,6.3 -3.9,10.3 1.1,4.4 5,7.5 9.5,7.5 0,0 0,0 0,0 l 620.2,-0.4 c 0.3,0 0.6,0 0.9,0 1.9,-0.2 3.6,-0.9 5.1,-2 0.5,-0.4 1,-0.8 1.4,-1.3 0,0 0,0 0,0 0,0 0,0 0,0 1.5,-1.7 2.4,-3.9 2.5,-6.3 0.2,-6.6 2.8,-158.6 -6.3,-200.3 z m -401.5,84.8 c 15.8,-21.3 30.8,-41.4 49.3,-58.8 45.5,-42.8 88.8,-22.3 134.7,-0.7 h 0.1 c 0.2,0.1 0.3,0.2 0.5,0.2 -3.8,6.3 -7.7,12.7 -11.8,18.8 -22.3,33.7 -47.4,56.7 -74.8,68.2 -32.4,13.7 -69.4,9.7 -92.1,-9.9 -3.9,-3.4 -7.5,-7.2 -10.9,-11.3 1.7,-2.1 3.4,-4.3 5,-6.5 z m -162.9,59.3 c 1,-2.1 2,-4.2 3,-6.3 10.1,-21.5 18.9,-40.1 34,-57.4 11.1,-12.8 29.2,-24 47,-24 4.6,0 9.1,0.7 13.5,2.4 14.2,5.3 24.2,18.3 34.8,32.1 0.2,0.3 0.5,0.6 0.7,0.9 -39.7,51.6 -99.1,86.6 -160.5,95.9 12.2,-13.6 20.8,-29.6 27.5,-43.6 z m 34.7,46.4 c 42.6,-17.5 81.6,-46.2 111.1,-83.1 3.2,3.6 6.6,7 10.2,10.2 14.6,12.6 33.4,20.3 54.4,22.3 19.3,1.8 39.9,-1.4 58.1,-9.1 31,-13.1 59.1,-38.5 83.5,-75.5 4.4,-6.6 8.6,-13.5 12.6,-20.2 43.4,26.3 111.6,83.5 174.8,155.1 z M 799.3,693.3 C 735.1,621.1 667.5,564.6 622.6,537.5 c 8,-13.3 16.1,-26 25.9,-37.5 20.6,-24.3 45.8,-37.9 69.3,-37.3 34.4,0.9 68.2,28.2 75.3,60.8 6.3,29.6 6.5,123.8 6.2,169.8 z M 717,391.9 c 33.8,0 61.1,-27.4 61.1,-61.1 0,-33.8 -27.4,-61.1 -61.1,-61.1 -33.8,0 -61.1,27.4 -61.1,61.1 0,33.7 27.4,61.1 61.1,61.1 z m 0,-102.6 c 22.9,0 41.5,18.6 41.5,41.5 0,22.9 -18.6,41.5 -41.5,41.5 -22.9,0 -41.5,-18.6 -41.5,-41.5 0,-22.9 18.6,-41.5 41.5,-41.5 z M 321.7,507.6 c 23.8,0 43.1,-19.3 43.1,-43.1 0,-23.8 -19.3,-43.1 -43.1,-43.1 -23.8,0 -43.1,19.3 -43.1,43.1 0,23.8 19.3,43.1 43.1,43.1 z m 0,-66.7 c 13,0 23.5,10.6 23.5,23.5 0,13 -10.6,23.5 -23.5,23.5 -13,0 -23.5,-10.6 -23.5,-23.5 0,-12.9 10.6,-23.5 23.5,-23.5 z m 191,3.3 c 28.5,0 51.6,-23.1 51.6,-51.6 0,-28.5 -23.1,-51.6 -51.6,-51.6 -28.5,0 -51.6,23.1 -51.6,51.6 0,28.5 23,51.6 51.6,51.6 z m 0,-83.6 c 17.6,0 32,14.4 32,32 0,17.6 -14.4,32 -32,32 -17.6,0 -32,-14.4 -32,-32 0,-17.6 14.3,-32 32,-32 z"
   id="path121"
   inkscape:connector-curvature="0"
   style="fill:url(#SVGID_1_)" />
		<g
   id="g151">
			<linearGradient
   id="SVGID_2_"
   gradientUnits="userSpaceOnUse"
   x1="338.96661"
   y1="585.03821"
   x2="393.17029"
   y2="585.03821">
				<stop
   offset="0.1931"
   style="stop-color:#FFFFFF;stop-opacity:0"
   id="stop123" />
				<stop
   offset="1"
   style="stop-color:#2B3544;stop-opacity:0.7"
   id="stop125" />
			</linearGradient>
			<path
   class="st2"
   d="m 345.4,578 c 14.2,5.3 24.2,18.3 34.8,32.1 0.2,0.3 0.5,0.6 0.7,0.9 0.1,-0.1 0.1,-0.1 0.2,-0.2 4.1,-5.3 8.1,-10.7 12.1,-16 -11,-14.3 -22.9,-28.4 -41,-35.2 -5.1,-1.9 -10.7,0.7 -12.6,5.8 -1.9,5.1 0.7,10.8 5.8,12.6 z"
   id="path128"
   inkscape:connector-curvature="0"
   style="opacity:0.5;fill:url(#SVGID_2_)" />
			<linearGradient
   id="SVGID_3_"
   gradientUnits="userSpaceOnUse"
   x1="407.02771"
   y1="609.67932"
   x2="452.36331"
   y2="663.70813">
				<stop
   offset="0"
   style="stop-color:#2B3544;stop-opacity:0.7"
   id="stop130" />
				<stop
   offset="0.8069"
   style="stop-color:#FFFFFF;stop-opacity:0"
   id="stop132" />
			</linearGradient>
			<path
   class="st3"
   d="m 456.1,639.1 c -15.3,-2.1 -29,-8 -39.5,-17.1 -3.9,-3.4 -7.5,-7.2 -10.9,-11.3 -3,4 -6,8 -9.1,12 -1,1.3 -2,2.6 -3.1,3.9 3.2,3.6 6.6,7 10.2,10.2 13.4,11.6 30.5,19.1 49.6,21.7 0.5,0.1 0.9,0.1 1.3,0.1 4.8,0 9,-3.6 9.7,-8.5 1,-5.3 -2.8,-10.2 -8.2,-11 z"
   id="path135"
   inkscape:connector-curvature="0"
   style="opacity:0.8;fill:url(#SVGID_3_)" />
			<linearGradient
   id="SVGID_4_"
   gradientUnits="userSpaceOnUse"
   x1="621.43903"
   y1="538.42328"
   x2="666.41058"
   y2="592.01849">
				<stop
   offset="0"
   style="stop-color:#2B3544;stop-opacity:0.7"
   id="stop137" />
				<stop
   offset="0.8069"
   style="stop-color:#FFFFFF;stop-opacity:0"
   id="stop139" />
			</linearGradient>
			<path
   class="st4"
   d="m 671.7,572.1 c -18,-14.2 -34.7,-25.9 -49.2,-34.6 -2,3.2 -3.9,6.5 -5.9,9.9 -1.4,2.3 -2.8,4.6 -4.2,7 13.7,8.3 29.7,19.5 47.1,33.2 1.8,1.4 3.9,2.1 6.1,2.1 2.9,0 5.8,-1.3 7.7,-3.7 3.4,-4.4 2.7,-10.5 -1.6,-13.9 z"
   id="path142"
   inkscape:connector-curvature="0"
   style="opacity:0.8;fill:url(#SVGID_4_)" />
			<linearGradient
   id="SVGID_5_"
   gradientUnits="userSpaceOnUse"
   x1="541.98792"
   y1="525.62231"
   x2="605.36218"
   y2="525.62231">
				<stop
   offset="0.1931"
   style="stop-color:#FFFFFF;stop-opacity:0"
   id="stop144" />
				<stop
   offset="1"
   style="stop-color:#2B3544;stop-opacity:0.7"
   id="stop146" />
			</linearGradient>
			<path
   class="st5"
   d="m 595.3,544.9 c 1.5,-2.5 3,-5.1 4.5,-7.6 1.8,-3.1 3.7,-6.2 5.6,-9.3 -0.8,-0.4 -1.5,-0.8 -2.3,-1.1 -15.6,-7.4 -31.7,-15 -48.4,-20.1 -5.2,-1.6 -10.7,1.3 -12.3,6.5 -1.6,5.2 1.3,10.7 6.5,12.3 15.3,4.7 30.8,12 45.9,19.1 0.1,0 0.3,0.1 0.5,0.2 z"
   id="path149"
   inkscape:connector-curvature="0"
   style="opacity:0.5;fill:url(#SVGID_5_)" />
		</g>
	</g>
</g>
</svg>