<?xml version="1.0" encoding="UTF-8" standalone="no"?>
<svg
   xmlns:dc="http://purl.org/dc/elements/1.1/"
   xmlns:cc="http://creativecommons.org/ns#"
   xmlns:rdf="http://www.w3.org/1999/02/22-rdf-syntax-ns#"
   xmlns:svg="http://www.w3.org/2000/svg"
   xmlns="http://www.w3.org/2000/svg"
   xmlns:sodipodi="http://sodipodi.sourceforge.net/DTD/sodipodi-0.dtd"
   xmlns:inkscape="http://www.inkscape.org/namespaces/inkscape"
   viewBox="0 0 299.99999 737.3"
   xml:space="preserve"
   version="1.1"
   id="svg458"
   sodipodi:docname="EconomyTR.svg"
   width="300"
   height="737.29999"
   inkscape:version="0.92.4 (5da689c313, 2019-01-14)"><metadata
     id="metadata464"><rdf:RDF><cc:Work
         rdf:about=""><dc:format>image/svg+xml</dc:format><dc:type
           rdf:resource="http://purl.org/dc/dcmitype/StillImage" /><dc:title></dc:title></cc:Work></rdf:RDF></metadata><defs
     id="defs462" /><sodipodi:namedview
     pagecolor="#ffffff"
     bordercolor="#666666"
     borderopacity="1"
     objecttolerance="10"
     gridtolerance="10"
     guidetolerance="10"
     inkscape:pageopacity="0"
     inkscape:pageshadow="2"
     inkscape:window-width="1920"
     inkscape:window-height="1016"
     id="namedview460"
     showgrid="false"
     inkscape:zoom="1.0514279"
     inkscape:cx="259.05"
     inkscape:cy="382.04589"
     inkscape:window-x="0"
     inkscape:window-y="36"
     inkscape:window-maximized="1"
     inkscape:current-layer="svg458" /><style
     id="style2">.st0{fill:#ededed;stroke:#25c7a1;stroke-miterlimit:10}.st1{fill:#2d75be}.st2{fill:#555d68}.st3{fill:#fff;stroke:#555d68;stroke-miterlimit:10}.st4{fill:#ededed}.st5{fill:#2d7dc6}.st7{fill:#9da3e0}.st8{fill:#3e437a}.st9{fill:#00a1d9}.st10{fill:#074d82}.st11{fill:#313561}.st12{fill:#fff}.st15{fill:#258920}.st18{fill:#005696}.st19{fill:#009fd7}.st22{fill:#365aad}.st23{fill:#9ecfff}.st24{fill:#4a9bed}.st26{fill:#dd9d2c}.st29{fill:#f06060}.st33{fill:#97ccfe}.st47{fill:#04518c}.st48{fill:#003056}.st50{fill:#55d4ff}</style><path
     style="fill:#9da3e0"
     inkscape:connector-curvature="0"
     id="path48"
     d="m 235,169.7 v -0.1 h 3.6 c 2.2,0 4,-1.8 4,-4 L 242.5,154 c 0,-2.2 -1.8,-4 -4,-4 h -0.7 c -1.9,0 -3.5,-1.2 -3.9,-3 -1.4,-5.8 -3.6,-11.3 -6.6,-16.4 -1,-1.7 -0.6,-3.8 0.8,-5 l 0.5,-0.5 c 1.7,-1.5 1.8,-4 0.4,-5.7 l -7.6,-8.7 c -1.5,-1.7 -4,-1.8 -5.7,-0.4 l -1,0.9 c -1.4,1.2 -3.4,1.3 -5,0.3 -4.7,-3.3 -9.8,-6 -15.4,-7.9 -1.8,-0.6 -2.9,-2.4 -2.7,-4.3 l 0.2,-1.3 c 0.3,-2.2 -1.2,-4.2 -3.4,-4.5 l -11.5,-1.6 c -2.2,-0.3 -4.2,1.2 -4.5,3.4 l -0.2,1.8 c -0.3,1.8 -1.7,3.3 -3.6,3.5 -4.1,0.4 -8.1,1.2 -11.9,2.3 -1.8,0.6 -3.8,-0.2 -4.7,-1.9 l -0.8,-1.4 c -1.1,-2 -3.5,-2.7 -5.4,-1.6 l -10.2,5.5 c -2,1.1 -2.7,3.5 -1.6,5.4 l 0.9,1.7 c 0.9,1.7 0.5,3.7 -0.9,5 -3.9,3.4 -7.3,7.3 -10.3,11.6 -1.1,1.6 -3.1,2.2 -4.8,1.5 l -1.5,-0.6 c -2.1,-0.8 -4.4,0.2 -5.2,2.2 l -4.3,10.7 c -0.8,2.1 0.2,4.4 2.2,5.2 l 1.6,0.6 c 1.7,0.7 2.8,2.5 2.5,4.4 l -0.3,1.8 c -0.6,4.4 -0.7,8.7 -0.4,12.9 0.1,1.9 -1,3.6 -2.9,4.2 l -1.2,0.4 c -2.1,0.6 -3.3,2.9 -2.7,5 l 3.3,11.1 c 0.6,2.1 2.9,3.3 5,2.7 l 1.1,-0.3 c 1.8,-0.5 3.8,0.2 4.7,1.9 2.8,5.1 6.4,9.9 10.5,14 1.3,1.3 1.5,3.4 0.5,5 l -0.4,0.6 c -1.2,1.9 -0.6,4.4 1.2,5.5 l 9.8,6.2 c 1.9,1.2 4.4,0.6 5.5,-1.2 l 0.3,-0.5 c 1,-1.6 3,-2.3 4.8,-1.6 4.1,1.5 8.4,2.6 12.9,3.2 1.5,0.2 3,0.4 4.5,0.5 1.9,0.1 3.5,1.5 3.7,3.4 v 0.2 c 0.3,2.2 2.4,3.7 4.6,3.4 l 11.5,-1.7 c 2.2,-0.3 3.7,-2.4 3.4,-4.6 V 223 c -0.3,-1.9 0.8,-3.7 2.5,-4.3 5.7,-2.2 11,-5.2 15.7,-8.9 1.5,-1.2 3.6,-1.1 5.1,0.1 1.7,1.4 4.2,1.3 5.7,-0.4 l 7.5,-8.8 c 1.4,-1.7 1.3,-4.2 -0.4,-5.7 l -0.2,-0.2 c -1.4,-1.2 -1.8,-3.2 -0.9,-4.9 3.1,-6.2 5.4,-13 6.4,-20.2 z m -60,42.4 c -34.4,0.2 -59,-32.2 -49.4,-65.3 6.2,-21.4 25.8,-36.2 48,-36.4 34.4,-0.2 59,32.2 49.4,65.3 -6.1,21.4 -25.7,36.3 -48,36.4 z"
     class="st7" /><circle
     style="fill:#9da3e0"
     id="circle50"
     r="40.400002"
     cy="233.37785"
     cx="44.073933"
     class="st7"
     transform="rotate(-36.547)" /><path
     style="fill:#3e437a"
     inkscape:connector-curvature="0"
     id="path52"
     d="m 379.2,234.9 2.3,-5.9 c 0.4,-1 0,-2.1 -1,-2.6 l -6.3,-3.3 c -0.9,-0.4 -1.3,-1.4 -1.1,-2.4 0.9,-3.7 1.5,-7.4 1.8,-11 0.1,-1 0.8,-1.7 1.7,-1.9 l 6.9,-1.2 c 1.1,-0.2 1.8,-1.1 1.7,-2.2 l -0.3,-6.3 c -0.1,-1.1 -0.9,-1.9 -2,-2 l -6.9,-0.4 c -1,-0.1 -1.8,-0.8 -1.9,-1.7 -0.6,-3.7 -1.6,-7.4 -2.9,-10.9 -0.3,-0.9 0,-1.9 0.8,-2.5 l 5.8,-3.8 c 0.9,-0.6 1.2,-1.8 0.7,-2.7 l -2.9,-5.6 c -0.5,-0.9 -1.6,-1.4 -2.6,-1 l -6.4,2.4 c -0.9,0.3 -1.9,0 -2.5,-0.8 -2.1,-3.1 -4.5,-6.1 -7.1,-8.8 -0.7,-0.7 -0.8,-1.8 -0.3,-2.6 l 3.6,-5.8 c 0.6,-0.9 0.4,-2.1 -0.5,-2.8 l -5,-3.9 c -0.8,-0.7 -2,-0.6 -2.8,0.2 l -4.8,4.8 c -0.7,0.7 -1.8,0.8 -2.6,0.3 -3.2,-2 -6.6,-3.7 -10.2,-5.1 -0.9,-0.4 -1.4,-1.3 -1.3,-2.2 l 0.9,-6.7 c 0.1,-1.1 -0.5,-2.1 -1.6,-2.3 l -6.1,-1.6 c -1,-0.3 -2.1,0.3 -2.5,1.3 l -2.4,6.2 c -0.3,0.9 -1.3,1.5 -2.2,1.3 -2.8,-0.4 -5.6,-0.6 -8.4,-0.6 -1,0 -1.8,-0.7 -2,-1.6 l -1.6,-6.5 c -0.3,-1 -1.2,-1.7 -2.3,-1.6 l -6.3,0.8 c -1.1,0.1 -1.8,1 -1.8,2.1 l 0.1,6.7 c 0,1 -0.6,1.8 -1.6,2.1 -3.7,0.9 -7.3,2.2 -10.8,3.7 -0.9,0.4 -1.9,0.1 -2.5,-0.6 l -4.1,-5.3 c -0.7,-0.8 -1.8,-1.1 -2.8,-0.5 l -5.4,3.3 c -0.9,0.6 -1.3,1.7 -0.8,2.7 l 2.8,6.1 c 0.4,0.9 0.2,1.9 -0.6,2.5 -3,2.3 -5.7,5 -8.3,7.8 -0.6,0.7 -1.7,0.9 -2.6,0.5 l -6,-3.2 c -0.9,-0.5 -2.1,-0.2 -2.7,0.7 l -3.6,5.2 c -0.6,0.9 -0.5,2.1 0.4,2.8 l 5.1,4.5 c 0.7,0.6 0.9,1.7 0.5,2.6 -1.7,3.3 -3.1,6.8 -4.3,10.5 -0.3,0.9 -1.2,1.5 -2.1,1.5 l -6.9,-0.5 c -1.1,-0.1 -2,0.7 -2.2,1.7 l -1.1,6.2 c -0.2,1.1 0.4,2.1 1.5,2.4 l 6.6,2 c 0.9,0.3 1.5,1.2 1.5,2.1 -0.2,3.8 -0.1,7.5 0.4,11.2 0.1,1 -0.4,1.9 -1.4,2.2 l -6.6,2.4 c -1,0.4 -1.6,1.4 -1.3,2.5 l 1.5,6.1 c 0.3,1 1.2,1.7 2.3,1.6 l 7,-0.9 c 1,-0.1 1.9,0.4 2.2,1.3 1.3,3.5 3,6.8 4.9,10 0.5,0.8 0.4,1.9 -0.3,2.6 l -5.1,5 c -0.8,0.7 -0.8,1.9 -0.2,2.8 l 3.9,5 c 0.7,0.8 1.8,1.1 2.8,0.5 l 6.1,-3.7 c 0.8,-0.5 1.9,-0.4 2.6,0.3 2.6,2.6 5.5,5 8.5,7.1 0.8,0.6 1.1,1.6 0.8,2.5 l -2.6,6.7 c -0.4,1 0,2.1 1,2.6 l 5.6,3 c 0.9,0.5 2.1,0.2 2.7,-0.7 l 4.1,-6 c 0.5,-0.8 1.6,-1.1 2.5,-0.8 2.2,0.8 4.4,1.5 6.8,2.1 l 3.9,0.9 c 1,0.2 1.7,1 1.7,2 l 0.4,7.3 c 0.1,1.1 0.9,1.9 2,2 l 6.3,0.4 c 1.1,0.1 2,-0.7 2.2,-1.7 l 1.3,-7.1 c 0.2,-1 1,-1.7 1.9,-1.7 3.7,-0.2 7.4,-0.8 10.9,-1.6 0.9,-0.2 1.9,0.2 2.4,1.1 l 3.3,6.5 c 0.5,1 1.6,1.4 2.6,1 l 5.9,-2.2 c 1,-0.4 1.6,-1.4 1.3,-2.5 l -1.8,-7 c -0.2,-0.9 0.2,-1.9 1.1,-2.4 3.3,-1.7 6.4,-3.7 9.3,-5.9 0.8,-0.6 1.8,-0.6 2.6,0 l 5.6,4.5 c 0.8,0.7 2,0.6 2.8,-0.1 l 4.5,-4.5 c 0.8,-0.8 0.8,-2 0.2,-2.8 l -4.4,-5.6 c -0.6,-0.8 -0.6,-1.8 0,-2.6 2.3,-2.9 4.3,-6 6.1,-9.3 0.5,-0.9 1.4,-1.3 2.4,-1 l 6.9,1.8 c 1.3,0.1 2.3,-0.5 2.7,-1.5 z m -50.4,-6.2 c -0.8,0.6 -1.6,1.1 -2.4,1.6 -0.2,0.1 -0.4,0.2 -0.6,0.4 l -0.6,0.3 -0.6,0.3 -0.6,0.3 c -4.5,2.1 -9.5,3.1 -14.6,2.8 -1.3,-0.1 -2.2,-1.3 -1.9,-2.6 l 1.8,-7 c 0.2,-0.9 1.1,-1.6 2.1,-1.6 6.8,0 13,-3.7 16.2,-9.7 0.5,-0.9 1.4,-1.3 2.4,-1.1 l 7,1.8 c 1.3,0.3 1.9,1.7 1.4,2.9 -2.4,4.8 -5.6,8.7 -9.6,11.6 z m -41.5,-6.3 c -1.1,-1.6 -2.1,-3.2 -2.9,-5 -2.1,-4.5 -3.1,-9.5 -2.7,-14.7 0.1,-1.3 1.3,-2.2 2.6,-1.9 l 7,1.8 c 0.9,0.2 1.6,1.1 1.6,2 -0.1,7 3.9,13.5 10.1,16.6 0.9,0.4 1.3,1.4 1.1,2.4 l -1.8,6.9 c -0.3,1.3 -1.7,1.9 -2.9,1.4 -5,-2 -9.1,-5.4 -12.1,-9.5 z m 6.5,-41.5 c 0.2,-0.1 0.4,-0.3 0.6,-0.4 0.2,-0.1 0.4,-0.3 0.6,-0.4 0.2,-0.1 0.4,-0.2 0.6,-0.4 0.2,-0.1 0.4,-0.2 0.6,-0.4 0.2,-0.1 0.4,-0.2 0.6,-0.4 0.6,-0.4 1.3,-0.7 1.9,-1 4.6,-2.1 9.8,-3.1 15.1,-2.6 1.3,0.1 2.2,1.4 1.8,2.6 l -1.8,6.9 c -0.2,1 -1.1,1.6 -2.1,1.6 -7.1,-0.3 -13.8,3.7 -17,10 -0.4,0.9 -1.4,1.3 -2.4,1.1 l -6.9,-1.8 c -1.3,-0.3 -1.9,-1.7 -1.4,-2.9 2.2,-4.8 5.6,-8.9 9.8,-11.9 z m 35.8,24.5 c 0.2,-6.9 -3.5,-13.4 -9.6,-16.7 -0.8,-0.5 -1.3,-1.4 -1,-2.4 l 1.8,-7 c 0.3,-1.3 1.7,-1.9 2.9,-1.4 4.6,2.1 8.5,5.4 11.4,9.4 1.1,1.6 2.1,3.2 2.9,5 2.2,4.6 3.1,9.8 2.7,15 -0.1,1.3 -1.4,2.2 -2.6,1.9 l -6.9,-1.8 c -1,-0.2 -1.6,-1.1 -1.6,-2 z m 12.7,-22.3 c -0.9,0.5 -2.1,0.3 -2.7,-0.5 -4.7,-6 -11.4,-10.6 -19.5,-12.7 -8,-2 -16,-1.3 -23.1,1.7 -1,0.4 -2.1,0 -2.6,-0.9 L 286.3,157 c -0.6,-1.1 -0.2,-2.4 0.9,-3 11.4,-5.4 24.7,-6.9 37.8,-3.6 13.2,3.4 24.1,11.2 31.5,21.4 0.7,1 0.4,2.4 -0.6,3 z m -79.9,-5.9 c 4,-7.1 9.5,-13.2 16,-17.8 1,-0.7 2.4,-0.4 3,0.6 l 8.1,13.7 c 0.5,0.9 0.3,2.1 -0.5,2.7 -6.1,4.7 -10.7,11.5 -12.8,19.5 -2.1,8 -1.3,16.1 1.8,23.2 0.4,1 0,2.1 -0.9,2.6 l -13.7,8.1 c -1.1,0.6 -2.4,0.2 -3,-0.9 -5.4,-11.4 -7,-24.7 -3.6,-37.9 1.3,-5 3.2,-9.6 5.6,-13.8 m 4,57.6 13.7,-8.1 c 0.9,-0.5 2.1,-0.3 2.7,0.5 4.7,6 11.4,10.6 19.5,12.7 8.1,2.1 16.2,1.2 23.3,-1.8 1,-0.4 2.1,0 2.6,0.9 l 8.1,13.7 c 0.6,1.1 0.2,2.4 -0.9,3 -11.4,5.5 -24.8,7.1 -38,3.7 -13.2,-3.4 -24.1,-11.2 -31.5,-21.4 -0.9,-1.2 -0.6,-2.6 0.5,-3.2 z m 74.8,14.8 -8.1,-13.7 c -0.5,-0.9 -0.3,-2.1 0.5,-2.7 6,-4.7 10.6,-11.4 12.6,-19.4 2.1,-8 1.3,-16.1 -1.8,-23.2 -0.4,-1 0,-2.1 0.9,-2.6 l 13.7,-8.1 c 1.1,-0.6 2.4,-0.2 3,0.9 5.4,11.4 7,24.7 3.6,37.9 -3.4,13.2 -11.1,24 -21.3,31.4 -1.1,0.9 -2.5,0.6 -3.1,-0.5 z"
     class="st8" /><path
     style="fill:#00a1d9"
     inkscape:connector-curvature="0"
     id="path54"
     d="m 363.2,64 h -0.5 c -2.1,-0.1 -3.6,-1.9 -3.4,-4 0.6,-6.9 0.4,-14 -0.9,-21.2 -1.4,-8.1 -4,-15.7 -7.6,-22.6 -1,-1.9 -0.2,-4.2 1.8,-5.1 l 0.8,-0.4 c 2.1,-0.9 2.8,-3.5 1.6,-5.4 l -2,-3 c -1.2,-1.9 -3.8,-2.2 -5.5,-0.7 l -0.9,0.8 c -1.6,1.4 -3.9,1.2 -5.3,-0.4 -9.6,-11.5 -22.4,-20.1 -36.7,-24.7 -2,-0.6 -3.1,-2.9 -2.3,-4.8 l 0.6,-1.5 c 0.8,-2.1 -0.5,-4.5 -2.7,-4.9 l -3.6,-0.7 c -2.2,-0.5 -4.3,1.1 -4.4,3.4 l -0.1,1.8 c -0.1,2.1 -1.9,3.6 -4,3.4 -6.9,-0.7 -14,-0.4 -21.2,0.9 -7.6,1.3 -14.7,3.7 -21.3,7 -1.9,0.9 -4.2,0.1 -5,-1.9 l -0.7,-1.7 c -0.9,-2.1 -3.5,-2.9 -5.4,-1.6 l -3.1,2 c -1.9,1.2 -2.3,3.8 -0.8,5.5 l 1.3,1.5 c 1.4,1.6 1.2,4 -0.5,5.3 -11.7,9.3 -20.6,21.9 -25.5,36 -0.7,2 -2.9,3 -4.8,2.2 l -1.5,-0.6 c -2.1,-0.8 -4.5,0.4 -5,2.6 l -0.8,3.6 c -0.5,2.2 1.1,4.3 3.3,4.4 l 1.6,0.1 c 2.1,0.2 3.6,2 3.4,4.1 -0.9,7.5 -0.7,15.3 0.7,23.1 1.3,7.3 3.6,14.2 6.6,20.6 0.9,1.9 0.1,4.1 -1.9,5 l -0.9,0.4 c -2.1,0.9 -2.9,3.5 -1.6,5.4 l 2,3 c 1.2,1.9 3.8,2.2 5.5,0.8 l 0.7,-0.6 c 1.6,-1.4 4,-1.1 5.3,0.5 9.4,11.9 22.1,20.9 36.4,25.8 2,0.7 3,2.9 2.2,4.8 l -0.1,0.3 c -0.8,2.1 0.4,4.5 2.7,5 l 3.6,0.8 c 2.2,0.5 4.3,-1.1 4.4,-3.3 v -0.3 c 0.1,-2.1 2,-3.6 4.1,-3.4 7.4,0.8 15,0.6 22.6,-0.7 7.7,-1.4 14.9,-3.8 21.5,-7.1 1.9,-0.9 4.2,-0.1 5,1.8 0.9,2.1 3.5,2.9 5.4,1.6 l 3,-2 c 1.9,-1.2 2.2,-3.8 0.8,-5.5 l -0.1,-0.1 c -1.4,-1.6 -1.2,-4 0.4,-5.3 11.8,-9.6 20.6,-22.5 25.3,-37 0.7,-2 2.9,-3.1 4.8,-2.3 l 0.2,0.1 c 2.1,0.8 4.5,-0.4 4.9,-2.7 l 0.7,-3.6 C 367,66.3 365.4,64.2 363.2,64 Z M 343.6,36.1 327,39 c -1.7,0.3 -3.5,-0.7 -4.1,-2.3 -2.7,-7.1 -7,-13.2 -12.5,-18 -1.4,-1.2 -1.7,-3.3 -0.6,-4.9 l 9.6,-13.6 c 1.2,-1.8 3.7,-2.1 5.4,-0.7 9.9,8.2 17.5,19.2 21.6,32 0.8,1.9 -0.6,4.2 -2.8,4.6 z M 299.2,11.3 C 292.7,8.4 285.4,6.9 278,7.4 c -1.9,0.1 -3.5,-1.2 -3.8,-3 L 271.3,-12 c -0.4,-2.1 1.1,-4.1 3.3,-4.3 13.3,-1.2 26.2,1.5 37.5,7.3 2,1 2.6,3.6 1.4,5.4 l -9.6,13.8 c -1.2,1.3 -3.1,1.8 -4.7,1.1 z m -34.4,-1.2 c -6.9,2.5 -12.9,6.6 -17.6,11.8 -1.3,1.4 -3.3,1.6 -4.8,0.5 L 228.8,12.8 C 227,11.6 226.7,9 228.1,7.4 c 8.2,-9.5 18.9,-16.9 31.5,-20.8 2.1,-0.7 4.3,0.7 4.7,2.9 L 267.2,6 c 0.3,1.8 -0.7,3.5 -2.4,4.1 z m -4.1,83.2 c 6.6,3.2 14.1,4.9 21.8,4.5 1.8,-0.1 3.5,1.2 3.8,3 l 2.9,16.4 c 0.4,2.1 -1.2,4.1 -3.3,4.3 -13.6,1 -26.7,-2 -38.1,-8.1 -1.9,-1 -2.5,-3.6 -1.2,-5.4 l 9.6,-13.7 c 1,-1.3 2.9,-1.8 4.5,-1 z m 35,2 c 7.3,-2.6 13.6,-6.9 18.6,-12.4 1.2,-1.4 3.3,-1.6 4.9,-0.6 l 13.6,9.6 c 1.8,1.2 2.1,3.7 0.7,5.4 -8.4,9.9 -19.6,17.6 -32.6,21.5 -2.1,0.6 -4.3,-0.7 -4.7,-2.9 l -2.9,-16.5 c -0.3,-1.8 0.7,-3.5 2.4,-4.1 z m 6.7,-20.9 c -26.3,22.4 -61.9,-2.5 -49.9,-34.9 1.3,-3.4 3.4,-6.4 6.2,-8.8 26.3,-22.4 61.9,2.5 49.9,34.9 -1.3,3.4 -3.4,6.5 -6.2,8.8 z m -77.6,-55.6 13.7,9.7 c 1.5,1 2,3 1.2,4.6 -3.1,6.4 -4.7,13.7 -4.4,21.1 0.1,1.8 -1.2,3.4 -3.1,3.8 l -16.4,2.8 c -2.1,0.4 -4.1,-1.2 -4.3,-3.4 -0.9,-13.3 2,-26.2 7.9,-37.3 1.1,-2 3.6,-2.6 5.4,-1.3 z m -7.7,49 16.5,-2.9 c 1.8,-0.3 3.5,0.7 4.1,2.4 2.5,7.2 6.6,13.4 11.9,18.4 1.3,1.3 1.6,3.3 0.5,4.8 l -9.6,13.7 c -1.3,1.8 -3.8,2.1 -5.4,0.7 -9.7,-8.4 -17.1,-19.5 -20.9,-32.4 -0.6,-2.1 0.8,-4.3 2.9,-4.7 z m 119.5,18.1 -13.7,-9.6 c -1.5,-1 -2,-2.9 -1.2,-4.6 3.1,-6.7 4.6,-14.2 4.1,-21.9 -0.1,-1.9 1.2,-3.5 3,-3.8 l 16.4,-2.9 c 2.1,-0.4 4.1,1.1 4.3,3.3 1.2,13.6 -1.6,26.8 -7.5,38.2 -1,1.9 -3.5,2.5 -5.4,1.3 z"
     class="st9" /><path
     style="fill:#074d82"
     inkscape:connector-curvature="0"
     id="path56"
     d="m 191.1,58.6 1.7,-0.3 c 1,-0.1 1.8,-1.1 1.6,-2.2 l -0.8,-5.5 c -0.1,-1 -1.1,-1.8 -2.2,-1.6 h -0.3 c -0.9,0.1 -1.7,-0.4 -2,-1.2 -1,-2.6 -2.5,-5.1 -4.2,-7.3 -0.6,-0.7 -0.5,-1.7 0.1,-2.4 l 0.2,-0.3 c 0.7,-0.8 0.6,-2 -0.2,-2.7 l -4.2,-3.6 c -0.8,-0.7 -2,-0.6 -2.7,0.2 l -0.4,0.5 c -0.6,0.7 -1.5,0.9 -2.3,0.4 -2.4,-1.3 -5,-2.2 -7.8,-2.7 -0.9,-0.2 -1.5,-1 -1.5,-1.9 v -0.6 c 0,-1.1 -0.9,-1.9 -1.9,-1.9 h -5.5 c -1.1,0 -1.9,0.9 -1.9,1.9 v 0.8 c 0,0.9 -0.6,1.7 -1.5,1.9 -1.9,0.4 -3.7,1.1 -5.5,1.9 -0.8,0.4 -1.8,0.1 -2.4,-0.6 l -0.5,-0.6 c -0.6,-0.9 -1.8,-1 -2.7,-0.4 l -4.5,3.3 c -0.9,0.6 -1,1.8 -0.4,2.7 l 0.5,0.7 c 0.5,0.7 0.5,1.7 -0.1,2.4 -1.6,1.9 -3,3.9 -4.1,6.2 -0.4,0.8 -1.3,1.2 -2.2,1 l -0.8,-0.2 c -1,-0.3 -2.1,0.4 -2.3,1.4 l -1.4,5.3 c -0.3,1 0.4,2.1 1.4,2.3 l 0.8,0.2 c 0.9,0.2 1.5,1 1.4,1.9 v 0.9 c 0,2.1 0.2,4.1 0.6,6.1 0.2,0.9 -0.3,1.8 -1.1,2.2 l -0.6,0.3 c -1,0.4 -1.4,1.6 -1,2.5 l 2.3,5 c 0.4,1 1.6,1.4 2.5,1 l 0.5,-0.2 c 0.8,-0.4 1.8,-0.1 2.3,0.6 1.7,2.2 3.6,4.2 5.9,5.9 0.7,0.5 1,1.5 0.6,2.3 l -0.1,0.3 c -0.4,1 0,2.1 0.9,2.5 l 5,2.3 c 1,0.4 2.1,0 2.5,-0.9 l 0.1,-0.3 c 0.4,-0.8 1.3,-1.3 2.1,-1.1 2,0.5 4.1,0.7 6.3,0.7 0.7,0 1.4,0 2.2,-0.1 0.9,-0.1 1.7,0.5 2,1.4 v 0.1 c 0.3,1 1.4,1.6 2.4,1.3 l 5.3,-1.5 c 1,-0.3 1.6,-1.4 1.3,-2.4 v -0.1 c -0.3,-0.9 0.1,-1.8 0.9,-2.2 2.5,-1.4 4.8,-3.1 6.9,-5.2 0.6,-0.6 1.6,-0.8 2.4,-0.3 0.9,0.6 2.1,0.3 2.6,-0.6 l 3,-4.6 c 0.6,-0.9 0.3,-2.1 -0.6,-2.6 l -0.1,-0.1 c -0.7,-0.5 -1.1,-1.4 -0.8,-2.3 1.7,-3.1 2.3,-6.4 2.3,-9.9 z m -26.8,15.2 c -10.3,1.5 -19,-7.2 -17.5,-17.5 1,-6.7 6.3,-11.9 12.9,-12.9 10.3,-1.5 19,7.2 17.5,17.5 -1,6.7 -6.3,11.9 -12.9,12.9 z"
     class="st10" /><g
     id="g78"
     transform="translate(-1080)"><path
       style="fill:#313561"
       inkscape:connector-curvature="0"
       id="path58"
       d="m 1080.7,210.2 c 0,0 23,-44.3 57.8,-66.8 l 44.9,16.2 c 0,0 -34,24.5 -59.7,68 z"
       class="st11" /><path
       style="fill:#ffffff"
       inkscape:connector-curvature="0"
       id="path60"
       d="m 1116.7,200.4 c 1.9,3.4 0.6,7.7 -2.6,9.5 -3.2,1.8 -8.5,0.6 -10.5,-2.8 -1.9,-3.4 -0.9,-7.6 2.3,-9.5 3.3,-1.8 8.9,-0.6 10.8,2.8 z m 35.9,-41.4 c 1.1,2.7 -0.3,5.6 -3.4,6.9 -3.1,1.2 -8.8,-0.4 -9.8,-3 -1.1,-2.7 0.6,-5.8 3.7,-7 3,-1.3 8.5,0.4 9.5,3.1 z"
       class="st12" /><path
       inkscape:connector-curvature="0"
       id="path62"
       style="fill:none;stroke:#ffffff;stroke-width:0.68760002;stroke-miterlimit:10"
       d="m 1142.4,176.8 c 2.5,6.3 -0.7,13.4 -7.8,16.2 -7.1,2.8 -20.4,-1.1 -22.9,-7.4 -2.5,-6.3 1.2,-13.7 8.3,-16.6 7.1,-2.8 19.9,1.5 22.4,7.8 z" /><path
       inkscape:connector-curvature="0"
       id="path64"
       style="fill:none;stroke:#ffffff;stroke-width:0.45840001;stroke-miterlimit:10"
       d="m 1084.8,208.1 37.1,13.7 c 0,0 34.2,-49.7 54.6,-60.7 l -37.1,-14.3 c 0,0 -32.5,22.1 -54.6,61.3 z" /><g
       id="g68"><path
         style="fill:#ffffff"
         inkscape:connector-curvature="0"
         id="path66"
         d="m 1137.3,180.3 c 0,1 -0.4,3 -1.6,4.9 -1.3,2.1 -3.2,3.7 -5.7,4.2 -1.5,0.4 -3.3,0.2 -4.9,-0.4 l -1.2,2 -1.5,-1 1.1,-1.7 -0.8,-0.4 c -0.3,-0.2 -0.7,-0.5 -1,-0.8 l -1.1,1.8 -1.5,-0.9 1.2,-2 c -1.2,-1.2 -2.1,-2.7 -2.4,-4.2 -0.6,-2.6 0,-5.2 1.3,-7.4 1.1,-1.8 2.4,-2.7 3.3,-3.3 l 1.5,1.8 c -0.8,0.5 -1.8,1.3 -2.8,2.8 -0.9,1.4 -1.3,3 -0.9,4.8 0.2,1 0.8,2 1.6,2.8 l 4.8,-7.8 1.5,0.9 -5,8.1 c 0.3,0.2 0.6,0.5 0.9,0.6 0.3,0.2 0.6,0.3 1,0.6 l 5,-8.1 1.5,1 -4.9,7.8 c 1,0.3 2.1,0.4 3,0.2 1.8,-0.4 3,-1.4 4,-3 1,-1.5 1.3,-3.1 1.4,-4 z"
         class="st12" /></g><g
       id="g72"><path
         style="fill:#313561"
         inkscape:connector-curvature="0"
         id="path70"
         d="m 1150.8,160.4 c 0,0.5 -0.2,1.4 -0.8,2.3 -0.6,1 -1.5,1.7 -2.6,2 -0.7,0.2 -1.5,0.1 -2.3,-0.2 l -0.6,0.9 -0.7,-0.4 0.5,-0.8 c -0.2,-0.1 -0.3,-0.1 -0.4,-0.2 -0.1,-0.1 -0.3,-0.2 -0.5,-0.4 l -0.5,0.8 -0.7,-0.4 0.6,-0.9 c -0.6,-0.6 -1,-1.3 -1.1,-2 -0.3,-1.2 0,-2.4 0.6,-3.4 0.5,-0.9 1.1,-1.3 1.5,-1.5 l 0.7,0.8 c -0.4,0.2 -0.9,0.6 -1.3,1.3 -0.4,0.6 -0.6,1.4 -0.4,2.2 0.1,0.5 0.4,0.9 0.8,1.3 l 2.2,-3.6 0.7,0.4 -2.3,3.8 c 0.2,0.1 0.3,0.2 0.4,0.3 0.1,0.1 0.3,0.2 0.4,0.3 l 2.3,-3.8 0.7,0.4 -2.3,3.6 c 0.5,0.2 1,0.2 1.4,0.1 0.8,-0.2 1.4,-0.7 1.8,-1.4 0.4,-0.7 0.6,-1.4 0.6,-1.9 z"
         class="st11" /></g><g
       id="g76"><path
         style="fill:#313561"
         inkscape:connector-curvature="0"
         id="path74"
         d="m 1114.8,203.4 c 0,0.5 -0.2,1.4 -0.8,2.3 -0.6,1 -1.5,1.7 -2.6,2 -0.7,0.2 -1.5,0.1 -2.3,-0.2 l -0.6,0.9 -0.7,-0.4 0.5,-0.8 c -0.2,-0.1 -0.3,-0.1 -0.4,-0.2 -0.1,-0.1 -0.3,-0.2 -0.5,-0.4 l -0.5,0.8 -0.7,-0.4 0.6,-0.9 c -0.6,-0.6 -1,-1.3 -1.1,-2 -0.3,-1.2 0,-2.4 0.6,-3.4 0.5,-0.9 1.1,-1.3 1.5,-1.5 l 0.7,0.8 c -0.4,0.2 -0.9,0.6 -1.3,1.3 -0.4,0.6 -0.6,1.4 -0.4,2.2 0.1,0.5 0.4,0.9 0.8,1.3 l 2.2,-3.6 0.7,0.4 -2.3,3.8 c 0.2,0.1 0.3,0.2 0.4,0.3 0.1,0.1 0.3,0.2 0.4,0.3 l 2.3,-3.8 0.7,0.4 -2.3,3.6 c 0.5,0.2 1,0.2 1.4,0.1 0.8,-0.2 1.4,-0.7 1.8,-1.4 0.4,-0.7 0.6,-1.4 0.6,-1.9 z"
         class="st11" /></g></g><g
     id="g92"
     transform="translate(-1080)"><path
       style="fill:#258920"
       inkscape:connector-curvature="0"
       id="path80"
       d="m 1139,258.4 c 0,0 35.8,23.1 88.5,42.6 l -5.3,51.4 c 0,0 -55.8,-17.6 -86.1,-42.2 z"
       class="st15" /><path
       style="fill:#ffffff"
       inkscape:connector-curvature="0"
       id="path82"
       d="m 1160.6,298.3 c -3,3 -7.7,2.8 -10.5,0 -2.8,-2.8 -3,-8.6 -0.1,-11.6 3,-3 7.6,-3.1 10.4,-0.3 2.9,2.8 3.2,8.9 0.2,11.9 z m 52.8,25.5 c -2.4,1.8 -5.9,1.2 -8.1,-1.6 -2.1,-2.8 -2.1,-9.2 0.4,-11 2.4,-1.8 6.2,-1 8.3,1.8 2.2,2.8 1.9,9 -0.6,10.8 z"
       class="st12" /><path
       inkscape:connector-curvature="0"
       id="path84"
       style="fill:none;stroke:#ffffff;stroke-width:0.49039999;stroke-miterlimit:10"
       d="m 1190.7,321 c -5.6,4.2 -13.4,2.9 -18.1,-3.3 -4.7,-6.2 -4.4,-20.4 1.2,-24.6 5.6,-4.2 13.9,-2.5 18.6,3.8 4.7,6.2 3.9,19.9 -1.7,24.1 z" /><path
       inkscape:connector-curvature="0"
       id="path86"
       style="fill:none;stroke:#ffffff;stroke-width:0.73559999;stroke-miterlimit:10"
       d="m 1142.6,264.4 -2.6,44.7 c 0,0 42.3,28.8 78.7,36.7 l 5.2,-43.6 c 0,0.1 -22.5,-5.2 -81.3,-37.8 z" /><path
       style="fill:#ffffff"
       inkscape:connector-curvature="0"
       id="path88"
       d="m 1179.6,319.7 0.4,-3.2 c -1.8,-0.3 -3.6,-1.1 -4.6,-2 l 1,-2 c 1,0.9 2.6,1.7 4.3,1.9 2.2,0.3 3.9,-0.8 4.1,-2.6 0.2,-1.7 -0.8,-2.9 -3,-4.2 -3,-1.7 -4.8,-3.4 -4.4,-6.1 0.3,-2.6 2.5,-4.3 5.4,-4.4 l 0.4,-3.2 1.9,0.3 -0.4,3 c 1.9,0.3 3.1,1 3.9,1.6 l -1.1,2 c -0.6,-0.5 -1.8,-1.3 -3.8,-1.6 -2.4,-0.3 -3.5,1 -3.7,2.2 -0.2,1.6 0.8,2.6 3.4,4.1 3,1.7 4.4,3.6 4.1,6.4 -0.3,2.5 -2.4,4.5 -5.6,4.6 l -0.4,3.2 z"
       class="st12" /><path
       style="fill:#258920"
       inkscape:connector-curvature="0"
       id="path90"
       d="m 1208.4,323.5 0.2,-1.5 c -0.9,-0.1 -1.7,-0.5 -2.2,-1 l 0.5,-1 c 0.5,0.4 1.2,0.8 2.1,0.9 1.1,0.1 1.9,-0.4 2,-1.2 0.1,-0.8 -0.4,-1.4 -1.5,-2 -1.5,-0.8 -2.3,-1.6 -2.1,-2.9 0.2,-1.2 1.2,-2.1 2.6,-2.1 l 0.2,-1.5 0.9,0.1 -0.2,1.5 c 0.9,0.2 1.5,0.5 1.9,0.8 l -0.5,0.9 c -0.3,-0.2 -0.9,-0.6 -1.8,-0.8 -1.2,-0.2 -1.7,0.5 -1.8,1.1 -0.1,0.8 0.4,1.2 1.6,2 1.5,0.8 2.1,1.7 2,3.1 -0.2,1.2 -1.1,2.2 -2.7,2.2 l -0.2,1.6 z m -54.3,-25 0.2,-1.5 c -0.9,-0.1 -1.7,-0.5 -2.2,-1 l 0.5,-1 c 0.5,0.4 1.2,0.8 2.1,0.9 1.1,0.1 1.9,-0.4 2,-1.2 0.1,-0.8 -0.4,-1.4 -1.5,-2 -1.5,-0.8 -2.3,-1.6 -2.1,-2.9 0.2,-1.2 1.2,-2.1 2.6,-2.1 l 0.2,-1.5 0.9,0.1 -0.2,1.5 c 0.9,0.2 1.5,0.5 1.9,0.8 l -0.5,0.9 c -0.3,-0.2 -0.9,-0.6 -1.8,-0.8 -1.2,-0.2 -1.7,0.5 -1.8,1.1 -0.1,0.8 0.4,1.2 1.6,2 1.5,0.8 2.1,1.7 2,3.1 -0.2,1.2 -1.1,2.2 -2.7,2.2 l -0.2,1.6 z"
       class="st15" /></g></svg>