<?xml version="1.0" encoding="UTF-8" standalone="no"?>
<svg
   xmlns:dc="http://purl.org/dc/elements/1.1/"
   xmlns:cc="http://creativecommons.org/ns#"
   xmlns:rdf="http://www.w3.org/1999/02/22-rdf-syntax-ns#"
   xmlns:svg="http://www.w3.org/2000/svg"
   xmlns="http://www.w3.org/2000/svg"
   xmlns:xlink="http://www.w3.org/1999/xlink"
   xmlns:sodipodi="http://sodipodi.sourceforge.net/DTD/sodipodi-0.dtd"
   xmlns:inkscape="http://www.inkscape.org/namespaces/inkscape"
   viewBox="0 0 299.99999 737.3"
   xml:space="preserve"
   version="1.1"
   id="svg458"
   sodipodi:docname="EconomyTL.svg"
   width="300"
   height="737.29999"
   inkscape:version="0.92.4 (5da689c313, 2019-01-14)"><metadata
     id="metadata464"><rdf:RDF><cc:Work
         rdf:about=""><dc:format>image/svg+xml</dc:format><dc:type
           rdf:resource="http://purl.org/dc/dcmitype/StillImage" /><dc:title /></cc:Work></rdf:RDF></metadata><defs
     id="defs462" /><sodipodi:namedview
     pagecolor="#ffffff"
     bordercolor="#666666"
     borderopacity="1"
     objecttolerance="10"
     gridtolerance="10"
     guidetolerance="10"
     inkscape:pageopacity="0"
     inkscape:pageshadow="2"
     inkscape:window-width="1920"
     inkscape:window-height="1016"
     id="namedview460"
     showgrid="false"
     inkscape:zoom="0.23943865"
     inkscape:cx="-2.0882293"
     inkscape:cy="351.94425"
     inkscape:window-x="0"
     inkscape:window-y="36"
     inkscape:window-maximized="1"
     inkscape:current-layer="svg458" /><style
     id="style2">.st0{fill:#ededed;stroke:#25c7a1;stroke-miterlimit:10}.st1{fill:#2d75be}.st2{fill:#555d68}.st3{fill:#fff;stroke:#555d68;stroke-miterlimit:10}.st4{fill:#ededed}.st5{fill:#2d7dc6}.st7{fill:#9da3e0}.st8{fill:#3e437a}.st9{fill:#00a1d9}.st10{fill:#074d82}.st11{fill:#313561}.st12{fill:#fff}.st15{fill:#258920}.st18{fill:#005696}.st19{fill:#009fd7}.st22{fill:#365aad}.st23{fill:#9ecfff}.st24{fill:#4a9bed}.st26{fill:#dd9d2c}.st29{fill:#f06060}.st33{fill:#97ccfe}.st47{fill:#04518c}.st48{fill:#003056}.st50{fill:#55d4ff}</style><path
     style="fill:#dd9d2c"
     inkscape:connector-curvature="0"
     id="path169"
     d="m 26,57.9 c 0,0 37.3,-39.2 80.4,-52.2 l 41.9,30.4 c 0,0 -42.8,15.3 -82.7,52.9 z"
     class="st26" /><path
     style="fill:#ffffff"
     inkscape:connector-curvature="0"
     id="path171"
     d="m 66.6,58.6 c 1,4.1 -1.6,8.2 -5.6,9.1 -4,0.9 -9.1,-1.9 -10.1,-6 -1,-4.1 1.4,-8.2 5.3,-9.2 3.9,-1 9.4,2 10.4,6.1 z m 49.9,-32.3 c 0.3,3.1 -2.1,5.8 -5.6,6.1 -3.6,0.4 -9,-3.1 -9.3,-6.1 -0.3,-3.1 2.4,-5.9 5.9,-6.2 3.5,-0.4 8.7,3.1 9,6.2 z"
     class="st12" /><path
     inkscape:connector-curvature="0"
     id="path173"
     style="fill:none;stroke:#ffffff;stroke-width:0.74589998;stroke-miterlimit:10"
     d="m 100.4,41.8 c 0.7,7.3 -4.7,13.7 -13,14.5 C 79.1,57.1 66.5,49 65.8,41.7 65.1,34.4 71.2,27.8 79.5,26.9 c 8.2,-0.8 20.2,7.6 20.9,14.9 z" /><path
     inkscape:connector-curvature="0"
     id="path175"
     style="fill:none;stroke:#ffffff;stroke-width:0.49720001;stroke-miterlimit:10"
     d="m 31,57 34.5,25.5 c 0,0 50.6,-41.4 75.2,-46.8 L 106.4,9.6 c 0,0 -40.6,13.3 -75.4,47.4 z" /><path
     style="fill:#ffffff"
     inkscape:connector-curvature="0"
     id="path177"
     d="m 89.6,51.7 -3.9,-4.3 -3.8,3.5 -1.1,-1.2 3.8,-3.5 -1.6,-1.8 -3.8,3.5 -1.1,-1.2 3.2,-2.9 -10.8,-3.6 2.3,-2.1 7.1,2.7 c 1.1,0.5 2,0.9 3,1.3 L 83,42 c -0.4,-0.9 -0.8,-2 -1.1,-3.2 l -1.9,-7.4 2.2,-2.1 2.4,11.4 3.2,-2.9 1.1,1.2 -3.9,3.6 1.6,1.8 3.8,-3.5 1.1,1.2 -3.8,3.5 3.9,4.3 z"
     class="st12" /><path
     style="fill:#dd9d2c"
     inkscape:connector-curvature="0"
     id="path179"
     d="m 111.5,28.9 -1.3,-1.5 -1.3,1.2 -0.4,-0.4 1.3,-1.2 -0.6,-0.6 -1.3,1.2 -0.4,-0.4 1.1,-1 -3.8,-1.3 0.8,-0.7 2.5,0.9 c 0.4,0.2 0.7,0.3 1,0.5 -0.1,-0.3 -0.3,-0.7 -0.4,-1.1 l -0.7,-2.6 0.8,-0.7 0.8,3.9 1.1,-1 0.4,0.4 -1.3,1.2 0.6,0.6 1.3,-1.2 0.4,0.4 -1.3,1.2 1.3,1.5 z m -50.7,33.7 -1.3,-1.5 -1.3,1.2 -0.4,-0.4 1.3,-1.2 -0.6,-0.6 -1.3,1.2 -0.4,-0.4 1.1,-1 -3.8,-1.3 0.8,-0.7 2.5,0.9 c 0.4,0.2 0.7,0.3 1,0.5 C 58.3,59 58.1,58.6 58,58.2 l -0.7,-2.6 0.8,-0.7 0.8,3.9 1.1,-1 0.4,0.4 -1.3,1.2 0.6,0.6 1.3,-1.2 0.4,0.4 -1.3,1.2 1.3,1.5 z"
     class="st26" /><g
     id="g193"><path
       style="fill:#f06060"
       inkscape:connector-curvature="0"
       id="path181"
       d="m 186.8,91.4 c 0,0 30.3,30.7 78.1,61.4 l -16.5,49.6 c 0,0 -51.3,-29.5 -75.8,-60.5 z"
       class="st29" /><path
       style="fill:#ffffff"
       inkscape:connector-curvature="0"
       id="path183"
       d="m 200,136.4 c -3.6,2.3 -8.2,1.1 -10.4,-2.3 -2.2,-3.4 -1.1,-9.2 2.4,-11.4 3.6,-2.3 8.2,-1.4 10.4,2 2.1,3.3 1.1,9.4 -2.4,11.7 z m 46.5,36.7 c -2.8,1.3 -6.1,-0.1 -7.6,-3.3 -1.5,-3.2 0,-9.5 2.8,-10.8 2.8,-1.3 6.3,0.3 7.8,3.6 1.5,3.2 -0.2,9.2 -3,10.5 z"
       class="st12" /><path
       inkscape:connector-curvature="0"
       id="path185"
       style="fill:none;stroke:#ffffff;stroke-width:0.49599999;stroke-miterlimit:10"
       d="m 224.1,164.5 c -6.4,2.9 -13.8,0 -17.1,-7.2 -3.3,-7.2 0.2,-21.1 6.6,-24 6.4,-2.9 14.2,0.6 17.5,7.8 3.3,7.1 -0.6,20.5 -7,23.4 z" /><path
       inkscape:connector-curvature="0"
       id="path187"
       style="fill:none;stroke:#ffffff;stroke-width:0.7439;stroke-miterlimit:10"
       d="m 189.4,98.2 -12.3,43.6 c 0,0 35.5,37.7 69.7,53.4 l 14.7,-41.9 c 0,0 -21.1,-10 -72.1,-55.1 z" /><path
       style="fill:#ffffff"
       inkscape:connector-curvature="0"
       id="path189"
       d="m 209.6,153.5 0.6,-1.3 c 2.1,0 4.2,-1.1 5.2,-3 0.3,-0.6 0.5,-1.1 0.8,-1.8 l -2.6,-1.3 0.8,-1.6 2.4,1.2 c 0.3,-0.8 0.6,-1.9 1.1,-2.9 1.5,-3 4.6,-3.9 7.4,-2.5 1.3,0.7 2.1,1.4 2.4,2.1 l -1.4,1.4 c -0.3,-0.5 -0.9,-1.1 -2,-1.7 -2,-1 -3.5,-0.1 -4.4,1.7 -0.6,1.1 -0.8,2 -1.1,2.9 l 3.7,1.9 -0.8,1.6 -3.5,-1.8 c -0.4,1 -0.9,2 -1.6,2.8 -0.8,0.9 -1.9,1.6 -3.2,1.8 v 0.1 l 7.6,3.9 -0.9,1.9 z"
       class="st12" /><path
       style="fill:#f06060"
       inkscape:connector-curvature="0"
       id="path191"
       d="m 240.8,168 0.3,-0.5 c 0.9,0 1.8,-0.5 2.2,-1.3 0.1,-0.3 0.2,-0.5 0.3,-0.8 l -1.1,-0.6 0.3,-0.7 1,0.5 c 0.1,-0.4 0.3,-0.8 0.5,-1.2 0.7,-1.3 2,-1.7 3.2,-1 0.6,0.3 0.9,0.6 1,0.9 l -0.6,0.6 c -0.1,-0.2 -0.4,-0.5 -0.9,-0.7 -0.8,-0.4 -1.5,0 -1.9,0.7 -0.2,0.5 -0.4,0.8 -0.5,1.2 l 1.6,0.8 -0.3,0.7 -1.5,-0.8 c -0.2,0.4 -0.4,0.9 -0.7,1.2 -0.4,0.4 -0.8,0.7 -1.3,0.8 l 3.2,1.6 -0.4,0.8 z m -49.4,-36.7 0.3,-0.5 c 0.9,0 1.8,-0.5 2.2,-1.3 0.1,-0.3 0.2,-0.5 0.3,-0.8 l -1.1,-0.6 0.3,-0.7 1,0.5 c 0.1,-0.4 0.3,-0.8 0.5,-1.2 0.7,-1.3 2,-1.7 3.2,-1 0.6,0.3 0.9,0.6 1,0.9 l -0.6,0.6 c -0.1,-0.2 -0.4,-0.5 -0.9,-0.7 -0.8,-0.4 -1.5,0 -1.9,0.7 -0.2,0.5 -0.4,0.8 -0.5,1.2 l 1.6,0.8 -0.3,0.7 -1.5,-0.8 c -0.2,0.4 -0.4,0.9 -0.7,1.2 -0.4,0.4 -0.8,0.7 -1.3,0.8 l 3.2,1.6 -0.4,0.8 z"
       class="st29" /></g><g
     id="g225"><defs
       id="defs196"><path
         inkscape:connector-curvature="0"
         d="m 15.8,252.3 c 0,0 31.7,-54.7 79,-65.4 47.3,-10.7 56.1,-26.1 56.1,-26.1 l 9.1,7.2 c 0,0 -17.3,21.1 -46.8,28.6 -57.3,14.6 -80,66.5 -82.8,70 z"
         id="SVGID_1_" /></defs><use
       height="100%"
       width="100%"
       y="0"
       x="0"
       id="use198"
       style="overflow:visible;fill:#97ccfe"
       xlink:href="#SVGID_1_" /><clipPath
       id="SVGID_00000135656206630218273620000009248463953402575799_"><use
         height="100%"
         width="100%"
         y="0"
         x="0"
         id="use200"
         style="overflow:visible"
         xlink:href="#SVGID_1_" /></clipPath><path
       inkscape:connector-curvature="0"
       id="path203"
       clip-path="url(#SVGID_00000135656206630218273620000009248463953402575799_)"
       d="m 88.6,207.8 1.7,0.4 c 0,-0.2 4.4,-18.1 7.4,-23.7 l -1.5,-0.8 c -3.1,5.8 -7.4,23.3 -7.6,24.1 z"
       style="fill:#97ccfe" /><path
       style="fill:#2d7dc6"
       inkscape:connector-curvature="0"
       id="path205"
       d="m 6.1,239.6 c 0,0 29.4,-20.1 37.2,-53.1 7.8,-33.2 17.8,-57.9 42.2,-68.7 18.5,-8.3 39.9,-6.1 39.9,-6.1 L 118,97.6 c 0,0 -53.9,-3.5 -71.7,39.9 -17.8,43.4 -20,62.1 -54.2,90.5"
       class="st5" /><path
       style="fill:#2d7dc6"
       inkscape:connector-curvature="0"
       id="path207"
       d="m 118,97.6 11.3,6.7 -3.9,7.4 z"
       class="st5" /><path
       style="fill:#2d7dc6"
       inkscape:connector-curvature="0"
       id="path209"
       d="m 125.3,97.7 11.3,6.7 -3.9,7.4 z m 12.3,1 9.6,5.8 -3.3,6.2 z"
       class="st5" /><path
       style="fill:#97ccfe"
       inkscape:connector-curvature="0"
       id="path211"
       d="m 161.7,170.3 -12.9,-10.9 13.3,-2.7 z"
       class="st33" /><path
       style="fill:#2d7dc6"
       inkscape:connector-curvature="0"
       id="path213"
       d="m 198.9,210 12.1,2.1 -1.9,11.5 C 126.8,264.7 98.2,220.8 98.2,220.8 l -4.3,-6.2 c 22.6,28.9 76.9,15.5 105,-4.6 z"
       class="st5" /><path
       inkscape:connector-curvature="0"
       id="path215"
       style="opacity:0.5;fill:#2d7dc6"
       d="m 98.5,189.2 c 0,0 5.1,2.1 0.3,15.1 -4.9,13.3 5.6,22.5 8.8,25.9 0,0 -12.8,-11.1 -15.8,-16.8 0,0 -5.5,-5.7 -2.2,-14.7 4.8,-12.9 -1.1,-19.8 -1.1,-19.8 z" /><path
       style="fill:#2d7dc6"
       inkscape:connector-curvature="0"
       id="path217"
       d="M 87.4,178 C 67,170.8 -7.2,239.3 -7.2,239.3 l 13.1,12.9 c 0,0 83.2,-72.3 93.7,-61.9"
       class="st5" /><path
       style="fill:#97ccfe"
       inkscape:connector-curvature="0"
       id="path219"
       d="m 140.9,206.9 c 0,0 37.6,4.8 88.4,-30.8 l -6.2,-3.8 c 0,0 -52.7,35.3 -90.6,26.1 z"
       class="st33" /><path
       style="fill:#97ccfe"
       inkscape:connector-curvature="0"
       id="path221"
       d="m 140.9,207 c 0,0 -0.9,-42.8 -12.3,-54.8 -4.3,-4.5 -6.9,-7.1 -10.3,-10 11.3,16.1 13.7,55.4 13.7,55.4 z m 90.4,-29.2 -10.6,-7 11.9,-1.1 z M 38.2,292.6 c 0,0 26.9,-74.2 105.6,-73.3 0,0 28.2,2.4 25.4,30.4 0,0 4,-18.5 -12.2,-24.2 C 141.4,220 74.2,221 46.5,300.7 m 245.3,-57.8 c 0.3,-0.3 -9.3,-33.7 -46.1,-17.8 -36.8,15.9 -54.8,46.1 -72.6,36.4 0,0 9.9,7.9 30.8,-5.5 32.3,-20.7 75.6,-52.5 84.7,-14.8"
       class="st33" /><path
       style="fill:#97ccfe"
       inkscape:connector-curvature="0"
       id="path223"
       d="m 188.7,262 c 0,0 -15.8,4.5 -17.5,-6.5 -1.7,-11 0.8,-19.8 -9.2,-27.9 0,0 5.7,2.4 4.6,13.7 -1.1,11.3 4.5,24.6 17.3,22.3 0,0 1.4,0 4.8,-1.6 z M 125,148.9 c 0,0 -63.8,-8.5 -154,75.9 -3.2,-3.1 -9.5,-8.2 -13.6,-13.4 86.3,-75.8 159.2,-71.7 159.2,-71.7 l 5.8,6.2 m 164.6,94.2 7.5,3.2 -3.1,3.1 z"
       class="st33" /></g></svg>