<?xml version="1.0" encoding="UTF-8" standalone="no"?>
<svg
   xmlns:dc="http://purl.org/dc/elements/1.1/"
   xmlns:cc="http://creativecommons.org/ns#"
   xmlns:rdf="http://www.w3.org/1999/02/22-rdf-syntax-ns#"
   xmlns:svg="http://www.w3.org/2000/svg"
   xmlns="http://www.w3.org/2000/svg"
   xmlns:sodipodi="http://sodipodi.sourceforge.net/DTD/sodipodi-0.dtd"
   xmlns:inkscape="http://www.inkscape.org/namespaces/inkscape"
   viewBox="0 0 299.99999 737.3"
   xml:space="preserve"
   version="1.1"
   id="svg458"
   sodipodi:docname="EconomyBR.svg"
   width="300"
   height="737.29999"
   inkscape:version="0.92.4 (5da689c313, 2019-01-14)"><metadata
     id="metadata464"><rdf:RDF><cc:Work
         rdf:about=""><dc:format>image/svg+xml</dc:format><dc:type
           rdf:resource="http://purl.org/dc/dcmitype/StillImage" /><dc:title /></cc:Work></rdf:RDF></metadata><defs
     id="defs462" /><sodipodi:namedview
     pagecolor="#ffffff"
     bordercolor="#666666"
     borderopacity="1"
     objecttolerance="10"
     gridtolerance="10"
     guidetolerance="10"
     inkscape:pageopacity="0"
     inkscape:pageshadow="2"
     inkscape:window-width="1920"
     inkscape:window-height="1016"
     id="namedview460"
     showgrid="false"
     inkscape:zoom="0.23943865"
     inkscape:cx="-2.0882293"
     inkscape:cy="351.94425"
     inkscape:window-x="0"
     inkscape:window-y="36"
     inkscape:window-maximized="1"
     inkscape:current-layer="svg458" /><style
     id="style2">.st0{fill:#ededed;stroke:#25c7a1;stroke-miterlimit:10}.st1{fill:#2d75be}.st2{fill:#555d68}.st3{fill:#fff;stroke:#555d68;stroke-miterlimit:10}.st4{fill:#ededed}.st5{fill:#2d7dc6}.st7{fill:#9da3e0}.st8{fill:#3e437a}.st9{fill:#00a1d9}.st10{fill:#074d82}.st11{fill:#313561}.st12{fill:#fff}.st15{fill:#258920}.st18{fill:#005696}.st19{fill:#009fd7}.st22{fill:#365aad}.st23{fill:#9ecfff}.st24{fill:#4a9bed}.st26{fill:#dd9d2c}.st29{fill:#f06060}.st33{fill:#97ccfe}.st47{fill:#04518c}.st48{fill:#003056}.st50{fill:#55d4ff}</style><g
     id="g136"
     transform="translate(-1080)"><path
       style="fill:#005696"
       inkscape:connector-curvature="0"
       id="path94"
       d="M 1217.5,430.6 H 1189 l -79.6,-2.5 0.1,-1.9 79.5,2.5 h 28.5 l 123,-8.6 -5,-10.1 1.4,-0.9 6.3,12.7 z"
       class="st18" /><path
       style="fill:#005696"
       inkscape:connector-curvature="0"
       id="path96"
       d="m 1226.1,693.5 -10.4,-287.6 h 1.7 l 10.3,287.6 z"
       class="st18" /><path
       style="fill:#009fd7"
       inkscape:connector-curvature="0"
       id="path98"
       d="m 1219.1,690.9 -33,-33.4 29.1,-21.4 -28.6,-30.1 27.7,-26.3 -26.3,-23 24.9,-25.8 -24.4,-21.9 23,-24.2 -22.5,-20.8 21.5,-21.9 -19.6,-15.5 0.9,-1.5 21.4,16.8 -21.7,22 22.5,20.8 -23,24.2 24.5,21.9 -24.9,25.8 26.3,23.1 -27.8,26.4 28.8,30.3 -29.1,21.4 31.4,31.7 z m -5.9,-264.4 -1.2,-1.3 16.4,-20.3 c 0.3,-0.4 0.8,-0.4 1.1,0 l 16.1,17.4 15.1,-16 c 0.3,-0.3 0.8,-0.3 1.1,0 l 13.2,14.4 12.6,-14.4 c 0.3,-0.3 0.8,-0.4 1.1,0 l 13.5,13.4 10.4,-11.8 c 0.3,-0.3 0.8,-0.4 1.1,0 l 10.3,10.2 -1,1.4 -9.8,-9.7 -10.4,11.8 c -0.3,0.3 -0.8,0.4 -1.1,0 l -13.5,-13.3 -12.6,14.4 c -0.3,0.4 -0.8,0.4 -1.1,0 l -13.2,-14.4 -15.1,16 c -0.3,0.3 -0.8,0.3 -1.1,0 l -16,-17.4 z"
       class="st19" /><path
       style="fill:#009fd7"
       inkscape:connector-curvature="0"
       id="path100"
       d="m 1109.1,427.5 3.2,-10.8 80.3,-12.3 21.9,-0.4 122.4,4.6 1.1,10.6 -125.6,7 z m 4.4,-9 -2.1,7.1 101.1,-1.3 123.8,-6.9 -0.7,-7 -121,-4.5 -21.9,0.4 z"
       class="st19" /><path
       style="fill:#009fd7"
       inkscape:connector-curvature="0"
       id="path102"
       d="m 1128.7,426.8 -14.3,-9.1 0.7,-1.7 13.3,8.5 10.4,-11.4 14.1,11 12.6,-14.4 11.8,13.8 13.1,-18.9 23.3,19.7 -0.9,1.6 -22.1,-18.7 -13.2,19.1 -12,-13.9 -12.4,14.1 -14.1,-11 z"
       class="st19" /><path
       style="fill:#005696"
       inkscape:connector-curvature="0"
       id="path104"
       d="m 1220.8,690.7 -1.6,-0.3 3.7,-33.1 -4.5,-21.9 3.6,-29.7 -4.8,-26.7 3.3,-23 -6.2,-24.9 4.8,-22.4 -5.8,-23.8 4.6,-20.8 -5.3,-22.1 4,-17.1 -5.2,-19.4 1.5,-0.6 5.4,20 -4,17.1 5.2,22.1 -4.5,20.8 5.7,23.8 -4.8,22.3 6.3,24.9 -3.4,23.1 4.8,26.6 -3.6,29.7 4.6,21.9 z"
       class="st18" /><path
       style="fill:#009fd7"
       inkscape:connector-curvature="0"
       id="path106"
       d="m 1187.1,692.2 h -1.6 l 4.1,-286.3 h 1.6 z"
       class="st19" /><path
       style="fill:#009fd7"
       inkscape:connector-curvature="0"
       id="path108"
       d="M 1190.2,464.9 V 463 l 22.6,-0.2 v 1.9 z m -0.4,45 V 508 l 24.5,-0.2 0.1,1.9 z m -0.5,47.7 v -1.9 L 1215,555 v 1.9 z m 28.2,49.8 -29.6,-0.4 v -1.9 l 29.6,0.4 z m 1.2,51.9 -32.2,-0.7 v -1.9 l 32.3,0.7 z"
       class="st19" /><path
       style="fill:#009fd7"
       inkscape:connector-curvature="0"
       id="path110"
       d="m 1219.2,694.3 -8.3,-290.4 h 1.6 l 8.3,290.3 z"
       class="st19" /><g
       id="g114"><path
         style="fill:#005696"
         inkscape:connector-curvature="0"
         id="path112"
         d="m 1324.5,547.8 h -6.4 V 422.7 h 1.7 v 123.9 h 3 V 423.2 h 1.7 z"
         class="st18" /></g><g
       id="g118"><path
         style="fill:#005696"
         inkscape:connector-curvature="0"
         id="path116"
         d="m 1114.8,430.4 h 31.9 v 16.5 h -31.9 z"
         class="st18" /></g><g
       id="g122"><path
         style="fill:#005696"
         inkscape:connector-curvature="0"
         id="path120"
         d="m 1127.9,412.9 h 4.1 v 21.6 h -4.1 z"
         class="st18" /></g><g
       id="g126"><path
         style="fill:#009fd7"
         inkscape:connector-curvature="0"
         id="path124"
         d="m 1123.3,430.7 h 1.6 v 15.9 h -1.6 z"
         class="st19" /></g><g
       id="g130"><path
         style="fill:#009fd7"
         inkscape:connector-curvature="0"
         id="path128"
         d="m 1135.1,430.7 h 1.6 v 15.9 h -1.6 z"
         class="st19" /></g><g
       id="g134"><path
         style="fill:#009fd7"
         inkscape:connector-curvature="0"
         id="path132"
         d="m 1315.5,533.6 h 10.6 v 22.7 h -10.6 z"
         class="st19" /></g></g><g
     id="g166"
     transform="translate(-1080)"><path
       style="fill:#365aad"
       inkscape:connector-curvature="0"
       id="path138"
       d="m 1233.4,645.5 v -74.6 l 9.6,-6.3 h 15.2 v 47 h 8.8 l 6.8,6.8 h 16.7 v 38 h -57.1 z"
       class="st22" /><path
       style="fill:#9ecfff"
       inkscape:connector-curvature="0"
       id="path140"
       d="m 1129.5,710.5 c -4.3,2.5 -5.2,-5.4 -1.2,-5.2 -2,-2.1 -2.5,-5.3 -1.4,-7.8 -3.2,0.6 -4.4,-1.2 -5.8,-3.8 0.9,-0.6 3,-1.5 3.3,-1.6 -3.6,0 -7.3,0.1 -11,-0.1 -0.4,-2.5 2.2,-4.5 4.5,-4.6 -1.6,0.2 -3.2,0.1 -4.5,-0.7 1.7,-1.8 6.1,-0.7 7.3,0.1 -2.5,-0.6 -5.7,-2.2 -6.8,-4.7 1.1,-0.3 2.1,-0.8 3.4,-0.5 -2.5,0 -9.9,-2 -7.6,-6.2 2.9,-5.2 7.7,2.7 7.8,5.6 3.4,-2.2 4.1,-2.1 4.7,2.5 1.3,-1.5 2.6,-1.9 3.2,0.1 1.2,-0.9 2.9,-1.5 4.4,-1.6 -2.6,-1.8 -5.3,-4.6 -7.1,-7.1 1.8,-0.2 3.5,0.1 5,0.8 -1.2,-0.8 -5.8,-2.8 -5.5,-4.6 0.4,-2.1 4.3,-1.8 5.5,-1 -3.9,0.8 -4.5,-3.5 -0.5,-2.6 -2.2,0.4 -4.7,-0.6 -4.5,-3.1 1,0.1 2.3,-0.3 3.4,-0.1 -2.3,-1.6 -6.9,-2.8 -6.5,-6.2 1.3,0 2.7,0.4 3.9,1 -1.6,-0.8 -6.4,-2.3 -6.1,-4.7 0.3,-3.7 5.3,-1.7 6.1,0.5 -0.4,-1.2 -0.2,-2.3 -0.2,-3.6 1.5,1 2.4,2.8 3.2,4.6 0.6,-1 1.4,-6.3 3.5,-6.3 2.7,0.1 1.6,5 1,6.7 0.6,-1.5 1.6,-2.7 3.1,-2.9 1,2 0.7,4.7 0.2,6.7 1.6,-1 3.1,-2.8 5.1,-3 0.1,1.6 -0.5,3.1 -1.4,4.4 1.5,-1 3.1,-2.4 4.1,-3.9 -2.7,-0.2 -4.3,-3.5 -3.3,-5.9 -3.1,-1.8 -9.8,-4.1 -8.6,-8.8 1.5,-0.4 2.8,0.1 3.5,1.4 -2.3,0.5 -7.6,-2.5 -3.6,-3.6 2.5,-0.7 4.8,2.1 5.8,4 0.6,-7.9 5,0.7 6.3,3.1 -0.3,-2.5 1,-2.8 2.7,-1.5 1.5,1.1 0.6,4 1.4,5.4 1.5,2.4 2.6,0.8 3.7,2.6 0.7,1.1 0,4.8 0.1,6.2 0.7,-0.8 2.2,-1.3 2.9,-2 0.2,1.6 0.2,2.4 -1,3.4 2.8,-5.3 10.8,-1.4 4.8,3.7 0.3,0.1 0.6,0.1 0.9,0.2 -1.2,2.5 -4,4 -5.6,6.1 2.9,-0.1 4.9,-2.5 8.2,-1.9 0.7,3.2 -3.4,3.5 -5.5,4.7 2,-0.5 5.1,-2.2 6.6,0 2,2.7 -1.3,3.7 -3.5,3.1 5.7,0.2 7.4,5.7 0.5,3.9 4.4,0.9 7.2,5.6 1.1,5.5 4.3,-1 3.6,9.1 3.4,11.9 -0.1,-0.5 0,-1 0.1,-1.6 0.8,1.2 0.7,2.8 0,4.2 m 86,-44.4 c 0.1,0.2 -0.2,0.8 0.1,0.5 3.6,-3.3 3.3,-19.9 -3.9,-18.5 1.6,-1.6 0.3,-4.6 -2,-4.3 4,-1.3 0.6,-7.2 -1.5,-3.6 2.7,-3.1 -0.8,-5.4 -2.8,-2 2.4,-1.5 2.9,-5.1 0,-5 -1.7,0.1 -4.8,2.3 -5.4,3.9 0.4,-0.5 0.2,-1 0.3,-1.8 -1.5,-0.4 -3,0.3 -3.5,1.8 0.5,-1 0.6,-2.2 0.4,-3.2 -0.5,0.1 -5.1,2.8 -2.8,3.8 -0.6,-0.3 -1.4,-0.2 -1.9,-0.4 0.2,1.3 0.3,2.3 1.4,3.4 -2.3,-3.4 -3.7,1.8 -1,3.2 -1.3,-2.2 -4.1,-4.2 -6.5,-2.5 2.6,-2.9 6,-7.5 3.8,-11.5 -0.8,0.6 -1.9,1 -2.5,1.8 1.6,-2 1.9,-8 0.2,-9.6 -1.5,1.7 -2.2,3.9 -2.3,6.1 -0.9,-2.1 -1.1,-6.6 -4,-7.2 -0.1,1.6 0.6,3.2 1.8,4.1 -1.2,-1.5 -3,-2.3 -4.9,-2 1.5,2.5 2.3,5.5 4.4,7.4 -0.2,0.4 -1.1,1.6 -1.4,1.9 0.5,-0.7 0.2,-1.4 0.4,-2.5 -1.8,-0.1 -3.1,1.3 -4,2.9 0.2,-1 -0.3,-2.4 -0.2,-3.4 -1.6,0.3 -2.2,1.6 -2,3.4 0.5,-5.4 -5.6,-4.8 -2.8,-1.5 -1.2,-0.7 -2.7,-0.7 -3.9,0.2 0.3,1.5 1.5,3 2.5,4 -1.4,-0.1 -2.4,0.5 -3.6,1.1 0.5,1.6 1.9,2.9 3,4.1 -6.3,-0.7 -3.3,4.5 -1.6,7.1 3.8,5.8 0.1,2.8 -1.8,7.8 -1,2.7 1.1,5.9 2.6,7.8 4.4,5.7 11.6,7 18.3,7.4 4.5,0.3 8.1,-0.8 12.6,-0.8"
       class="st23" /><path
       style="fill:#4a9bed"
       inkscape:connector-curvature="0"
       id="path142"
       d="m 1214.3,738.7 h 115.9 V 574 h -24.5 v 32.4 h -22 v 21.1 H 1266 l -24.5,18 h -19.1 l -14.3,-15.1 h -24.6 v -11 h -22.9 v 34.5 l -10.5,4.2 h -13.5 l 0.5,80.6"
       class="st24" /><path
       style="fill:#4a9bed"
       inkscape:connector-curvature="0"
       id="path144"
       d="m 1326.8,570.9 h 14.6 v 42.3 h 19.6 l 25.2,0.2 v -12.9 l 23,23.9 h 10.5 v -11.7 h 14.6 v 22.9 h 16.2 l 18.2,-22.4 h 8.2 v 6.8 h 10.6 v -16.7 h 32.1 V 598 l 10.7,-5.7 h 8.4 v 44.6 l 24,0.8 V 680 l 14.4,0.1 20.3,22.9 v 32.5 h -270.6"
       class="st24" /><path
       style="fill:#365aad"
       inkscape:connector-curvature="0"
       id="path146"
       d="m 1126.1,700.8 19.9,-18.2 h 28.3 l 19.2,18.2 v -18.2 h 10.9 v -14.8 l 18,-9.7 h 26.9 v 21.3 h 7.8 l 9.9,15.7 v 24.5 l 10,-10.9 h 16.7 l 9.4,-10.5 h 26 v 40.5 h -203"
       class="st22" /><path
       style="fill:#365aad"
       inkscape:connector-curvature="0"
       id="path148"
       d="m 1310.9,698.4 h 24.5 l 13.1,-13.7 h 19.8 v -18.8 h 18.8 v -5.8 h 7.3 v 25.1 h 11.5 l 8.8,-10.4 h 27.9 l 7.6,9.9 v 10.9 h 12.5 l 7.3,7.3 v -27.6 h 27.2 l 9.4,-9.4 h 16.5 v -9.5 h 17.9 v 88.8 h -230.1"
       class="st22" /><path
       style="fill:#9ecfff"
       inkscape:connector-curvature="0"
       id="path150"
       d="m 1342.6,690.5 h -16.9 v -21.9 h -20.1 v 9.4 h -35 l -9.4,9.7 -0.2,-0.2 9.5,-9.8 h 34.8 v -9.4 h 20.6 v 21.9 h 16.7 z m -181.5,52.1 c -2.6,1.9 -2.4,-2.1 -1.9,-3.5 0.5,-1.3 1.8,-2.5 2.9,-3.1 -1.4,3.6 -5.9,1 -4,-0.1 -1.5,0.1 -2.5,-0.8 -2.2,-2.3 0.8,-0.1 1.7,-0.6 2.3,-0.7 -0.8,-0.1 -1.7,-0.7 -2.2,-1.3 0.8,-0.3 1.1,-0.8 2.1,-0.9 -1.2,-0.2 -12.3,1.9 -7.9,-1.8 -3.8,0.1 -0.3,-3.5 2.3,-2.8 -0.7,0 -1.3,-0.1 -1.9,-0.3 1.4,-0.2 2.8,-0.2 4.1,0.3 -1.7,-0.3 -3.4,-1.7 -4.4,-3.1 1.3,-0.1 2.5,0.3 3.7,0.7 -6,-0.9 -3.6,-5.1 0.8,-1.6 -1.7,-0.7 -3.5,-2.1 -2.9,-4.3 1.8,-0.4 3.9,0.8 5,1.8 -0.4,-0.6 -0.1,-1.3 -0.3,-2.2 2.8,-0.5 2.7,3.8 4.3,5.3 v -1.3 c 0.5,1.1 1,2.1 1.2,3.3 -0.2,-0.9 0,-2 0.1,-3 0.5,-0.2 1.3,-0.2 1.8,0 0.1,1.1 0.5,1.9 0.9,3 0,-1.3 0.6,-2.3 1.9,-2.2 0.1,0.8 0.5,1.4 1.2,1.7 2.1,-1.9 3,-4.8 3.7,-7.4 -1.7,0.5 -4.8,-0.8 -2.5,-2.6 -1.9,-0.5 -3.7,-2.1 -3.9,-4.1 2.4,0.1 4.6,-0.9 7.1,-0.6 -2.1,-0.7 -4,-1.7 -4.5,-4.1 1.6,-0.2 3.4,-0.1 5,-0.2 -1.6,-1 -2.3,-2.7 -1.9,-4.5 2.9,-0.2 3.6,3.3 4.6,5.5 -0.3,-2 0.3,-4.1 2.1,-5 1.6,1.9 0.5,4.1 1.7,6 0.6,-1.4 1.7,-1.7 2.4,-2.4 -0.1,1.2 0.3,2.6 0.1,3.9 0.2,-1.3 2.6,-1.4 3.5,-1 -0.1,2.1 -1.2,4.6 -2.2,6.5 1.4,-0.9 4.6,-3 6.6,-2.1 1.8,0.7 3.4,3.3 0.1,3.7 5.9,-2.6 5.3,2.2 0.5,4.2 1.7,-0.7 3.6,-0.7 5.5,-0.5 -0.5,1.1 0.1,1.6 -1.3,2.6 1.5,-0.6 3.3,-0.7 5,-0.7 -0.8,-2.6 -3.2,-4.6 -3,-7.7 1.6,0.4 2.9,2 4.1,3.4 -1.3,-2 -2.8,-5.5 -0.6,-7.2 1.7,1.6 2.2,4.1 3.2,6.1 -0.3,-1.7 1.4,-7.2 4,-5.5 2,1.3 -0.9,6.6 -1.5,8.1 5,-6.3 7.4,-1.2 2.8,3.9 1.4,-0.7 3.7,-1.2 4.4,0.5 0.6,1.5 -3,4.1 -3.9,5.1 0.6,0 1.3,0.2 1.8,0.2 0,1.6 -1.3,2.9 -2.5,4 1.4,-0.2 6.2,-1.5 6.8,0.6 0.5,1.8 -4.1,3.6 -4.3,3.6 4.6,1 7,2.7 3.7,5.2 m 157,-62.9 h -12.3 v -9.4 h -14 l -0.1,-0.1 -8.6,-10.9 h -14.9 v -30.5 h -11.4 l -10.4,-9.4 h -9.7 v -0.3 h 9.8 l 10.4,9.4 h 11.6 v 30.5 h 14.8 v 0.1 l 8.6,10.9 h 14.2 v 9.4 h 12 z m -163.1,-14.7 h -0.3 v -19.6 l -14,-14.2 0.2,-0.2 14.1,14.3 z"
       class="st23" /><path
       style="fill:#4a9bed"
       inkscape:connector-curvature="0"
       id="path152"
       d="m 1210.9,731.5 h -0.3 v -49.1 h 10.2 v -24.5 h 0.2 v 24.8 h -10.1 z m 98.9,7.1 -0.2,-0.2 6.7,-6.7 h 24.8 l 17.4,-13.4 v -12.9 h -5.7 l 10.5,-10.5 h 12.5 v -29.2 h 0.2 v 29.5 h -12.6 l -9.9,9.9 h 5.3 v 13.3 l -17.6,13.6 h -24.8 z"
       class="st24" /><path
       style="fill:#365aad"
       inkscape:connector-curvature="0"
       id="path154"
       d="m 1336.7,584.5 h 4.7 v 29 h -4.7 z"
       class="st22" /><path
       style="fill:#4a9bed"
       inkscape:connector-curvature="0"
       id="path156"
       d="m 1251.4,580.6 h 7 v 31.3 h -7 z"
       class="st24" /><path
       style="fill:#365aad"
       inkscape:connector-curvature="0"
       id="path158"
       d="m 1200.5,651 h 3.9 v 31.3 h -3.9 z m -39.9,-31.3 h 3.1 v 44.6 h -3.1 z m 188.6,-6.3 h 11.7 v 9.4 h -11.7 z m -32.8,14.9 h 5.5 v 30.5 h -5.5 z m -11,40.7 h 11 v 9.4 h -11 z m 43.1,4.7 h 6.3 v 11 h -6.3 z m -74.4,-28.2 h 4.7 v 11 h -4.7 z"
       class="st22" /><path
       style="fill:#4a9bed"
       inkscape:connector-curvature="0"
       id="path160"
       d="m 1233.4,584.5 h 3.1 v 8.6 h -3.1 z m 5.5,11.7 h 2.3 v 8.6 h -2.3 z m 12.5,104.9 h 3.1 v 7 h -3.1 z m 0,12.5 h 3.1 v 7.8 h -3.1 z"
       class="st24" /><path
       style="fill:#9ecfff"
       inkscape:connector-curvature="0"
       id="path162"
       d="m 1136.3,658.1 h 14.1 v 3.9 h -14.1 z m 169.1,-83.8 h 21.1 v 4.7 h -21.1 z"
       class="st23" /><path
       style="fill:#365aad"
       inkscape:connector-curvature="0"
       id="path164"
       d="m 1349.2,647.1 h 10.2 v 22.7 h -10.2 z m 32.9,-33.7 h 3.9 v 33.7 h -3.9 z"
       class="st22" /></g></svg>