<?xml version="1.0" encoding="UTF-8" standalone="no"?>
<svg
   xmlns:dc="http://purl.org/dc/elements/1.1/"
   xmlns:cc="http://creativecommons.org/ns#"
   xmlns:rdf="http://www.w3.org/1999/02/22-rdf-syntax-ns#"
   xmlns:svg="http://www.w3.org/2000/svg"
   xmlns="http://www.w3.org/2000/svg"
   xmlns:xlink="http://www.w3.org/1999/xlink"
   xmlns:sodipodi="http://sodipodi.sourceforge.net/DTD/sodipodi-0.dtd"
   xmlns:inkscape="http://www.inkscape.org/namespaces/inkscape"
   viewBox="0 0 299.99999 737.3"
   xml:space="preserve"
   version="1.1"
   id="svg458"
   sodipodi:docname="EconomyBL.svg"
   width="300"
   height="737.29999"
   inkscape:version="0.92.4 (5da689c313, 2019-01-14)"><metadata
     id="metadata464"><rdf:RDF><cc:Work
         rdf:about=""><dc:format>image/svg+xml</dc:format><dc:type
           rdf:resource="http://purl.org/dc/dcmitype/StillImage" /><dc:title /></cc:Work></rdf:RDF></metadata><defs
     id="defs462" /><sodipodi:namedview
     pagecolor="#ffffff"
     bordercolor="#666666"
     borderopacity="1"
     objecttolerance="10"
     gridtolerance="10"
     guidetolerance="10"
     inkscape:pageopacity="0"
     inkscape:pageshadow="2"
     inkscape:window-width="1920"
     inkscape:window-height="1016"
     id="namedview460"
     showgrid="false"
     inkscape:zoom="0.23943865"
     inkscape:cx="-2.0882293"
     inkscape:cy="351.94425"
     inkscape:window-x="0"
     inkscape:window-y="36"
     inkscape:window-maximized="1"
     inkscape:current-layer="svg458" /><style
     id="style2">.st0{fill:#ededed;stroke:#25c7a1;stroke-miterlimit:10}.st1{fill:#2d75be}.st2{fill:#555d68}.st3{fill:#fff;stroke:#555d68;stroke-miterlimit:10}.st4{fill:#ededed}.st5{fill:#2d7dc6}.st7{fill:#9da3e0}.st8{fill:#3e437a}.st9{fill:#00a1d9}.st10{fill:#074d82}.st11{fill:#313561}.st12{fill:#fff}.st15{fill:#258920}.st18{fill:#005696}.st19{fill:#009fd7}.st22{fill:#365aad}.st23{fill:#9ecfff}.st24{fill:#4a9bed}.st26{fill:#dd9d2c}.st29{fill:#f06060}.st33{fill:#97ccfe}.st47{fill:#04518c}.st48{fill:#003056}.st50{fill:#55d4ff}</style><g
     id="g241"><path
       style="fill:#9da3e0"
       inkscape:connector-curvature="0"
       id="path227"
       d="m 99.6,617.2 2.3,-0.1 c 1.4,0 2.6,-1.2 2.6,-2.6 V 607 c 0,-1.4 -1.2,-2.6 -2.6,-2.6 h -0.5 c -1.2,0 -2.2,-0.8 -2.5,-2 -0.9,-3.7 -2.4,-7.3 -4.3,-10.6 -0.6,-1.1 -0.4,-2.4 0.5,-3.2 l 0.4,-0.3 c 1.1,-0.9 1.2,-2.6 0.2,-3.7 L 90.8,579 c -0.9,-1.1 -2.6,-1.2 -3.7,-0.2 l -0.6,0.6 c -0.9,0.8 -2.2,0.9 -3.2,0.2 -3,-2.1 -6.3,-3.9 -9.9,-5.1 -1.2,-0.4 -1.9,-1.6 -1.7,-2.8 l 0.1,-0.8 C 72,569.5 71,568.2 69.6,568 l -7.4,-1 c -1.4,-0.2 -2.7,0.8 -2.9,2.2 l -0.2,1.1 c -0.2,1.2 -1.1,2.1 -2.3,2.2 -2.6,0.2 -5.2,0.8 -7.7,1.5 -1.2,0.4 -2.5,-0.2 -3,-1.2 l -0.5,-0.9 c -0.7,-1.3 -2.3,-1.7 -3.5,-1 l -6.6,3.6 c -1.3,0.7 -1.7,2.3 -1,3.5 l 0.6,1.1 c 0.6,1.1 0.3,2.4 -0.6,3.2 -2.5,2.2 -4.7,4.7 -6.6,7.5 -0.7,1 -2,1.4 -3.1,1 l -1,-0.4 c -1.3,-0.5 -2.8,0.1 -3.4,1.4 l -2.8,6.9 c -0.5,1.3 0.1,2.8 1.4,3.4 l 1,0.4 c 1.1,0.5 1.8,1.6 1.6,2.8 -0.1,0.4 -0.1,0.8 -0.2,1.2 -0.4,2.8 -0.5,5.6 -0.3,8.3 0.1,1.2 -0.7,2.3 -1.8,2.7 l -0.8,0.2 c -1.4,0.4 -2.1,1.9 -1.7,3.2 L 19,628 c 0.4,1.4 1.9,2.1 3.2,1.7 l 0.7,-0.2 c 1.2,-0.3 2.4,0.2 3,1.2 1.8,3.3 4.1,6.4 6.8,9 0.9,0.9 1,2.2 0.3,3.2 l -0.2,0.4 c -0.8,1.2 -0.4,2.8 0.8,3.6 l 6.3,4 c 1.2,0.8 2.8,0.4 3.6,-0.8 l 0.2,-0.3 c 0.7,-1 1.9,-1.5 3.1,-1 2.6,1 5.4,1.7 8.3,2.1 1,0.1 1.9,0.2 2.9,0.3 1.2,0.1 2.2,1 2.4,2.2 v 0.1 c 0.2,1.4 1.5,2.4 2.9,2.2 l 7.4,-1.1 c 1.4,-0.2 2.4,-1.5 2.2,-2.9 v -0.2 c -0.2,-1.2 0.5,-2.4 1.6,-2.8 3.7,-1.4 7.1,-3.3 10.1,-5.7 1,-0.8 2.3,-0.7 3.3,0.1 1.1,0.9 2.7,0.8 3.7,-0.3 l 4.9,-5.7 c 0.9,-1.1 0.8,-2.7 -0.3,-3.7 l -0.1,-0.1 c -0.9,-0.8 -1.2,-2.1 -0.6,-3.2 2,-3.9 3.5,-8.2 4.1,-12.9 z M 61,644.6 c -22.2,0.2 -38,-20.8 -31.8,-42.1 4,-13.8 16.6,-23.3 31,-23.4 22.2,-0.2 38,20.8 31.8,42.1 -4,13.7 -16.7,23.3 -31,23.4 z"
       class="st7" /><circle
       style="fill:#9da3e0"
       id="circle229"
       r="26"
       cy="611.79999"
       cx="60.5"
       class="st7"
       transform="rotate(-36.547,60.544,611.778)" /><path
       style="fill:#3e437a"
       inkscape:connector-curvature="0"
       id="path231"
       d="m 192.6,659.3 1.5,-3.8 c 0.2,-0.6 0,-1.4 -0.6,-1.7 l -4,-2.1 c -0.6,-0.3 -0.8,-0.9 -0.7,-1.5 0.6,-2.4 1,-4.8 1.2,-7.1 0,-0.6 0.5,-1.1 1.1,-1.2 l 4.5,-0.8 c 0.7,-0.1 1.2,-0.7 1.1,-1.4 l -0.2,-4.1 c 0,-0.7 -0.6,-1.2 -1.3,-1.3 l -4.5,-0.3 c -0.6,0 -1.1,-0.5 -1.3,-1.1 -0.4,-2.4 -1,-4.7 -1.9,-7 -0.2,-0.6 0,-1.2 0.5,-1.6 l 3.7,-2.5 c 0.6,-0.4 0.8,-1.1 0.5,-1.7 l -1.9,-3.6 c -0.3,-0.6 -1,-0.9 -1.7,-0.6 l -4.1,1.6 c -0.6,0.2 -1.3,0 -1.6,-0.5 -1.4,-2 -2.9,-3.9 -4.6,-5.7 -0.4,-0.4 -0.5,-1.1 -0.2,-1.7 l 2.3,-3.7 c 0.4,-0.6 0.2,-1.3 -0.3,-1.8 l -3.2,-2.5 c -0.5,-0.4 -1.3,-0.4 -1.8,0.1 l -3.1,3.1 c -0.4,0.4 -1.1,0.5 -1.7,0.2 -2.1,-1.3 -4.2,-2.4 -6.5,-3.3 -0.6,-0.2 -0.9,-0.8 -0.8,-1.4 l 0.6,-4.3 c 0.1,-0.7 -0.3,-1.3 -1,-1.5 l -4,-1 c -0.7,-0.2 -1.4,0.2 -1.6,0.8 l -1.5,4 c -0.2,0.6 -0.8,0.9 -1.4,0.9 -1.8,-0.2 -3.6,-0.4 -5.4,-0.4 -0.6,0 -1.2,-0.4 -1.3,-1 l -1,-4.2 c -0.2,-0.7 -0.8,-1.1 -1.5,-1 l -4,0.5 c -0.7,0.1 -1.2,0.7 -1.2,1.4 l 0.1,4.3 c 0,0.6 -0.4,1.2 -1,1.3 -2.4,0.6 -4.7,1.4 -6.9,2.4 -0.6,0.3 -1.2,0.1 -1.6,-0.4 l -2.7,-3.4 c -0.4,-0.5 -1.2,-0.7 -1.8,-0.3 l -3.5,2.1 c -0.6,0.4 -0.8,1.1 -0.5,1.7 l 1.8,3.9 c 0.3,0.6 0.1,1.2 -0.4,1.6 -1.9,1.5 -3.7,3.2 -5.3,5 -0.4,0.5 -1.1,0.6 -1.6,0.3 l -3.9,-2.1 c -0.6,-0.3 -1.4,-0.1 -1.8,0.4 l -2.3,3.4 c -0.4,0.6 -0.3,1.3 0.2,1.8 l 3.3,2.9 c 0.5,0.4 0.6,1.1 0.3,1.6 -1.1,2.1 -2,4.4 -2.8,6.7 -0.2,0.6 -0.8,1 -1.4,1 l -4.4,-0.3 c -0.7,0 -1.3,0.4 -1.4,1.1 l -0.7,4 c -0.1,0.7 0.3,1.3 0.9,1.5 l 4.3,1.3 c 0.6,0.2 1,0.7 1,1.4 -0.1,2.4 -0.1,4.9 0.2,7.2 0.1,0.6 -0.3,1.2 -0.9,1.4 l -4.2,1.6 c -0.6,0.2 -1,0.9 -0.8,1.6 l 1,4 c 0.2,0.7 0.8,1.1 1.5,1 l 4.5,-0.6 c 0.6,-0.1 1.2,0.3 1.4,0.9 0.9,2.2 1.9,4.4 3.2,6.5 0.3,0.5 0.2,1.2 -0.2,1.7 l -3.3,3.2 c -0.5,0.5 -0.5,1.3 -0.1,1.8 l 2.5,3.2 c 0.4,0.5 1.2,0.7 1.8,0.3 l 3.9,-2.4 c 0.5,-0.3 1.2,-0.2 1.7,0.2 1.7,1.7 3.5,3.2 5.5,4.6 0.5,0.4 0.7,1 0.5,1.6 l -1.7,4.3 c -0.3,0.6 0,1.4 0.6,1.7 l 3.6,1.9 c 0.6,0.3 1.4,0.1 1.7,-0.4 l 2.6,-3.8 c 0.4,-0.5 1,-0.7 1.6,-0.5 1.4,0.5 2.9,1 4.4,1.4 0.8,0.2 1.7,0.4 2.5,0.6 0.6,0.1 1.1,0.6 1.1,1.3 l 0.2,4.7 c 0,0.7 0.6,1.2 1.3,1.3 l 4.1,0.3 c 0.7,0 1.3,-0.4 1.4,-1.1 l 0.8,-4.6 c 0.1,-0.6 0.6,-1.1 1.3,-1.1 2.4,-0.1 4.7,-0.5 7,-1 0.6,-0.1 1.2,0.1 1.5,0.7 l 2.1,4.2 c 0.3,0.6 1,0.9 1.7,0.7 l 3.8,-1.4 c 0.6,-0.2 1,-0.9 0.8,-1.6 L 167,678 c -0.2,-0.6 0.1,-1.2 0.7,-1.5 2.1,-1.1 4.1,-2.4 6,-3.8 0.5,-0.4 1.2,-0.4 1.7,0 l 3.6,2.9 c 0.5,0.4 1.3,0.4 1.8,-0.1 l 2.9,-2.9 c 0.5,-0.5 0.5,-1.3 0.1,-1.8 l -2.9,-3.6 c -0.4,-0.5 -0.4,-1.2 0,-1.7 1.5,-1.9 2.8,-3.9 4,-6 0.3,-0.5 0.9,-0.8 1.5,-0.7 l 4.5,1.2 c 0.7,0.3 1.4,-0.1 1.7,-0.7 z m -32.5,-4.1 c -0.5,0.4 -1,0.7 -1.6,1 -0.1,0.1 -0.3,0.2 -0.4,0.2 -0.1,0.1 -0.3,0.1 -0.4,0.2 -0.1,0.1 -0.3,0.1 -0.4,0.2 -0.1,0.1 -0.3,0.1 -0.4,0.2 -2.9,1.4 -6.1,2 -9.4,1.8 -0.8,-0.1 -1.4,-0.9 -1.2,-1.7 l 1.2,-4.5 c 0.2,-0.6 0.7,-1 1.3,-1 4.4,0 8.4,-2.4 10.5,-6.2 0.3,-0.6 0.9,-0.8 1.5,-0.7 l 4.5,1.1 c 0.8,0.2 1.2,1.1 0.9,1.9 -1.5,3.1 -3.6,5.7 -6.1,7.5 z m -26.8,-4 c -0.7,-1 -1.4,-2.1 -1.9,-3.2 -1.4,-2.9 -2,-6.1 -1.7,-9.5 0.1,-0.8 0.9,-1.4 1.7,-1.2 l 4.5,1.1 c 0.6,0.2 1,0.7 1,1.3 0,4.5 2.5,8.7 6.5,10.7 0.6,0.3 0.9,0.9 0.7,1.5 l -1.1,4.5 c -0.2,0.8 -1.1,1.2 -1.9,0.9 -3.2,-1.3 -5.8,-3.5 -7.8,-6.1 z m 4.2,-26.8 c 0.1,-0.1 0.3,-0.2 0.4,-0.3 0.1,-0.1 0.2,-0.2 0.4,-0.2 0.1,-0.1 0.2,-0.2 0.4,-0.2 0.1,-0.1 0.3,-0.2 0.4,-0.2 0.1,-0.1 0.3,-0.2 0.4,-0.2 l 1.2,-0.6 c 3,-1.4 6.3,-2 9.7,-1.7 0.8,0.1 1.4,0.9 1.2,1.7 l -1.1,4.5 c -0.2,0.6 -0.7,1 -1.4,1 -4.6,-0.2 -8.9,2.4 -11,6.4 -0.3,0.6 -0.9,0.8 -1.5,0.7 l -4.5,-1.1 c -0.8,-0.2 -1.2,-1.1 -0.9,-1.9 1.5,-3.3 3.6,-5.9 6.3,-7.9 z m 23.1,15.8 c 0.1,-4.4 -2.3,-8.6 -6.2,-10.7 -0.5,-0.3 -0.8,-0.9 -0.7,-1.5 l 1.2,-4.5 c 0.2,-0.8 1.1,-1.2 1.9,-0.9 3,1.4 5.5,3.5 7.3,6 0.7,1 1.4,2.1 1.9,3.2 1.4,3 2,6.3 1.7,9.7 -0.1,0.8 -0.9,1.4 -1.7,1.2 l -4.5,-1.1 c -0.5,-0.2 -0.9,-0.8 -0.9,-1.4 z m 8.2,-14.4 c -0.6,0.3 -1.3,0.2 -1.7,-0.3 -3.1,-3.9 -7.4,-6.9 -12.5,-8.2 -5.1,-1.3 -10.3,-0.8 -14.9,1.1 -0.6,0.3 -1.3,0 -1.7,-0.6 l -5.2,-8.8 c -0.4,-0.7 -0.1,-1.6 0.6,-1.9 7.3,-3.5 15.9,-4.5 24.4,-2.3 8.5,2.2 15.5,7.2 20.3,13.8 0.5,0.6 0.3,1.6 -0.4,2 z M 117.3,622 c 2.6,-4.6 6.1,-8.5 10.3,-11.5 0.6,-0.5 1.6,-0.3 2,0.4 l 5.2,8.8 c 0.3,0.6 0.2,1.3 -0.3,1.8 -3.9,3.1 -6.9,7.4 -8.2,12.6 -1.3,5.2 -0.8,10.4 1.1,14.9 0.3,0.6 0,1.3 -0.6,1.7 l -8.8,5.2 c -0.7,0.4 -1.6,0.1 -1.9,-0.6 -3.5,-7.4 -4.5,-15.9 -2.3,-24.4 0.7,-3.2 1.9,-6.1 3.5,-8.9 m 2.5,37.1 8.8,-5.2 c 0.6,-0.3 1.3,-0.2 1.7,0.3 3.1,3.9 7.4,6.9 12.5,8.2 5.2,1.3 10.4,0.8 15,-1.2 0.6,-0.3 1.3,0 1.7,0.6 l 5.2,8.8 c 0.4,0.7 0.1,1.6 -0.6,1.9 -7.4,3.5 -16,4.6 -24.5,2.4 -8.5,-2.2 -15.5,-7.2 -20.3,-13.8 -0.3,-0.6 -0.1,-1.6 0.5,-2 z m 48.3,9.6 -5.2,-8.8 c -0.3,-0.6 -0.2,-1.3 0.3,-1.7 3.9,-3.1 6.8,-7.3 8.1,-12.5 1.3,-5.2 0.8,-10.4 -1.1,-14.9 -0.3,-0.6 0,-1.3 0.6,-1.7 l 8.8,-5.2 c 0.7,-0.4 1.6,-0.1 1.9,0.6 3.5,7.4 4.5,15.9 2.3,24.4 -2.2,8.5 -7.2,15.5 -13.7,20.3 -0.7,0.4 -1.6,0.2 -2,-0.5 z"
       class="st8" /><path
       style="fill:#00a1d9"
       inkscape:connector-curvature="0"
       id="path233"
       d="m 182.2,549.1 h -0.3 c -1.3,-0.1 -2.3,-1.3 -2.2,-2.6 0.4,-4.4 0.3,-9 -0.6,-13.6 -0.9,-5.2 -2.6,-10.1 -4.9,-14.6 -0.6,-1.2 -0.1,-2.7 1.2,-3.3 l 0.5,-0.2 c 1.3,-0.6 1.8,-2.2 1,-3.5 l -1.3,-2 c -0.8,-1.2 -2.5,-1.4 -3.6,-0.5 l -0.6,0.5 c -1,0.9 -2.5,0.8 -3.4,-0.3 -6.2,-7.4 -14.4,-13 -23.7,-15.9 -1.3,-0.4 -2,-1.8 -1.5,-3.1 l 0.4,-1 c 0.5,-1.4 -0.3,-2.9 -1.7,-3.2 l -2.3,-0.5 c -1.4,-0.3 -2.8,0.7 -2.8,2.2 l -0.1,1.2 c -0.1,1.3 -1.3,2.3 -2.6,2.2 -4.5,-0.4 -9,-0.3 -13.7,0.6 -4.9,0.9 -9.5,2.4 -13.7,4.5 -1.2,0.6 -2.7,0.1 -3.2,-1.2 l -0.5,-1.1 c -0.6,-1.3 -2.2,-1.9 -3.5,-1.1 l -2,1.3 c -1.2,0.8 -1.5,2.5 -0.5,3.5 l 0.8,1 c 0.9,1 0.7,2.6 -0.3,3.4 -7.5,6 -13.3,14.1 -16.4,23.2 -0.4,1.3 -1.9,1.9 -3.1,1.4 l -1,-0.4 c -1.4,-0.5 -2.9,0.3 -3.2,1.7 l -0.5,2.3 c -0.3,1.4 0.7,2.8 2.1,2.9 l 1,0.1 c 1.4,0.1 2.3,1.3 2.2,2.7 -0.6,4.8 -0.5,9.8 0.4,14.9 0.8,4.7 2.3,9.2 4.3,13.3 0.6,1.2 0,2.7 -1.2,3.2 l -0.6,0.3 c -1.3,0.6 -1.8,2.2 -1.1,3.5 l 1.3,2 c 0.8,1.2 2.5,1.4 3.5,0.5 l 0.4,-0.4 c 1,-0.9 2.6,-0.7 3.4,0.3 6.1,7.7 14.2,13.5 23.5,16.7 1.3,0.4 1.9,1.9 1.4,3.1 l -0.1,0.2 c -0.5,1.4 0.3,2.9 1.7,3.2 l 2.3,0.5 c 1.4,0.3 2.8,-0.7 2.9,-2.2 v -0.2 c 0.1,-1.3 1.3,-2.3 2.6,-2.2 4.7,0.5 9.6,0.4 14.6,-0.5 4.9,-0.9 9.6,-2.4 13.9,-4.6 1.2,-0.6 2.7,-0.1 3.2,1.2 0.6,1.3 2.2,1.8 3.5,1 l 2,-1.3 c 1.2,-0.8 1.4,-2.5 0.5,-3.5 v -0.1 c -0.9,-1 -0.8,-2.6 0.3,-3.4 7.6,-6.2 13.3,-14.5 16.3,-23.8 0.4,-1.3 1.8,-2 3.1,-1.5 l 0.2,0.1 c 1.4,0.5 2.9,-0.3 3.2,-1.7 l 0.5,-2.3 c 0.5,-1.4 -0.5,-2.8 -2,-2.9 z m -12.6,-18 -10.6,1.9 c -1.1,0.2 -2.2,-0.4 -2.6,-1.5 -1.7,-4.6 -4.5,-8.5 -8,-11.6 -0.9,-0.8 -1.1,-2.2 -0.4,-3.1 l 6.2,-8.8 c 0.8,-1.1 2.4,-1.4 3.5,-0.5 6.4,5.3 11.3,12.4 13.9,20.6 0.3,1.3 -0.6,2.7 -2,3 z m -28.6,-16 c -4.2,-1.9 -8.9,-2.8 -13.7,-2.5 -1.2,0.1 -2.3,-0.8 -2.5,-2 L 122.9,500 c -0.2,-1.4 0.7,-2.7 2.1,-2.8 8.6,-0.8 16.9,1 24.2,4.7 1.3,0.7 1.7,2.3 0.9,3.5 l -6.2,8.9 c -0.6,1 -1.8,1.3 -2.9,0.8 z m -22.1,-0.7 c -4.4,1.6 -8.3,4.3 -11.4,7.6 -0.8,0.9 -2.1,1 -3.1,0.3 l -8.8,-6.2 c -1.1,-0.8 -1.3,-2.4 -0.4,-3.5 5.3,-6.1 12.2,-10.9 20.3,-13.4 1.4,-0.4 2.8,0.4 3,1.9 l 1.9,10.6 c 0.2,1.2 -0.5,2.3 -1.5,2.7 z m -2.7,53.6 c 4.3,2.1 9.1,3.1 14,2.9 1.2,-0.1 2.2,0.8 2.4,2 l 1.8,10.6 c 0.2,1.4 -0.8,2.7 -2.2,2.8 -8.8,0.7 -17.2,-1.3 -24.5,-5.2 -1.2,-0.7 -1.6,-2.3 -0.8,-3.4 l 6.2,-8.8 c 0.8,-1.1 2.1,-1.4 3.1,-0.9 z m 22.5,1.3 c 4.7,-1.7 8.8,-4.5 12,-8 0.8,-0.9 2.1,-1.1 3.1,-0.4 l 8.8,6.2 c 1.1,0.8 1.4,2.4 0.5,3.5 -5.4,6.4 -12.6,11.3 -21,13.9 -1.4,0.4 -2.8,-0.5 -3,-1.9 L 137.2,572 c -0.2,-1.2 0.4,-2.3 1.5,-2.7 z m 4.4,-13.5 c -16.9,14.4 -39.9,-1.6 -32.2,-22.5 0.8,-2.2 2.2,-4.2 4,-5.7 16.9,-14.4 39.9,1.6 32.2,22.5 -0.9,2.2 -2.2,4.2 -4,5.7 z m -50,-35.8 8.8,6.2 c 0.9,0.7 1.3,1.9 0.8,3 -2,4.1 -3,8.8 -2.8,13.6 0,1.2 -0.8,2.2 -2,2.4 L 87.3,547 c -1.4,0.2 -2.7,-0.8 -2.8,-2.2 -0.6,-8.6 1.3,-16.9 5.1,-24.1 0.7,-1.2 2.3,-1.5 3.5,-0.7 z m -5,31.6 10.6,-1.8 c 1.1,-0.2 2.3,0.5 2.6,1.6 1.6,4.6 4.3,8.6 7.7,11.8 0.9,0.8 1,2.1 0.3,3.1 l -6.2,8.8 c -0.8,1.1 -2.4,1.4 -3.5,0.4 -6.2,-5.4 -11,-12.6 -13.5,-20.9 -0.3,-1.4 0.6,-2.8 2,-3 z m 77,11.6 -8.9,-6.2 c -0.9,-0.7 -1.3,-1.9 -0.8,-2.9 2,-4.3 3,-9.1 2.7,-14.1 -0.1,-1.2 0.8,-2.3 2,-2.5 l 10.6,-1.9 c 1.4,-0.2 2.6,0.7 2.8,2.1 0.8,8.8 -1,17.2 -4.8,24.6 -0.8,1.3 -2.4,1.7 -3.6,0.9 z"
       class="st9" /><path
       style="fill:#9da3e0"
       inkscape:connector-curvature="0"
       id="path235"
       d="m 222.3,587.9 h -0.2 c -0.7,0 -1.1,-0.6 -1.1,-1.3 0.2,-2.2 0.1,-4.4 -0.3,-6.7 -0.5,-2.5 -1.3,-4.9 -2.4,-7.1 -0.3,-0.6 -0.1,-1.3 0.6,-1.6 l 0.3,-0.1 c 0.7,-0.3 0.9,-1.1 0.5,-1.7 l -0.6,-1 c -0.4,-0.6 -1.2,-0.7 -1.7,-0.2 l -0.3,0.3 c -0.5,0.4 -1.2,0.4 -1.7,-0.1 -3,-3.6 -7.1,-6.3 -11.6,-7.8 -0.6,-0.2 -1,-0.9 -0.7,-1.5 l 0.2,-0.5 c 0.3,-0.7 -0.1,-1.4 -0.8,-1.6 l -1.1,-0.2 c -0.7,-0.1 -1.3,0.4 -1.4,1.1 v 0.6 c 0,0.7 -0.6,1.1 -1.3,1.1 -2.2,-0.2 -4.4,-0.1 -6.7,0.3 -2.4,0.4 -4.6,1.2 -6.7,2.2 -0.6,0.3 -1.3,0 -1.6,-0.6 l -0.2,-0.5 c -0.3,-0.7 -1.1,-0.9 -1.7,-0.5 l -1,0.6 c -0.6,0.4 -0.7,1.2 -0.3,1.7 l 0.4,0.5 c 0.4,0.5 0.4,1.3 -0.1,1.7 -3.7,2.9 -6.5,6.9 -8,11.3 -0.2,0.6 -0.9,0.9 -1.5,0.7 l -0.5,-0.2 c -0.7,-0.3 -1.4,0.1 -1.6,0.8 l -0.2,1.1 c -0.1,0.7 0.3,1.4 1.1,1.4 h 0.5 c 0.7,0 1.1,0.6 1.1,1.3 -0.3,2.4 -0.2,4.8 0.2,7.3 0.4,2.3 1.1,4.5 2.1,6.5 0.3,0.6 0,1.3 -0.6,1.6 l -0.3,0.1 c -0.7,0.3 -0.9,1.1 -0.5,1.7 l 0.6,1 c 0.4,0.6 1.2,0.7 1.7,0.2 l 0.2,-0.2 c 0.5,-0.4 1.3,-0.4 1.7,0.2 3,3.8 6.9,6.6 11.5,8.1 0.6,0.2 0.9,0.9 0.7,1.5 v 0.1 c -0.3,0.7 0.1,1.4 0.8,1.6 l 1.1,0.2 c 0.7,0.1 1.3,-0.4 1.4,-1.1 v -0.1 c 0,-0.7 0.6,-1.1 1.3,-1.1 2.3,0.3 4.7,0.2 7.1,-0.2 2.4,-0.4 4.7,-1.2 6.8,-2.2 0.6,-0.3 1.3,0 1.6,0.6 0.3,0.7 1.1,0.9 1.7,0.5 l 1,-0.6 c 0.6,-0.4 0.7,-1.2 0.2,-1.7 -0.4,-0.5 -0.4,-1.2 0.1,-1.7 3.7,-3 6.5,-7.1 8,-11.6 0.2,-0.6 0.9,-1 1.5,-0.7 h 0.1 c 0.7,0.3 1.4,-0.1 1.6,-0.8 l 0.2,-1.1 c 0,-0.9 -0.5,-1.5 -1.2,-1.6 z m -6.2,-8.8 -5.2,0.9 c -0.6,0.1 -1.1,-0.2 -1.3,-0.7 -0.8,-2.2 -2.2,-4.2 -3.9,-5.7 -0.4,-0.4 -0.5,-1.1 -0.2,-1.5 l 3,-4.3 c 0.4,-0.6 1.2,-0.7 1.7,-0.2 3.1,2.6 5.5,6 6.8,10.1 0.2,0.6 -0.2,1.3 -0.9,1.4 z m -14,-7.8 c -2,-0.9 -4.3,-1.4 -6.7,-1.2 -0.6,0 -1.1,-0.4 -1.2,-1 l -0.9,-5.2 c -0.1,-0.7 0.4,-1.3 1,-1.4 4.2,-0.4 8.3,0.5 11.8,2.3 0.6,0.3 0.8,1.1 0.4,1.7 l -3,4.3 c -0.3,0.6 -0.9,0.7 -1.4,0.5 z m -10.8,-0.4 c -2.2,0.8 -4.1,2.1 -5.5,3.7 -0.4,0.4 -1,0.5 -1.5,0.2 l -4.3,-3 c -0.6,-0.4 -0.7,-1.2 -0.2,-1.7 2.6,-3 6,-5.3 9.9,-6.6 0.7,-0.2 1.4,0.2 1.5,0.9 l 0.9,5.2 c 0,0.6 -0.3,1.1 -0.8,1.3 z m -1.3,26.2 c 2.1,1 4.4,1.5 6.9,1.4 0.6,0 1.1,0.4 1.2,1 l 0.9,5.2 c 0.1,0.7 -0.4,1.3 -1.1,1.4 -4.3,0.3 -8.4,-0.6 -12,-2.5 -0.6,-0.3 -0.8,-1.1 -0.4,-1.7 l 3,-4.3 c 0.4,-0.6 1,-0.7 1.5,-0.5 z m 11,0.7 c 2.3,-0.8 4.3,-2.2 5.9,-3.9 0.4,-0.4 1,-0.5 1.5,-0.2 l 4.3,3 c 0.6,0.4 0.7,1.2 0.2,1.7 -2.6,3.1 -6.2,5.5 -10.3,6.8 -0.7,0.2 -1.4,-0.2 -1.5,-0.9 l -0.9,-5.2 c 0,-0.6 0.3,-1.2 0.8,-1.3 z m -22.3,-24.1 4.3,3 c 0.5,0.3 0.6,0.9 0.4,1.4 -1,2 -1.5,4.3 -1.4,6.7 0,0.6 -0.4,1.1 -1,1.2 l -5.2,0.9 c -0.7,0.1 -1.3,-0.4 -1.4,-1.1 -0.3,-4.2 0.6,-8.2 2.5,-11.8 0.4,-0.5 1.2,-0.7 1.8,-0.3 z m -2.4,15.4 5.2,-0.9 c 0.6,-0.1 1.1,0.2 1.3,0.8 0.8,2.3 2.1,4.2 3.8,5.8 0.4,0.4 0.5,1 0.2,1.5 l -3,4.3 c -0.4,0.6 -1.2,0.7 -1.7,0.2 -3,-2.6 -5.4,-6.1 -6.6,-10.2 -0.3,-0.7 0.1,-1.4 0.8,-1.5 z m 37.6,5.7 -4.3,-3 c -0.5,-0.3 -0.6,-0.9 -0.4,-1.4 1,-2.1 1.5,-4.5 1.3,-6.9 0,-0.6 0.4,-1.1 1,-1.2 l 5.2,-0.9 c 0.7,-0.1 1.3,0.4 1.4,1 0.4,4.3 -0.5,8.4 -2.4,12 -0.4,0.6 -1.2,0.8 -1.8,0.4 z"
       class="st7" /><g
       id="g239"><path
         style="fill:#074d82"
         inkscape:connector-curvature="0"
         id="path237"
         d="m 71.3,545.6 1.1,-0.2 c 0.7,-0.1 1.1,-0.7 1,-1.4 l -0.5,-3.5 c -0.1,-0.7 -0.7,-1.1 -1.4,-1 h -0.2 c -0.6,0.1 -1.1,-0.2 -1.3,-0.8 -0.7,-1.7 -1.6,-3.3 -2.7,-4.7 -0.4,-0.5 -0.3,-1.1 0,-1.6 l 0.1,-0.2 c 0.4,-0.5 0.4,-1.3 -0.1,-1.7 l -2.7,-2.3 c -0.5,-0.4 -1.3,-0.4 -1.7,0.1 l -0.3,0.3 c -0.4,0.4 -1,0.5 -1.5,0.3 -1.6,-0.8 -3.2,-1.4 -5,-1.8 -0.6,-0.1 -1,-0.6 -1,-1.2 v -0.4 c 0,-0.7 -0.6,-1.2 -1.2,-1.2 h -3.6 c -0.7,0 -1.2,0.6 -1.2,1.2 v 0.5 c 0,0.6 -0.4,1.1 -0.9,1.2 -1.2,0.3 -2.4,0.7 -3.5,1.2 -0.5,0.2 -1.2,0.1 -1.5,-0.4 l -0.3,-0.4 c -0.4,-0.5 -1.2,-0.7 -1.7,-0.3 l -2.9,2.1 c -0.5,0.4 -0.7,1.2 -0.3,1.7 l 0.3,0.5 c 0.3,0.5 0.3,1.1 -0.1,1.5 -1,1.2 -1.9,2.5 -2.6,4 -0.3,0.5 -0.8,0.8 -1.4,0.7 l -0.5,-0.1 c -0.7,-0.2 -1.3,0.2 -1.5,0.9 l -0.9,3.4 c -0.2,0.7 0.2,1.3 0.9,1.5 l 0.5,0.1 c 0.6,0.1 0.9,0.7 0.9,1.2 v 0.6 c 0,1.3 0.1,2.7 0.4,3.9 0.1,0.6 -0.2,1.1 -0.7,1.4 l -0.4,0.2 c -0.6,0.3 -0.9,1 -0.6,1.6 l 1.5,3.2 c 0.3,0.6 1,0.9 1.6,0.6 l 0.3,-0.2 c 0.5,-0.2 1.2,-0.1 1.5,0.4 1.1,1.4 2.3,2.7 3.8,3.8 0.5,0.3 0.6,1 0.4,1.5 l -0.1,0.2 c -0.3,0.6 0,1.4 0.6,1.6 l 3.2,1.5 c 0.6,0.3 1.4,0 1.6,-0.6 l 0.1,-0.2 c 0.2,-0.5 0.8,-0.8 1.4,-0.7 1.3,0.3 2.7,0.4 4.1,0.4 h 1.4 c 0.6,0 1.1,0.3 1.3,0.9 v 0.1 c 0.2,0.7 0.9,1 1.5,0.8 l 3.4,-1 c 0.7,-0.2 1,-0.9 0.8,-1.5 v -0.1 c -0.2,-0.6 0.1,-1.1 0.6,-1.4 1.6,-0.9 3.1,-2 4.4,-3.3 0.4,-0.4 1.1,-0.5 1.5,-0.2 0.6,0.4 1.3,0.2 1.7,-0.4 l 1.9,-3 c 0.4,-0.6 0.2,-1.3 -0.4,-1.7 l -0.1,-0.1 c -0.5,-0.3 -0.7,-0.9 -0.5,-1.5 1.1,-1.6 1.5,-3.7 1.5,-6 z M 54,555.4 c -6.6,1 -12.2,-4.7 -11.3,-11.3 0.6,-4.3 4,-7.7 8.3,-8.3 6.6,-1 12.2,4.7 11.3,11.3 -0.6,4.3 -4,7.7 -8.3,8.3 z"
         class="st10" /></g></g><g
     id="g387"><defs
       id="defs244"><path
         inkscape:connector-curvature="0"
         d="m 188.6,336.8 c 0,-5.3 0.9,-12.9 -2.3,-17.5 -3.5,-5.1 -12.1,-4 -16.3,-8.6 -5.4,-5.9 -6.3,-14.9 -12.3,-20.4 -4.7,-4.2 -13.4,-5.4 -19.3,-3.7 -11.3,3.3 -13.1,20.8 -26.6,19.6 -4,-0.4 -6.8,-3.7 -10.3,-5.4 -3.4,-1.6 -7.8,-1.3 -11.1,0.5 -8.5,4.9 -3.2,17.1 2.5,21.7 10.7,8.5 29,7.4 39.5,-1 2.9,-2.3 7.8,-10 11.8,-5.4 2.7,3.2 1.5,7.7 2,11.4 0.7,5.5 4.8,9.1 10.2,9.9 5.8,0.9 11.8,-1.4 16.5,-4.7 2.1,-1.4 4.1,-3.2 6.6,-3.6 2.1,-0.3 3.6,0.5 4.8,2.4 0.7,1.4 1.3,4.5 4.3,4.8 z"
         id="XMLID_00000046304779309986589310000003039230236279341453_" /></defs><use
       height="100%"
       width="100%"
       y="0"
       x="0"
       id="use246"
       style="overflow:visible;fill:#9de2eb"
       xlink:href="#XMLID_00000046304779309986589310000003039230236279341453_" /><clipPath
       id="XMLID_00000181069359858935506820000017332430181289051778_"><use
         height="100%"
         width="100%"
         y="0"
         x="0"
         id="use248"
         style="overflow:visible"
         xlink:href="#XMLID_00000046304779309986589310000003039230236279341453_" /></clipPath><path
       inkscape:connector-curvature="0"
       id="path251"
       clip-path="url(#XMLID_00000181069359858935506820000017332430181289051778_)"
       d="m 108.9,300.4 c -0.6,4.1 5.4,8.2 8.2,10.1 3.5,2.4 8.1,3.6 12.3,4.1 -0.2,1 -1.3,1.8 -2.2,2.5 -2.9,2.5 -6.4,4.5 -9.6,6.7 -3.2,2.2 -8,3.5 -10.7,6.2 7.6,0.6 15.7,-1.1 22.8,-3.9 4.4,-1.7 7.6,-4.4 11.3,-6.8 5.5,-3.5 11.6,-5.6 12.8,3.1 0.6,4.3 0.8,8.7 0.8,13 0,1.9 0.7,5.1 0.2,6.8 5.6,-1.5 11,-3.8 16.5,-5.4 2.6,-0.7 10.2,-2.5 6.9,-6.5 -3.7,-4.6 -11.4,3 -15.9,-2.2 -2.6,-3 -1.5,-7.2 -1.5,-10.8 0.1,-3.7 -1.1,-7.7 -3.9,-10.2 -3.9,-3.5 -10.8,-4.4 -15.8,-5.7 -6.1,-1.5 -17.1,-2.6 -20.6,-8.7"
       style="fill:#52a6bf" /><path
       inkscape:connector-curvature="0"
       id="path253"
       style="fill:#1d738d"
       d="m 159,323.9 c -0.7,-1.6 -0.3,-4.8 -0.7,-6.6 -0.5,-2.7 -1.4,-5 -3.7,-6.6 -1.8,-1.3 -3.8,-1.6 -5.9,-1.1 -5.1,1.3 -9.6,2.9 -15.1,2.3 -6.5,-0.8 -11.4,-4.6 -12.5,-11.1 -0.7,-4.1 0.4,-9.3 -2.5,-12.8 -3.6,-4.3 -8.3,-1.1 -12.8,-0.1 -5.1,1.1 -10.4,1.6 -15.4,0.3 -9.9,-2.5 -14.2,-14.9 -7.9,-22.9 5.8,-7.3 17.9,-7.9 22.1,1 2.2,4.5 2.8,9.8 8.6,11.4 5.6,1.6 11.2,-1.4 16.8,0.7 5.6,2.1 5.8,6.4 7.1,11.3 1.4,5 4.9,5.6 9.4,6.4 8.2,1.3 15.4,7.4 16.2,15.9 0.4,4.2 -0.6,7.6 -0.6,11.8" /><g
       id="g265"><defs
         id="defs256"><path
           inkscape:connector-curvature="0"
           d="m 120.8,390.9 c 0,-1.7 -0.6,-3.1 -0.4,-4.9 0.4,-3.9 2.2,-7.2 3.4,-10.8 1.7,-5.3 4.6,-12.7 -2.4,-15.2 -3.8,-1.4 -12,-0.9 -14.1,-4.7 -3,-5.4 -0.7,-12.1 -6.7,-16 -2.4,-1.6 -5.5,-2.2 -8.3,-2.4 -3.9,-0.2 -13.5,2.2 -14.9,-2.9 -0.9,-3.3 1.1,-7 0.5,-10.4 -1.3,-6.7 -9.1,-6.4 -14.3,-5.6 -5.9,0.9 -11.4,2 -15.6,-3.3 -3,-3.7 -4.8,-8.3 -10.8,-7.1 -4,0.8 -6.8,4.2 -7.7,8.1 -1,4.8 -1,11.4 3.5,14.4 6.3,4.3 15,1.8 21.6,5.5 4.8,2.7 4.9,6.9 4.3,11.8 -0.7,5.3 -1.9,12.1 3.1,15.6 4.6,3.2 11,3.7 16.4,3.7 4.3,0 9.2,0.1 9.3,5.6 0.1,4.1 -3.7,10.4 0.8,13.5 3.1,2.2 20.2,-1 16.9,7.5"
           id="XMLID_00000112629020080120132070000001820294210701757604_" /></defs><use
         height="100%"
         width="100%"
         y="0"
         x="0"
         id="use258"
         style="overflow:visible;fill:#52a6bf"
         xlink:href="#XMLID_00000112629020080120132070000001820294210701757604_" /><clipPath
         id="XMLID_00000070083154529588773640000008021995386075931838_"><use
           height="100%"
           width="100%"
           y="0"
           x="0"
           id="use260"
           style="overflow:visible"
           xlink:href="#XMLID_00000112629020080120132070000001820294210701757604_" /></clipPath><path
         inkscape:connector-curvature="0"
         id="path263"
         clip-path="url(#XMLID_00000070083154529588773640000008021995386075931838_)"
         d="m 23.9,315.6 c -4.3,10.5 7,14.1 15.4,12.7 9.1,-1.5 19.6,-4 27.4,-9 2.8,-1.8 6.6,-3.6 4.9,-7.6 -1.6,-3.8 -6.7,-6 -10.4,-7 -6.4,-1.8 -13.2,-1.8 -19.6,-0.4 -3.5,0.7 -6.9,1.4 -10.2,2.9 -3.4,1.6 -5.8,4.5 -7.5,8.4 z m 56.4,8.6 c -3.4,3.6 -7.5,6.4 -11,10 -1.8,1.8 -4.9,4.2 -5.7,6.8 -1.9,6 12.5,5.1 15.5,4.7 5.6,-0.6 11.6,-2.9 15.9,-6.6 1.4,-1.2 3.4,-3 3.5,-5 0.1,-1.9 -1.3,-2.9 -2.8,-4.1 -4.1,-3.5 -8.4,-5.5 -15.4,-5.8 z"
         style="fill:#9de2eb" /></g><g
       id="g359"><defs
         id="defs268"><path
           inkscape:connector-curvature="0"
           d="m 145.1,473.7 v -33.8 h 28.8 v 33.6 c -0.1,0 -29.2,0 -28.8,0.2 z"
           id="XMLID_00000129898394261530831670000015354745804055011003_" /></defs><use
         height="100%"
         width="100%"
         y="0"
         x="0"
         id="use270"
         style="overflow:visible;fill:#1d738d"
         xlink:href="#XMLID_00000129898394261530831670000015354745804055011003_" /><clipPath
         id="XMLID_00000070810113745726764170000016384028773834825654_"><use
           height="100%"
           width="100%"
           y="0"
           x="0"
           id="use272"
           style="overflow:visible"
           xlink:href="#XMLID_00000129898394261530831670000015354745804055011003_" /></clipPath><path
         inkscape:connector-curvature="0"
         id="path275"
         clip-path="url(#XMLID_00000070810113745726764170000016384028773834825654_)"
         d="M 162.7,435.5 H 187 v 48.4 h -24.3 z"
         style="fill:#045f7d" /><defs
         id="defs278"><path
           inkscape:connector-curvature="0"
           d="m 201.1,473.7 3.7,-73.8 H 219 l 5.9,73.8 z"
           id="XMLID_00000114032956533825668050000012078411744918498211_" /></defs><use
         height="100%"
         width="100%"
         y="0"
         x="0"
         id="use280"
         style="overflow:visible;fill:#1d738d"
         xlink:href="#XMLID_00000114032956533825668050000012078411744918498211_" /><clipPath
         id="XMLID_00000123426820794213589400000012004962692531837359_"><use
           height="100%"
           width="100%"
           y="0"
           x="0"
           id="use282"
           style="overflow:visible"
           xlink:href="#XMLID_00000114032956533825668050000012078411744918498211_" /></clipPath><path
         inkscape:connector-curvature="0"
         id="path285"
         clip-path="url(#XMLID_00000123426820794213589400000012004962692531837359_)"
         d="m 208.6,393.9 1.2,81.1 -11.1,2.3 -0.1,-83.8 z"
         style="fill:#045f7d" /><g
         id="g297"><defs
           id="defs288"><path
             inkscape:connector-curvature="0"
             d="M 172.7,473.7 V 454 h 62.2 v 19.5 c 0,0.1 -63,0.1 -62.2,0.2 z"
             id="XMLID_00000134935377476494706760000015710892675792193418_" /></defs><use
           height="100%"
           width="100%"
           y="0"
           x="0"
           id="use290"
           style="overflow:visible;fill:#1d738d"
           xlink:href="#XMLID_00000134935377476494706760000015710892675792193418_" /><clipPath
           id="XMLID_00000149378050298755947960000010409224099171805357_"><use
             height="100%"
             width="100%"
             y="0"
             x="0"
             id="use292"
             style="overflow:visible"
             xlink:href="#XMLID_00000134935377476494706760000015710892675792193418_" /></clipPath><path
           inkscape:connector-curvature="0"
           id="path295"
           clip-path="url(#XMLID_00000149378050298755947960000010409224099171805357_)"
           d="m 169.7,454 h 57.4 v 25.3 h -57.4 z"
           style="fill:#045f7d" /></g><g
         id="g309"><defs
           id="defs300"><path
             inkscape:connector-curvature="0"
             d="m 79.4,473.7 c 0,0 19.4,-48.2 12.6,-82.3 h 41.7 c 0,0 -11.5,34.2 15.2,82.3 z"
             id="XMLID_00000042703057988414392100000003866845938827689869_" /></defs><use
           height="100%"
           width="100%"
           y="0"
           x="0"
           id="use302"
           style="overflow:visible;fill:#1d738d"
           xlink:href="#XMLID_00000042703057988414392100000003866845938827689869_" /><clipPath
           id="XMLID_00000174599998594634544950000008639381755904688050_"><use
             height="100%"
             width="100%"
             y="0"
             x="0"
             id="use304"
             style="overflow:visible"
             xlink:href="#XMLID_00000042703057988414392100000003866845938827689869_" /></clipPath><path
           inkscape:connector-curvature="0"
           id="path307"
           clip-path="url(#XMLID_00000174599998594634544950000008639381755904688050_)"
           d="m 126,384.4 c 0,0 -7.4,50.1 6.9,92.3 H 158 l -20.6,-90.4 z m -53.7,57.3 h 15.9 v 33.2 H 72.3 Z"
           style="fill:#045f7d" /></g><g
         id="g321"><defs
           id="defs312"><path
             inkscape:connector-curvature="0"
             d="M 162.8,322 H 157 l -3.1,117.9 H 165 Z"
             id="XMLID_00000149379840996550517480000010539107569214577306_" /></defs><use
           height="100%"
           width="100%"
           y="0"
           x="0"
           id="use314"
           style="overflow:visible;fill:#045f7d"
           xlink:href="#XMLID_00000149379840996550517480000010539107569214577306_" /><clipPath
           id="XMLID_00000014615586046570302570000014641896315804078512_"><use
             height="100%"
             width="100%"
             y="0"
             x="0"
             id="use316"
             style="overflow:visible"
             xlink:href="#XMLID_00000149379840996550517480000010539107569214577306_" /></clipPath><path
           inkscape:connector-curvature="0"
           id="path319"
           clip-path="url(#XMLID_00000014615586046570302570000014641896315804078512_)"
           d="M 154.6,334.2 H 165 v 3.6 h -10.4 z m 0,7.9 H 165 v 3.6 h -10.4 z"
           style="fill:#1d738d" /></g><g
         id="g333"><defs
           id="defs324"><path
             inkscape:connector-curvature="0"
             d="m 189.9,336.9 h -6.1 l -2.4,117.9 h 11 z"
             id="XMLID_00000033332308999701058300000017248287024205435068_" /></defs><use
           height="100%"
           width="100%"
           y="0"
           x="0"
           id="use326"
           style="overflow:visible;fill:#045f7d"
           xlink:href="#XMLID_00000033332308999701058300000017248287024205435068_" /><clipPath
           id="XMLID_00000100370293233721507450000013867727347856121742_"><use
             height="100%"
             width="100%"
             y="0"
             x="0"
             id="use328"
             style="overflow:visible"
             xlink:href="#XMLID_00000033332308999701058300000017248287024205435068_" /></clipPath><path
           inkscape:connector-curvature="0"
           id="path331"
           clip-path="url(#XMLID_00000100370293233721507450000013867727347856121742_)"
           d="m 182.4,352.5 h 9.2 v 3.3 h -9.2 z m 0,8.5 h 9.2 v 3.3 h -9.2 z"
           style="fill:#1d738d" /></g><g
         id="g345"><defs
           id="defs336"><path
             inkscape:connector-curvature="0"
             d="m 60.3,473.9 v -56.1 h 24 v 55.7 c 0,0.1 -24.4,0.1 -24,0.4 z"
             id="XMLID_00000086668097030717469940000002737143026106446524_" /></defs><use
           height="100%"
           width="100%"
           y="0"
           x="0"
           id="use338"
           style="overflow:visible;fill:#1d738d"
           xlink:href="#XMLID_00000086668097030717469940000002737143026106446524_" /><clipPath
           id="XMLID_00000119089047370278583780000006940709002457392059_"><use
             height="100%"
             width="100%"
             y="0"
             x="0"
             id="use340"
             style="overflow:visible"
             xlink:href="#XMLID_00000086668097030717469940000002737143026106446524_" /></clipPath><path
           inkscape:connector-curvature="0"
           id="path343"
           clip-path="url(#XMLID_00000119089047370278583780000006940709002457392059_)"
           d="m 46.8,407.3 h 18.3 v 69.4 H 46.8 Z"
           style="fill:#045f7d" /></g><g
         id="g357"><defs
           id="defs348"><path
             inkscape:connector-curvature="0"
             d="M 46.8,473.9 V 447 H 61 v 26.8 c 0,0 -14.4,0 -14.2,0.1 z"
             id="XMLID_00000038383839894421504360000018339462559230869679_" /></defs><use
           height="100%"
           width="100%"
           y="0"
           x="0"
           id="use350"
           style="overflow:visible;fill:#1d738d"
           xlink:href="#XMLID_00000038383839894421504360000018339462559230869679_" /><clipPath
           id="XMLID_00000145757731475355851160000009560697642934279862_"><use
             height="100%"
             width="100%"
             y="0"
             x="0"
             id="use352"
             style="overflow:visible"
             xlink:href="#XMLID_00000038383839894421504360000018339462559230869679_" /></clipPath><path
           inkscape:connector-curvature="0"
           id="path355"
           clip-path="url(#XMLID_00000145757731475355851160000009560697642934279862_)"
           d="m 42,460.5 21.7,-3.7 1.4,-7.3 H 42.5 Z"
           style="fill:#045f7d" /></g></g><g
       id="g371"><defs
         id="defs362"><path
           inkscape:connector-curvature="0"
           d="m 214.6,397 c 0,-1.6 -0.1,-3.1 -0.1,-4.7 0,-5.9 1.1,-11.2 -1.8,-16.8 -7.7,-14.6 -26.7,-1.8 -38.1,-8.6 -3.2,-1.9 -6,-5.3 -8.6,-8 -2.7,-2.8 -5,-7.6 -9.2,-7.9 -9.2,-0.6 -17.1,8.9 -25.9,4.5 -6.2,-3.1 -10.5,-10 -18.1,-9.9 -8,0.1 -16.1,7.8 -11.6,15.9 2.5,4.5 5.2,7.1 9.7,9.4 9.6,4.7 21.9,0.8 31.8,-0.3 1.6,-0.2 5.2,-1 6.5,0.5 1.6,1.9 -0.7,4.2 -1.6,5.8 -1.4,2.7 -1.4,5.4 1.3,7.1 3.1,1.9 6.8,2.7 10.3,3 2.8,0.3 5.6,0.2 8.5,0.2 5.3,0 10.7,-0.2 16,-0.8 3.7,-0.4 7.5,-1.4 11.3,-0.6 3.1,0.7 3.8,2.8 5.2,5.4 1,1.7 2.1,2.9 3.8,3.9 2.3,1.4 4.9,2.5 7.4,3.5 1.8,0.7 3,1.8 3.2,-0.6 z"
           id="XMLID_00000080912636331429202510000011800583853905177513_" /></defs><use
         height="100%"
         width="100%"
         y="0"
         x="0"
         id="use364"
         style="overflow:visible;fill:#1d738d"
         xlink:href="#XMLID_00000080912636331429202510000011800583853905177513_" /><clipPath
         id="XMLID_00000145043228553393141270000014270671249083507860_"><use
           height="100%"
           width="100%"
           y="0"
           x="0"
           id="use366"
           style="overflow:visible"
           xlink:href="#XMLID_00000080912636331429202510000011800583853905177513_" /></clipPath><path
         inkscape:connector-curvature="0"
         id="path369"
         clip-path="url(#XMLID_00000145043228553393141270000014270671249083507860_)"
         d="m 142.9,381.8 c 5.4,4.5 16.1,2.9 22.4,2 9.2,-1.3 18.9,-4.9 28.3,-4.6 9.4,0.3 7.6,11.7 8.7,18 0.3,1.6 -2.7,2.1 -4.1,2.4 -6.9,1.3 -14.2,1.5 -21.2,1 -7.7,-0.6 -15.7,-1.7 -22.8,-4.8 -4.2,-1.8 -10.1,-4.4 -12.7,-8.3 M 98.4,360.7 c 4.4,0 9,1.5 13.5,1.9 7.8,0.8 15.6,1.7 23.3,2.4 5.3,0.5 10.8,0.6 16,1.9 1.1,0.3 4.6,1 4.9,2.6 0.5,2.4 -5.8,5.3 -7.3,6.1 -4.7,2.6 -9.6,4.2 -15,4.5 -14.2,0.9 -32.7,1.1 -39.9,-13.5"
         style="fill:#045f7d" /></g><g
       id="g385"><path
         style="fill:#04518c"
         inkscape:connector-curvature="0"
         id="path373"
         d="m 52.7,486.1 c 8.4,4.8 16.6,11.1 25.8,14.3 18.2,6.4 31.8,4.2 48,-1 5.7,1.6 11.3,3.1 16.9,4.8 4,1.2 5.6,0 9.6,-1.7 7.5,-3.2 15,-6.1 22.9,-8.1 8.3,-2.1 16,-3.4 23.1,-7.8 10.5,-6.5 20.7,-11.2 31.5,-17.3 -3.3,-4.3 -12.1,-6 -16.5,-5.6 -3.4,1.1 -7.2,2.3 -11.3,3.9 -2.2,-2.1 -5.6,-4.3 -8.7,-5 -1.2,-0.3 -7.6,1.5 -8.8,1.8 -8.3,2.3 -10.4,2.2 -17.8,3.7 -8.9,1.9 -19,1.6 -28.1,1.9 -4.8,0.2 -9.6,0.6 -14.5,0.5 -2.5,-0.1 -4.4,-0.3 -6.6,-1.2 -2.1,-0.8 -4.3,-0.5 -6.5,-0.8 -2.7,-0.3 -5.7,0 -8.4,0 h -4.4 c -1.6,0 -2.9,0.5 -4.4,0.7 -2.7,0.4 -6,0.3 -8.4,1.7 -0.9,0.5 -1.4,1.3 -2.2,1.9 -1.2,0.9 -2.9,1.4 -4.2,2.1 -6.8,3.2 -17.2,9.5 -24,10.4 l 2.2,-0.5 c -1.8,0.1 -3.5,0.6 -5.2,1.3 z"
         class="st47" /><path
         style="fill:#00a1d9"
         inkscape:connector-curvature="0"
         id="path375"
         d="m 58.1,457.3 c 8.4,-0.2 38.1,-2.2 51.4,-3 13.2,-0.8 36.9,-1.9 45.3,-2.3 12,1.6 11.6,5.8 14.1,9.1 -3.8,1.2 -33.7,10.1 -37.5,11.1 -18.2,4.9 -19,6.2 -34.8,10.3 -14.4,6.9 -14.7,5.3 -27.7,14.3 -13,9 -50,5.8 -64.2,0.4 5.5,-9 2.6,-11.1 18.5,-32.4 14.2,-7.3 15.1,-6.2 34.9,-7.5 z"
         class="st9" /><defs
         id="defs378"><path
           inkscape:connector-curvature="0"
           d="m 15.4,601.7 c 31,-91.9 59.8,-76.7 78.8,-80.9 17.8,-3.9 36.7,-4.3 55.5,-7 17.9,-2.6 35.7,-5.8 52.8,-11.4 7.4,-2.4 37,-15.4 44.7,-19.8 -2.6,-3.4 -9,-9.8 -18.6,-8.2 -12.1,3.7 -22.3,6.7 -34.7,10.7 -7.5,1.4 -24.6,3.1 -36.4,3.1 -26.8,0 -35.4,-1.8 -61.7,-5.5 -20.8,-3 -42.9,-2.1 -63.5,-5.3 -6.7,-1 -9.9,-2.6 -16.4,-2.6 -2.6,8.6 -52.1,93 -60.8,107.5 16.4,0.5 60.3,19.4 60.3,19.4 z"
           id="SVGID_00000070804319386782790650000016977014465366227861_" /></defs><use
         height="100%"
         width="100%"
         y="0"
         x="0"
         id="use380"
         style="overflow:visible;fill:#00a1d9"
         xlink:href="#SVGID_00000070804319386782790650000016977014465366227861_" /><clipPath
         id="SVGID_00000010271981318687661750000016380066881958007180_"><use
           height="100%"
           width="100%"
           y="0"
           x="0"
           id="use382"
           style="overflow:visible"
           xlink:href="#SVGID_00000070804319386782790650000016977014465366227861_" /></clipPath></g></g><g
     id="g455"><path
       style="fill:#04518c"
       inkscape:connector-curvature="0"
       id="path389"
       d="m 145.7,671.7 40.7,8.9 v 57.9 l -24,-0.5 -17.3,-43.4 z"
       class="st47" /><path
       style="fill:#04518c"
       inkscape:connector-curvature="0"
       id="path391"
       d="m 78,698.9 24.9,6.3 60,-1.6 0.3,-6.3 -18.1,-2.7"
       class="st47" /><path
       style="fill:#003056"
       inkscape:connector-curvature="0"
       id="path393"
       d="m 98,700 14.5,0.3 0.1,-1.3 9.1,-0.8 15.7,0.2 0.1,-1.4 9.2,-0.8 16.5,1.1 0.3,40.7 h -71"
       class="st48" /><path
       style="fill:#00a1d9"
       inkscape:connector-curvature="0"
       id="path395"
       d="m 83.9,738.3 5,-37.5 9.1,-0.8 -4.1,38.2 z m 24.9,-0.2 3.8,-39.2 9.2,-0.7 -1.6,39.7 z m 26.4,-0.2 2.3,-40.9 9.1,-0.8 -0.6,42 z m -57.1,-38.8 67,-4.5 0.6,-22.9 -64.6,7.7 z m 85.1,-1.8 5.5,0.1 -0.4,40.6 h -6.5"
       class="st9" /><path
       style="fill:#04518c"
       inkscape:connector-curvature="0"
       id="path397"
       d="m 146.6,696.2 -9.7,9.1 0.5,-8.5 m -15.6,1.4 -10,9.8 0.8,-9.1 M 98,700 l -10.2,9.5 1.1,-8.7 m 74.3,-3.6 -0.2,5.6 5.5,-5.6 z"
       class="st47" /><path
       style="fill:#55d4ff"
       inkscape:connector-curvature="0"
       id="path399"
       d="m 128.9,695.6 16.3,-9.6 v 8.8 z"
       class="st50" /><g
       id="g413"><path
         style="fill:#04518c"
         inkscape:connector-curvature="0"
         id="path401"
         d="m 207.7,671.7 -42.6,8.9 v 57.9 l 25.2,-0.5 18,-43.4 z"
         class="st47" /><path
         style="fill:#04518c"
         inkscape:connector-curvature="0"
         id="path403"
         d="m 278.6,698.9 -26.1,6.3 -62.9,-1.6 -0.2,-6.3 18.9,-2.7"
         class="st47" /><path
         style="fill:#003056"
         inkscape:connector-curvature="0"
         id="path405"
         d="m 257.7,700 -15.3,0.3 V 699 l -9.6,-0.8 -16.4,0.2 -0.1,-1.4 -9.6,-0.8 -17.3,1.1 -0.4,40.7 h 74.4"
         class="st48" /><path
         style="fill:#00a1d9"
         inkscape:connector-curvature="0"
         id="path407"
         d="m 272.5,738.3 -5.3,-37.5 -9.5,-0.8 4.3,38.2 z m -26.1,-0.2 -4.1,-39.2 -9.5,-0.7 1.7,39.7 z m -27.7,-0.2 -2.4,-40.9 -9.5,-0.8 0.5,42 z m 59.8,-38.8 -70.2,-4.5 -0.6,-22.9 67.7,7.7 z m -89.1,-1.8 -5.8,0.1 0.4,40.6 h 6.9"
         class="st9" /><path
         style="fill:#04518c"
         inkscape:connector-curvature="0"
         id="path409"
         d="m 206.8,696.2 10.1,9.1 -0.4,-8.5 m 16.3,1.4 10.5,9.8 -1,-9.1 m 15.4,1.1 10.7,9.5 -1.2,-8.7 m -77.9,-3.6 0.2,5.6 -5.7,-5.6 z"
         class="st47" /><path
         style="fill:#55d4ff"
         inkscape:connector-curvature="0"
         id="path411"
         d="M 225.4,695.6 208.2,686 v 8.8 z"
         class="st50" /></g><g
       id="g433"><path
         style="fill:#00a1d9"
         inkscape:connector-curvature="0"
         id="path415"
         d="m 101.2,695.5 -61.9,-8.4 v 51.3 h 64.4 z"
         class="st9" /><path
         style="fill:#003056"
         inkscape:connector-curvature="0"
         id="path417"
         d="M 101.2,695.5 81,681.7 26.8,671.2 39.3,687.1 Z"
         class="st48" /><path
         style="fill:#00a1d9"
         inkscape:connector-curvature="0"
         id="path419"
         d="m 81,681.7 -4.2,-19.2 -51.9,-17.4 1.9,26.1 z"
         class="st9" /><path
         style="fill:#04518c"
         inkscape:connector-curvature="0"
         id="path421"
         d="m 24.9,645.1 -22.6,4.2 -5.1,88 42.1,0.8 v -51 L 26.8,671.2"
         class="st47" /><path
         style="fill:#55d4ff"
         inkscape:connector-curvature="0"
         id="path423"
         d="M 14.5,655.6 2.1,649.2 -1,708 l 14.4,0.4 z"
         class="st50" /><path
         style="fill:#04518c"
         inkscape:connector-curvature="0"
         id="path425"
         d="m 2.1,649.2 -3,1 -3.5,57.5 3.4,0.3"
         class="st47" /><path
         style="fill:#003056"
         inkscape:connector-curvature="0"
         id="path427"
         d="m 13.4,708.4 -15,13.7 0.4,-13.8 13.5,0.4"
         class="st48" /><path
         style="fill:#04518c"
         inkscape:connector-curvature="0"
         id="path429"
         d="M 101.2,695.5 70,738 l 33.7,0.4"
         class="st47" /><path
         inkscape:connector-curvature="0"
         id="path431"
         d="m 14.5,655.6 v 13.3 L 2.6,649.4 Z"
         style="opacity:0.25;fill:#00a1d9" /></g><g
       id="g453"><path
         style="fill:#04518c"
         inkscape:connector-curvature="0"
         id="path435"
         d="m 194.5,586.4 29.7,26 v 125.3 h -37.9 z"
         class="st47" /><path
         style="fill:#00a1d9"
         inkscape:connector-curvature="0"
         id="path437"
         d="m 127.7,737.7 20.2,-123 46.6,-29 -4.7,152 z"
         class="st9" /><path
         style="fill:#04518c"
         inkscape:connector-curvature="0"
         id="path439"
         d="m 129.8,670.7 6.1,-32.4 60.5,-27.2 -0.5,36.1 z"
         class="st47" /><path
         style="fill:#003056"
         inkscape:connector-curvature="0"
         id="path441"
         d="m 196.4,611.6 31.8,27.2 1.5,30.5 -33.8,-22.1 z"
         class="st48" /><path
         style="fill:#04518c"
         inkscape:connector-curvature="0"
         id="path443"
         d="m 120.5,738.2 h 73.6 l 0.7,-45.1 -68.4,11.2 z"
         class="st47" /><path
         style="fill:#003056"
         inkscape:connector-curvature="0"
         id="path445"
         d="m 195,693.4 33.5,10.5 1,33.6 -35.4,0.7 z m -65.2,-22.7 8,4.1 55.1,-17.3 31.6,15.4 5.4,-3.4 -33.8,-23 z"
         class="st48" /><path
         style="fill:#04518c"
         inkscape:connector-curvature="0"
         id="path447"
         d="m 192.9,657.7 -57,30.6 1.8,-13.7 m 12,-42.4 2.4,-14.9 4.8,-2.8 -1.3,14.7 z"
         class="st47" /><path
         style="fill:#003056"
         inkscape:connector-curvature="0"
         id="path449"
         d="m 157.6,710.1 17.8,-1.8 -0.8,29.6 -19.8,0.3"
         class="st48" /><path
         style="fill:#04518c"
         inkscape:connector-curvature="0"
         id="path451"
         d="m 177,673.1 7.6,-2.2 -0.9,24 -8.4,1.1 z"
         class="st47" /></g></g></svg>