<?xml version="1.0" encoding="UTF-8" standalone="no"?>
<svg
   xmlns:dc="http://purl.org/dc/elements/1.1/"
   xmlns:cc="http://creativecommons.org/ns#"
   xmlns:rdf="http://www.w3.org/1999/02/22-rdf-syntax-ns#"
   xmlns:svg="http://www.w3.org/2000/svg"
   xmlns="http://www.w3.org/2000/svg"
   xmlns:sodipodi="http://sodipodi.sourceforge.net/DTD/sodipodi-0.dtd"
   xmlns:inkscape="http://www.inkscape.org/namespaces/inkscape"
   viewBox="0 0 299.99999 737.3"
   xml:space="preserve"
   version="1.1"
   id="svg470"
   sodipodi:docname="environmentBL.svg"
   width="300"
   height="737.29999"
   inkscape:version="0.92.4 (5da689c313, 2019-01-14)"><metadata
     id="metadata476"><rdf:RDF><cc:Work
         rdf:about=""><dc:format>image/svg+xml</dc:format><dc:type
           rdf:resource="http://purl.org/dc/dcmitype/StillImage" /><dc:title></dc:title></cc:Work></rdf:RDF></metadata><defs
     id="defs474" /><sodipodi:namedview
     pagecolor="#ffffff"
     bordercolor="#666666"
     borderopacity="1"
     objecttolerance="10"
     gridtolerance="10"
     guidetolerance="10"
     inkscape:pageopacity="0"
     inkscape:pageshadow="2"
     inkscape:window-width="1920"
     inkscape:window-height="1016"
     id="namedview472"
     showgrid="false"
     inkscape:zoom="1.0062534"
     inkscape:cx="98.880074"
     inkscape:cy="261.9795"
     inkscape:window-x="0"
     inkscape:window-y="36"
     inkscape:window-maximized="1"
     inkscape:current-layer="LH_Images" /><style
     id="style2">.st0{fill:#ededed;stroke:#25c7a1;stroke-miterlimit:10}.st1{fill:#2d75be}.st2{fill:#555d68}.st3{fill:#fff;stroke:#555d68;stroke-miterlimit:10}.st4{fill:#ededed}.st5{fill:#3ca891}.st7{fill:#212b53}.st8{fill:#00a1d9}.st10{fill:#053c5e}.st11{fill:#11637a}.st13{fill:#fff}.st17{fill:#a0c358}.st18{fill:#36240e}.st19{fill:#babac2}.st20{fill:#614830}.st22{fill:#0f8f7d}.st23{fill:#006837}.st24{fill:#22b573}.st25{fill:#136660}.st27{fill:#f0d6be}.st28{fill:#faecd4}.st29{fill:#c2716c}.st30{fill:#924f4a}.st31{fill:#453d35}.st32{fill:#577d22}.st33{fill:#ffddb3}.st34{fill:#e83e2e}.st38{fill:#deb187}.st40{fill:#9bbd60}.st41{fill:#ffbc5e}.st42{fill:#ad5823}.st43{fill:#874115}.st44{fill:#c29163}.st45{fill:#00666b}.st46{fill:#01888b}.st47{fill-rule:evenodd;clip-rule:evenodd;fill:#ee5151}.st50{fill:#5885a8}.st51{fill:#2d7345}.st52{fill:#9dcaed}.st53{fill:#3c5214}.st54{fill:#ad4123}.st55{fill:#587528}.st56{fill:#5e7a2e}.st57{fill:#87943c}.st59{fill:#a3ab55}.st60{fill:#ccc568}</style><g
     id="LH_Images"><path
       class="st32"
       d="m 122.4,512 c -3.5,-0.4 -7,-0.3 -10.6,0.4 -3.7,0.7 -8.8,1.9 -10.8,5.6 -4.6,8.3 7.2,9.3 12.2,9.1 5.4,-0.2 10.9,-0.9 16.1,-2.4 2.8,-0.8 6.6,-2.1 7.3,-5.3 1.8,-6.7 -8.4,-7.5 -14.2,-7.4 z m -43.5,17.7 c -4.2,-0.6 -8.4,-0.9 -12.4,0.7 -3.1,1.3 -8,4.5 -8.8,8 -1.7,7.6 13.2,8.1 17.4,7.5 5.2,-0.7 19.9,-3.9 16.4,-12.2 -1.9,-5.1 -7.5,-5.4 -12.6,-4 z m -19.4,0.4 c 0.8,-4.5 -1.7,-7.9 -5.2,-9.9 0.2,-0.6 -0.1,-1.4 -0.9,-1.4 -0.9,-0.1 -1.9,-0.1 -2.8,-0.2 -3.2,-1 -6.8,-1.3 -9.5,-0.7 -0.3,0.1 -0.5,0.3 -0.6,0.5 -3.1,0.1 -6.2,0.3 -9.2,0.7 -3.4,0.5 -6.7,1.1 -10,1.9 -1.6,0.4 -3.9,0.7 -5.1,1.9 -2.6,2.7 -0.6,7.1 1.6,9.4 3.3,3.6 8.5,4.4 13.1,4.7 6.6,0.4 13.2,0 19.7,-1.3 3.6,-0.6 8.2,-1.2 8.9,-5.6 z"
       id="path221"
       inkscape:connector-curvature="0"
       style="fill:#577d22" /><path
       class="st33"
       d="m 125.5,515.3 c -0.5,-3.4 -0.8,-6.8 -0.8,-10.2 -0.1,-4 -0.1,-6 -4.5,-4.5 -0.8,0.3 -0.8,1.3 -0.4,1.7 0,0.1 -0.1,0.2 -0.1,0.3 V 513 c 0,1.4 -0.7,6 0.4,7.2 1.1,1.1 3.9,1.1 4.9,-0.1 1.3,-1.3 0.7,-3.3 0.5,-4.8 z"
       id="path223"
       inkscape:connector-curvature="0"
       style="fill:#ffddb3" /><path
       class="st34"
       d="m 139.2,498 c -1.7,-2.3 -6.4,-2.6 -8.3,-2.9 -4.6,-0.7 -9.3,-0.9 -13.8,-0.2 -2.7,0.4 -14.4,3 -10.9,8.7 1.7,2.8 6.4,1.9 8.8,1.8 3.9,-0.1 7.7,-0.7 11.5,-1.4 3.6,-0.6 7.4,-0.1 10.9,-1.2 1,-0.3 2,-0.9 2.2,-2 0.3,-1.1 0.1,-2 -0.4,-2.8 z"
       id="path225"
       inkscape:connector-curvature="0"
       style="fill:#e83e2e" /><path
       class="st33"
       d="m 55,506.2 c -1,-3.3 -2.1,-6.6 -2.6,-10 -0.3,-1.7 0.4,-6.4 -0.6,-7.8 -0.8,-1.1 -1.7,-1.2 -2.5,-0.9 0,-0.2 0.1,-0.5 0.1,-0.7 0.2,-1.2 -1.7,-1.8 -1.9,-0.5 -1,6.7 -1,13.2 0,19.9 0.7,4.6 0.7,7.9 -0.9,12.2 -0.7,1.9 -1.5,3.8 -1.9,5.8 -0.2,1.1 -0.8,2.2 -0.8,3.4 0,0.7 0.2,1.5 0.8,1.7 0.4,0.2 0.8,0.1 1.2,0 2,-0.3 4,-0.8 6,-1.3 2.3,-0.6 5.1,-1.6 5.9,-4 1.8,-5.1 -1.4,-13 -2.8,-17.8 z"
       id="path227"
       inkscape:connector-curvature="0"
       style="fill:#ffddb3" /><path
       class="st34"
       d="m 74.2,489.9 c -2.2,-0.8 -4.4,-1 -6.6,-1.7 -3,-0.9 -4.5,-3.6 -6.7,-5.6 -2.4,-2.3 -6.9,-5.2 -10.4,-5.4 -3.3,-0.2 -5.9,1.1 -8.5,3.2 -1.9,1.6 -3.8,3.2 -5.8,4.6 -1.1,0.8 -2.2,1.6 -3.5,2.3 -0.6,0.3 -1.1,0.6 -1.7,0.9 -2.6,1.3 -12.4,5.5 -5.6,8.7 3.5,1.6 8.6,1.9 12.4,2.4 4.5,0.6 9.1,0.8 13.6,0.5 8.1,-0.7 17,-2.5 23.1,-8.2 0.7,-0.6 0.3,-1.4 -0.3,-1.7 z"
       id="path229"
       inkscape:connector-curvature="0"
       style="fill:#e83e2e" /><path
       class="st13"
       d="m 39.8,488.9 c -0.8,1.2 -3.6,0.6 -4.7,0.1 -0.9,-0.4 -1.7,-1 -2.3,-1.7 1.2,-0.7 2.4,-1.5 3.5,-2.3 0.6,0.3 1.3,0.6 1.9,0.9 0.9,0.6 2.4,1.8 1.6,3 z m 6.8,0.8 c -0.8,0.1 -1.1,0.9 -0.9,1.5 -0.1,0.4 0.1,0.9 0.6,1.1 1.2,0.5 4.4,1.4 5,-0.6 0.7,-2.2 -3.4,-2.1 -4.7,-2 z m 10.1,-6.2 c -1.4,-0.4 -4.7,1 -4.5,2.8 0.1,0.7 0.7,1.2 1.4,1.3 1.6,0.3 4.9,0 4.7,-2.3 -0.1,-0.9 -0.8,-1.6 -1.6,-1.8 z"
       id="path231"
       inkscape:connector-curvature="0"
       style="fill:#ffffff" /><path
       class="st33"
       d="m 84.3,526.7 c -0.1,-6.1 1.1,-11.2 -6.1,-12.6 -0.6,-0.1 -1.1,0.3 -1.2,0.8 -0.3,0.1 -0.5,0.3 -0.5,0.7 -0.5,3.4 0.7,6.4 0.8,9.8 0.1,4.2 -1.9,8.7 -1.6,12.8 0.2,3 2.9,2.6 5.2,1.6 5,-2.1 3.4,-8.7 3.4,-13.1 z"
       id="path233"
       inkscape:connector-curvature="0"
       style="fill:#ffddb3" /><path
       class="st34"
       d="m 89.2,515.4 c -0.4,-1.3 -0.8,-2.5 -1.4,-3.5 l -0.3,-0.6 c -1.5,-2.6 -4,-3.3 -6.8,-3.6 -7.3,-0.7 -9.8,7.3 -10.1,13.1 0,0.9 -0.1,1.9 0.3,2.8 0.8,2.1 3.6,2 5.4,2.2 3.9,0.4 13,-0.4 13.5,-5.5 0.2,-1.6 -0.1,-3.3 -0.6,-4.9 z"
       id="path235"
       inkscape:connector-curvature="0"
       style="fill:#e83e2e" /><path
       d="M 272.5,737.3 H -0.4 V 585.9 l 227.8,18.2 c 42.9,0 45.1,37.7 45.1,73 z"
       style="fill:#87aecc"
       id="path327"
       inkscape:connector-curvature="0" /><path
       class="st50"
       d="m 195,646.8 c 2.6,-1.3 5.3,-2.2 8.2,-2.3 3.4,-0.2 6.4,0.9 9.7,1.7 6,1.4 13,-2.3 18.2,1.9 0.5,0.4 -0.2,1.2 -0.7,0.7 -4.7,-3.8 -11.4,-0.3 -16.8,-1.4 -2.9,-0.6 -5.6,-1.7 -8.6,-1.8 -3.3,-0.2 -6.5,0.6 -9.4,2.2 -0.7,0.2 -1.2,-0.7 -0.6,-1 z M 52.4,634.5 c 2.6,-1.3 5.3,-2.2 8.2,-2.3 3.4,-0.2 6.4,0.9 9.7,1.7 6,1.4 13,-2.3 18.2,1.9 0.5,0.4 -0.2,1.2 -0.7,0.7 -4.7,-3.8 -11.4,-0.3 -16.8,-1.4 -2.9,-0.6 -5.6,-1.7 -8.6,-1.8 -3.3,-0.2 -6.5,0.6 -9.4,2.2 -0.7,0.3 -1.2,-0.6 -0.6,-1 z m 28.7,-9.6 c 2.6,-1.3 5.3,-2.2 8.2,-2.3 3.4,-0.2 6.4,0.9 9.7,1.7 6,1.4 13,-2.3 18.2,1.9 0.5,0.4 -0.2,1.2 -0.7,0.7 -4.7,-3.8 -11.4,-0.3 -16.8,-1.4 -2.9,-0.6 -5.6,-1.7 -8.6,-1.8 -3.3,-0.2 -6.5,0.6 -9.4,2.2 -0.7,0.2 -1.2,-0.7 -0.6,-1 z m 100.1,30.8 c 2.6,-1.3 5.3,-2.2 8.2,-2.3 3.4,-0.2 6.4,0.9 9.7,1.7 6,1.4 13,-2.3 18.2,1.9 0.5,0.4 -0.2,1.2 -0.7,0.7 -4.7,-3.8 -11.4,-0.3 -16.8,-1.4 -2.9,-0.6 -5.6,-1.7 -8.6,-1.8 -3.3,-0.2 -6.5,0.6 -9.4,2.2 -0.7,0.2 -1.2,-0.7 -0.6,-1 z"
       id="path329"
       inkscape:connector-curvature="0"
       style="fill:#5885a8" /><path
       class="st51"
       d="m 139.3,711.7 c -1.7,-0.3 -3.4,-0.6 -5.1,-0.7 -2.7,-0.2 -5.5,-0.2 -8.2,0.1 -4.8,0.5 -10.6,2 -13.1,6.7 -4.4,8.4 8.9,10.7 14.2,11.4 7,0.9 22.1,2.6 24.7,-6.8 1,-3.6 -1,-6.4 -4.2,-8 -2.6,-1.2 -5.4,-2.1 -8.3,-2.7 z"
       id="path331"
       inkscape:connector-curvature="0"
       style="fill:#2d7345" /><path
       class="st52"
       d="m 240.8,727.7 c -2.2,-1.6 -4.2,-3.5 -6.7,-7.6 -1,-1.7 -2.3,-3.4 -2.9,-3 -0.3,0.3 -0.2,1.2 0.1,2.2 0.2,0.8 0.5,1.5 0.8,2.3 1,2.4 2.5,4.8 3.9,6.7 1.8,2.6 3.7,4.8 5.4,6.1 1.7,1.3 3.1,1.6 3.8,0.5 0.2,-0.3 0.3,-0.9 0,-1.8 -0.2,-0.5 -0.5,-1 -0.8,-1.5 -1.1,-1.9 -2.4,-3.1 -3.6,-3.9 z M 21.5,696.6 c 0.3,-0.5 -0.3,-0.2 0.6,-0.9 0.3,-0.2 0.6,-0.3 0.8,-0.5 1.3,-1.5 -3.2,-0.5 -5.2,-0.4 -1.9,0.1 -2.8,-0.3 -3.5,-0.8 -0.9,-0.6 -1.4,-1.4 -1.3,-2.3 0.1,-0.7 0.7,-1.8 -2.3,-1.4 -2.3,0.4 -3.5,1.3 -3.7,2 -0.4,1.3 1.3,2.4 2.2,3.4 0.5,0.6 1.6,0.8 2.7,1.2 1,0.4 1.5,1 3,1.2 1.4,0.2 3.6,0.1 5.4,-0.6 0.9,-0.3 1,-0.5 1.3,-0.9 z M 162,720.4 c -0.4,-0.4 -0.3,0.3 -0.8,-0.7 -0.2,-0.3 -0.2,-0.7 -0.4,-0.9 -1.3,-1.6 -1.1,3 -1.4,5 -0.2,1.9 -0.9,2.7 -1.4,3.3 -0.8,0.8 -1.7,1.1 -2.5,0.9 -0.7,-0.2 -1.7,-1 -1.8,1.9 -0.1,2.4 0.6,3.7 1.3,4 1.2,0.7 2.6,-0.8 3.8,-1.5 0.7,-0.4 1.1,-1.4 1.7,-2.4 0.6,-0.9 1.3,-1.3 1.8,-2.7 0.5,-1.3 0.8,-3.5 0.5,-5.4 -0.2,-1 -0.4,-1.2 -0.8,-1.5 z m 6.7,-25.3 c -0.3,-0.3 -0.2,0.2 -0.6,-0.6 -0.1,-0.2 -0.1,-0.5 -0.3,-0.7 -1,-1.2 -0.9,2.3 -1.1,3.9 -0.2,1.4 -0.7,2.1 -1.1,2.5 -0.6,0.6 -1.3,0.9 -1.9,0.7 -0.5,-0.2 -1.3,-0.8 -1.4,1.5 -0.1,1.8 0.5,2.8 1,3.1 0.9,0.5 2,-0.6 2.9,-1.2 0.5,-0.3 0.8,-1.1 1.3,-1.8 0.5,-0.7 1,-1 1.4,-2.1 0.4,-1 0.6,-2.7 0.4,-4.2 -0.2,-0.7 -0.4,-0.8 -0.6,-1.1 z M 46,662.8 c -0.9,0.4 -0.5,3.5 -1.2,4.7 -0.1,0.2 -0.3,0.3 -0.5,0.4 -0.4,0.1 -1.5,0.1 -2.4,0.8 -0.5,0.4 -0.8,1.1 -0.8,2.2 0,1.7 0.8,2.4 1.2,2.7 0.8,0.5 1.6,0.4 2.4,-0.2 1.1,-0.8 3,-3.1 2.7,-7.6 0,-2.1 -0.8,-3.3 -1.4,-3 z"
       id="path333"
       inkscape:connector-curvature="0"
       style="fill:#9dcaed" /><g
       id="g351"><path
         class="st53"
         d="m 233.6,520.4 c -10.9,22 -12.4,45 -12.5,69.2 0,1.4 2.2,1.4 2.2,0 0.1,-23.7 1.5,-46.4 12.2,-68 0.6,-1.4 -1.3,-2.5 -1.9,-1.2 z"
         id="path335"
         inkscape:connector-curvature="0"
         style="fill:#3c5214" /><path
         class="st54"
         d="m 246,503.2 c -0.4,-2 -1.8,-3.3 -3.7,-2.9 -2.5,0.5 -4.2,3.5 -5.6,5.7 -2,3.2 -11.9,24.7 -4.5,24.9 2,0 3.5,-2.8 4.5,-4.5 2.4,-4.1 4.4,-8.5 6.3,-12.9 1.3,-2.9 3.7,-7.1 3,-10.3 z"
         id="path337"
         inkscape:connector-curvature="0"
         style="fill:#ad4123" /><path
         class="st18"
         d="m 244,498.9 c -0.1,0.1 -0.1,0.2 -0.2,0.2 -0.4,0.5 -0.8,1.1 -1.2,1.7 -0.1,0.2 -0.3,0.4 -0.4,0.6 -0.3,0.5 -0.1,1.2 0.4,1.5 0.2,0.1 0.4,0.1 0.6,0.1 0.4,0.1 0.8,-0.1 1,-0.5 0.1,-0.2 0.2,-0.3 0.3,-0.5 l 1.3,-1.8 c 0.6,-1 -1,-2.3 -1.8,-1.3 z"
         id="path339"
         inkscape:connector-curvature="0"
         style="fill:#36240e" /><path
         class="st53"
         d="m 185.1,502.7 c -0.7,-1.3 -2.6,-0.1 -1.9,1.1 14,26.4 20.7,55.5 26.3,84.5 0.3,1.4 2.4,0.8 2.1,-0.6 -5.6,-29.2 -12.4,-58.5 -26.5,-85 z"
         id="path341"
         inkscape:connector-curvature="0"
         style="fill:#3c5214" /><path
         class="st54"
         d="m 179.5,499.8 c 1.7,4.5 3.5,9 5.6,13.2 0.9,1.7 2.3,4.6 4.3,4.7 7.5,0.2 -1.3,-21.8 -3.2,-25.1 -1.3,-2.2 -2.9,-5.3 -5.3,-6 -1.8,-0.5 -3.3,0.8 -3.8,2.8 -0.8,3.2 1.3,7.5 2.4,10.4 z"
         id="path343"
         inkscape:connector-curvature="0"
         style="fill:#ad4123" /><path
         class="st18"
         d="m 180.9,488.2 c 0,-0.2 -0.1,-0.3 -0.1,-0.5 -0.3,-0.8 -0.8,-3.5 -2.3,-2.6 -0.4,0.3 -0.6,0.8 -0.6,1.3 0,0.5 0.2,0.9 0.4,1.4 0.2,0.6 0.5,1.2 1,1.5 0.5,0.4 1.3,0.3 1.6,-0.2 0.1,-0.3 0.1,-0.6 0,-0.9 z"
         id="path345"
         inkscape:connector-curvature="0"
         style="fill:#36240e" /><path
         class="st51"
         d="m 246.6,563.6 c -5.4,6.1 -9.6,13.2 -13.7,20.2 2.1,-16.8 5.6,-33.4 10.5,-49.6 0.2,-0.6 -0.5,-0.9 -0.9,-0.5 -11.2,9.6 -17,23 -21.3,36.8 -3.1,-21.2 -4.1,-42.6 1.7,-63.4 0.3,-0.3 -0.9,-1.1 -1,-0.5 -7.2,8.6 -10.8,19.4 -12.9,30.2 -2.2,11 -3.2,22.3 -3.4,33.5 -1.1,-1.9 -2.4,-3.8 -3.7,-5.7 -3.1,-4.4 -6.6,-8.5 -10.3,-12.4 -3.6,-3.8 -7.3,-7.5 -12.1,-9.8 -0.6,-0.3 -1.2,0.6 -0.5,1 0,0.1 0,0.2 0.2,0.3 4.5,4.4 7.3,10 10.3,15.4 3.1,5.8 6.2,11.5 8.9,17.5 2.7,6.1 5,12.3 6.4,18.8 0.8,3.6 1.3,7.3 1.6,11 -1.7,-3.1 -3.9,-6 -6.2,-8.8 -2.8,-3.3 -5.9,-6.3 -9.1,-9.3 -2.4,-2.3 -4.8,-4.8 -8.1,-5.7 -0.6,-0.2 -0.9,0.6 -0.5,0.9 -0.1,0.1 -0.1,0.3 0,0.5 5,8.1 9.8,16.3 13.6,25 1.9,4.5 3.6,9.1 4.8,13.8 0.6,2.4 1.2,4.8 1.6,7.2 0.2,1 0,4.8 0.8,5.4 1.3,1 4,1.4 5.9,1.8 0.4,0.1 0.7,0.1 1,0.2 0.9,0.2 1.8,0.4 2.8,0.5 1.7,0.2 3.5,0.3 5.3,0.2 1.3,-0.1 2.6,-0.2 3.9,-0.5 1.8,-0.3 3.6,-0.7 5.3,-1.1 2.3,-0.4 4.5,-0.8 6.9,-0.8 0.2,0 0.4,0 0.5,-0.1 1.1,-0.7 0.9,-6.2 1,-7.5 0.4,-3.3 0.8,-6.7 1.2,-10 0.8,-6.6 1.7,-13.3 2.7,-19.9 1.7,-11.5 4.8,-22.6 8.6,-33.7 0.6,-1.6 0.1,-3 -1.8,-0.9 z"
         id="path347"
         inkscape:connector-curvature="0"
         style="fill:#2d7345" /><path
         class="st53"
         d="m 212.9,638 c -0.9,-0.1 -1.9,-0.3 -2.8,-0.5 -0.3,-0.1 -0.6,-0.2 -1,-0.2 -0.3,-8.5 -1.2,-25.7 -2.9,-30.7 -0.3,-3.7 -0.8,-7.4 -1.6,-11 -1.4,-6.5 -3.7,-12.7 -6.4,-18.8 -2.7,-6 -5.8,-11.8 -8.9,-17.5 -2.9,-5.5 -5.8,-11 -10.3,-15.4 -0.1,-0.1 -0.1,-0.2 -0.2,-0.3 -0.7,-0.3 -0.1,-1.3 0.5,-1 4.7,2.3 8.5,6 12.1,9.8 3.7,3.9 7.2,8 10.3,12.4 1.3,1.8 2.5,3.7 3.7,5.7 1.2,2 4.2,10.1 6.2,29 1.6,14 1.4,30.9 1.3,38.5 z m 30.5,-103.8 c -4.9,16.2 -8.4,32.8 -10.5,49.6 -1.4,9.7 -4.3,39 -5.6,52.8 -1.7,0.3 -3.5,0.7 -5.3,1.1 -1.3,0.3 -2.6,0.4 -3.9,0.5 v -27 c 0,-13.4 3,-40.7 3,-40.7 4.3,-13.8 10.2,-27.2 21.3,-36.8 0.4,-0.3 1.1,0 1,0.5 z"
         id="path349"
         inkscape:connector-curvature="0"
         style="fill:#3c5214" /></g><g
       id="g369"><path
         class="st53"
         d="m 33,616.7 c -6.7,13.5 -7.7,27.8 -7.7,42.6 0,0.9 1.4,0.9 1.4,0 0.1,-14.6 0.9,-28.6 7.5,-41.9 0.3,-0.8 -0.8,-1.5 -1.2,-0.7 z"
         id="path353"
         inkscape:connector-curvature="0"
         style="fill:#3c5214" /><path
         class="st54"
         d="m 40.6,606.1 c -0.2,-1.2 -1.1,-2.1 -2.3,-1.8 -1.5,0.3 -2.6,2.2 -3.5,3.5 -1.2,2 -7.4,15.3 -2.8,15.4 1.2,0 2.2,-1.7 2.8,-2.8 1.5,-2.6 2.7,-5.2 3.9,-8 0.9,-1.7 2.3,-4.3 1.9,-6.3 z"
         id="path355"
         inkscape:connector-curvature="0"
         style="fill:#ad4123" /><path
         class="st18"
         d="m 39.4,603.4 -0.1,0.1 c -0.3,0.3 -0.5,0.7 -0.7,1.1 -0.1,0.1 -0.2,0.2 -0.3,0.4 -0.2,0.3 -0.1,0.8 0.2,0.9 0.1,0.1 0.2,0.1 0.4,0.1 0.2,0 0.5,-0.1 0.6,-0.3 0.1,-0.1 0.1,-0.2 0.2,-0.3 l 0.8,-1.1 c 0.4,-0.7 -0.6,-1.5 -1.1,-0.9 z"
         id="path357"
         inkscape:connector-curvature="0"
         style="fill:#36240e" /><path
         class="st53"
         d="m 3.1,605.8 c -0.4,-0.8 -1.6,-0.1 -1.2,0.7 8.6,16.2 12.7,34.2 16.2,52.1 0.2,0.9 1.5,0.5 1.3,-0.4 -3.5,-18 -7.7,-36.1 -16.3,-52.4 z"
         id="path359"
         inkscape:connector-curvature="0"
         style="fill:#3c5214" /><path
         class="st54"
         d="m -0.4,604 c 1,2.8 2.2,5.5 3.5,8.2 0.5,1.1 1.4,2.9 2.6,2.9 4.6,0.1 -0.8,-13.5 -2,-15.5 -0.8,-1.4 -1.8,-3.3 -3.3,-3.7 -1.1,-0.3 -2,0.5 -2.3,1.7 -0.5,1.9 0.9,4.6 1.5,6.4 z"
         id="path361"
         inkscape:connector-curvature="0"
         style="fill:#ad4123" /><path
         class="st18"
         d="m 0.5,596.8 c 0,-0.1 -0.1,-0.2 -0.1,-0.3 -0.2,-0.5 -0.5,-2.2 -1.4,-1.6 -0.3,0.2 -0.4,0.5 -0.4,0.8 0,0.3 0.1,0.6 0.2,0.9 0.1,0.4 0.3,0.7 0.6,0.9 0.3,0.2 0.8,0.2 1,-0.1 0.1,-0.2 0.1,-0.4 0.1,-0.6 z"
         id="path363"
         inkscape:connector-curvature="0"
         style="fill:#36240e" /><path
         class="st51"
         d="m 41,643.3 c -3.3,3.7 -5.9,8.1 -8.4,12.5 1.3,-10.3 3.4,-20.6 6.4,-30.6 0.1,-0.3 -0.3,-0.5 -0.6,-0.3 -6.9,5.9 -10.5,14.2 -13.2,22.7 -1.9,-13 -2.5,-26.2 1.1,-39.1 0.2,-0.2 -0.5,-0.7 -0.6,-0.3 -4.4,5.3 -6.6,11.9 -7.9,18.6 -1.3,6.8 -2,13.7 -2.1,20.7 -0.7,-1.2 -1.5,-2.4 -2.3,-3.5 -1.9,-2.7 -4.1,-5.2 -6.4,-7.7 -2.2,-2.3 -4.5,-4.6 -7.4,-6.1 -0.4,-0.2 -0.7,0.4 -0.3,0.6 0,0.1 0,0.1 0.1,0.2 2.8,2.7 4.5,6.1 6.3,9.5 1.9,3.6 3.8,7.1 5.5,10.8 1.7,3.7 3.1,7.6 3.9,11.6 0.5,2.2 0.8,4.5 1,6.8 -1.1,-1.9 -2.4,-3.7 -3.8,-5.4 -1.7,-2 -3.7,-3.9 -5.6,-5.8 -1.5,-1.4 -2.9,-3 -5,-3.5 -0.4,-0.1 -0.6,0.4 -0.3,0.6 v 0.3 c 3.1,5 6.1,10 8.4,15.4 1.2,2.8 2.2,5.6 3,8.5 0.4,1.5 0.7,2.9 1,4.4 0.1,0.6 0,2.9 0.5,3.3 0.8,0.6 2.5,0.9 3.7,1.1 0.2,0 0.4,0.1 0.6,0.1 0.6,0.1 1.1,0.3 1.7,0.3 1.1,0.2 2.2,0.2 3.2,0.2 0.8,0 1.6,-0.1 2.4,-0.3 1.1,-0.2 2.2,-0.5 3.3,-0.7 1.4,-0.3 2.8,-0.5 4.3,-0.5 0.1,0 0.2,0 0.3,-0.1 0.7,-0.4 0.5,-3.8 0.6,-4.6 0.2,-2.1 0.5,-4.1 0.7,-6.1 0.5,-4.1 1.1,-8.2 1.7,-12.3 1,-7.1 2.9,-13.9 5.3,-20.8 0.4,-0.9 0,-1.8 -1.1,-0.5 z"
         id="path365"
         inkscape:connector-curvature="0"
         style="fill:#2d7345" /><path
         class="st53"
         d="m 20.2,689.2 c -0.6,-0.1 -1.2,-0.2 -1.7,-0.3 -0.2,0 -0.4,-0.1 -0.6,-0.1 -0.2,-5.2 -0.7,-15.8 -1.8,-18.9 -0.2,-2.3 -0.5,-4.6 -1,-6.8 -0.9,-4 -2.3,-7.9 -3.9,-11.6 -1.6,-3.7 -3.5,-7.3 -5.5,-10.8 -1.8,-3.4 -3.6,-6.8 -6.3,-9.5 -0.1,-0.1 -0.1,-0.1 -0.1,-0.2 -0.4,-0.2 -0.1,-0.8 0.3,-0.6 2.9,1.4 5.2,3.7 7.4,6.1 2.3,2.4 4.4,4.9 6.4,7.7 0.8,1.1 1.5,2.3 2.3,3.5 0.8,1.2 2.6,6.2 3.8,17.9 0.9,8.5 0.8,18.9 0.7,23.6 z m 18.8,-64 c -3,10 -5.2,20.2 -6.4,30.6 -0.9,6 -2.6,24.1 -3.4,32.6 -1.1,0.2 -2.2,0.4 -3.3,0.7 -0.8,0.2 -1.6,0.3 -2.4,0.3 v -16.7 c 0,-8.2 1.8,-25.1 1.8,-25.1 2.7,-8.5 6.3,-16.7 13.2,-22.7 0.2,-0.2 0.6,0 0.5,0.3 z"
         id="path367"
         inkscape:connector-curvature="0"
         style="fill:#3c5214" /></g><g
       id="g387"><path
         class="st53"
         d="m 160.6,633.4 c -6,12.2 -6.9,25 -6.9,38.4 0,0.8 1.2,0.8 1.2,0 0,-13.1 0.8,-25.8 6.8,-37.7 0.3,-0.8 -0.7,-1.4 -1.1,-0.7 z"
         id="path371"
         inkscape:connector-curvature="0"
         style="fill:#3c5214" /><path
         class="st54"
         d="m 167.5,623.9 c -0.2,-1.1 -1,-1.9 -2,-1.6 -1.4,0.3 -2.4,1.9 -3.1,3.1 -1.1,1.8 -6.6,13.7 -2.5,13.8 1.1,0 2,-1.6 2.5,-2.5 1.3,-2.3 2.5,-4.7 3.5,-7.2 0.6,-1.5 2,-3.9 1.6,-5.6 z"
         id="path373"
         inkscape:connector-curvature="0"
         style="fill:#ad4123" /><path
         class="st18"
         d="m 166.4,621.4 -0.1,0.1 c -0.2,0.3 -0.5,0.6 -0.6,0.9 -0.1,0.1 -0.2,0.2 -0.2,0.3 -0.2,0.3 -0.1,0.7 0.2,0.8 0.1,0.1 0.2,0.1 0.3,0.1 0.2,0 0.4,0 0.6,-0.3 0,-0.1 0.1,-0.2 0.2,-0.3 l 0.7,-1 c 0.2,-0.4 -0.7,-1.1 -1.1,-0.6 z"
         id="path375"
         inkscape:connector-curvature="0"
         style="fill:#36240e" /><path
         class="st53"
         d="m 133.7,623.6 c -0.4,-0.7 -1.4,-0.1 -1.1,0.6 7.7,14.6 11.5,30.8 14.6,46.9 0.2,0.8 1.3,0.4 1.2,-0.3 -3.1,-16.3 -6.9,-32.5 -14.7,-47.2 z"
         id="path377"
         inkscape:connector-curvature="0"
         style="fill:#3c5214" /><path
         class="st54"
         d="m 130.6,621.9 c 0.9,2.5 1.9,5 3.1,7.3 0.5,1 1.3,2.6 2.4,2.6 4.1,0.1 -0.7,-12.1 -1.8,-13.9 -0.7,-1.2 -1.6,-2.9 -3,-3.3 -1,-0.3 -1.8,0.4 -2.1,1.5 -0.4,1.8 0.8,4.2 1.4,5.8 z"
         id="path379"
         inkscape:connector-curvature="0"
         style="fill:#ad4123" /><path
         class="st18"
         d="m 131.4,615.5 c 0,-0.1 -0.1,-0.2 -0.1,-0.3 -0.2,-0.4 -0.4,-2 -1.3,-1.4 -0.2,0.1 -0.3,0.4 -0.3,0.7 0,0.3 0.1,0.5 0.2,0.8 0.1,0.3 0.3,0.6 0.5,0.8 0.3,0.2 0.7,0.2 0.9,-0.1 0.1,-0.1 0.1,-0.3 0.1,-0.5 z"
         id="path381"
         inkscape:connector-curvature="0"
         style="fill:#36240e" /><path
         class="st51"
         d="m 167.8,657.4 c -3,3.4 -5.3,7.3 -7.6,11.2 1.2,-9.3 3.1,-18.5 5.8,-27.5 0.1,-0.3 -0.3,-0.5 -0.5,-0.3 -6.2,5.3 -9.4,12.8 -11.8,20.4 -1.7,-11.7 -2.3,-23.6 1,-35.2 0.1,-0.2 -0.5,-0.6 -0.6,-0.3 -4,4.8 -6,10.7 -7.2,16.8 -1.2,6.1 -1.8,12.4 -1.9,18.6 -0.6,-1.1 -1.3,-2.1 -2,-3.1 -1.7,-2.4 -3.7,-4.7 -5.7,-6.9 -2,-2.1 -4.1,-4.2 -6.7,-5.5 -0.4,-0.2 -0.7,0.4 -0.3,0.5 0,0.1 0,0.1 0.1,0.2 2.5,2.4 4.1,5.5 5.7,8.6 1.7,3.2 3.4,6.4 4.9,9.7 1.5,3.4 2.8,6.8 3.5,10.4 0.4,2 0.7,4.1 0.9,6.1 -1,-1.7 -2.1,-3.4 -3.4,-4.9 -1.6,-1.8 -3.3,-3.5 -5,-5.2 -1.3,-1.3 -2.6,-2.7 -4.5,-3.2 -0.3,-0.1 -0.5,0.3 -0.3,0.5 v 0.3 c 2.8,4.5 5.4,9 7.5,13.9 1.1,2.5 2,5 2.7,7.6 0.4,1.3 0.6,2.6 0.9,4 0.1,0.6 0,2.6 0.4,3 0.7,0.5 2.2,0.8 3.3,1 0.2,0 0.4,0.1 0.5,0.1 l 1.5,0.3 c 1,0.1 1.9,0.2 2.9,0.1 0.7,0 1.5,-0.1 2.2,-0.3 l 3,-0.6 c 1.3,-0.2 2.5,-0.4 3.8,-0.5 0.1,0 0.2,0 0.3,-0.1 0.6,-0.4 0.5,-3.5 0.6,-4.2 0.2,-1.8 0.4,-3.7 0.7,-5.5 0.5,-3.7 1,-7.4 1.5,-11 0.9,-6.4 2.6,-12.5 4.8,-18.7 0.3,-0.7 0.1,-1.5 -1,-0.3 z"
         id="path383"
         inkscape:connector-curvature="0"
         style="fill:#2d7345" /><path
         class="st53"
         d="m 149.1,698.6 -1.5,-0.3 c -0.2,0 -0.3,-0.1 -0.5,-0.1 -0.2,-4.7 -0.6,-14.3 -1.6,-17.1 -0.2,-2.1 -0.5,-4.1 -0.9,-6.1 -0.8,-3.6 -2,-7.1 -3.5,-10.4 -1.5,-3.3 -3.2,-6.5 -4.9,-9.7 -1.6,-3 -3.2,-6.1 -5.7,-8.6 -0.1,-0.1 -0.1,-0.1 -0.1,-0.2 -0.4,-0.2 -0.1,-0.7 0.3,-0.5 2.6,1.3 4.7,3.4 6.7,5.5 2.1,2.2 4,4.4 5.7,6.9 0.7,1 1.4,2.1 2,3.1 0.6,1 2.3,5.6 3.4,16.1 0.8,7.9 0.7,17.2 0.6,21.4 z M 166,641.1 c -2.7,9 -4.6,18.2 -5.8,27.5 -0.8,5.4 -2.4,21.7 -3.1,29.3 -1,0.2 -1.9,0.4 -3,0.6 -0.7,0.1 -1.4,0.2 -2.2,0.3 v -15 c 0,-7.4 1.7,-22.6 1.7,-22.6 2.4,-7.6 5.6,-15.1 11.8,-20.4 0.3,-0.2 0.7,0 0.6,0.3 z"
         id="path385"
         inkscape:connector-curvature="0"
         style="fill:#3c5214" /></g><g
       id="g405"><path
         class="st53"
         d="m 272.4,669.1 c -6.7,13.5 -7.6,27.6 -7.7,42.4 0,0.9 1.4,0.9 1.4,0 0.1,-14.5 0.9,-28.5 7.5,-41.7 0.4,-0.8 -0.8,-1.5 -1.2,-0.7 z"
         id="path389"
         inkscape:connector-curvature="0"
         style="fill:#3c5214" /><path
         class="st54"
         d="m 280.1,658.6 c -0.2,-1.2 -1.1,-2 -2.2,-1.8 -1.5,0.3 -2.6,2.2 -3.4,3.5 -1.2,1.9 -7.3,15.2 -2.7,15.3 1.2,0 2.2,-1.7 2.8,-2.7 1.4,-2.5 2.7,-5.2 3.9,-7.9 0.5,-1.8 1.9,-4.4 1.6,-6.4 z"
         id="path391"
         inkscape:connector-curvature="0"
         style="fill:#ad4123" /><path
         class="st18"
         d="m 278.8,656 -0.1,0.1 c -0.3,0.3 -0.5,0.7 -0.7,1 -0.1,0.1 -0.2,0.2 -0.3,0.4 -0.2,0.3 -0.1,0.8 0.2,0.9 0.1,0.1 0.2,0.1 0.4,0.1 0.2,0 0.5,-0.1 0.6,-0.3 0.1,-0.1 0.1,-0.2 0.2,-0.3 l 0.8,-1.1 c 0.4,-0.7 -0.6,-1.4 -1.1,-0.8 z"
         id="path393"
         inkscape:connector-curvature="0"
         style="fill:#36240e" /><path
         class="st53"
         d="m 242.7,658.3 c -0.4,-0.8 -1.6,-0.1 -1.2,0.7 8.5,16.1 12.7,34 16.1,51.8 0.2,0.9 1.5,0.5 1.3,-0.4 -3.4,-17.9 -7.6,-35.9 -16.2,-52.1 z"
         id="path395"
         inkscape:connector-curvature="0"
         style="fill:#3c5214" /><path
         class="st54"
         d="m 239.3,656.5 c 1,2.8 2.1,5.5 3.5,8.1 0.5,1.1 1.4,2.8 2.6,2.9 4.6,0.1 -0.8,-13.4 -1.9,-15.4 -0.8,-1.4 -1.8,-3.2 -3.3,-3.6 -1.1,-0.3 -2,0.5 -2.3,1.7 -0.6,1.9 0.7,4.5 1.4,6.3 z"
         id="path397"
         inkscape:connector-curvature="0"
         style="fill:#ad4123" /><path
         class="st18"
         d="m 240.1,649.4 c 0,-0.1 -0.1,-0.2 -0.1,-0.3 -0.2,-0.5 -0.5,-2.2 -1.4,-1.6 -0.3,0.2 -0.4,0.5 -0.4,0.8 0,0.3 0.1,0.6 0.2,0.9 0.1,0.3 0.3,0.7 0.6,0.9 0.3,0.2 0.8,0.2 1,-0.1 0.2,-0.2 0.2,-0.4 0.1,-0.6 z"
         id="path399"
         inkscape:connector-curvature="0"
         style="fill:#36240e" /><path
         class="st51"
         d="m 280.4,695.6 c -3.3,3.7 -5.9,8.1 -8.4,12.4 1.3,-10.3 3.4,-20.5 6.4,-30.4 0.1,-0.3 -0.3,-0.5 -0.6,-0.3 -6.8,5.9 -10.4,14.1 -13.1,22.5 -1.9,-13 -2.5,-26.1 1.1,-38.8 0.2,-0.2 -0.5,-0.7 -0.6,-0.3 -4.4,5.3 -6.6,11.9 -7.9,18.5 -1.3,6.8 -2,13.7 -2.1,20.5 -0.7,-1.2 -1.4,-2.3 -2.2,-3.5 -1.9,-2.7 -4,-5.2 -6.3,-7.6 -2.2,-2.3 -4.5,-4.6 -7.4,-6 -0.4,-0.2 -0.7,0.4 -0.3,0.6 0,0.1 0,0.1 0.1,0.2 2.7,2.7 4.5,6.1 6.3,9.4 1.9,3.5 3.8,7.1 5.4,10.7 1.7,3.7 3.1,7.5 3.9,11.5 0.5,2.2 0.8,4.5 1,6.8 -1.1,-1.9 -2.4,-3.7 -3.8,-5.4 -1.7,-2 -3.6,-3.9 -5.5,-5.7 -1.5,-1.4 -2.9,-2.9 -5,-3.5 -0.4,-0.1 -0.6,0.4 -0.3,0.6 v 0.3 c 3.1,4.9 6,10 8.3,15.3 1.2,2.7 2.2,5.5 3,8.4 0.4,1.4 0.7,2.9 1,4.4 0.1,0.6 0,2.9 0.5,3.3 0.8,0.6 2.4,0.8 3.6,1.1 0.2,0 0.4,0.1 0.6,0.1 0.6,0.1 1.1,0.3 1.7,0.3 1.1,0.1 2.1,0.2 3.2,0.1 0.8,0 1.6,-0.1 2.4,-0.3 1.1,-0.2 2.2,-0.4 3.3,-0.7 1.4,-0.3 2.8,-0.5 4.2,-0.5 0.1,0 0.2,0 0.3,-0.1 0.7,-0.4 0.5,-3.8 0.6,-4.6 0.2,-2 0.5,-4.1 0.7,-6.1 0.5,-4.1 1.1,-8.1 1.6,-12.2 1,-7.1 2.9,-13.8 5.3,-20.6 0.5,-0.8 0.2,-1.7 -1,-0.4 z"
         id="path401"
         inkscape:connector-curvature="0"
         style="fill:#2d7345" /><path
         class="st53"
         d="m 259.7,741.2 c -0.6,-0.1 -1.2,-0.2 -1.7,-0.3 -0.2,0 -0.4,-0.1 -0.6,-0.1 -0.2,-5.2 -0.7,-15.7 -1.8,-18.8 -0.2,-2.3 -0.5,-4.5 -1,-6.8 -0.9,-4 -2.3,-7.8 -3.9,-11.5 -1.6,-3.7 -3.5,-7.2 -5.4,-10.7 -1.8,-3.3 -3.6,-6.7 -6.3,-9.4 -0.1,-0.1 -0.1,-0.1 -0.1,-0.2 -0.4,-0.2 -0.1,-0.8 0.3,-0.6 2.9,1.4 5.2,3.7 7.4,6 2.3,2.4 4.4,4.9 6.3,7.6 0.8,1.1 1.5,2.3 2.2,3.5 0.7,1.2 2.6,6.2 3.8,17.8 1,8.5 0.9,18.8 0.8,23.5 z m 18.7,-63.6 c -3,9.9 -5.1,20.1 -6.4,30.4 -0.9,5.9 -2.6,23.9 -3.4,32.4 -1.1,0.2 -2.1,0.4 -3.3,0.7 -0.8,0.2 -1.6,0.3 -2.4,0.3 v -16.6 c 0,-8.2 1.8,-24.9 1.8,-24.9 2.7,-8.4 6.2,-16.6 13.1,-22.5 0.3,-0.3 0.7,-0.1 0.6,0.2 z"
         id="path403"
         inkscape:connector-curvature="0"
         style="fill:#3c5214" /></g><path
       class="st51"
       d="m 95.6,696.2 c -0.2,-0.1 -0.3,-0.1 -0.4,0 -4.6,-2 -9.7,-2.6 -14.7,-3.3 -6.3,-0.9 -12.7,-1 -19.1,-0.4 -6,0.6 -12.1,1.4 -17.8,3.3 -4.2,1.4 -9.7,3.5 -11.7,7.8 -4,8.6 8.2,14.5 14.6,16.3 5.5,1.5 10.2,4.1 16,4.1 7.3,-0.1 14.7,-0.7 22,-1.2 0.6,0 1.2,-0.7 0.8,-1.3 -2.3,-3.5 -6.1,-5.7 -9.1,-8.5 2.1,0.9 4.2,1.7 6.2,2.7 3.1,1.4 6.2,3.7 9.4,4.8 3.8,1.4 8.8,-1.2 11.7,-3.6 8.7,-8 0.3,-17.7 -7.9,-20.7 z"
       id="path407"
       inkscape:connector-curvature="0"
       style="fill:#2d7345" /><g
       id="g467"><path
         class="st55"
         d="m 70.3,663.6 c 0,0 0.1,-4.1 1.7,-6.2 1.9,-2.4 4.7,-1.7 4.7,-1.7 0,0 -0.3,7.4 -0.4,7.5 -0.2,0.1 -6,0.4 -6,0.4 z m 14,0 c 0,0 0.1,-4.1 1.7,-6.2 1.9,-2.4 4.8,-1.7 4.8,-1.7 0,0 -0.4,7.3 -0.6,7.5 -0.2,0.1 -5.9,0.4 -5.9,0.4 z"
         id="path409"
         inkscape:connector-curvature="0"
         style="fill:#587528" /><path
         class="st56"
         d="m 105.9,702 c -0.1,0.8 -1.2,0.5 -1.7,0.4 -0.8,-0.1 -1.5,-0.2 -2.3,-0.3 -1.3,-0.1 -4,-0.3 -4,0.3 0,0.5 5.2,0.7 5.1,1.7 -0.1,0.5 -2.2,0.4 -5.1,-0.1 -0.7,-0.1 -2,-0.3 -3.6,-0.5 -5,-0.5 -12.7,-1.2 -13.6,-1.5 -1.2,-0.5 -0.5,-1.5 -0.5,-1.5 l 3.6,-1.5 h 1.3 c 1.8,0 3.7,-0.1 5.5,-0.1 1.1,0 2.2,0 3.3,-0.1 1.2,0 2.4,0 3.7,-0.1 2.1,0 4.3,-0.1 6.4,-0.1 h 0.4 c 0.2,0.1 0.5,0.3 0.5,0.6 -0.1,0.3 -0.6,0.3 -0.9,0.3 -1.5,-0.2 -3.1,0 -4.7,0 -0.3,0 -0.7,0.1 -0.7,0.4 0.1,0.5 1.7,0.7 2.1,0.8 1.1,0.2 2.2,0.4 3.3,0.5 0.5,0.2 2,-0.1 1.9,0.8 z"
         id="path411"
         inkscape:connector-curvature="0"
         style="fill:#5e7a2e" /><path
         class="st57"
         d="m 105.9,702 c -0.1,0.8 -1.2,0.5 -1.7,0.4 -0.8,-0.1 -1.5,-0.2 -2.3,-0.3 -1.3,-0.1 -4,-0.3 -4,0.3 0,0.5 5.2,0.7 5.1,1.7 -0.1,0.5 -2.2,0.4 -5.1,-0.1 -0.7,-0.1 -2,-0.3 -3.6,-0.5 0,-0.3 0,-0.7 -0.1,-1.2 -0.2,-0.7 -0.7,-1 -0.1,-2 0.3,-0.5 0.1,-1.1 -0.1,-1.6 1.2,0 2.4,0 3.7,-0.1 2.1,0 4.3,-0.1 6.4,-0.1 h 0.4 c 0.2,0.1 0.5,0.3 0.5,0.6 -0.1,0.3 -0.6,0.3 -0.9,0.3 -1.5,-0.2 -3.1,0 -4.7,0 -0.3,0 -0.7,0.1 -0.7,0.4 0.1,0.5 1.7,0.7 2.1,0.8 1.1,0.2 2.2,0.4 3.3,0.5 0.4,0.3 1.9,0 1.8,0.9 z"
         id="path413"
         inkscape:connector-curvature="0"
         style="fill:#87943c" /><path
         class="st56"
         d="m 105,698.4 c -0.1,-0.1 -0.3,-0.1 -0.5,-0.1 -1.2,0.1 -1.1,1.8 0.1,1.8 0.3,0 0.5,-0.1 0.7,-0.4 0.2,-0.3 0.2,-0.7 0,-1 z m -2.2,4.9 c -0.1,-0.1 -0.3,-0.1 -0.5,-0.1 -1.2,0.1 -1.1,1.8 0.1,1.8 0.3,0 0.5,-0.1 0.7,-0.4 0.2,-0.3 0.2,-0.7 0,-1 -0.1,-0.2 -0.2,-0.2 -0.3,-0.3 z m 2.9,-2 c -0.1,-0.1 -0.3,-0.1 -0.5,-0.1 -1.2,0.1 -1.1,1.8 0.1,1.8 0.3,0 0.5,-0.1 0.7,-0.4 0.2,-0.3 0.2,-0.7 0,-1 -0.1,-0.2 -0.2,-0.2 -0.3,-0.3 z"
         id="path415"
         inkscape:connector-curvature="0"
         style="fill:#5e7a2e" /><path
         d="m 80.6,696.8 c -2.7,-2.2 -1.4,-6.9 0.4,-9.3 0,0 0,-0.1 0.1,-0.1 3.2,-4.1 9.1,-8.5 12.4,-10.2 3.6,-1.9 8.4,-2.3 7.9,2.7 -0.6,4.8 -9.2,13.1 -12.9,15.7 -2.2,1.5 -4.3,3.1 -6.9,1.9 -0.4,-0.3 -0.7,-0.5 -1,-0.7 z"
         style="fill:#455e1c"
         id="path417"
         inkscape:connector-curvature="0" /><path
         class="st56"
         d="m 76.1,702.2 c 0,0 7.4,-9.6 9.2,-12.6 1.8,-3 9,-12.8 12.5,-13.6 3.6,-0.8 5.8,4.1 1.7,9.2 -5.6,6.8 -19.9,17.8 -20.9,17.9 -1,0.2 -2.5,-0.9 -2.5,-0.9 z"
         id="path419"
         inkscape:connector-curvature="0"
         style="fill:#5e7a2e" /><path
         class="st57"
         d="m 88.7,676.4 c 0,0 0.1,9.1 1.1,14.4 1,5.4 2.6,11.8 2.6,11.8 l -1.5,2.2 c 0,0 -1.6,-0.1 -2.6,-1.5 -1.1,-1.4 -4.3,-8.3 -5.5,-13.4 -1.2,-5.2 -1.7,-10.9 -1.6,-13.1 0,-2.2 1.2,-4.6 2.4,-4.7 1.1,0 5.1,4.3 5.1,4.3 z"
         id="path421"
         inkscape:connector-curvature="0"
         style="fill:#87943c" /><path
         class="st57"
         d="m 97.7,705.8 c -0.3,0.6 -1.9,-0.2 -2.7,-0.8 -0.8,-0.5 -1.6,0 -1.1,0.6 0.6,0.8 1.2,1.4 1.8,2.1 0.2,0.3 0.5,0.9 0.2,1.3 -0.2,0.3 -0.8,0.2 -1,0 -0.3,-0.3 -0.6,-0.7 -0.8,-1.1 -0.3,-0.4 -0.5,-0.8 -0.9,-1.1 -0.2,-0.2 -0.7,-0.5 -1,-0.5 -0.5,0 -0.7,0.7 -0.7,1.1 0,0.1 0,0.2 0.1,0.3 0.2,0.6 0.6,1 0.8,1.6 0.2,0.6 -0.5,1.3 -1.1,0.7 -0.5,-0.4 -1.6,-3.2 -2,-3.9 0,-0.1 -0.1,-0.2 -0.1,-0.3 -0.6,-1.4 -1.2,-3 -1.2,-3 l 3.4,-1.3 2.6,1.4 c 0.9,0.5 1.8,0.9 2.3,1.2 1.4,0.7 1.7,1.1 1.4,1.7 z"
         id="path423"
         inkscape:connector-curvature="0"
         style="fill:#87943c" /><path
         class="st59"
         d="m 92.2,672.7 c 0,0 -0.2,4.1 -1.9,10.1 -1.8,6 -6.7,13 -11.7,17.8 l -0.1,0.1 c -3.7,3.4 -13.7,7.4 -22.3,7.1 -1.2,0 -2.4,-0.2 -3.6,-0.4 -2.2,-0.4 -4.3,-1.2 -5.9,-2.5 -4.2,-3.2 -3.6,-7.7 -1.2,-12.5 0.9,-1.7 2.1,-3.5 3.4,-5.3 0.7,-1 1.5,-2 2.3,-3 1.7,-2.1 3.4,-4 5,-5.9 0.8,-0.9 1.5,-1.8 2.3,-2.6 1.4,-1.5 2.7,-2.9 3.9,-4.2 1.7,-1.8 3.3,-3.5 4.7,-4.9 2.9,-2.9 4.7,-4.6 4.7,-4.6 l 17.8,9.4 z"
         id="path425"
         inkscape:connector-curvature="0"
         style="fill:#a3ab55" /><path
         class="st28"
         d="m 92.2,672.7 c 0,0 -0.2,4.1 -1.9,10.1 -1.8,6 -6.7,13 -11.7,17.8 l -0.1,0.1 c -3.7,3.4 -13.7,7.4 -22.3,7.1 3,-1.3 5.6,-3.4 8.5,-6.6 13.5,-14.6 14.4,-29.7 14.4,-29.7 0,0 5.9,-0.1 10.5,-0.2 z"
         id="path427"
         inkscape:connector-curvature="0"
         style="fill:#faecd4" /><path
         class="st55"
         d="m 45.1,703.6 c -2.1,-2.8 0.5,-7 2.9,-8.9 0,0 0.1,0 0.1,-0.1 4.2,-3.1 11,-5.8 14.7,-6.6 3.9,-0.8 8.8,0 6.9,4.6 -1.8,4.4 -12.4,10.2 -16.6,11.7 -2.5,0.9 -5,1.8 -7.2,0 -0.3,-0.2 -0.6,-0.4 -0.8,-0.7 z"
         id="path429"
         inkscape:connector-curvature="0"
         style="fill:#587528" /><path
         class="st59"
         d="m 98.9,669.8 c -0.1,0.4 -0.3,0.9 -0.5,1.2 -1.6,2.8 -6.1,4.6 -8.8,5.3 -3.6,0.9 -7,0.7 -9.7,0.3 -0.6,-0.1 -1.1,-0.2 -1.6,-0.3 -3.6,-0.8 -5.9,-2.3 -8.4,-4.8 -2.8,-2.8 1.9,-9.6 1.9,-9.6 0,0 2.3,-1.5 8,-2.2 1,-0.1 2.1,-0.2 3.4,-0.2 1.2,0 2.4,0 3.4,0.1 6,0.6 9.8,3.4 11.7,6.6 0.2,0.3 0.3,0.6 0.4,0.9 0.4,1 0.4,1.9 0.2,2.7 z"
         id="path431"
         inkscape:connector-curvature="0"
         style="fill:#a3ab55" /><path
         class="st57"
         d="m 87,663.6 c 0,0.7 -1,0.7 -1.6,0.6 -0.6,-0.1 -5.7,-4.3 -5.7,-4.3 1,-0.1 2.1,-0.2 3.4,-0.2 1.2,0 2.4,0 3.4,0.1 0,-0.1 0.6,3 0.5,3.8 z"
         id="path433"
         inkscape:connector-curvature="0"
         style="fill:#87943c" /><path
         class="st59"
         d="m 86.5,659.9 c 0,0 0.1,-4 3.5,-4.2 3,-0.2 3.8,3.4 4,4.7 0.2,1.3 0,2.8 0,2.8 z m -15.1,2.3 c 0,0 0.5,-6.2 4.4,-6.6 3,-0.3 3.8,3.4 4,4.7 0.2,1.4 0,2.8 0,2.8 z"
         id="path435"
         inkscape:connector-curvature="0"
         style="fill:#a3ab55" /><path
         class="st57"
         d="m 39.4,707.6 c 0,0 9.6,-7.3 12.2,-9.7 2.5,-2.4 12.4,-9.3 15.9,-9.2 3.7,0.2 4.3,4.9 -1.1,8.7 -7.2,5.1 -23.9,11.9 -24.9,11.8 -1,-0.1 -2.1,-1.6 -2.1,-1.6 z"
         id="path437"
         inkscape:connector-curvature="0"
         style="fill:#87943c" /><path
         class="st57"
         d="m 57,712.9 c -0.2,0.4 3.2,2.6 4.8,3.5 1.5,0.9 1.3,1.6 0.8,1.6 -0.6,0 -4.6,-1.7 -6.2,-2.3 -1.7,-0.6 -3.7,-1.2 -3.7,0 0,1.2 3,3.7 4,4.8 1,1.1 -1,0.4 -3.4,-1.3 -1.2,-0.9 -4.6,-3.2 -7.7,-5.3 -3,-2.1 -5.9,-4 -6.3,-4.5 -0.8,-0.9 0.2,-1.6 0.2,-1.6 l 3.9,0.2 c 0,0 3.7,0.7 7.9,1.5 5.6,1 12.1,2.3 12.6,2.6 1,0.6 0.3,0.9 -2.1,0.8 -2.7,-0.4 -4.6,-0.4 -4.8,0 z"
         id="path439"
         inkscape:connector-curvature="0"
         style="fill:#87943c" /><path
         class="st59"
         d="m 61.7,712.7 c 2.4,0.2 3.1,-0.2 2.1,-0.8 -0.6,-0.3 -7.1,-1.6 -12.6,-2.6 0.4,0.9 -0.3,1.9 -1.2,2.1 -0.3,0 -0.5,0.1 -0.6,0.4 -0.1,0.4 -0.1,0.8 -0.3,1.1 -0.7,1 -2,1 -3.1,0.9 -0.2,0 -0.3,0 -0.5,-0.1 3.1,2.1 6.5,4.4 7.7,5.3 2.4,1.8 4.4,2.4 3.4,1.3 -1,-1.1 -4,-3.6 -4,-4.8 0,-1.2 2.1,-0.6 3.7,0 1.7,0.6 5.7,2.3 6.2,2.3 0.6,0 0.7,-0.8 -0.8,-1.6 -1.5,-0.9 -5,-3.1 -4.8,-3.5 0.3,-0.2 2.2,-0.2 4.8,0 z"
         id="path441"
         inkscape:connector-curvature="0"
         style="fill:#a3ab55" /><path
         class="st57"
         d="m 56.6,719.8 c -0.1,-0.1 -0.3,-0.1 -0.5,-0.1 -1.2,0.1 -1.1,1.8 0.1,1.8 0.3,0 0.5,-0.1 0.7,-0.4 0.2,-0.3 0.2,-0.7 0,-1 -0.1,-0.2 -0.2,-0.2 -0.3,-0.3 z m 6.6,-3 c -0.1,-0.1 -0.3,-0.1 -0.5,-0.1 -1.2,0.1 -1.1,1.8 0.1,1.8 0.3,0 0.5,-0.1 0.7,-0.4 0.2,-0.3 0.2,-0.7 0,-1 -0.1,-0.2 -0.2,-0.3 -0.3,-0.3 z m 1.1,-5 c -0.1,-0.1 -0.3,-0.1 -0.5,-0.1 -1.2,0.1 -1.1,1.8 0.1,1.8 0.3,0 0.5,-0.1 0.7,-0.4 0.2,-0.3 0.2,-0.7 0,-1 -0.1,-0.2 -0.2,-0.3 -0.3,-0.3 z m 4,-44.7 c -0.3,-0.4 -0.8,-0.6 -1.2,-0.6 -1.4,1.4 -3,3 -4.7,4.9 v 0.4 c 0.1,0.5 0.7,0.7 1.2,0.6 1,0 1.5,-1 2.3,-1.5 0.8,-0.6 3.6,-2.1 2.4,-3.8 z m -4.8,7.7 c -0.9,-1.2 -3.1,1.3 -2.5,2.2 0.4,0.7 1.3,0.1 1.7,-0.3 0.5,-0.5 1.4,-1.2 0.8,-1.9 z m -3.4,3.7 c -0.1,-1 -0.4,-2.5 -1.5,-2.8 -0.1,0 -0.1,0 -0.2,-0.1 -0.8,0.8 -1.5,1.7 -2.3,2.6 -1.6,1.8 -3.3,3.8 -5,5.9 0.2,0.6 0.6,1.1 1.3,1.2 1.2,0.2 2.3,-1.4 3.1,-2 0.4,-0.3 0.8,-0.7 1.3,-0.8 0.3,-0.1 0.7,0 1,-0.1 0.5,-0.1 1,-0.5 1.3,-0.9 0.8,-0.8 1.2,-1.9 1,-3 z m -2.7,5.5 c -0.6,-0.2 -1.3,0.3 -1.7,0.8 v 0.1 c -0.2,0.3 -0.3,0.6 -0.1,0.8 0.5,0.4 1.3,0 1.6,-0.4 0.3,-0.3 0.8,-1.2 0.2,-1.3 z m -8.6,3.1 c -1.3,1.8 -2.5,3.5 -3.4,5.3 0.5,0.1 1,-0.4 1.4,-0.7 0.6,-0.5 1.3,-0.9 1.8,-1.5 0.7,-1 0.6,-2.1 0.2,-3.1 z M 72.7,678 c 1.9,-0.4 3.8,1.1 4.4,2.8 0.4,1.1 0.4,2.2 0.5,3.4 l 0.3,3.3 c 0.2,2.1 0.4,4.2 0.7,6.3 0.1,0.9 0.3,1.9 0.4,2.8 1,5.4 2.7,11.8 2.7,11.8 l -1.5,2.2 c 0,0 -1.6,-0.1 -2.6,-1.5 -1.1,-1.4 -4.3,-8.2 -5.6,-13.4 -1.2,-5.1 -1.7,-10.9 -1.7,-13 0,-1.3 0.2,-2.8 1,-3.8 0.4,-0.6 0.9,-0.8 1.4,-0.9 z"
         id="path443"
         inkscape:connector-curvature="0"
         style="fill:#87943c" /><path
         class="st57"
         d="m 87.1,711.5 c -0.3,0.6 -1.6,-0.3 -2.4,-0.8 -0.8,-0.5 -1.3,-0.2 -1.2,0.6 0.1,1 1,1.5 1.6,2.2 0.2,0.3 0.5,0.9 0.2,1.3 -0.3,0.4 -0.9,0 -1.2,-0.2 -0.6,-0.4 -1,-1.3 -1.6,-1.9 -0.2,-0.2 -0.6,-0.6 -0.9,-0.6 -0.5,0 -0.7,0.7 -0.7,1.1 0,0.1 0,0.2 0.1,0.3 0.2,0.6 0.7,1 0.8,1.6 0.2,0.6 -0.5,1.3 -1.1,0.7 -0.5,-0.4 -0.7,-1.3 -1,-1.9 -0.3,-0.7 -0.7,-1.3 -1,-2 -0.1,-0.2 -0.2,-0.5 -0.3,-0.7 -0.6,-1.3 -1,-2.6 -1,-2.6 l 3.4,-1.3 c 0,0 1.5,0.8 2.9,1.5 0.8,0.4 1.6,0.8 2.1,1 1.3,0.7 1.6,1.1 1.3,1.7 z"
         id="path445"
         inkscape:connector-curvature="0"
         style="fill:#87943c" /><path
         class="st60"
         d="m 87.1,711.5 c -0.3,0.6 -1.6,-0.3 -2.4,-0.8 -0.8,-0.5 -1.3,-0.2 -1.2,0.6 0.1,1 1,1.5 1.6,2.2 0.2,0.3 0.5,0.9 0.2,1.3 -0.3,0.4 -0.9,0 -1.2,-0.2 -0.6,-0.4 -1,-1.3 -1.6,-1.9 -0.2,-0.2 -0.6,-0.6 -0.9,-0.6 -0.5,0 -0.7,0.7 -0.7,1.1 0,0.1 0,0.2 0.1,0.3 0.2,0.6 0.7,1 0.8,1.6 0.2,0.6 -0.5,1.3 -1.1,0.7 -0.5,-0.4 -0.7,-1.3 -1,-1.9 -0.3,-0.7 -0.7,-1.3 -1,-2 -0.1,-0.2 -0.2,-0.5 -0.3,-0.7 0.4,0.2 0.8,0.4 1.2,0.4 1.2,0.1 1.7,-1 1.9,-1.4 0.2,-0.3 0.3,-0.1 1.4,-0.7 0.4,-0.2 0.6,-0.5 0.7,-0.8 0.8,0.4 1.6,0.8 2.1,1 1.4,0.8 1.7,1.2 1.4,1.8 z m 10.6,-5.7 c -0.3,0.6 -1.9,-0.2 -2.7,-0.8 -0.8,-0.5 -1.6,0 -1.1,0.6 0.6,0.8 1.2,1.4 1.8,2.1 0.2,0.3 0.5,0.9 0.2,1.3 -0.2,0.3 -0.8,0.2 -1,0 -0.3,-0.3 -0.6,-0.7 -0.8,-1.1 -0.3,-0.4 -0.5,-0.8 -0.9,-1.1 -0.2,-0.2 -0.7,-0.5 -1,-0.5 -0.5,0 -0.7,0.7 -0.7,1.1 0,0.1 0,0.2 0.1,0.3 0.2,0.6 0.6,1 0.8,1.6 0.2,0.6 -0.5,1.3 -1.1,0.7 -0.5,-0.4 -1.6,-3.2 -2,-3.9 0,-0.1 -0.1,-0.2 -0.1,-0.3 0.2,0.1 0.5,0.2 0.7,0.2 1.2,0.1 1.7,-1 1.9,-1.4 0.2,-0.3 0.3,-0.1 1.4,-0.7 0.6,-0.3 0.7,-0.7 0.8,-1.1 0.9,0.5 1.8,0.9 2.3,1.2 1.4,0.8 1.7,1.2 1.4,1.8 z"
         id="path447"
         inkscape:connector-curvature="0"
         style="fill:#ccc568" /><path
         class="st13"
         d="m 78.6,660.1 c -0.3,1.1 -1.1,1.9 -2.1,2.1 -0.4,0.1 -0.8,0.1 -1.1,0 -0.1,0 -0.2,-0.1 -0.4,-0.1 -1.2,-0.5 -1.9,-1.9 -1.5,-3.3 0.4,-1.5 1.9,-2.4 3.3,-2.1 h 0.1 l 0.6,0.3 c 1,0.6 1.5,1.8 1.1,3.1 z"
         id="path449"
         inkscape:connector-curvature="0"
         style="fill:#ffffff" /><path
         class="st31"
         d="m 78.6,660.1 c -0.3,1.1 -1.1,1.9 -2.1,2.1 -0.8,-0.3 -1.1,-1.6 -0.8,-3 0.3,-1.2 1.1,-2.1 1.8,-2.2 1,0.6 1.5,1.8 1.1,3.1 z"
         id="path451"
         inkscape:connector-curvature="0"
         style="fill:#453d35" /><path
         class="st13"
         d="m 76.2,657.8 c 0,0 0.9,0.8 1,0.9 0.1,0.1 -1.7,0.2 -1.7,0.2 z"
         id="path453"
         inkscape:connector-curvature="0"
         style="fill:#ffffff" /><g
         id="g461"><path
           class="st13"
           d="m 92.9,659.8 c -0.2,1.1 -1,2 -2,2.3 -0.4,0.1 -0.7,0.1 -1.1,0.1 -0.1,0 -0.2,-0.1 -0.4,-0.1 -1.2,-0.4 -2,-1.7 -1.8,-3.1 0.3,-1.5 1.7,-2.6 3.1,-2.3 h 0.1 c 0.2,0.1 0.4,0.1 0.6,0.2 1.1,0.5 1.7,1.7 1.5,2.9 z"
           id="path455"
           inkscape:connector-curvature="0"
           style="fill:#ffffff" /><path
           class="st31"
           d="m 92.9,659.8 c -0.2,1.1 -1,2 -2,2.3 -0.8,-0.2 -1.3,-1.5 -1,-2.9 0.2,-1.2 0.9,-2.2 1.6,-2.3 1,0.5 1.6,1.7 1.4,2.9 z"
           id="path457"
           inkscape:connector-curvature="0"
           style="fill:#453d35" /><path
           class="st13"
           d="m 90.3,657.6 1,0.8 c 0.1,0.1 -1.6,0.3 -1.6,0.3 z"
           id="path459"
           inkscape:connector-curvature="0"
           style="fill:#ffffff" /></g><path
         class="st60"
         d="m 79.8,671.5 c -0.2,-1.3 -1.5,-2.1 -2.9,-1.9 -1.4,0.2 -2.3,1.5 -2.1,2.7 0.2,1.3 1.5,2.1 2.9,1.9 1.4,-0.2 2.4,-1.4 2.1,-2.7 z"
         id="path463"
         inkscape:connector-curvature="0"
         style="fill:#ccc568" /><path
         class="st55"
         d="m 85.9,666.1 c -0.1,-0.3 -0.5,-0.6 -0.8,-0.7 -0.5,0 0,0.7 0.1,0.8 0.1,0.1 0.2,0.1 0.3,0.1 0.4,0 0.5,-0.1 0.4,-0.2 z m 1.5,-0.4 c 0.1,-0.3 0.5,-0.6 0.8,-0.7 0.5,0 0,0.7 -0.1,0.8 -0.1,0.1 -0.2,0.1 -0.3,0.1 -0.4,0.1 -0.5,0 -0.4,-0.2 z"
         id="path465"
         inkscape:connector-curvature="0"
         style="fill:#587528" /></g></g></svg>