<?xml version="1.0" encoding="UTF-8" standalone="no"?>
<svg
   xmlns:dc="http://purl.org/dc/elements/1.1/"
   xmlns:cc="http://creativecommons.org/ns#"
   xmlns:rdf="http://www.w3.org/1999/02/22-rdf-syntax-ns#"
   xmlns:svg="http://www.w3.org/2000/svg"
   xmlns="http://www.w3.org/2000/svg"
   xmlns:sodipodi="http://sodipodi.sourceforge.net/DTD/sodipodi-0.dtd"
   xmlns:inkscape="http://www.inkscape.org/namespaces/inkscape"
   viewBox="0 0 299.99999 737.3"
   xml:space="preserve"
   version="1.1"
   id="svg488"
   sodipodi:docname="environmentTR.svg"
   width="300"
   height="737.29999"
   inkscape:version="0.92.4 (5da689c313, 2019-01-14)"><metadata
     id="metadata494"><rdf:RDF><cc:Work
         rdf:about=""><dc:format>image/svg+xml</dc:format><dc:type
           rdf:resource="http://purl.org/dc/dcmitype/StillImage" /><dc:title></dc:title></cc:Work></rdf:RDF></metadata><defs
     id="defs492" /><sodipodi:namedview
     pagecolor="#ffffff"
     bordercolor="#666666"
     borderopacity="1"
     objecttolerance="10"
     gridtolerance="10"
     guidetolerance="10"
     inkscape:pageopacity="0"
     inkscape:pageshadow="2"
     inkscape:window-width="1920"
     inkscape:window-height="1016"
     id="namedview490"
     showgrid="false"
     inkscape:zoom="1.3643937"
     inkscape:cx="181.27442"
     inkscape:cy="122.92283"
     inkscape:window-x="0"
     inkscape:window-y="36"
     inkscape:window-maximized="1"
     inkscape:current-layer="RH_Images" /><style
     id="style20">.st0{fill:#ededed;stroke:#25c7a1;stroke-miterlimit:10}.st1{fill:#2d75be}.st2{fill:#555d68}.st3{fill:#fff;stroke:#555d68;stroke-miterlimit:10}.st4{fill:#ededed}.st5{fill:#3ca891}.st7{fill:#212b53}.st8{fill:#00a1d9}.st10{fill:#053c5e}.st11{fill:#11637a}.st13{fill:#fff}.st17{fill:#a0c358}.st18{fill:#36240e}.st19{fill:#babac2}.st20{fill:#614830}.st22{fill:#0f8f7d}.st23{fill:#006837}.st24{fill:#22b573}.st25{fill:#136660}.st27{fill:#f0d6be}.st28{fill:#faecd4}.st29{fill:#c2716c}.st30{fill:#924f4a}.st31{fill:#453d35}.st32{fill:#577d22}.st33{fill:#ffddb3}.st34{fill:#e83e2e}.st38{fill:#deb187}.st40{fill:#9bbd60}.st41{fill:#ffbc5e}.st42{fill:#ad5823}.st43{fill:#874115}.st44{fill:#c29163}.st45{fill:#00666b}.st46{fill:#01888b}.st47{fill-rule:evenodd;clip-rule:evenodd;fill:#ee5151}.st50{fill:#5885a8}.st51{fill:#2d7345}.st52{fill:#9dcaed}.st53{fill:#3c5214}.st54{fill:#ad4123}.st55{fill:#587528}.st56{fill:#5e7a2e}.st57{fill:#87943c}.st59{fill:#a3ab55}.st60{fill:#ccc568}</style><g
     id="RH_Images"
     transform="translate(-1061.5047)"><path
       class="st7"
       d="m 1177.9,471.5 c 0,0 -4.2,3.9 -13.6,6.3 -2.1,0.5 -4.3,-0.2 -4.3,3.3 h 11.5 l 9.6,-1.7 v 1.7 h 5.2 c 0,0 1.4,-8.4 -1.6,-9.5 -2.9,-0.1 -6.8,-0.1 -6.8,-0.1 z"
       id="path66"
       inkscape:connector-curvature="0"
       style="fill:#212b53" /><path
       class="st8"
       d="m 1178.5,465.5 -0.6,6.1 c 1.9,1.3 4.4,1.4 6.3,0.2 l 0.4,-0.2 2.1,-6.1 z"
       id="path68"
       inkscape:connector-curvature="0"
       style="fill:#00a1d9" /><path
       class="st7"
       d="m 1206.7,471.5 c 0,0 -4.2,3.9 -13.6,6.3 -2.1,0.5 -4.3,-0.2 -4.3,3.3 h 11.5 l 9.6,-1.7 v 1.7 h 5.2 c 0,0 1.4,-8.4 -1.6,-9.5 -2.9,-0.1 -6.8,-0.1 -6.8,-0.1 z"
       id="path70"
       inkscape:connector-curvature="0"
       style="fill:#212b53" /><path
       class="st8"
       d="m 1207.3,465.5 -0.6,6.1 c 1.9,1.3 4.4,1.4 6.3,0.2 l 0.4,-0.2 2.1,-6.1 z m -10.4,-199.2 1.6,9.9 8.8,-4 -2.9,-11.8 z"
       id="path72"
       inkscape:connector-curvature="0"
       style="fill:#00a1d9" /><path
       class="st8"
       d="m 1193.7,267.2 c -1.2,0 -2.4,-0.2 -3,-0.7 -3.6,-5.2 0.5,-19.1 0.5,-19.1 l 5.7,-2.4 7.2,4.5 0.4,9.3 c 0.1,2.5 -1.1,4.9 -3.2,6.4 -2.3,1.3 -4.9,2.1 -7.6,2 z"
       id="path74"
       inkscape:connector-curvature="0"
       style="fill:#00a1d9" /><path
       class="st7"
       d="m 1202.1,252.2 c -0.4,-1.6 -1.9,-2.6 -3.5,-2.3 -1.2,0.2 -2.6,0.4 -3.9,0.4 -3.2,0 -7.2,-1.3 -7.2,-6.1 0,-4.9 6,-3.2 6,-3.2 0,0 12.3,1.9 17,5.4 2.3,1.7 -1.5,7.1 -2.9,9.8 -0.8,1.6 -1.9,3 -3.2,4.2 z"
       id="path76"
       inkscape:connector-curvature="0"
       style="fill:#212b53" /><path
       class="st8"
       d="m 1206.2,255.1 c -0.7,-0.6 -2,-0.5 -3,0.3 -0.9,0.8 -1.1,1.9 -0.4,2.5 0.7,0.6 2,0.5 3,-0.3 1,-0.7 1.1,-1.8 0.4,-2.5 z"
       id="path78"
       inkscape:connector-curvature="0"
       style="fill:#00a1d9" /><linearGradient
       id="SVGID_1_"
       gradientUnits="userSpaceOnUse"
       x1="1177.313"
       y1="315.59799"
       x2="1221.8831"
       y2="315.59799"><stop
         offset="0"
         style="stop-color:#dfefea"
         id="stop80" /><stop
         offset="1"
         style="stop-color:#bfe3ee"
         id="stop82" /></linearGradient><path
       d="m 1198.5,276.2 c 0,0 -13.3,21.8 -21.2,72.4 16,5 40.4,10.5 40.4,10.5 0,0 14.4,-54.8 -10.4,-86.7 -5.2,-0.2 -8.8,3.8 -8.8,3.8 z"
       style="fill:url(#SVGID_1_)"
       id="path85"
       inkscape:connector-curvature="0" /><path
       class="st7"
       d="m 1177.3,348.5 c 0,0 -11.1,37.3 -11.1,54.2 0,16.9 11.1,64.5 11.1,64.5 h 10.2 c 0,0 2.4,-33.3 -0.5,-52 -0.9,-5.5 -0.5,-11.1 1.1,-16.5 5.5,-18.8 11.3,-44.1 11.3,-44.1 z"
       id="path87"
       inkscape:connector-curvature="0"
       style="fill:#212b53" /><path
       class="st10"
       d="m 1184.9,351.5 c 0,0 -2.9,40.5 1.7,55.1 4.6,14.6 20,60.6 20,60.6 h 9 c 0,0 2.3,-25.1 -5,-51.6 -1.8,-6.4 -1.5,-13.3 0.7,-19.6 7,-20.7 6.4,-37 6.4,-37 z"
       id="path89"
       inkscape:connector-curvature="0"
       style="fill:#053c5e" /><path
       class="st11"
       d="m 1152.8,301 c -26.1,10 -23.4,16.9 -26,26 -2.6,9 -3.6,25.5 26,28.3 29.6,2.8 28,-14.6 34.7,-28.3 6.7,-13.7 -14.3,-26 -14.3,-26 0,0 -11.6,4.3 -20.4,0 z"
       id="path91"
       inkscape:connector-curvature="0"
       style="fill:#11637a" /><path
       class="st8"
       d="m 1162.4,354.2 c -0.4,0.3 -2.1,1.1 -5.7,0.9 -3.3,-0.1 -10,-2.5 -9.1,0.9 2.9,2.1 6,4.9 6,4.9 1.9,1.1 5.5,0.7 7.7,0 l 6.5,-2.9 c 0,0 1,-3.3 1,-3.5 l -1.3,-0.7 c -1.6,0.3 -3.3,0.5 -5.1,0.4 z"
       id="path93"
       inkscape:connector-curvature="0"
       style="fill:#00a1d9" /><path
       class="st8"
       d="m 1161.1,355.5 c 0,0 -0.1,0.1 -0.4,0.3 0.4,0.2 0.8,0.5 1.2,0.7 l 5.1,0.9 c 0,-1 0.1,-2.4 0.1,-2.5 l -10.7,-4.1 c 0,0 -1,1 0.8,2.6 1.8,1.5 3.9,2.1 3.9,2.1 z"
       id="path95"
       inkscape:connector-curvature="0"
       style="fill:#00a1d9" /><path
       class="st11"
       d="m 1152.8,301 c 1,-1.5 0.9,-3.5 -0.4,-4.9 l -3.3,-3.6 c 0,0 5.6,-7.8 14.1,-2.2 6.4,4.3 12.4,1.4 14.8,-0.2 0.3,-0.2 0.7,0.1 0.6,0.5 -1.1,2.3 -2.5,4.5 -4.2,6.5 -1,1.3 -1.8,2.6 -1.1,3.8 l -10.3,3.7 z"
       id="path97"
       inkscape:connector-curvature="0"
       style="fill:#11637a" /><path
       d="m 1151.7,301.4 c 0,0 3.7,4.5 12.1,4.5 8.4,0 11,-3.9 11,-3.9 l -1.8,-2.3 c 0,0 -2.1,3.1 -9.2,3.5 -5.7,0.3 -10.5,-3.5 -10.5,-3.5 z"
       style="fill:#f6a505"
       id="path99"
       inkscape:connector-curvature="0" /><path
       class="st13"
       d="m 1198,273 8.7,-4.7 0.6,3.9 -9.3,4.9 z"
       id="path101"
       inkscape:connector-curvature="0"
       style="fill:#ffffff" /><path
       d="m 1221.8,302.8 c 0,0 -6.3,-34.5 -24.9,-23.2 -7.4,4.5 -8.4,65 23.9,99.6"
       style="fill:none;stroke:#f6a505;stroke-width:0.98549998;stroke-miterlimit:10"
       id="path103"
       inkscape:connector-curvature="0" /><path
       class="st7"
       d="m 1222.8,271.3 2.3,1.7 c 0,0 5.9,-2.6 8.4,-3 2.5,-0.4 2,-1.6 2,-1.6 0,0 2.7,1.4 1,5.2 -1.8,3.8 -11.9,2.7 -11.9,2.7 0,0 9.2,6 8.8,7.7 0,0 -5.8,-5.4 -7.7,-5.6 l -0.4,10.8 c 0,0 -2.2,3 -3.7,0.8 l -0.1,-15.4 v -4.9 z"
       id="path105"
       inkscape:connector-curvature="0"
       style="fill:#212b53" /><path
       d="m 1223.6,288 v 91.7 l 2.1,10.2 c 0,0 -2.6,4 -4.4,1.1 -1.8,-2.9 -1,-11.8 -1,-11.8 l 1.2,-92.6 z"
       style="fill:#808080"
       id="path107"
       inkscape:connector-curvature="0" /><path
       class="st7"
       d="m 1217.2,370.9 2,1.4 c 0,0 7.6,-4.5 13.8,0.7 6.3,5.1 4.6,6.6 4.6,6.6 l 2.8,2 c 0,0 2.9,-4 -5.7,-11 -8.6,-7 -17.5,0.3 -17.5,0.3 z"
       id="path109"
       inkscape:connector-curvature="0"
       style="fill:#212b53" /><linearGradient
       id="SVGID_00000035521563574666263710000001087108795220202909_"
       gradientUnits="userSpaceOnUse"
       x1="1166.204"
       y1="326.293"
       x2="1216.4139"
       y2="326.293"><stop
         offset="0"
         style="stop-color:#dfefea"
         id="stop111" /><stop
         offset="1"
         style="stop-color:#bfe3ee"
         id="stop113" /></linearGradient><path
       style="fill:url(#SVGID_00000035521563574666263710000001087108795220202909_)"
       d="m 1196.9,293.6 -3,24.3 c -0.6,4.7 -2.6,9.1 -5.9,12.5 l -21.8,23.2 2.2,5.4 c 0,0 32.9,-15.5 39,-24.7 6.1,-9.2 9.1,-37.2 9.1,-37.2 z"
       id="path116"
       inkscape:connector-curvature="0" /><path
       class="st17"
       d="m 1156.2,336.8 -3.8,-7.2 1.7,-3 5.2,9.6 -2.2,3.6 h -5.4 l 0.1,1.7 -5.5,-3.1 5.5,-3.3 v 1.6 z m -13.6,-21.7 h 4.2 l 2.8,4.6 1.4,-1 0.2,6.3 -5.6,-3 1.4,-0.8 -2.3,-3.9 -4.1,7.1 -3.5,0.1 z m -8.8,25.4 -2.1,-3.6 2.5,-4.8 -1.5,-0.7 5.2,-3.4 0.4,6.4 -1.5,-0.7 -2.2,3.8 h 8.3 l 1.7,3 z"
       id="path118"
       inkscape:connector-curvature="0"
       style="fill:#a0c358" /><g
       id="g189"><path
         class="st25"
         d="m 1358.2,-100.4 c 0.1,-0.1 0.3,-0.3 0.5,-0.3 0.6,-0.3 1.3,0 1.5,0.6 0.1,0.3 8.4,27.1 14.8,66.9 6,36.8 11.6,92.6 4.3,149.5 -0.1,0.7 -0.7,1.2 -1.4,1.3 -0.7,0 -1.1,-0.5 -1,-1.2 7.2,-56.6 1.7,-112.2 -4.3,-148.8 -6.4,-39.7 -14.7,-66.4 -14.8,-66.6 -0.1,-0.6 0,-1.1 0.4,-1.4 z"
         id="path185"
         inkscape:connector-curvature="0"
         style="fill:#136660" /><path
         class="st25"
         d="m 1379.4,74.8 c -9,10.4 -23.5,24.9 -55,32.1 0,0 33.8,-26.7 54,-39.5 3.6,-2.2 5.6,2.1 1,7.4 z m 1.7,10.4 c -4.8,10.1 -13.2,24.8 -37.3,38.3 0,0 21.2,-28.8 34.7,-43.6 2.3,-2.6 5,0.1 2.6,5.3 z m -0.7,13.4 c -2.4,7.3 -6.9,18 -22.6,29.6 0,0 12.1,-21.5 20.2,-32.9 1.4,-2.1 3.6,-0.5 2.4,3.3 z m -3.6,-34.1 c -15.3,10.4 -39.1,24 -80.9,20.9 0,0 52.5,-22.3 82.7,-31.3 5.2,-1.5 6,5.2 -1.8,10.4 z m -1.9,-12.8 c -16.5,7.8 -41.7,17.4 -81.4,7 0,0 54.3,-13.4 84.8,-17.2 5.4,-0.7 4.9,6.2 -3.4,10.2 z m -2.8,-14.9 c -18.4,3.8 -45.8,6.6 -82.1,-20.4 0,0 57.1,2.9 88.3,9.1 5.4,1 3.1,9.4 -6.2,11.3 z m -3.6,-19.6 c -20.4,-1.5 -50.1,-6.4 -81.2,-43.9 0,0 59.5,19.1 90.7,34.2 5.5,2.7 0.8,10.5 -9.5,9.7 z"
         id="path187"
         inkscape:connector-curvature="0"
         style="fill:#136660" /></g><g
       id="g199"><path
         class="st23"
         d="m 1239.8,-18.7 c 0.4,-0.2 0.9,-0.2 1.3,0.2 23.5,20.6 22.9,73.1 21.6,94.8 -0.9,14.9 -2.8,29.7 -4.6,44 -6.2,49.1 -12,95.5 20,137.6 17.8,23.5 58.3,42.5 90.2,33.6 23.5,-6.6 46.6,-31.3 52.5,-56.2 5.5,-23.2 -1.8,-44.1 -20.7,-58.9 -11.6,-9.1 -38.7,-13.4 -50.9,-0.5 -0.4,0.5 -1.2,0.5 -1.6,0 -0.5,-0.4 -0.5,-1.2 0,-1.6 6.1,-6.4 16,-9.5 27.8,-8.6 9.9,0.7 20.2,4.2 26.2,8.9 19.7,15.4 27.3,37.2 21.6,61.3 -6.1,25.7 -29.9,51.1 -54.2,57.9 -32.8,9.2 -74.4,-10.3 -92.7,-34.4 -32.5,-42.8 -26.7,-89.7 -20.4,-139.3 1.8,-14.3 3.7,-29.1 4.6,-43.8 1.3,-21.3 1.9,-73 -20.8,-92.9 -0.5,-0.4 -0.5,-1.2 -0.1,-1.6 0,-0.3 0.1,-0.4 0.2,-0.5 z"
         id="path191"
         inkscape:connector-curvature="0"
         style="fill:#006837" /><path
         class="st23"
         d="m 1255.3,212.4 c 0.1,0 0.2,-0.1 0.3,-0.1 0.6,-0.2 1.3,0.2 1.4,0.8 4.7,18.8 11.7,35.6 22.8,54.6 3.6,6.2 7.3,12.4 11,18.4 7.1,11.9 14.4,24.1 21.2,36.3 6.1,11 15.9,36.6 9.3,55.1 -2.8,7.8 -8.2,13.2 -16,16.3 -0.6,0.2 -1.3,-0.1 -1.5,-0.7 -0.2,-0.6 0.1,-1.3 0.7,-1.5 7.2,-2.8 12.1,-7.8 14.7,-14.9 5.9,-16.4 -2.2,-40.8 -9.1,-53.2 -6.8,-12.2 -14.1,-24.4 -21.2,-36.3 -3.6,-6 -7.3,-12.3 -11,-18.5 -11.3,-19.2 -18.4,-36.2 -23.1,-55.2 -0.2,-0.3 0,-0.9 0.5,-1.1 z"
         id="path193"
         inkscape:connector-curvature="0"
         style="fill:#006837" /><path
         class="st23"
         d="m 1361.8,351.7 c 0,0 -21.7,-31.6 -44.3,-15.1 0,-0.1 7.2,30 44.3,15.1 z m -83.2,-2.1 c 0,0 36,-14.2 25,-40.2 0,0 -31.3,0.3 -25,40.2 z m 79.4,-21.9 c 0,0 -3.5,-40.3 -32.8,-37.1 0,0 -9.1,31.4 32.8,37.1 z m 54.4,-18 c 0,0 -17.9,-31.4 -40.4,-17.8 -0.1,0 4.3,28.8 40.4,17.8 z M 1342.3,260 c 0,0 -35.8,-5 -38.8,21.2 0,0 25.5,14.2 38.8,-21.2 z m -17.8,-69.3 c 0,0 22.6,2.7 24.9,-15.6 0,0 -15.9,-9.4 -24.9,15.6 z m 64.6,55.9 c 0,0 -15.7,22 0.6,33 0.1,0 18.3,-12 -0.6,-33 z m -35.2,-97.4 c 0,0 10.4,25 28.4,16.9 0,0 -0.6,-21.8 -28.4,-16.9 z m -112.8,164.1 c 0,0 47,-10.5 38.5,-44.6 0,0 -38.5,-5.7 -38.5,44.6 z m -53,-166.6 c 0,0 68.3,6.1 71.5,-43.7 0.1,0 -49.6,-24.5 -71.5,43.7 z m -28.7,-82 c 0,0 83.5,28 102.3,-33.4 0,-0.1 -54.8,-45.4 -102.3,33.4 z m 46.7,156.1 c 0,0 54.6,-12.2 44.7,-51.7 0,0 -44.6,-6.7 -44.7,51.7 z m 98,-97.3 c 0,0 -0.7,-55.9 -41.4,-54.3 0,0 -15.7,42.3 41.4,54.3 z m -5.5,112.2 c 0,0 -14.3,-40.1 -43.2,-29 0,0 -1,34.4 43.2,29 z m 48.5,152.7 c 0,0 -7.8,-23.3 -24.7,-17.2 0,0 -0.8,19.8 24.7,17.2 z m -34.6,24.3 c 0,0 10.7,-14.7 -0.3,-22.2 0,0 -12.3,8 0.3,22.2 z"
         id="path195"
         inkscape:connector-curvature="0"
         style="fill:#006837" /><path
         class="st23"
         d="m 1300,371 c 0,0 24.2,-4.4 20.5,-22 0,0.1 -19.5,-3.6 -20.5,22 z"
         id="path197"
         inkscape:connector-curvature="0"
         style="fill:#006837" /></g><g
       id="g219"><path
         class="st27"
         d="m 1127.1,173.9 c 0,0 25.3,-6.7 39.2,-5.3 13.9,1.4 13.4,12.7 -0.6,10.5 -14,-2.3 -37.9,-3.6 -37.9,-3.6 z"
         id="path201"
         inkscape:connector-curvature="0"
         style="fill:#f0d6be" /><path
         class="st28"
         d="m 1129.6,176 c 0,0 25.9,-3.8 39.5,-0.9 13.7,3 11.9,14.2 -1.8,10.3 -13.7,-3.8 -37.3,-7.9 -37.3,-7.9 z"
         id="path203"
         inkscape:connector-curvature="0"
         style="fill:#faecd4" /><path
         class="st27"
         d="m 1122.8,174.6 c 0,0 5.4,-17.7 18.5,-30.4 13.1,-12.7 24.2,-20 26.8,-18.9 2.5,1.1 -3.3,25.1 -7.1,28.6 -3.8,3.5 -22,10.6 -28.2,14.6 -6.2,4 -8.4,6.1 -8.4,6.1 z"
         id="path205"
         inkscape:connector-curvature="0"
         style="fill:#f0d6be" /><path
         class="st28"
         d="m 1124.5,174.2 c 0,0 11.6,-14.4 28.6,-21.1 17,-6.8 30,-9.3 31.9,-7.4 1.9,2 -12.5,22 -17.4,23.8 -4.9,1.8 -24.4,1.5 -31.7,2.8 -7.3,1.3 -10.1,2.5 -10.1,2.5 z"
         id="path207"
         inkscape:connector-curvature="0"
         style="fill:#faecd4" /><path
         class="st29"
         d="m 1120.9,171.6 c 0.2,-5.2 -0.9,-10.4 -2.7,-15.3 -1.7,-4.7 -5.1,-8.4 -8.5,-11.9 -0.5,-0.5 -1.3,0.3 -0.8,0.7 3.5,3.6 6.9,7.3 8.5,12.1 1.6,4.6 2.6,9.4 2.4,14.3 0,0.8 1.1,0.8 1.1,0.1 z m -1.8,0.2 c -1.9,-4.5 -4.9,-8.6 -8.7,-11.6 -3.7,-2.9 -8.5,-5.9 -13.3,-6.2 -0.7,0 -0.7,1 0,1.1 4.8,0.3 10,3.6 13.6,6.7 3.3,2.9 5.8,6.5 7.5,10.5 0.2,0.7 1.2,0.1 0.9,-0.5 z m 51,25.2 c -0.8,1.1 -3,0.4 -5.8,-1 -0.3,-0.2 -0.6,-0.3 -1,-0.5 -1.8,-1 -3.8,-2.2 -5.8,-3.5 -0.4,-0.2 -0.8,-0.5 -1.1,-0.7 -0.2,-0.1 -0.5,-0.3 -0.7,-0.5 l -4.5,-2.7 c -0.3,-0.2 -0.6,-0.4 -0.9,-0.5 -2.2,-1.2 -4.3,-2.3 -6.3,-3.3 -0.3,-0.2 -0.7,-0.3 -1,-0.5 -1.9,-0.9 -3.7,-1.7 -5.5,-2.4 -0.1,-0.1 -0.3,-0.1 -0.4,-0.2 -0.2,-0.1 -0.4,-0.2 -0.6,-0.2 -5.1,-2 -6.6,-2.5 -6.6,-2.5 l 0.6,-2.1 c 0,0 3,0.6 7.1,1.5 0.3,0.1 0.7,0.2 1,0.3 1.8,0.4 3.7,0.9 5.6,1.5 0.3,0.1 0.7,0.2 1,0.3 2.3,0.7 4.6,1.4 6.7,2.2 0.3,0.1 0.7,0.3 1,0.4 1,0.4 1.9,0.8 2.8,1.2 1.4,0.7 2.7,1.3 3.9,2 0.3,0.2 0.6,0.3 0.9,0.5 2.1,1.2 4,2.5 5.5,3.7 0.3,0.2 0.6,0.5 0.9,0.7 2.9,2.7 4.3,4.9 3.2,6.3 z"
         id="path209"
         inkscape:connector-curvature="0"
         style="fill:#c2716c" /><path
         class="st30"
         d="m 1128.9,174.6 c -1.3,-0.6 -2.6,-0.8 -4,-0.9 -0.7,-0.1 -1.3,-0.1 -2,0 -0.6,0.1 -0.9,0.4 -1.5,0.7 -1.2,0.7 -1.1,2.7 0.2,3.7 1.5,1.2 3.6,1.8 5.5,1.9 1.4,0.1 3.5,0 4.1,-1.5 0.6,-1.3 -0.5,-2.9 -1.6,-3.5 -0.2,-0.1 -0.4,-0.2 -0.7,-0.4 z"
         id="path211"
         inkscape:connector-curvature="0"
         style="fill:#924f4a" /><path
         class="st29"
         d="m 1123.8,171.9 c -0.1,-0.3 -0.4,-0.5 -0.6,-0.6 -0.5,-0.3 -1,-0.4 -1.5,-0.5 -1.1,-0.2 -2.3,-0.1 -3.3,0 -0.4,0 -0.8,0.1 -1.1,0.2 -0.4,0.1 -0.8,0.2 -1.1,0.4 -1.4,0.8 -1.3,2 -0.7,3.1 0.5,0.9 1.4,1.6 2.1,2 1.4,0.8 2.9,0.7 4.2,-0.4 0.5,-0.4 1.1,-1 1.6,-1.8 0.5,-0.8 0.8,-1.7 0.4,-2.4 z"
         id="path213"
         inkscape:connector-curvature="0"
         style="fill:#c2716c" /><path
         class="st31"
         d="m 1117.2,172.4 c -0.1,0.5 -0.4,1.1 -0.8,1.5 -0.3,0.3 -0.6,0.5 -0.9,0.6 -0.6,-1.1 -0.7,-2.3 0.7,-3.1 0.3,-0.2 0.7,-0.3 1.1,-0.4 0.1,0.5 0,1 -0.1,1.4 z m 6.2,2 h -0.3 c -1.4,-0.3 -1.7,-2.4 -1.4,-3.5 v -0.1 c 0.5,0.1 1.1,0.2 1.5,0.5 0.3,0.1 0.5,0.3 0.6,0.6 0.4,0.7 0.1,1.6 -0.4,2.5 z"
         id="path215"
         inkscape:connector-curvature="0"
         style="fill:#453d35" /><path
         class="st30"
         d="m 1137.4,181.6 c -0.1,-0.1 -0.3,-0.1 -0.4,-0.2 -0.2,-0.1 -0.4,-0.2 -0.6,-0.2 0.5,-1 0.9,-2 1.2,-3 0.3,0.1 0.7,0.2 1,0.3 -0.3,1 -0.7,2.1 -1.2,3.1 z m 6.4,2.8 c -0.3,-0.2 -0.7,-0.3 -1,-0.5 0.6,-1.3 1.1,-2.6 1.3,-4.1 0.3,0.1 0.7,0.2 1,0.3 -0.1,1.5 -0.6,3 -1.3,4.3 z m 7.3,3.8 c -0.3,-0.2 -0.6,-0.4 -0.9,-0.5 0.9,-1.6 1.5,-3.4 1.8,-5.2 0.3,0.1 0.7,0.3 1,0.4 -0.3,1.8 -1,3.6 -1.9,5.3 z m 9.5,-1.6 c -0.1,0.5 -0.3,1 -0.6,1.5 -0.6,1.4 -1.5,2.7 -2.6,3.8 -0.4,-0.2 -0.8,-0.5 -1.1,-0.7 1.5,-1.5 2.8,-3.3 3.4,-5.2 z m 6.4,4.4 c -0.6,1.8 -1.5,3.5 -2.7,5 -0.3,-0.2 -0.6,-0.3 -1,-0.5 1.2,-1.5 2.2,-3.3 2.8,-5.2 0.3,0.2 0.6,0.4 0.9,0.7 z"
         id="path217"
         inkscape:connector-curvature="0"
         style="fill:#924f4a" /></g><g
       id="g236"><g
         id="XMLID_00000075124304793161375100000001539423123385052815_"><path
           class="st17"
           d="m 1116.7,424.2 c 1,-2.9 4.2,-12.8 0.4,-16.5 -4.4,-4.4 -0.7,-12 -11.1,-11.9 -10.5,0.1 -0.4,14.3 -0.6,18.1 -0.2,3.8 5.9,13.1 11.1,11.2 -0.1,-0.1 0,-0.4 0.2,-0.9 z m -6,5.9 7.7,6.1 c -0.7,-2.4 -3.9,-11.4 -13.7,-11 0,0 2.2,13.7 13.9,11.6 -2.1,-1.3 -5.5,-3.6 -7.9,-6.7 z"
           id="path221"
           inkscape:connector-curvature="0"
           style="fill:#a0c358" /><path
           class="st17"
           d="m 1118.4,436.2 -7.7,-6.1 c 2.4,3.1 5.7,5.4 7.8,6.7 0,0 0,-0.2 -0.1,-0.6 z"
           id="path223"
           inkscape:connector-curvature="0"
           style="fill:#a0c358" /><path
           class="st17"
           d="m 1120.4,437.8 -2,-1.6 c 0.1,0.4 0.1,0.6 0.1,0.6 1.2,0.6 1.9,1 1.9,1 z m 2.8,-13.6 c 0,0 -6.8,3.8 -0.2,17.5 0,0 5.4,-10.6 0.2,-17.5 z"
           id="path225"
           inkscape:connector-curvature="0"
           style="fill:#a0c358" /><g
           id="g231"><path
             class="st22"
             d="m 1123.7,455.4 c 0.3,0 0.4,-0.2 0.4,-0.4 0,-0.2 -2.3,-17 -7,-30.9 -2.3,-6.7 -4.7,-11.8 -7.4,-15 -0.1,-0.2 -0.4,-0.2 -0.5,-0.1 -0.2,0.1 -0.2,0.4 -0.1,0.5 2.6,3.2 5,8.1 7.2,14.8 4.7,13.9 6.9,30.6 6.9,30.8 0.1,0.2 0.3,0.3 0.5,0.3 z"
             id="path227"
             inkscape:connector-curvature="0"
             style="fill:#0f8f7d" /><path
             class="st22"
             d="m 1120.4,438.2 c 0.1,0 0.2,0 0.3,-0.1 0.1,-0.2 0.1,-0.4 -0.1,-0.5 l -9.7,-7.7 c -0.2,-0.1 -0.4,-0.1 -0.5,0.1 -0.1,0.2 -0.1,0.4 0.1,0.5 l 9.7,7.7 z"
             id="path229"
             inkscape:connector-curvature="0"
             style="fill:#0f8f7d" /></g></g><path
         class="st22"
         d="m 1122.5,447.1 c 0.2,0 0.4,-0.2 0.4,-0.4 0,-0.5 1,-13 0,-16.5 -0.1,-0.2 -0.3,-0.3 -0.5,-0.3 -0.2,0.1 -0.3,0.3 -0.3,0.5 0.9,3.4 0,16.2 -0.1,16.3 0.1,0.2 0.3,0.3 0.5,0.4 z"
         id="path234"
         inkscape:connector-curvature="0"
         style="fill:#0f8f7d" /></g></g></svg>