<?xml version="1.0" encoding="UTF-8" standalone="no"?>
<svg
   xmlns:dc="http://purl.org/dc/elements/1.1/"
   xmlns:cc="http://creativecommons.org/ns#"
   xmlns:rdf="http://www.w3.org/1999/02/22-rdf-syntax-ns#"
   xmlns:svg="http://www.w3.org/2000/svg"
   xmlns="http://www.w3.org/2000/svg"
   xmlns:sodipodi="http://sodipodi.sourceforge.net/DTD/sodipodi-0.dtd"
   xmlns:inkscape="http://www.inkscape.org/namespaces/inkscape"
   viewBox="0 0 299.99999 737.3"
   xml:space="preserve"
   version="1.1"
   id="svg470"
   sodipodi:docname="environmentTL.svg"
   width="300"
   height="737.29999"
   inkscape:version="0.92.4 (5da689c313, 2019-01-14)"><metadata
     id="metadata476"><rdf:RDF><cc:Work
         rdf:about=""><dc:format>image/svg+xml</dc:format><dc:type
           rdf:resource="http://purl.org/dc/dcmitype/StillImage" /><dc:title></dc:title></cc:Work></rdf:RDF></metadata><defs
     id="defs474" /><sodipodi:namedview
     pagecolor="#ffffff"
     bordercolor="#666666"
     borderopacity="1"
     objecttolerance="10"
     gridtolerance="10"
     guidetolerance="10"
     inkscape:pageopacity="0"
     inkscape:pageshadow="2"
     inkscape:window-width="1920"
     inkscape:window-height="1016"
     id="namedview472"
     showgrid="false"
     inkscape:zoom="1.0062534"
     inkscape:cx="98.880074"
     inkscape:cy="359.7804"
     inkscape:window-x="0"
     inkscape:window-y="36"
     inkscape:window-maximized="1"
     inkscape:current-layer="LH_Images" /><style
     id="style2">.st0{fill:#ededed;stroke:#25c7a1;stroke-miterlimit:10}.st1{fill:#2d75be}.st2{fill:#555d68}.st3{fill:#fff;stroke:#555d68;stroke-miterlimit:10}.st4{fill:#ededed}.st5{fill:#3ca891}.st7{fill:#212b53}.st8{fill:#00a1d9}.st10{fill:#053c5e}.st11{fill:#11637a}.st13{fill:#fff}.st17{fill:#a0c358}.st18{fill:#36240e}.st19{fill:#babac2}.st20{fill:#614830}.st22{fill:#0f8f7d}.st23{fill:#006837}.st24{fill:#22b573}.st25{fill:#136660}.st27{fill:#f0d6be}.st28{fill:#faecd4}.st29{fill:#c2716c}.st30{fill:#924f4a}.st31{fill:#453d35}.st32{fill:#577d22}.st33{fill:#ffddb3}.st34{fill:#e83e2e}.st38{fill:#deb187}.st40{fill:#9bbd60}.st41{fill:#ffbc5e}.st42{fill:#ad5823}.st43{fill:#874115}.st44{fill:#c29163}.st45{fill:#00666b}.st46{fill:#01888b}.st47{fill-rule:evenodd;clip-rule:evenodd;fill:#ee5151}.st50{fill:#5885a8}.st51{fill:#2d7345}.st52{fill:#9dcaed}.st53{fill:#3c5214}.st54{fill:#ad4123}.st55{fill:#587528}.st56{fill:#5e7a2e}.st57{fill:#87943c}.st59{fill:#a3ab55}.st60{fill:#ccc568}</style><g
     id="LH_Images"><text
       transform="matrix(0.9998,0.02129,-0.02129,0.9998,167.38,250.486)"
       style="font-size:92.43430328px;font-family:FontAwesome5Pro-Solid;fill:#ff9e36"
       id="text237"></text>
<path
       class="st38"
       d="m 94.1,439.1 c 3.8,3.6 8.8,6.5 14.1,7 6.5,0.7 10.9,-3.9 14.1,-9 1.9,-3 3.4,-6.1 5.2,-9.1 2.1,-3.3 4.7,-6.1 7.1,-9.1 4.1,-4.9 7.6,-10.4 7.1,-17 -0.1,-1 -1.7,-1 -1.6,0 0.2,2.4 -0.2,4.7 -1,6.7 -1.1,-4.9 -7.8,-8.1 -11.7,-10.4 -7,-4.1 -14.4,-7.5 -22.2,-9.9 -5.4,-1.7 -12,-4.3 -17,-0.6 -4.4,3.3 -5.6,9 -5.8,14.3 -0.4,13.1 1.8,27.7 11.7,37.1 z"
       id="path239"
       inkscape:connector-curvature="0"
       style="fill:#deb187" /><path
       d="m -83,393.3 c -1,0.2 -1.1,1.5 -0.5,2 10.7,9.9 21,20.7 33,29 4.9,3.4 10.2,6.4 15.9,8.4 1.7,0.6 3.6,1.4 5.5,0.9 2.6,-0.7 3.6,-4.2 6.3,-4.5 0.4,-0.1 0.7,-0.3 0.9,-0.6 14.3,-0.5 28.5,2.6 42.7,0.6 16,-2.2 32,-6.3 47.8,-9.5 8.7,-1.8 17.3,-1.4 26.2,-2.1 8.2,-0.6 16.3,-1.4 24.3,-0.5 9.5,1 19.1,0.8 28.6,0 4.8,-0.4 9.5,-0.9 14.3,-1.4 4.3,-0.5 8.5,-0.4 12.7,-1.7 0.8,-0.3 2.9,-0.6 3.2,-1.6 0.3,-0.8 -0.1,-1.7 -1.1,-1.6 -41.1,1 -81.9,-3.3 -122.9,-4.3 2.1,-1.2 4.2,-2.6 6.4,-4.1 4.8,-3.2 10,-5.4 15.4,-7.5 1.6,-0.7 5.7,-1.4 6.1,-3.5 0.3,-1.7 0.2,-2.6 -1.2,-2.7 -2,-0.1 -5.6,2.1 -7.4,2.8 -3.8,1.6 -8.1,2.7 -11.7,4.6 -5.5,3 -10.8,6.4 -15.7,10.3 -3.5,0 -7,-0.1 -10.5,-0.1 -11.9,0 -23.9,1.1 -35.8,-0.2 -9.5,-1.1 -18.8,-3.5 -28,-6 -17.9,-4.8 -35.8,-9.9 -54.5,-6.7 z"
       style="fill:#603813"
       id="path241"
       inkscape:connector-curvature="0" /><path
       class="st40"
       d="m 113.9,418 c 3.1,3.2 2.7,9.4 3.5,13.5 0.8,4 1.7,8 3,11.9 1.9,5.6 4.9,9.3 10.2,12.7 6.1,3.9 12.5,7.5 18.8,11.3 3.4,2 13.3,3.5 13.6,2.4 0.3,-1.1 -4,-5.7 -5.1,-7 -2.2,-2.6 -4.2,-5.5 -6,-8.4 -3.6,-5.9 -6.4,-12.2 -9.4,-18.4 -2.9,-6 -7.8,-11 -13.9,-14.6 -3.2,-1.9 -6.6,-4 -10.5,-4.7 -0.4,-0.1 -1.8,-0.3 -2.9,-0.3 -1.3,0.1 -2.5,0.4 -1.3,1.6 z m 59.5,-6.4 c -1.2,0.4 -1.2,1.9 0,2.3 5.3,1.5 8.7,5 13.5,7.3 3.6,1.7 7.8,2.3 11.8,2.4 5.4,0.2 10.9,-0.5 16.2,-1.1 3.5,-0.4 8.5,0.1 11.5,-2 0.7,-0.5 0.9,-1.7 0,-2.1 -8.8,-3.7 -17.9,-7.5 -27.2,-10 -9.1,-2.3 -17.2,0 -25.8,3.2 z m -8.1,-34.3 c -4.5,4.6 -8,10 -10.7,15.8 -1.2,2.6 -2.3,5.2 -3.2,7.9 -1,2.8 -1.9,8.5 -4.4,10.5 -0.2,0.1 -0.3,0.3 -0.4,0.5 -0.1,0.1 -0.1,0.2 -0.1,0.3 v 0.5 c 0,0.1 0,0.1 0.1,0.2 0.1,0.4 0.4,0.7 0.8,0.8 0.2,0.1 0.4,0.1 0.6,0 6.7,-1.2 11.8,-5.5 17.9,-8.5 5.7,-2.8 11.9,-4.8 16.7,-9 3.9,-3.4 8.2,-8.8 9.6,-13.8 0.9,-3.1 0.9,-6.3 1.7,-9.4 1,-3.7 2.7,-7.1 4.4,-10.5 0.5,-1 -0.4,-1.9 -1.4,-1.7 -11.9,2.1 -23.1,7.7 -31.6,16.4 z"
       id="path243"
       inkscape:connector-curvature="0"
       style="fill:#9bbd60" /><path
       class="st41"
       d="m 117.4,419.6 c -0.1,0.5 0.3,1.2 1,1 1.3,-0.5 2.3,-1.3 2.9,-2.3 0.2,1.2 0.3,2.5 0.4,3.7 0,0.5 0.5,0.9 1,0.8 5.5,-1.8 6.8,-8.8 6.2,-13.8 -0.1,-0.8 -1.1,-0.9 -1.4,-0.5 -2.1,-2.3 -5.3,-3.1 -8.2,-1.5 -1.8,1 -1.7,1.7 -1.4,3.4 0.5,3.1 0,6.2 -0.5,9.2 z m -15.5,-12.4 c 0.7,3.2 0.3,6.5 1.3,9.6 0.1,0.4 0.6,0.7 1,0.6 1.8,-0.7 3.1,-1.8 3.8,-3.3 0.2,1.3 0.5,2.6 1.5,3.4 0.3,0.3 0.6,0.3 1,0.1 1.8,-0.8 1.8,-4.6 1.9,-6.3 0,-3.1 -0.8,-6 -2.2,-8.7 -0.2,-0.4 -0.5,-0.4 -0.8,-0.4 -2,-2.3 -5.8,-4.3 -7.8,-1.5 -1.2,1.8 -0.1,4.7 0.3,6.5 z"
       id="path245"
       inkscape:connector-curvature="0"
       style="fill:#ffbc5e" /><path
       class="st38"
       d="m 78.1,365.2 c -0.2,0.1 1.8,20.3 4.6,29.8 0.1,0.4 5.4,2.9 9.9,4.9 2.9,1.2 5.4,2.2 6,2.3 1.3,0.1 2.1,1 3.2,1.7 3.1,1.8 6.8,2.4 10,4.2 3,1.7 5.8,4.2 9.5,4 2.8,-0.2 4.7,0.1 6.7,1.3 0.7,0.8 1.5,1.5 2.6,1.9 h 0.1 c 0.6,0.4 1.2,0.8 1.9,1.1 1.6,0.7 3.3,0.8 4.8,0.2 0.7,-0.3 1.4,-0.8 1.9,-1.5 0.6,-0.8 0.9,-1.6 1.1,-2.5 4.1,-2.5 7,-6.9 9,-11.5 7.8,-10.7 11.9,-23.6 13.5,-36.8 1.3,-10.5 2.8,-31.7 -10.9,-34.3 1.1,-3.6 1.2,-7.7 0.5,-11.2 0.4,-2.1 0.8,-4.2 0.7,-6.3 -0.3,-5.1 -3.5,-11.3 -5.3,-16.1 -1.7,-4.6 -4.2,-9.8 -8.6,-12.4 -4.3,-2.6 -10,-3.2 -14.9,-3.8 -8.9,-1.1 -18.6,0.3 -23.8,8.4 0,0.1 -0.1,0.2 -0.1,0.3 -0.6,0.8 -1.1,1.7 -1.6,2.7 -2,3.5 -3.8,7.1 -4.9,10.9 -1.2,4.1 -1.6,8.3 -1.7,12.5 -0.3,1.6 -0.5,3.2 -0.6,4.9 -4.9,0.1 -9.6,3.7 -11.4,9.1 -1.8,5.3 -1.8,11.3 -2,16.8 -0.4,6.3 -0.4,12.9 -0.2,19.4 z"
       id="path247"
       inkscape:connector-curvature="0"
       style="fill:#deb187" /><path
       class="st42"
       d="m 137.4,416.4 c 0.7,-0.3 1.4,-0.8 1.9,-1.5 0.6,-0.8 0.9,-1.6 1.1,-2.5 4.1,-2.5 7,-6.9 9,-11.5 2.8,-3.8 5.1,-8 7,-12.3 l 0.6,-1.5 c 3,-7.3 4.8,-15.1 5.8,-23 1.3,-10.5 2.8,-31.7 -10.9,-34.3 0,0 3.5,28.9 -0.2,48.2 -0.5,2.5 -1.1,5.1 -1.8,7.8 -0.1,0.5 -0.3,1 -0.4,1.5 -3.3,11.1 -8.3,23.1 -12.1,29.1 z M 78.1,365.2 c -0.1,0 0,1.8 0.3,4.5 0,0.6 0.1,1.1 0.2,1.8 0.7,6.7 2.2,17.3 4,23.5 0.1,0.2 1.9,1.5 4.4,2.9 0.5,0.3 1.1,0.6 1.6,0.9 1.3,0.7 2.7,1.4 4,2 0.8,-5.8 1.9,-14.5 2.9,-23.8 0,-0.5 0.1,-1 0.2,-1.6 1,-9.5 1.9,-19.4 2.4,-27.2 1.2,-21.7 -6.5,-28.6 -6.5,-28.6 -4.9,0.1 -9.6,3.7 -11.4,9.1 -1.8,5.3 -1.8,11.3 -2,16.8 -0.3,6.6 -0.3,13.2 -0.1,19.7 z"
       id="path249"
       inkscape:connector-curvature="0"
       style="fill:#ad5823" /><path
       class="st13"
       d="m 130.6,303.3 v 0.7 c 0.3,3.2 2.8,5.6 6,5.6 3.5,0 6.2,-2.8 6.2,-6.2 0,-3.5 -2.8,-6.2 -6.2,-6.2 -3.5,-0.1 -6,2.7 -6,6.1 z m -27.3,0 v 0.7 c 0.3,3.2 2.8,5.6 6,5.6 3.5,0 6.2,-2.8 6.2,-6.2 0,-3.5 -2.8,-6.2 -6.2,-6.2 -3.4,-0.1 -6,2.7 -6,6.1 z"
       id="path251"
       inkscape:connector-curvature="0"
       style="fill:#ffffff" /><path
       class="st18"
       d="m 133.4,301.3 c -0.8,1.4 -0.6,3.2 1.6,4.9 5.2,2 6.9,-5.9 2.2,-6.8 -1.5,-0.2 -3.1,0.6 -3.8,1.9 z m -27,0 c -0.8,1.4 -0.6,3.2 1.6,4.9 5.2,2 6.9,-5.9 2.2,-6.8 -1.5,-0.2 -3.1,0.6 -3.8,1.9 z"
       id="path253"
       inkscape:connector-curvature="0"
       style="fill:#36240e" /><path
       class="st42"
       d="m 124.6,306.7 c -0.1,0.9 1,1.3 1.4,0.8 -0.1,0.3 -0.2,0.6 -0.3,1 -0.2,1 1.3,1.4 1.5,0.4 1.3,-6 7.5,-7.3 12.7,-8.2 4,-0.6 8,-1.3 12,-2.4 3.5,-0.9 7.3,-2.9 8.7,-6 1.3,-1.1 2.5,-2.4 3.6,-3.6 0.2,-0.3 0.5,-0.6 0.7,-0.8 0.4,-0.5 0.9,-1 1.3,-1.5 1.5,-1.8 2.6,-3.7 1.9,-6.2 -0.1,-0.4 -0.6,-0.7 -1,-0.6 -4.8,1.2 -9.3,3.6 -13.8,5.6 -4.5,2 -9,3.9 -13.4,5.9 -6.9,3.2 -14.1,7.5 -15.3,15.6 z M 81.9,286.5 c 0.4,0.5 0.8,1 1.3,1.5 0.5,0.6 1,1.1 1.5,1.7 0.9,1 1.8,1.9 2.8,2.8 1.4,3.1 5.2,5.1 8.7,6 3.9,1 7.9,1.7 11.9,2.4 5.2,0.8 11.3,2.2 12.7,8.2 0.2,1 1.8,0.6 1.5,-0.4 -0.1,-0.4 -0.2,-0.7 -0.3,-1 0.4,0.5 1.5,0.1 1.4,-0.7 -1.1,-8.2 -8.4,-12.4 -15.2,-15.5 -4.5,-2 -9,-3.9 -13.4,-5.9 -4.5,-2 -9,-4.4 -13.8,-5.7 -0.4,-0.1 -0.9,0.1 -1,0.6 -0.7,2.3 0.4,4.2 1.9,6 z"
       id="path255"
       inkscape:connector-curvature="0"
       style="fill:#ad5823" /><path
       class="st43"
       d="m 81.9,286.5 c 0.4,0.5 0.8,1 1.3,1.5 0.5,0.6 1,1.1 1.5,1.7 3.3,1.5 6.8,2.7 10.5,3.7 9.6,2.6 20.1,4.9 26.3,13.4 0.6,0.8 2,0 1.4,-0.8 -5.3,-7.2 -13.4,-10.3 -21.7,-12.6 -6.9,-2 -13.3,-3.9 -19.3,-6.9 z m 42.7,20.2 c -0.1,0.9 1,1.3 1.4,0.8 5.7,-7.9 17,-11.5 25.7,-14.6 4.1,-1.5 8.4,-2.6 12.5,-4.1 0.2,-0.3 0.5,-0.6 0.7,-0.8 0.4,-0.5 0.9,-1 1.3,-1.5 -6.8,3.1 -14.7,4.7 -21.4,7.5 -7.3,2.9 -15.5,6.1 -20.2,12.7 z"
       id="path257"
       inkscape:connector-curvature="0"
       style="fill:#874115" /><path
       class="st18"
       d="m 120,307.2 c 0,2.8 0.7,5.7 1.7,8.3 0.4,1 0.8,2.9 2.1,2.9 1.5,0 2.4,-2.4 2.8,-3.5 1,-2.1 1.5,-4.3 1.5,-6.6 0,-2.1 -0.8,-4.7 -2.9,-5.7 0,0 -0.1,0 -0.1,-0.1 -3.3,-1.4 -5.1,1.7 -5.1,4.7 z"
       id="path259"
       inkscape:connector-curvature="0"
       style="fill:#36240e" /><path
       class="st44"
       d="m 137.5,338 c 0.2,-0.4 0.4,-0.8 0.8,-1 3.7,-1.9 3.6,4.9 3.4,6.9 -0.1,1.1 -0.3,2.4 -1,3.3 -0.7,0.9 -2.2,1.3 -3.1,0.6 -0.6,-0.5 -0.7,-1.2 -0.8,-2 -0.3,-2.3 -0.2,-4.6 0.4,-6.9 0.1,-0.4 0.2,-0.7 0.3,-0.9 z m -10.1,10.2 c 0.6,-0.4 1.4,-0.5 2,0.4 0.4,0.6 0.5,1.3 0.5,2 0.1,1.9 -0.1,3.9 -0.7,5.8 -0.2,0.8 -0.6,1.7 -1.4,1.8 -0.6,0.1 -1.2,-0.3 -1.6,-0.8 -0.4,-0.5 -0.5,-1.1 -0.6,-1.8 -0.2,-1.3 -0.4,-2.7 -0.2,-4.1 0.1,-0.9 1,-2.6 2,-3.3 z m -17.9,-11 c 0.3,-2.2 2.5,-5.3 4.7,-2.9 0.5,0.6 0.8,1.4 1,2.1 0.3,1.7 0.1,3.5 -0.6,5.1 -0.3,0.8 -0.8,1.5 -1.5,1.9 -0.7,0.4 -1.7,0.5 -2.3,0 -0.5,-0.4 -0.8,-1.1 -0.9,-1.7 -0.3,-1.4 -0.4,-2.9 -0.3,-4.3 -0.2,-0.1 -0.2,-0.1 -0.1,-0.2 z m 4.6,24.3 c 1.2,-1.4 3.3,-0.7 3.8,1.8 0.3,1.5 0.2,3 -0.3,4.5 -0.2,0.7 -0.6,1.4 -1.2,1.7 -1.1,0.4 -2.1,-0.8 -2.5,-1.9 -0.5,-1.4 -0.7,-2.8 -0.5,-4.3 0.1,-0.8 0.3,-1.4 0.7,-1.8 z m 25.1,3.5 0.1,-0.1 c 3,-2 3.9,3.3 3.7,5.2 -0.1,0.8 -0.2,1.6 -0.7,2.3 -0.4,0.7 -1.2,1.2 -2,1.1 -1.3,-0.1 -2.1,-1.5 -2.3,-2.7 -0.2,-1.1 -0.2,-2.3 0,-3.4 0.2,-0.9 0.5,-1.8 1.2,-2.4 z m -15.9,14.1 0.1,-0.1 c 3.2,-2.9 3.8,5.7 3.4,7.2 -0.2,0.8 -0.5,1.5 -1.1,2 -0.6,0.5 -1.6,0.6 -2.1,0.1 -0.4,-0.3 -0.5,-0.8 -0.6,-1.3 -0.4,-1.8 -0.6,-3.7 -0.5,-5.5 0,-0.9 0.2,-1.8 0.8,-2.4 z m -16.9,4.3 c 0.1,-0.1 0.2,-0.3 0.3,-0.4 1.6,-1.4 3.1,1 3.4,2.3 0.4,1.8 -0.4,3.9 -1.1,5.5 -0.3,0.6 -0.6,1.2 -1.3,1.4 -0.6,0.2 -1.2,-0.1 -1.6,-0.6 -0.4,-0.5 -0.5,-1.1 -0.6,-1.7 -0.3,-2 -0.1,-4.2 0.7,-6 0,-0.1 0.1,-0.3 0.2,-0.5 z m 28.9,8.9 c 0.1,-0.2 0.3,-0.4 0.5,-0.6 1.4,-1.4 3.5,-0.7 4,1.2 0.5,2.1 0.1,4.8 -1.3,6.5 -0.5,0.6 -1.3,1.2 -2.1,1 -0.7,-0.2 -1.2,-0.9 -1.4,-1.6 -0.6,-1.5 -0.7,-3.1 -0.4,-4.7 0.1,-0.7 0.3,-1.3 0.7,-1.8 z"
       id="path261"
       inkscape:connector-curvature="0"
       style="fill:#c29163" /><g
       id="g277"><path
         class="st45"
         d="m -21.5,343.7 c 0,0 -23.2,-51.9 5.7,-81.9 66.1,27.8 38.5,92.7 38.5,92.7 z"
         id="path263"
         inkscape:connector-curvature="0"
         style="fill:#00666b" /><path
         class="st46"
         d="m -15.7,261.8 c 0.2,0.1 0.5,0.2 0.7,0.3 l 11.1,66.1 26.5,-32.3 c 0.2,0.4 0.4,0.8 0.6,1.3 l -26.8,32.7 3.2,19.1 -1.3,-0.3 -6.4,-38 -22.1,-9.9 v -1.4 l 21.8,9.8 -7.9,-46.7 c 0.2,-0.4 0.4,-0.6 0.6,-0.7 z"
         id="path265"
         inkscape:connector-curvature="0"
         style="fill:#01888b" /><path
         class="st10"
         d="m -17.3,339 c 0,0 24.2,-49.7 69.3,-53 23.1,42 -19.9,75 -19.9,75 l -47.9,12.7 z"
         id="path267"
         inkscape:connector-curvature="0"
         style="fill:#053c5e" /><path
         class="st45"
         d="M 11.2,303.2 19.4,327 51,286.1 h 0.9 c 0.1,0.2 0.2,0.3 0.3,0.5 L 35.3,308.5 58.6,307 c 0,0.2 0,0.4 0.1,0.7 v 0.6 L 34.3,309.9 6,346.3 47,345 c -0.3,0.4 -0.6,0.9 -0.9,1.3 l -41.1,1.3 -20,25.9 -0.8,0.2 v -1.2 l 34.3,-44.3 -8.3,-24.1 c 0.3,-0.3 0.6,-0.6 1,-0.9 z"
         id="path269"
         inkscape:connector-curvature="0"
         style="fill:#00666b" /><g
         id="g275"><path
           class="st24"
           d="m 3.4,353.5 c 0,0 40.7,-22.7 65.9,1.1 -12.6,63.7 -94.5,52.1 -94.5,52.1 z"
           id="path271"
           inkscape:connector-curvature="0"
           style="fill:#22b573" /><path
           class="st13"
           d="m 69.2,354.6 c 0,0.2 -0.1,0.5 -0.2,0.7 l -59.6,23.4 30.2,17.4 c -0.4,0.2 -0.9,0.5 -1.3,0.7 l -30.4,-17.5 -23.3,9.1 0.9,-1.7 45.4,-17.7 10.8,-24.2 h 1.4 l -10.5,23.6 36.2,-14.2 z"
           id="path273"
           inkscape:connector-curvature="0"
           style="fill:#ffffff" /></g></g><g
       id="g285"><path
         class="st23"
         d="m 89.6,-61 c 0.2,0 0.4,0.2 0.5,0.4 4.4,14.3 -9,35.5 -15,44 C 71,-10.8 66.5,-5.2 62.2,0.1 47.4,18.5 33.3,35.9 35.8,61.1 37,75.1 48.7,93 64,97.4 c 11.2,3.2 26.8,-1 35.5,-9.7 8.1,-8 10.3,-18.4 6.4,-29.2 -2.4,-6.6 -12.4,-15.2 -20.6,-13 -0.3,0.1 -0.6,-0.1 -0.7,-0.4 -0.1,-0.3 0.1,-0.6 0.4,-0.7 4.1,-1.1 8.9,0.2 13.5,3.5 3.8,2.8 7.1,6.8 8.4,10.2 4.1,11.2 1.8,22 -6.6,30.3 -8.9,8.9 -25,13.3 -36.6,10 C 48,94 36,75.6 34.6,61.2 32.1,35.6 46.3,18 61.2,-0.6 65.5,-6 70,-11.5 74.1,-17.3 c 5.9,-8.3 19.1,-29.2 14.9,-43 -0.1,-0.3 0.1,-0.6 0.4,-0.7 z"
         id="path279"
         inkscape:connector-curvature="0"
         style="fill:#006837" /><path
         class="st23"
         d="m 37.8,36.9 h 0.1 c 0.3,0.1 0.5,0.4 0.4,0.7 -2.8,8.8 -4.2,17.4 -4.4,27.9 -0.1,3.4 -0.1,6.9 -0.2,10.3 -0.1,6.6 -0.2,13.4 -0.5,20.1 -0.3,6 -2.7,18.9 -10.1,24.7 -3.1,2.5 -6.6,3.3 -10.6,2.6 -0.3,-0.1 -0.5,-0.3 -0.4,-0.6 0.1,-0.3 0.3,-0.5 0.6,-0.4 3.6,0.7 6.9,-0.1 9.7,-2.4 6.5,-5.2 9.3,-17.1 9.6,-23.9 0.3,-6.7 0.4,-13.5 0.5,-20.1 0,-3.4 0.1,-6.8 0.2,-10.3 0.2,-10.6 1.6,-19.3 4.5,-28.2 0.1,-0.3 0.4,-0.4 0.6,-0.4 z"
         id="path281"
         inkscape:connector-curvature="0"
         style="fill:#006837" /><path
         class="st23"
         d="m 46.2,120.3 c 0,0 -0.9,-18.3 -14.2,-17.3 0,0 -4.7,14 14.2,17.3 z M 12.8,98.6 c 0,0 18.2,3.3 20.3,-10.1 0,0 -12.8,-7.8 -20.3,10.1 z m 37.8,11 c 0,0 8.7,-17.3 -4,-23.3 0,0 -11.6,10.4 4,23.3 z m 26.7,6.3 c 0,0 0.6,-17.3 -12,-17.4 0,0 -5.5,12.8 12,17.4 z M 61.2,78.1 c 0,0 -13.3,-11 -21.1,-1.1 0,0 6.9,12.2 21.1,1.1 z m 43.9,25.2 c 0,0 -7.6,-13.8 -17.5,-8 0,0 1.7,12.6 17.5,8 z m 17.3,-23.8 c 0,0 -14.2,-6.9 -18.9,3.6 0,0 8.6,9.3 18.9,-3.6 z m -5.3,-24.7 c 0,0 -12.2,4.2 -9,13 0.1,0 10.5,0.4 9,-13 z M 71.4,45.5 c 0,0 8.5,6.8 14.1,-0.1 0,0 -4.2,-7.8 -14.1,0.1 z m 12.3,38.9 c 0,0 -11.9,5 -8,13.6 -0.1,0 10.3,-0.3 8,-13.6 z M 93.8,36 c 0,0 -2,12.8 7.3,14 0,0 5.2,-9 -7.3,-14 z M 6.7,74.4 c 0,0 21.8,7.5 26.8,-8.5 0,0 -14.1,-12 -26.8,8.5 z M 27,-6.7 c 0,0 26.3,19.7 40.1,0.2 0,0 -14.1,-22.4 -40.1,-0.2 z M 15.7,28 c 0,0 25.3,8.7 31.1,-9.8 C 46.9,18.1 30.4,4.2 15.7,28 Z M 80,13 c 0,0 13.7,-22.9 -3.2,-32.5 0,0 -17,13.3 3.2,32.5 z M 49.6,57.2 c 0,0 4.3,-19.9 -10.3,-22.6 0,0 -9,13.7 10.3,22.6 z M 31,131.5 c 0,0 2.7,-11.5 -5.7,-13.2 0,0 -5.4,7.9 5.7,13.2 z m -20.2,1.2 c 0,0 8,-3.3 5.5,-9.1 -0.1,0 -7.1,0.2 -5.5,9.1 z m 5.3,-20.1 c 0,0 11,4.3 13.9,-3.8 0,0.1 -7,-6.4 -13.9,3.8 z"
         id="path283"
         inkscape:connector-curvature="0"
         style="fill:#006837" /></g><g
       id="g293"><path
         class="st23"
         d="m 221.9,-73.2 c -0.3,-0.3 -0.8,-0.4 -1.3,-0.2 -28.6,12.5 -44,62.8 -49.3,83.8 -3.6,14.5 -6.3,29.1 -9,43.3 -9,48.7 -17.5,94.6 -60.7,125.1 -24.1,17 -68.5,22.9 -96.2,4.7 C -15,170.1 -29.5,139.5 -27.6,114 -25.9,90.2 -12.5,72.5 10,64.1 23.8,59 50.9,63 58.7,79 c 0.3,0.6 1,0.8 1.6,0.5 0.6,-0.3 0.8,-1 0.5,-1.6 C 57,69.9 48.5,64 37,61.2 27.4,58.9 16.5,59.1 9.3,61.8 c -23.4,8.7 -37.3,27.1 -39.1,51.9 -1.9,26.3 13,57.8 34.1,71.6 28.4,18.7 74,12.7 98.7,-4.7 44,-31 52.6,-77.4 61.6,-126.5 2.6,-14.2 5.3,-28.8 8.9,-43.2 5.2,-20.7 20.3,-70.1 47.9,-82.2 0.6,-0.3 0.9,-0.9 0.6,-1.5 0.1,-0.2 0,-0.3 -0.1,-0.4 z"
         id="path287"
         inkscape:connector-curvature="0"
         style="fill:#006837" /><path
         class="st23"
         d="m 137.2,142.3 -0.2,-0.2 c -0.5,-0.3 -1.3,-0.2 -1.6,0.4 -10.1,16.5 -21.9,30.4 -38.3,45.1 -5.3,4.8 -10.8,9.6 -16,14.3 -10.3,9.2 -21,18.6 -31.2,28.2 -9.1,8.6 -26.3,30 -25.5,49.7 0.3,8.2 3.8,15.1 10.3,20.4 0.5,0.4 1.2,0.3 1.6,-0.2 0.4,-0.5 0.3,-1.2 -0.2,-1.6 -6,-4.8 -9.2,-11.1 -9.5,-18.6 -0.6,-17.5 14.5,-38.2 24.8,-47.9 10.2,-9.6 20.9,-19 31.2,-28.2 5.3,-4.7 10.7,-9.5 16,-14.3 16.5,-14.9 28.5,-28.9 38.7,-45.6 0.3,-0.5 0.3,-1.1 -0.1,-1.5 z"
         id="path289"
         inkscape:connector-curvature="0"
         style="fill:#006837" /><path
         class="st23"
         d="m -6.5,242.8 c 0,0 30.2,-23.5 46.8,-1 0,0 -15.9,26.5 -46.8,1 z m 80,23.3 c 0,0 -30,-24.5 -11.6,-45.9 -0.1,0 29.6,9.7 11.6,45.9 z m -69.1,-45 c 0,0 15.5,-37.4 42.5,-25.4 0,0 -0.8,32.7 -42.5,25.4 z M -42,187.5 c 0,0 26.6,-24.5 43.9,-4.7 0.1,-0.1 -12.8,26.1 -43.9,4.7 z m 81.9,-26.1 c 0,0 35.7,6.1 30.5,32 0,-0.1 -28.6,5.7 -30.5,-32 z M 0.6,40.9 c 0,0 10,25.1 -8.4,31.9 0,0 -14.9,-16 8.4,-31.9 z m 77.2,59.8 c 0,0 -22.4,-4.3 -19,-22.5 0,0.1 18,-4 19,22.5 z m -78.5,33.7 c 0,0 8.3,25.7 -10.6,31.3 0,0 -13.7,-17 10.6,-31.3 z m 63,-82.2 c 0,0 -17.5,20.7 -32.2,7.6 0.1,0 7.2,-20.6 32.2,-7.6 z m 57.9,190.6 c 0,0 -41.7,-24.3 -23.2,-54.1 0,0 38.4,6.1 23.2,54.1 z M 221.1,100.1 c 0,0 -67,-14.8 -54.9,-63.3 0,-0.1 54.7,-8.4 54.9,63.3 z m 52.3,-69.5 c 0,0 -88.1,1.3 -87.4,-62.8 0,0 65.9,-26.7 87.4,62.8 z m -91.9,134.6 c 0,0 -48.3,-28.1 -26.9,-62.8 0,0 44.6,7.1 26.9,62.8 z M 117.6,42.8 c 0,0 17.6,-53.1 55.9,-39.2 0,0 2.2,45.1 -55.9,39.2 z M 88.9,151.4 c 0,0 25.7,-33.9 50,-14.5 -0.1,0 -9.6,33 -50,14.5 z M -3.6,282.2 c 0,0 14.5,-19.9 28.7,-8.9 0,0 -5.1,19.2 -28.7,8.9 z m 25.7,33.7 c 0,0 -5.7,-17.3 7,-21.1 -0.1,0 9.2,11.4 -7,21.1 z M 46.6,280 c 0,0 -21.7,-11.5 -12.9,-27.1 0,0 19.7,2.3 12.9,27.1 z"
         id="path291"
         inkscape:connector-curvature="0"
         style="fill:#006837" /></g><g
       id="g297"><path
         class="st47"
         d="m 237.7,347.1 c 0.2,-0.2 0.4,-0.3 0.6,-0.5 0.7,-0.7 1.2,-1.8 1.7,-2.6 0.6,-0.9 1.4,-1.7 2.1,-2.6 0.8,-1 1.3,-2 1.9,-3 0.6,-1 1.2,-2.2 1.8,-3.2 0.3,-0.6 0.5,-1 0,-1.6 -0.3,-0.3 -1,-0.7 -1.3,-0.9 -1.9,-1.5 -3.7,-3.1 -5.6,-4.5 -4,-2.9 -8.3,-5.7 -12.5,-8.3 -0.9,-0.6 -1.9,-1.1 -2.8,-1.7 -0.3,-0.2 -0.6,-0.3 -0.9,-0.4 -0.4,-0.3 -1.3,-1.2 -1.8,-1.2 0.2,0.8 0.1,2 0.1,2.9 -0.1,1.4 -0.3,2.8 -0.3,4.3 0,2.4 0.4,4.9 1,7.2 0.4,1.3 0.7,2.5 1.1,3.7 0.2,0.5 0.1,1.1 0.3,1.6 0.1,0.3 0.3,0.5 0.4,0.8 0,0.3 -0.1,0.4 -0.1,0.7 0.1,0.4 0.3,0.8 0.4,1.2 0.1,0.5 -0.1,0.5 0.1,1 0.4,1.3 1,2.5 1.7,3.7 0.5,1 1,2.2 1.8,2.9 1.6,1.4 3.6,2.2 5.7,2 1.3,-0.1 3.3,-0.6 4.6,-1.5 z"
         id="path295"
         inkscape:connector-curvature="0"
         style="clip-rule:evenodd;fill:#ee5151;fill-rule:evenodd" /></g><g
       id="g301"><path
         class="st47"
         d="m 229.4,348.8 c -0.1,-0.1 -0.2,-0.2 -0.1,-0.4 0.2,-0.4 1,-0.5 1.3,-0.6 0.6,-0.2 1.2,-0.3 1.8,-0.3 0.6,0 1.3,0.1 1.9,0.1 0.6,0 1.3,-0.1 1.9,0 1.2,0.1 2.4,0 3.7,0.1 1.3,0.1 2.6,0.1 3.9,0 1.6,-0.1 3.2,-0.1 4.8,-0.2 0.6,0 1.3,-0.1 1.9,0 0.1,0.2 0,0.5 0,0.7 0.1,0.6 0.4,1.2 0.6,1.8 0.6,1.5 0.8,3.2 1.4,4.7 0.2,0.4 0.5,0.8 0.7,1.2 1,1.6 1.3,3.6 1.9,5.3 0.4,1 1,2 1.4,3 0.7,1.9 -3.1,-0.4 -3.7,-0.7 -1.7,-1 -3.4,-2 -5.2,-2.9 -0.3,-0.1 -0.5,-0.3 -0.8,-0.4 -0.6,-0.4 -1.1,-1 -1.7,-1.3 -0.6,-0.4 -1.1,-0.9 -1.8,-1.3 -0.8,-0.5 -1.4,-1.1 -2.2,-1.5 -1.6,-1 -3.2,-1.9 -4.7,-3 -2,-1.5 -3.7,-3.3 -6.1,-3.9 -0.2,-0.2 -0.7,-0.3 -0.9,-0.4 z"
         id="path299"
         inkscape:connector-curvature="0"
         style="clip-rule:evenodd;fill:#ee5151;fill-rule:evenodd" /></g><g
       id="g305"><path
         d="m 223.3,354.2 c -0.5,0.3 -1,0.7 -1.5,1.1 -3.5,2.6 -7.2,5 -11.2,6.8 -0.9,0.4 -2.1,1 -3.1,1.2 -0.3,0 -0.6,-0.1 -1,0 -0.2,0 -0.4,0.3 -0.7,0.3 -0.7,-0.1 -1.5,-1.9 -1.9,-2.5 -0.9,-1.4 -1.7,-2.9 -2.5,-4.3 -0.8,-1.3 -1.5,-2.7 -2.2,-4 -0.4,-0.7 -1,-1.3 -1.4,-1.9 -0.1,-0.2 -0.2,-0.5 -0.3,-0.7 -0.2,-0.3 -0.3,-0.3 -0.5,-0.5 -0.3,-0.4 -0.5,-0.7 -0.9,-1.1 -0.8,-0.8 -1.1,-1.8 -1.8,-2.6 -0.4,-0.4 -0.6,-0.9 -1,-1.3 -0.7,-0.8 -1.5,-1.4 -2.3,-2 -0.3,-0.2 -0.7,-0.4 -0.9,-0.8 0,-0.1 -0.4,-1 -0.4,-1 0.4,-0.2 0.9,-0.4 1.3,-0.5 h 0.6 c 0.2,-0.1 0.4,-0.2 0.7,-0.3 2.3,-0.5 5.1,-0.6 7.5,-0.3 3.3,0.3 6.6,0.8 9.9,1.4 3.3,0.6 6.7,1.1 9.9,2.1 3,0.9 5.8,2.1 8.5,3.7 0.7,0.4 1.9,1 1.3,1.9 -0.4,0.7 -1.2,1.3 -1.7,1.9 -1.2,1.4 -2.8,2.4 -4.4,3.4 z"
         style="clip-rule:evenodd;fill:#005b9e;fill-rule:evenodd"
         id="path303"
         inkscape:connector-curvature="0" /></g><g
       id="g309"><path
         class="st47"
         d="m 229.7,349.5 c -0.1,0 -0.3,0.2 -0.4,0.5 -0.4,0.7 -0.7,1.5 -1.1,2.2 -1.5,2.8 -3.5,5.5 -4.4,8.6 -0.2,0.8 -0.3,1.6 -0.2,2.5 0.2,1.4 0.8,2.6 0.7,4.1 0,0.3 -0.3,1 -0.1,1.3 0.1,0.3 0.6,0.4 0.8,0.5 0.7,0.5 1.4,1.2 2.1,1.7 1.7,1.3 3.4,2.7 5.3,3.6 1.6,0.8 3.1,1.6 4.6,2.6 0.6,0.4 1.1,0.9 1.6,1.2 0.7,0.4 1.5,0.6 2.3,0.9 0.6,0.2 1.1,1 1.7,1.1 0.2,-0.5 -0.1,-0.7 -0.2,-1.1 -0.2,-0.7 -0.2,-1.5 -0.4,-2.2 -0.8,-2.5 -1.6,-4.9 -2.6,-7.3 -0.4,-1.1 -0.7,-2.3 -1.1,-3.5 -0.7,-1.8 -1.4,-3.6 -2.2,-5.4 -1.3,-2.7 -2.5,-5.4 -4,-8 -0.4,-0.7 -0.9,-1.4 -1.3,-2.1 -0.1,-0.2 -0.2,-0.4 -0.4,-0.6 0,-0.3 -0.4,-0.7 -0.7,-0.6 z"
         id="path307"
         inkscape:connector-curvature="0"
         style="clip-rule:evenodd;fill:#ee5151;fill-rule:evenodd" /></g><g
       id="g325"><path
         class="st45"
         d="m -5.6,254.1 c 0,0 -19.3,-43.2 4.8,-68.2 55,23.1 32.1,77.2 32.1,77.2 z"
         id="path311"
         inkscape:connector-curvature="0"
         style="fill:#00666b" /><path
         class="st46"
         d="m -0.8,185.9 c 0.2,0.1 0.4,0.2 0.6,0.2 l 9.3,55 22.1,-26.9 c 0.2,0.4 0.3,0.7 0.5,1.1 l -22.5,27.2 2.7,15.9 -1.1,-0.3 -5.3,-31.6 -18.4,-8.3 v -1.1 l 18.2,8.2 -6.5,-38.8 c 0.1,-0.3 0.2,-0.4 0.4,-0.6 z"
         id="path313"
         inkscape:connector-curvature="0"
         style="fill:#01888b" /><path
         class="st10"
         d="m -2.2,250.2 c 0,0 20.2,-41.4 57.7,-44.1 19.2,35 -16.5,62.4 -16.5,62.4 l -39.9,10.6 z"
         id="path315"
         inkscape:connector-curvature="0"
         style="fill:#053c5e" /><path
         class="st45"
         d="m 21.6,220.4 6.8,19.8 26.3,-34.1 h 0.8 c 0.1,0.1 0.1,0.3 0.2,0.4 L 41.6,224.7 61,223.5 v 1 l -20.3,1.3 -23.5,30.4 34.1,-1.1 c -0.3,0.4 -0.5,0.7 -0.8,1.1 l -34.2,1.1 -16.7,21.6 -0.7,0.2 v -1 l 28.5,-36.9 -6.9,-20 c 0.5,-0.3 0.8,-0.5 1.1,-0.8 z"
         id="path317"
         inkscape:connector-curvature="0"
         style="fill:#00666b" /><g
         id="g323"><path
           class="st24"
           d="m 15.1,262.3 c 0,0 33.9,-18.9 54.8,0.9 -10.5,53 -78.6,43.4 -78.6,43.4 z"
           id="path319"
           inkscape:connector-curvature="0"
           style="fill:#22b573" /><path
           class="st13"
           d="m 69.9,263.2 c 0,0.2 -0.1,0.4 -0.1,0.6 l -49.7,19.4 25.1,14.5 c -0.4,0.2 -0.7,0.4 -1.1,0.6 l -25.3,-14.6 -19.4,7.6 0.8,-1.4 37.8,-14.8 9,-20.2 h 1.1 l -8.7,19.6 30.1,-11.8 c 0.1,0.2 0.2,0.4 0.4,0.5 z"
           id="path321"
           inkscape:connector-curvature="0"
           style="fill:#ffffff" /></g></g></g></svg>