<?xml version="1.0" encoding="UTF-8" standalone="no"?>
<svg
   xmlns:dc="http://purl.org/dc/elements/1.1/"
   xmlns:cc="http://creativecommons.org/ns#"
   xmlns:rdf="http://www.w3.org/1999/02/22-rdf-syntax-ns#"
   xmlns:svg="http://www.w3.org/2000/svg"
   xmlns="http://www.w3.org/2000/svg"
   xmlns:sodipodi="http://sodipodi.sourceforge.net/DTD/sodipodi-0.dtd"
   xmlns:inkscape="http://www.inkscape.org/namespaces/inkscape"
   viewBox="0 0 299.99999 737.3"
   xml:space="preserve"
   version="1.1"
   id="svg488"
   sodipodi:docname="environmentBR.svg"
   width="300"
   height="737.29999"
   inkscape:version="0.92.4 (5da689c313, 2019-01-14)"><metadata
     id="metadata494"><rdf:RDF><cc:Work
         rdf:about=""><dc:format>image/svg+xml</dc:format><dc:type
           rdf:resource="http://purl.org/dc/dcmitype/StillImage" /><dc:title></dc:title></cc:Work></rdf:RDF></metadata><defs
     id="defs492" /><sodipodi:namedview
     pagecolor="#ffffff"
     bordercolor="#666666"
     borderopacity="1"
     objecttolerance="10"
     gridtolerance="10"
     guidetolerance="10"
     inkscape:pageopacity="0"
     inkscape:pageshadow="2"
     inkscape:window-width="1920"
     inkscape:window-height="1016"
     id="namedview490"
     showgrid="false"
     inkscape:zoom="1.3643937"
     inkscape:cx="181.27442"
     inkscape:cy="122.92283"
     inkscape:window-x="0"
     inkscape:window-y="36"
     inkscape:window-maximized="1"
     inkscape:current-layer="RH_Images" /><style
     id="style20">.st0{fill:#ededed;stroke:#25c7a1;stroke-miterlimit:10}.st1{fill:#2d75be}.st2{fill:#555d68}.st3{fill:#fff;stroke:#555d68;stroke-miterlimit:10}.st4{fill:#ededed}.st5{fill:#3ca891}.st7{fill:#212b53}.st8{fill:#00a1d9}.st10{fill:#053c5e}.st11{fill:#11637a}.st13{fill:#fff}.st17{fill:#a0c358}.st18{fill:#36240e}.st19{fill:#babac2}.st20{fill:#614830}.st22{fill:#0f8f7d}.st23{fill:#006837}.st24{fill:#22b573}.st25{fill:#136660}.st27{fill:#f0d6be}.st28{fill:#faecd4}.st29{fill:#c2716c}.st30{fill:#924f4a}.st31{fill:#453d35}.st32{fill:#577d22}.st33{fill:#ffddb3}.st34{fill:#e83e2e}.st38{fill:#deb187}.st40{fill:#9bbd60}.st41{fill:#ffbc5e}.st42{fill:#ad5823}.st43{fill:#874115}.st44{fill:#c29163}.st45{fill:#00666b}.st46{fill:#01888b}.st47{fill-rule:evenodd;clip-rule:evenodd;fill:#ee5151}.st50{fill:#5885a8}.st51{fill:#2d7345}.st52{fill:#9dcaed}.st53{fill:#3c5214}.st54{fill:#ad4123}.st55{fill:#587528}.st56{fill:#5e7a2e}.st57{fill:#87943c}.st59{fill:#a3ab55}.st60{fill:#ccc568}</style><g
     id="RH_Images"
     transform="translate(-1061.5047)"><linearGradient
       id="SVGID_1_"
       gradientUnits="userSpaceOnUse"
       x1="1177.313"
       y1="315.59799"
       x2="1221.8831"
       y2="315.59799"><stop
         offset="0"
         style="stop-color:#dfefea"
         id="stop80" /><stop
         offset="1"
         style="stop-color:#bfe3ee"
         id="stop82" /></linearGradient><linearGradient
       id="SVGID_00000035521563574666263710000001087108795220202909_"
       gradientUnits="userSpaceOnUse"
       x1="1166.204"
       y1="326.293"
       x2="1216.4139"
       y2="326.293"><stop
         offset="0"
         style="stop-color:#dfefea"
         id="stop111" /><stop
         offset="1"
         style="stop-color:#bfe3ee"
         id="stop113" /></linearGradient><g
       id="g142"><path
         class="st18"
         d="m 1094.2,656.3 c -0.4,-0.6 -0.9,-1.1 -1.4,-1.5 -2.1,-1.7 -4.3,-1.4 -5.6,1.2 -0.8,1.6 -0.9,3.4 -0.9,5.2 0.1,1.6 0.3,3.2 0.6,4.7 0.1,0.5 0.4,0.6 0.7,0.5 0.1,0.1 0.3,0.1 0.4,0 2.3,-1.5 5.9,-1.6 7.3,-4.7 0.9,-1.8 0.1,-3.9 -1.1,-5.4 z m 37.9,25.4 -16.3,2 c 0.7,3.8 3,9.5 1.9,13.2 -1.8,5.9 -4.1,11.7 -6.2,17.5 -2.3,1 -4.8,1.9 -5.9,4.2 -0.4,0.8 -0.4,1.5 0.5,1.8 0.6,0.2 1.4,0.1 2,0.1 v 0.1 c 0.5,1.8 3,0.6 4.1,0.3 2.5,-0.5 5.8,0.3 7.9,-1.5 2.4,-1.9 3.4,-5.8 4.7,-8.4 3.1,-5.9 7.8,-12.2 9.5,-18.8 3.2,-4.3 -2.2,-10.5 -2.2,-10.5 z m 93.1,0.5 c -1.1,-1.4 -3.5,-0.3 -4.9,-0.1 -2.6,0.4 -5.2,-0.4 -7.6,0.8 -0.9,0.4 -2.6,2.7 -3.8,3.9 0,0 -0.1,0 -0.1,-0.1 -0.6,-0.3 -1,0.3 -0.8,0.8 -0.1,0.1 -0.3,0.1 -0.4,0.1 -0.9,-0.1 -1,1.2 -0.2,1.3 0.8,0.1 1.3,0.1 1.8,-0.3 2.9,3 1.4,9.4 1,13 -0.3,2.9 -0.7,5.8 -1.2,8.7 -1.9,1.1 -3.7,2.5 -4.1,4.8 -0.2,1.1 1.9,0.9 2.5,0.7 0,0.7 0.5,1.4 1.2,1.6 0.7,0.2 1.5,0.1 2.2,0 1.1,-0.3 5.5,-0.9 6.6,-1.1 3.2,-0.7 3.2,-6.9 3.8,-9.4 1.6,-6.6 2.9,-13.3 3.8,-20 0.2,-1.1 1.1,-3.6 0.2,-4.7 z"
         id="path120"
         inkscape:connector-curvature="0"
         style="fill:#36240e" /><path
         class="st19"
         d="m 1262.8,641.4 c -0.3,-0.6 -0.7,-1.1 -1.1,-1.6 -5.6,-8.4 -13.9,-14.9 -23.5,-18.1 -12,-4 -25,-3.1 -37.2,-0.5 -7.7,1.6 -15.2,3.9 -22.6,6.6 -6.1,2.2 -13,5.3 -19.6,4.5 -8.2,-1 -16.3,-0.3 -23.7,3.2 -2.1,1 -4,2.4 -5.9,3.6 l -8.7,5.7 c -0.5,0.3 -1,0.7 -1.5,1 -2.9,2 -5.9,3.9 -8.8,5.8 l -0.9,0.6 c -2.5,1.6 -4.9,3.4 -7.7,4.6 -2.4,1.1 -5,1.9 -7.5,2.9 -3.8,1.6 -7.7,3.2 -11.1,5.7 -4.5,3.3 -7.4,7.9 -9.5,12.9 -1.8,4.1 0.4,4.8 -0.9,8.9 -0.1,0.4 -0.3,0.7 -0.4,1.1 -0.8,1.4 -2.6,4.2 -3.7,6.1 -0.2,0.4 -0.5,0.8 -0.7,1.2 -1,1.7 -2.9,4.2 -4.4,6.4 -0.7,1.1 -1.4,2 -1.8,2.8 -0.7,1.4 2.6,4.8 5.2,5.4 0.1,0 0.2,0.1 0.3,0.1 0.3,0.1 0.7,0.1 1.1,0.1 h 0.6 c 0.3,0 0.5,0 0.7,-0.1 0.2,0 0.4,-0.1 0.6,-0.1 0.2,0 0.4,-0.1 0.7,-0.1 0.2,-0.1 0.4,-0.1 0.7,-0.2 0.2,-0.1 0.4,-0.1 0.7,-0.2 0.4,-0.1 0.9,-0.3 1.3,-0.5 0.4,-0.2 0.9,-0.4 1.3,-0.5 l 0.6,-0.3 h 0.1 c 0.3,-0.1 0.7,-0.3 1,-0.5 0.4,-0.2 0.7,-0.4 1.1,-0.5 3.1,-1.6 5.5,-3.9 8.3,-5.9 0.2,-0.1 0.4,-0.3 0.6,-0.4 2.5,-1.4 5.7,-2 8.3,-2.8 2,-0.7 4,-1.4 5.9,-2.3 0.5,-0.2 1,-0.5 1.5,-0.8 0.3,-0.1 0.5,-0.3 0.8,-0.5 0.2,-0.1 0.5,-0.3 0.7,-0.4 0.2,-0.1 0.4,-0.3 0.6,-0.4 0.6,-0.4 1.1,-0.9 1.8,-1.1 5.1,-1.5 8.9,1.2 14.3,1.5 5.5,0.3 11.6,0.5 17.1,1 2,0.2 4,0 6.1,-0.3 3.9,-0.6 8,-1.7 11.8,-1.5 5.8,0.4 11.5,1.2 17.2,1.9 11.3,1.3 22.3,1.2 33.5,-0.8 5.7,-1 11.4,-2.2 17,-3.6 3,-0.8 5.9,-1.7 8.5,-3 0.2,0.3 0.5,0.5 0.9,0.3 5.8,-4.3 8.4,-1.5 15.2,-4.1 5.2,-2 13,-7.7 14.8,-13.2 4.8,-14.6 4.8,-22 0.3,-29.6 z"
         id="path122"
         inkscape:connector-curvature="0"
         style="fill:#babac2" /><path
         class="st13"
         d="m 1141.4,691.2 c 0.4,-2.9 0.6,-5.2 -2.2,-7.3 -1,-0.8 -5.1,-2.2 -5.3,-3 -0.1,-0.6 0.5,-1.2 0.1,-1.9 -0.7,-1.3 -3,-1.3 -4.2,-1.5 -2.1,-0.4 -4.6,-0.5 -6.6,-1.3 -1.9,-0.8 -1.9,-2.2 -3.5,-2.9 -1.2,-0.5 -3.3,-0.3 -5.1,-0.2 -0.9,-0.9 -1.7,-1.8 -2.9,-2.5 -0.2,-0.1 -0.4,-0.3 -0.6,-0.4 -1.8,-0.9 -3.8,-1.2 -5.8,-1.2 l 0.9,-1.5 c 1,-1 1.9,-2 2.9,-3 0.7,-0.8 1.4,-1.6 2.1,-2.5 1.3,-1.6 2.7,-3.2 2.6,-5.3 0,-0.5 -0.4,-0.7 -0.8,-0.7 -0.5,0.1 -0.9,0.2 -1.3,0.3 1.7,-1.6 2.7,-3.4 1.2,-4.7 -0.6,-0.5 -1.6,-0.5 -2.7,-0.3 l -0.9,0.6 c -2.5,1.6 -4.9,3.4 -7.7,4.6 -2.4,1.1 -5,1.9 -7.5,2.9 -3.8,1.6 -7.7,3.2 -11.1,5.7 -4.5,3.3 -7.8,6.7 -9.9,11.7 -1.8,4.1 0.8,6 -0.5,10.1 -0.1,0.4 -0.3,0.7 -0.4,1.1 -0.8,1.4 -2.6,4.2 -3.7,6.1 -0.2,0.4 -0.5,0.8 -0.7,1.2 -1,1.7 -2.9,4.2 -4.4,6.4 -0.7,1.1 -1.4,2 -1.8,2.8 -0.7,1.4 2.6,4.8 5.2,5.4 0.1,0 0.2,0.1 0.3,0.1 0.3,0.1 0.7,0.1 1.1,0.1 h 0.6 c 0.3,0 0.5,0 0.7,-0.1 0.2,0 0.4,-0.1 0.6,-0.1 0.2,0 0.4,-0.1 0.7,-0.1 0.2,-0.1 0.4,-0.1 0.7,-0.2 0.2,-0.1 0.4,-0.1 0.7,-0.2 0.4,-0.1 0.9,-0.3 1.3,-0.5 0.4,-0.2 0.9,-0.4 1.3,-0.5 l 0.6,-0.3 h 0.1 c 0.3,-0.1 0.7,-0.3 1,-0.5 0.4,-0.2 0.7,-0.4 1.1,-0.5 3.1,-1.6 5.5,-3.9 8.3,-5.9 0.2,-0.1 0.4,-0.3 0.6,-0.4 2.5,-1.4 5.7,-2 8.3,-2.8 2,-0.7 4,-1.4 5.9,-2.3 0.5,-0.2 1,-0.5 1.5,-0.8 0.3,-0.1 0.5,-0.3 0.8,-0.5 0.1,-0.1 0.3,-0.2 0.4,-0.2 0.3,-0.2 0.5,-0.4 0.9,-0.6 0.6,-0.4 1.2,-0.9 1.8,-1.1 5.1,-1.5 8.9,1.2 14.3,1.5 5.5,0.3 11.6,0.5 17.1,1 2,0.2 4,0 6.1,-0.3 -0.6,-1.1 -1.4,-2.3 -2.2,-3.5 z"
         id="path124"
         inkscape:connector-curvature="0"
         style="fill:#ffffff" /><path
         class="st19"
         d="m 1295.2,709.8 c -1.2,2.5 -2.4,-2 -2.9,-2.9 -0.8,-1.4 -3.5,-3.6 -3.7,-5 0.1,0.7 0.2,1.4 0.3,2.2 0,0.6 -0.8,0.9 -1.1,0.5 -3.5,-4.1 -8.2,-6.5 -12.4,-9.8 -2.6,-2.1 -4.8,-4.7 -6.5,-7.5 -0.7,-1.1 -1.3,-2.2 -1.8,-3.4 -2,-4.3 -3.1,-8.9 -4,-13.5 -0.8,-4.6 -2.9,-8.6 -5.4,-12.4 -0.3,0.6 -0.6,1.2 -0.9,1.7 -0.4,0.7 -1.6,0.1 -1.2,-0.7 0.5,-0.8 0.8,-1.6 1.2,-2.4 -0.7,-0.9 -1.3,-1.8 -2,-2.8 -0.5,-0.7 0.6,-1.3 1.1,-0.7 0.5,0.6 0.9,1.3 1.4,1.9 0.4,-1.1 0.7,-2.2 0.9,-3.4 -0.1,-0.2 -0.1,-0.5 0.1,-0.7 0.1,-1 0.2,-2 0.2,-3 0,-0.9 1.3,-0.9 1.3,0 0,0.5 0,1 -0.1,1.5 0.5,-0.5 1.1,-1.1 1.6,-1.5 1.1,0.3 2.3,0.3 3.3,-0.1 l 0.6,-0.3 c 3.7,9.9 9.9,18.1 17.7,25.5 l 1.5,1.5 c 3.6,3.5 7.2,7.2 9.4,11.8 1.8,3.7 2.4,7.8 2.4,11.8 0.3,4.1 0.6,8.2 -1,11.7 z m -33.8,-37.1 c 0,0 -7,1 -7.3,0.9 0.4,-0.4 0.2,-1.1 -0.5,-1.1 -6.4,0 -13.6,-0.9 -19.7,1.3 -4.6,1.6 -8.3,4.8 -10.8,8.8 -0.2,0.3 -0.1,0.7 0.2,0.9 0,0.1 0,0.1 -0.1,0.1 -4,-3.5 -6.7,-8 -6.6,-14.3 0,-0.9 -1.4,-0.9 -1.4,0 -0.1,9.2 4.9,16.4 12.9,20.5 4,2 8.3,3.4 12.2,5.7 0.1,0.1 0.3,0.1 0.4,0.2 3.5,2.2 5.2,4.1 5.5,8.3 0.1,1.9 0.2,3.9 0.2,5.8 0,1.4 0.6,3.6 -0.3,4.8 -1,1.3 -2.7,1.7 -4,2.4 -0.7,0.3 -4,3 -2.2,3.8 0.2,0.1 0.4,0.1 0.7,0.1 h 1.6 c -0.1,0 -0.2,0.1 -0.2,0.3 0,0.3 0.3,0.9 0.5,1.3 0.1,0.1 0.1,0.2 0.1,0.3 0.4,0.4 1,0.5 1.6,0.6 1.2,0.2 2.5,0 3.8,0 2.1,0 6.2,0.3 8.3,-0.4 3,-1 2.4,-4.4 2.4,-7 0.1,-5.5 0.2,-11 0.4,-16.5 0,-0.4 0,-0.7 -0.1,-1.1 -0.1,-0.3 -0.2,-0.6 -0.4,-0.9 -1,-2 -2,-4 -2.8,-6.1 0,-0.1 0,-0.1 -0.1,-0.2 -0.7,-2.6 5.7,-18.5 5.7,-18.5 z m -92.7,42.3 c -0.7,-6.9 -1.3,-13.8 -4.1,-20.4 -1.7,-3.8 -4.7,-13 -6.1,-16.2 -0.9,-2.1 0.3,3.1 -2,2.7 -2.7,-0.5 -5.9,0.1 -8.3,1.1 -2.2,0.9 -4,3.1 -6.1,4.3 -0.2,0.7 0.2,1.3 0,1.9 -0.2,0.5 -0.3,3.6 0.3,4.5 0.7,1.1 1.5,2 2.3,3 2.4,2.6 5.2,4.7 7.9,6.8 0.9,1.4 1.7,2.9 2.4,4.4 1.9,4.2 3.2,8.5 4.6,12.9 -0.7,0.3 -1.6,0.5 -1.8,0.5 -0.8,0.2 -1.5,0.6 -2.2,1 -1,0.6 -2.2,1.5 -2,2.8 0.1,1 0.9,1.5 1.8,1.4 h 0.2 c 0.3,-0.1 0.5,-0.1 0.8,-0.2 0,0.1 0.1,0.1 0.1,0.2 l 0.3,0.3 c 0.9,0.5 2.5,0.2 3.3,0.1 3.3,-0.2 7.9,1.3 8.8,-2.9 0.7,-2.7 0.1,-5.6 -0.2,-8.2 z"
         id="path126"
         inkscape:connector-curvature="0"
         style="fill:#babac2" /><path
         class="st18"
         d="m 1066.6,704.6 c -0.9,-1.1 -1.9,-2.3 -3.2,-2.6 -0.7,1.1 -1.4,2 -1.8,2.8 -0.7,1.4 2.6,4.8 5.2,5.4 0.7,-0.7 1.3,-1.7 1.4,-2.6 0.3,-1.2 -0.8,-2.2 -1.6,-3 z"
         id="path128"
         inkscape:connector-curvature="0"
         style="fill:#36240e" /><path
         class="st13"
         d="m 1296.5,698.4 c -0.1,-4.1 -0.6,-8.2 -2.4,-11.8 -2.2,-4.6 -5.7,-8.3 -9.4,-11.8 0,2.9 0,5.7 0.2,8.6 -1.8,-0.2 -3.5,0.8 -4.1,2.6 -0.4,-0.1 -0.7,-0.2 -1.1,-0.2 -2,-1.9 -4.8,-3.6 -6.2,-3.3 -1.5,0.3 -1.4,3.9 -1,6.1 -1.2,-0.5 -2.4,-0.9 -3.7,-1.3 1.7,2.9 3.9,5.4 6.5,7.5 4.1,3.3 8.9,5.7 12.4,9.8 0.4,0.4 1.2,0.1 1.1,-0.5 0,-0.8 -0.1,-1.5 -0.3,-2.2 0.3,1.4 3,3.6 3.7,5 0.5,0.9 1.7,5.4 2.9,2.9 1.7,-3.5 1.4,-7.6 1.4,-11.4 z"
         id="path130"
         inkscape:connector-curvature="0"
         style="fill:#ffffff" /><path
         class="st20"
         d="m 1168.7,715 c -0.7,-6.9 -1.3,-13.8 -4.1,-20.4 -0.4,-0.3 -0.9,-0.4 -1.5,-0.5 -1.7,-0.2 -4.4,-0.8 -6,0 -0.3,0.1 -0.6,0.4 -0.9,0.5 -1.5,0.9 -3.3,0.7 -4.9,0.6 -1.6,-0.1 -3.3,-0.3 -5,0 -0.7,0.1 -1.2,0.3 -1.6,0.6 2.4,2.6 5.2,4.7 7.9,6.8 0.9,1.4 1.7,2.9 2.4,4.4 1.9,4.2 3.2,8.5 4.6,12.9 -0.7,0.3 -1.6,0.5 -1.8,0.5 -0.8,0.2 -1.5,0.6 -2.2,1 -1,0.6 -2.2,1.5 -2,2.8 0.1,1 0.9,1.5 1.8,1.4 h 0.2 c 0.3,-0.1 0.5,-0.1 0.8,-0.2 0,0.1 0.1,0.1 0.1,0.2 l 0.3,0.3 c 0.9,0.5 2.5,0.2 3.3,0.1 3.3,-0.2 7.9,1.3 8.8,-2.9 0.7,-2.6 0.1,-5.5 -0.2,-8.1 z m 90.4,-15.5 c 0,-0.4 0,-0.7 -0.1,-1.1 -0.1,-0.3 -0.2,-0.6 -0.4,-0.9 -1,-2 -2,-4 -2.8,-6.1 0,-0.1 0,-0.1 -0.1,-0.2 l -0.9,0.3 c -1.5,0.5 -2.8,1.4 -4.5,1.4 -1.5,0 -2.6,-0.7 -4.1,-0.3 -2.4,0.6 -3.1,2.6 -5.8,3 0.1,0.1 0.3,0.1 0.4,0.2 3.5,2.2 5.2,4.1 5.5,8.3 0.1,1.9 0.2,3.9 0.2,5.8 0,1.4 0.6,3.6 -0.3,4.8 -1,1.3 -2.7,1.7 -4,2.4 -0.7,0.3 -4,3 -2.2,3.8 0.2,0.1 0.4,0.1 0.7,0.1 h 1.6 c -0.1,0 -0.2,0.1 -0.2,0.3 0,0.3 0.3,0.9 0.5,1.3 0.1,0.1 0.1,0.2 0.1,0.3 0.4,0.4 1,0.5 1.6,0.6 1.2,0.2 2.5,0 3.8,0 2.1,0 6.2,0.3 8.3,-0.4 3,-1 2.4,-4.4 2.4,-7 0,-5.6 0.1,-11.1 0.3,-16.6 z m -147.9,-29.2 c -1.8,-0.9 -3.8,-1.2 -5.8,-1.2 l 0.9,-1.5 c 1,-1 1.9,-2 2.9,-3 -5.6,2.4 -11.4,4.7 -16.3,8.4 -4.1,3.1 -7.2,7.2 -10,11.5 -3.2,4.9 -3.7,7.4 -7.3,12 -2.8,3.7 -2.5,8.2 -2.1,12.5 1,-0.4 2,-0.9 2.9,-1.3 0.4,-2 0.6,-4.1 1.2,-6.1 1.8,-5 7.5,-7.7 10.7,-12 6.5,-8.9 13.5,-14.3 23.5,-19.1 -0.2,0 -0.4,-0.1 -0.6,-0.2 z"
         id="path132"
         inkscape:connector-curvature="0"
         style="fill:#614830" /><path
         class="st20"
         d="m 1115.9,668.5 c -0.8,2.3 -1.7,4.2 -1.7,4.2 0,0 -3,-3.4 -8.8,-3.5 0,0 0.7,-2.9 2.7,-5.5 1.3,-1.7 3.3,-3.2 6,-3.5 4.1,-0.3 3.1,4.6 1.8,8.3 z"
         id="path134"
         inkscape:connector-curvature="0"
         style="fill:#614830" /><path
         class="st13"
         d="m 1092.8,654.8 c -2.1,-1.7 -4.3,-1.4 -5.6,1.2 -0.8,1.6 -0.9,3.4 -0.9,5.2 1,-2 2.8,-3.5 5,-4.3 0.8,-0.3 1.9,-0.4 2.9,-0.6 -0.4,-0.6 -0.9,-1.2 -1.4,-1.5 z m 21.3,5.4 c -2.7,0.2 -4.6,1.8 -6,3.5 1.2,-0.5 2.7,-0.7 3.9,-0.5 4,0.8 2.8,2.8 3.8,5.1 0,0.1 0.1,0.2 0.1,0.3 1.3,-3.8 2.3,-8.7 -1.8,-8.4 z"
         id="path136"
         inkscape:connector-curvature="0"
         style="fill:#ffffff" /><path
         class="st18"
         d="m 1093,683.5 c -0.2,-0.7 -0.6,-1.4 -1.2,-1.9 -0.4,-0.4 -1,-0.6 -1.5,-0.4 -0.3,0.1 -0.6,0.3 -0.8,0.6 -0.9,1.2 -0.9,2.9 -0.4,4.3 0.2,0.5 0.5,1 1,1.4 0.5,0.4 1.1,0.5 1.6,0.3 0.5,-0.2 0.8,-0.6 1,-1.1 0.6,-0.9 0.6,-2.1 0.3,-3.2 z m 20.2,-18.3 c -1.9,-1.4 -4.9,0.3 -5.4,2.3 -0.1,0.5 1.9,1.7 2.5,2.1 0.5,0.4 1.1,1 1.6,1.2 0.3,0.1 0.5,0.1 0.8,-0.1 1.5,-1.1 2.3,-4.2 0.5,-5.5 z"
         id="path138"
         inkscape:connector-curvature="0"
         style="fill:#36240e" /><path
         d="m 1238.2,621.7 c -12,-4 -25,-3.1 -37.2,-0.5 -7.7,1.6 -15.2,3.9 -22.6,6.6 -6.1,2.2 -13,5.3 -19.6,4.5 -8.2,-1 -16.3,-0.3 -23.7,3.2 -2.1,1 -4,2.4 -5.9,3.6 l -8.7,5.7 c -0.7,1.7 -1.3,3.5 -1.4,5.2 -0.1,3.3 5.4,6.1 7.8,7.6 3.8,2.4 9.3,5.8 13.9,6.2 1.1,0.1 1.1,-0.4 2,-0.8 2.6,-1.2 2.3,-0.4 4.6,0 0.9,0.1 1.2,0.1 2.1,-0.1 0.3,-0.1 0.5,-0.4 0.5,-0.6 0.1,-1 0.2,-2.1 0.3,-3.2 1.2,0.4 2.4,0.8 3.5,0.9 1.2,0.2 1.8,0.1 2.8,-0.6 1.6,-1.1 -1.2,-1.7 2.2,-2.4 1.1,-0.2 2.8,0.5 3.8,0.8 l 8.7,2.4 c 2.6,0.7 5.1,1.2 7.7,1.5 1.6,0.2 4.3,0.8 5.7,-0.3 2.3,-1.8 0.9,-5.6 -0.2,-8.3 2.3,0.9 4.7,1.6 7,1.6 1.2,0 2.1,-0.2 2.9,-1 1.3,-1.2 -1,-2.3 2.7,-2.9 1.3,-0.2 3.3,0.5 4.6,0.7 7.3,1.1 15.2,0.3 20.2,-5.3 1.1,0.2 2.1,0.3 3.1,0.1 1.4,-0.2 2.5,-1.3 4,-1.7 2.8,-0.8 5.6,-0.4 8.2,0.8 1.9,0.9 4,1.9 6,1 1.9,-0.9 2.3,-3.2 2.5,-5.4 1.3,0.5 2.5,0.9 3.8,1.3 0.3,0.1 0.6,-0.1 0.7,-0.3 2.7,-4.6 7.7,-1.7 11.4,-2.3 -5.5,-8.4 -13.8,-14.8 -23.4,-18 z"
         style="fill:#9696a3"
         id="path140"
         inkscape:connector-curvature="0" /></g><g
       id="g159"><g
         id="XMLID_4_"><path
           class="st17"
           d="m 1238.6,597.7 c -8.9,-7.2 -37.9,-32.5 -33.1,-51.5 5.6,-22.4 -20.8,-39.3 12.5,-59.1 33.3,-19.9 28.9,44.5 36.8,56 8,11.5 6.5,52.9 -13.6,56.6 0,0 -1,-0.7 -2.6,-2 z m 30.4,7.3 -12.6,34.1 c -2.4,-8.8 -9.6,-43.8 22.4,-61.3 0,0 19.3,47.6 -21.8,63.4 4.2,-7.9 10.4,-21.8 12,-36.2 z"
           id="path144"
           inkscape:connector-curvature="0"
           style="fill:#a0c358" /><path
           class="st17"
           d="M 1256.4,639.1 1269,605 c -1.6,14.4 -7.8,28.2 -12,36.2 0,0 -0.2,-0.8 -0.6,-2.1 z"
           id="path146"
           inkscape:connector-curvature="0"
           style="fill:#a0c358" /><path
           class="st17"
           d="m 1253.1,648.1 3.3,-9 c 0.4,1.3 0.6,2.1 0.6,2.1 -2.2,4.3 -3.9,6.9 -3.9,6.9 z m -35.2,-37.9 c 0,0 28.7,-1 34.5,55.1 0,0 -37.7,-23.1 -34.5,-55.1 z"
           id="path148"
           inkscape:connector-curvature="0"
           style="fill:#a0c358" /><g
           id="g154"><path
             class="st22"
             d="m 1276.7,710.2 c -0.1,0 -0.1,0.1 -0.2,0.1 -0.7,0.3 -1.5,0 -1.9,-0.7 -0.3,-0.6 -25.4,-58.1 -37.4,-111.5 -5.8,-25.7 -7.6,-46.4 -5.5,-61.7 0.1,-0.8 0.8,-1.3 1.6,-1.2 0.8,0.1 1.3,0.8 1.2,1.6 -2.1,15 -0.3,35.4 5.4,60.7 11.9,53.1 36.9,110.4 37.2,111 0.4,0.6 0.2,1.3 -0.4,1.7 z"
             id="path150"
             inkscape:connector-curvature="0"
             style="fill:#0f8f7d" /><path
             class="st22"
             d="m 1253.9,649.3 c -0.4,0.2 -0.8,0.3 -1.2,0.1 -0.7,-0.3 -1.1,-1.1 -0.8,-1.8 l 15.9,-43 c 0.3,-0.7 1.1,-1.1 1.8,-0.8 0.7,0.3 1.1,1.1 0.8,1.8 l -15.9,43 c -0.2,0.2 -0.4,0.5 -0.6,0.7 z"
             id="path152"
             inkscape:connector-curvature="0"
             style="fill:#0f8f7d" /></g></g><path
         class="st22"
         d="m 1264.2,681.5 c -0.6,0.4 -1.4,0.2 -1.9,-0.4 -1.1,-1.6 -28.1,-39.4 -31.9,-52.4 -0.2,-0.7 0.2,-1.5 1,-1.7 0.7,-0.2 1.5,0.2 1.7,1 3.7,12.5 31.2,51.1 31.5,51.5 0.5,0.6 0.3,1.5 -0.4,2 0.1,-0.1 0,0 0,0 z"
         id="path157"
         inkscape:connector-curvature="0"
         style="fill:#0f8f7d" /></g><path
       class="st23"
       d="m 1365.1,668.8 c -10.2,-8.9 -23,-11.3 -36,-8.3 -2.1,0.5 -4.2,0.9 -6.2,1.2 0.1,-6.8 -0.1,-13.2 -0.4,-18.9 1.7,1.7 3.9,3.3 6,4.5 8.2,4.9 17.1,8.3 26.7,6.5 2.4,-0.4 8.2,-1.9 9.3,-4.8 2,-5.2 -9.5,-10.8 -12.6,-12.3 -3,-1.4 -6.6,-2.3 -9.9,-2.8 -6.7,-1 -13.4,-0.3 -20,1 0,-0.5 -0.1,-1 -0.1,-1.4 -0.4,-4.3 -0.9,-8.6 -1.3,-12.9 2.8,-0.3 6.3,0.5 8.9,1.2 2.1,0.5 4.3,1.2 6.5,1.5 9.3,1.4 20,-1 25.5,-10.2 1.2,-2 1.5,-3.7 1.1,-4.9 -1,-3.3 -6.2,-4.2 -10.1,-4.4 -5.3,-0.3 -10.4,0.1 -15.6,1 -4.5,0.8 -7.7,3.1 -11.7,5.5 -1.7,1 -3.3,2.2 -4.9,3.4 -0.1,0.1 -0.3,0.2 -0.4,0.3 -0.7,-7.9 -1.3,-15.7 -1.6,-23.5 2.1,0.1 4.5,0.9 6.3,1.2 8.4,1.5 16.8,4.6 25.3,1.9 5.6,-1.7 16.9,-8.4 7.5,-12.7 -6.4,-3 -21.6,-2.3 -28.5,-0.5 -2.3,0.6 -4.6,1.2 -6.9,1.9 -1.3,0.4 -2.7,1.3 -4,2 -0.1,-3.1 -0.1,-6.1 -0.1,-9.2 v -10.7 c 0.4,0.2 0.7,0.4 1.1,0.6 9.9,5 18.7,9.9 30.2,8.2 5.6,-0.9 17.2,-5.8 8.8,-11.6 -10.3,-7.1 -23.8,-8.1 -35.6,-5.8 -0.2,0 -2.8,0.8 -4.5,1.3 0,-4.1 0.1,-8.3 0.3,-12.5 4,2.3 9.6,3.6 13.8,4.3 5.7,0.9 11.5,1.3 17.2,-0.2 2.6,-0.7 19.9,-8 11.3,-11.8 -12.9,-5.6 -25.9,-4 -38.8,0.4 -1.1,0.4 -2.1,0.7 -3.1,1.2 0.2,-3.8 0.6,-7.5 1,-11.2 3.9,-0.4 7.9,0.1 11.8,-0.3 4.3,-0.4 8.4,-1.2 12.6,-2.4 3.2,-0.9 11.9,-3.1 12,-9.7 0.1,-4.3 -8.5,-4.8 -9.6,-4.7 -6.3,0.3 -11.6,1.7 -17,4.9 -4.8,2.9 -7.6,5 -9.2,6.8 0.5,-3 1,-6 1.7,-8.9 0.5,-1.1 1.4,-2 2.1,-2.9 3.1,-4.6 7,-8.5 9.5,-13.7 2.5,-5.1 4.1,-11.2 4.4,-17 0.2,-3 0,-9.4 -2.9,-10.2 -0.4,-0.1 -1,-0.1 -1.6,0.1 -6.8,2.2 -10.8,15 -12.5,22.2 -0.4,1.7 -0.5,3.6 -0.6,5.4 -0.1,2.1 0,4.1 0,6.2 0,1.5 0.1,3.4 0,5.2 -0.6,2.1 -1.1,4.2 -1.6,6.4 -1.4,-1.2 -2.6,-2.7 -3.8,-4.2 -1.8,-2.2 -3.7,-3.8 -6,-5.4 -3.7,-2.5 -7.6,-4.1 -11.9,-5.4 -0.7,-0.2 -1.5,-0.5 -2.2,-0.7 -4.7,-1.1 -16.3,0.4 -10.5,7.8 2.8,3.6 6.9,5.8 10.8,7.8 4.1,2.1 8.7,3.1 13.2,3.9 2.1,0.4 4,0.7 6.1,0.6 1.1,0 2.3,0.2 3.4,0.1 -0.6,3.3 -1,6.6 -1.4,10 -0.4,-0.2 -0.8,-0.3 -1.1,-0.4 -1.5,-0.8 -2.9,-1.9 -4.3,-2.8 -1.6,-1 -3.2,-2.1 -4.9,-2.8 -6.9,-3.1 -15.8,-4.9 -23.4,-4.2 -6,0.5 -18.6,4.8 -10,11.1 6,4.3 21.4,6.8 28.7,6.5 3.9,-0.1 7.9,0.1 11.8,-0.2 0.7,0 1.7,0 2.6,-0.1 -0.3,4 -0.5,7.9 -0.6,11.8 -1,-0.6 -2.2,-1.1 -3,-1.4 -1.5,-0.5 -3.1,-0.9 -4.6,-1.4 -4.4,-1.6 -8.3,-3.4 -13,-3.8 -4.2,-0.4 -8.6,-0.6 -12.9,0.1 -6.1,1 -18.9,6.2 -9.6,11.3 6.4,3.6 22.4,4.6 29.9,3.7 2.2,-0.3 4.4,-0.3 6.5,-0.9 2.2,-0.6 4.3,-1.3 6.5,-1.7 0,3.7 -0.1,7.3 0,10.8 -2.8,-0.4 -5.3,-1.6 -8.2,-2.1 -3.5,-0.6 -7,-0.7 -10.6,-0.5 -5.9,0.4 -12.1,1.6 -17.5,4.3 -5.8,2.9 -12.9,10.4 -2.3,12.6 7.3,1.5 19.4,-1 26.5,-4.1 3.7,-1.6 8.3,-2.6 11.5,-5.3 0.1,-0.1 0.3,-0.2 0.5,-0.3 v 5.8 c 0,3.2 0.1,6.4 0.2,9.6 -0.2,-0.1 -0.4,-0.1 -0.6,-0.1 -3,-0.2 -7.9,-1.1 -10.9,-0.9 -8,0.5 -15,1.1 -22.1,5.1 -2.7,1.5 -18.8,14 -9.1,16.1 6.7,1.5 14.5,-0.1 21.2,-1.7 7.4,-1.8 16.1,-5.4 21.9,-11.1 0.2,5.1 0.6,10.1 1,15.2 -7.6,0.3 -15.2,-0.4 -22.7,0.3 -6.5,0.6 -12.4,2.1 -17.8,5.7 -10.4,7.1 -11.3,11.6 -0.2,15.2 6.7,2.2 14.5,1.9 21,-0.7 6.3,-2.5 15.6,-7.3 20.3,-13.2 l 1.8,19.2 c 0.1,0.8 0.2,1.7 0.2,2.5 -2.5,-1.3 -7.9,-1.7 -10,-1.8 -9.6,-0.6 -20.8,0.1 -29.2,4.8 -6.9,3.8 -11.8,9.4 -2.4,14.3 8.1,4.2 18.5,3.9 26.8,1 5.9,-2.1 9.8,-5.4 13.6,-10.3 0.5,-0.6 1.1,-1.4 1.6,-2.4 0.4,6.1 0.5,13 0.4,20.4 -3.7,-0.5 -8.3,-1.4 -11.9,-1.9 -3.3,-0.4 -6.6,-0.5 -9.8,-0.1 -8.1,1 -14.9,4.9 -20.9,10.7 -2.2,2.2 -9.9,10.9 -3.1,12.3 9.7,2 24.4,-1.2 33.4,-5.2 2.9,-1.3 5.4,-3.1 8.1,-4.8 1.3,-0.8 2.8,-1.8 3.9,-3.2 -0.7,18.1 -3.2,38.5 -8.4,57.5 l 2.5,0.7 c 5.4,-19.6 7.8,-40.7 8.5,-59.3 0.2,0.3 0.5,0.6 0.7,0.9 1.7,2 3.9,4 6.2,5.3 16.7,9.2 42.7,-0.6 36,-6.5 z"
       id="path161"
       inkscape:connector-curvature="0"
       style="fill:#006837" /><g
       id="g183"><path
         class="st24"
         d="m 1264.5,738.5 c 0,0 16.2,-77.3 -71.5,-122.2 0,0 -1.6,33.7 9.3,57.2 12,27.2 42.4,57.2 62.2,65 z"
         id="path163"
         inkscape:connector-curvature="0"
         style="fill:#22b573" /><path
         class="st25"
         d="m 1201.8,671.7 c 0,0 -0.3,-37.8 10.1,-71.6 0,0 -14,7.6 -18.9,16.1 -4.9,8.6 2.9,44.3 8.8,55.5 z"
         id="path165"
         inkscape:connector-curvature="0"
         style="fill:#136660" /><path
         class="st24"
         d="m 1248.7,688.2 c 0,0 -23.8,-34.4 28.5,-98 0,0 20,39.3 8.5,72.1 z"
         id="path167"
         inkscape:connector-curvature="0"
         style="fill:#22b573" /><path
         class="st25"
         d="m 1262,737.5 c 0,0 -17.4,-42.1 -18.4,-64.5 4.2,-19.5 31.3,-33.8 74.5,-63.6 0,0 -15.7,79.8 -56.1,128.1 z"
         id="path169"
         inkscape:connector-curvature="0"
         style="fill:#136660" /><path
         class="st25"
         d="m 1276.1,681.7 c 0,0 40.6,2 101.7,-3.6 0,0 -19.6,-16.1 -29,-16.7 -36.3,-2.4 -72.7,20.3 -72.7,20.3 z m -108.8,-7.6 c 0,0 58.5,-17.4 94.2,63.5 z"
         id="path171"
         inkscape:connector-curvature="0"
         style="fill:#136660" /><path
         class="st24"
         d="m 1167.3,672.2 c 0,0 -20.5,4.3 -38.9,26.5 l 109.6,0.4 c 0.1,0 -23.4,-37.5 -70.7,-26.9 z m 95.2,66.1 c 0,0 54.9,-79.9 128.4,-28 0,0 -74.8,52.4 -128.4,28 z"
         id="path173"
         inkscape:connector-curvature="0"
         style="fill:#22b573" /><path
         class="st25"
         d="m 1262.3,738.1 93.3,-43.8 c 0,0 -67.1,-19.8 -93.3,43.8 z"
         id="path175"
         inkscape:connector-curvature="0"
         style="fill:#136660" /><path
         class="st24"
         d="m 1265.5,685.7 c 0,0 -10.3,13.7 -2.8,52.4 0,0 33.7,-61.6 87.5,-76.5 0,0 -35.2,-9.9 -84.7,24.1 z"
         id="path177"
         inkscape:connector-curvature="0"
         style="fill:#22b573" /><path
         class="st24"
         d="m 1298.5,668 16.6,-74.9 c 0,0 7.1,12.5 5.1,31.8 -2.9,10.7 -9.4,24.8 -21.7,43.1 z m -35.6,70.6 c 0,0 -70.6,32 -118.2,-15.6 0,0 29.3,-18.2 58.7,-17.1 0.1,-0.1 34.1,-2.5 59.5,32.7 z"
         id="path179"
         inkscape:connector-curvature="0"
         style="fill:#22b573" /><path
         class="st25"
         d="m 1144.8,723 c 0,0 24.7,-13.3 42.4,-16.1 0,0 -12.4,18.3 -27.6,28.1 0,0 -11.6,-6.5 -14.8,-12 z"
         id="path181"
         inkscape:connector-curvature="0"
         style="fill:#136660" /></g></g></svg>