<?xml version="1.0" encoding="UTF-8" standalone="no"?>
<svg
   xmlns:dc="http://purl.org/dc/elements/1.1/"
   xmlns:cc="http://creativecommons.org/ns#"
   xmlns:rdf="http://www.w3.org/1999/02/22-rdf-syntax-ns#"
   xmlns:svg="http://www.w3.org/2000/svg"
   xmlns="http://www.w3.org/2000/svg"
   xmlns:sodipodi="http://sodipodi.sourceforge.net/DTD/sodipodi-0.dtd"
   xmlns:inkscape="http://www.inkscape.org/namespaces/inkscape"
   viewBox="0 0 299.99999 737.3"
   xml:space="preserve"
   version="1.1"
   id="svg452"
   sodipodi:docname="generalBR.svg"
   width="300"
   height="737.29999"
   inkscape:version="0.92.4 (5da689c313, 2019-01-14)"><metadata
     id="metadata458"><rdf:RDF><cc:Work
         rdf:about=""><dc:format>image/svg+xml</dc:format><dc:type
           rdf:resource="http://purl.org/dc/dcmitype/StillImage" /><dc:title></dc:title></cc:Work></rdf:RDF></metadata><defs
     id="defs456"><linearGradient
       id="SVGID_00000149361014695701132240000014843717937665229445_"
       gradientUnits="userSpaceOnUse"
       x1="1143.704"
       y1="600.58002"
       x2="1387.35"
       y2="600.58002"><stop
         offset="0"
         style="stop-color:#2d75be"
         id="stop248" /><stop
         offset="1"
         style="stop-color:#25c7a1"
         id="stop250" /></linearGradient></defs><sodipodi:namedview
     pagecolor="#ffffff"
     bordercolor="#666666"
     borderopacity="1"
     objecttolerance="10"
     gridtolerance="10"
     guidetolerance="10"
     inkscape:pageopacity="0"
     inkscape:pageshadow="2"
     inkscape:window-width="1920"
     inkscape:window-height="1016"
     id="namedview454"
     showgrid="false"
     inkscape:zoom="0.95920617"
     inkscape:cx="726.2"
     inkscape:cy="369.44999"
     inkscape:window-x="0"
     inkscape:window-y="36"
     inkscape:window-maximized="1"
     inkscape:current-layer="RH_images" /><style
     id="style2">.st0{fill:#ededed;stroke:#25c7a1;stroke-miterlimit:10}.st1{fill:#2d75be}.st2{fill:#555d68}.st3{fill:#fff;stroke:#555d68;stroke-miterlimit:10}.st4{fill:#ededed}.st13{fill:#b75742}.st14{fill:#184655}.st15{fill:#00a1d9}.st16{fill:#f47458}.st17{fill:#13375b}.st18{fill:#3c8f7c}.st19{fill:#f7cc7f}.st21{fill:#355389}.st22{fill:#466eb6}.st23{fill:#50bfa5}.st24{fill:#12373f}.st26{fill:#ba4044}.st29{fill:#96d9c9}.st30{fill:#ccc}.st31{fill:#fff}.st32{fill:#e6e6e6}.st35{fill:#6c8c47}.st36{fill:#007d3b}.st38{fill:#aac48f}.st40,.st41,.st43,.st45,.st51{fill-rule:evenodd;clip-rule:evenodd;fill:#8c5529}.st41,.st43,.st45,.st51{fill:#355389}.st43,.st45,.st51{fill:#fff}.st45,.st51{fill:#bed99d}.st51{fill:#adb8a2}.st58{fill:#d97759}.st59,.st60,.st61,.st63,.st64{fill-rule:evenodd;clip-rule:evenodd;fill:#d97759}.st60,.st61,.st63,.st64{fill:#e67e5e}.st61,.st63,.st64{fill:#523424}.st63,.st64{fill:#5c3420}.st64{fill:#6c8c47}.st70{fill:none;stroke:#c4c0bb;stroke-width:.9243;stroke-linecap:round;stroke-linejoin:round;stroke-miterlimit:10}.st71{fill:#009fd7}</style><g
     id="LH_images"><g
       transform="translate(-1088.8724,-4.5321887)"
       id="RH_images"><path
         d="m 1205,541.9 c 0,0 -15.4,-63.9 -110,-43.3 0,0 39.2,84.3 110,43.3 z"
         style="fill:#bed99d"
         id="path232"
         inkscape:connector-curvature="0" /><path
         d="m 1231.8,545.2 c 0,0 8.6,-96.2 -122.5,-113.6 0,0 12.9,136.2 122.5,113.6 z"
         style="fill:#b0c98f"
         id="path234"
         inkscape:connector-curvature="0" /><path
         class="st35"
         d="m 1212.8,529.2 c 0,0.1 -0.1,0.3 -0.2,0.4 -0.3,0.3 -0.7,0.3 -1,0.1 l -84.4,-81.6 c -0.3,-0.3 -0.3,-0.7 0,-1 0.3,-0.3 0.7,-0.3 1,-0.1 l 84.4,81.6 c 0.2,0.1 0.3,0.3 0.2,0.6 z"
         id="path236"
         inkscape:connector-curvature="0"
         style="fill:#6c8c47" /><path
         class="st35"
         d="m 1149.3,467.2 c -0.1,0.3 -0.3,0.6 -0.6,0.7 -0.4,0.1 -0.7,-0.2 -0.8,-0.6 l -2.4,-22.7 c 0,-0.4 0.2,-0.8 0.6,-0.9 0.4,-0.1 0.7,0.2 0.8,0.6 l 2.4,22.7 z m 18.8,19.7 c -0.1,0.4 -0.4,0.6 -0.7,0.7 -0.4,0 -0.7,-0.3 -0.7,-0.7 l 0.8,-33.1 c 0,-0.4 0.3,-0.7 0.7,-0.8 0.4,0 0.7,0.3 0.7,0.7 l -0.8,33.1 z"
         id="path238"
         inkscape:connector-curvature="0"
         style="fill:#6c8c47" /><path
         class="st35"
         d="m 1149.3,467.2 c -0.1,0.3 -0.3,0.6 -0.7,0.7 l -24.5,2.9 c -0.4,0 -0.7,-0.2 -0.7,-0.6 0,-0.4 0.3,-0.8 0.7,-0.8 l 24.5,-2.9 c 0.4,0 0.7,0.2 0.7,0.6 z m 18.8,19.7 c -0.1,0.3 -0.3,0.6 -0.6,0.7 l -32.2,5.4 c -0.4,0.1 -0.7,-0.2 -0.7,-0.6 0,-0.4 0.3,-0.8 0.7,-0.8 l 32.2,-5.4 c 0.4,-0.1 0.7,0.2 0.7,0.6 -0.1,0 -0.1,0 -0.1,0.1 z m 20.5,20.8 c -0.1,0.3 -0.3,0.6 -0.6,0.7 l -32.2,5.4 c -0.4,0.1 -0.7,-0.2 -0.7,-0.6 0,-0.4 0.3,-0.8 0.7,-0.8 L 1188,507 c 0.4,-0.1 0.7,0.2 0.7,0.6 0,0 -0.1,0 -0.1,0.1 z m 0.1,-3.1 c -0.1,0.4 -0.4,0.6 -0.7,0.7 -0.4,0 -0.7,-0.3 -0.7,-0.7 l 0.8,-33.1 c 0,-0.4 0.3,-0.7 0.7,-0.8 0.4,0 0.7,0.3 0.7,0.7 l -0.8,33.1 z"
         id="path240"
         inkscape:connector-curvature="0"
         style="fill:#6c8c47" /><ellipse
         class="st14"
         cx="1262"
         cy="722.29999"
         rx="92.199997"
         ry="7.5"
         id="ellipse242"
         style="fill:#184655" /><path
         class="st36"
         d="m 1316.9,501.6 c 12.8,10.2 15.8,21.7 16.1,29.5 3.2,-9.4 6.7,-18.2 10.2,-26.1 -24.8,-18.1 -12,-36.9 -12,-36.9 12.3,10.1 15.2,21.3 15.6,29 V 497 c 5,-10.6 10.1,-20 14.6,-27.9 -22.5,-23.1 -5.8,-39.6 -5.8,-39.6 11,13.4 11,26 9.4,33.5 4.9,-8.2 8.9,-14 10.7,-16.6 9.5,-25.2 31.1,-25.9 31.1,-25.9 -5.9,24.5 -20.4,27.4 -27.4,27.2 -1.4,2 -5.7,8.2 -11.2,17.4 19.6,-10 34.7,-0.1 34.7,-0.1 -19.2,17 -32.9,10.5 -38.4,6.4 -4.4,7.7 -9.4,16.9 -14.3,27.3 l -1.5,3.3 c 17.9,-15.3 35.7,-8.1 35.7,-8.1 -16.9,22.1 -32.7,15.8 -37.8,12.9 -3.7,8.3 -7.4,17.6 -10.6,27.6 17.3,-14.6 34.6,-7.9 34.6,-7.9 -15.5,21 -30.5,17 -36.6,14.1 -6.6,21.6 -11.1,45.7 -9.6,69.6 0.1,1 -0.7,1.9 -1.8,2 -0.2,0 -0.4,0 -0.6,-0.1 -0.8,-0.2 -1.3,-0.9 -1.4,-1.7 -1.5,-24.6 3.1,-49.4 10,-71.5 -26.5,-17.8 -13.7,-37.3 -13.7,-37.3 z"
         id="path244"
         inkscape:connector-curvature="0"
         style="fill:#007d3b" /><path
         class="st36"
         d="m 1341.6,538 c 9.2,13.6 8.5,25.5 6.5,33 5.9,-8 11.9,-15.3 17.6,-21.8 -18.2,-24.8 -0.3,-38.8 -0.3,-38.8 8.6,13.3 8.1,24.9 6.1,32.4 l 0.1,-0.1 c 8,-8.6 15.7,-16.1 22.4,-22.2 -14.5,-28.8 6.4,-39.5 6.4,-39.5 6.5,16.1 2.6,28.1 -1.2,34.8 7.2,-6.3 12.7,-10.7 15.2,-12.6 16.6,-21.2 37.4,-15.3 37.4,-15.3 -13,21.6 -27.7,19.9 -34.4,17.7 -2,1.5 -7.9,6.1 -15.9,13.2 21.7,-3.7 33.2,10.3 33.2,10.3 -23.5,10.4 -34.6,0.1 -38.6,-5.5 -6.6,6 -14.1,13.3 -21.8,21.7 l -2.4,2.7 c 21.7,-9.2 36.4,3 36.4,3 -22.8,15.9 -36,5.2 -40,0.9 -6,6.8 -12.3,14.6 -18.5,23.1 20.9,-8.7 35.4,2.9 35.4,2.9 -21.1,15.4 -34.2,7 -39.1,2.5 -12.8,18.6 -24.3,40.2 -30.2,63.4 a 2,2 0 0 1 -2.3,1.4 c -0.2,-0.1 -0.4,-0.1 -0.6,-0.2 -0.7,-0.4 -1,-1.2 -0.8,-2 6,-23.9 17.9,-46.2 31,-65.2 -19.7,-25.2 -1.6,-39.8 -1.6,-39.8 z"
         id="path246"
         inkscape:connector-curvature="0"
         style="fill:#007d3b" /><linearGradient
         id="linearGradient483"
         gradientUnits="userSpaceOnUse"
         x1="1143.704"
         y1="600.58002"
         x2="1387.35"
         y2="600.58002"><stop
           offset="0"
           style="stop-color:#2d75be"
           id="stop479" /><stop
           offset="1"
           style="stop-color:#25c7a1"
           id="stop481" /></linearGradient><circle
         style="fill:url(#SVGID_00000149361014695701132240000014843717937665229445_)"
         cx="1265.5"
         cy="600.59998"
         r="121.8"
         id="circle253" /><path
         class="st38"
         d="m 1364.9,530.1 c -5.4,-0.9 -60.7,-8.9 -70.5,20.3 -10.2,30.6 -35.9,25.5 -27.1,57.1 8.8,31.6 33.2,50 63.8,45.9 35.2,-4.7 -32.1,47.5 -5.6,53.2 58.7,-32.2 82.8,-112.7 39.4,-176.5 z"
         id="path255"
         inkscape:connector-curvature="0"
         style="fill:#aac48f" /><path
         d="m 1199.1,498.4 c 0,0 53.2,-3.1 55.4,16.3 2.2,19.4 -11.3,16.1 -28.9,27.3 -17.6,11.2 -25.4,2.3 -35.4,19.3 -10,17 -42.5,8.3 -42.5,8.3 0,0 6.9,-42.2 51.4,-71.2 z"
         style="fill:#9bb382"
         id="path257"
         inkscape:connector-curvature="0" /><path
         class="st38"
         d="m 1146.2,623 c 0,0 39.1,-8.4 53.4,19.1 14.3,27.5 25.5,16.3 34.7,28.6 2.6,3.4 2.3,8 0.7,12.7 -6.5,18.2 -28.7,25.1 -44.6,14.2 -16.2,-11.1 -35.3,-32.7 -44.2,-74.6 z"
         id="path259"
         inkscape:connector-curvature="0"
         style="fill:#aac48f" /><g
         id="g307"><path
           class="st40"
           d="m 1382.8,629.7 c 1.3,3.2 0.6,6.6 -2.9,8.6 l -18.7,6 0.3,-4.1 13.2,-6.7 z"
           id="path261"
           inkscape:connector-curvature="0"
           style="clip-rule:evenodd;fill:#8c5529;fill-rule:evenodd" /><path
           class="st41"
           d="m 1370.2,603.3 c 4.7,2 16.3,26.9 16.1,29.1 -0.1,2.4 -14.6,12.6 -14.6,12.6 l -9.2,-5.6 c 0,0 13.1,-7 12.4,-8.1 -0.7,-1.1 -10.4,-16.5 -10.4,-16.5 z"
           id="path263"
           inkscape:connector-curvature="0"
           style="clip-rule:evenodd;fill:#355389;fill-rule:evenodd" /><path
           style="clip-rule:evenodd;fill:#e04f31;fill-rule:evenodd"
           d="m 1313.6,583.2 -14,-2.9 8.3,11.4 z"
           id="path265"
           inkscape:connector-curvature="0" /><path
           class="st43"
           d="m 1313.6,583.2 -9.4,-2 c -1.5,0.4 -2.1,1.4 -1.6,3.1 l 5.4,7.5 z"
           id="path267"
           inkscape:connector-curvature="0"
           style="clip-rule:evenodd;fill:#ffffff;fill-rule:evenodd" /><path
           d="m 1389,641.2 c 1.8,-2.3 0.7,-6 -2.3,-8.1 l -72.2,-49.6 c -3,-2.1 -9.4,6.4 -6.4,8.5 l 72.2,49.6 c 3,2.2 6.9,2 8.7,-0.4 z"
           style="fill:#e3a44d"
           id="path269"
           inkscape:connector-curvature="0" /><path
           class="st45"
           d="m 1387,639.3 c 1.5,-2.5 1.7,-5 0.4,-5.7 -1.2,-0.6 -3.4,0.9 -4.9,3.4 -1.5,2.5 -1.7,5 -0.4,5.7 1.3,0.6 3.4,-0.9 4.9,-3.4 z"
           id="path271"
           inkscape:connector-curvature="0"
           style="clip-rule:evenodd;fill:#bed99d;fill-rule:evenodd" /><path
           class="st45"
           d="m 1387.5,633.6 6.1,4.2 -5.9,8.7 -5.7,-4 z"
           id="path273"
           inkscape:connector-curvature="0"
           style="clip-rule:evenodd;fill:#bed99d;fill-rule:evenodd" /><path
           style="clip-rule:evenodd;fill:none;fill-rule:evenodd;stroke:#ffcd87;stroke-width:0.79159999;stroke-miterlimit:10"
           d="m 1310.2,585.2 73,50.4"
           id="path275"
           inkscape:connector-curvature="0" /><path
           class="st40"
           d="m 1355.9,727.2 c 0,0 4.3,-28.5 -1.2,-39.8 l 3,-38.7 -18,1.2 11.1,77.6 z m -4.6,-133 c 0,0 0.5,3.6 0.9,6.5 0.1,0.8 0.7,1.5 1.6,1.8 0.9,0.3 1.8,0.2 2.6,-0.3 0.2,-0.2 0.5,-0.3 0.7,-0.5 1,-0.7 1.5,-1.8 1.2,-2.8 -0.7,-2.7 -2.1,-7.7 -2.1,-7.7 z"
           id="path277"
           inkscape:connector-curvature="0"
           style="clip-rule:evenodd;fill:#8c5529;fill-rule:evenodd" /><path
           style="clip-rule:evenodd;fill:#704421;fill-rule:evenodd"
           d="m 1351.4,596.1 0.5,2.2 2.1,-2.1 z"
           id="path279"
           inkscape:connector-curvature="0" /><path
           class="st40"
           d="m 1357.5,590.4 c 0.3,-1 -0.2,-2.1 -1.2,-2.4 -1.1,-0.4 -2.4,-0.8 -3.4,-1.2 -1,-0.3 -1.9,0.3 -2.4,1.2 -0.6,1.1 -1.2,3.6 -1.5,5.4 -0.1,1 0.3,2.2 1.3,2.5 1.1,0.4 4.6,0.4 5.5,-1.4 0.8,-1.3 1.2,-2.6 1.7,-4.1 z"
           id="path281"
           inkscape:connector-curvature="0"
           style="clip-rule:evenodd;fill:#8c5529;fill-rule:evenodd" /><path
           d="m 1355.5,595.6 c 3,-0.2 5.1,-3.1 4.3,-6 -0.2,-0.6 -0.4,-1.2 -0.7,-1.5 -1.7,-2.4 -4.3,-3.9 -7.8,-1.9 0,0 -0.3,4.8 4.2,9.4 z"
           style="clip-rule:evenodd;fill:#1b2836;fill-rule:evenodd"
           id="path283"
           inkscape:connector-curvature="0" /><path
           class="st40"
           d="m 1354.3,593.2 c -0.5,0.7 -1.4,0.9 -2,0.4 -0.6,-0.4 -0.6,-1.4 0,-2 0.5,-0.7 1.4,-0.9 2,-0.4 0.5,0.4 0.6,1.3 0,2 z m 14.9,97.8 16.7,31 c 3.2,1.2 4.9,-1.7 4,-4.8 -3.8,-13.1 -3.6,-20 -14.4,-31.7 z"
           id="path285"
           inkscape:connector-curvature="0"
           style="clip-rule:evenodd;fill:#8c5529;fill-rule:evenodd" /><path
           class="st51"
           d="m 1353.2,653.3 9.9,32.3 c 0.4,1.5 1.3,3.7 2,5.1 l 15.9,28.1 8.4,-4.8 c -2.1,-13.5 -5,-19.8 -12.5,-33.6 l -4.8,-30.5 -8.5,0.3 z"
           id="path287"
           inkscape:connector-curvature="0"
           style="clip-rule:evenodd;fill:#adb8a2;fill-rule:evenodd" /><path
           d="m 1358.2,651.8 9.6,31.5 c 0.4,1.5 1.3,3.7 2,5.1 l 15.7,27.8 -4.6,2.7 -15.9,-28.1 c -0.7,-1.4 -1.6,-3.6 -2,-5.1 l -9.9,-32.3 z"
           style="clip-rule:evenodd;fill:#99a390;fill-rule:evenodd"
           id="path289"
           inkscape:connector-curvature="0" /><path
           d="m 1320.1,600.1 -1.7,-3.2 c -0.3,-0.6 -0.9,-1.1 -1.5,-1.4 l -2.7,-1.1 c -0.9,-0.4 -2,0.3 -2,1.3 l 2.3,3.9 c 0.5,0.9 1.4,1.5 2.4,1.9 l 1.7,0.6 z"
           style="fill:#8c5529"
           id="path291"
           inkscape:connector-curvature="0" /><path
           d="m 1347.8,600.1 c 0,0 -23.3,14.5 -22.2,17.6 l 0.5,1.4 c 0.6,1.8 2.8,2.5 4.3,1.5 l 11.8,-7.7 2.3,-1.4 z"
           style="clip-rule:evenodd;fill:#b06052;fill-rule:evenodd"
           id="path293"
           inkscape:connector-curvature="0" /><path
           class="st51"
           d="m 1365.4,629.5 -24.7,1.9 c -4,1.5 -2.4,24.6 -2.4,24.6 l 16.2,0.8 c 7.7,-0.1 17,1 17.4,-6.8 0.7,-14.5 -6.5,-20.5 -6.5,-20.5 z"
           id="path295"
           inkscape:connector-curvature="0"
           style="clip-rule:evenodd;fill:#adb8a2;fill-rule:evenodd" /><path
           class="st41"
           d="m 1347.8,600.1 9.1,-1.1 2.5,0.1 9.4,3.3 c 3.2,1.6 4.7,5.3 3.4,8.6 l 0.7,7 c 2,8.2 0.2,20 0.7,28.4 -13.4,5 -33.6,4.2 -37.8,-1.9 0.4,-8.8 0.2,-22.9 2.1,-30.4 1.8,-6.7 6.9,-8.9 9.9,-14 z"
           id="path297"
           inkscape:connector-curvature="0"
           style="clip-rule:evenodd;fill:#355389;fill-rule:evenodd" /><path
           class="st41"
           d="m 1316.1,603.6 4.7,-3.2 8.8,10.5 15.1,-9.6 c 0,0 1.6,-1 3.1,-1.2 1.4,-0.2 -1.3,14 -1.3,14 l -13.3,9.2 c 0,0 -6.6,1 -9.1,-4 -2.5,-4.9 -8,-15.7 -8,-15.7 z"
           id="path299"
           inkscape:connector-curvature="0"
           style="clip-rule:evenodd;fill:#355389;fill-rule:evenodd" /><path
           d="m 1350.5,726.2 -2.5,2.4 c -0.7,0.6 -4.5,1.9 -4.5,1.9 -0.4,0.8 0.4,1.2 1,1.3 l 11.3,-0.2 c 0,0 2.6,-0.5 0.3,-5.6 -2,1 -5,1.8 -5.6,0.2 z"
           style="clip-rule:evenodd;fill:#572a22;fill-rule:evenodd"
           id="path301"
           inkscape:connector-curvature="0" /><path
           class="st51"
           d="m 1338.3,655.9 4.2,32.8 5.5,32.9 h 13.2 c 0,0 -1.2,-5.7 -1.1,-7.5 0.1,-1.8 0.6,-19 -3.4,-26.9 L 1357,655 Z"
           id="path303"
           inkscape:connector-curvature="0"
           style="clip-rule:evenodd;fill:#adb8a2;fill-rule:evenodd" /><path
           style="clip-rule:evenodd;fill:none;fill-rule:evenodd;stroke:#737a6c;stroke-width:0.47839999;stroke-linecap:round;stroke-linejoin:round;stroke-miterlimit:10"
           d="m 1363,656.7 -5.8,0.2"
           id="path305"
           inkscape:connector-curvature="0" /></g><path
         d="m 1255,566.8 c 0,0 -25.7,-24.4 -40,-14 -29.7,21.6 54,70.5 54,70.5 0,0 47.9,-72 19.6,-86.9 -20.3,-10.7 -33.6,30.4 -33.6,30.4 z"
         style="fill:none;stroke:#cc6e4f;stroke-width:3.80209994;stroke-linecap:round;stroke-linejoin:round;stroke-miterlimit:10"
         id="path309"
         inkscape:connector-curvature="0" /><g
         id="g365"><path
           class="st58"
           d="m 1129.7,574.1 c -3.1,6.1 -4,8.6 -6.9,14.8 l -4.7,0.6 c 4.1,-13.3 2.6,-17.4 6.8,-21.5 6.3,0.5 5.2,4.5 4.8,6.1 z"
           id="path311"
           inkscape:connector-curvature="0"
           style="fill:#d97759" /><path
           class="st58"
           d="m 1122.9,588.7 -1.9,2.9 c -0.4,0.6 -1,1 -1.6,1.2 l -2.7,0.7 c -0.9,0.3 -1.8,-0.5 -1.8,-1.5 l 2.6,-3.5 c 0.6,-0.8 1.5,-1.3 2.5,-1.6 l 1.7,-0.4 z"
           id="path313"
           inkscape:connector-curvature="0"
           style="fill:#d97759" /><path
           class="st59"
           d="m 1142.5,553.7 c 0.9,-0.2 1.5,0.8 1,1.5 -3.9,5.4 -14.4,19.4 -16.7,18.3 l -1.3,-0.5 c -1.7,-0.7 -2.3,-2.8 -1.2,-4.3 l 8.1,-10.9 1.5,-2.2 z"
           id="path315"
           inkscape:connector-curvature="0"
           style="clip-rule:evenodd;fill:#d97759;fill-rule:evenodd" /><path
           class="st31"
           d="m 1144.6,553 c 0.2,4.1 -4.8,9.5 -8.3,14.8 l -10,-6.2 14.1,-15.6 z"
           id="path317"
           inkscape:connector-curvature="0"
           style="fill:#ffffff" /><path
           class="st60"
           d="m 1160.7,673.1 c 0,0 -9.5,-26.3 -6.4,-38 l -10.2,-36.1 17.3,-2.2 3.2,75.8 z"
           id="path319"
           inkscape:connector-curvature="0"
           style="clip-rule:evenodd;fill:#e67e5e;fill-rule:evenodd" /><path
           class="st61"
           d="m 1164.3,671.4 3.5,2.4 c 0.7,0.6 4.4,1.7 4.4,1.7 0.4,0.8 -0.3,1.2 -0.9,1.3 l -11,0.1 c 0,0 -2.9,-0.1 -0.8,-5.1 2.1,0.8 4.3,1.1 4.8,-0.4 z"
           id="path321"
           inkscape:connector-curvature="0"
           style="clip-rule:evenodd;fill:#523424;fill-rule:evenodd" /><path
           class="st60"
           d="m 1132.5,672.7 c 0,0 -4,-27.6 1.4,-38.5 l -0.7,-35.2 15.5,-0.9 -12.2,74.9 z"
           id="path323"
           inkscape:connector-curvature="0"
           style="clip-rule:evenodd;fill:#e67e5e;fill-rule:evenodd" /><path
           class="st59"
           d="m 1157,542.2 c 0,0 -0.7,3.4 -1.4,6.2 -0.2,0.7 -0.7,1.4 -1.4,1.6 -0.7,0.2 -1.5,0 -2.1,-0.5 -0.2,-0.2 -0.4,-0.3 -0.5,-0.5 -0.8,-0.7 -1,-1.8 -0.7,-2.8 0.8,-2.6 2.4,-7.2 2.4,-7.2 z"
           id="path325"
           inkscape:connector-curvature="0"
           style="clip-rule:evenodd;fill:#d97759;fill-rule:evenodd" /><path
           style="clip-rule:evenodd;fill:#873b24;fill-rule:evenodd"
           d="m 1156.6,544 -0.6,2 -1.6,-2.2 z"
           id="path327"
           inkscape:connector-curvature="0" /><path
           class="st59"
           d="m 1153.7,537.7 c 0.1,-1 1,-1.8 2,-1.7 1.1,0.1 2.4,0.2 3.5,0.3 1,0.1 1.6,1 1.7,2 0.1,1.2 -0.3,3.6 -0.8,5.4 -0.3,1 -1.1,1.8 -2.1,1.7 -1.1,-0.1 -4.2,-1.4 -4.3,-3.4 -0.3,-1.4 -0.1,-2.8 0,-4.3 z"
           id="path329"
           inkscape:connector-curvature="0"
           style="clip-rule:evenodd;fill:#d97759;fill-rule:evenodd" /><path
           class="st63"
           d="m 1149.1,540.9 c 0,0 2.1,-4.8 3.9,-5.8 2.5,-1.4 5.4,-1.8 7.7,1.4 0,0 -1.6,4.3 -7.4,6.7 z"
           id="path331"
           inkscape:connector-curvature="0"
           style="clip-rule:evenodd;fill:#5c3420;fill-rule:evenodd" /><path
           class="st59"
           d="m 1155.5,541.4 c 0.2,0.8 0.9,1.3 1.6,1.1 0.7,-0.2 1,-1 0.8,-1.8 -0.2,-0.8 -0.9,-1.3 -1.6,-1.1 -0.7,0.2 -1.1,1 -0.8,1.8 z"
           id="path333"
           inkscape:connector-curvature="0"
           style="clip-rule:evenodd;fill:#d97759;fill-rule:evenodd" /><path
           class="st64"
           d="m 1137.7,578.1 23.8,2 c 3.9,1.4 2.2,23.8 2.2,23.8 l -15.7,0.6 c -7.5,-0.2 -14.8,0 -15.1,-7.6 -0.5,-13.9 4.8,-18.8 4.8,-18.8 z"
           id="path335"
           inkscape:connector-curvature="0"
           style="clip-rule:evenodd;fill:#6c8c47;fill-rule:evenodd" /><path
           class="st43"
           d="m 1159.9,549.4 -10.6,-3.2 -0.4,1 -4.3,1 c -3.2,1.1 -4.5,3.1 -6.3,8.2 0,0 -5.9,24.5 -6.4,32.6 12.3,6.3 28.7,8 33.4,2.6 1,-12.7 -0.8,-21.6 -0.6,-34.8 0,-2.9 -3.7,-5 -4.8,-7.4 z"
           id="path337"
           inkscape:connector-curvature="0"
           style="clip-rule:evenodd;fill:#ffffff;fill-rule:evenodd" /><path
           class="st61"
           d="m 1136.4,671.6 3.4,2.5 c 0.7,0.6 4.4,1.9 4.4,1.9 0.4,0.8 -0.4,1.2 -1,1.3 l -11,-0.3 c 0,0 -2.5,-0.5 -0.3,-5.4 2.1,0.9 4,1.5 4.5,0 z"
           id="path339"
           inkscape:connector-curvature="0"
           style="clip-rule:evenodd;fill:#523424;fill-rule:evenodd" /><path
           class="st64"
           d="m 1149.9,603.9 -4.2,31.7 -5.5,31.7 -12.8,-0.1 c 0,0 1.2,-5.5 1.1,-7.3 -0.1,-1.8 -0.5,-18.4 3.5,-26 l 1,-36.3 z"
           id="path341"
           inkscape:connector-curvature="0"
           style="clip-rule:evenodd;fill:#6c8c47;fill-rule:evenodd" /><path
           style="clip-rule:evenodd;fill:#516935;fill-rule:evenodd"
           d="m 1149.9,603.9 -4.3,31.6 -5.5,31.8 h -6.3 l 6.5,-31.2 1.6,-31.4 z"
           id="path343"
           inkscape:connector-curvature="0" /><path
           style="clip-rule:evenodd;fill:none;fill-rule:evenodd;stroke:#234714;stroke-width:1.0115;stroke-linecap:round;stroke-linejoin:round;stroke-miterlimit:10"
           d="m 1139.9,604.5 5.5,0.2"
           id="path345"
           inkscape:connector-curvature="0" /><path
           class="st63"
           d="m 1137.7,543.7 c 0.3,-0.5 0.4,-1.2 0.2,-1.8 -1.3,-4.9 5.6,-5.4 7.8,-6 2.3,-0.6 1.4,-4.5 5.7,-4.3 4.3,0.2 4.8,2.7 5,2.7 0.3,0 -1.9,3.5 -1.9,3.5 0,0 -2.1,-0.1 -3.6,3.7 -1.5,3.8 -1.2,6.2 -4.7,8.3 -3.5,2.1 -11.4,-5.4 -11.4,-5.4 1.6,0.6 2.4,0 2.9,-0.7 z"
           id="path347"
           inkscape:connector-curvature="0"
           style="clip-rule:evenodd;fill:#5c3420;fill-rule:evenodd" /><path
           d="m 1156,533.6 c -0.4,0.4 -2,1.9 -2,2"
           style="fill:none;stroke:#ffffff;stroke-width:0.56150001;stroke-linecap:round;stroke-linejoin:round;stroke-miterlimit:10"
           id="path349"
           inkscape:connector-curvature="0" /><path
           style="fill:none;stroke:#bdcfa8;stroke-width:1.05089998;stroke-linecap:round;stroke-linejoin:round;stroke-miterlimit:10"
           d="m 1163.9,567 0.1,-7.6 -1,-0.7"
           id="path351"
           inkscape:connector-curvature="0" /><path
           class="st64"
           d="m 1163.8,602.2 2.3,31.9 1,32.2 -12.5,2.5 c 0,0 0.1,-5.7 -0.4,-7.3 -0.5,-1.6 -4.2,-17.9 -1.9,-26.2 l -7.5,-34.8 z"
           id="path353"
           inkscape:connector-curvature="0"
           style="clip-rule:evenodd;fill:#6c8c47;fill-rule:evenodd" /><path
           d="m 1194.4,576.1 c -0.9,0.4 -1.9,0 -2.3,-0.9 l -4.2,-10 c -0.4,-0.9 0,-1.9 0.9,-2.3 0.9,-0.4 1.9,0 2.3,0.9 l 4.2,10 c 0.4,0.9 0,2 -0.9,2.3 z"
           style="clip-rule:evenodd;fill:#1a3011;fill-rule:evenodd"
           id="path355"
           inkscape:connector-curvature="0" /><path
           class="st58"
           d="m 1171.2,568.2 c 6.8,-0.2 9.4,-0.6 16.3,-1 l 2.8,3.8 c -13.7,2.8 -16.5,6 -22.2,4.3 -2.5,-5.7 1.5,-6.7 3.1,-7.1 z"
           id="path357"
           inkscape:connector-curvature="0"
           style="fill:#d97759" /><path
           class="st58"
           d="m 1187.3,567.3 3.4,0.3 c 0.7,0.1 1.3,0.4 1.8,0.9 l 1.9,2 c 0.7,0.7 0.4,1.9 -0.5,2.2 l -4.3,-0.7 c -0.9,-0.1 -1.9,-0.7 -2.6,-1.5 l -1.2,-1.3 z"
           id="path359"
           inkscape:connector-curvature="0"
           style="fill:#d97759" /><path
           class="st59"
           d="m 1159.7,551.6 c 0.2,-0.9 1.3,-1.1 1.8,-0.3 3.5,5.7 12.4,20.7 10.5,22.5 l -1,1 c -1.3,1.3 -3.5,1 -4.4,-0.5 l -7,-11.7 -1.4,-2.2 z"
           id="path361"
           inkscape:connector-curvature="0"
           style="clip-rule:evenodd;fill:#d97759;fill-rule:evenodd" /><path
           class="st31"
           d="m 1159.9,549.4 c 3.9,1.4 6.9,8.1 10.4,13.4 l -9.6,6.8 -7.5,-10.5 z"
           id="path363"
           inkscape:connector-curvature="0"
           style="fill:#ffffff" /></g><g
         id="g377"><ellipse
           class="st14"
           cx="1149.9"
           cy="732.29999"
           rx="38.200001"
           ry="3.4000001"
           id="ellipse367"
           style="fill:#184655" /><path
           class="st14"
           d="m 1176.3,732.3 h 3.2 l -11.9,-50.1 h -3.3 z m -26.3,0 h 3.2 l -11.9,-50.1 h -3.2 z"
           id="path369"
           inkscape:connector-curvature="0"
           style="fill:#184655" /><path
           class="st14"
           d="m 1141.7,689.5 h 27.3 v 2.7 h -27.3 z m 2.5,13.4 h 27.3 v 2.7 h -27.3 z m 3.6,12.5 h 27.3 v 2.7 h -27.3 z m -28.3,16.9 h -3.3 l 12,-50.1 h 3.2 z"
           id="path371"
           inkscape:connector-curvature="0"
           style="fill:#184655" /><path
           class="st14"
           d="m 1145.8,732.3 h -3.3 l 12,-50.1 h 3.2 z"
           id="path373"
           inkscape:connector-curvature="0"
           style="fill:#184655" /><path
           class="st14"
           d="m 1126.7,689.5 h 27.3 v 2.7 h -27.3 z m -2.4,13.4 h 27.3 v 2.7 h -27.3 z m -3.7,12.5 h 27.3 v 2.7 h -27.3 z m 47.9,-30.7 h -41.2 c -2.1,0 -3.9,-1.7 -3.9,-3.9 0,-2.1 1.7,-3.9 3.9,-3.9 h 41.2 c 2.1,0 3.9,1.7 3.9,3.9 0,2.1 -1.7,3.9 -3.9,3.9 z"
           id="path375"
           inkscape:connector-curvature="0"
           style="fill:#184655" /></g><path
         class="st70"
         d="m 1162.5,567.3 -3.8,-7 m -20.4,-4 -2.1,9"
         id="path379"
         inkscape:connector-curvature="0"
         style="fill:none;stroke:#c4c0bb;stroke-width:0.92430001;stroke-linecap:round;stroke-linejoin:round;stroke-miterlimit:10" /></g></g></svg>