<?xml version="1.0" encoding="UTF-8" standalone="no"?>
<svg
   xmlns:dc="http://purl.org/dc/elements/1.1/"
   xmlns:cc="http://creativecommons.org/ns#"
   xmlns:rdf="http://www.w3.org/1999/02/22-rdf-syntax-ns#"
   xmlns:svg="http://www.w3.org/2000/svg"
   xmlns="http://www.w3.org/2000/svg"
   xmlns:sodipodi="http://sodipodi.sourceforge.net/DTD/sodipodi-0.dtd"
   xmlns:inkscape="http://www.inkscape.org/namespaces/inkscape"
   viewBox="0 0 299.99999 737.3"
   xml:space="preserve"
   version="1.1"
   id="svg452"
   sodipodi:docname="generalBL.svg"
   width="300"
   height="737.29999"
   inkscape:version="0.92.4 (5da689c313, 2019-01-14)"><metadata
     id="metadata458"><rdf:RDF><cc:Work
         rdf:about=""><dc:format>image/svg+xml</dc:format><dc:type
           rdf:resource="http://purl.org/dc/dcmitype/StillImage" /><dc:title></dc:title></cc:Work></rdf:RDF></metadata><defs
     id="defs456" /><sodipodi:namedview
     pagecolor="#ffffff"
     bordercolor="#666666"
     borderopacity="1"
     objecttolerance="10"
     gridtolerance="10"
     guidetolerance="10"
     inkscape:pageopacity="0"
     inkscape:pageshadow="2"
     inkscape:window-width="1920"
     inkscape:window-height="1016"
     id="namedview454"
     showgrid="false"
     inkscape:zoom="0.95920617"
     inkscape:cx="726.2"
     inkscape:cy="369.44999"
     inkscape:window-x="0"
     inkscape:window-y="36"
     inkscape:window-maximized="1"
     inkscape:current-layer="LH_images" /><style
     id="style2">.st0{fill:#ededed;stroke:#25c7a1;stroke-miterlimit:10}.st1{fill:#2d75be}.st2{fill:#555d68}.st3{fill:#fff;stroke:#555d68;stroke-miterlimit:10}.st4{fill:#ededed}.st13{fill:#b75742}.st14{fill:#184655}.st15{fill:#00a1d9}.st16{fill:#f47458}.st17{fill:#13375b}.st18{fill:#3c8f7c}.st19{fill:#f7cc7f}.st21{fill:#355389}.st22{fill:#466eb6}.st23{fill:#50bfa5}.st24{fill:#12373f}.st26{fill:#ba4044}.st29{fill:#96d9c9}.st30{fill:#ccc}.st31{fill:#fff}.st32{fill:#e6e6e6}.st35{fill:#6c8c47}.st36{fill:#007d3b}.st38{fill:#aac48f}.st40,.st41,.st43,.st45,.st51{fill-rule:evenodd;clip-rule:evenodd;fill:#8c5529}.st41,.st43,.st45,.st51{fill:#355389}.st43,.st45,.st51{fill:#fff}.st45,.st51{fill:#bed99d}.st51{fill:#adb8a2}.st58{fill:#d97759}.st59,.st60,.st61,.st63,.st64{fill-rule:evenodd;clip-rule:evenodd;fill:#d97759}.st60,.st61,.st63,.st64{fill:#e67e5e}.st61,.st63,.st64{fill:#523424}.st63,.st64{fill:#5c3420}.st64{fill:#6c8c47}.st70{fill:none;stroke:#c4c0bb;stroke-width:.9243;stroke-linecap:round;stroke-linejoin:round;stroke-miterlimit:10}.st71{fill:#009fd7}</style><g
     id="LH_images"><path
       class="st13"
       d="m 258.6,383.7 3,-0.8 c -0.1,-0.2 -5.8,-23.7 -12,-47 -3.6,-13.7 -6.7,-24.7 -9,-32.7 -4.7,-15.7 -5.7,-16.2 -6.7,-16.5 l -1.2,3 c -0.2,-0.1 -0.3,-0.2 -0.3,-0.2 0.7,0.9 3.7,7.3 14.6,48.7 6,22.8 11.5,45.3 11.6,45.5 z"
       id="path81"
       inkscape:connector-curvature="0"
       style="fill:#b75742" /><path
       class="st14"
       d="m 155.7,383 c 0,0 1.4,-1.1 1.8,-1.5 0.5,-0.5 1.9,-2 1.9,-2 0,0 4.6,-5.5 4.2,-5.8 -0.4,-0.3 -1.7,0.2 -2.2,0.4 -0.4,0.2 -0.9,0.5 -1.3,0.7 -0.4,0.2 -0.9,0.1 -1.2,-0.3 -0.3,-0.5 1.1,-1.8 1.6,-2.1 1.8,-1.1 7.2,-3.1 7.7,-3.3 0.7,-0.3 6.9,-11.3 9.3,-14.9 3.8,-6 7.4,-12.4 7.8,-13.1 l 11.6,-37.9 8.5,7.3 c 0,0 -8.6,32.8 -9.3,34.4 -0.3,0.8 -10.2,14 -10.2,14 -5.3,6.2 -10,11.7 -10.8,12.8 0,0 -1.7,3.9 -2.7,6.5 -1,2.6 -2.9,4.5 -3.2,5.2 -0.1,0.1 -1.2,2.5 -3.7,4.7 -2.1,1.9 -1,-0.9 -1,-0.9 0,0 3.2,-4.3 2.9,-4.5 -0.3,-0.2 -1.9,2.3 -4.2,4.4 -0.6,0.6 -1.2,1.1 -1.7,1.6 -1.4,1.3 -2.6,0.8 -1.3,-0.8 0.4,-0.6 1.2,-1.5 1.9,-2.1 0.7,-0.6 1.1,-1.4 1.6,-2 1,-1.2 1.7,-2.1 1.7,-2.1 -0.1,0 -0.1,-0.4 -0.7,0.2 -0.8,0.7 -2.1,2.5 -3.3,3.4 -0.7,0.5 -2.1,1.7 -2.1,1.7 0,0 -2.4,1.6 -2.6,1.5 -0.7,-0.6 0.7,-2.3 1.7,-2.9 0.5,-0.7 1.9,-1.9 1.9,-1.9 0,0 2.5,-3.1 2,-3.4 -0.4,-0.3 -7.6,5.9 -8.3,5.2 -0.4,-0.5 1.7,-2.5 1.7,-2.5 z"
       id="path83"
       inkscape:connector-curvature="0"
       style="fill:#184655" /><path
       class="st15"
       d="m 175.2,371.7 c 0,0 -1.7,3.9 -2.7,6.5 -1,2.6 -2.9,4.5 -3.2,5.2 -0.1,0.1 -1.2,2.5 -3.7,4.7 -2.1,1.9 -1,-0.9 -1,-0.9 0,0 3.2,-4.3 2.9,-4.5 -0.3,-0.2 -1.9,2.3 -4.2,4.4 -0.6,0.6 -1.2,1.1 -1.7,1.6 -1.4,1.3 -2.6,0.8 -1.3,-0.8 0.4,-0.6 1.2,-1.5 1.9,-2.1 0.7,-0.6 1.1,-1.4 1.6,-2 1,-1.2 1.7,-2.1 1.7,-2.1 -0.1,0 -0.1,-0.4 -0.7,0.2 -0.8,0.7 -2.1,2.5 -3.3,3.4 -0.7,0.5 -2.1,1.7 -2.1,1.7 0,0 -2.4,1.6 -2.6,1.5 -0.7,-0.6 0.7,-2.3 1.7,-2.9 0.5,-0.7 1.9,-1.9 1.9,-1.9 0,0 2.5,-3.1 2,-3.4 -0.4,-0.3 -7.6,5.9 -8.3,5.2 -0.5,-0.6 1.6,-2.5 1.6,-2.5 0,0 1.4,-1.1 1.8,-1.5 0.5,-0.5 1.9,-2 1.9,-2 0,0 4.6,-5.5 4.2,-5.8 -0.4,-0.3 -1.7,0.2 -2.2,0.4 -0.4,0.2 -0.9,0.5 -1.3,0.7 -0.4,0.2 -0.9,0.1 -1.2,-0.3 -0.3,-0.5 1.1,-1.8 1.6,-2.1 1.8,-1.1 7.2,-3.1 7.7,-3.3 m 51.7,22.2 -6.8,62.4 c 0,0 3.3,13.2 2.9,17 -0.4,3.8 -7.3,53 -7.3,53 l 0.3,2.7 0.2,8 -25.9,0.2 c 0,0 5.5,-2.5 13.1,-7.5 0.6,-0.4 1.9,-1.6 2.2,-3.9 2,-15.2 -2,-65.8 -2,-65.8 l -3.2,-65.8 z"
       id="path85"
       inkscape:connector-curvature="0"
       style="fill:#00a1d9" /><path
       class="st15"
       d="m 234.7,403.1 c 1.5,0.4 3.7,54 4.9,56.3 7.6,15.1 9.5,60.8 9.5,60.8 l 3.2,6.4 -0.7,6.2 c 0,0 -5.7,3.4 -9.7,1.1 l 0.6,-6.2 0.5,-8.3 -19.3,-57 -10.7,-58 z"
       id="path87"
       inkscape:connector-curvature="0"
       style="fill:#00a1d9" /><path
       class="st14"
       d="m 187.3,518.1 -4,-82.5 c -1,-23.3 2.6,-45.4 7.2,-66.3 L 200.7,336 c 3.7,2.3 5.1,-16.8 9,-15.9 2.9,0.7 4.9,2.1 7.6,2.5 5.1,0.8 8.8,18.6 14.2,17.8 0,0.6 3.5,3 3.6,3.4 3,12.6 10.1,26.3 14.9,63.6 5.4,42.2 7.9,114.4 7.5,119.3 -38.3,0.8 -47.4,2.7 -70.2,-8.6 z"
       id="path89"
       inkscape:connector-curvature="0"
       style="fill:#184655" /><path
       class="st14"
       d="m 231.6,313.4 c -0.1,-0.1 -0.4,-0.5 -0.5,-0.2 -0.2,0.4 -5.3,38.1 -5.3,38.1 0,0 -20.8,1.7 -25.7,-0.7 0,0 -0.9,-25.2 -2.7,-32.6 -0.7,-2.7 -2.7,-7.1 -1.5,-11.7 0.8,-2.8 2.4,-6.5 3.4,-9.1 1.6,-4.4 2.1,-8.4 3.6,-10.2 0.8,-0.9 10.8,-0.8 12,-0.9 0.5,-0.1 2.5,0.1 4.4,0.2 1.1,0.1 12.4,1 14,1.8"
       id="path91"
       inkscape:connector-curvature="0"
       style="fill:#184655" /><path
       class="st15"
       d="m 220.7,279 c 0,0 -1.6,8.8 -1.2,12.3 0.3,3.5 1.6,4 -5.2,4.1 -6.7,0 -4.9,-1 -4.3,-4.4 0.6,-3.4 1.7,-16.5 1.7,-16.5 z"
       id="path93"
       inkscape:connector-curvature="0"
       style="fill:#00a1d9" /><path
       class="st15"
       d="m 220.8,253.5 c 0,0 3.8,1.4 5.9,5.6 2.1,4.2 2.7,16.1 -5.6,20.6 -8.3,4.5 -13.8,-3.8 -13.3,-11.4 0.5,-7.5 2.9,-17.3 13,-14.8 z"
       id="path95"
       inkscape:connector-curvature="0"
       style="fill:#00a1d9" /><path
       class="st13"
       d="m 228.5,383.5 v 12 c 0,6.2 4.4,11.3 9.8,11.3 h 10.1 v -27.9 h -15.8 c -1.1,0 -2.1,0.5 -2.8,1.3 -0.8,0.8 -1.3,2 -1.3,3.3 z"
       id="path97"
       inkscape:connector-curvature="0"
       style="fill:#b75742" /><path
       class="st16"
       d="m 229.8,380.1 c 2.1,0 3.8,1.9 3.8,4.3 v 8.8 c 0,7.5 5.3,13.5 11.7,13.5 h 6.1 c 6.5,0 11.7,-6 11.7,-13.5 v -8.8 c 0,-3.1 -2.2,-5.7 -4.9,-5.7 h -25.7 c -1,0.2 -2,0.7 -2.7,1.4 z"
       id="path99"
       inkscape:connector-curvature="0"
       style="fill:#f47458" /><path
       class="st14"
       d="m 224.8,302.4 c 0,0 12.8,19 14.7,22.7 1.9,3.7 11.9,-1.6 11.9,-1.6 l -1.6,-3.4 c 0,0 -8.9,-32.2 -19.6,-32.7 -10.8,-0.3 -5.4,15 -5.4,15 z"
       id="path101"
       inkscape:connector-curvature="0"
       style="fill:#184655" /><circle
       class="st14"
       cx="44.099998"
       cy="443"
       r="25.1"
       id="circle103"
       style="fill:#184655" /><path
       class="st15"
       d="m 152.4,591.3 c 0,0 -1.2,-1.3 -1.5,-1.8 -0.4,-0.6 -1.5,-2.3 -1.5,-2.3 0,0 -3.6,-6.4 -3.1,-6.6 0.5,-0.2 1.7,0.5 2.1,0.8 0.4,0.3 0.8,0.6 1.2,1 0.4,0.3 0.9,0.3 1.3,-0.1 0.4,-0.4 -0.7,-2 -1.3,-2.5 -1.6,-1.4 -6.6,-4.4 -7.1,-4.8 -0.6,-0.4 -4.8,-12.6 -6.6,-16.7 -2.7,-6.7 -5.2,-13.8 -5.5,-14.5 l -2.8,-31 -11.8,-3.4 c 0,0 2.6,34.4 3,36.2 0.2,0.8 7.7,16 7.7,15.9 4.2,7.2 7.9,13.6 8.5,14.8 0,0 1,4.3 1.5,7 0.5,2.7 2,5.1 2.3,5.8 0,0.1 0.8,2.7 2.8,5.4 1.7,2.3 1.1,-0.7 1.1,-0.7 0,0 -2.5,-4.9 -2.1,-5 0.3,-0.1 1.5,2.6 3.4,5.2 0.5,0.7 1,1.3 1.4,1.9 1.2,1.6 2.5,1.3 1.5,-0.6 -0.3,-0.6 -0.9,-1.7 -1.5,-2.4 -0.6,-0.7 -0.9,-1.6 -1.3,-2.3 -0.8,-1.4 -1.4,-2.4 -1.3,-2.4 0.1,0 0.1,-0.4 0.7,0.3 0.7,0.8 1.6,2.9 2.7,4 0.6,0.6 1.8,2.1 1.8,2.1 0,0 2.1,2.1 2.3,2 0.8,-0.5 -0.3,-2.4 -1.2,-3.2 -0.3,-0.8 -1.6,-2.3 -1.6,-2.3 0,0 -1.9,-3.5 -1.4,-3.8 0.4,-0.2 6.6,7.3 7.4,6.8 0.6,-0.4 -1.1,-2.8 -1.1,-2.8 z m -119,-65.8 c -0.1,-0.1 -0.6,-0.8 -1,-1.3 -0.6,-0.7 -1.2,-1.2 -1.2,-1.2 0,0 0,-0.5 -0.2,-1.2 -0.1,-0.3 -0.3,-0.7 -0.4,-1 -0.1,-0.3 0,-0.7 -0.1,-1.1 -0.2,-0.8 -0.6,-1.5 -1.1,-1.4 -0.4,0.1 0.3,5.3 0.3,5.3 2.6,3.2 3.7,7.9 14.6,11.4 5.3,2.7 32.3,15 34.9,13.6 1.4,-0.8 8.5,-11.8 13.7,-20.4 -2.5,-1.3 -7.9,-4 -10.8,-5.5 -2.8,5.9 -6.9,13.5 -7.8,13.8 -0.3,0.1 -0.8,0.1 -21.3,-6.4 -0.5,-0.2 -1,-0.3 -1.6,-0.5 -1.4,-0.5 -3,-0.9 -4.6,-1.5 L 44,523.8 c 0,0 -5.6,-5.9 -6.4,-5.5 -0.4,0.2 -0.1,0.8 0.3,1.6 0.1,0.1 0.1,0.2 0.2,0.3 0.5,0.8 1.1,1.5 1.1,1.7 0.1,0.3 0.3,0.8 0.3,1.3 -4.8,-2.6 -4,-2.8 -5,-4.1 -0.2,-0.3 -0.6,-0.6 -0.8,-0.9 -0.4,-0.6 -0.4,-1.2 -0.7,-1.7 -0.5,-0.6 -1.1,-0.9 -1.3,-0.9 -0.3,0 -0.2,0.4 -0.1,1.1 1.2,4.1 3.7,6.2 4.2,7.2 0.3,0.6 -0.7,-0.2 -1.8,-1.8 -0.3,-0.4 -0.8,-0.8 -1.1,-1.4 -0.2,-0.4 -0.2,-0.9 -0.4,-1.3 -0.2,-0.4 -0.4,-0.7 -0.6,-1 -0.2,-0.4 -0.3,-1.1 -0.5,-1.4 -0.7,-1.1 -1.3,-1.4 -1.5,-1.5 -0.4,-0.1 1.6,5.9 1.6,5.9 0,0 2.1,3.5 2.7,4.2 -0.2,0.1 0,0.7 -0.8,-0.1 z"
       id="path105"
       inkscape:connector-curvature="0"
       style="fill:#00a1d9" /><path
       class="st17"
       d="m 124.8,473.7 c 1.2,-5.5 2.4,-11 -0.8,-17.1 -2.6,-4.9 -7,-7.7 -12.2,-8.3 -14.6,-1.7 -15.9,11.3 -29.8,17.1 -5.9,2.4 -12,1.7 -17.3,4.9 -9.6,5.7 -14.7,21.7 -8.3,36.6 15.6,36.5 52.2,12.6 56.9,5.4 3.5,-5.3 10.8,-35.1 11.5,-38.6 z"
       id="path107"
       inkscape:connector-curvature="0"
       style="fill:#13375b" /><path
       class="st15"
       d="m 121,497.8 c -7.8,2.5 -29.1,9.3 -30.2,9.1 L 71.4,491.5 59.5,502 c 0,0 26.6,19.7 28.1,20.4 1.1,0.5 24.5,-11.5 35.6,-16.9 -0.1,-3.7 -0.4,-4.5 -2.2,-7.7 z"
       id="path109"
       inkscape:connector-curvature="0"
       style="fill:#00a1d9" /><path
       class="st18"
       d="m 85.6,500.1 -12.1,15.7 c 0,0 -12.8,-9.8 -17.5,-15.1 -5.7,-6.4 -12,-20.2 -11.1,-20.7 2.6,-1.4 8.2,-2.5 12,-1.7 13.4,3 28.7,21.8 28.7,21.8 z"
       id="path111"
       inkscape:connector-curvature="0"
       style="fill:#3c8f7c" /><path
       class="st19"
       d="m 117.6,524.7 12.3,-7 c 0,0 -5.6,-23.5 -15.5,-24.3 z"
       id="path113"
       inkscape:connector-curvature="0"
       style="fill:#f7cc7f" /><path
       class="st15"
       d="m 66.3,704.3 c 0,0 -1,10.6 -3.7,12.5 -2.7,1.9 -6.2,9.1 -4.5,13 0.6,1.2 1.7,1.9 2.9,2.3 3.8,1.2 7.8,-0.8 9.4,-4.4 0.9,-2 1.7,-4.7 1.8,-8.1 0.4,-8.6 3.1,-13 3.1,-13 z m 41.2,4.4 c 0,0 0.8,10.7 0.2,14.1 -0.4,1.9 -2.4,5.7 -1.5,7.4 0.9,1.7 2,2.2 2,2.2 l 24.3,0.4 c 1.3,0 0.4,-0.8 -0.6,-1.6 -1.7,-1.3 -3.2,-2.1 -8.7,-4.8 -0.4,-0.2 -1.7,-1 -2.2,-1.3 -1.2,-0.7 -2.4,-1.9 -3.5,-3.1 -1.7,-1.9 -1.9,-11.3 -1.9,-11.3 z"
       id="path115"
       inkscape:connector-curvature="0"
       style="fill:#00a1d9" /><path
       class="st13"
       d="m 126.5,566.8 c 0,0 3.1,17.3 1.1,28.7 -2,11.4 -11.6,116.7 -11.6,116.7 l -10.7,0.6 c 0,0 -2.2,-44 -1.8,-50.1 0.4,-6.1 3.6,-16.4 3.6,-16.4 l -1.1,-35.5 13.5,-46.7 z"
       id="path117"
       inkscape:connector-curvature="0"
       style="fill:#b75742" /><path
       class="st16"
       d="m 95,563.2 c 0,0 -8.4,12.7 -10.4,23.2 -2,10.5 1.5,42.7 -2.4,56.5 -2.1,7.4 -10,18.9 -11.2,28.5 -1.2,9.6 -5.9,34.8 -5.9,34.8 l 10.7,2.1 24.9,-62.9 19.5,-56.8 5,-29.3 z"
       id="path119"
       inkscape:connector-curvature="0"
       style="fill:#f47458" /><path
       d="m 101.8,491.1 c 0,0 -5.8,1 -10.1,5.2 -9.2,9 5.4,43.9 6.2,50 0.8,6.1 -6.6,20.4 -6.6,20.4 0,0 27.6,5.1 35.1,0.1 0,0 0.9,-49.1 0.1,-53.5 -0.8,-4.4 -9.8,-17.9 -11.4,-19.6 -1.6,-1.7 -13.3,-2.6 -13.3,-2.6 z"
       style="fill:#fae0b2"
       id="path121"
       inkscape:connector-curvature="0" /><path
       class="st15"
       d="m 105.5,476.2 c 0,0 -0.1,0.3 -0.2,0.9 -0.5,2.7 -2.4,11.6 -3.7,14 -1.6,3 5.4,12.4 12,11.2 2,-0.3 -1.7,-8.7 -1.5,-9.5 0.3,-1.7 0.8,-4 1.3,-6.3 0.3,-1.3 0.5,-2.7 0.8,-3.9 0.7,-3.6 1.3,-6.5 1.3,-6.5 z"
       id="path123"
       inkscape:connector-curvature="0"
       style="fill:#00a1d9" /><path
       class="st15"
       d="m 111.5,452.4 c 0,0 -4.1,0.6 -7,4.4 -3,3.8 -6.1,15.6 1.2,22 7.3,6.4 14.6,-0.8 15.6,-8.5 1.1,-7.7 0.9,-18.1 -9.8,-17.9 z"
       id="path125"
       inkscape:connector-curvature="0"
       style="fill:#00a1d9" /><path
       class="st15"
       d="m 123.7,467.6 c -0.9,1.7 -2.3,2.6 -3.3,2.1 -0.9,-0.5 -1,-2.4 -0.1,-4 0.9,-1.7 2.3,-2.6 3.3,-2.1 0.9,0.5 1,2.3 0.1,4 z"
       id="path127"
       inkscape:connector-curvature="0"
       style="fill:#00a1d9" /><path
       class="st17"
       d="m 112.8,452.3 c 0,0 -6.3,11.2 -10.8,11.7 -4.5,0.5 -5.1,6.5 -5.1,6.5 0,0 1.6,-13.7 6.1,-16.4 4.4,-2.7 9.8,-1.8 9.8,-1.8 z"
       id="path129"
       inkscape:connector-curvature="0"
       style="fill:#13375b" /><path
       class="st15"
       d="m 103.5,466.6 c 0.4,2 -0.4,3.8 -1.6,4.1 -1.3,0.3 -2.6,-1.1 -3,-3.1 -0.4,-2 0.4,-3.8 1.6,-4.1 1.3,-0.3 2.6,1.1 3,3.1 z"
       id="path131"
       inkscape:connector-curvature="0"
       style="fill:#00a1d9" /><path
       class="st18"
       d="m 71.2,725.9 c -5.8,1.1 -9.7,-2.3 -11.7,-4.9 -1.5,2.9 -2.4,6.5 -1.3,8.9 1,2.1 3.6,2.7 5.8,2.7 2.3,0.1 4.5,-1.1 5.7,-3.2 0.5,-0.9 1,-2.1 1.5,-3.5 z m 49.7,-0.8 c -6.4,1.6 -11.2,0.5 -13.8,-0.5 -0.7,1.9 -1.6,4.4 -1.1,5.8 0.6,1.7 1.4,2.1 2.2,2.1 5.9,0.2 21.5,0.4 26,0.4 0.6,0 1,-0.7 0.6,-1.2 -1.2,-1.4 -13.4,-6.3 -13.9,-6.6 z"
       id="path133"
       inkscape:connector-curvature="0"
       style="fill:#3c8f7c" /><path
       class="st19"
       d="m 78.6,528.2 17.2,2.1 c 0,0 6.4,-16.9 5.2,-25.8 -1.2,-8.9 -4.5,-9.8 -6.4,-9.7 -5.2,0.2 -10.1,7.1 -13.5,17.8 -3.3,10.8 -2.5,15.6 -2.5,15.6 z"
       id="path135"
       inkscape:connector-curvature="0"
       style="fill:#f7cc7f" /><path
       class="st15"
       d="m 77.7,711.5 -0.6,10 c -0.2,1.3 -1,4.4 -1,5.5 0,4.3 19.2,-3.7 14.9,-5.6 -0.4,-0.2 -2.4,-1.5 -2.6,-3 -0.2,-2.3 -0.7,-6.8 -0.7,-6.8 z"
       id="path137"
       inkscape:connector-curvature="0"
       style="fill:#00a1d9" /><path
       class="st14"
       d="m 90.9,721.4 c 0,0 -4.5,1.3 -6.8,1.7 -2.3,0.3 -5.4,-2.5 -7,-1.7 -1.8,0.8 -1.4,10.6 -1.4,10.6 0,0 25.2,2 32,-0.2 2.6,-1 -7.5,-7.3 -16.8,-10.4 z"
       id="path139"
       inkscape:connector-curvature="0"
       style="fill:#184655" /><path
       class="st15"
       d="m 35.3,711.5 -0.6,10 c -0.2,1.3 -1,4.4 -1,5.5 0,4.3 19.2,-3.7 14.9,-5.6 -0.4,-0.2 -3,-2.5 -3.2,-3.9 -0.2,-2.3 -0.1,-5.9 -0.1,-5.9 z"
       id="path141"
       inkscape:connector-curvature="0"
       style="fill:#00a1d9" /><path
       class="st14"
       d="m 48.6,721.4 c 0,0 -4.5,1.3 -6.8,1.7 -2.3,0.3 -5.4,-2.5 -7,-1.7 -1.8,0.8 -2.3,10.4 -2.3,10.4 0,0 26.7,2.5 32.8,0.7 2.7,-0.9 -7.5,-8 -16.7,-11.1 z"
       id="path143"
       inkscape:connector-curvature="0"
       style="fill:#184655" /><path
       class="st21"
       d="m 65.8,567.7 8.1,3.5 17.1,81.6 -0.7,61.2 -13.7,0.3 c 0,0 -6.4,-53.5 -6.4,-57.7 0,-4.1 -29.5,-72.6 -29.5,-72.6 z"
       id="path145"
       inkscape:connector-curvature="0"
       style="fill:#355389" /><path
       class="st22"
       d="m 59.5,572.1 c 0,0 -2.3,61.9 -2.3,72.5 0,10.6 -3.2,70.2 -3.2,70.2 l -19.1,0.6 c 0,0 -1,-18.1 -2.5,-44.7 -0.2,-4.2 0.3,-12.6 0,-16.9 -2.1,-31 -6.4,-60.2 -4.3,-71.8 0.3,-1.9 0.9,-6.7 2.1,-8 9,-9.2 29.3,-1.9 29.3,-1.9 z"
       id="path147"
       inkscape:connector-curvature="0"
       style="fill:#466eb6" /><path
       class="st23"
       d="m 36.9,478.1 c 0,0 -9.5,1.3 -12,3.2 -2.8,2.1 -5.9,6.7 -5.9,6.7 0,0 11.6,55 11.7,64.3 0,7.2 -2.5,24.7 -2.5,24.7 0,0 35.2,2.2 48.5,-3 0,0 -4.2,-20.9 -4.2,-26.4 0,-5.5 -5,-55.4 -6.2,-58.9 -1,-3.2 -2.9,-8.9 -9.4,-10.3 -6.5,-1.5 -20,-0.3 -20,-0.3 z"
       id="path149"
       inkscape:connector-curvature="0"
       style="fill:#50bfa5" /><path
       class="st17"
       d="m 61,534 0.2,1.3 c 0.1,0.7 0.8,1.1 1.4,1 l 27.2,-4.7 c 0.7,-0.1 1.1,-0.8 1,-1.4 l -0.2,-1.3 c -0.1,-0.7 -0.8,-1.1 -1.4,-1 L 62,532.6 c -0.6,0.1 -1.1,0.8 -1,1.4 z"
       id="path151"
       inkscape:connector-curvature="0"
       style="fill:#13375b" /><path
       class="st15"
       d="m 22.5,485.2 c 3.2,-0.1 6,20.9 4,23 -2,2.1 -2.4,28 -2.4,28 l 30.1,-0.7 c 0.6,-0.4 6.9,-4.6 7.8,-5.6 0.9,-1 5.5,-0.5 6.8,0.8 1.2,1.3 -2.7,0.2 -3.8,1 -1.1,0.7 0.8,2.5 0.8,2.5 0,0 7.6,1.1 9.1,-0.5 1.5,-1.6 5.5,-4.2 6,-2.7 0.3,0.8 -1.8,3.3 -2.9,4.3 1.4,-1.1 3.2,-2.2 3.8,-2 1.1,0.4 0.6,1.7 0,2.1 -0.6,0.4 -6.6,5 -7.6,5.3 -0.9,0.3 -15,0.7 -17.4,1.2 0,0 -39.7,9 -41.9,8.5 -2,-0.5 -4,-13.2 -4,-22.9 0,-9.7 1.6,-42.1 11.6,-42.3 z"
       id="path153"
       inkscape:connector-curvature="0"
       style="fill:#00a1d9" /><path
       class="st23"
       d="m 26.6,480.4 c 0,0 -5.6,1.3 -11.3,7.7 -5.2,5.9 -8.5,38.7 -8.5,38.7 l 18,2.9 1.4,-15.9 4.8,-7.3 z"
       id="path155"
       inkscape:connector-curvature="0"
       style="fill:#50bfa5" /><path
       class="st15"
       d="m 113.5,492.9 c 0,0 1.3,-1.4 3.6,-1.2 2.3,0.2 5.4,3.1 5.8,4.2 0.2,0.5 -1.3,4.9 -1.9,5.8 -0.4,0.6 -1.2,0.8 -1.6,0.5 -0.2,-0.2 0,-1.2 0.1,-1.4 0.1,-0.4 0.9,-3.1 0.9,-3.1 0,0 -1.5,2.7 -2.2,2.9 -0.7,0.2 -1.1,-0.4 -1.1,-0.6 0.2,-1.1 1.4,-3.3 1.4,-3.3 0,0 -1.8,2.6 -2.6,2.3 -0.9,-0.3 -0.5,-1.2 -0.4,-1.5 0.1,-0.3 1.3,-2.1 1.3,-2.1 0,0 -1.9,2.7 -2.3,1.7 -0.2,-0.6 1,-3.1 1,-3.1 z M 35,464.8 l 1.5,14.9 c 0,0 7.2,9.5 11.7,7.4 3.8,-1.8 2,-7.7 2,-7.7 0,0 -0.7,-2.6 -1.6,-5.7 -0.6,-2.1 -1.2,-4.4 -1.1,-6.1 0,-4 -12.5,-2.8 -12.5,-2.8 z m 23.2,-9.1 c -0.6,2 -2.1,3.3 -3.3,3 -1.2,-0.4 -1.6,-2.3 -0.9,-4.3 0.6,-2 2.1,-3.3 3.3,-3 1.1,0.3 1.5,2.3 0.9,4.3 z"
       id="path157"
       inkscape:connector-curvature="0"
       style="fill:#00a1d9" /><path
       class="st15"
       d="m 39.1,443 c -0.3,-0.2 -7.3,15.8 -4.3,21.6 3,5.8 10.6,8.5 14.6,5.7 4.4,-3 9.6,-19.8 4.3,-26.4 C 48.4,437.3 39.1,443 39.1,443 Z"
       id="path159"
       inkscape:connector-curvature="0"
       style="fill:#00a1d9" /><path
       class="st15"
       d="m 36.6,454.4 c 0,2.1 -0.9,3.8 -2.1,3.9 -1.2,0 -2.3,-1.7 -2.3,-3.8 0,-2.1 0.9,-3.8 2.1,-3.9 1.2,0.1 2.2,1.7 2.3,3.8 z"
       id="path161"
       inkscape:connector-curvature="0"
       style="fill:#00a1d9" /><g
       id="g165"><path
         class="st13"
         d="m 228.5,383.3 h 3.1 c 0,-0.2 -0.1,-22.5 0.2,-45.2 0.2,-13.3 0.5,-24.2 0.8,-32.3 0.6,-13.8 1.4,-16.3 1.6,-16.7 0,-0.7 -0.3,-2.5 -0.3,-2.5 -0.6,-0.2 -1.2,-0.2 -1.7,0.2 -0.8,0.6 -1.3,1.6 -1.8,5.9 -0.3,2.7 -0.6,6.4 -0.8,11.2 -0.4,8 -0.7,19 -0.9,32.6 -0.3,23.3 -0.2,46.6 -0.2,46.8 z"
         id="path163"
         inkscape:connector-curvature="0"
         style="fill:#b75742" /></g><path
       class="st14"
       d="m 212.7,362 c -0.4,0.1 -3.2,0.2 -3.2,0.2 0,0 -4.1,-2.5 -4.6,-1.3 -0.2,0.3 4.2,2.8 4.2,2.8 0,0 4.2,0.1 5.2,0.1 1.9,0 5.8,-0.6 11.7,-5 5.1,-2.6 30.7,-17.5 31.1,-20.4 0.2,-1.7 -3.7,-10.4 -7.4,-18.4 -1.7,0.9 -4.3,2.3 -6.5,3.4 -1.1,0.5 -2.8,1.2 -3.8,1.6 2.4,4.7 4.8,9.6 4.5,10.6 -0.3,0.9 -22.1,17.6 -22.1,17.6 l -4.4,-0.6 c 0,0 -7.7,0.9 -7.9,1.8 -0.2,0.9 3.2,0.7 3.7,0.8 0.3,0.1 0.8,0.3 1.2,0.5 -1.3,0.6 -3.3,1.6 -4.4,1.6 -2.6,0.1 -5.6,-0.3 -5.9,0.1 -0.4,0.4 3.5,1.6 6.3,1.8 1.1,0.1 1.8,-0.3 2.3,-0.2 0.7,0.1 -0.5,0.7 -2.4,0.6 -1.1,-0.1 -3,-0.7 -4.2,-0.8 -2,-0.3 -3,-0.1 -3.2,0 -0.3,0.3 5.5,2.1 5.5,2.1 0,0 3.8,0.5 4.6,0.4 0.2,0.3 0.7,0.5 -0.3,0.7 z"
       id="path167"
       inkscape:connector-curvature="0"
       style="fill:#184655" /><path
       class="st15"
       d="m 220.2,353.9 -4.4,-0.6 c 0,0 -7.7,0.9 -7.9,1.8 -0.2,0.9 3.2,0.7 3.7,0.8 0.3,0.1 0.8,0.3 1.2,0.5 -1.3,0.6 -3.3,1.6 -4.4,1.6 -2.6,0.1 -5.6,-0.3 -5.9,0.1 -0.4,0.4 3.5,1.6 6.3,1.8 1.1,0.1 1.8,-0.3 2.3,-0.2 0.7,0.1 -0.5,0.7 -2.4,0.6 -1.1,-0.1 -3,-0.7 -4.2,-0.8 -2,-0.3 -3,-0.1 -3.2,0 -0.3,0.3 5.5,2.1 5.5,2.1 0,0 3.8,0.5 4.6,0.4 0,0 0.5,0.2 -0.5,0.4 -0.4,0.1 -3.2,0.2 -3.2,0.2 0,0 -4.1,-2.5 -4.6,-1.3 -0.2,0.3 4.2,2.8 4.2,2.8 0,0 4.2,0.1 5.2,0.1 1.9,0 5.8,-0.6 11.7,-5"
       id="path169"
       inkscape:connector-curvature="0"
       style="fill:#00a1d9" /><path
       class="st24"
       d="m 207.8,269.1 c 0,0 3.8,-15 18.3,-9.3 0,0 2.2,12.9 -1.3,16.6 0,0 5.2,-6.3 4.6,-13.9 -0.6,-7.6 -4.1,-12.5 -9.8,-12.7 -5.6,-0.3 -18.2,11.5 -11.8,19.3 z"
       id="path171"
       inkscape:connector-curvature="0"
       style="fill:#12373f" /><path
       class="st24"
       d="m 208.8,268.6 c 0,0 -0.1,9.7 9.5,11.2 0,0 2.8,-0.1 5.9,-2.5 0,0 0.5,2 0.1,2.5 -0.4,0.5 -1.8,0.7 -1.8,0.7 0,0 1.2,0.7 0.5,1 -0.7,0.4 0.1,1.1 -0.4,1.3 -0.5,0.2 0.9,1.9 -0.1,1.4 -0.5,-0.3 1.6,1.6 1,1.5 -0.6,-0.1 4.8,0.2 2.2,1.7 -0.3,0.2 0.6,0 2.9,2.3 2.3,2.3 -12.3,11.5 -15.7,9.6 -3.5,-1.9 -12.4,-7.3 -6.7,-10.1 -2.2,-2.5 -4.4,-1.7 -0.2,-5 1.4,-1.1 -1.3,-3.2 -0.1,-4.3 1.3,-1.1 -1.5,-5.3 0.2,-6 1.7,-0.7 0.2,-6.4 1.5,-6.2 1.3,0.3 -0.4,-2.2 0.7,-2.1 1,0 0.5,3 0.5,3 z"
       id="path173"
       inkscape:connector-curvature="0"
       style="fill:#12373f" /></g></svg>