<?xml version="1.0" encoding="UTF-8" standalone="no"?>
<svg
   xmlns:dc="http://purl.org/dc/elements/1.1/"
   xmlns:cc="http://creativecommons.org/ns#"
   xmlns:rdf="http://www.w3.org/1999/02/22-rdf-syntax-ns#"
   xmlns:svg="http://www.w3.org/2000/svg"
   xmlns="http://www.w3.org/2000/svg"
   xmlns:sodipodi="http://sodipodi.sourceforge.net/DTD/sodipodi-0.dtd"
   xmlns:inkscape="http://www.inkscape.org/namespaces/inkscape"
   viewBox="0 0 299.99999 737.3"
   xml:space="preserve"
   version="1.1"
   id="svg452"
   sodipodi:docname="generalTL.svg"
   width="300"
   height="737.29999"
   inkscape:version="0.92.4 (5da689c313, 2019-01-14)"><metadata
     id="metadata458"><rdf:RDF><cc:Work
         rdf:about=""><dc:format>image/svg+xml</dc:format><dc:type
           rdf:resource="http://purl.org/dc/dcmitype/StillImage" /><dc:title></dc:title></cc:Work></rdf:RDF></metadata><defs
     id="defs456" /><sodipodi:namedview
     pagecolor="#ffffff"
     bordercolor="#666666"
     borderopacity="1"
     objecttolerance="10"
     gridtolerance="10"
     guidetolerance="10"
     inkscape:pageopacity="0"
     inkscape:pageshadow="2"
     inkscape:window-width="1920"
     inkscape:window-height="1016"
     id="namedview454"
     showgrid="false"
     inkscape:zoom="0.95920617"
     inkscape:cx="726.2"
     inkscape:cy="369.44999"
     inkscape:window-x="0"
     inkscape:window-y="36"
     inkscape:window-maximized="1"
     inkscape:current-layer="LH_images" /><style
     id="style2">.st0{fill:#ededed;stroke:#25c7a1;stroke-miterlimit:10}.st1{fill:#2d75be}.st2{fill:#555d68}.st3{fill:#fff;stroke:#555d68;stroke-miterlimit:10}.st4{fill:#ededed}.st13{fill:#b75742}.st14{fill:#184655}.st15{fill:#00a1d9}.st16{fill:#f47458}.st17{fill:#13375b}.st18{fill:#3c8f7c}.st19{fill:#f7cc7f}.st21{fill:#355389}.st22{fill:#466eb6}.st23{fill:#50bfa5}.st24{fill:#12373f}.st26{fill:#ba4044}.st29{fill:#96d9c9}.st30{fill:#ccc}.st31{fill:#fff}.st32{fill:#e6e6e6}.st35{fill:#6c8c47}.st36{fill:#007d3b}.st38{fill:#aac48f}.st40,.st41,.st43,.st45,.st51{fill-rule:evenodd;clip-rule:evenodd;fill:#8c5529}.st41,.st43,.st45,.st51{fill:#355389}.st43,.st45,.st51{fill:#fff}.st45,.st51{fill:#bed99d}.st51{fill:#adb8a2}.st58{fill:#d97759}.st59,.st60,.st61,.st63,.st64{fill-rule:evenodd;clip-rule:evenodd;fill:#d97759}.st60,.st61,.st63,.st64{fill:#e67e5e}.st61,.st63,.st64{fill:#523424}.st63,.st64{fill:#5c3420}.st64{fill:#6c8c47}.st70{fill:none;stroke:#c4c0bb;stroke-width:.9243;stroke-linecap:round;stroke-linejoin:round;stroke-miterlimit:10}.st71{fill:#009fd7}</style><g
     id="LH_images"><circle
       cx="68.599998"
       cy="118"
       r="7"
       style="fill:#313561"
       id="circle175" /><path
       class="st26"
       d="m 138.4,125.4 17.1,25.3 -18.5,2.1 -15.1,-22.7 z m -84,248.6 -6.1,14.6 c -0.3,1.6 -1.3,5.6 -1.3,7.1 0,5.5 24.4,-4.7 18.9,-7.1 -0.5,-0.2 -2,-2 -2.2,-3.9 -0.3,-2.9 2.1,-6.5 2.1,-6.5 z"
       id="path177"
       inkscape:connector-curvature="0"
       style="fill:#ba4044" /><path
       class="st14"
       d="m 45.7,397.5 c 0,0 0.6,-8.3 2.6,-9.3 1.9,-0.9 5.4,2.8 8.1,2.4 2.7,-0.4 8.8,-2.7 8.8,-2.7 10.8,3.9 18.9,6.4 17.3,9.6 z"
       id="path179"
       inkscape:connector-curvature="0"
       style="fill:#184655" /><path
       class="st26"
       d="m 91.8,378.4 -3.5,10.2 c -0.3,1.6 -1.3,5.6 -1.3,7.1 0,5.5 24.4,-4.7 18.9,-7.1 -0.5,-0.2 -2,-2 -2.2,-3.9 -0.3,-2.9 2.1,-6.5 2.1,-6.5 z"
       id="path181"
       inkscape:connector-curvature="0"
       style="fill:#ba4044" /><g
       id="g187"><path
         class="st21"
         d="m 125.4,184.7 8.8,23 c 0,0 5.8,55 2.4,87.9 -1.4,13.8 -31.8,87.4 -31.8,87.4 L 89.7,380.8 105.4,294.5 102.5,260.2 92,194.3 Z"
         id="path183"
         inkscape:connector-curvature="0"
         style="fill:#355389" /><path
         class="st22"
         d="m 114.9,187.4 5.4,24.1 c 0,0 -2.2,55.2 -10.3,87.3 -3.4,13.4 -44.1,81.9 -44.1,81.9 l -14.6,-4.3 28,-83.1 -2.6,-81.9 3.8,-19.2 z"
         id="path185"
         inkscape:connector-curvature="0"
         style="fill:#466eb6" /></g><path
       class="st14"
       d="m 85.6,397.5 c 0,0 0.6,-8.2 2.8,-9.2 2.1,-0.9 5.9,2.7 8.8,2.3 2.9,-0.4 8.7,-2.1 8.7,-2.1 11.7,3.9 21.3,5.8 19.6,9 z"
       id="path189"
       inkscape:connector-curvature="0"
       style="fill:#184655" /><path
       class="st18"
       d="M 143.6,121.1 125,136.4 c 0,0 -15.3,-13.5 -19.9,-20.7 -5.7,-8.7 -5.4,-21.1 -4.2,-21.5 3.3,-1.2 8,-4.2 12.4,-2.5 15.3,6 30.3,29.4 30.3,29.4 z"
       id="path191"
       inkscape:connector-curvature="0"
       style="fill:#3c8f7c" /><path
       class="st23"
       d="m 86.6,91.8 c 0,0 -11.4,1.6 -14.4,3.8 -3.4,2.5 -13.8,14.1 -13.8,14.1 0,0 21.7,62.7 20.9,73.9 -0.8,11.2 -3.2,27.7 -3.2,27.7 0,0 42.2,2.7 58.2,-3.7 0,0 -5.1,-25.3 -5.1,-31.9 0,-6.6 -3.7,-56.8 -5.3,-61.9 -1.2,-3.8 -5.7,-20 -13.4,-21.7 -7.6,-1.7 -23.9,-0.3 -23.9,-0.3 z"
       id="path193"
       inkscape:connector-curvature="0"
       style="fill:#50bfa5" /><path
       class="st26"
       d="m 89.7,73.9 -2.8,17.9 c 0,0 8.1,13.7 14.2,11.8 5.2,-1.6 4.1,-12.1 4.1,-12.1 0,0 -2.8,-10.5 -2,-15.8 1,-5.2 -13.5,-1.8 -13.5,-1.8 z m -21.8,31.3 c -18.6,14.1 -18.6,47.5 -13,73.3 1.1,4.9 13.1,4.1 20.2,2.6 24.1,-5.1 66.5,-26.2 66.5,-26.2 l -1.8,-10.3 -68.6,20 c 0,0 5.8,-66.2 -3.3,-59.4 z"
       id="path195"
       inkscape:connector-curvature="0"
       style="fill:#ba4044" /><path
       d="m 140.4,132.7 -3.4,29.4 c -0.1,0.9 0.4,1.6 1,1.6 h 13.6 c 0.5,0 0.9,-0.5 1,-1.2 l 3.4,-29.4 c 0.1,-0.9 -0.4,-1.6 -1,-1.6 h -13.6 c -0.5,0.1 -0.9,0.6 -1,1.2 z"
       style="fill:#b3b3b3"
       id="path197"
       inkscape:connector-curvature="0" /><path
       d="m 141.2,132.7 -3.4,29.4 c -0.1,0.9 0.4,1.6 1,1.6 h 13.6 c 0.5,0 0.9,-0.5 1,-1.2 l 3.4,-29.4 c 0.1,-0.9 -0.4,-1.6 -1,-1.6 h -13.6 c -0.5,0.1 -1,0.6 -1,1.2 z"
       style="fill:#808080"
       id="path199"
       inkscape:connector-curvature="0" /><path
       class="st29"
       d="m 49.3,149.4 23.2,7.1 c 0,0 6.8,-31.6 7.5,-41.5 0.7,-10 -14.3,-12.4 -18.1,-9.6 -8.5,6.2 -12.6,44 -12.6,44 z"
       id="path201"
       inkscape:connector-curvature="0"
       style="fill:#96d9c9" /><g
       id="g223"><path
         class="st26"
         d="m 94.4,76.2 c 0,-0.2 0,-0.4 0.1,-0.5 l 0.3,-1 3.3,6 c -3.5,0.1 -3.7,-3.5 -3.7,-4.5 z"
         id="path203"
         inkscape:connector-curvature="0"
         style="fill:#ba4044" /><path
         class="st30"
         d="m 90.7,67.5 c 0,-1 -0.2,-1.8 -0.7,-2.5 0.8,-0.2 1.6,-0.3 2.4,-0.5 0.5,-0.1 1.1,-0.2 1.6,-0.2 l -1.3,6.6 z m 14.9,19 c -0.8,2.1 -1.9,5.4 -2.7,8.7 -2.5,-1.4 -5.3,-3.1 -7.6,-5 -0.6,-0.5 -0.8,-1.2 -0.7,-1.9 0.4,-2.3 1.4,-7.7 2.1,-12 0,0 1.7,-4.1 1.6,-7.2 l 1.9,3.4 -2.2,11 z"
         id="path205"
         inkscape:connector-curvature="0"
         style="fill:#cccccc" /><path
         class="st26"
         d="M 94.7,74.7 92.6,71 93.9,64.4 c 1.3,-0.2 2.5,-0.3 3.8,-0.3 z"
         id="path207"
         inkscape:connector-curvature="0"
         style="fill:#ba4044" /><path
         class="st30"
         d="m 98,84.8 1,-2.5 -0.9,-1.7 h 0.4 c 3.5,-0.5 6.7,-0.8 8.8,0.1 0.1,0.1 0.3,0.1 0.4,0.2 -1.4,3.8 -2.4,6.6 -2.4,6.6 z"
         id="path209"
         inkscape:connector-curvature="0"
         style="fill:#cccccc" /><path
         class="st26"
         d="m 94.1,49.6 c 12,-2.1 24.5,0.2 20.6,11.4 0,0.1 -0.4,1.3 -1,3.1 -0.2,0.5 -0.4,1.1 -0.6,1.7 -1.5,4.2 -3.7,10.4 -5.4,15.1 -0.1,-0.1 -0.2,-0.2 -0.4,-0.2 -2,-1 -5.3,-0.6 -8.8,-0.1 h -0.4 l -1.6,-2.8 c -3.9,1.6 -7.6,2.1 -10,1.2 -7,-2.8 -10.7,-26.1 7.6,-29.4 z"
         id="path211"
         inkscape:connector-curvature="0"
         style="fill:#ba4044" /><path
         class="st30"
         d="m 98,84.8 -7.6,-2.9 2.2,-11 2.1,3.7 -0.3,1 c 0,0.2 -0.1,0.3 -0.1,0.5 0,1.1 0.3,4.6 3.7,4.4 l 0.9,1.7 c 0.1,0.1 -0.3,1 -0.9,2.6 z M 89.3,67.9 C 88,69.2 86.5,71.3 85,73.8 84.2,73 83.5,71.5 83.4,69 c 0,-0.8 0,-1.5 0.2,-2.2 1.3,-0.5 2.6,-0.9 3.9,-1.3 0.8,0.7 1.5,1.5 1.8,2.4 z"
         id="path213"
         inkscape:connector-curvature="0"
         style="fill:#cccccc" /><path
         class="st30"
         d="m 83.7,66.8 c 0.3,-1.5 0.9,-2.4 1.7,-2.9 0.6,0.4 1.5,0.9 2.3,1.7 -1.4,0.3 -2.7,0.8 -4,1.2 z m 5.4,7.9 c 0,0 -2.4,0.7 -4,-0.9 1.5,-2.5 3,-4.6 4.3,-5.9 0.2,0.5 0.4,1.1 0.3,1.7 0,1 -0.3,2.9 -0.6,5.1 z"
         id="path215"
         inkscape:connector-curvature="0"
         style="fill:#cccccc" /><path
         class="st30"
         d="m 90.4,67 c -0.3,0.2 -0.7,0.5 -1.1,0.9 -0.4,-0.9 -1,-1.7 -1.7,-2.3 L 90,65 c 0.5,0.6 0.7,1.5 0.7,2.5 z M 89.7,64.7 90,65 87.6,65.6 c -0.8,-0.7 -1.6,-1.3 -2.3,-1.7 1.3,-0.8 3,-0.4 4.4,0.8 z"
         id="path217"
         inkscape:connector-curvature="0"
         style="fill:#cccccc" /><path
         class="st30"
         d="m 90.7,67.5 c 0.1,3.1 -1.6,7.2 -1.6,7.2 0.3,-2.2 0.6,-4 0.6,-5 0,-0.6 -0.1,-1.2 -0.3,-1.7 0.4,-0.4 0.8,-0.7 1.1,-0.9 z"
         id="path219"
         inkscape:connector-curvature="0"
         style="fill:#cccccc" /><path
         class="st31"
         d="m 119,39.7 c 0,0 5.8,18.8 -6.7,28.2 0,0 1.8,-11.6 -1.1,-16.2 C 108.3,47.1 85.7,69.9 83.8,76.6 81.9,83.3 68.2,54.6 68.2,37.5 68.2,20.4 87.4,18 95.3,18 113,18 117.4,30.1 119,39.7 Z"
         id="path221"
         inkscape:connector-curvature="0"
         style="fill:#ffffff" /></g><path
       class="st32"
       d="m 151.8,134.7 c 0,1 0.8,1.8 1.8,1.8 1,0 1.8,-0.8 1.8,-1.8 0,-1 -0.8,-1.8 -1.8,-1.8 -1,-0.1 -1.8,0.8 -1.8,1.8 z m -2.5,0 c 0,0.5 0.4,0.9 0.9,0.9 0.5,0 0.9,-0.4 0.9,-0.9 0,-0.5 -0.4,-0.9 -0.9,-0.9 -0.4,0 -0.9,0.4 -0.9,0.9 z"
       id="path225"
       inkscape:connector-curvature="0"
       style="fill:#e6e6e6" /><g
       id="g229"><path
         class="st26"
         d="m 156,155.6 c 0.1,-1.3 0,-2.1 -0.4,-4.9 -0.6,-3.5 -0.4,-9.1 -4,-6.3 -3.4,4.3 -3.8,8.9 -3.8,8.9 -0.7,2.5 0.8,6 2.3,7.9 l 2.5,5.4 c -0.1,0 4.2,-5 3.4,-11 z"
         id="path227"
         inkscape:connector-curvature="0"
         style="fill:#ba4044" /></g></g></svg>