<?xml version="1.0" encoding="UTF-8" standalone="no"?>
<svg
   xmlns:dc="http://purl.org/dc/elements/1.1/"
   xmlns:cc="http://creativecommons.org/ns#"
   xmlns:rdf="http://www.w3.org/1999/02/22-rdf-syntax-ns#"
   xmlns:svg="http://www.w3.org/2000/svg"
   xmlns="http://www.w3.org/2000/svg"
   xmlns:sodipodi="http://sodipodi.sourceforge.net/DTD/sodipodi-0.dtd"
   xmlns:inkscape="http://www.inkscape.org/namespaces/inkscape"
   viewBox="0 0 299.99999 737.3"
   xml:space="preserve"
   version="1.1"
   id="svg452"
   sodipodi:docname="generalTR.svg"
   width="300"
   height="737.29999"
   inkscape:version="0.92.4 (5da689c313, 2019-01-14)"><metadata
     id="metadata458"><rdf:RDF><cc:Work
         rdf:about=""><dc:format>image/svg+xml</dc:format><dc:type
           rdf:resource="http://purl.org/dc/dcmitype/StillImage" /><dc:title></dc:title></cc:Work></rdf:RDF></metadata><defs
     id="defs456"><linearGradient
       id="SVGID_00000149361014695701132240000014843717937665229445_"
       gradientUnits="userSpaceOnUse"
       x1="1143.704"
       y1="600.58002"
       x2="1387.35"
       y2="600.58002"><stop
         offset="0"
         style="stop-color:#2d75be"
         id="stop248" /><stop
         offset="1"
         style="stop-color:#25c7a1"
         id="stop250" /></linearGradient></defs><sodipodi:namedview
     pagecolor="#ffffff"
     bordercolor="#666666"
     borderopacity="1"
     objecttolerance="10"
     gridtolerance="10"
     guidetolerance="10"
     inkscape:pageopacity="0"
     inkscape:pageshadow="2"
     inkscape:window-width="1920"
     inkscape:window-height="1016"
     id="namedview454"
     showgrid="false"
     inkscape:zoom="0.95920617"
     inkscape:cx="726.2"
     inkscape:cy="369.44999"
     inkscape:window-x="0"
     inkscape:window-y="36"
     inkscape:window-maximized="1"
     inkscape:current-layer="RH_images" /><style
     id="style2">.st0{fill:#ededed;stroke:#25c7a1;stroke-miterlimit:10}.st1{fill:#2d75be}.st2{fill:#555d68}.st3{fill:#fff;stroke:#555d68;stroke-miterlimit:10}.st4{fill:#ededed}.st13{fill:#b75742}.st14{fill:#184655}.st15{fill:#00a1d9}.st16{fill:#f47458}.st17{fill:#13375b}.st18{fill:#3c8f7c}.st19{fill:#f7cc7f}.st21{fill:#355389}.st22{fill:#466eb6}.st23{fill:#50bfa5}.st24{fill:#12373f}.st26{fill:#ba4044}.st29{fill:#96d9c9}.st30{fill:#ccc}.st31{fill:#fff}.st32{fill:#e6e6e6}.st35{fill:#6c8c47}.st36{fill:#007d3b}.st38{fill:#aac48f}.st40,.st41,.st43,.st45,.st51{fill-rule:evenodd;clip-rule:evenodd;fill:#8c5529}.st41,.st43,.st45,.st51{fill:#355389}.st43,.st45,.st51{fill:#fff}.st45,.st51{fill:#bed99d}.st51{fill:#adb8a2}.st58{fill:#d97759}.st59,.st60,.st61,.st63,.st64{fill-rule:evenodd;clip-rule:evenodd;fill:#d97759}.st60,.st61,.st63,.st64{fill:#e67e5e}.st61,.st63,.st64{fill:#523424}.st63,.st64{fill:#5c3420}.st64{fill:#6c8c47}.st70{fill:none;stroke:#c4c0bb;stroke-width:.9243;stroke-linecap:round;stroke-linejoin:round;stroke-miterlimit:10}.st71{fill:#009fd7}</style><g
     id="LH_images"><g
       transform="translate(-1088.8724,-4.5321887)"
       id="RH_images"><linearGradient
         id="linearGradient483"
         gradientUnits="userSpaceOnUse"
         x1="1143.704"
         y1="600.58002"
         x2="1387.35"
         y2="600.58002"><stop
           offset="0"
           style="stop-color:#2d75be"
           id="stop479" /><stop
           offset="1"
           style="stop-color:#25c7a1"
           id="stop481" /></linearGradient><path
         class="st14"
         d="m 1303.8,176.9 h -39.2 c -3.2,0 -5.9,2.6 -5.9,5.9 v 22 h 6.6 v -20.9 h 38.5 z"
         id="path381"
         inkscape:connector-curvature="0"
         style="fill:#184655" /><path
         class="st71"
         d="m 1311.3,162 -12.2,-12.8 c 0,0 -13,7.2 -28.2,14 -4.2,-7.3 -11,-31.1 -11.3,-32.3 -0.4,-1.1 8,-15.5 6.1,-15.9 -1.9,-0.4 -4.3,7.7 -6.3,6.8 -2,-0.8 -7,-19.4 -8.2,-18.4 -2.2,1.9 2.7,11.6 1.5,12.3 -1.2,0.7 -4.1,-10.7 -6.4,-10.2 -2.3,0.5 3.8,10.4 3.2,11.4 -0.7,1 -7,-8.4 -8.3,-6.2 -0.7,1.2 5.9,8.1 4.5,8.9 -1.4,0.8 -7.3,-3.6 -8,-2.2 -0.7,1.4 5.5,2.9 7.3,6.5 1.7,3.6 4.9,5 5.9,11.7 1,6.8 3.9,42.9 11.3,45.8 6.4,2.6 49.1,-19.4 49.1,-19.4 z"
         id="path383"
         inkscape:connector-curvature="0"
         style="fill:#009fd7" /><g
         id="g445"><path
           class="st14"
           d="m 1185.1,291.7 v 32 h 3.5 v -29.1 h 23 v 10 c -8.9,1 -15.8,9.2 -15.8,19.1 0,10.6 7.9,19.2 17.6,19.2 9.7,0 17.6,-8.6 17.6,-19.2 0,-10 -6.9,-18.2 -15.8,-19.1 v -25.3 h 1 v -3.8 h -1 v -12.8 h 62.9 V 257 h -34.7 v -32.6 c 0,-8.7 8,-18.5 18.7,-18.5 h 29.9 v -5.7 h -29.9 c -12.8,0 -23.9,11.3 -23.9,24.2 V 257 h -22.9 v -18.3 h -3.5 v 36.8 H 1200 c -8.2,0 -14.9,7.3 -14.9,16.2 z m 26.5,-0.8 h -22.9 c 0.4,-6.4 5.3,-11.5 11.3,-11.5 h 11.6 z"
           id="path385"
           inkscape:connector-curvature="0"
           style="fill:#184655" /><path
           class="st71"
           d="m 1198.8,296.8 0.7,12.4 c 0.3,1.6 1.3,5.4 1.3,6.9 0,5.4 -23.8,-4.5 -18.5,-6.9 0.5,-0.2 3.2,-3.2 3.9,-4.9 1.2,-3 1.8,-8.9 1.8,-8.9 z"
           id="path387"
           inkscape:connector-curvature="0"
           style="fill:#009fd7" /><path
           class="st22"
           d="m 1182.3,309.1 c 0,0 5.6,1.6 8.5,2 2.9,0.4 6.6,-3 8.7,-2.1 2.2,1 2.4,10.4 2.4,10.4 0,0 -30,1 -38.7,-0.3 -3.6,-0.4 7.7,-6.2 19.1,-10 z"
           id="path389"
           inkscape:connector-curvature="0"
           style="fill:#466eb6" /><path
           class="st14"
           d="m 1318.1,270.4 h 6.6 V 144.9 c 0,-4.2 4.1,-7.7 9.2,-7.7 h 59.2 c 1.6,0 2.9,-1.2 2.9,-2.7 0,-1.5 -1.3,-2.7 -2.9,-2.7 h -59.2 c -8.7,0 -15.8,5.9 -15.8,13.1 z"
           id="path391"
           inkscape:connector-curvature="0"
           style="fill:#184655" /><ellipse
           class="st14"
           cx="1287.2"
           cy="284.20001"
           rx="39.700001"
           ry="40.099998"
           id="ellipse393"
           style="fill:#184655" /><path
           class="st14"
           d="m 1238.8,284.2 c 0,27 21.7,48.8 48.4,48.8 26.7,0 48.4,-21.9 48.4,-48.8 0,-27 -21.7,-48.8 -48.4,-48.8 -26.7,0 -48.4,21.8 -48.4,48.8 z m 4.6,0 c 0,-24.4 19.6,-44.2 43.8,-44.2 24.2,0 43.8,19.8 43.8,44.2 0,24.4 -19.6,44.2 -43.8,44.2 -24.2,0 -43.8,-19.8 -43.8,-44.2 z"
           id="path395"
           inkscape:connector-curvature="0"
           style="fill:#184655" /><path
           transform="rotate(-180,1328.735,190.846)"
           class="st14"
           d="m 1319,153.2 h 19.4 v 75.3 H 1319 Z"
           id="path397"
           inkscape:connector-curvature="0"
           style="fill:#184655" /><path
           class="st31"
           d="m 1222.7,323.8 h 3.8 v -32 c 0,-6.9 5.5,-12.4 12.3,-12.4 h 14.1 v -3.8 h -14.1 c -8.9,0 -16.1,7.3 -16.1,16.2 z"
           id="path399"
           inkscape:connector-curvature="0"
           style="fill:#ffffff" /><path
           transform="rotate(-180,1222.852,237.748)"
           class="st14"
           d="m 1197.3,233.4 h 51.1 v 8.8 h -51.1 z"
           id="path401"
           inkscape:connector-curvature="0"
           style="fill:#184655" /><path
           class="st31"
           d="m 1224.6,290.9 h 28.3 v 3.8 h -28.3 z m 28.7,-33.9 h 70.1 v 5.7 h -70.1 z"
           id="path403"
           inkscape:connector-curvature="0"
           style="fill:#ffffff" /><path
           transform="rotate(-180,1292.81,237.681)"
           class="st14"
           d="m 1247.2,233.2 h 91.3 v 8.9 h -91.3 z"
           id="path405"
           inkscape:connector-curvature="0"
           style="fill:#184655" /><path
           class="st31"
           d="m 1335.6,277.1 h 5.6 V 151.6 c 0,-4.2 3.6,-7.7 7.9,-7.7 h 53.3 v -5.5 h -53.3 c -7.5,0 -13.6,5.9 -13.6,13.1 v 125.6 z"
           id="path407"
           inkscape:connector-curvature="0"
           style="fill:#ffffff" /><path
           class="st17"
           d="m 1201.6,200.2 c 6.1,-6.1 91.5,-3.2 91.5,-3.2 0,0 -72.4,17.7 -76.6,20 -4.2,2.3 -19.9,80 -20,81 -4.4,-1 -7,-0.3 -11.4,-1.2 0.8,-13.5 6.6,-86.7 16.5,-96.6 z"
           id="path409"
           inkscape:connector-curvature="0"
           style="fill:#13375b" /><path
           class="st71"
           d="m 1209.9,297.1 0.7,12.4 c 0.3,1.6 1.3,5.4 1.3,6.9 0,5.4 -23.8,-4.5 -18.5,-6.9 0.5,-0.2 3.8,-3.1 3.9,-4.9 0.2,-2.8 0.1,-7.3 0.1,-7.3 z"
           id="path411"
           inkscape:connector-curvature="0"
           style="fill:#009fd7" /><path
           class="st22"
           d="m 1193.5,309.4 c 0,0 5.6,1.6 8.5,2 2.9,0.4 6.6,-3 8.7,-2.1 2.2,1 2.4,10.4 2.4,10.4 0,0 -30,1 -38.7,-0.3 -3.6,-0.4 7.6,-6.2 19.1,-10 z"
           id="path413"
           inkscape:connector-curvature="0"
           style="fill:#466eb6" /><path
           class="st21"
           d="m 1306.4,214.5 c 0,0 -0.7,19.4 -7.2,19.6 -6.5,0.2 -47.9,1.2 -71.2,-0.9 l -15.7,69.4 -18.4,-1.8 c 0,0 5.6,-46.3 7.5,-63.9 1.9,-17.3 7.5,-31.9 17.3,-32.2 9.8,-0.4 74.2,-10.3 74.2,-10.3 z"
           id="path415"
           inkscape:connector-curvature="0"
           style="fill:#355389" /><path
           class="st23"
           d="m 1323.8,124 c 0,0 10.5,2.7 9,23.1 -1.4,20.4 -12.7,82.2 -33.6,87 -20.9,4.9 -34.5,-39.1 -34.5,-39.1 0,0 13.2,-4.3 18.7,-24.8 3.8,-14.2 14,-46.1 16.5,-47.7 6.4,-3.7 23.9,1.5 23.9,1.5 z"
           id="path417"
           inkscape:connector-curvature="0"
           style="fill:#50bfa5" /><path
           class="st31"
           d="m 1280.1,261.4 h 5.6 v -37 c 0,-8.7 8.7,-18.5 20.3,-18.5 h 32.4 v -5.7 H 1306 c -13.8,0 -26,11.3 -26,24.2 v 37 z"
           id="path419"
           inkscape:connector-curvature="0"
           style="fill:#ffffff" /><ellipse
           class="st14"
           cx="1338.5"
           cy="289.39999"
           rx="45.599998"
           ry="46.099998"
           id="ellipse421"
           style="fill:#184655" /><path
           class="st31"
           d="m 1282.9,289.4 c 0,31 24.9,56.1 55.6,56.1 30.7,0 55.6,-25.1 55.6,-56.1 0,-31 -24.9,-56.1 -55.6,-56.1 -30.7,0.1 -55.6,25.2 -55.6,56.1 z m 5.2,0 c 0,-28 22.5,-50.8 50.3,-50.8 27.8,0 50.3,22.7 50.3,50.8 0,28 -22.5,50.8 -50.3,50.8 -27.7,0 -50.3,-22.7 -50.3,-50.8 z"
           id="path423"
           inkscape:connector-curvature="0"
           style="fill:#ffffff" /><path
           transform="rotate(-180,1199.291,324.65)"
           class="st21"
           d="m 1170.6,319.7 h 57.5 v 10 h -57.5 z"
           id="path425"
           inkscape:connector-curvature="0"
           style="fill:#355389" /><path
           class="st31"
           d="m 1251.4,242 h 3.8 v 87.6 h -3.8 z"
           id="path427"
           inkscape:connector-curvature="0"
           style="fill:#ffffff" /><circle
           class="st14"
           cx="1319.7"
           cy="76.199997"
           r="30.9"
           id="circle429"
           style="fill:#184655" /><path
           class="st71"
           d="m 1308.7,112.3 -2.5,6.9 -1.4,3.9 c 0,0 -0.1,6.9 1.5,8.7 2.8,3.1 14.2,-8.3 14.2,-8.3 l 3.6,-21.7 z"
           id="path431"
           inkscape:connector-curvature="0"
           style="fill:#009fd7" /><path
           class="st16"
           d="m 1308.7,112.3 15.4,-10.6 -1.2,7"
           id="path433"
           inkscape:connector-curvature="0"
           style="fill:#f47458" /><path
           class="st71"
           d="m 1321.2,79.3 c -5.8,-3.6 -13.4,-0.9 -15.8,5.4 -1,2.7 -2.2,6.2 -3.1,10 -2.2,9.3 0.6,19.4 4.8,20.4 4.2,0.9 17.3,-2.5 20.6,-15.7 2,-8 -0.4,-16.3 -6.5,-20.1 z"
           id="path435"
           inkscape:connector-curvature="0"
           style="fill:#009fd7" /><path
           class="st71"
           d="m 1324.3,99.8 c -0.5,2.1 0.5,4 2.2,4.4 1.7,0.4 3.4,-1 3.9,-3.1 0.5,-2.1 -0.5,-4 -2.2,-4.4 -1.7,-0.3 -3.5,1.1 -3.9,3.1 z"
           id="path437"
           inkscape:connector-curvature="0"
           style="fill:#009fd7" /><path
           class="st14"
           d="m 1311.2,103.7 c 0,0 5.6,1.8 6,3.9 0.5,2 -0.2,5 -3,7.3 -2.7,2.3 -8.6,0.9 -10.2,-0.4 -1.6,-1.3 -2.8,-6.6 -1.2,-9.5 1.7,-3 8.4,-1.3 8.4,-1.3 z"
           id="path439"
           inkscape:connector-curvature="0"
           style="fill:#184655" /><path
           class="st71"
           d="m 1313,108 c 0,0 0,2.3 -0.8,2.7 -0.7,0.4 -1.7,0.7 -2.5,0.8 -1.4,0.1 -2.7,-0.5 -3.4,-1.5 -0.1,-0.1 -0.1,-0.2 -0.2,-0.3 -0.6,-1.1 -0.7,-3.1 -0.7,-3.1 0,0 2.4,-0.6 3.7,-0.3 1.4,0.1 3.9,1.7 3.9,1.7 z"
           id="path441"
           inkscape:connector-curvature="0"
           style="fill:#009fd7" /><path
           class="st14"
           d="m 1232.1,323.8 c 0,10.6 9.5,19.2 21.2,19.2 11.7,0 21.2,-8.6 21.2,-19.2 0,-10.6 -9.5,-19.2 -21.2,-19.2 -11.7,0 -21.2,8.6 -21.2,19.2 z"
           id="path443"
           inkscape:connector-curvature="0"
           style="fill:#184655" /></g><path
         class="st71"
         d="m 1326.5,185.5 -32.3,8.5 c 0,0 -9.5,6.9 -13.8,8.2 -4.3,1.4 -9.5,6.1 -8.5,7.5 1,1.4 6.4,-3.5 7.3,-3.3 0.9,0.2 -3.2,6 -3.8,9.8 -0.7,3.8 -2,7.5 0.2,7.2 2.2,-0.3 3.8,-8.9 3.8,-8.9 0,0 3.4,-6.5 3.9,-5.7 0.5,0.8 -2.2,5.2 -2.2,5.2 0,0 -0.7,4.8 -1,6.5 -0.2,1.3 0.9,5.1 1.9,3.7 0.6,-0.8 0.3,-3.9 1,-5.7 1.4,-3.7 3.7,-6.6 3.7,-6.6 0,0 -2.4,11 -0.9,11.2 1.5,0.3 3.1,-8.8 3.1,-8.8 0,0 3.7,-7.6 5.4,-8.2 1.6,-0.7 6.1,-3.6 9.6,-4.8 3.5,-1.2 17.8,2.8 24.1,2.8 6.4,0.1 16.7,-3.9 17.6,-8.9 0.3,-1.5 -0.7,-3.2 -2.1,-4.8 -4.3,-4.7 -10.9,-6.5 -17,-4.9 z"
         id="path447"
         inkscape:connector-curvature="0"
         style="fill:#009fd7" /><path
         class="st29"
         d="m 1323.8,124 c 0,0 9.8,-1.7 18.6,14.2 8.8,15.9 3.1,56.9 3.1,56.9 l -19,-9.7 z"
         id="path449"
         inkscape:connector-curvature="0"
         style="fill:#96d9c9" /></g></g></svg>