<?xml version="1.0" encoding="UTF-8" standalone="no"?>
<svg
   xmlns:dc="http://purl.org/dc/elements/1.1/"
   xmlns:cc="http://creativecommons.org/ns#"
   xmlns:rdf="http://www.w3.org/1999/02/22-rdf-syntax-ns#"
   xmlns:svg="http://www.w3.org/2000/svg"
   xmlns="http://www.w3.org/2000/svg"
   xmlns:sodipodi="http://sodipodi.sourceforge.net/DTD/sodipodi-0.dtd"
   xmlns:inkscape="http://www.inkscape.org/namespaces/inkscape"
   viewBox="0 0 299.99999 737.3"
   xml:space="preserve"
   version="1.1"
   id="svg395"
   sodipodi:docname="governanceTL.svg"
   width="300"
   height="737.29999"
   inkscape:version="0.92.4 (5da689c313, 2019-01-14)"><metadata
     id="metadata401"><rdf:RDF><cc:Work
         rdf:about=""><dc:format>image/svg+xml</dc:format><dc:type
           rdf:resource="http://purl.org/dc/dcmitype/StillImage" /><dc:title></dc:title></cc:Work></rdf:RDF></metadata><defs
     id="defs399" /><sodipodi:namedview
     pagecolor="#ffffff"
     bordercolor="#666666"
     borderopacity="1"
     objecttolerance="10"
     gridtolerance="10"
     guidetolerance="10"
     inkscape:pageopacity="0"
     inkscape:pageshadow="2"
     inkscape:window-width="1920"
     inkscape:window-height="1016"
     id="namedview397"
     showgrid="false"
     inkscape:zoom="0.94842112"
     inkscape:cx="525.94841"
     inkscape:cy="386.12361"
     inkscape:window-x="0"
     inkscape:window-y="36"
     inkscape:window-maximized="1"
     inkscape:current-layer="LH_images" /><style
     id="style2">.st0{fill:#ededed;stroke:#25c7a1;stroke-miterlimit:10}.st1{fill:#2d75be}.st2{fill:#555d68}.st3{fill:#fff;stroke:#555d68;stroke-miterlimit:10}.st4{fill:#ededed}.st5{fill:#e15477}.st8{fill:#00666b}.st11,.st9{fill:none;stroke:#00a1d9;stroke-width:3.1848;stroke-miterlimit:10}.st11{stroke:#1c1c1c}.st13{fill:#ff9e36}.st15{fill:#024866}.st16{fill:#dee5da}.st17{fill:#002b3a}.st18{fill:none;stroke:#767a73;stroke-width:.6328;stroke-miterlimit:10}.st19{fill:#3cb5d3}.st22{fill:#9da3e0}.st23{fill:#e5abb9}.st24{fill:#acadad}.st27{fill:#212b53}.st28{fill:#009fd7}.st30{fill:#92cec6}.st31{fill:#f49b42}.st32{fill:#f6a505}.st34{fill:#ffd147}.st35{fill:#fff}.st36,.st37,.st38,.st39{fill-rule:evenodd;clip-rule:evenodd;fill:#00a1d9}.st37,.st38,.st39{fill:#f06060}.st38,.st39{fill:#003056}.st39{fill:#04518c}.st41{fill:#63c0c4}.st44{fill:#01888b}.st46{fill:#abdae0}.st51{font-family:'FontAwesome5Pro-Solid'}.st54{fill:#7776ab}</style><g
     id="LH_images"><g
       id="g372"><path
         class="st54"
         d="m 116.3,113.4 c 12.8,7.4 36.7,24.8 41.5,34.5 1.8,4.6 7.2,32.7 6.6,43.3 -2.4,0.8 -5.5,0.2 -8.7,-3.6 -3,-1.5 -7.6,-27.8 -12.3,-34.3 -14.5,-9.4 -19.7,-10.1 -32.5,-17.3 -18.2,-10.3 -4.9,-28.5 5.4,-22.6 z"
         id="path370"
         inkscape:connector-curvature="0"
         style="fill:#7776ab" /></g><g
       id="g376"><path
         class="st54"
         d="m 107.3,114 c 11.2,8.1 31.8,26.4 35.5,35.7 1.3,4.4 3.7,30.8 2.2,40.5 -2.3,0.5 -5.2,-0.4 -7.7,-4.1 -2.7,-1.7 -4.5,-26.3 -8.3,-32.7 -12.6,-10 -17.4,-11.2 -28.6,-19 -16.1,-11.3 -2.1,-26.8 6.9,-20.4 z"
         id="path374"
         inkscape:connector-curvature="0"
         style="fill:#7776ab" /></g><g
       id="g380"><path
         class="st22"
         d="M 113.9,105.5 C 75.6,121.7 8.6,92.8 -21.6,58.9 c 0,0 11.3,47.3 0.3,52.1 10.3,8.4 46,47.5 58.5,57.2 8.1,6.2 24.3,14.7 84.7,-36.7 -0.1,0 11.9,-4.6 -8,-26 z"
         id="path378"
         inkscape:connector-curvature="0"
         style="fill:#9da3e0" /></g><g
       id="g384"><path
         d="m 149.1,204 8.6,5.8 c 6.8,4.5 15.9,2.6 20.4,-4.3 l 4.2,-6.4 58.5,39.4 -1.4,2.2 -0.1,-0.1 -4.7,7.2 5.6,3.6 2.6,-4 3.7,2.4 -2.7,4.2 2.6,1.7 -4.6,7 6.8,4.4 10.6,-16.3 3.6,2.4 c 1.2,0.8 2.7,0.5 3.5,-0.7 l 1.8,-2.8 c 0.8,-1.1 0.4,-2.7 -0.7,-3.5 l -80.4,-54.1 3.8,-5.8 c 4.5,-6.9 2.7,-16.1 -4,-20.7 l -8.6,-5.8 c -6.8,-4.5 -15.9,-2.6 -20.4,4.3 l -12.6,19.2 c -4.6,6.9 -2.8,16.1 3.9,20.7 z m 4.3,-16.4 11.4,-17.4 c 2.3,-3.5 6.9,-4.4 10.2,-2.1 l 5.3,3.5 c 3.4,2.3 4.3,6.9 2,10.4 L 171,199.4 c -2.3,3.5 -6.9,4.4 -10.2,2.1 l -5.3,-3.5 c -3.4,-2.3 -4.3,-6.9 -2.1,-10.4 z"
         style="clip-rule:evenodd;fill:#e5abb9;fill-rule:evenodd"
         id="path382"
         inkscape:connector-curvature="0" /></g><g
       id="g388"><path
         class="st22"
         d="m 118.8,106.1 c 14.7,6.1 42.5,21.3 49,30.9 2.6,4.7 12.3,34.1 13.1,45.5 -2.4,1.2 -5.9,1 -9.7,-2.6 -3.4,-1.2 -12,-28.7 -17.9,-35 -16.7,-7.9 -22.4,-8 -36.9,-13.8 -20.9,-8.4 -9.4,-29.9 2.4,-25 z"
         id="path386"
         inkscape:connector-curvature="0"
         style="fill:#9da3e0" /></g><g
       id="g392"><path
         class="st22"
         d="m 96.8,182.6 c 17.1,0.7 30.5,3.2 38.3,5.7 7,2.3 14.4,4.1 20.8,6.3 0.5,-4 -2.8,-11.4 -5.9,-13.7 -14,-10.8 -33.2,-7.9 -69.4,-36.6 -17,-13.5 -36.1,-8.4 -43.6,-0.6 -5.3,5.5 -10.7,15.3 0.4,25 8.3,7.5 44.8,13.3 59.4,13.9 z"
         id="path390"
         inkscape:connector-curvature="0"
         style="fill:#9da3e0" /></g></g></svg>