<?xml version="1.0" encoding="UTF-8" standalone="no"?>
<svg
   xmlns:dc="http://purl.org/dc/elements/1.1/"
   xmlns:cc="http://creativecommons.org/ns#"
   xmlns:rdf="http://www.w3.org/1999/02/22-rdf-syntax-ns#"
   xmlns:svg="http://www.w3.org/2000/svg"
   xmlns="http://www.w3.org/2000/svg"
   xmlns:sodipodi="http://sodipodi.sourceforge.net/DTD/sodipodi-0.dtd"
   xmlns:inkscape="http://www.inkscape.org/namespaces/inkscape"
   viewBox="0 0 299.99999 737.3"
   xml:space="preserve"
   version="1.1"
   id="svg395"
   sodipodi:docname="governanceBL.svg"
   width="300"
   height="737.29999"
   inkscape:version="0.92.4 (5da689c313, 2019-01-14)"><metadata
     id="metadata401"><rdf:RDF><cc:Work
         rdf:about=""><dc:format>image/svg+xml</dc:format><dc:type
           rdf:resource="http://purl.org/dc/dcmitype/StillImage" /><dc:title></dc:title></cc:Work></rdf:RDF></metadata><defs
     id="defs399" /><sodipodi:namedview
     pagecolor="#ffffff"
     bordercolor="#666666"
     borderopacity="1"
     objecttolerance="10"
     gridtolerance="10"
     guidetolerance="10"
     inkscape:pageopacity="0"
     inkscape:pageshadow="2"
     inkscape:window-width="1920"
     inkscape:window-height="1016"
     id="namedview397"
     showgrid="false"
     inkscape:zoom="0.94842112"
     inkscape:cx="619.00727"
     inkscape:cy="386.12361"
     inkscape:window-x="0"
     inkscape:window-y="36"
     inkscape:window-maximized="1"
     inkscape:current-layer="LH_images" /><style
     id="style2">.st0{fill:#ededed;stroke:#25c7a1;stroke-miterlimit:10}.st1{fill:#2d75be}.st2{fill:#555d68}.st3{fill:#fff;stroke:#555d68;stroke-miterlimit:10}.st4{fill:#ededed}.st5{fill:#e15477}.st8{fill:#00666b}.st11,.st9{fill:none;stroke:#00a1d9;stroke-width:3.1848;stroke-miterlimit:10}.st11{stroke:#1c1c1c}.st13{fill:#ff9e36}.st15{fill:#024866}.st16{fill:#dee5da}.st17{fill:#002b3a}.st18{fill:none;stroke:#767a73;stroke-width:.6328;stroke-miterlimit:10}.st19{fill:#3cb5d3}.st22{fill:#9da3e0}.st23{fill:#e5abb9}.st24{fill:#acadad}.st27{fill:#212b53}.st28{fill:#009fd7}.st30{fill:#92cec6}.st31{fill:#f49b42}.st32{fill:#f6a505}.st34{fill:#ffd147}.st35{fill:#fff}.st36,.st37,.st38,.st39{fill-rule:evenodd;clip-rule:evenodd;fill:#00a1d9}.st37,.st38,.st39{fill:#f06060}.st38,.st39{fill:#003056}.st39{fill:#04518c}.st41{fill:#63c0c4}.st44{fill:#01888b}.st46{fill:#abdae0}.st51{font-family:'FontAwesome5Pro-Solid'}.st54{fill:#7776ab}</style><g
     id="LH_images"><path
       class="st27"
       d="m 57.6,721.5 c 0,0 1.8,2.4 10,4.5 1.8,0.5 3.8,0.8 3.8,3.8 h -8.2 l -8.3,-1.4 v 1.4 h -4.5 c 0,0 -1.3,-7.4 1.4,-8.3 z"
       id="path163"
       inkscape:connector-curvature="0"
       style="fill:#212b53" /><path
       class="st28"
       d="m 58.1,716.2 -0.4,5.3 c -1.6,1.1 -3.8,1.2 -5.5,0.2 l -0.3,-0.2 v -5.3 z"
       id="path165"
       inkscape:connector-curvature="0"
       style="fill:#009fd7" /><path
       class="st27"
       d="m 15.8,722.6 c 0,0 1.8,2.4 10,4.5 1.8,0.5 3.8,0.8 3.8,3.8 h -8.2 l -8.3,-1.4 v 1.4 H 8.6 c 0,0 -1.3,-7.4 1.4,-8.3 z"
       id="path167"
       inkscape:connector-curvature="0"
       style="fill:#212b53" /><path
       class="st28"
       d="m 16.2,717.3 -0.4,5.3 c -1.6,1.1 -3.8,1.2 -5.5,0.2 L 10,722.6 v -5.3 z"
       id="path169"
       inkscape:connector-curvature="0"
       style="fill:#009fd7" /><path
       class="st27"
       d="m 61.4,586.2 -2,132.8 h -9.7 c 0,0 -14.7,-107.3 -11.6,-132.8 3.1,-25.6 23.3,0 23.3,0 z"
       id="path171"
       inkscape:connector-curvature="0"
       style="fill:#212b53" /><path
       d="m 51.1,586.2 c 0,0 -3.4,40.8 -11.1,63.4 -7.7,22.6 -21.7,69.5 -21.7,69.5 h -10 c 0,0 16.7,-98 12.9,-132.9 z"
       style="fill:#12375a"
       id="path173"
       inkscape:connector-curvature="0" /><path
       class="st24"
       d="m 59.9,518.6 c 0,0 11.9,27.8 15,27.8 2.4,0 -0.9,-22.7 -0.9,-22.7 h 10 c 0,0 12.6,38.9 2.6,46 -10,7.1 -31.9,-20.1 -31.9,-20.1 z"
       id="path175"
       inkscape:connector-curvature="0"
       style="fill:#acadad" /><path
       class="st28"
       d="m 24.3,589.7 3.6,8.9 c 1.7,3.5 8.1,3.6 12.4,2.5 0.6,-0.2 0.9,-1 0.4,-1.4 -2.3,-2.6 -8.4,-9.1 -10.5,-10.6 z"
       id="path177"
       inkscape:connector-curvature="0"
       style="fill:#009fd7" /><path
       class="st24"
       d="m 54.5,512.8 c 0,0 6.2,4.2 6.2,9.1 v 64.3 H 24.3 v -60.1 c 0,0 0.7,-13.4 13.8,-13.4 13,0 16.4,0.1 16.4,0.1 z"
       id="path179"
       inkscape:connector-curvature="0"
       style="fill:#acadad" /><path
       class="st30"
       d="m 60.2,586.2 v -57.7 h 1.2 v 57.7 z"
       id="path181"
       inkscape:connector-curvature="0"
       style="fill:#92cec6" /><path
       class="st28"
       d="m 38.4,500.5 3.9,14.7 c 0,0 3.3,2.7 7.7,1.5 4.4,-1.2 3.6,-4.3 3.6,-4.3 L 51.1,503 h -7 z"
       id="path183"
       inkscape:connector-curvature="0"
       style="fill:#009fd7" /><path
       class="st28"
       d="m 52.4,505.5 c 1.3,-0.4 2.5,-1 3,-1.7 2.3,-7.3 -6.7,-22.9 -6.7,-22.9 l -13.5,6.3 2.5,11.4 c 0.7,3 2.8,5.6 5.6,6.8 3,0.9 6.2,1 9.1,0.1 z"
       id="path185"
       inkscape:connector-curvature="0"
       style="fill:#009fd7" /><path
       class="st27"
       d="m 42,485.8 c 0,0 4.9,-0.4 9.7,-2.6 4.7,-2.2 0.1,-6.8 0.1,-6.8 0,0 -3.2,2.6 -10,3.4 -4.6,0.5 -6,0 -8.4,2.2 -3.3,3.1 -0.5,9.7 -0.5,9.7 l 6,14.1 0.8,-0.2 c 0,0 -2.1,-8.8 -2.9,-11.7 0.5,-1.6 1.4,-1.8 2.1,-1.7 0.8,0.2 1.5,0.9 1.7,1.7 l 4,15.2 c 0,0 10.8,1.6 13.1,0.2 2.3,-1.4 -2.4,-12.2 -2.4,-12.2 0,0 -3.2,-0.5 -4.7,2.6 -1.5,3 -4.9,1.2 -4.9,1.2 z"
       id="path187"
       inkscape:connector-curvature="0"
       style="fill:#212b53" /><path
       class="st28"
       d="m 82,523.7 -0.4,-1.9 c -0.8,-4.2 -4.8,-9.5 -8.9,-10.9 h -4.2 l 1.3,9.1 6,3.8 H 82 Z M 37.6,492.2 c 1.1,-0.4 2.4,0.4 3,1.7 0.6,1.3 0.2,2.7 -0.9,3.1 -1.1,0.4 -2.4,-0.4 -3,-1.7 -0.6,-1.3 -0.2,-2.7 0.9,-3.1 z"
       id="path189"
       inkscape:connector-curvature="0"
       style="fill:#009fd7" /><path
       class="st28"
       d="m 71.5,518.9 8.3,4.8 c 0,0 -5.2,-0.1 -5.3,0 l -8.7,-7.3 c 0,0 0.6,-1.3 2.6,-0.2 2,1 3.1,2.7 3.1,2.7 z"
       id="path191"
       inkscape:connector-curvature="0"
       style="fill:#009fd7" /><path
       class="st24"
       d="m 28.2,516.7 c 0,0 -20.6,22.9 -20.6,36.7 0,13.7 16.8,38 16.8,38 l 8.3,-2.4 c 0,0 -7.5,-30 -7.5,-37.9 0,-8 15.3,-19.7 15.3,-19.7"
       id="path193"
       inkscape:connector-curvature="0"
       style="fill:#acadad" /><path
       class="st30"
       d="m 25.7,551 c 0,6.9 6.1,32 7.5,37.8 -0.4,0.1 -0.6,0.1 -1.2,0.3 -1.8,-7.2 -7.5,-31.4 -7.5,-38.1 0,-8.2 14.9,-19.7 15.6,-20.1 l 0.7,1 c -0.2,0 -15.1,11.5 -15.1,19.1 z"
       id="path195"
       inkscape:connector-curvature="0"
       style="fill:#92cec6" /><g
       id="g217"><path
         class="st31"
         d="m 66.1,505.2 c 0,0 -0.6,9 5.7,15.4 0.4,0.4 1,0.7 1.6,0.7 1.3,0 2.1,-0.5 2.8,-0.8 1,-0.4 1.4,-1 1.6,-1.4 0.2,-0.4 0,-0.8 -0.3,-1.2 -1.3,-1.5 -5.4,-6.7 -4.5,-11.9 -3.1,-2.1 -6.9,-0.8 -6.9,-0.8 z"
         id="path197"
         inkscape:connector-curvature="0"
         style="fill:#f49b42" /><path
         class="st32"
         d="m 77,520.1 c 0.6,-0.4 0.7,-0.6 0.8,-1 0.2,-0.4 0,-0.8 -0.3,-1.2 -1.3,-1.5 -5.4,-6.7 -4.5,-11.9 -1.1,-0.7 -2.3,-1 -3.4,-1.1 0.6,5.5 2.2,9 7.4,15.2 z"
         id="path199"
         inkscape:connector-curvature="0"
         style="fill:#f6a505" /><path
         class="st31"
         d="m 71.9,511.9 c 0.4,1.2 1.1,2.1 1.6,1.9 0.5,-0.2 0.5,-1.3 0.1,-2.5 -0.4,-1.2 -1.1,-2.1 -1.6,-1.9 -0.5,0.1 -0.5,1.2 -0.1,2.5 z"
         id="path201"
         inkscape:connector-curvature="0"
         style="fill:#f49b42" /><path
         class="st31"
         d="m 71.9,509.4 0.5,-0.2 v 0.3 l -0.3,0.1 z"
         id="path203"
         inkscape:connector-curvature="0"
         style="fill:#f49b42" /><path
         style="fill:#e7375e"
         d="M 73.4,513.8 74,513.6 H 73.3 Z"
         id="path205"
         inkscape:connector-curvature="0" /><path
         class="st34"
         d="m 72.3,511.7 c 0.4,1.2 1.1,2.1 1.6,1.9 0.5,-0.2 0.5,-1.3 0.1,-2.5 -0.4,-1.2 -1.1,-2.1 -1.6,-1.9 -0.5,0.2 -0.5,1.3 -0.1,2.5 z m -9.3,-13.6 -1,0.1 c -1.9,0.2 -3.2,1.9 -3,3.6 l 0.3,2.6 c 0.2,1.8 1.9,3 3.8,2.8 l 1,-0.1 z"
         id="path207"
         inkscape:connector-curvature="0"
         style="fill:#ffd147" /><path
         class="st27"
         d="m 93,496.9 c 0.9,7 0,12.8 -2,13.1 -2,0.2 -4.3,-5.2 -5.2,-12.2 -0.9,-7 0,-12.8 2,-13.1 2,-0.3 4.3,5.2 5.2,12.2 z"
         id="path209"
         inkscape:connector-curvature="0"
         style="fill:#212b53" /><path
         class="st35"
         d="m 85.1,493.1 3,1.5 0.6,4.1 -2.6,3 -1.7,-5.2 z"
         id="path211"
         inkscape:connector-curvature="0"
         style="fill:#ffffff" /><path
         class="st32"
         d="m 85.8,497.8 c -0.7,-5.9 -0.2,-10.9 1.1,-12.5 -10.8,10 -24.5,13 -24.5,13 l 1.1,8.9 c 0,0 18.7,-3.4 26.5,2.5 -1.7,-1.3 -3.4,-6.1 -4.2,-11.9 z"
         id="path213"
         inkscape:connector-curvature="0"
         style="fill:#f6a505" /><path
         class="st34"
         d="m 88.8,496.6 c 0.1,1.1 0.1,2.1 -0.1,2.1 -0.2,0 -0.5,-0.9 -0.6,-2 -0.1,-1.1 -0.1,-2.1 0.1,-2.1 0.2,0 0.4,0.9 0.6,2 z"
         id="path215"
         inkscape:connector-curvature="0"
         style="fill:#ffd147" /></g><path
       class="st28"
       d="m 77.4,517.1 c -0.3,0.1 -1.3,0.8 -4.6,0.8 -2.4,0 -3.5,-3 -3.9,-4.6 -0.1,-0.6 -0.3,-1.4 0.4,-1.7 l 3.9,-0.5 z"
       id="path219"
       inkscape:connector-curvature="0"
       style="fill:#009fd7" /><g
       id="g271"><path
         class="st36"
         d="m 206,437.4 c -0.9,0 -1.8,0.3 -2.6,0.9 -1.5,1.1 -2.1,3.1 -2.8,4.7 -1.2,2.9 -2,6 -3.3,8.8 -2.6,5.5 -5.3,12.5 -8.8,17.5 1.7,0.7 2.2,1.5 3.9,2 0.3,0.1 5.8,-6.8 6.3,-7.5 2,-2.4 3.6,-4.8 5.1,-7.5 2.1,-3.8 4.2,-7.7 5.9,-11.7 1.1,-2.6 1.7,-5.6 -1.7,-6.9 -0.7,-0.2 -1.3,-0.3 -2,-0.3 z"
         id="path221"
         inkscape:connector-curvature="0"
         style="clip-rule:evenodd;fill:#00a1d9;fill-rule:evenodd" /><path
         class="st36"
         d="m 183.6,474.1 c 1.1,-1.2 1.8,-2.7 2.9,-3.9 0.3,-0.4 3,-2.6 3.3,-2.5 0.7,0.4 1.5,0.7 2.2,1 0.9,0.4 1.6,0.4 1.7,1.4 0.1,1 -0.4,2.3 -0.6,3.3 -0.6,2.2 -1.5,4.4 -2.8,6.3 -0.1,0 -0.5,-0.1 -0.5,-0.2 0.3,-0.8 1,-2.4 1,-3.2 -0.5,0.9 -1.3,2.9 -1.8,3.8 -0.1,0 -1.1,-0.1 -1.1,-0.1 0.5,-1.1 1.4,-3 1.5,-4 -0.5,1 -0.8,1.3 -2.1,4.1 -0.4,0 -0.6,-0.1 -1,-0.2 0.4,-1.2 1.4,-3.1 1.7,-4.4 -0.8,1 -1.6,2.8 -2.1,3.9 -0.2,0.4 -0.8,-0.2 -0.8,-0.3 -0.1,-0.4 2.1,-5.3 2.3,-6.9 -0.8,0.9 -2,1.9 -3.2,2.4 -0.2,-0.1 -0.5,-0.4 -0.6,-0.5 z"
         id="path223"
         inkscape:connector-curvature="0"
         style="clip-rule:evenodd;fill:#00a1d9;fill-rule:evenodd" /><path
         class="st37"
         d="m 202.1,441.4 c -0.3,-0.2 -0.5,-0.4 -0.7,-0.6 -0.8,-1 0.1,-2.5 0.4,-3.6 0.4,-1.9 0.5,-3.9 0.8,-5.9 0.4,-3.8 0.9,-7.5 1.3,-11.3 0.4,-4.4 1,-10.9 2.7,-15 1.8,-4.3 8.3,-5.8 10.6,-0.3 1.1,2.7 0.6,6.4 0.2,9.2 -0.5,3.1 -1.4,6.1 -2,9.2 -0.7,3.5 -1.4,7 -2.3,10.5 -0.4,1.6 -1,3.2 -1.4,4.8 -0.3,1.3 -0.8,2.8 -1.7,3.8 -1.3,1.4 -3.7,0.7 -5.2,0.2 -0.8,-0.1 -1.9,-0.5 -2.7,-1 z"
         id="path225"
         inkscape:connector-curvature="0"
         style="clip-rule:evenodd;fill:#f06060;fill-rule:evenodd" /><path
         class="st38"
         d="m 227.5,502.6 c 0,4.4 -0.4,11.1 -0.9,15.5 -0.4,3.4 -0.2,7.1 -3.4,8.3 -7.2,2.5 -9.2,-3 -11.1,-9.1 -3,-9.7 -6.5,-24.9 -7.6,-35 -1,-8.9 -2.5,-17.3 -2,-26.1 0.4,-7.1 4.2,-19.4 12.5,-15 6.7,3.5 8.7,17.7 10.1,24.7 2.7,12.8 2.5,23.9 2.4,36.7 z m 24.4,67.1 c 2.2,1.4 5.7,5.1 7.2,7.4 -0.6,1 -1.8,2.4 -2.8,3.3 -0.8,-1.3 -0.9,-1.2 -1.7,-2.2 0.6,6.6 -7.4,12.1 -7.4,12.1 0.3,-8.6 0.5,-10.5 -1,-16.8 -0.1,0 1.8,-6.3 5.7,-3.8 z"
         id="path227"
         inkscape:connector-curvature="0"
         style="clip-rule:evenodd;fill:#003056;fill-rule:evenodd" /><path
         class="st38"
         d="m 216.4,520.7 c 4.4,-4.7 9.5,-2 12.9,1.3 1,0.9 2,2.2 2.9,3.7 h 0.1 c 0.7,-0.4 7.7,12.5 21,46.5 -1.6,2.1 -4,2.9 -6.1,4.1 -1.4,-7.3 -20.4,-33.2 -26.9,-42.4 -3.7,-5.1 -6.9,-10 -3.9,-13.2 z"
         id="path229"
         inkscape:connector-curvature="0"
         style="clip-rule:evenodd;fill:#003056;fill-rule:evenodd" /><path
         class="st36"
         d="m 213.5,361.5 c 1,1.6 1.7,3.4 2.1,5.2 0.4,2 0.3,4.1 1.3,6 2.3,4.2 3.8,8.3 1.4,12.8 -1.9,3.7 -6.9,6.3 -11.7,5.8 -2.7,-1.1 -3.6,-4 -4.6,-6.6 -0.5,-1.3 -0.1,-2.1 -1.4,-2.6 -2.2,-0.8 -2.4,-0.8 -1.8,-2.5 1.2,-3.4 0.1,-4.9 -0.9,-8.3 -1.5,-5.1 0.2,-10.8 5,-13.3 4.6,-2.3 8.3,-0.1 10.6,3.5 z"
         id="path231"
         inkscape:connector-curvature="0"
         style="clip-rule:evenodd;fill:#00a1d9;fill-rule:evenodd" /><path
         class="st38"
         d="m 223.4,418 c -3.2,-2.5 -5.5,-6.2 -5.6,-10.3 -0.2,-4.8 -0.8,-15.9 1,-19.9 1,-2.2 2.3,-5.9 2.3,-8.4 0,-1.4 -0.8,-2.8 -1.5,-3.9 -1.7,-2.8 -2.4,-6.7 -0.7,-9.6 2.7,-4.6 6.9,-5 8.8,0 1.5,4 1.5,8.6 3.7,12.4 2.6,4.5 5.1,8.5 9.5,11.5 2.7,1.9 5.3,3.4 7.4,6.1 4.5,6 1.4,15.9 -3.5,20.7 -2.1,2 -6.2,3.9 -9.4,4.2 -2.8,0.2 -6.1,0.5 -8.6,-0.6 -1.2,-0.7 -2.4,-1.4 -3.4,-2.2 z"
         id="path233"
         inkscape:connector-curvature="0"
         style="clip-rule:evenodd;fill:#003056;fill-rule:evenodd" /><path
         class="st36"
         d="m 211.8,390.2 c 0.4,3.6 -0.1,9.6 1.6,11.1 4.4,3.8 7.4,-2.3 7.4,-2.3 l -2.1,-12.5 c 0,0 -7.5,-1.2 -6.9,3.7 z"
         id="path235"
         inkscape:connector-curvature="0"
         style="clip-rule:evenodd;fill:#00a1d9;fill-rule:evenodd" /><path
         class="st38"
         d="m 207.2,355.9 c -2.5,1 -8.7,3.9 -11.1,5.1 -0.9,4.2 1.8,10 7.1,11.5 2.1,0.6 10.5,-1.9 12.1,0.6 1.7,2.6 1.1,4.7 0.5,7 -0.8,3 -0.1,11.1 1.9,13.4 2.1,2.4 5.5,3.4 8.5,2.4 3.5,-1.2 7.4,-6.3 7,-10.9 -0.3,-4.1 -5.3,-15.9 -5.4,-16.6 -1.2,-7.2 -3.9,-11.2 -7.9,-13.1 -3.7,-1.9 -7.8,-1.4 -12.7,0.6 z"
         id="path237"
         inkscape:connector-curvature="0"
         style="clip-rule:evenodd;fill:#003056;fill-rule:evenodd" /><g
         id="g241"><path
           class="st36"
           d="m 216.3,507.2 c -1.1,4.3 -3,10.9 -4.5,15 -1.2,3.2 -2.2,5.2 -5.6,5.4 -7.6,0.5 -7.8,-8.1 -8.2,-14.6 -0.6,-10.2 -0.3,-23.7 1.1,-33.7 1.2,-8.9 1.8,-17.4 4.5,-25.8 2.1,-6.7 8.8,-17.6 15.8,-11.1 5.6,5.2 4.1,19.4 3.7,26.6 -0.8,13.2 -3.6,25.8 -6.8,38.2 z"
           id="path239"
           inkscape:connector-curvature="0"
           style="clip-rule:evenodd;fill:#00a1d9;fill-rule:evenodd" /></g><g
         id="g245"><path
           class="st39"
           d="m 201.7,437.3 c 0.1,-0.4 0.2,-0.9 0.2,-1.2 0.2,-1.1 0.3,-2.3 0.5,-3.4 0.5,-2.7 1,-5.6 0.2,-8.3 -0.9,-2.9 -4,-6.1 -4.4,-9.2 -0.7,-6 7.7,-9.7 12.5,-16.7 5.6,-5 18.6,-2.8 17.8,9.5 -0.4,6 -1.8,7.7 -4,13 -0.4,1 -0.7,2.1 -1.2,3.2 -0.4,0.9 -0.6,1.8 -0.9,2.7 -0.7,1.8 -1.5,3.5 -2.1,5.4 -0.5,1.9 -1.1,4.1 -2,5.8 -0.7,1.4 -1.7,1.6 -3.1,1.6 -2.3,0 -4.5,-0.1 -6.8,-0.1 -1.1,0 -2.2,0 -3.3,-0.1 -1,-0.1 -2.1,0.2 -2.9,-0.5 -0.5,-0.4 -0.5,-1.1 -0.5,-1.7 z"
           id="path243"
           inkscape:connector-curvature="0"
           style="clip-rule:evenodd;fill:#04518c;fill-rule:evenodd" /></g><g
         id="g249"><path
           class="st37"
           d="m 216.3,439.3 c 8.2,5.4 11.8,13.7 14.4,26.4 2.1,10.4 7.4,27.9 12.9,43.3 -10.1,2.8 -32.9,6.1 -49.2,4.9 1.6,-37.4 4,-56.5 7.5,-75.6 2.9,0.1 10.7,0.8 14.4,1 z"
           id="path247"
           inkscape:connector-curvature="0"
           style="clip-rule:evenodd;fill:#f06060;fill-rule:evenodd" /></g><g
         id="g255"><path
           class="st39"
           d="m 208.7,580.4 c 0.6,2.6 0.6,7.8 0,10.6 -1.1,0.3 -2.9,0.3 -4.2,0.3 0.3,-1.5 0.2,-1.6 0.3,-2.8 -4,5.1 -13.3,2.4 -13.3,2.4 6,-5.8 7.4,-6.4 10.6,-12 -0.1,0 5.5,-3.1 6.6,1.5 z"
           id="path251"
           inkscape:connector-curvature="0"
           style="clip-rule:evenodd;fill:#04518c;fill-rule:evenodd" /><path
           class="st36"
           d="m 199.1,531.1 c -0.7,-5.9 -0.8,-11.4 3.2,-12.5 6,-1.6 9.1,3.4 10.4,8.1 0.3,1.3 0.6,2.9 0.7,4.6 0.6,1.8 0.1,15.5 -4.6,49.2 -2.4,0.9 -5.5,0.7 -7.9,0.6 2.4,-7.1 -1,-39 -1.9,-49.9 0,-0.1 0,-0.1 0.1,-0.1 z"
           id="path253"
           inkscape:connector-curvature="0"
           style="clip-rule:evenodd;fill:#00a1d9;fill-rule:evenodd" /></g><g
         id="g265"><path
           class="st36"
           d="m 233.5,435.1 c -0.7,0.6 -1.3,1.3 -1.6,2.3 -0.6,1.8 0,3.8 0.4,5.5 0.7,3.1 1.8,6 2.3,9.2 1,6 2.8,13.4 2.8,19.5 1.8,-0.4 2.6,-0.1 4.3,-0.7 0.3,-0.1 0.8,-9 0.9,-9.8 0.3,-3.1 0.2,-6 -0.1,-9.1 -0.5,-4.4 -0.9,-8.7 -1.8,-13 -0.6,-2.8 -1.8,-5.6 -5.3,-4.6 -0.8,0 -1.4,0.3 -1.9,0.7 z"
           id="path257"
           inkscape:connector-curvature="0"
           style="clip-rule:evenodd;fill:#00a1d9;fill-rule:evenodd" /><path
           class="st36"
           d="m 236.1,478.4 c 0.3,-1.6 0,-3.3 0.2,-4.9 0.1,-0.5 1,-3.9 1.2,-3.9 0.8,-0.1 1.6,-0.3 2.4,-0.5 1,-0.2 1.5,-0.6 2.2,0.2 0.6,0.8 1,2.1 1.3,3.1 0.8,2.1 1.2,4.6 1.3,7 0,0 -0.5,0.3 -0.5,0.2 -0.2,-0.8 -0.5,-2.9 -0.9,-3.7 0.1,1 0.4,3.6 0.5,4.6 -0.1,0 -0.7,0.5 -0.7,0.4 -0.2,-0.8 -0.5,-1.7 -1.4,-4.9 0.1,1 0.1,2.3 0.6,5.3 -0.4,0.2 -0.6,0.2 -1,0.3 -0.4,-1.2 -0.7,-3.8 -1.1,-5.1 -0.1,1.3 0.5,3.8 0.6,5 0.1,0.4 -0.7,-0.1 -0.8,-0.2 -0.3,-0.3 -0.4,-1 -0.6,-1.4 -0.5,-1.6 -0.8,-4.2 -1.5,-5.6 -0.1,1.3 -0.5,3.1 -1.2,4.2 -0.1,0 -0.5,-0.1 -0.6,-0.1 z"
           id="path259"
           inkscape:connector-curvature="0"
           style="clip-rule:evenodd;fill:#00a1d9;fill-rule:evenodd" /><g
           id="g263"><path
             class="st37"
             d="m 232.8,439.9 c -0.9,0 -1.6,-0.4 -2.1,-1.5 -0.9,-2.2 -2,-4.3 -3.1,-6.4 -1.8,-3.4 -3.4,-6.8 -5.2,-10.1 -2.1,-3.9 -5.2,-9.6 -6.1,-13.9 -0.9,-4.6 3.6,-9.6 8.6,-6.3 2.4,1.6 4,5 5.3,7.5 1.3,2.9 2.3,5.9 3.5,8.8 1.6,3.6 3,7.3 4.2,11 0.6,1.8 1.1,3.6 1.6,5.3 0.4,1.3 0.3,2.5 -0.9,3.3 -0.8,0.5 -1.8,1 -2.6,1.4 -1.1,0.5 -2.2,0.9 -3.2,0.9 z"
             id="path261"
             inkscape:connector-curvature="0"
             style="clip-rule:evenodd;fill:#f06060;fill-rule:evenodd" /></g></g><g
         id="g269"><path
           class="st37"
           d="m 219.9,435.1 -17.5,-2.5 -0.5,2.2 17.4,2.5 z"
           id="path267"
           inkscape:connector-curvature="0"
           style="clip-rule:evenodd;fill:#f06060;fill-rule:evenodd" /></g></g><g
       id="g364"><path
         style="fill:#afd8c7"
         d="m 149.2,293 11.7,23.2 -24.7,-5.7 -84.5,-26.6 z"
         id="path273"
         inkscape:connector-curvature="0" /><path
         class="st41"
         d="m 160.9,316.2 -41.9,-2.6 10.3,-5.3 z"
         id="path275"
         inkscape:connector-curvature="0"
         style="fill:#63c0c4" /><linearGradient
         id="SVGID_1_"
         gradientUnits="userSpaceOnUse"
         x1="51.693001"
         y1="281.75201"
         x2="156.524"
         y2="281.75201"><stop
           offset="0"
           style="stop-color:#f1f8f7"
           id="stop277" /><stop
           offset="1"
           style="stop-color:#bfe3ee"
           id="stop279" /></linearGradient><path
         style="fill:url(#SVGID_1_)"
         d="m 149.2,293 7.3,-22.5 -104.8,13.4 z"
         id="path282"
         inkscape:connector-curvature="0" /><linearGradient
         id="SVGID_00000091729058281862936410000002604061954315796137_"
         gradientUnits="userSpaceOnUse"
         x1="51.693001"
         y1="313.45901"
         x2="136.23199"
         y2="313.45901"><stop
           offset="0"
           style="stop-color:#f1f8f7"
           id="stop284" /><stop
           offset="1"
           style="stop-color:#bfe3ee"
           id="stop286" /></linearGradient><path
         style="fill:url(#SVGID_00000091729058281862936410000002604061954315796137_)"
         d="m 51.7,283.9 84.5,26.6 -12.6,32.5 z"
         id="path289"
         inkscape:connector-curvature="0" /><g
         id="g293"><path
           class="st41"
           d="m 151.7,339.5 c 0.2,-0.1 0.4,-0.3 0.6,-0.5 0.7,-0.8 0.6,-2.1 -0.2,-2.8 -2.6,-2.3 -5.4,-4.3 -8.3,-6 -0.9,-0.6 -2.1,-0.2 -2.7,0.7 -0.6,0.9 -0.2,2.2 0.7,2.7 2.7,1.6 5.3,3.5 7.7,5.6 0.6,0.5 1.5,0.6 2.2,0.3 z M 121,555.3 c -0.6,-0.9 -0.2,-2.1 0.7,-2.7 5.3,-3.1 10.2,-7.4 14.5,-12.6 0.7,-0.8 1.9,-1 2.8,-0.3 0.8,0.7 1,1.9 0.3,2.8 -4.6,5.5 -9.8,10.1 -15.5,13.4 0,0 -0.1,0 -0.1,0.1 -1.1,0.5 -2.2,0.2 -2.7,-0.7 z m 22.5,-22.2 c -0.9,-0.5 -1.3,-1.7 -0.7,-2.7 3.2,-5.6 5.6,-11.7 7.2,-18 0.3,-1.1 1.3,-1.7 2.4,-1.4 1.1,0.3 1.7,1.3 1.4,2.4 -1.6,6.6 -4.2,13 -7.6,19 -0.2,0.4 -0.5,0.6 -0.8,0.8 -0.6,0.3 -1.3,0.3 -1.9,-0.1 z m 10,-30 c -1.1,-0.1 -1.9,-1 -1.8,-2.1 l 0.1,-0.9 c 0.3,-6 0,-12.2 -1,-18.6 -0.2,-1.1 0.6,-2.1 1.7,-2.2 1.1,-0.2 2.1,0.6 2.2,1.7 1,6.6 1.3,13.1 1,19.4 l -0.1,1 c -0.1,0.7 -0.5,1.3 -1.1,1.6 -0.3,0.1 -0.6,0.1 -1,0.1 z m -2.7,-31.6 c -1.1,0.3 -2.1,-0.3 -2.4,-1.4 -1.6,-6 -3.7,-12.2 -6.4,-18.6 -0.4,-1 0.1,-2.2 1.1,-2.6 1,-0.4 2.2,0.1 2.6,1.1 2.7,6.6 5,13 6.6,19.1 0.2,0.9 -0.2,1.9 -1,2.3 -0.3,0 -0.4,0 -0.5,0.1 z m -11.1,-29.9 c -1,0.5 -2.2,0.1 -2.6,-0.9 -0.2,-0.5 -0.5,-1 -0.7,-1.5 -2.1,0.8 -4.2,1.5 -6.4,2.1 -1.1,0.3 -2.1,-0.3 -2.4,-1.4 -0.3,-1 0.3,-2.1 1.4,-2.4 1.9,-0.5 3.8,-1.1 5.6,-1.9 -2.1,-3.9 -4.3,-8 -6.9,-12.4 -0.5,-0.9 -0.2,-2.2 0.7,-2.7 0.9,-0.5 2.2,-0.2 2.7,0.7 2.6,4.6 5,8.8 7.1,12.9 2.9,-1.3 5.6,-2.9 8.2,-4.6 0.9,-0.6 2.1,-0.4 2.7,0.5 0.6,0.9 0.4,2.1 -0.5,2.7 -2.7,1.8 -5.6,3.4 -8.6,4.8 0.2,0.4 0.4,0.9 0.6,1.3 0.4,1.1 0.1,2.3 -0.9,2.8 z M 155.3,425 c -0.8,-0.8 -0.8,-2 0,-2.8 2.8,-2.9 5.2,-6 7.2,-9.4 1.2,-2.1 2.3,-4.3 3.3,-6.6 0.4,-1 1.6,-1.5 2.6,-1.1 1,0.4 1.5,1.6 1.1,2.6 -1,2.5 -2.2,4.8 -3.5,7.1 -2.1,3.6 -4.8,7 -7.8,10.1 -0.2,0.2 -0.3,0.3 -0.5,0.4 -0.9,0.4 -1.8,0.3 -2.4,-0.3 z m -37.5,18.5 c -7,0.6 -13.9,0.1 -20.5,-1.6 -1.1,-0.3 -1.7,-1.3 -1.4,-2.4 0.3,-1.1 1.3,-1.7 2.4,-1.4 6.1,1.6 12.6,2.1 19.1,1.5 1.1,-0.1 2,0.7 2.1,1.8 0.1,0.8 -0.4,1.6 -1.1,1.9 -0.1,0.1 -0.4,0.2 -0.6,0.2 z m 52.7,-46.1 c -1.1,-0.2 -1.8,-1.2 -1.6,-2.3 1.1,-6.2 1.2,-12.7 0.2,-19.2 -0.2,-1.1 0.6,-2.1 1.7,-2.2 1.1,-0.2 2.1,0.6 2.2,1.7 1,6.9 1,13.8 -0.2,20.5 -0.1,0.6 -0.5,1.1 -1.1,1.4 -0.3,0.1 -0.8,0.2 -1.2,0.1 z m -84.8,40.2 c -1.6,-0.8 -3.2,-1.7 -4.6,-2.7 -4.3,-2.8 -8.2,-6.5 -11.2,-10.7 -0.6,-0.9 -0.4,-2.1 0.5,-2.8 0.9,-0.6 2.1,-0.4 2.8,0.5 2.7,3.8 6.2,7.1 10.1,9.7 1.4,0.9 2.8,1.7 4.3,2.5 1,0.5 1.4,1.7 0.9,2.7 -0.2,0.4 -0.5,0.7 -0.9,0.9 -0.6,0.1 -1.3,0.2 -1.9,-0.1 z m 35.8,-24.5 c -4.2,-6.6 -8.1,-11.4 -12.2,-15 -0.8,-0.7 -0.9,-2 -0.1,-2.8 0.7,-0.8 2,-0.9 2.8,-0.1 4.3,3.9 8.4,9 12.9,15.8 0.6,0.9 0.3,2.1 -0.6,2.7 -0.1,0 -0.1,0.1 -0.2,0.1 -1,0.4 -2.1,0.1 -2.6,-0.7 z m 47.3,-47.2 c -1,0.4 -2.2,-0.2 -2.5,-1.2 -1,-2.8 -2.1,-5.5 -3.4,-8.1 -1.6,-3.1 -3.5,-6.1 -5.6,-8.9 -0.7,-0.9 -0.5,-2.1 0.4,-2.8 0.9,-0.7 2.1,-0.5 2.8,0.4 2.2,2.9 4.2,6.1 5.9,9.5 1.4,2.8 2.6,5.7 3.6,8.6 0.3,0.9 -0.1,2 -1,2.4 0,0 -0.1,0.1 -0.2,0.1 z M 66.9,414.2 c -1.1,0.3 -2.1,-0.4 -2.4,-1.4 -1.4,-5.6 -0.8,-11.1 1.6,-15.7 0.9,-1.7 2,-3.3 3.4,-4.6 0.8,-0.8 2,-0.8 2.8,0 0.8,0.8 0.8,2 0,2.8 -1.1,1.1 -2,2.4 -2.7,3.7 -2,3.9 -2.5,8.2 -1.3,13 0.2,0.9 -0.2,1.8 -1,2.2 -0.1,-0.1 -0.3,0 -0.4,0 z m 33,-22.5 c -5.5,-2.6 -12.3,-3.2 -18.2,-1.7 -1.1,0.3 -2.1,-0.4 -2.4,-1.4 -0.3,-1.1 0.4,-2.1 1.4,-2.4 6.8,-1.7 14.4,-1 20.8,2 1,0.5 1.4,1.6 1,2.6 -0.2,0.4 -0.5,0.7 -0.9,0.9 -0.5,0.2 -1.1,0.2 -1.7,0 z m 12.5,169.2 c 0.8,-0.4 1.3,-1.4 1,-2.3 -0.3,-1.1 -1.4,-1.7 -2.4,-1.4 -3,0.9 -6.2,1.4 -9.3,1.6 -1.1,0.1 -1.9,1 -1.9,2.1 0.1,1.1 1,1.9 2.1,1.9 3.4,-0.2 6.8,-0.8 10.2,-1.7 0.1,-0.1 0.2,-0.2 0.3,-0.2 z"
           id="path291"
           inkscape:connector-curvature="0"
           style="fill:#63c0c4" /></g><g
         id="g362"><path
           class="st44"
           d="m 146.4,602.3 h 88.8 v 95.4 h -88.8 z"
           id="path295"
           inkscape:connector-curvature="0"
           style="fill:#01888b" /><path
           class="st8"
           d="m 64.1,602.3 h 90.2 v 95.4 H 64.1 Z"
           id="path297"
           inkscape:connector-curvature="0"
           style="fill:#00666b" /><linearGradient
           id="SVGID_00000172441755171397605710000001938611313747753114_"
           gradientUnits="userSpaceOnUse"
           x1="124.209"
           y1="581.758"
           x2="175.37199"
           y2="696.875"><stop
             offset="0"
             style="stop-color:#dfefea"
             id="stop299" /><stop
             offset="1"
             style="stop-color:#bfe3ee"
             id="stop301" /></linearGradient><path
           style="fill:url(#SVGID_00000172441755171397605710000001938611313747753114_)"
           d="m 168,611.1 v -8.3 h -26.7 v 8.3 h 5.1 v 78.3 h -5.1 v 8.3 H 168 v -8.3 h -5.9 v -78.3 z"
           id="path304"
           inkscape:connector-curvature="0" /><path
           class="st35"
           d="m 167,611.1 v -8.3 h -14.7 v 94.9 H 167 v -8.3 h -5.9 v -78.3 z"
           id="path306"
           inkscape:connector-curvature="0"
           style="fill:#ffffff" /><path
           class="st41"
           d="m 121.7,611.1 v -8.3 H 95.1 v 8.3 h 5 v 78.3 h -5 v 8.3 h 26.6 v -8.3 h -5.9 v -78.3 z"
           id="path308"
           inkscape:connector-curvature="0"
           style="fill:#63c0c4" /><path
           class="st46"
           d="m 121.7,611.1 v -8.3 h -13.6 v 94.9 h 13.6 v -8.3 h -5.9 v -78.3 z"
           id="path310"
           inkscape:connector-curvature="0"
           style="fill:#abdae0" /><path
           class="st41"
           d="m 79.8,611.1 v -8.3 H 53.1 v 8.3 h 5.1 v 78.3 h -5.1 v 8.3 h 26.7 v -8.3 h -5.9 v -78.3 z"
           id="path312"
           inkscape:connector-curvature="0"
           style="fill:#63c0c4" /><linearGradient
           id="SVGID_00000168094656838008554800000008512074838631292290_"
           gradientUnits="userSpaceOnUse"
           x1="164.50301"
           y1="581.758"
           x2="215.666"
           y2="696.875"><stop
             offset="0"
             style="stop-color:#dfefea"
             id="stop314" /><stop
             offset="1"
             style="stop-color:#bfe3ee"
             id="stop316" /></linearGradient><path
           style="fill:url(#SVGID_00000168094656838008554800000008512074838631292290_)"
           d="m 208.3,611.1 v -8.3 h -26.7 v 8.3 h 5.1 v 78.3 h -5.1 v 8.3 h 26.7 v -8.3 h -5.9 v -78.3 z"
           id="path319"
           inkscape:connector-curvature="0" /><linearGradient
           id="SVGID_00000170264137628949585620000018161891528820953477_"
           gradientUnits="userSpaceOnUse"
           x1="200.645"
           y1="581.758"
           x2="251.808"
           y2="696.875"><stop
             offset="0"
             style="stop-color:#dfefea"
             id="stop321" /><stop
             offset="1"
             style="stop-color:#bfe3ee"
             id="stop323" /></linearGradient><path
           style="fill:url(#SVGID_00000170264137628949585620000018161891528820953477_)"
           d="m 244.4,611.1 v -8.3 h -26.6 v 8.3 h 5 v 78.3 h -5 v 8.3 h 26.6 v -8.3 h -5.9 v -78.3 z"
           id="path326"
           inkscape:connector-curvature="0" /><path
           class="st35"
           d="m 207.2,611.1 v -8.3 h -14.7 v 94.9 h 14.7 v -8.3 h -5.9 v -78.3 z m 35.3,0 v -8.3 h -14.8 v 94.9 h 14.8 v -8.3 h -5.9 v -78.3 z"
           id="path328"
           inkscape:connector-curvature="0"
           style="fill:#ffffff" /><path
           class="st44"
           d="m 36.6,697.7 h 220.7 v 12.8 H 36.6 Z"
           id="path330"
           inkscape:connector-curvature="0"
           style="fill:#01888b" /><path
           class="st41"
           d="m 146.4,697.7 h 110.8 v 12.8 H 146.4 Z"
           id="path332"
           inkscape:connector-curvature="0"
           style="fill:#63c0c4" /><path
           class="st8"
           d="m 14,710.3 h 265.8 v 12.8 H 14 Z"
           id="path334"
           inkscape:connector-curvature="0"
           style="fill:#00666b" /><linearGradient
           id="SVGID_00000148621675529345112080000010453309667719902910_"
           gradientUnits="userSpaceOnUse"
           x1="162.091"
           y1="716.73102"
           x2="279.78101"
           y2="716.73102"><stop
             offset="0"
             style="stop-color:#dfefea"
             id="stop336" /><stop
             offset="1"
             style="stop-color:#bfe3ee"
             id="stop338" /></linearGradient><path
           style="fill:url(#SVGID_00000148621675529345112080000010453309667719902910_)"
           d="m 162.1,710.3 h 117.7 v 12.8 H 162.1 Z"
           id="path341"
           inkscape:connector-curvature="0" /><path
           class="st44"
           d="m -9.5,723 h 309.9 v 12.8 H -9.5 Z"
           id="path343"
           inkscape:connector-curvature="0"
           style="fill:#01888b" /><path
           class="st41"
           d="m 180.3,723 h 120.1 v 12.8 H 180.3 Z"
           id="path345"
           inkscape:connector-curvature="0"
           style="fill:#63c0c4" /><path
           class="st46"
           d="m 79.6,611.1 v -8.3 H 66 v 94.9 h 13.6 v -8.3 h -5.9 v -78.3 z"
           id="path347"
           inkscape:connector-curvature="0"
           style="fill:#abdae0" /><path
           class="st44"
           d="m 193,553.6 h -88.8 l -60.8,49.7 h 93.2 z"
           id="path349"
           inkscape:connector-curvature="0"
           style="fill:#01888b" /><path
           class="st41"
           d="M 135.6,603.3 H 248.4 L 192,553.6 Z"
           id="path351"
           inkscape:connector-curvature="0"
           style="fill:#63c0c4" /><g
           id="g360"><linearGradient
             id="SVGID_00000075162992139343906850000005661204059261074610_"
             gradientUnits="userSpaceOnUse"
             x1="149.017"
             y1="583.73102"
             x2="237.86301"
             y2="583.73102"><stop
               offset="0"
               style="stop-color:#dfefea"
               id="stop353" /><stop
               offset="1"
               style="stop-color:#bfe3ee"
               id="stop355" /></linearGradient><path
             style="fill:url(#SVGID_00000075162992139343906850000005661204059261074610_)"
             d="m 222.7,589.7 -30.2,-25.4 -43.5,38.1 0.6,0.7 42.8,-37.6 29.8,25 c 0.2,-0.2 0.4,-0.5 0.5,-0.8 z"
             id="path358"
             inkscape:connector-curvature="0" /></g></g></g><text
       transform="matrix(0.9998,0.02129,-0.02129,0.9998,12.816,454.915)"
       class="st13 st51"
       style="font-size:74.66549683px;font-family:FontAwesome5Pro-Solid;fill:#ff9e36"
       id="text366"></text>
<text
       transform="matrix(0.9998,0.02129,-0.02129,0.9998,175.25,331.744)"
       class="st13 st51"
       style="font-size:92.43430328px;font-family:FontAwesome5Pro-Solid;fill:#ff9e36"
       id="text368"></text>
</g></svg>