<?xml version="1.0" encoding="UTF-8" standalone="no"?>
<svg
   xmlns:dc="http://purl.org/dc/elements/1.1/"
   xmlns:cc="http://creativecommons.org/ns#"
   xmlns:rdf="http://www.w3.org/1999/02/22-rdf-syntax-ns#"
   xmlns:svg="http://www.w3.org/2000/svg"
   xmlns="http://www.w3.org/2000/svg"
   xmlns:sodipodi="http://sodipodi.sourceforge.net/DTD/sodipodi-0.dtd"
   xmlns:inkscape="http://www.inkscape.org/namespaces/inkscape"
   viewBox="0 0 299.99999 737.3"
   xml:space="preserve"
   version="1.1"
   id="svg413"
   sodipodi:docname="governanceTR.svg"
   width="300"
   height="737.29999"
   inkscape:version="0.92.4 (5da689c313, 2019-01-14)"><metadata
     id="metadata419"><rdf:RDF><cc:Work
         rdf:about=""><dc:format>image/svg+xml</dc:format><dc:type
           rdf:resource="http://purl.org/dc/dcmitype/StillImage" /><dc:title></dc:title></cc:Work></rdf:RDF></metadata><defs
     id="defs417" /><sodipodi:namedview
     pagecolor="#ffffff"
     bordercolor="#666666"
     borderopacity="1"
     objecttolerance="10"
     gridtolerance="10"
     guidetolerance="10"
     inkscape:pageopacity="0"
     inkscape:pageshadow="2"
     inkscape:window-width="1920"
     inkscape:window-height="1016"
     id="namedview415"
     showgrid="false"
     inkscape:zoom="1.0069444"
     inkscape:cx="297.44455"
     inkscape:cy="368.64999"
     inkscape:window-x="0"
     inkscape:window-y="36"
     inkscape:window-maximized="1"
     inkscape:current-layer="RH_images" /><style
     id="style20">.st0{fill:#ededed;stroke:#25c7a1;stroke-miterlimit:10}.st1{fill:#2d75be}.st2{fill:#555d68}.st3{fill:#fff;stroke:#555d68;stroke-miterlimit:10}.st4{fill:#ededed}.st5{fill:#e15477}.st8{fill:#00666b}.st11,.st9{fill:none;stroke:#00a1d9;stroke-width:3.1848;stroke-miterlimit:10}.st11{stroke:#1c1c1c}.st13{fill:#ff9e36}.st15{fill:#024866}.st16{fill:#dee5da}.st17{fill:#002b3a}.st18{fill:none;stroke:#767a73;stroke-width:.6328;stroke-miterlimit:10}.st19{fill:#3cb5d3}.st22{fill:#9da3e0}.st23{fill:#e5abb9}.st24{fill:#acadad}.st27{fill:#212b53}.st28{fill:#009fd7}.st30{fill:#92cec6}.st31{fill:#f49b42}.st32{fill:#f6a505}.st34{fill:#ffd147}.st35{fill:#fff}.st36,.st37,.st38,.st39{fill-rule:evenodd;clip-rule:evenodd;fill:#00a1d9}.st37,.st38,.st39{fill:#f06060}.st38,.st39{fill:#003056}.st39{fill:#04518c}.st41{fill:#63c0c4}.st44{fill:#01888b}.st46{fill:#abdae0}.st51{font-family:'FontAwesome5Pro-Solid'}.st54{fill:#7776ab}</style><g
     id="RH_images"
     transform="translate(-1092)"><g
       id="g158"><path
         class="st22"
         d="m 1362.4,116.2 c 0.6,1.1 0.3,2.5 -0.7,3.4 l -0.2,0.1 c -1.2,1 -1.3,2.7 -0.3,3.9 l 5.2,6 c 1,1.2 2.7,1.3 3.9,0.3 1,-0.9 2.4,-0.9 3.5,-0.1 3.3,2.5 6.9,4.6 10.8,6.1 1.2,0.5 1.9,1.7 1.7,3 v 0.2 c -0.2,1.5 0.8,2.9 2.3,3.1 l 7.9,1.2 c 1.5,0.2 2.9,-0.8 3.1,-2.3 V 141 c 0.2,-1.3 1.3,-2.3 2.6,-2.4 1,-0.1 2.1,-0.2 3.1,-0.3 3.1,-0.4 6.1,-1.2 8.9,-2.2 1.2,-0.5 2.6,0 3.3,1.1 l 0.2,0.4 c 0.8,1.3 2.5,1.7 3.8,0.8 l 6.7,-4.3 c 1.3,-0.8 1.7,-2.5 0.8,-3.8 l -0.3,-0.4 c -0.7,-1.1 -0.5,-2.5 0.4,-3.4 2.9,-2.8 5.3,-6.1 7.2,-9.6 0.6,-1.1 2,-1.7 3.2,-1.3 l 0.8,0.2 c 1.5,0.4 3,-0.4 3.4,-1.9 l 2.3,-7.6 c 0.4,-1.5 -0.4,-3 -1.9,-3.4 l -0.8,-0.3 c -1.2,-0.4 -2.1,-1.6 -2,-2.9 0.2,-2.9 0.1,-5.9 -0.3,-8.9 -0.1,-0.4 -0.1,-0.8 -0.2,-1.3 -0.2,-1.3 0.5,-2.5 1.7,-3 l 1.1,-0.4 c 1.4,-0.6 2.1,-2.2 1.5,-3.6 l -3,-7.4 c -0.6,-1.4 -2.2,-2.1 -3.6,-1.5 l -1,0.4 c -1.2,0.5 -2.6,0.1 -3.3,-1 -2,-3 -4.4,-5.7 -7.1,-8 -1,-0.9 -1.2,-2.3 -0.6,-3.4 l 0.6,-1.2 c 0.7,-1.3 0.2,-3 -1.1,-3.7 l -7,-3.8 c -1.3,-0.7 -3,-0.2 -3.7,1.1 l -0.5,1 c -0.6,1.2 -2,1.7 -3.2,1.3 -2.6,-0.8 -5.4,-1.3 -8.2,-1.6 -1.3,-0.1 -2.3,-1.1 -2.5,-2.4 l -0.2,-1.2 c -0.2,-1.5 -1.6,-2.6 -3.1,-2.4 l -7.9,1.1 c -1.5,0.2 -2.6,1.6 -2.4,3.1 l 0.1,0.9 c 0.2,1.3 -0.6,2.6 -1.8,3 -3.8,1.3 -7.4,3.2 -10.6,5.4 -1,0.7 -2.4,0.7 -3.4,-0.2 l -0.7,-0.6 c -1.1,-1 -2.9,-0.9 -3.9,0.3 l -5.2,6 c -1,1.1 -0.9,2.9 0.3,3.9 l 0.4,0.3 c 1,0.9 1.2,2.3 0.6,3.5 -2,3.5 -3.6,7.3 -4.5,11.3 -0.3,1.2 -1.4,2.1 -2.7,2.1 h -0.5 c -1.5,0 -2.8,1.2 -2.8,2.7 v 8 c 0,1.5 1.2,2.8 2.7,2.8 h 2.5 v 0.1 c 0.9,5 2.4,9.6 4.6,13.8 z m 3.8,-9.6 c -6.6,-22.7 10.3,-45 34,-44.9 15.3,0.1 28.8,10.3 33,25 6.6,22.7 -10.3,45 -34,44.9 -15.3,-0.1 -28.8,-10.3 -33,-25 z"
         id="path146"
         inkscape:connector-curvature="0"
         style="fill:#9da3e0" /><circle
         transform="rotate(-53.453,1399.62,96.66)"
         class="st22"
         cx="1399.7"
         cy="96.699997"
         r="27.799999"
         id="circle148"
         style="fill:#9da3e0" /><path
         class="st23"
         d="m 1260.5,148.2 4.8,-1.2 c 0.6,-0.2 1.3,0.1 1.6,0.7 1.2,2.3 2.6,4.4 4.2,6.4 0.4,0.5 0.4,1.3 0,1.8 l -3,3.9 c -0.5,0.6 -0.4,1.4 0.1,1.9 l 3.1,3.1 c 0.5,0.5 1.3,0.6 1.9,0.1 l 3.9,-3.1 c 0.5,-0.4 1.3,-0.4 1.8,0 2,1.5 4.2,2.9 6.4,4.1 0.6,0.3 0.9,1 0.7,1.6 l -1.2,4.8 c -0.2,0.7 0.2,1.4 0.9,1.7 l 4.1,1.5 c 0.7,0.3 1.5,0 1.8,-0.7 l 2.3,-4.5 c 0.3,-0.6 1,-0.9 1.6,-0.7 2.5,0.6 5,1 7.5,1.1 0.7,0 1.2,0.5 1.3,1.2 l 0.9,4.9 c 0.1,0.7 0.8,1.2 1.5,1.2 l 4.3,-0.3 c 0.7,0 1.3,-0.6 1.4,-1.4 l 0.2,-5 c 0,-0.7 0.5,-1.2 1.2,-1.3 l 2.7,-0.6 c 1.6,-0.4 3.1,-0.9 4.6,-1.5 0.6,-0.2 1.3,0 1.7,0.5 l 2.8,4.1 c 0.4,0.6 1.2,0.8 1.9,0.5 l 3.9,-2 c 0.6,-0.3 0.9,-1.1 0.7,-1.8 l -1.8,-4.6 c -0.2,-0.6 0,-1.3 0.5,-1.7 2.1,-1.5 4.1,-3.1 5.9,-4.9 0.5,-0.5 1.2,-0.6 1.8,-0.2 l 4.2,2.6 c 0.6,0.4 1.4,0.2 1.9,-0.3 l 2.7,-3.4 c 0.5,-0.6 0.4,-1.4 -0.1,-1.9 l -3.5,-3.4 c -0.5,-0.5 -0.6,-1.2 -0.2,-1.8 1.3,-2.2 2.4,-4.5 3.4,-6.9 0.2,-0.6 0.9,-1 1.5,-0.9 l 4.8,0.6 c 0.7,0.1 1.4,-0.4 1.6,-1.1 l 1,-4.2 c 0.2,-0.7 -0.2,-1.4 -0.9,-1.7 l -4.5,-1.7 c -0.6,-0.2 -1,-0.9 -0.9,-1.5 0.3,-2.5 0.4,-5.1 0.2,-7.7 0,-0.7 0.4,-1.3 1,-1.5 l 4.6,-1.4 c 0.7,-0.2 1.1,-0.9 1,-1.6 l -0.8,-4.3 c -0.1,-0.7 -0.8,-1.2 -1.5,-1.2 l -4.7,0.3 c -0.7,0 -1.3,-0.4 -1.5,-1 -0.8,-2.5 -1.8,-4.9 -2.9,-7.2 -0.3,-0.6 -0.2,-1.3 0.3,-1.8 l 3.5,-3.1 c 0.6,-0.5 0.7,-1.3 0.2,-1.9 l -2.5,-3.6 c -0.4,-0.6 -1.2,-0.8 -1.9,-0.5 l -4.1,2.2 c -0.6,0.3 -1.3,0.2 -1.8,-0.3 -1.7,-2 -3.6,-3.8 -5.7,-5.4 -0.5,-0.4 -0.7,-1.1 -0.4,-1.7 l 1.9,-4.2 c 0.3,-0.7 0.1,-1.5 -0.6,-1.8 l -3.7,-2.3 c -0.6,-0.4 -1.4,-0.2 -1.9,0.3 l -2.8,3.7 c -0.4,0.5 -1.1,0.7 -1.7,0.4 -2.4,-1.1 -4.8,-1.9 -7.4,-2.6 -0.6,-0.2 -1.1,-0.7 -1.1,-1.4 l 0.1,-4.6 c 0,-0.7 -0.5,-1.4 -1.3,-1.4 l -4.3,-0.5 c -0.7,-0.1 -1.4,0.4 -1.6,1.1 l -1.1,4.5 c -0.2,0.6 -0.7,1.1 -1.4,1.1 -1.9,0 -3.9,0.1 -5.8,0.4 -0.7,0.1 -1.3,-0.3 -1.5,-0.9 l -1.6,-4.3 c -0.3,-0.7 -1,-1.1 -1.7,-0.9 l -4.2,1.1 c -0.7,0.2 -1.2,0.9 -1.1,1.6 l 0.6,4.6 c 0.1,0.7 -0.3,1.3 -0.9,1.5 -2.5,1 -4.8,2.2 -7,3.5 -0.6,0.4 -1.3,0.3 -1.8,-0.2 l -3.3,-3.3 c -0.5,-0.5 -1.3,-0.6 -1.9,-0.1 l -3.4,2.7 c -0.6,0.5 -0.7,1.3 -0.3,1.9 l 2.5,4 c 0.4,0.6 0.3,1.3 -0.2,1.8 -1.8,1.9 -3.4,3.9 -4.9,6.1 -0.4,0.6 -1.1,0.8 -1.7,0.5 l -4.4,-1.7 c -0.7,-0.3 -1.5,0 -1.8,0.7 l -2,3.9 c -0.3,0.7 -0.1,1.5 0.5,1.9 l 4,2.6 c 0.6,0.4 0.8,1.1 0.6,1.7 -0.9,2.4 -1.5,4.9 -2,7.5 -0.1,0.7 -0.7,1.2 -1.3,1.2 l -4.8,0.3 c -0.7,0 -1.3,0.6 -1.4,1.4 l -0.2,4.3 c 0,0.7 0.5,1.4 1.2,1.5 l 4.8,0.8 c 0.7,0.1 1.1,0.6 1.2,1.3 0.2,2.5 0.6,5.1 1.3,7.6 0.2,0.6 -0.1,1.3 -0.7,1.6 l -4.3,2.2 c -0.7,0.3 -0.9,1.1 -0.7,1.8 l 1.6,4.1 c 0.1,0.5 0.8,0.8 1.5,0.7 z m 33,-5.2 c -2.7,-2 -5,-4.7 -6.4,-7.9 -0.4,-0.8 0.1,-1.8 1,-2 l 4.8,-1.2 c 0.6,-0.2 1.3,0.1 1.6,0.7 2.2,4.1 6.5,6.7 11.1,6.7 0.7,0 1.2,0.4 1.4,1.1 l 1.2,4.8 c 0.2,0.9 -0.4,1.7 -1.3,1.8 -3.5,0.2 -7,-0.5 -10,-1.9 -0.1,-0.1 -0.3,-0.1 -0.4,-0.2 -0.1,-0.1 -0.3,-0.1 -0.4,-0.2 -0.1,-0.1 -0.3,-0.2 -0.4,-0.2 -0.1,-0.1 -0.3,-0.2 -0.4,-0.2 -0.7,-0.5 -1.3,-0.9 -1.8,-1.3 z m 20.2,2.3 c -0.8,0.4 -1.8,-0.1 -2,-1 l -1.2,-4.8 c -0.2,-0.7 0.1,-1.3 0.8,-1.6 4.3,-2.2 7,-6.6 7,-11.4 0,-0.7 0.4,-1.2 1.1,-1.4 l 4.8,-1.2 c 0.9,-0.2 1.7,0.4 1.8,1.3 0.3,3.5 -0.4,7 -1.9,10.1 -0.6,1.2 -1.2,2.4 -2,3.4 -2.1,2.8 -5,5.1 -8.4,6.6 z m 3.9,-35.2 c 2.8,2.1 5.2,4.9 6.7,8.2 0.4,0.8 -0.1,1.8 -1,2 l -4.8,1.2 c -0.7,0.2 -1.3,-0.1 -1.6,-0.7 -2.2,-4.4 -6.8,-7 -11.7,-6.9 -0.7,0 -1.3,-0.4 -1.4,-1.1 l -1.2,-4.8 c -0.2,-0.9 0.4,-1.7 1.3,-1.8 3.6,-0.3 7.2,0.3 10.4,1.8 0.5,0.2 0.9,0.4 1.3,0.7 0.1,0.1 0.3,0.2 0.4,0.2 0.1,0.1 0.3,0.2 0.4,0.2 0.1,0.1 0.3,0.2 0.4,0.3 0.1,0.1 0.3,0.2 0.4,0.3 0.1,0.2 0.2,0.3 0.4,0.4 z m -25.7,18.3 -4.8,1.2 c -0.9,0.2 -1.7,-0.4 -1.8,-1.3 -0.3,-3.6 0.4,-7.2 1.8,-10.3 0.6,-1.2 1.2,-2.4 2,-3.4 2,-2.7 4.7,-5 7.8,-6.4 0.8,-0.4 1.8,0.1 2,1 l 1.2,4.8 c 0.2,0.6 -0.1,1.3 -0.7,1.6 -4.1,2.3 -6.7,6.7 -6.6,11.4 0.2,0.6 -0.3,1.2 -0.9,1.4 z m -17.1,-22.3 c -0.7,-0.4 -0.9,-1.4 -0.4,-2.1 5.1,-7 12.6,-12.4 21.7,-14.7 9,-2.3 18.2,-1.2 26,2.5 0.8,0.4 1.1,1.3 0.6,2 l -5.6,9.4 c -0.4,0.6 -1.1,0.9 -1.8,0.6 -4.8,-2.1 -10.4,-2.6 -15.8,-1.2 -5.5,1.4 -10.1,4.6 -13.4,8.7 -0.4,0.6 -1.2,0.7 -1.9,0.3 z m 64.4,1.5 c 1.6,2.9 2.9,6.1 3.8,9.5 2.3,9.1 1.2,18.2 -2.5,26.1 -0.4,0.8 -1.3,1.1 -2,0.6 l -9.4,-5.6 c -0.6,-0.4 -0.9,-1.1 -0.6,-1.8 2.1,-4.9 2.6,-10.4 1.2,-15.9 -1.4,-5.5 -4.6,-10.2 -8.8,-13.4 -0.6,-0.4 -0.7,-1.2 -0.4,-1.9 l 5.6,-9.4 c 0.4,-0.7 1.4,-0.9 2.1,-0.4 4.4,3.1 8.2,7.3 11,12.2 m -2.4,41.6 c -5.1,7 -12.6,12.4 -21.7,14.7 -9.1,2.3 -18.3,1.2 -26.2,-2.5 -0.8,-0.4 -1.1,-1.3 -0.6,-2 l 5.6,-9.4 c 0.4,-0.6 1.1,-0.9 1.8,-0.6 4.9,2.1 10.5,2.7 16,1.3 5.5,-1.4 10.1,-4.6 13.4,-8.7 0.4,-0.6 1.2,-0.7 1.9,-0.3 l 9.4,5.6 c 0.7,0.3 0.9,1.3 0.4,1.9 z m -53.9,8.6 c -7,-5.1 -12.3,-12.6 -14.7,-21.6 -2.3,-9.1 -1.2,-18.2 2.5,-26.1 0.4,-0.8 1.3,-1.1 2,-0.6 l 9.4,5.6 c 0.6,0.4 0.9,1.1 0.6,1.8 -2.1,4.9 -2.6,10.4 -1.2,15.9 1.4,5.5 4.5,10.1 8.7,13.3 0.6,0.4 0.7,1.2 0.3,1.9 l -5.6,9.4 c -0.3,0.7 -1.3,0.9 -2,0.4 z"
         id="path150"
         inkscape:connector-curvature="0"
         style="fill:#e5abb9" /><path
         class="st24"
         d="m 1267.6,32.8 0.5,2.4 c 0.3,1.5 1.9,2.4 3.4,1.8 l 0.2,-0.1 c 1.4,-0.5 2.9,0.2 3.3,1.6 3.2,10 9.3,18.8 17.4,25.4 1.1,0.9 1.3,2.5 0.3,3.6 l -0.1,0.1 c -1,1.2 -0.8,2.9 0.5,3.8 l 2.1,1.4 c 1.3,0.9 3.1,0.3 3.7,-1.1 0.6,-1.3 2.1,-1.9 3.4,-1.3 4.6,2.3 9.5,3.9 14.8,4.9 5.3,0.9 10.5,1.1 15.6,0.5 1.4,-0.2 2.7,0.9 2.8,2.3 v 0.2 c 0.1,1.5 1.5,2.6 3.1,2.3 l 2.4,-0.5 c 1.5,-0.3 2.4,-1.9 1.8,-3.4 l -0.1,-0.2 c -0.5,-1.3 0.2,-2.8 1.5,-3.3 9.8,-3.4 18.6,-9.6 25,-17.8 0.9,-1.1 2.6,-1.3 3.6,-0.3 l 0.5,0.4 c 1.2,1 2.9,0.8 3.8,-0.5 l 1.4,-2.1 c 0.9,-1.3 0.3,-3.1 -1.1,-3.7 l -0.6,-0.3 c -1.3,-0.6 -1.9,-2.1 -1.3,-3.4 2.1,-4.4 3.7,-9.1 4.6,-14.1 1,-5.4 1.1,-10.7 0.5,-15.9 -0.2,-1.4 0.9,-2.7 2.3,-2.8 l 1.1,-0.1 c 1.5,-0.1 2.6,-1.6 2.3,-3.1 l -0.5,-2.4 c -0.3,-1.5 -2,-2.4 -3.4,-1.8 l -1,0.4 c -1.3,0.5 -2.9,-0.2 -3.3,-1.5 -3.4,-9.7 -9.5,-18.3 -17.5,-24.8 -1.1,-0.9 -1.3,-2.5 -0.3,-3.6 l 0.9,-1 c 1,-1.2 0.7,-3 -0.5,-3.8 l -2.1,-1.4 c -1.3,-0.8 -3.1,-0.3 -3.7,1.1 l -0.5,1.2 c -0.6,1.3 -2.1,1.9 -3.4,1.3 -4.5,-2.2 -9.4,-3.9 -14.6,-4.8 -4.9,-0.9 -9.8,-1 -14.6,-0.6 -1.4,0.1 -2.7,-0.9 -2.8,-2.4 l -0.1,-1.2 c -0.1,-1.5 -1.5,-2.6 -3,-2.3 l -2.4,0.5 c -1.5,0.3 -2.4,1.9 -1.8,3.4 l 0.4,1 c 0.5,1.4 -0.2,2.9 -1.6,3.3 -9.9,3.1 -18.6,9.1 -25.3,17 -0.9,1.1 -2.5,1.2 -3.6,0.3 l -0.6,-0.5 c -1.2,-1 -2.9,-0.8 -3.8,0.5 l -1.4,2.1 c -0.9,1.3 -0.3,3.1 1.1,3.7 l 0.6,0.3 c 1.3,0.6 1.9,2.2 1.2,3.5 -2.5,4.8 -4.3,10 -5.2,15.5 -0.9,4.9 -1,9.8 -0.6,14.5 0.1,1.4 -0.9,2.7 -2.4,2.8 h -0.3 c -1.9,0.1 -2.9,1.5 -2.6,3 z m 13.7,-25.5 c 2.8,-8.8 8.1,-16.3 14.9,-22 1.1,-0.9 2.8,-0.7 3.7,0.5 l 6.6,9.4 c 0.7,1.1 0.6,2.5 -0.4,3.4 -3.8,3.3 -6.7,7.5 -8.6,12.4 -0.4,1.1 -1.6,1.8 -2.8,1.6 l -11.4,-2 c -1.5,-0.3 -2.4,-1.8 -2,-3.3 z m 29.4,-14.6 -6.6,-9.5 c -0.9,-1.3 -0.4,-3 0.9,-3.7 7.7,-4 16.6,-5.8 25.8,-5 1.5,0.1 2.5,1.5 2.3,3 l -2,11.3 c -0.2,1.3 -1.4,2.2 -2.6,2.1 -5.1,-0.3 -10.1,0.7 -14.6,2.7 -1.2,0.5 -2.5,0.1 -3.2,-0.9 z m 25.2,-2.8 2,-11.4 c 0.3,-1.5 1.8,-2.4 3.2,-2 8.6,2.7 16,7.8 21.6,14.3 1,1.1 0.7,2.8 -0.5,3.7 l -9.4,6.6 c -1,0.7 -2.5,0.6 -3.3,-0.4 -3.3,-3.6 -7.4,-6.4 -12.1,-8.1 -1.1,-0.3 -1.8,-1.5 -1.5,-2.7 z m 7.6,60.9 6.6,9.4 c 0.9,1.2 0.5,3 -0.9,3.7 -7.8,4.2 -16.8,6.3 -26.2,5.6 -1.5,-0.1 -2.6,-1.5 -2.3,-3 l 2,-11.3 c 0.2,-1.2 1.3,-2.1 2.6,-2.1 5.3,0.2 10.4,-0.9 15,-3.1 1.1,-0.6 2.4,-0.3 3.2,0.8 z m -25.6,3.3 -2,11.4 c -0.3,1.5 -1.8,2.4 -3.2,2 -9,-2.7 -16.7,-8 -22.4,-14.8 -1,-1.1 -0.7,-2.8 0.5,-3.7 l 9.4,-6.6 c 1,-0.7 2.5,-0.6 3.3,0.4 3.4,3.8 7.8,6.8 12.8,8.5 1.1,0.4 1.8,1.6 1.6,2.8 z m -10.5,-23.2 c -8.2,-22.2 16.3,-39.4 34.3,-24 1.9,1.6 3.4,3.7 4.2,6.1 8.2,22.2 -16.3,39.4 -34.3,24 -1.9,-1.7 -3.3,-3.8 -4.2,-6.1 z m 61.3,-31.3 c 4.1,7.7 6.1,16.5 5.4,25.7 -0.1,1.5 -1.5,2.6 -3,2.3 l -11.3,-2 c -1.2,-0.2 -2.1,-1.3 -2.1,-2.6 0.2,-5.1 -0.9,-10.1 -3,-14.5 -0.5,-1.1 -0.2,-2.4 0.8,-3.2 l 9.4,-6.6 c 1.3,-0.9 3.1,-0.4 3.8,0.9 z m 3.5,36 c -2.6,8.9 -7.7,16.5 -14.4,22.3 -1.1,1 -2.9,0.8 -3.7,-0.5 l -6.6,-9.4 c -0.7,-1 -0.6,-2.4 0.3,-3.3 3.6,-3.4 6.5,-7.7 8.2,-12.6 0.4,-1.2 1.6,-1.9 2.8,-1.7 l 11.3,2 c 1.6,0.3 2.6,1.8 2.1,3.2 z m -87.8,8.3 c -4.1,-7.9 -6,-16.9 -5.2,-26.3 0.1,-1.5 1.5,-2.5 3,-2.3 l 11.3,2 c 1.3,0.2 2.2,1.4 2.1,2.6 -0.3,5.3 0.7,10.5 2.8,15 0.5,1.1 0.2,2.4 -0.8,3.1 l -9.4,6.6 c -1.3,1.1 -3.1,0.7 -3.8,-0.7 z"
         id="path152"
         inkscape:connector-curvature="0"
         style="fill:#acadad" /><g
         id="g156"><path
           class="st22"
           d="m 1226,72.7 0.3,1.2 c 0.2,0.7 0.9,1.2 1.7,0.9 h 0.1 c 0.7,-0.3 1.4,0.1 1.6,0.8 1.6,4.9 4.5,9.2 8.5,12.4 0.5,0.4 0.6,1.2 0.2,1.8 -0.5,0.6 -0.4,1.4 0.3,1.9 l 1,0.7 c 0.6,0.4 1.5,0.2 1.8,-0.5 0.3,-0.6 1,-0.9 1.7,-0.6 2.2,1.1 4.7,1.9 7.2,2.4 2.6,0.5 5.1,0.5 7.6,0.2 0.7,-0.1 1.3,0.4 1.4,1.1 v 0.1 c 0.1,0.8 0.8,1.3 1.5,1.1 l 1.2,-0.3 c 0.7,-0.2 1.2,-1 0.9,-1.7 v -0.1 c -0.3,-0.7 0.1,-1.4 0.7,-1.6 4.8,-1.7 9.1,-4.7 12.2,-8.7 0.4,-0.6 1.2,-0.6 1.8,-0.2 l 0.2,0.2 c 0.6,0.5 1.4,0.4 1.8,-0.3 l 0.7,-1 c 0.4,-0.6 0.2,-1.5 -0.5,-1.8 l -0.3,-0.1 c -0.6,-0.3 -0.9,-1 -0.6,-1.7 1,-2.1 1.8,-4.5 2.2,-6.9 0.5,-2.6 0.5,-5.2 0.2,-7.8 -0.1,-0.7 0.4,-1.3 1.1,-1.4 h 0.5 c 0.8,-0.1 1.3,-0.8 1.1,-1.5 l -0.3,-1.2 c -0.2,-0.7 -1,-1.2 -1.7,-0.9 l -0.5,0.2 c -0.7,0.3 -1.4,-0.1 -1.6,-0.7 -1.6,-4.8 -4.6,-9 -8.6,-12.1 -0.5,-0.4 -0.6,-1.2 -0.2,-1.8 l 0.4,-0.5 c 0.5,-0.6 0.4,-1.4 -0.3,-1.8 l -1,-0.7 c -0.6,-0.4 -1.5,-0.2 -1.8,0.6 l -0.2,0.6 c -0.3,0.7 -1,0.9 -1.7,0.6 -2.2,-1.1 -4.6,-1.9 -7.1,-2.3 -2.4,-0.4 -4.8,-0.5 -7.1,-0.3 -0.7,0.1 -1.3,-0.5 -1.3,-1.2 v -0.6 c 0,-0.8 -0.7,-1.3 -1.5,-1.1 l -1.2,0.2 c -0.7,0.2 -1.2,0.9 -0.9,1.7 l 0.2,0.5 c 0.3,0.7 -0.1,1.4 -0.8,1.6 -4.8,1.5 -9.1,4.4 -12.3,8.3 -0.4,0.5 -1.2,0.6 -1.8,0.1 l -0.3,-0.3 c -0.6,-0.5 -1.4,-0.4 -1.9,0.3 l -0.7,1 c -0.4,0.6 -0.2,1.5 0.5,1.8 l 0.3,0.1 c 0.7,0.3 0.9,1.1 0.6,1.7 -1.2,2.3 -2.1,4.9 -2.6,7.6 -0.4,2.4 -0.5,4.8 -0.3,7.1 0.1,0.7 -0.5,1.3 -1.2,1.3 h -0.2 c -0.6,0.1 -1.1,0.8 -1,1.6 z m 6.8,-12.5 c 1.4,-4.3 4,-8 7.3,-10.7 0.6,-0.5 1.4,-0.3 1.8,0.2 l 3.2,4.6 c 0.4,0.5 0.3,1.2 -0.2,1.6 -1.8,1.6 -3.3,3.7 -4.2,6.1 -0.2,0.6 -0.8,0.9 -1.4,0.8 l -5.6,-1 c -0.7,-0.1 -1.1,-0.9 -0.9,-1.6 z m 14.3,-7.2 -3.2,-4.6 c -0.4,-0.6 -0.2,-1.5 0.5,-1.8 3.8,-1.9 8.1,-2.8 12.6,-2.5 0.7,0.1 1.2,0.7 1.1,1.4 l -1,5.5 c -0.1,0.6 -0.7,1.1 -1.3,1 -2.5,-0.1 -5,0.3 -7.1,1.3 -0.6,0.4 -1.2,0.2 -1.6,-0.3 z m 12.3,-1.3 1,-5.6 c 0.1,-0.7 0.9,-1.2 1.6,-1 4.2,1.3 7.8,3.8 10.6,7 0.5,0.6 0.4,1.4 -0.2,1.8 l -4.6,3.2 c -0.5,0.4 -1.2,0.3 -1.6,-0.2 -1.6,-1.7 -3.6,-3.1 -5.9,-4 -0.7,0 -1,-0.6 -0.9,-1.2 z m 3.7,29.7 3.2,4.6 c 0.4,0.6 0.2,1.4 -0.4,1.8 -3.8,2.1 -8.2,3.1 -12.8,2.7 -0.7,-0.1 -1.2,-0.7 -1.1,-1.4 l 1,-5.5 c 0.1,-0.6 0.6,-1.1 1.3,-1 2.6,0.1 5.1,-0.4 7.3,-1.5 0.5,-0.3 1.2,-0.2 1.5,0.3 z m -12.4,1.7 -1,5.5 c -0.1,0.7 -0.9,1.2 -1.6,1 -4.4,-1.3 -8.1,-3.9 -11,-7.2 -0.5,-0.6 -0.4,-1.4 0.2,-1.8 l 4.6,-3.2 c 0.5,-0.4 1.2,-0.3 1.6,0.2 1.7,1.9 3.8,3.3 6.2,4.2 0.7,0.1 1.1,0.7 1,1.3 z m 24.8,-26.7 c 2,3.8 3,8.1 2.7,12.5 -0.1,0.7 -0.7,1.3 -1.4,1.1 l -5.5,-1 c -0.6,-0.1 -1,-0.6 -1,-1.3 0.1,-2.5 -0.4,-4.9 -1.5,-7.1 -0.3,-0.5 -0.1,-1.2 0.4,-1.5 l 4.6,-3.2 c 0.5,-0.3 1.3,-0.1 1.7,0.5 z m 1.7,17.6 c -1.3,4.3 -3.8,8.1 -7,10.9 -0.6,0.5 -1.4,0.4 -1.8,-0.2 l -3.2,-4.6 c -0.4,-0.5 -0.3,-1.2 0.2,-1.6 1.8,-1.7 3.2,-3.8 4,-6.2 0.2,-0.6 0.8,-0.9 1.4,-0.8 l 5.5,1 c 0.7,0.1 1.1,0.8 0.9,1.5 z m -42.9,4.1 c -2,-3.8 -2.9,-8.3 -2.5,-12.8 0.1,-0.7 0.7,-1.2 1.4,-1.1 l 5.5,1 c 0.6,0.1 1.1,0.7 1,1.3 -0.2,2.6 0.3,5.1 1.4,7.4 0.3,0.5 0.1,1.2 -0.4,1.5 l -4.6,3.2 c -0.6,0.3 -1.5,0.1 -1.8,-0.5 z"
           id="path154"
           inkscape:connector-curvature="0"
           style="fill:#9da3e0" /></g></g><g
       id="g178"><path
         class="st23"
         d="m 1345.5,286.7 -2.1,2.4 c -3.7,4.2 -10.2,4.5 -14.3,0.7 l -130.6,-121.3 10.7,-12 135.4,115.9 c 4.2,3.6 4.6,10.1 0.9,14.3 z"
         id="path160"
         inkscape:connector-curvature="0"
         style="fill:#e5abb9" /><path
         class="st5"
         d="m 1221.2,159.6 -6.9,7.8 -11.3,12.7 c -0.8,0.8 -2.1,0.9 -2.9,0.2 l -30,-26.7 c -0.8,-0.8 -0.9,-2.1 -0.2,-2.9 l 18.3,-20.5 c 0.8,-0.8 2.1,-0.9 2.9,-0.2 l 30,26.7 c 0.8,0.7 0.8,2 0.1,2.9 z"
         id="path162"
         inkscape:connector-curvature="0"
         style="fill:#e15477" /><path
         class="st23"
         d="m 1241.9,118.8 -77.1,86.5 c -1.8,2.1 -5,2.3 -7.1,0.4 l -28.3,-25.2 c -2.1,-1.8 -2.3,-5 -0.4,-7.1 l 77.1,-86.5 c 1.8,-2.1 5,-2.3 7.1,-0.4 l 28.3,25.2 c 2.1,1.9 2.2,5.1 0.4,7.1 z"
         id="path164"
         inkscape:connector-curvature="0"
         style="fill:#e5abb9" /><path
         transform="rotate(-48.272,1185.448,146.133)"
         class="st23"
         d="m 1166.2,120.2 h 38.5 V 172 h -38.5 z"
         id="path166"
         inkscape:connector-curvature="0"
         style="fill:#e5abb9" /><path
         class="st5"
         d="m 1223,146.8 -1.7,1.9 c -1,1.1 -2.6,1.2 -3.7,0.2 L 1179,114.5 c -1.1,-1 -1.2,-2.6 -0.2,-3.7 l 1.7,-1.9 c 1,-1.1 2.6,-1.2 3.7,-0.2 l 38.6,34.4 c 1.1,1 1.1,2.7 0.2,3.7 z m 17.5,-19.6 -10,11.2 c -1.7,1.9 -4.7,2.1 -6.6,0.4 l -35.5,-31.7 c -1.9,-1.7 -2.1,-4.7 -0.4,-6.6 l 10,-11.2 c 1.7,-1.9 4.7,-2.1 6.6,-0.4 l 35.5,31.7 c 2,1.7 2.1,4.7 0.4,6.6 z m -49.8,55.8 1.7,-1.9 c 1,-1.1 0.9,-2.7 -0.2,-3.7 L 1153.6,143 c -1.1,-1 -2.7,-0.9 -3.7,0.2 l -1.7,1.9 c -1,1.1 -0.9,2.7 0.2,3.7 l 38.6,34.4 c 1.1,1 2.8,0.9 3.7,-0.2 z m -17.5,19.7 10,-11.2 c 1.7,-1.9 1.5,-4.9 -0.4,-6.6 l -35.5,-31.7 c -1.9,-1.7 -4.9,-1.5 -6.6,0.4 l -10,11.2 c -1.7,1.9 -1.5,4.9 0.4,6.6 l 35.5,31.7 c 1.9,1.7 4.9,1.5 6.6,-0.4 z m 61.1,-9.3 105,92.9 -0.4,-10.7 z"
         id="path168"
         inkscape:connector-curvature="0"
         style="fill:#e15477" /><ellipse
         cx="1182.3"
         cy="280.10001"
         rx="84.300003"
         ry="6.0999999"
         style="fill:#808080"
         id="ellipse170" /><g
         id="g176"><path
           class="st23"
           d="M 1242.2,261.6 H 1122 V 251 c 0,-6.2 5,-11.2 11.2,-11.2 h 97.8 c 6.2,0 11.2,5 11.2,11.2 z"
           id="path172"
           inkscape:connector-curvature="0"
           style="fill:#e5abb9" /><path
           class="st5"
           d="m 1254.8,280 h -145.4 v -20.5 c 0,-5.4 4.4,-9.9 9.9,-9.9 H 1245 c 5.4,0 9.9,4.4 9.9,9.9 V 280 Z"
           id="path174"
           inkscape:connector-curvature="0"
           style="fill:#e15477" /></g></g></g></svg>