<?xml version="1.0" encoding="UTF-8" standalone="no"?>
<svg
   xmlns:dc="http://purl.org/dc/elements/1.1/"
   xmlns:cc="http://creativecommons.org/ns#"
   xmlns:rdf="http://www.w3.org/1999/02/22-rdf-syntax-ns#"
   xmlns:svg="http://www.w3.org/2000/svg"
   xmlns="http://www.w3.org/2000/svg"
   xmlns:sodipodi="http://sodipodi.sourceforge.net/DTD/sodipodi-0.dtd"
   xmlns:inkscape="http://www.inkscape.org/namespaces/inkscape"
   viewBox="0 0 299.99999 737.3"
   xml:space="preserve"
   version="1.1"
   id="svg413"
   sodipodi:docname="governanceBR.svg"
   width="300"
   height="737.29999"
   inkscape:version="0.92.4 (5da689c313, 2019-01-14)"><metadata
     id="metadata419"><rdf:RDF><cc:Work
         rdf:about=""><dc:format>image/svg+xml</dc:format><dc:type
           rdf:resource="http://purl.org/dc/dcmitype/StillImage" /><dc:title></dc:title></cc:Work></rdf:RDF></metadata><defs
     id="defs417" /><sodipodi:namedview
     pagecolor="#ffffff"
     bordercolor="#666666"
     borderopacity="1"
     objecttolerance="10"
     gridtolerance="10"
     guidetolerance="10"
     inkscape:pageopacity="0"
     inkscape:pageshadow="2"
     inkscape:window-width="1920"
     inkscape:window-height="1016"
     id="namedview415"
     showgrid="false"
     inkscape:zoom="1.0069444"
     inkscape:cx="691.20001"
     inkscape:cy="368.64999"
     inkscape:window-x="0"
     inkscape:window-y="36"
     inkscape:window-maximized="1"
     inkscape:current-layer="RH_images" /><style
     id="style20">.st0{fill:#ededed;stroke:#25c7a1;stroke-miterlimit:10}.st1{fill:#2d75be}.st2{fill:#555d68}.st3{fill:#fff;stroke:#555d68;stroke-miterlimit:10}.st4{fill:#ededed}.st5{fill:#e15477}.st8{fill:#00666b}.st11,.st9{fill:none;stroke:#00a1d9;stroke-width:3.1848;stroke-miterlimit:10}.st11{stroke:#1c1c1c}.st13{fill:#ff9e36}.st15{fill:#024866}.st16{fill:#dee5da}.st17{fill:#002b3a}.st18{fill:none;stroke:#767a73;stroke-width:.6328;stroke-miterlimit:10}.st19{fill:#3cb5d3}.st22{fill:#9da3e0}.st23{fill:#e5abb9}.st24{fill:#acadad}.st27{fill:#212b53}.st28{fill:#009fd7}.st30{fill:#92cec6}.st31{fill:#f49b42}.st32{fill:#f6a505}.st34{fill:#ffd147}.st35{fill:#fff}.st36,.st37,.st38,.st39{fill-rule:evenodd;clip-rule:evenodd;fill:#00a1d9}.st37,.st38,.st39{fill:#f06060}.st38,.st39{fill:#003056}.st39{fill:#04518c}.st41{fill:#63c0c4}.st44{fill:#01888b}.st46{fill:#abdae0}.st51{font-family:'FontAwesome5Pro-Solid'}.st54{fill:#7776ab}</style><g
     id="RH_images"
     transform="translate(-1092)"><path
       d="m 1350.6,461.7 c -2.9,-2.5 -6.6,-3.2 -10.3,-2.4 -0.6,0.1 -1.2,0.3 -1.8,0.3 0,-1.9 0,-3.8 -0.1,-5.4 0.5,0.5 1.1,1 1.7,1.3 2.4,1.4 4.9,2.4 7.6,1.9 0.7,-0.1 2.3,-0.6 2.7,-1.4 0.6,-1.5 -2.7,-3.1 -3.6,-3.5 -0.9,-0.4 -1.9,-0.7 -2.8,-0.8 -1.9,-0.3 -3.8,-0.1 -5.7,0.3 v -0.4 c -0.1,-1.2 -0.2,-2.5 -0.4,-3.7 0.8,-0.1 1.8,0.1 2.5,0.3 0.6,0.2 1.2,0.3 1.9,0.4 2.7,0.4 5.7,-0.3 7.3,-2.9 0.4,-0.6 0.4,-1 0.3,-1.4 -0.3,-0.9 -1.8,-1.2 -2.9,-1.3 -1.5,-0.1 -3,0 -4.5,0.3 -1.3,0.2 -2.2,0.9 -3.3,1.6 -0.5,0.3 -1,0.6 -1.4,1 l -0.1,0.1 c -0.2,-2.2 -0.4,-4.5 -0.5,-6.7 0.6,0 1.3,0.3 1.8,0.4 2.4,0.4 4.8,1.3 7.3,0.5 1.6,-0.5 4.8,-2.4 2.2,-3.6 -1.8,-0.8 -6.2,-0.6 -8.1,-0.2 -0.7,0.2 -1.3,0.3 -2,0.5 -0.4,0.1 -0.8,0.4 -1.1,0.6 v -5.6 c 0.1,0.1 0.2,0.1 0.3,0.2 2.8,1.4 5.3,2.8 8.6,2.3 1.6,-0.2 4.9,-1.6 2.5,-3.3 -3,-2 -6.8,-2.3 -10.2,-1.7 -0.1,0 -0.8,0.2 -1.3,0.4 0,-1.2 0,-2.4 0.1,-3.6 1.1,0.7 2.8,1 4,1.2 1.6,0.3 3.3,0.4 4.9,-0.1 0.7,-0.2 5.7,-2.3 3.2,-3.4 -3.7,-1.6 -7.4,-1.1 -11.1,0.1 l -0.9,0.3 c 0.1,-1.1 0.2,-2.1 0.3,-3.2 1.1,-0.1 2.3,0 3.4,-0.1 1.2,-0.1 2.4,-0.4 3.6,-0.7 0.9,-0.2 3.4,-0.9 3.4,-2.8 0,-1.2 -2.4,-1.4 -2.7,-1.3 -1.8,0.1 -3.3,0.5 -4.9,1.4 -1.4,0.8 -2.2,1.4 -2.6,2 0.1,-0.9 0.3,-1.7 0.5,-2.5 0.2,-0.3 0.4,-0.6 0.6,-0.8 0.9,-1.3 2,-2.4 2.7,-3.9 0.7,-1.5 1.2,-3.2 1.3,-4.9 0,-0.9 0,-2.7 -0.8,-2.9 h -0.4 c -1.9,0.6 -3.1,4.3 -3.6,6.4 -0.1,0.5 -0.1,1 -0.2,1.5 v 3.3 c -0.2,0.6 -0.3,1.2 -0.4,1.8 -0.4,-0.3 -0.7,-0.8 -1.1,-1.2 -0.5,-0.6 -1.1,-1.1 -1.7,-1.5 -1.1,-0.7 -2.2,-1.2 -3.4,-1.5 -0.2,-0.1 -0.4,-0.1 -0.6,-0.2 -1.4,-0.3 -4.7,0.1 -3,2.2 0.8,1 2,1.7 3.1,2.2 1.2,0.6 2.5,0.9 3.8,1.1 0.6,0.1 1.1,0.2 1.7,0.2 0.3,0 0.7,0.1 1,0 -0.2,0.9 -0.3,1.9 -0.4,2.9 -0.1,0 -0.2,-0.1 -0.3,-0.1 -0.4,-0.2 -0.8,-0.5 -1.2,-0.8 -0.4,-0.3 -0.9,-0.6 -1.4,-0.8 -2,-0.9 -4.5,-1.4 -6.7,-1.2 -1.7,0.2 -5.3,1.4 -2.9,3.2 1.7,1.2 6.1,2 8.2,1.9 1.1,0 2.2,0 3.4,-0.1 h 0.7 c -0.1,1.1 -0.1,2.3 -0.2,3.4 -0.3,-0.2 -0.6,-0.3 -0.9,-0.4 -0.4,-0.1 -0.9,-0.2 -1.3,-0.4 -1.3,-0.5 -2.4,-1 -3.7,-1.1 -1.2,-0.1 -2.5,-0.2 -3.7,0 -1.7,0.3 -5.4,1.8 -2.7,3.2 1.8,1 6.4,1.3 8.5,1.1 0.6,-0.1 1.3,-0.1 1.9,-0.3 0.6,-0.2 1.2,-0.4 1.9,-0.5 v 3.1 c -0.8,-0.1 -1.5,-0.5 -2.3,-0.6 -1,-0.2 -2,-0.2 -3,-0.2 -1.7,0.1 -3.5,0.5 -5,1.2 -1.7,0.8 -3.7,3 -0.7,3.6 2.1,0.4 5.5,-0.3 7.6,-1.2 1.1,-0.5 2.4,-0.7 3.3,-1.5 l 0.1,-0.1 v 4.4 h -0.2 c -0.9,0 -2.2,-0.3 -3.1,-0.3 -2.3,0.2 -4.3,0.3 -6.3,1.5 -0.8,0.4 -5.4,4 -2.6,4.6 1.9,0.4 4.2,0 6.1,-0.5 2.1,-0.5 4.6,-1.6 6.3,-3.2 0.1,1.4 0.2,2.9 0.3,4.3 -2.2,0.1 -4.4,-0.1 -6.5,0.1 -1.9,0.2 -3.6,0.6 -5.1,1.6 -3,2 -3.2,3.3 -0.1,4.4 1.9,0.6 4.2,0.5 6,-0.2 1.8,-0.7 4.5,-2.1 5.8,-3.8 0.2,1.8 0.3,3.6 0.5,5.5 0,0.2 0,0.5 0.1,0.7 -0.7,-0.4 -2.3,-0.5 -2.9,-0.5 -2.7,-0.2 -5.9,0 -8.4,1.4 -2,1.1 -3.4,2.7 -0.7,4.1 2.3,1.2 5.3,1.1 7.7,0.3 1.7,-0.6 2.8,-1.5 3.9,-2.9 0.1,-0.2 0.3,-0.4 0.5,-0.7 0.1,1.8 0.2,3.7 0.1,5.8 -1.1,-0.2 -2.4,-0.4 -3.4,-0.5 -0.9,-0.1 -1.9,-0.2 -2.8,0 -2.3,0.3 -4.3,1.4 -6,3.1 -0.6,0.6 -2.8,3.1 -0.9,3.5 2.8,0.6 7,-0.3 9.6,-1.5 0.8,-0.4 1.6,-0.9 2.3,-1.4 0.4,-0.2 0.8,-0.5 1.1,-0.9 -0.2,5.2 -0.9,11 -2.4,16.4 l 0.7,0.2 c 1.5,-5.6 2.2,-11.6 2.4,-17 0.1,0.1 0.1,0.2 0.2,0.3 0.5,0.6 1.1,1.1 1.8,1.5 4.4,2.6 11.9,-0.2 10,-1.8 z"
       style="fill:#006837"
       id="path66"
       inkscape:connector-curvature="0" /><path
       class="st8"
       d="m 1227.2,548.5 c 0,0 10.1,-45.8 8.4,-200.7 l 9,-0.2 c 0,0 2.4,145.9 11,200.4 z"
       id="path68"
       inkscape:connector-curvature="0"
       style="fill:#00666b" /><path
       class="st8"
       d="m 1295.2,557.7 h -109.3 c -1.9,0 -2.3,-2.7 -0.5,-3.3 18.6,-6.1 63.6,-16.9 110.4,0.4 1.5,0.6 1.1,2.9 -0.6,2.9 z M 1119.5,337.2 c -0.1,0.8 0.3,1.6 0.9,2.1 5.9,4.5 37,25.4 84.4,14.4 0,0 21.9,-4.2 34.1,-2.6 l 0.6,-16.9 c 0,0 -14,-3.4 -54.1,10.6 0,0 -27.8,9.1 -62.5,-9.4 -1.4,-0.9 -3.2,0.1 -3.4,1.8 z"
       id="path70"
       inkscape:connector-curvature="0"
       style="fill:#00666b" /><path
       class="st8"
       d="m 1359.3,337.1 c 0.1,0.8 -0.3,1.6 -0.9,2.1 -6,4.5 -37.3,25.4 -85.1,14.4 0,0 -22.4,-4.9 -34.7,-2.4 l -0.4,-17.1 c 0,0 14.2,-3.4 54.6,10.6 0,0 28,9.1 63.1,-9.4 1.5,-0.8 3.3,0.2 3.4,1.8 z"
       id="path72"
       inkscape:connector-curvature="0"
       style="fill:#00666b" /><circle
       transform="rotate(-69.86,1240.764,343.01)"
       class="st8"
       cx="1240.7"
       cy="343"
       r="4.3000002"
       id="circle74"
       style="fill:#00666b" /><g
       id="g90"><path
         class="st8"
         d="m 1288.1,480.3 h 96.3 c -0.1,0 -47.8,43.4 -96.3,0 z"
         id="path76"
         inkscape:connector-curvature="0"
         style="fill:#00666b" /><path
         class="st8"
         d="m 1383.6,480.7 c 0,-1.2 -21.4,-2.3 -47.7,-2.3 -26.3,0 -47.7,1 -47.7,2.3 0,1.2 21.4,2.3 47.7,2.3 26.3,-0.1 47.7,-1.1 47.7,-2.3 z"
         id="path78"
         inkscape:connector-curvature="0"
         style="fill:#00666b" /><path
         class="st9"
         d="m 1335.3,349.7 -47.1,131 m 46.6,-131 48.4,131"
         id="path80"
         inkscape:connector-curvature="0"
         style="fill:none;stroke:#00a1d9;stroke-width:3.18479991;stroke-miterlimit:10" /><path
         style="fill:none;stroke:#00a1d9;stroke-width:3.18479991;stroke-linecap:round;stroke-miterlimit:10"
         d="m 1335.3,342.3 v 10"
         id="path82"
         inkscape:connector-curvature="0" /><g
         id="g88"><path
           class="st11"
           d="m 1335.3,349.7 -47.1,131 m 46.6,-131 48.4,131"
           id="path84"
           inkscape:connector-curvature="0"
           style="fill:none;stroke:#1c1c1c;stroke-width:3.18479991;stroke-miterlimit:10" /><path
           style="fill:none;stroke:#1c1c1c;stroke-width:3.18479991;stroke-linecap:round;stroke-miterlimit:10"
           d="m 1335.3,342.3 v 10"
           id="path86"
           inkscape:connector-curvature="0" /></g></g><g
       id="g100"><path
         class="st8"
         d="m 1094.1,480.3 h 96.3 c 0,0 -47.8,43.4 -96.3,0 z"
         id="path92"
         inkscape:connector-curvature="0"
         style="fill:#00666b" /><path
         class="st8"
         d="m 1189.6,480.7 c 0,-1.2 -21.4,-2.3 -47.7,-2.3 -26.3,0 -47.7,1 -47.7,2.3 0,1.2 21.4,2.3 47.7,2.3 26.3,-0.1 47.7,-1.1 47.7,-2.3 z"
         id="path94"
         inkscape:connector-curvature="0"
         style="fill:#00666b" /><g
         id="g98"><path
           class="st11"
           d="m 1142.3,349.7 -47.1,131 m 46.6,-131 48.4,131 m -47.9,-138.4 v 10"
           id="path96"
           inkscape:connector-curvature="0"
           style="fill:none;stroke:#1c1c1c;stroke-width:3.18479991;stroke-miterlimit:10" /></g></g><g
       id="g104"><path
         class="st13"
         d="m 1160.6,455 c 0,4.3 -8.4,7.9 -18.8,7.9 -10.4,0 -18.8,-3.5 -18.8,-7.9 0,-4.4 8.4,-7.9 18.8,-7.9 10.4,0 18.8,3.5 18.8,7.9 z m -18.8,11 c 7.4,0 14.8,-1.7 18.8,-5.1 v 5.1 c 0,3.5 -8.4,6.3 -18.8,6.3 -10.4,0 -18.8,-2.8 -18.8,-6.3 v -5.1 c 4,3.3 11.4,5.1 18.8,5.1 z m 0,9.4 c 7.4,0 14.8,-1.3 18.8,-4.2 v 4.2 c 0,3.5 -8.4,6.3 -18.8,6.3 -10.4,0 -18.8,-2.8 -18.8,-6.3 v -4.2 c 4,2.9 11.4,4.2 18.8,4.2 z"
         id="path102"
         inkscape:connector-curvature="0"
         style="fill:#ff9e36" /></g><g
       id="g144"><path
         d="m 1246.3,549.9 -15.7,0.2 c 0,0 11.2,-45.8 9.3,-200.5 l 3.5,-0.1"
         style="opacity:0.5;fill:#ffffff"
         id="path106"
         inkscape:connector-curvature="0" /><path
         transform="matrix(-0.9999,-0.01517,0.01517,-0.9999,2595.067,1196.937)"
         class="st15"
         d="M 1237.2,561.1 H 1367 v 55 h -129.8 z"
         id="path108"
         inkscape:connector-curvature="0"
         style="fill:#024866" /><path
         transform="matrix(-0.9999,-0.01517,0.01517,-0.9999,2351.499,1188.786)"
         class="st16"
         d="m 1123.3,558 h 113.9 v 55 h -113.9 z"
         id="path110"
         inkscape:connector-curvature="0"
         style="fill:#dee5da" /><path
         class="st15"
         d="m 1121.4,610.9 240.9,3.7 c 1.6,0 3,-1.3 3,-2.9 l 0.7,-46 c 0,-1.6 -1.3,-3 -2.9,-3 l -240.9,-3.7 0.1,-4.2 240.9,3.7 c 3.9,0.1 7.1,3.3 7,7.2 l -0.7,46 c -0.1,3.9 -3.3,7.1 -7.2,7 L 1121.4,615 Z"
         id="path112"
         inkscape:connector-curvature="0"
         style="fill:#024866" /><path
         class="st17"
         d="m 1231.1,616.9 -109.9,-1.7 0.1,-4.5 109.9,1.7 c 2,0 3.7,-1.6 3.7,-3.5 l 0.7,-44.3 c 0,-2 -1.6,-3.6 -3.6,-3.7 l -109.9,-1.7 0.1,-4.5 109.9,1.7 c 4.5,0.1 8,3.7 8,8.2 l -0.7,44.3 c -0.1,4.5 -3.8,8.1 -8.3,8 z"
         id="path114"
         inkscape:connector-curvature="0"
         style="fill:#002b3a" /><path
         class="st18"
         d="m 1130.5,567.4 102.9,2.2 m -103,2.8 103,2.2 m -103.1,2.8 103,2.2 m -103,2.7 102.9,2.2 m -103,2.8 102.9,2.2 m -103,2.7 103,2.2 m -103.1,2.8 103,2.2 m -103,2.8 102.9,2.2"
         id="path116"
         inkscape:connector-curvature="0"
         style="fill:none;stroke:#767a73;stroke-width:0.63279998;stroke-miterlimit:10" /><g
         id="g128"><path
           transform="matrix(-0.9999,-0.01517,0.01517,-0.9999,2604.609,1440.5)"
           class="st15"
           d="m 1242.9,682.9 h 129.8 v 55 h -129.8 z"
           id="path118"
           inkscape:connector-curvature="0"
           style="fill:#024866" /><path
           transform="matrix(-0.9999,-0.01517,0.01517,-0.9999,2361.041,1432.349)"
           class="st16"
           d="m 1129,679.7 h 113.9 v 55 H 1129 Z"
           id="path120"
           inkscape:connector-curvature="0"
           style="fill:#dee5da" /><path
           class="st15"
           d="m 1127.1,732.7 240.9,3.7 c 1.6,0 3,-1.3 3,-2.9 l 0.7,-46 c 0,-1.6 -1.3,-3 -2.9,-3 l -240.9,-3.7 0.1,-4.2 240.9,3.7 c 3.9,0.1 7.1,3.3 7,7.2 l -0.7,46 c -0.1,3.9 -3.3,7.1 -7.2,7 l -240.9,-3.7 z"
           id="path122"
           inkscape:connector-curvature="0"
           style="fill:#024866" /><path
           class="st17"
           d="m 1236.8,738.7 -109.9,-1.7 0.1,-4.5 109.9,1.7 c 2,0 3.7,-1.6 3.7,-3.5 l 0.7,-44.3 c 0,-2 -1.6,-3.6 -3.6,-3.7 l -109.9,-1.7 0.1,-4.5 109.9,1.7 c 4.5,0.1 8,3.7 8,8.2 l -0.7,44.3 c -0.2,4.5 -3.8,8 -8.3,8 z"
           id="path124"
           inkscape:connector-curvature="0"
           style="fill:#002b3a" /><path
           class="st18"
           d="m 1136.2,689.2 102.9,2.2 m -103,2.7 103,2.2 m -103.1,2.8 103,2.2 m -103.1,2.8 103,2.2 m -103,2.7 102.9,2.2 m -103,2.8 103,2.2 m -103.1,2.8 103,2.1 m -103.1,2.8 103,2.2"
           id="path126"
           inkscape:connector-curvature="0"
           style="fill:none;stroke:#767a73;stroke-width:0.63279998;stroke-miterlimit:10" /></g><g
         id="g140"><path
           transform="rotate(0.81,1180.189,647.714)"
           class="st19"
           d="m 1115.4,620 h 129.8 v 55 h -129.8 z"
           id="path130"
           inkscape:connector-curvature="0"
           style="fill:#3cb5d3" /><path
           transform="rotate(0.81,1302.045,648.17)"
           class="st16"
           d="m 1245.2,620.5 h 113.9 v 55 h -113.9 z"
           id="path132"
           inkscape:connector-curvature="0"
           style="fill:#dee5da" /><path
           class="st19"
           d="m 1360.2,675.1 -240.9,-3.4 c -1.6,0 -2.9,-1.4 -2.9,-3 l 0.7,-46 c 0,-1.6 1.4,-2.9 3,-2.9 l 240.9,3.4 0.1,-4.2 -240.9,-3.4 c -3.9,-0.1 -7.2,3.1 -7.2,7 l -0.7,46 c -0.1,3.9 3.1,7.2 7,7.2 l 240.9,3.4 z"
           id="path134"
           inkscape:connector-curvature="0"
           style="fill:#3cb5d3" /><path
           d="m 1250.4,677.9 109.9,1.6 0.1,-4.5 -109.9,-1.6 c -2,0 -3.6,-1.7 -3.6,-3.7 l 0.6,-44.3 c 0,-2 1.7,-3.6 3.7,-3.6 l 109.9,1.6 0.1,-4.5 -109.9,-1.6 c -4.5,-0.1 -8.2,3.5 -8.2,7.9 l -0.6,44.3 c -0.2,4.7 3.4,8.3 7.9,8.4 z"
           style="fill:#338cfb"
           id="path136"
           inkscape:connector-curvature="0" /><path
           class="st18"
           d="m 1250.8,629.6 103,2.1 m -103.1,2.8 103,2.1 m -103,2.9 102.9,2.1 m -103,2.8 103,2.1 m -103.1,2.9 103,2.1 m -103,2.9 102.9,2.1 m -103,2.8 103,2.1 m -103.1,2.9 103,2.1"
           id="path138"
           inkscape:connector-curvature="0"
           style="fill:none;stroke:#767a73;stroke-width:0.63279998;stroke-miterlimit:10" /></g><path
         style="fill:none"
         d="m 1361.1,623.5 -109.8,-6 -131.2,-1.8 125.7,-7.4"
         id="path142"
         inkscape:connector-curvature="0" /></g></g></svg>