<?xml version="1.0" encoding="UTF-8" standalone="no"?>
<svg
   xmlns:dc="http://purl.org/dc/elements/1.1/"
   xmlns:cc="http://creativecommons.org/ns#"
   xmlns:rdf="http://www.w3.org/1999/02/22-rdf-syntax-ns#"
   xmlns:svg="http://www.w3.org/2000/svg"
   xmlns="http://www.w3.org/2000/svg"
   xmlns:sodipodi="http://sodipodi.sourceforge.net/DTD/sodipodi-0.dtd"
   xmlns:inkscape="http://www.inkscape.org/namespaces/inkscape"
   width="3023.6221"
   height="3023.6221"
   x="0px"
   y="0px"
   viewBox="0 0 3023.6221 3023.6221"
   xml:space="preserve"
   version="1.1"
   id="svg88"
   sodipodi:docname="micswheel2.svg"
   inkscape:version="0.92.4 (5da689c313, 2019-01-14)">
  <defs
   id="defs92" />
  <sodipodi:namedview
   pagecolor="#ffffff"
   bordercolor="#666666"
   borderopacity="1"
   objecttolerance="10"
   gridtolerance="10"
   guidetolerance="10"
   inkscape:pageopacity="0"
   inkscape:pageshadow="2"
   inkscape:window-width="1920"
   inkscape:window-height="1016"
   id="namedview90"
   showgrid="false"
   inkscape:zoom="0.76419443"
   inkscape:cx="1511.803"
   inkscape:cy="1511.8624"
   inkscape:window-x="0"
   inkscape:window-y="36"
   inkscape:window-maximized="1"
   inkscape:current-layer="flowRoot16"
   units="px" />
  <metadata
   id="metadata2">
    <rdf:RDF>
      <cc:Work
   rdf:about="">
        <dc:format>image/svg+xml</dc:format>
        <dc:type
   rdf:resource="http://purl.org/dc/dcmitype/StillImage" />
        <dc:title />
      </cc:Work>
    </rdf:RDF>
  </metadata>
  <desc
   id="desc4">/home/pi/Downloads/autolayout side windows.dxf - scale = 1.000000, origin = (0.000000, 0.000000), method = manual</desc>
  <g
   transform="translate(85.245,-14.781)"
   id="everything">
    <path
   d="m 2545.6,1508.6 a 1119,1119 0 0 1 -1119,1119 1119,1119 0 0 1 -1119,-1119 1119,1119 0 0 1 1119,-1119 1119,1119 0 0 1 1119,1119 z"
   id="circlepath"
   inkscape:connector-curvature="0"
   style="fill:none;stroke:#b1c1db;stroke-width:80" />
    <g
   transform="translate(-426.63,2239.2)"
   id="circleimpact">
      <circle
   cx="1853.2"
   cy="-712.62"
   r="489.37"
   id="circle8"
   style="fill:#7f7f7f" />
      <g
   aria-label="Impact Assessment"
   transform="translate(-120.69,-1977.8)"
   style="font-size:106.66999817px;line-height:1.25;font-family:Montserrat;font-variant-ligatures:normal;font-variant-caps:normal;font-variant-numeric:normal;font-feature-settings:normal;text-align:center;letter-spacing:0px;word-spacing:0px;text-anchor:middle;fill:#ffffff"
   id="flowRoot16">
        <path
   d="m 1795.3516,1160.8707 h 7.8936 v 74.669 h -7.8936 z"
   id="path164"
   inkscape:connector-curvature="0" />
        <path
   d="m 1896.0198,1179.0046 q 10.5603,0 16.5338,6.0802 6.0802,6.0802 6.0802,17.9206 v 32.5343 h -7.5735 v -31.7877 q 0,-8.7469 -4.2668,-13.3337 -4.1602,-4.5868 -11.8404,-4.5868 -8.747,0 -13.7604,5.4402 -5.0135,5.3335 -5.0135,14.8271 v 29.4409 h -7.5736 v -31.7877 q 0,-8.7469 -4.2668,-13.3337 -4.1601,-4.5868 -11.947,-4.5868 -8.6403,0 -13.7605,5.4402 -5.0135,5.3335 -5.0135,14.8271 v 29.4409 h -7.5735 v -56.1084 h 7.2535 v 10.2403 q 2.9868,-5.1202 8.3203,-7.8936 5.3335,-2.7734 12.267,-2.7734 7.0403,0 12.1604,2.9868 5.2268,2.9867 7.7869,8.8536 3.0935,-5.5469 8.8536,-8.6403 5.8669,-3.2001 13.3338,-3.2001 z"
   id="path166"
   inkscape:connector-curvature="0" />
        <path
   d="m 1968.0804,1179.0046 q 7.8935,0 14.2937,3.6268 6.4002,3.5201 10.027,10.027 3.6268,6.5068 3.6268,14.8271 0,8.4269 -3.6268,14.9338 -3.6268,6.5069 -10.027,10.1336 -6.2935,3.5202 -14.2937,3.5202 -6.8269,0 -12.3738,-2.7735 -5.4401,-2.8801 -8.9602,-8.3202 v 31.2543 h -7.5736 v -76.8024 h 7.2536 v 11.0937 q 3.4134,-5.5469 8.9602,-8.5336 5.6535,-2.9868 12.6938,-2.9868 z m -0.5334,50.3482 q 5.8669,0 10.667,-2.6667 4.8002,-2.7734 7.4669,-7.7869 2.7734,-5.0135 2.7734,-11.4137 0,-6.4002 -2.7734,-11.307 -2.6667,-5.0135 -7.4669,-7.7869 -4.8001,-2.7735 -10.667,-2.7735 -5.9735,0 -10.7737,2.7735 -4.6934,2.7734 -7.4669,7.7869 -2.6667,4.9068 -2.6667,11.307 0,6.4002 2.6667,11.4137 2.7735,5.0135 7.4669,7.7869 4.8002,2.6667 10.7737,2.6667 z"
   id="path168"
   inkscape:connector-curvature="0" />
        <path
   d="m 2030.6773,1179.0046 q 10.987,0 16.8539,5.5468 5.8668,5.4402 5.8668,16.2139 v 34.7744 h -7.2535 v -8.7469 q -2.5601,4.3734 -7.5736,6.8268 -4.9068,2.4535 -11.7337,2.4535 -9.387,0 -14.9338,-4.4802 -5.5468,-4.4801 -5.5468,-11.8404 0,-7.1468 5.1201,-11.5203 5.2268,-4.3735 16.5339,-4.3735 h 17.8139 v -3.4134 q 0,-7.2536 -4.0535,-10.987 -4.0535,-3.8402 -11.8404,-3.8402 -5.3335,0 -10.2403,1.8134 -4.9068,1.7068 -8.4269,4.8002 l -3.4135,-5.6535 q 4.2668,-3.6268 10.2404,-5.5469 5.9735,-2.0267 12.587,-2.0267 z m -2.6667,51.0949 q 6.4002,0 10.987,-2.8801 4.5868,-2.9867 6.8269,-8.5336 v -9.1736 h -17.6006 q -14.4004,0 -14.4004,10.027 0,4.9068 3.7334,7.7869 3.7335,2.7734 10.4537,2.7734 z"
   id="path170"
   inkscape:connector-curvature="0" />
        <path
   d="m 2097.4311,1236.0731 q -8.3203,0 -14.9338,-3.6268 -6.5069,-3.6268 -10.2404,-10.1337 -3.7334,-6.6135 -3.7334,-14.8271 0,-8.2136 3.7334,-14.7205 3.7335,-6.5068 10.2404,-10.1336 6.6135,-3.6268 14.9338,-3.6268 7.2535,0 12.907,2.8801 5.7602,2.7734 9.067,8.2136 l -5.6535,3.8401 q -2.7734,-4.1601 -7.0402,-6.1869 -4.2668,-2.1334 -9.2803,-2.1334 -6.0802,0 -10.987,2.7735 -4.8002,2.6667 -7.5736,7.6802 -2.6668,5.0135 -2.6668,11.4137 0,6.5069 2.6668,11.5204 2.7734,4.9068 7.5736,7.6802 4.9068,2.6667 10.987,2.6667 5.0135,0 9.2803,-2.0267 4.2668,-2.0267 7.0402,-6.1868 l 5.6535,3.8401 q -3.3068,5.4401 -9.067,8.3202 -5.7601,2.7735 -12.907,2.7735 z"
   id="path172"
   inkscape:connector-curvature="0" />
        <path
   d="m 2164.3515,1232.1263 q -2.1334,1.92 -5.3335,2.9867 -3.0934,0.9601 -6.5069,0.9601 -7.8936,0 -12.1604,-4.2668 -4.2668,-4.2668 -4.2668,-12.0538 v -33.921 h -10.0269 v -6.4002 h 10.0269 v -12.2671 h 7.5736 v 12.2671 h 17.0672 v 6.4002 h -17.0672 v 33.4944 q 0,5.0135 2.4534,7.6802 2.5601,2.5601 7.2536,2.5601 2.3467,0 4.4801,-0.7467 2.2401,-0.7467 3.8401,-2.1334 z"
   id="path174"
   inkscape:connector-curvature="0" />
        
        <path
   d="m 1755.8737,1369.4106 q -6.8268,0 -13.1204,-1.9201 -6.1868,-2.0267 -9.7069,-5.0135 l 3.4134,-5.9735 q 3.5201,2.7734 8.8536,4.5868 5.3335,1.7067 11.0937,1.7067 7.6802,0 11.307,-2.3467 3.7335,-2.4534 3.7335,-6.8269 0,-3.0934 -2.0268,-4.8001 -2.0267,-1.8134 -5.1201,-2.6668 -3.0935,-0.96 -8.2136,-1.8134 -6.8269,-1.28 -10.987,-2.5601 -4.1602,-1.3867 -7.1469,-4.5868 -2.8801,-3.2001 -2.8801,-8.8536 0,-7.0402 5.8668,-11.5203 5.8669,-4.4802 16.3206,-4.4802 5.4401,0 10.8803,1.4934 5.4402,1.3867 8.9603,3.7335 l -3.3068,6.0801 q -6.9335,-4.8001 -16.5338,-4.8001 -7.2536,0 -10.9871,2.5601 -3.6267,2.5601 -3.6267,6.7202 0,3.2001 2.0267,5.1201 2.1334,1.9201 5.2268,2.8801 3.0935,0.8534 8.5336,1.8134 6.7202,1.2801 10.7737,2.5601 4.0535,1.28 6.9335,4.3735 2.8801,3.0934 2.8801,8.5336 0,7.3602 -6.1868,11.7337 -6.0802,4.2668 -16.9606,4.2668 z"
   id="path178"
   inkscape:connector-curvature="0" />
        <path
   d="m 1807.9587,1369.4106 q -6.8269,0 -13.1204,-1.9201 -6.1869,-2.0267 -9.707,-5.0135 l 3.4135,-5.9735 q 3.5201,2.7734 8.8536,4.5868 5.3335,1.7067 11.0937,1.7067 7.6802,0 11.307,-2.3467 3.7334,-2.4534 3.7334,-6.8269 0,-3.0934 -2.0267,-4.8001 -2.0267,-1.8134 -5.1202,-2.6668 -3.0934,-0.96 -8.2136,-1.8134 -6.8268,-1.28 -10.987,-2.5601 -4.1601,-1.3867 -7.1469,-4.5868 -2.88,-3.2001 -2.88,-8.8536 0,-7.0402 5.8668,-11.5203 5.8669,-4.4802 16.3205,-4.4802 5.4402,0 10.8804,1.4934 5.4401,1.3867 8.9602,3.7335 l -3.3067,6.0801 q -6.9336,-4.8001 -16.5339,-4.8001 -7.2535,0 -10.987,2.5601 -3.6268,2.5601 -3.6268,6.7202 0,3.2001 2.0268,5.1201 2.1334,1.9201 5.2268,2.8801 3.0934,0.8534 8.5336,1.8134 6.7202,1.2801 10.7737,2.5601 4.0534,1.28 6.9335,4.3735 2.8801,3.0934 2.8801,8.5336 0,7.3602 -6.1869,11.7337 -6.0802,4.2668 -16.9605,4.2668 z"
   id="path180"
   inkscape:connector-curvature="0" />
        <path
   d="m 1893.858,1343.1698 h -46.9348 q 0.6401,8.7469 6.7203,14.1871 6.0801,5.3335 15.3604,5.3335 5.2269,0 9.6003,-1.8134 4.3735,-1.9201 7.5736,-5.5469 l 4.2668,4.9069 q -3.7334,4.4801 -9.387,6.8268 -5.5468,2.3468 -12.267,2.3468 -8.6403,0 -15.3605,-3.6268 -6.6135,-3.7335 -10.347,-10.2403 -3.7334,-6.5069 -3.7334,-14.7205 0,-8.2136 3.5201,-14.7204 3.6268,-6.5069 9.8136,-10.1337 6.2936,-3.6268 14.0805,-3.6268 7.7869,0 13.9737,3.6268 6.1869,3.6268 9.707,10.1337 3.5201,6.4002 3.5201,14.7204 z m -27.0941,-24.3208 q -8.107,0 -13.6538,5.2268 -5.4402,5.1202 -6.1869,13.4404 h 39.788 q -0.7467,-8.3202 -6.2936,-13.4404 -5.4401,-5.2268 -13.6537,-5.2268 z"
   id="path182"
   inkscape:connector-curvature="0" />
        <path
   d="m 1924.4207,1369.4106 q -6.8269,0 -13.1204,-1.9201 -6.1869,-2.0267 -9.707,-5.0135 l 3.4134,-5.9735 q 3.5201,2.7734 8.8536,4.5868 5.3335,1.7067 11.0937,1.7067 7.6803,0 11.307,-2.3467 3.7335,-2.4534 3.7335,-6.8269 0,-3.0934 -2.0267,-4.8001 -2.0268,-1.8134 -5.1202,-2.6668 -3.0934,-0.96 -8.2136,-1.8134 -6.8269,-1.28 -10.987,-2.5601 -4.1601,-1.3867 -7.1469,-4.5868 -2.8801,-3.2001 -2.8801,-8.8536 0,-7.0402 5.8669,-11.5203 5.8668,-4.4802 16.3205,-4.4802 5.4402,0 10.8803,1.4934 5.4402,1.3867 8.9603,3.7335 l -3.3068,6.0801 q -6.9335,-4.8001 -16.5338,-4.8001 -7.2536,0 -10.987,2.5601 -3.6268,2.5601 -3.6268,6.7202 0,3.2001 2.0267,5.1201 2.1334,1.9201 5.2269,2.8801 3.0934,0.8534 8.5336,1.8134 6.7202,1.2801 10.7736,2.5601 4.0535,1.28 6.9336,4.3735 2.8801,3.0934 2.8801,8.5336 0,7.3602 -6.1869,11.7337 -6.0802,4.2668 -16.9605,4.2668 z"
   id="path184"
   inkscape:connector-curvature="0" />
        <path
   d="m 1976.5056,1369.4106 q -6.8268,0 -13.1204,-1.9201 -6.1868,-2.0267 -9.7069,-5.0135 l 3.4134,-5.9735 q 3.5201,2.7734 8.8536,4.5868 5.3335,1.7067 11.0937,1.7067 7.6802,0 11.307,-2.3467 3.7335,-2.4534 3.7335,-6.8269 0,-3.0934 -2.0268,-4.8001 -2.0267,-1.8134 -5.1201,-2.6668 -3.0935,-0.96 -8.2136,-1.8134 -6.8269,-1.28 -10.987,-2.5601 -4.1602,-1.3867 -7.1469,-4.5868 -2.8801,-3.2001 -2.8801,-8.8536 0,-7.0402 5.8668,-11.5203 5.8669,-4.4802 16.3205,-4.4802 5.4402,0 10.8804,1.4934 5.4402,1.3867 8.9603,3.7335 l -3.3068,6.0801 q -6.9336,-4.8001 -16.5339,-4.8001 -7.2535,0 -10.987,2.5601 -3.6267,2.5601 -3.6267,6.7202 0,3.2001 2.0267,5.1201 2.1334,1.9201 5.2268,2.8801 3.0934,0.8534 8.5336,1.8134 6.7202,1.2801 10.7737,2.5601 4.0534,1.28 6.9335,4.3735 2.8801,3.0934 2.8801,8.5336 0,7.3602 -6.1868,11.7337 -6.0802,4.2668 -16.9606,4.2668 z"
   id="path186"
   inkscape:connector-curvature="0" />
        <path
   d="m 2083.5256,1312.3421 q 10.5604,0 16.5339,6.0802 6.0802,6.0802 6.0802,17.9206 v 32.5343 h -7.5736 v -31.7876 q 0,-8.747 -4.2668,-13.3338 -4.1601,-4.5868 -11.8404,-4.5868 -8.7469,0 -13.7604,5.4402 -5.0135,5.3335 -5.0135,14.8271 v 29.4409 h -7.5735 v -31.7876 q 0,-8.747 -4.2668,-13.3338 -4.1602,-4.5868 -11.9471,-4.5868 -8.6403,0 -13.7604,5.4402 -5.0135,5.3335 -5.0135,14.8271 v 29.4409 h -7.5736 v -56.1084 h 7.2536 v 10.2403 q 2.9867,-5.1201 8.3202,-7.8936 5.3335,-2.7734 12.2671,-2.7734 7.0402,0 12.1604,2.9868 5.2268,2.9867 7.7869,8.8536 3.0934,-5.5468 8.8536,-8.6403 5.8668,-3.2001 13.3337,-3.2001 z"
   id="path188"
   inkscape:connector-curvature="0" />
        <path
   d="m 2175.7419,1343.1698 h -46.9348 q 0.64,8.7469 6.7202,14.1871 6.0802,5.3335 15.3605,5.3335 5.2268,0 9.6003,-1.8134 4.3734,-1.9201 7.5735,-5.5469 l 4.2668,4.9069 q -3.7334,4.4801 -9.3869,6.8268 -5.5469,2.3468 -12.2671,2.3468 -8.6403,0 -15.3605,-3.6268 -6.6135,-3.7335 -10.347,-10.2403 -3.7334,-6.5069 -3.7334,-14.7205 0,-8.2136 3.5201,-14.7204 3.6268,-6.5069 9.8136,-10.1337 6.2936,-3.6268 14.0805,-3.6268 7.7869,0 13.9738,3.6268 6.1868,3.6268 9.7069,10.1337 3.5201,6.4002 3.5201,14.7204 z m -27.0942,-24.3208 q -8.1069,0 -13.6538,5.2268 -5.4401,5.1202 -6.1868,13.4404 h 39.7879 q -0.7467,-8.3202 -6.2936,-13.4404 -5.4401,-5.2268 -13.6537,-5.2268 z"
   id="path190"
   inkscape:connector-curvature="0" />
        <path
   d="m 2219.8516,1312.3421 q 10.5603,0 16.7472,6.1869 6.2935,6.0802 6.2935,17.8139 v 32.5343 h -7.5735 v -31.7876 q 0,-8.747 -4.3735,-13.3338 -4.3735,-4.5868 -12.4804,-4.5868 -9.0669,0 -14.4004,5.4402 -5.2269,5.3335 -5.2269,14.8271 v 29.4409 h -7.5735 v -56.1084 h 7.2535 v 10.347 q 3.0934,-5.1202 8.5336,-7.8936 5.5469,-2.8801 12.8004,-2.8801 z"
   id="path192"
   inkscape:connector-curvature="0" />
        <path
   d="m 2293.1055,1365.4638 q -2.1334,1.92 -5.3335,2.9867 -3.0934,0.9601 -6.5068,0.9601 -7.8936,0 -12.1604,-4.2668 -4.2668,-4.2668 -4.2668,-12.0537 v -33.9211 h -10.027 v -6.4002 h 10.027 v -12.267 h 7.5735 v 12.267 h 17.0672 v 6.4002 h -17.0672 v 33.4944 q 0,5.0135 2.4535,7.6802 2.56,2.5601 7.2535,2.5601 2.3468,0 4.4802,-0.7467 2.24,-0.7467 3.8401,-2.1334 z"
   id="path194"
   inkscape:connector-curvature="0" />
      <path
   style="font-size:106.66999817px;line-height:1.25;font-family:Montserrat;font-variant-ligatures:normal;font-variant-caps:normal;font-variant-numeric:normal;font-feature-settings:normal;text-align:center;letter-spacing:0px;word-spacing:0px;text-anchor:middle;fill:#ffffff"
   d="m 1700.9188,1312.3421 q 10.987,0 16.8539,5.5468 5.8668,5.4402 5.8668,16.2139 v 34.7744 h -7.2535 v -8.7469 q -2.5601,4.3734 -7.5736,6.8268 -4.9068,2.4535 -11.7337,2.4535 -9.387,0 -14.9338,-4.4802 -5.5468,-4.4801 -5.5468,-11.8404 0,-7.1468 5.1201,-11.5203 5.2269,-4.3735 16.5339,-4.3735 h 17.8139 v -3.4134 q 0,-7.2536 -4.0535,-10.987 -4.0535,-3.8402 -11.8404,-3.8402 -5.3335,0 -10.2403,1.8134 -4.9068,1.7068 -8.4269,4.8002 l -3.4135,-5.6535 q 4.2668,-3.6268 10.2404,-5.5469 5.9735,-2.0267 12.587,-2.0267 z m -2.6667,51.0949 q 6.4002,0 10.987,-2.8801 4.5868,-2.9867 6.8269,-8.5336 v -9.1736 h -17.6006 q -14.4004,0 -14.4004,10.027 0,4.9068 3.7334,7.7869 3.7335,2.7734 10.4537,2.7734 z"
   id="path155-5"
   inkscape:connector-curvature="0" /></g>
    </g>
    <g
   transform="translate(-426.63,2221.2)"
   id="circlegovernance">
      <circle
   cx="2864.8"
   cy="-1032.1"
   r="400"
   id="circle20"
   style="fill:#e15477;stroke:#ffffff;stroke-width:30" />
      <g
   aria-label="Governance"
   transform="translate(889.03,-2230.3)"
   style="font-size:106.66999817px;line-height:1.25;font-family:Montserrat;font-variant-ligatures:normal;font-variant-caps:normal;font-variant-numeric:normal;font-feature-settings:normal;text-align:center;letter-spacing:0px;word-spacing:0px;text-anchor:middle;fill:#ffffff"
   id="flowRoot28">
        <path
   d="m 1719.4984,1198.2052 h 7.5736 v 28.4809 q -5.2268,4.5868 -12.3737,7.0402 -7.1469,2.4534 -15.0405,2.4534 -11.2003,0 -20.1606,-4.9068 -8.9603,-4.9068 -14.0804,-13.5471 -5.1202,-8.7469 -5.1202,-19.5206 0,-10.7737 5.1202,-19.4139 5.1201,-8.747 14.0804,-13.6538 8.9603,-4.9068 20.2673,-4.9068 8.5336,0 15.6805,2.7734 7.1469,2.6668 12.0537,8.0003 l -4.9068,5.0134 q -8.8536,-8.7469 -22.5074,-8.7469 -9.0669,0 -16.4272,4.0535 -7.2535,3.9468 -11.4137,11.0936 -4.1601,7.0403 -4.1601,15.7872 0,8.7469 4.1601,15.7872 4.1602,7.0402 11.4137,11.0936 7.2536,4.0535 16.3205,4.0535 11.5204,0 19.5206,-5.7602 z"
   id="path143"
   inkscape:connector-curvature="0" />
        <path
   d="m 1770.7467,1236.0731 q -8.1069,0 -14.6138,-3.6268 -6.5068,-3.7335 -10.2403,-10.2403 -3.7334,-6.5069 -3.7334,-14.7205 0,-8.2136 3.7334,-14.7205 3.7335,-6.5068 10.2403,-10.1336 6.5069,-3.6268 14.6138,-3.6268 8.1069,0 14.6138,3.6268 6.5069,3.6268 10.1336,10.1336 3.7335,6.5069 3.7335,14.7205 0,8.2136 -3.7335,14.7205 -3.6267,6.5068 -10.1336,10.2403 -6.5069,3.6268 -14.6138,3.6268 z m 0,-6.7203 q 5.9735,0 10.667,-2.6667 4.8002,-2.7734 7.4669,-7.7869 2.6668,-5.0135 2.6668,-11.4137 0,-6.4002 -2.6668,-11.4137 -2.6667,-5.0135 -7.4669,-7.6802 -4.6935,-2.7735 -10.667,-2.7735 -5.9735,0 -10.7737,2.7735 -4.6934,2.6667 -7.4669,7.6802 -2.6667,5.0135 -2.6667,11.4137 0,6.4002 2.6667,11.4137 2.7735,5.0135 7.4669,7.7869 4.8002,2.6667 10.7737,2.6667 z"
   id="path145"
   inkscape:connector-curvature="0" />
        <path
   d="m 1860.1712,1179.4313 -24.9608,56.1084 h -7.7869 l -24.8541,-56.1084 h 7.8936 l 21.0139,47.7881 21.2274,-47.7881 z"
   id="path147"
   inkscape:connector-curvature="0" />
        <path
   d="m 1918.1296,1209.8322 h -46.9348 q 0.6401,8.747 6.7203,14.1871 6.0801,5.3335 15.3604,5.3335 5.2269,0 9.6003,-1.8133 4.3735,-1.9201 7.5736,-5.5469 l 4.2668,4.9068 q -3.7334,4.4802 -9.387,6.8269 -5.5468,2.3468 -12.267,2.3468 -8.6403,0 -15.3605,-3.6268 -6.6135,-3.7335 -10.347,-10.2403 -3.7334,-6.5069 -3.7334,-14.7205 0,-8.2136 3.5201,-14.7205 3.6268,-6.5068 9.8136,-10.1336 6.2936,-3.6268 14.0805,-3.6268 7.7869,0 13.9737,3.6268 6.1869,3.6268 9.707,10.1336 3.5201,6.4002 3.5201,14.7205 z m -27.0941,-24.3207 q -8.107,0 -13.6538,5.2268 -5.4402,5.1202 -6.1869,13.4404 h 39.788 q -0.7467,-8.3202 -6.2936,-13.4404 -5.4401,-5.2268 -13.6537,-5.2268 z"
   id="path149"
   inkscape:connector-curvature="0" />
        <path
   d="m 1940.9054,1190.4183 q 2.6667,-5.6535 7.8936,-8.5336 5.3335,-2.8801 13.1204,-2.8801 v 7.3602 l -1.8134,-0.1066 q -8.8536,0 -13.8671,5.4401 -5.0135,5.4402 -5.0135,15.2538 v 28.5876 h -7.5736 v -56.1084 h 7.2536 z"
   id="path151"
   inkscape:connector-curvature="0" />
        <path
   d="m 2004.1157,1179.0046 q 10.5603,0 16.7471,6.1869 6.2936,6.0802 6.2936,17.8139 v 32.5343 h -7.5736 v -31.7877 q 0,-8.7469 -4.3735,-13.3337 -4.3734,-4.5868 -12.4804,-4.5868 -9.0669,0 -14.4004,5.4402 -5.2268,5.3335 -5.2268,14.8271 v 29.4409 h -7.5736 v -56.1084 h 7.2536 v 10.347 q 3.0934,-5.1202 8.5336,-7.8936 5.5468,-2.8801 12.8004,-2.8801 z"
   id="path153"
   inkscape:connector-curvature="0" />
        <path
   d="m 2067.4493,1179.0046 q 10.987,0 16.8539,5.5468 5.8668,5.4402 5.8668,16.2139 v 34.7744 h -7.2535 v -8.7469 q -2.5601,4.3734 -7.5736,6.8268 -4.9068,2.4535 -11.7337,2.4535 -9.387,0 -14.9338,-4.4802 -5.5468,-4.4801 -5.5468,-11.8404 0,-7.1468 5.1201,-11.5203 5.2269,-4.3735 16.5339,-4.3735 h 17.8139 v -3.4134 q 0,-7.2536 -4.0535,-10.987 -4.0535,-3.8402 -11.8404,-3.8402 -5.3335,0 -10.2403,1.8134 -4.9068,1.7068 -8.4269,4.8002 l -3.4135,-5.6535 q 4.2668,-3.6268 10.2404,-5.5469 5.9735,-2.0267 12.587,-2.0267 z m -2.6667,51.0949 q 6.4002,0 10.987,-2.8801 4.5868,-2.9867 6.8269,-8.5336 v -9.1736 h -17.6006 q -14.4004,0 -14.4004,10.027 0,4.9068 3.7334,7.7869 3.7335,2.7734 10.4537,2.7734 z"
   id="path155"
   inkscape:connector-curvature="0" />
        <path
   d="m 2139.3282,1179.0046 q 10.5604,0 16.7472,6.1869 6.2936,6.0802 6.2936,17.8139 v 32.5343 h -7.5736 v -31.7877 q 0,-8.7469 -4.3735,-13.3337 -4.3734,-4.5868 -12.4804,-4.5868 -9.0669,0 -14.4004,5.4402 -5.2268,5.3335 -5.2268,14.8271 v 29.4409 h -7.5736 v -56.1084 h 7.2535 v 10.347 q 3.0935,-5.1202 8.5336,-7.8936 5.5469,-2.8801 12.8004,-2.8801 z"
   id="path157"
   inkscape:connector-curvature="0" />
        <path
   d="m 2206.497,1236.0731 q -8.3203,0 -14.9338,-3.6268 -6.5069,-3.6268 -10.2403,-10.1337 -3.7335,-6.6135 -3.7335,-14.8271 0,-8.2136 3.7335,-14.7205 3.7334,-6.5068 10.2403,-10.1336 6.6135,-3.6268 14.9338,-3.6268 7.2536,0 12.9071,2.8801 5.7602,2.7734 9.0669,8.2136 l -5.6535,3.8401 q -2.7734,-4.1601 -7.0402,-6.1869 -4.2668,-2.1334 -9.2803,-2.1334 -6.0802,0 -10.987,2.7735 -4.8002,2.6667 -7.5736,7.6802 -2.6667,5.0135 -2.6667,11.4137 0,6.5069 2.6667,11.5204 2.7734,4.9068 7.5736,7.6802 4.9068,2.6667 10.987,2.6667 5.0135,0 9.2803,-2.0267 4.2668,-2.0267 7.0402,-6.1868 l 5.6535,3.8401 q -3.3067,5.4401 -9.0669,8.3202 -5.7602,2.7735 -12.9071,2.7735 z"
   id="path159"
   inkscape:connector-curvature="0" />
        <path
   d="m 2291.0579,1209.8322 h -46.9348 q 0.6401,8.747 6.7203,14.1871 6.0801,5.3335 15.3604,5.3335 5.2269,0 9.6003,-1.8133 4.3735,-1.9201 7.5736,-5.5469 l 4.2668,4.9068 q -3.7334,4.4802 -9.387,6.8269 -5.5468,2.3468 -12.267,2.3468 -8.6403,0 -15.3605,-3.6268 -6.6135,-3.7335 -10.347,-10.2403 -3.7334,-6.5069 -3.7334,-14.7205 0,-8.2136 3.5201,-14.7205 3.6268,-6.5068 9.8136,-10.1336 6.2936,-3.6268 14.0805,-3.6268 7.7869,0 13.9737,3.6268 6.1869,3.6268 9.707,10.1336 3.5201,6.4002 3.5201,14.7205 z m -27.0941,-24.3207 q -8.107,0 -13.6538,5.2268 -5.4402,5.1202 -6.1869,13.4404 h 39.788 q -0.7467,-8.3202 -6.2936,-13.4404 -5.4401,-5.2268 -13.6537,-5.2268 z"
   id="path161"
   inkscape:connector-curvature="0" />
      </g>
    </g>
    <g
   transform="translate(-426.63,2221.2)"
   id="circleeconomy">
      <circle
   cx="2539.5"
   cy="141.53"
   r="400"
   id="circle32"
   style="fill:#4f81bc;stroke:#ffffff;stroke-width:30" />
      <g
   aria-label="Economy"
   transform="translate(558.14,-1067.3)"
   style="font-size:106.66999817px;line-height:1.25;font-family:Montserrat;font-variant-ligatures:normal;font-variant-caps:normal;font-variant-numeric:normal;font-feature-settings:normal;text-align:center;letter-spacing:0px;word-spacing:0px;text-anchor:middle;fill:#ffffff"
   id="flowRoot40">
        <path
   d="m 1787.4222,1228.7128 v 6.8269 h -52.8016 v -74.669 h 51.2016 v 6.8269 h -43.308 v 26.5608 h 38.6145 v 6.7202 h -38.6145 v 27.7342 z"
   id="path197"
   inkscape:connector-curvature="0" />
        <path
   d="m 1826.9018,1236.0731 q -8.3203,0 -14.9338,-3.6268 -6.5069,-3.6268 -10.2403,-10.1337 -3.7335,-6.6135 -3.7335,-14.8271 0,-8.2136 3.7335,-14.7205 3.7334,-6.5068 10.2403,-10.1336 6.6135,-3.6268 14.9338,-3.6268 7.2536,0 12.9071,2.8801 5.7601,2.7734 9.0669,8.2136 l -5.6535,3.8401 q -2.7734,-4.1601 -7.0402,-6.1869 -4.2668,-2.1334 -9.2803,-2.1334 -6.0802,0 -10.987,2.7735 -4.8002,2.6667 -7.5736,7.6802 -2.6667,5.0135 -2.6667,11.4137 0,6.5069 2.6667,11.5204 2.7734,4.9068 7.5736,7.6802 4.9068,2.6667 10.987,2.6667 5.0135,0 9.2803,-2.0267 4.2668,-2.0267 7.0402,-6.1868 l 5.6535,3.8401 q -3.3068,5.4401 -9.0669,8.3202 -5.7602,2.7735 -12.9071,2.7735 z"
   id="path199"
   inkscape:connector-curvature="0" />
        <path
   d="m 1885.542,1236.0731 q -8.107,0 -14.6138,-3.6268 -6.5069,-3.7335 -10.2404,-10.2403 -3.7334,-6.5069 -3.7334,-14.7205 0,-8.2136 3.7334,-14.7205 3.7335,-6.5068 10.2404,-10.1336 6.5068,-3.6268 14.6138,-3.6268 8.1069,0 14.6137,3.6268 6.5069,3.6268 10.1337,10.1336 3.7334,6.5069 3.7334,14.7205 0,8.2136 -3.7334,14.7205 -3.6268,6.5068 -10.1337,10.2403 -6.5068,3.6268 -14.6137,3.6268 z m 0,-6.7203 q 5.9735,0 10.667,-2.6667 4.8001,-2.7734 7.4669,-7.7869 2.6667,-5.0135 2.6667,-11.4137 0,-6.4002 -2.6667,-11.4137 -2.6668,-5.0135 -7.4669,-7.6802 -4.6935,-2.7735 -10.667,-2.7735 -5.9736,0 -10.7737,2.7735 -4.6935,2.6667 -7.4669,7.6802 -2.6668,5.0135 -2.6668,11.4137 0,6.4002 2.6668,11.4137 2.7734,5.0135 7.4669,7.7869 4.8001,2.6667 10.7737,2.6667 z"
   id="path201"
   inkscape:connector-curvature="0" />
        <path
   d="m 1958.0726,1179.0046 q 10.5603,0 16.7472,6.1869 6.2935,6.0802 6.2935,17.8139 v 32.5343 h -7.5736 v -31.7877 q 0,-8.7469 -4.3735,-13.3337 -4.3734,-4.5868 -12.4803,-4.5868 -9.067,0 -14.4005,5.4402 -5.2268,5.3335 -5.2268,14.8271 v 29.4409 h -7.5736 v -56.1084 h 7.2536 v 10.347 q 3.0934,-5.1202 8.5336,-7.8936 5.5468,-2.8801 12.8004,-2.8801 z"
   id="path203"
   inkscape:connector-curvature="0" />
        <path
   d="m 2024.9213,1236.0731 q -8.1069,0 -14.6138,-3.6268 -6.5068,-3.7335 -10.2403,-10.2403 -3.7334,-6.5069 -3.7334,-14.7205 0,-8.2136 3.7334,-14.7205 3.7335,-6.5068 10.2403,-10.1336 6.5069,-3.6268 14.6138,-3.6268 8.1069,0 14.6138,3.6268 6.5069,3.6268 10.1337,10.1336 3.7334,6.5069 3.7334,14.7205 0,8.2136 -3.7334,14.7205 -3.6268,6.5068 -10.1337,10.2403 -6.5069,3.6268 -14.6138,3.6268 z m 0,-6.7203 q 5.9735,0 10.667,-2.6667 4.8002,-2.7734 7.4669,-7.7869 2.6668,-5.0135 2.6668,-11.4137 0,-6.4002 -2.6668,-11.4137 -2.6667,-5.0135 -7.4669,-7.6802 -4.6935,-2.7735 -10.667,-2.7735 -5.9735,0 -10.7737,2.7735 -4.6934,2.6667 -7.4669,7.6802 -2.6667,5.0135 -2.6667,11.4137 0,6.4002 2.6667,11.4137 2.7735,5.0135 7.4669,7.7869 4.8002,2.6667 10.7737,2.6667 z"
   id="path205"
   inkscape:connector-curvature="0" />
        <path
   d="m 2138.8399,1179.0046 q 10.5603,0 16.5338,6.0802 6.0802,6.0802 6.0802,17.9206 v 32.5343 h -7.5736 v -31.7877 q 0,-8.7469 -4.2668,-13.3337 -4.1601,-4.5868 -11.8403,-4.5868 -8.747,0 -13.7605,5.4402 -5.0135,5.3335 -5.0135,14.8271 v 29.4409 h -7.5735 v -31.7877 q 0,-8.7469 -4.2668,-13.3337 -4.1602,-4.5868 -11.9471,-4.5868 -8.6402,0 -13.7604,5.4402 -5.0135,5.3335 -5.0135,14.8271 v 29.4409 h -7.5736 v -56.1084 h 7.2536 v 10.2403 q 2.9868,-5.1202 8.3203,-7.8936 5.3335,-2.7734 12.267,-2.7734 7.0402,0 12.1604,2.9868 5.2268,2.9867 7.7869,8.8536 3.0934,-5.5469 8.8536,-8.6403 5.8669,-3.2001 13.3338,-3.2001 z"
   id="path207"
   inkscape:connector-curvature="0" />
        <path
   d="m 2228.0993,1179.4313 -28.0542,62.8286 q -3.4134,7.8936 -7.8936,11.2004 -4.4801,3.3067 -10.7736,3.3067 -4.0535,0 -7.5736,-1.28 -3.5201,-1.28 -6.0802,-3.8401 l 3.5201,-5.6535 q 4.2668,4.2668 10.2403,4.2668 3.8402,0 6.5069,-2.1334 2.7734,-2.1334 5.1202,-7.2536 l 2.4534,-5.4402 -25.0675,-56.0017 h 7.8936 l 21.1207,47.6815 21.1206,-47.6815 z"
   id="path209"
   inkscape:connector-curvature="0" />
      </g>
    </g>
    <g
   transform="translate(-426.63,2221.2)"
   id="circleenvironment">
      <circle
   cx="1166.9"
   cy="141.53"
   r="400"
   id="circle44"
   style="fill:#3ca891;stroke:#ffffff;stroke-width:30" />
      <g
   aria-label="Environment"
   transform="translate(-812.97,-1054.7)"
   style="font-size:106.66999817px;line-height:1.25;font-family:Montserrat;font-variant-ligatures:normal;font-variant-caps:normal;font-variant-numeric:normal;font-feature-settings:normal;text-align:center;letter-spacing:0px;word-spacing:0px;text-anchor:middle;fill:#ffffff"
   id="flowRoot52">
        <path
   d="m 1688.7733,1228.7128 v 6.8269 h -52.8016 v -74.669 h 51.2016 v 6.8269 h -43.3081 v 26.5608 h 38.6146 v 6.7202 h -38.6146 v 27.7342 z"
   id="path212"
   inkscape:connector-curvature="0" />
        <path
   d="m 1734.4197,1179.0046 q 10.5604,0 16.7472,6.1869 6.2936,6.0802 6.2936,17.8139 v 32.5343 h -7.5736 v -31.7877 q 0,-8.7469 -4.3735,-13.3337 -4.3735,-4.5868 -12.4804,-4.5868 -9.0669,0 -14.4004,5.4402 -5.2269,5.3335 -5.2269,14.8271 v 29.4409 h -7.5735 v -56.1084 h 7.2535 v 10.347 q 3.0935,-5.1202 8.5336,-7.8936 5.5469,-2.8801 12.8004,-2.8801 z"
   id="path214"
   inkscape:connector-curvature="0" />
        <path
   d="m 1824.2326,1179.4313 -24.9608,56.1084 h -7.7869 l -24.8541,-56.1084 h 7.8935 l 21.014,47.7881 21.2274,-47.7881 z"
   id="path216"
   inkscape:connector-curvature="0" />
        <path
   d="m 1835.0029,1179.4313 h 7.5736 v 56.1084 h -7.5736 z m 3.8401,-12.2671 q -2.3467,0 -3.9468,-1.6 -1.6,-1.6001 -1.6,-3.8401 0,-2.1334 1.6,-3.7335 1.6001,-1.6 3.9468,-1.6 2.3467,0 3.9468,1.6 1.6,1.4934 1.6,3.6268 0,2.3467 -1.6,3.9468 -1.6001,1.6 -3.9468,1.6 z"
   id="path218"
   inkscape:connector-curvature="0" />
        <path
   d="m 1871.0073,1190.4183 q 2.6668,-5.6535 7.8936,-8.5336 5.3335,-2.8801 13.1204,-2.8801 v 7.3602 l -1.8134,-0.1066 q -8.8536,0 -13.8671,5.4401 -5.0134,5.4402 -5.0134,15.2538 v 28.5876 h -7.5736 v -56.1084 h 7.2535 z"
   id="path220"
   inkscape:connector-curvature="0" />
        <path
   d="m 1927.9391,1236.0731 q -8.1069,0 -14.6138,-3.6268 -6.5068,-3.7335 -10.2403,-10.2403 -3.7334,-6.5069 -3.7334,-14.7205 0,-8.2136 3.7334,-14.7205 3.7335,-6.5068 10.2403,-10.1336 6.5069,-3.6268 14.6138,-3.6268 8.1069,0 14.6138,3.6268 6.5069,3.6268 10.1337,10.1336 3.7334,6.5069 3.7334,14.7205 0,8.2136 -3.7334,14.7205 -3.6268,6.5068 -10.1337,10.2403 -6.5069,3.6268 -14.6138,3.6268 z m 0,-6.7203 q 5.9735,0 10.667,-2.6667 4.8002,-2.7734 7.4669,-7.7869 2.6668,-5.0135 2.6668,-11.4137 0,-6.4002 -2.6668,-11.4137 -2.6667,-5.0135 -7.4669,-7.6802 -4.6935,-2.7735 -10.667,-2.7735 -5.9735,0 -10.7737,2.7735 -4.6934,2.6667 -7.4669,7.6802 -2.6667,5.0135 -2.6667,11.4137 0,6.4002 2.6667,11.4137 2.7735,5.0135 7.4669,7.7869 4.8002,2.6667 10.7737,2.6667 z"
   id="path222"
   inkscape:connector-curvature="0" />
        <path
   d="m 2000.4697,1179.0046 q 10.5604,0 16.7472,6.1869 6.2936,6.0802 6.2936,17.8139 v 32.5343 h -7.5736 v -31.7877 q 0,-8.7469 -4.3735,-13.3337 -4.3735,-4.5868 -12.4804,-4.5868 -9.0669,0 -14.4004,5.4402 -5.2269,5.3335 -5.2269,14.8271 v 29.4409 h -7.5735 v -56.1084 h 7.2535 v 10.347 q 3.0935,-5.1202 8.5336,-7.8936 5.5469,-2.8801 12.8004,-2.8801 z"
   id="path224"
   inkscape:connector-curvature="0" />
        <path
   d="m 2114.1516,1179.0046 q 10.5603,0 16.5339,6.0802 6.0801,6.0802 6.0801,17.9206 v 32.5343 h -7.5735 v -31.7877 q 0,-8.7469 -4.2668,-13.3337 -4.1602,-4.5868 -11.8404,-4.5868 -8.7469,0 -13.7604,5.4402 -5.0135,5.3335 -5.0135,14.8271 v 29.4409 h -7.5736 v -31.7877 q 0,-8.7469 -4.2668,-13.3337 -4.1601,-4.5868 -11.947,-4.5868 -8.6403,0 -13.7605,5.4402 -5.0134,5.3335 -5.0134,14.8271 v 29.4409 h -7.5736 v -56.1084 h 7.2535 v 10.2403 q 2.9868,-5.1202 8.3203,-7.8936 5.3335,-2.7734 12.2671,-2.7734 7.0402,0 12.1603,2.9868 5.2269,2.9867 7.7869,8.8536 3.0935,-5.5469 8.8537,-8.6403 5.8668,-3.2001 13.3337,-3.2001 z"
   id="path226"
   inkscape:connector-curvature="0" />
        <path
   d="m 2206.3678,1209.8322 h -46.9348 q 0.6401,8.747 6.7202,14.1871 6.0802,5.3335 15.3605,5.3335 5.2269,0 9.6003,-1.8133 4.3735,-1.9201 7.5736,-5.5469 l 4.2668,4.9068 q -3.7335,4.4802 -9.387,6.8269 -5.5468,2.3468 -12.267,2.3468 -8.6403,0 -15.3605,-3.6268 -6.6135,-3.7335 -10.347,-10.2403 -3.7334,-6.5069 -3.7334,-14.7205 0,-8.2136 3.5201,-14.7205 3.6268,-6.5068 9.8136,-10.1336 6.2935,-3.6268 14.0805,-3.6268 7.7869,0 13.9737,3.6268 6.1869,3.6268 9.707,10.1336 3.5201,6.4002 3.5201,14.7205 z m -27.0941,-24.3207 q -8.107,0 -13.6538,5.2268 -5.4402,5.1202 -6.1869,13.4404 h 39.7879 q -0.7466,-8.3202 -6.2935,-13.4404 -5.4402,-5.2268 -13.6537,-5.2268 z"
   id="path228"
   inkscape:connector-curvature="0" />
        <path
   d="m 2250.4775,1179.0046 q 10.5604,0 16.7472,6.1869 6.2936,6.0802 6.2936,17.8139 v 32.5343 h -7.5736 v -31.7877 q 0,-8.7469 -4.3735,-13.3337 -4.3734,-4.5868 -12.4804,-4.5868 -9.0669,0 -14.4004,5.4402 -5.2268,5.3335 -5.2268,14.8271 v 29.4409 h -7.5736 v -56.1084 h 7.2535 v 10.347 q 3.0935,-5.1202 8.5336,-7.8936 5.5469,-2.8801 12.8004,-2.8801 z"
   id="path230"
   inkscape:connector-curvature="0" />
        <path
   d="m 2323.7315,1232.1263 q -2.1334,1.92 -5.3335,2.9867 -3.0935,0.9601 -6.5069,0.9601 -7.8936,0 -12.1604,-4.2668 -4.2668,-4.2668 -4.2668,-12.0538 v -33.921 h -10.027 v -6.4002 h 10.027 v -12.2671 h 7.5736 v 12.2671 h 17.0672 v 6.4002 h -17.0672 v 33.4944 q 0,5.0135 2.4534,7.6802 2.5601,2.5601 7.2536,2.5601 2.3467,0 4.4801,-0.7467 2.2401,-0.7467 3.8401,-2.1334 z"
   id="path232"
   inkscape:connector-curvature="0" />
      </g>
    </g>
    <g
   transform="translate(-426.63,2221.2)"
   id="circlescience">
      <circle
   cx="841.63"
   cy="-1032.1"
   r="400"
   id="circle56"
   style="fill:#223242;stroke:#ffffff;stroke-width:30" />
      <g
   aria-label="Science"
   transform="translate(-1133.8,-2228.4)"
   style="font-size:106.66999817px;line-height:1.25;font-family:Montserrat;font-variant-ligatures:normal;font-variant-caps:normal;font-variant-numeric:normal;font-feature-settings:normal;text-align:center;letter-spacing:0px;word-spacing:0px;text-anchor:middle;fill:#ffffff"
   id="flowRoot64">
        <path
   d="m 1800.8343,1236.1797 q -8.3202,0 -16.0005,-2.6667 -7.5736,-2.6668 -11.7337,-7.0402 l 3.0934,-6.0802 q 4.0535,4.0534 10.7737,6.6135 6.7202,2.4534 13.8671,2.4534 10.027,0 15.0405,-3.6268 5.0135,-3.7334 5.0135,-9.6003 0,-4.4801 -2.7734,-7.1469 -2.6668,-2.6667 -6.6136,-4.0534 -3.9468,-1.4934 -10.987,-3.2001 -8.4269,-2.1334 -13.4404,-4.0535 -5.0135,-2.0267 -8.6403,-6.0802 -3.5201,-4.0534 -3.5201,-10.987 0,-5.6535 2.9868,-10.2403 2.9867,-4.6935 9.1736,-7.4669 6.1868,-2.7734 15.3605,-2.7734 6.4002,0 12.4804,1.8134 6.1868,1.7067 10.667,4.8001 l -2.6668,6.2936 q -4.6935,-3.0935 -10.027,-4.5869 -5.3335,-1.6 -10.4536,-1.6 -9.8137,0 -14.8272,3.8401 -4.9068,3.7335 -4.9068,9.707 0,4.4801 2.6668,7.2535 2.7734,2.6668 6.8268,4.1602 4.1602,1.3867 11.0937,3.0934 8.2136,2.0267 13.2271,4.0535 5.1202,1.92 8.6403,5.9735 3.5201,3.9468 3.5201,10.7737 0,5.6535 -3.0934,10.3469 -2.9868,4.5869 -9.2803,7.3603 -6.2936,2.6667 -15.4672,2.6667 z"
   id="path128"
   inkscape:connector-curvature="0" />
        <path
   d="m 1867.5281,1236.0731 q -8.3203,0 -14.9338,-3.6268 -6.5069,-3.6268 -10.2404,-10.1337 -3.7334,-6.6135 -3.7334,-14.8271 0,-8.2136 3.7334,-14.7205 3.7335,-6.5068 10.2404,-10.1336 6.6135,-3.6268 14.9338,-3.6268 7.2535,0 12.907,2.8801 5.7602,2.7734 9.067,8.2136 l -5.6535,3.8401 q -2.7734,-4.1601 -7.0402,-6.1869 -4.2668,-2.1334 -9.2803,-2.1334 -6.0802,0 -10.987,2.7735 -4.8002,2.6667 -7.5736,7.6802 -2.6668,5.0135 -2.6668,11.4137 0,6.5069 2.6668,11.5204 2.7734,4.9068 7.5736,7.6802 4.9068,2.6667 10.987,2.6667 5.0135,0 9.2803,-2.0267 4.2668,-2.0267 7.0402,-6.1868 l 5.6535,3.8401 q -3.3068,5.4401 -9.067,8.3202 -5.7601,2.7735 -12.907,2.7735 z"
   id="path130"
   inkscape:connector-curvature="0" />
        <path
   d="m 1904.2759,1179.4313 h 7.5735 v 56.1084 h -7.5735 z m 3.8401,-12.2671 q -2.3467,0 -3.9468,-1.6 -1.6,-1.6001 -1.6,-3.8401 0,-2.1334 1.6,-3.7335 1.6001,-1.6 3.9468,-1.6 2.3467,0 3.9468,1.6 1.6,1.4934 1.6,3.6268 0,2.3467 -1.6,3.9468 -1.6001,1.6 -3.9468,1.6 z"
   id="path132"
   inkscape:connector-curvature="0" />
        <path
   d="m 1981.8816,1209.8322 h -46.9348 q 0.6401,8.747 6.7202,14.1871 6.0802,5.3335 15.3605,5.3335 5.2269,0 9.6003,-1.8133 4.3735,-1.9201 7.5736,-5.5469 l 4.2668,4.9068 q -3.7335,4.4802 -9.387,6.8269 -5.5468,2.3468 -12.267,2.3468 -8.6403,0 -15.3605,-3.6268 -6.6135,-3.7335 -10.347,-10.2403 -3.7334,-6.5069 -3.7334,-14.7205 0,-8.2136 3.5201,-14.7205 3.6268,-6.5068 9.8136,-10.1336 6.2935,-3.6268 14.0805,-3.6268 7.7869,0 13.9737,3.6268 6.1869,3.6268 9.707,10.1336 3.5201,6.4002 3.5201,14.7205 z m -27.0941,-24.3207 q -8.107,0 -13.6538,5.2268 -5.4402,5.1202 -6.1869,13.4404 h 39.7879 q -0.7466,-8.3202 -6.2935,-13.4404 -5.4402,-5.2268 -13.6537,-5.2268 z"
   id="path134"
   inkscape:connector-curvature="0" />
        <path
   d="m 2025.9913,1179.0046 q 10.5604,0 16.7472,6.1869 6.2936,6.0802 6.2936,17.8139 v 32.5343 h -7.5736 v -31.7877 q 0,-8.7469 -4.3735,-13.3337 -4.3734,-4.5868 -12.4804,-4.5868 -9.0669,0 -14.4004,5.4402 -5.2268,5.3335 -5.2268,14.8271 v 29.4409 h -7.5736 v -56.1084 h 7.2536 v 10.347 q 3.0934,-5.1202 8.5336,-7.8936 5.5468,-2.8801 12.8003,-2.8801 z"
   id="path136"
   inkscape:connector-curvature="0" />
        <path
   d="m 2093.1601,1236.0731 q -8.3203,0 -14.9338,-3.6268 -6.5069,-3.6268 -10.2403,-10.1337 -3.7335,-6.6135 -3.7335,-14.8271 0,-8.2136 3.7335,-14.7205 3.7334,-6.5068 10.2403,-10.1336 6.6135,-3.6268 14.9338,-3.6268 7.2536,0 12.9071,2.8801 5.7602,2.7734 9.0669,8.2136 l -5.6535,3.8401 q -2.7734,-4.1601 -7.0402,-6.1869 -4.2668,-2.1334 -9.2803,-2.1334 -6.0802,0 -10.987,2.7735 -4.8002,2.6667 -7.5736,7.6802 -2.6667,5.0135 -2.6667,11.4137 0,6.5069 2.6667,11.5204 2.7734,4.9068 7.5736,7.6802 4.9068,2.6667 10.987,2.6667 5.0135,0 9.2803,-2.0267 4.2668,-2.0267 7.0402,-6.1868 l 5.6535,3.8401 q -3.3067,5.4401 -9.0669,8.3202 -5.7602,2.7735 -12.9071,2.7735 z"
   id="path138"
   inkscape:connector-curvature="0" />
        <path
   d="m 2177.7211,1209.8322 h -46.9348 q 0.64,8.747 6.7202,14.1871 6.0802,5.3335 15.3605,5.3335 5.2268,0 9.6003,-1.8133 4.3734,-1.9201 7.5735,-5.5469 l 4.2668,4.9068 q -3.7334,4.4802 -9.3869,6.8269 -5.5469,2.3468 -12.2671,2.3468 -8.6402,0 -15.3604,-3.6268 -6.6136,-3.7335 -10.347,-10.2403 -3.7335,-6.5069 -3.7335,-14.7205 0,-8.2136 3.5201,-14.7205 3.6268,-6.5068 9.8137,-10.1336 6.2935,-3.6268 14.0804,-3.6268 7.7869,0 13.9738,3.6268 6.1868,3.6268 9.7069,10.1336 3.5202,6.4002 3.5202,14.7205 z m -27.0942,-24.3207 q -8.1069,0 -13.6538,5.2268 -5.4401,5.1202 -6.1868,13.4404 h 39.7879 q -0.7467,-8.3202 -6.2935,-13.4404 -5.4402,-5.2268 -13.6538,-5.2268 z"
   id="path140"
   inkscape:connector-curvature="0" />
      </g>
    </g>
    <g
   transform="translate(-426.63,2221.2)"
   id="circlesociety">
      <circle
   cx="1853.2"
   cy="-1772.6"
   r="400"
   id="circle68"
   style="fill:#ff8a00;stroke:#ffffff;stroke-width:30" />
      <g
   aria-label="Society"
   transform="translate(-124.6,-2979.2)"
   style="font-size:106.66999817px;line-height:1.25;font-family:Montserrat;font-variant-ligatures:normal;font-variant-caps:normal;font-variant-numeric:normal;font-feature-settings:normal;text-align:center;letter-spacing:0px;word-spacing:0px;text-anchor:middle;fill:#ffffff"
   id="flowRoot76">
        <path
   d="m 1815.2098,1236.1797 q -8.3203,0 -16.0005,-2.6667 -7.5736,-2.6668 -11.7337,-7.0402 l 3.0934,-6.0802 q 4.0535,4.0534 10.7737,6.6135 6.7202,2.4534 13.8671,2.4534 10.0269,0 15.0404,-3.6268 5.0135,-3.7334 5.0135,-9.6003 0,-4.4801 -2.7734,-7.1469 -2.6667,-2.6667 -6.6135,-4.0534 -3.9468,-1.4934 -10.987,-3.2001 -8.427,-2.1334 -13.4405,-4.0535 -5.0135,-2.0267 -8.6402,-6.0802 -3.5201,-4.0534 -3.5201,-10.987 0,-5.6535 2.9867,-10.2403 2.9868,-4.6935 9.1736,-7.4669 6.1869,-2.7734 15.3605,-2.7734 6.4002,0 12.4804,1.8134 6.1869,1.7067 10.667,4.8001 l -2.6667,6.2936 q -4.6935,-3.0935 -10.027,-4.5869 -5.3335,-1.6 -10.4537,-1.6 -9.8136,0 -14.8271,3.8401 -4.9068,3.7335 -4.9068,9.707 0,4.4801 2.6667,7.2535 2.7734,2.6668 6.8269,4.1602 4.1601,1.3867 11.0937,3.0934 8.2136,2.0267 13.2271,4.0535 5.1201,1.92 8.6402,5.9735 3.5201,3.9468 3.5201,10.7737 0,5.6535 -3.0934,10.3469 -2.9868,4.5869 -9.2803,7.3603 -6.2935,2.6667 -15.4671,2.6667 z"
   id="path113"
   inkscape:connector-curvature="0" />
        <path
   d="m 1881.5835,1236.0731 q -8.1069,0 -14.6138,-3.6268 -6.5069,-3.7335 -10.2403,-10.2403 -3.7335,-6.5069 -3.7335,-14.7205 0,-8.2136 3.7335,-14.7205 3.7334,-6.5068 10.2403,-10.1336 6.5069,-3.6268 14.6138,-3.6268 8.1069,0 14.6138,3.6268 6.5069,3.6268 10.1336,10.1336 3.7335,6.5069 3.7335,14.7205 0,8.2136 -3.7335,14.7205 -3.6267,6.5068 -10.1336,10.2403 -6.5069,3.6268 -14.6138,3.6268 z m 0,-6.7203 q 5.9735,0 10.667,-2.6667 4.8002,-2.7734 7.4669,-7.7869 2.6668,-5.0135 2.6668,-11.4137 0,-6.4002 -2.6668,-11.4137 -2.6667,-5.0135 -7.4669,-7.6802 -4.6935,-2.7735 -10.667,-2.7735 -5.9735,0 -10.7737,2.7735 -4.6934,2.6667 -7.4669,7.6802 -2.6667,5.0135 -2.6667,11.4137 0,6.4002 2.6667,11.4137 2.7735,5.0135 7.4669,7.7869 4.8002,2.6667 10.7737,2.6667 z"
   id="path115"
   inkscape:connector-curvature="0" />
        <path
   d="m 1948.7806,1236.0731 q -8.3202,0 -14.9338,-3.6268 -6.5069,-3.6268 -10.2403,-10.1337 -3.7335,-6.6135 -3.7335,-14.8271 0,-8.2136 3.7335,-14.7205 3.7334,-6.5068 10.2403,-10.1336 6.6136,-3.6268 14.9338,-3.6268 7.2536,0 12.9071,2.8801 5.7602,2.7734 9.0669,8.2136 l -5.6535,3.8401 q -2.7734,-4.1601 -7.0402,-6.1869 -4.2668,-2.1334 -9.2803,-2.1334 -6.0802,0 -10.987,2.7735 -4.8001,2.6667 -7.5736,7.6802 -2.6667,5.0135 -2.6667,11.4137 0,6.5069 2.6667,11.5204 2.7735,4.9068 7.5736,7.6802 4.9068,2.6667 10.987,2.6667 5.0135,0 9.2803,-2.0267 4.2668,-2.0267 7.0402,-6.1868 l 5.6535,3.8401 q -3.3067,5.4401 -9.0669,8.3202 -5.7602,2.7735 -12.9071,2.7735 z"
   id="path117"
   inkscape:connector-curvature="0" />
        <path
   d="m 1985.5284,1179.4313 h 7.5736 v 56.1084 h -7.5736 z m 3.8401,-12.2671 q -2.3467,0 -3.9468,-1.6 -1.6,-1.6001 -1.6,-3.8401 0,-2.1334 1.6,-3.7335 1.6001,-1.6 3.9468,-1.6 2.3468,0 3.9468,1.6 1.6001,1.4934 1.6001,3.6268 0,2.3467 -1.6001,3.9468 -1.6,1.6 -3.9468,1.6 z"
   id="path119"
   inkscape:connector-curvature="0" />
        <path
   d="m 2063.1342,1209.8322 h -46.9348 q 0.64,8.747 6.7202,14.1871 6.0802,5.3335 15.3605,5.3335 5.2268,0 9.6003,-1.8133 4.3734,-1.9201 7.5735,-5.5469 l 4.2668,4.9068 q -3.7334,4.4802 -9.3869,6.8269 -5.5469,2.3468 -12.2671,2.3468 -8.6402,0 -15.3605,-3.6268 -6.6135,-3.7335 -10.3469,-10.2403 -3.7335,-6.5069 -3.7335,-14.7205 0,-8.2136 3.5201,-14.7205 3.6268,-6.5068 9.8137,-10.1336 6.2935,-3.6268 14.0804,-3.6268 7.7869,0 13.9738,3.6268 6.1868,3.6268 9.7069,10.1336 3.5201,6.4002 3.5201,14.7205 z m -27.0942,-24.3207 q -8.1069,0 -13.6538,5.2268 -5.4401,5.1202 -6.1868,13.4404 h 39.7879 q -0.7467,-8.3202 -6.2935,-13.4404 -5.4402,-5.2268 -13.6538,-5.2268 z"
   id="path121"
   inkscape:connector-curvature="0" />
        <path
   d="m 2108.2039,1232.1263 q -2.1334,1.92 -5.3335,2.9867 -3.0934,0.9601 -6.5068,0.9601 -7.8936,0 -12.1604,-4.2668 -4.2668,-4.2668 -4.2668,-12.0538 v -33.921 h -10.027 v -6.4002 h 10.027 v -12.2671 h 7.5736 v 12.2671 h 17.0672 v 6.4002 H 2087.51 v 33.4944 q 0,5.0135 2.4534,7.6802 2.56,2.5601 7.2535,2.5601 2.3468,0 4.4802,-0.7467 2.24,-0.7467 3.8401,-2.1334 z"
   id="path123"
   inkscape:connector-curvature="0" />
        <path
   d="m 2168.0975,1179.4313 -28.0543,62.8286 q -3.4134,7.8936 -7.8935,11.2004 -4.4802,3.3067 -10.7737,3.3067 -4.0535,0 -7.5736,-1.28 -3.5201,-1.28 -6.0802,-3.8401 l 3.5201,-5.6535 q 4.2668,4.2668 10.2404,4.2668 3.8401,0 6.5068,-2.1334 2.7735,-2.1334 5.1202,-7.2536 l 2.4534,-5.4402 -25.0674,-56.0017 h 7.8935 l 21.1207,47.6815 21.1207,-47.6815 z"
   id="path125"
   inkscape:connector-curvature="0" />
      </g>
    </g>
  <rect
   id="rect116"
   width="3023.6221"
   height="3023.6221"
   x="-85.245003"
   y="14.781076"
   style="fill:none;stroke:none;stroke-width:1.20257854" /></g>
  <g
   transform="translate(-426.63,2221.2)"
   id="g86">
    <text
   x="5180.644"
   y="1551.3982"
   font-size="13.2px"
   style="font-size:13.19999981px;line-height:125%;font-family:Arial;fill:#000000"
   id="text84">       <tspan
   x="5180.644"
   y="1563.2882"
   id="tspan82" />    </text>


  </g>

<script
   href="https://cdnjs.cloudflare.com/ajax/libs/gsap/3.8.0/gsap.min.js"
   id="script105" />
<script
   href="https://cdnjs.cloudflare.com/ajax/libs/gsap/3.8.0/MotionPathPlugin.min.js"
   id="script107" />

<script
   id="script109">
  // <![CDATA[
	var tl = gsap.timeline({
		repeat: -1, 
		yoyo: false
	});

	var tl2 = gsap.timeline({
		repeat: -1, 
		yoyo: true
	});

  tl.to("#everything", {duration: 60, rotation:360, ease: "none" , transformOrigin:'center'}, "circles");
  tl.to("#circlegovernance", {duration: 60, rotation:-360, ease: "none" , transformOrigin:'center'}, "circles");
  tl.to("#circlesociety", {duration: 60, rotation:-360, ease: "none" , transformOrigin:'center'}, "circles");
  tl.to("#circlescience", {duration: 60, rotation:-360, ease: "none" , transformOrigin:'center'}, "circles");
  tl.to("#circleeconomy", {duration: 60, rotation:-360, ease: "none" , transformOrigin:'center'}, "circles");
  tl.to("#circleenvironment", {duration: 60, rotation:-360, ease: "none" , transformOrigin:'center'}, "circles");
  tl.to("#circleimpact", {duration: 60, rotation:-360, ease: "none" , transformOrigin:'center'}, "circles");

  
  // ]]>
  </script>

</svg>