<?xml version="1.0" standalone="no"?>
<!DOCTYPE svg PUBLIC "-//W3C//DTD SVG 20010904//EN"
 "http://www.w3.org/TR/2001/REC-SVG-20010904/DTD/svg10.dtd">
<svg version="1.0" xmlns="http://www.w3.org/2000/svg"
 width="1280.000000pt" height="1280.000000pt" viewBox="0 0 1280.000000 1280.000000"
 preserveAspectRatio="xMidYMid meet">
<metadata>
Created by potrace 1.14, written by Peter Selinger 2001-2017
</metadata>
<g transform="translate(0.000000,1280.000000) scale(0.100000,-0.100000)"
fill="#000000" stroke="none">
<path d="M10639 10986 c-2 -2 -26 -7 -54 -10 -77 -10 -102 -15 -129 -26 -15
-5 -26 -8 -26 -5 0 8 -137 -47 -227 -92 -340 -170 -587 -513 -650 -903 -10
-58 -10 -291 -1 -350 18 -112 34 -175 68 -265 18 -50 114 -235 121 -235 4 0
10 -8 13 -18 4 -10 19 -33 34 -51 15 -17 50 -57 77 -89 28 -32 70 -74 94 -93
23 -19 49 -39 56 -46 55 -52 304 -183 371 -196 10 -2 26 -7 34 -10 22 -8 109
-28 150 -35 53 -8 339 -7 390 1 310 54 591 224 771 467 27 36 53 70 58 76 13
16 92 173 89 177 -2 2 2 10 8 18 14 17 62 167 70 218 3 20 8 39 9 42 4 6 18
170 18 209 0 115 -25 270 -60 375 -10 28 -18 52 -18 55 -14 56 -121 248 -173
311 -40 49 -109 124 -136 148 -15 14 -39 36 -53 49 -46 42 -176 125 -257 163
-169 78 -300 109 -497 115 -80 2 -147 3 -150 0z m278 -404 c11 -6 23 -9 25 -7
7 8 122 -31 179 -60 131 -65 251 -170 328 -284 31 -47 72 -121 76 -141 1 -3 7
-17 13 -31 9 -24 25 -75 39 -134 3 -11 6 -72 8 -135 4 -125 -13 -229 -54 -330
-24 -59 -90 -173 -103 -178 -4 -2 -8 -8 -8 -14 0 -14 -105 -119 -165 -164 -86
-65 -251 -139 -330 -147 -17 -2 -35 -6 -40 -9 -12 -7 -240 -2 -275 5 -88 20
-144 39 -216 74 -40 20 -82 44 -93 54 -11 11 -24 19 -29 19 -27 0 -242 243
-242 274 0 3 -13 35 -30 71 -16 36 -30 74 -30 85 0 11 -4 20 -8 20 -4 0 -9 16
-10 36 -2 20 -6 44 -11 53 -18 36 -5 261 21 351 35 127 134 295 217 368 14 13
40 36 56 51 70 63 241 148 336 167 19 4 50 10 69 13 53 11 254 5 277 -7z"/>
<path d="M6597 9564 c-1 -1 -24 -4 -52 -8 -27 -3 -60 -8 -72 -11 -13 -3 -33
-7 -45 -10 -104 -23 -269 -102 -371 -179 -128 -96 -243 -235 -307 -371 -13
-27 -24 -52 -25 -55 -1 -3 -5 -12 -8 -20 -12 -29 -37 -107 -41 -131 -3 -13 -5
-24 -6 -24 -7 0 -24 -159 -23 -215 2 -109 6 -161 14 -166 5 -3 7 -9 4 -14 -5
-7 -1 -31 19 -110 16 -62 98 -244 117 -260 3 -3 12 -15 18 -28 12 -22 19 -31
64 -85 34 -40 84 -92 113 -117 59 -50 112 -90 122 -90 6 0 12 -3 14 -8 6 -14
142 -80 218 -105 228 -77 508 -67 725 26 93 40 115 51 115 60 0 4 5 7 11 7 31
0 216 155 280 237 93 117 187 315 205 430 3 21 9 54 13 73 9 41 7 245 -3 310
-4 25 -13 68 -22 95 -8 28 -14 50 -14 50 6 0 -35 96 -72 170 -60 121 -193 277
-298 348 -25 17 -46 34 -48 39 -2 4 -8 8 -12 8 -5 0 -31 12 -57 28 -56 32
-195 88 -238 95 -11 2 -31 7 -45 10 -52 13 -98 18 -193 20 -54 2 -99 2 -100 1z
m181 -399 c63 -8 180 -53 242 -93 147 -94 263 -267 288 -432 58 -387 -232
-737 -615 -742 -194 -3 -343 60 -480 200 -24 24 -43 48 -43 53 0 5 -4 9 -8 9
-12 0 -89 156 -101 205 -27 109 -29 199 -6 306 15 74 72 201 106 238 10 11 19
23 19 26 0 4 25 30 55 59 147 139 334 199 543 171z"/>
<path d="M2769 7956 c-2 -2 -27 -6 -54 -10 -75 -8 -264 -77 -273 -98 -2 -5 -8
-8 -14 -8 -36 0 -211 -156 -268 -240 -13 -19 -29 -38 -35 -42 -5 -4 -6 -8 -2
-8 5 0 0 -12 -10 -27 -26 -38 -55 -101 -62 -135 -1 -4 -8 -23 -17 -43 -8 -19
-12 -35 -9 -35 2 0 0 -12 -5 -26 -9 -24 -22 -134 -23 -194 0 -32 12 -146 18
-162 2 -7 7 -24 9 -38 7 -36 44 -137 68 -184 55 -108 162 -233 264 -308 50
-38 212 -117 234 -115 3 0 14 -5 25 -11 19 -10 78 -21 136 -27 14 -1 30 -4 35
-6 12 -7 137 -3 194 5 171 25 352 113 470 228 64 62 130 141 130 155 0 6 3 13
8 15 7 3 59 107 81 160 24 63 55 220 53 273 -2 57 -12 165 -16 185 -3 14 -9
39 -12 55 -4 17 -11 41 -17 55 -6 14 -11 28 -12 33 -2 4 -3 8 -5 10 -1 1 -3 9
-5 17 -4 24 -94 171 -132 218 -115 141 -306 253 -506 298 -26 6 -243 14 -248
10z m206 -400 c61 -15 157 -71 210 -124 52 -51 104 -126 109 -154 1 -7 5 -18
8 -24 12 -18 20 -67 24 -140 6 -129 -42 -250 -137 -345 -33 -33 -63 -59 -68
-59 -5 0 -17 -7 -25 -16 -9 -8 -25 -16 -36 -17 -11 -1 -20 -4 -20 -7 0 -14
-102 -35 -174 -36 -74 -1 -170 18 -207 42 -8 5 -16 9 -19 9 -19 0 -115 83
-149 127 -74 98 -94 160 -94 293 -1 101 15 159 65 240 59 94 188 192 268 203
14 2 26 7 28 11 3 9 175 6 217 -3z"/>
<path d="M10598 7524 c-4 -3 -20 -8 -35 -9 -52 -5 -118 -16 -158 -27 -46 -12
-83 -20 -105 -22 -8 0 -17 -4 -20 -8 -3 -3 -19 -8 -37 -11 -17 -3 -38 -9 -45
-13 -7 -5 -17 -9 -23 -10 -15 -2 -199 -78 -205 -84 -3 -3 -43 -25 -90 -49
-107 -55 -280 -169 -390 -258 -131 -105 -332 -309 -450 -457 -8 -10 -20 -23
-25 -30 -28 -31 -160 -214 -226 -311 -41 -60 -77 -111 -81 -113 -5 -2 -8 -8
-8 -13 0 -7 -53 -95 -131 -217 -15 -24 -29 -48 -31 -54 -2 -5 -30 3 -63 18
-33 15 -62 28 -65 29 -6 2 -67 30 -183 84 -210 97 -544 235 -594 245 -10 1
-25 6 -33 9 -40 16 -145 47 -160 47 -9 0 -20 3 -24 7 -3 4 -12 8 -19 9 -55 10
-82 16 -89 20 -5 3 -19 7 -31 9 -12 2 -33 6 -47 9 -56 11 -157 28 -195 32 -22
2 -62 7 -90 10 -66 7 -305 6 -358 -1 -132 -19 -238 -38 -283 -51 -28 -8 -60
-17 -70 -19 -19 -4 -97 -31 -124 -42 -8 -3 -17 -7 -20 -8 -111 -38 -320 -152
-450 -246 -147 -105 -226 -174 -405 -354 -157 -159 -257 -268 -351 -384 -10
-13 -24 -28 -29 -35 -19 -21 -140 -171 -170 -210 -17 -22 -56 -73 -88 -115
-33 -42 -111 -146 -174 -231 -64 -85 -120 -159 -125 -165 -10 -10 -12 -8 -73
69 -16 21 -38 48 -49 60 -10 11 -30 36 -45 55 -84 109 -355 361 -389 361 -7 0
-12 3 -12 8 0 6 -57 43 -63 40 -1 0 -24 13 -51 31 -28 17 -54 31 -59 31 -4 0
-29 10 -55 21 -41 19 -84 33 -167 55 -11 3 -36 8 -55 11 -19 3 -54 8 -77 13
-46 8 -281 5 -323 -5 -14 -3 -41 -7 -61 -10 -20 -3 -81 -18 -135 -35 -54 -17
-107 -32 -116 -35 -33 -8 -245 -114 -306 -154 -34 -23 -67 -41 -72 -41 -4 0
-10 -3 -12 -7 -1 -5 -30 -28 -63 -53 -105 -79 -243 -210 -315 -299 -19 -24
-40 -48 -45 -55 -6 -6 -33 -40 -60 -76 -27 -36 -53 -66 -57 -68 -4 -2 -8 -8
-8 -13 0 -10 -34 -60 -62 -93 -10 -11 -20 -28 -24 -38 -3 -10 -10 -18 -16 -18
-6 0 -9 -3 -5 -6 3 -3 -10 -28 -29 -55 -19 -27 -34 -51 -34 -53 0 -2 -31 -58
-69 -125 -38 -66 -73 -130 -77 -143 -3 -13 -9 -25 -13 -28 -10 -8 -111 -215
-111 -227 0 -6 -3 -13 -8 -15 -4 -1 -23 -37 -41 -78 -19 -41 -58 -125 -88
-187 -29 -62 -53 -116 -53 -122 0 -5 -3 -11 -7 -13 -5 -1 -30 -46 -56 -98 -60
-120 -94 -180 -140 -253 -20 -31 -37 -62 -37 -67 0 -6 -4 -10 -8 -10 -5 0 -24
-24 -42 -53 -19 -28 -39 -57 -45 -63 -5 -6 -21 -26 -35 -44 -65 -88 -191 -218
-275 -285 -27 -22 -52 -42 -55 -45 -12 -13 -119 -80 -166 -103 -92 -47 -140
-124 -131 -211 9 -78 48 -130 121 -160 35 -15 572 -16 6260 -12 3421 2 6238 7
6258 11 52 10 113 65 135 123 17 44 18 103 18 1082 0 928 -6 1355 -21 1710 -2
63 -6 165 -9 225 -2 61 -4 110 -5 110 -1 0 -3 43 -5 95 -2 52 -6 122 -10 155
-3 33 -8 94 -11 135 -6 99 -16 203 -29 300 -3 19 -7 55 -10 80 -2 25 -9 65
-15 90 -5 25 -12 56 -14 70 -8 46 -18 84 -39 150 -12 36 -22 67 -22 70 -1 3
-7 18 -13 33 -7 16 -12 30 -12 32 0 25 -145 296 -162 303 -4 2 -8 8 -8 13 0 9
-36 65 -50 79 -3 3 -25 32 -50 65 -60 82 -335 355 -356 355 -5 0 -79 56 -102
78 -7 6 -18 12 -23 12 -6 0 -17 6 -24 13 -32 28 -46 36 -152 93 -38 20 -72 39
-78 44 -5 5 -14 9 -20 10 -5 1 -23 8 -40 15 -63 28 -212 85 -236 89 -13 3 -24
5 -24 6 0 8 -253 59 -325 66 -113 10 -272 12 -297 3 -13 -5 -23 -4 -25 2 -2 6
-6 7 -10 3z m267 -398 c39 -3 81 -8 95 -11 14 -3 43 -8 64 -10 21 -3 43 -8 48
-11 4 -3 21 -8 36 -10 49 -9 175 -56 262 -97 47 -22 87 -41 90 -41 16 -3 177
-109 248 -164 215 -166 395 -393 495 -622 54 -123 93 -280 112 -445 4 -27 8
-63 10 -80 2 -16 6 -68 10 -115 3 -47 8 -103 11 -125 2 -22 6 -78 9 -125 3
-47 7 -116 9 -155 13 -201 26 -561 31 -845 2 -124 4 -227 5 -230 5 -15 2 -99
-3 -113 -4 -10 -3 -17 1 -17 4 0 7 -308 8 -685 0 -377 -2 -685 -6 -685 -3 0
-35 32 -71 72 -74 83 -108 120 -349 379 -145 157 -749 760 -899 899 -63 58
-130 121 -151 140 -21 19 -77 71 -125 115 -49 44 -93 85 -99 90 -6 6 -47 41
-91 80 -44 38 -87 76 -96 85 -9 8 -40 35 -69 60 -29 25 -62 53 -74 63 -12 11
-41 35 -65 55 -25 21 -53 45 -63 55 -10 9 -20 17 -23 17 -3 0 -16 10 -28 21
-27 26 -279 230 -407 329 -52 40 -96 77 -98 82 -2 4 -8 8 -13 8 -8 0 -70 45
-125 89 -35 29 -276 199 -384 272 -138 93 -143 96 -191 123 -19 10 -36 22 -39
25 -3 3 -17 12 -32 20 -16 8 -28 18 -28 22 0 4 23 43 50 86 28 43 53 85 57 93
9 21 201 308 230 345 13 17 27 35 31 40 86 113 118 153 180 223 103 116 217
227 307 298 27 21 55 44 62 51 7 6 29 21 50 34 21 13 40 26 43 29 20 23 213
131 320 178 53 23 162 61 193 66 12 3 23 5 25 5 1 1 4 1 7 2 2 0 28 7 57 15
29 8 96 17 148 20 52 4 96 8 98 9 2 2 15 1 30 0 15 -2 59 -6 97 -9z m-3950
-1150 c95 -8 131 -13 165 -20 14 -4 39 -8 55 -10 17 -2 57 -11 91 -20 33 -8
69 -17 80 -19 10 -2 26 -7 34 -10 8 -3 47 -15 85 -27 62 -18 142 -46 200 -70
11 -4 40 -16 65 -25 56 -21 107 -43 140 -60 14 -7 27 -13 30 -13 8 -1 51 -19
115 -48 33 -15 62 -28 65 -29 3 -1 48 -22 101 -47 53 -25 115 -53 137 -64 23
-10 42 -21 42 -26 0 -7 -165 -282 -182 -303 -26 -31 -88 -127 -88 -135 0 -6
-3 -10 -7 -10 -5 0 -15 -13 -24 -29 -16 -27 -157 -220 -169 -231 -3 -3 -21
-25 -40 -50 -19 -25 -50 -63 -69 -86 -20 -22 -53 -60 -75 -85 -115 -132 -362
-370 -441 -423 -19 -13 -31 -26 -28 -30 4 -3 1 -6 -6 -6 -12 0 -67 -38 -105
-72 -11 -10 -23 -18 -27 -18 -4 0 -14 -6 -21 -13 -73 -72 -539 -299 -660 -321
-13 -3 -23 -5 -23 -6 0 -1 -7 -3 -15 -5 -8 -2 -46 -11 -85 -20 -38 -9 -77 -18
-85 -20 -46 -8 -120 -18 -156 -20 -23 -1 -46 -4 -50 -7 -11 -5 -296 -1 -349 5
-114 14 -151 19 -156 23 -3 2 -21 6 -40 9 -19 3 -52 11 -74 17 -22 6 -46 13
-52 15 -29 7 -39 10 -58 17 -103 39 -135 52 -170 70 -22 11 -43 19 -47 18 -5
-1 -8 2 -8 8 0 5 -5 10 -10 10 -32 0 -271 175 -305 223 -8 12 -15 18 -15 15 0
-4 -21 16 -47 45 -27 29 -51 54 -54 57 -3 3 -12 15 -21 28 -15 23 -12 28 99
175 62 84 119 159 126 167 7 9 39 51 71 95 57 77 275 355 286 365 3 3 29 34
59 70 30 36 62 72 70 82 9 9 39 42 66 74 56 65 302 311 361 362 122 105 345
257 358 245 3 -4 6 -2 6 3 0 9 50 34 150 77 76 32 213 71 325 92 17 3 68 8
115 11 47 3 86 7 87 8 3 2 98 -2 178 -8z m2024 -850 c219 -147 423 -293 429
-308 2 -5 9 -8 16 -8 6 0 19 -8 28 -17 9 -10 38 -34 65 -53 26 -19 50 -37 53
-41 3 -3 32 -25 65 -50 33 -24 65 -49 70 -55 6 -6 30 -26 55 -45 25 -18 47
-36 50 -39 3 -3 55 -46 115 -95 103 -84 358 -300 417 -353 14 -13 37 -34 50
-45 13 -12 57 -51 97 -87 41 -36 93 -83 117 -105 23 -22 61 -57 85 -79 189
-167 824 -794 1039 -1026 58 -62 125 -134 150 -160 25 -26 81 -87 125 -136 44
-49 100 -111 125 -139 25 -27 51 -57 58 -66 11 -15 -21 -16 -400 -16 -227 0
-417 -1 -423 -3 -5 -1 -14 -2 -20 0 -14 2 -528 2 -540 0 -5 -1 -14 -1 -20 0
-26 5 -294 2 -303 -4 -6 -3 -13 -2 -16 3 -5 8 -64 6 -94 -4 -7 -3 -10 0 -7 5
4 6 -2 7 -17 1 -13 -5 -33 -5 -45 0 -15 5 -23 5 -23 -2 0 -6 -7 -6 -17 -1 -19
9 -105 8 -120 -1 -5 -3 -15 -2 -22 3 -8 4 -27 4 -42 0 -17 -5 -29 -5 -29 0 0
6 -9 6 -22 1 -13 -5 -33 -5 -45 0 -14 5 -23 5 -23 -2 0 -6 -7 -6 -17 -1 -19 9
-105 8 -120 -1 -5 -3 -15 -2 -22 3 -8 4 -27 4 -42 0 -17 -5 -29 -5 -29 0 0 6
-10 6 -24 0 -13 -5 -26 -6 -30 -3 -3 3 -30 5 -61 4 -30 -1 -63 -1 -72 -1 -10
0 -47 0 -83 -1 -36 0 -72 0 -80 1 -8 0 -31 0 -50 -1 -41 -2 -56 -1 -90 4 -14
2 -33 -1 -42 -5 -11 -5 -18 -5 -18 1 0 7 -9 7 -25 1 -13 -5 -27 -5 -29 -1 -3
5 -25 5 -48 1 -24 -5 -47 -6 -52 -3 -15 10 -50 10 -68 1 -11 -5 -18 -5 -18 1
0 7 -9 7 -25 1 -13 -5 -27 -5 -29 -1 -3 5 -25 5 -48 1 -24 -5 -50 -4 -59 1 -9
4 -29 5 -45 1 -16 -5 -40 -7 -54 -5 -38 5 -42 5 -80 4 -19 -1 -43 -1 -52 -1
-10 0 -25 0 -33 0 -8 0 -21 0 -27 1 -7 1 -29 1 -48 0 -19 -1 -43 -1 -52 -1
-10 0 -33 0 -50 0 -18 -1 -47 1 -65 3 -17 2 -30 1 -28 -3 2 -3 -19 -5 -46 -5
-27 0 -49 3 -49 6 0 4 -16 3 -35 -1 -19 -4 -35 -4 -35 1 0 5 -10 5 -22 1 -13
-4 -34 -6 -48 -5 -14 1 -39 4 -57 6 -17 2 -30 1 -28 -3 2 -3 -19 -5 -46 -5
-27 0 -49 4 -49 8 0 5 -5 5 -10 2 -6 -4 -36 -6 -68 -6 -99 1 -126 1 -147 -3
-11 -2 -26 1 -32 7 -9 6 -13 6 -13 -2 0 -7 -5 -9 -12 -5 -12 7 -67 7 -105 0
-13 -3 -25 -1 -28 4 -4 7 -27 7 -45 0 -14 -6 -57 -5 -77 2 -12 4 -24 4 -27 0
-5 -8 -80 -6 -102 2 -7 3 -16 2 -18 -3 -6 -8 -90 -6 -105 3 -5 4 -12 3 -15 -2
-5 -8 -79 -7 -102 2 -6 2 -15 2 -18 -2 -10 -9 -86 -8 -86 1 0 5 -5 5 -12 1
-15 -9 -418 -11 -418 -2 0 4 -6 5 -14 2 -24 -9 -99 -11 -128 -3 -16 4 -28 4
-28 1 0 -4 -33 -6 -72 -4 -71 3 -86 3 -158 -2 -19 -1 -45 1 -56 5 -12 4 -25 5
-28 2 -9 -10 -526 -9 -526 0 0 4 -8 4 -17 -1 -21 -10 -89 -10 -99 0 -4 4 -14
4 -23 0 -19 -9 -208 -8 -217 1 -4 3 -14 3 -23 -1 -13 -6 -526 -8 -541 -2 -3 1
-9 1 -15 0 -14 -4 -2315 -6 -2315 -2 0 2 17 10 38 18 72 30 109 47 282 132 96
47 183 92 193 100 9 8 17 11 17 7 0 -4 8 -1 18 7 9 9 22 17 27 19 9 4 135 75
180 102 11 7 22 15 25 18 3 3 16 12 30 19 28 14 222 141 230 150 3 3 30 22 60
43 80 55 104 73 218 162 7 5 18 15 25 20 7 6 37 30 67 55 30 25 60 49 67 55
198 171 314 283 474 456 52 56 103 112 114 123 11 12 32 37 46 56 15 19 42 52
61 73 l34 38 105 -103 c57 -57 131 -124 164 -149 77 -59 215 -150 215 -142 0
3 8 -1 18 -9 66 -58 417 -184 592 -213 19 -3 60 -10 90 -15 152 -26 495 -29
622 -5 12 3 40 7 63 10 22 4 54 8 70 11 56 9 200 44 285 70 47 15 86 26 87 25
13 -3 317 134 356 161 15 11 27 17 27 14 0 -3 29 12 65 34 36 22 70 40 75 40
6 0 10 5 10 10 0 6 5 10 10 10 6 0 28 12 49 28 21 15 49 34 62 42 31 20 231
171 245 184 6 6 33 29 60 51 58 48 203 185 253 239 20 21 54 57 76 80 22 23
64 71 94 107 30 35 60 69 66 74 6 6 42 51 80 100 39 50 73 92 77 93 5 2 8 10
8 17 0 7 7 16 16 19 9 4 14 9 11 12 -3 3 2 14 11 23 9 10 24 28 32 41 8 12 22
32 31 44 34 45 179 265 179 271 0 3 5 11 10 18 17 19 90 137 90 144 0 3 11 21
25 39 14 18 25 37 25 41 0 5 5 14 12 21 15 15 8 18 277 -162z m-5723 -266 c38
-7 73 -17 79 -22 5 -4 15 -8 23 -8 29 0 150 -67 237 -131 83 -61 121 -96 222
-206 40 -44 45 -50 108 -128 22 -27 48 -59 58 -70 10 -11 27 -35 38 -52 12
-18 24 -33 28 -33 4 0 13 -10 18 -23 9 -20 4 -32 -49 -98 -59 -74 -105 -127
-208 -242 -66 -74 -266 -274 -337 -337 -103 -92 -177 -155 -196 -169 -12 -8
-28 -22 -37 -30 -9 -9 -27 -23 -40 -31 -12 -8 -30 -22 -39 -31 -30 -30 -343
-249 -356 -249 -8 0 -15 -3 -17 -8 -14 -31 -411 -251 -662 -367 -173 -79 -503
-201 -640 -236 -23 -5 -48 -13 -56 -16 -8 -3 -22 -7 -30 -9 -8 -1 -40 -9 -70
-18 -59 -17 -271 -63 -329 -72 -20 -3 -50 -9 -67 -13 -51 -14 -56 1 -16 45 20
22 48 56 62 74 14 18 36 48 50 66 63 82 170 249 170 264 0 6 5 10 10 10 6 0
10 6 10 14 0 8 6 21 13 28 19 22 194 363 265 518 16 36 60 128 98 205 38 77
69 142 69 145 1 6 39 80 67 128 12 20 37 66 56 102 84 156 388 581 404 565 3
-3 11 6 18 20 7 13 22 27 32 31 11 3 17 8 14 11 -8 8 98 96 194 161 86 59 270
159 270 146 0 -3 6 -2 13 3 14 12 119 48 129 45 4 -1 19 3 33 8 13 5 53 12 87
16 35 3 64 7 65 8 8 6 152 -4 209 -14z"/>
</g>
</svg>
