<?xml version="1.0" encoding="UTF-8" standalone="no"?>
<svg
   xmlns:dc="http://purl.org/dc/elements/1.1/"
   xmlns:cc="http://creativecommons.org/ns#"
   xmlns:rdf="http://www.w3.org/1999/02/22-rdf-syntax-ns#"
   xmlns:svg="http://www.w3.org/2000/svg"
   xmlns="http://www.w3.org/2000/svg"
   xmlns:xlink="http://www.w3.org/1999/xlink"
   xmlns:sodipodi="http://sodipodi.sourceforge.net/DTD/sodipodi-0.dtd"
   xmlns:inkscape="http://www.inkscape.org/namespaces/inkscape"
   viewBox="0 0 299.99999 737.3"
   xml:space="preserve"
   version="1.1"
   id="svg388"
   sodipodi:docname="scienceTR.svg"
   width="300"
   height="737.29999"
   inkscape:version="0.92.4 (5da689c313, 2019-01-14)"><metadata
     id="metadata394"><rdf:RDF><cc:Work
         rdf:about=""><dc:format>image/svg+xml</dc:format><dc:type
           rdf:resource="http://purl.org/dc/dcmitype/StillImage" /><dc:title></dc:title></cc:Work></rdf:RDF></metadata><defs
     id="defs392" /><sodipodi:namedview
     pagecolor="#ffffff"
     bordercolor="#666666"
     borderopacity="1"
     objecttolerance="10"
     gridtolerance="10"
     guidetolerance="10"
     inkscape:pageopacity="0"
     inkscape:pageshadow="2"
     inkscape:window-width="1920"
     inkscape:window-height="1016"
     id="namedview390"
     showgrid="false"
     inkscape:zoom="0.9650482"
     inkscape:cx="631.32315"
     inkscape:cy="410.35808"
     inkscape:window-x="0"
     inkscape:window-y="36"
     inkscape:window-maximized="1"
     inkscape:current-layer="RH_Graphic" /><style
     id="style2">.st0{fill:#ededed;stroke:#25c7a1;stroke-miterlimit:10}.st1{fill:#2d75be}.st2{fill:#555d68}.st3{fill:#fff;stroke:#555d68;stroke-miterlimit:10}.st4{fill:#ededed}.st5{fill:#223242}.st10{fill:#009dd6}.st12{opacity:.49;fill:#01528a}.st13{opacity:.5;fill:#bae2f7}.st14{fill:#9da3e0}.st15{fill:#3e437a}.st16{fill:#00a1d9}.st17{fill:#074d82}.st19{fill:#7776ab}.st23{fill:#ba4044}.st24,.st25{fill:#fff}.st25{stroke:#fff;stroke-width:3.1352;stroke-miterlimit:10}.st29{fill:#0971b7}.st32{fill-rule:evenodd;clip-rule:evenodd}.st32,.st33{fill:#c6d9fa}.st36,.st38{fill-rule:evenodd;clip-rule:evenodd;fill:#fff}.st38{fill:#1c1c1c}.st40{fill:#4a4848}.st43{fill:#2554ab}.st44{fill:#2385df}.st45{fill-rule:evenodd;clip-rule:evenodd;fill:#8169d6}.st46{fill:#ac8fff}.st52{fill:#61cfed}.st53{fill:#063169}.st54{fill:#007d3b}.st57{fill:#1652a1}.st59{fill:#e6e6e6}</style><g
     id="RH_Graphic"
     transform="translate(-1050)"><defs
       id="defs49"><path
         id="SVGID_1_"
         d="m 1313.2,234.5 35.3,206 -144.2,0.6 7.7,-177.8 z"
         inkscape:connector-curvature="0" /></defs><clipPath
       id="SVGID_00000090274812190717197600000014014865609368410764_"><use
         xlink:href="#SVGID_1_"
         style="overflow:visible"
         id="use51"
         x="0"
         y="0"
         width="100%"
         height="100%" /></clipPath><path
       class="st14"
       d="m 1350.5,60.8 c 0.6,1.1 0.3,2.5 -0.7,3.4 l -0.2,0.1 c -1.2,1 -1.3,2.7 -0.3,3.9 l 5.2,6 c 1,1.2 2.7,1.3 3.9,0.3 1,-0.9 2.4,-0.9 3.5,-0.1 3.3,2.5 6.9,4.6 10.8,6.1 1.2,0.5 1.9,1.7 1.7,3 v 0.2 c -0.2,1.5 0.8,2.9 2.3,3.1 l 7.9,1.2 c 1.5,0.2 2.9,-0.8 3.1,-2.3 v -0.1 c 0.2,-1.3 1.3,-2.3 2.6,-2.4 1,-0.1 2.1,-0.2 3.1,-0.3 3.1,-0.4 6.1,-1.2 8.9,-2.2 1.2,-0.5 2.6,0 3.3,1.1 l 0.2,0.4 c 0.8,1.3 2.5,1.7 3.8,0.8 l 6.7,-4.3 c 1.3,-0.8 1.7,-2.5 0.8,-3.8 l -0.3,-0.4 c -0.7,-1.1 -0.5,-2.5 0.4,-3.4 2.9,-2.8 5.3,-6.1 7.2,-9.6 0.6,-1.1 2,-1.7 3.2,-1.3 l 0.8,0.2 c 1.5,0.4 3,-0.4 3.4,-1.9 l 2.3,-7.6 c 0.4,-1.5 -0.4,-3 -1.9,-3.4 l -0.8,-0.3 c -1.2,-0.4 -2.1,-1.6 -2,-2.9 0.2,-2.9 0.1,-5.9 -0.3,-8.9 -0.1,-0.4 -0.1,-0.8 -0.2,-1.3 -0.2,-1.3 0.5,-2.5 1.7,-3 l 1.1,-0.4 c 1.4,-0.6 2.1,-2.2 1.5,-3.6 l -3,-7.4 c -0.6,-1.4 -2.2,-2.1 -3.6,-1.5 l -1,0.4 c -1.2,0.5 -2.6,0.1 -3.3,-1 -2,-3 -4.4,-5.7 -7.1,-8 -1,-0.9 -1.2,-2.3 -0.6,-3.4 l 0.6,-1.2 c 0.7,-1.3 0.2,-3 -1.1,-3.7 l -7,-3.8 c -1.3,-0.7 -3,-0.2 -3.7,1.1 l -0.5,1 c -0.6,1.2 -2,1.7 -3.2,1.3 -2.6,-0.8 -5.4,-1.3 -8.2,-1.6 -1.3,-0.1 -2.3,-1.1 -2.5,-2.4 l -0.2,-1.2 c -0.2,-1.5 -1.6,-2.6 -3.1,-2.4 l -7.9,1.1 c -1.5,0.2 -2.6,1.6 -2.4,3.1 l 0.1,0.9 c 0.2,1.3 -0.6,2.6 -1.8,3 -3.8,1.3 -7.4,3.2 -10.6,5.4 -1,0.7 -2.4,0.7 -3.4,-0.2 L 1359,6 c -1.1,-1 -2.9,-0.9 -3.9,0.3 l -5.2,6 c -1,1.1 -0.9,2.9 0.3,3.9 l 0.4,0.3 c 1,0.9 1.2,2.3 0.6,3.5 -2,3.5 -3.6,7.3 -4.5,11.3 -0.3,1.2 -1.4,2.1 -2.7,2.1 h -0.5 c -1.5,0 -2.8,1.2 -2.8,2.7 v 8 c 0,1.5 1.2,2.8 2.7,2.8 h 2.5 V 47 c 0.9,5 2.4,9.6 4.6,13.8 z m 3.8,-9.6 c -6.6,-22.7 10.3,-45 34,-44.9 15.3,0.1 28.8,10.3 33,25 6.6,22.7 -10.3,45 -34,44.9 -15.3,-0.2 -28.8,-10.4 -33,-25 z"
       id="path124"
       inkscape:connector-curvature="0"
       style="fill:#9da3e0" /><circle
       transform="rotate(-53.453,1387.72,41.224)"
       class="st14"
       cx="1387.8"
       cy="41.200001"
       r="27.799999"
       id="circle126"
       style="fill:#9da3e0" /><path
       class="st15"
       d="m 1248.6,92.7 4.8,-1.2 c 0.6,-0.2 1.3,0.1 1.6,0.7 1.2,2.3 2.6,4.4 4.2,6.4 0.4,0.5 0.4,1.3 0,1.8 l -3,3.9 c -0.5,0.6 -0.4,1.4 0.1,1.9 l 3.1,3.1 c 0.5,0.5 1.3,0.6 1.9,0.1 l 3.9,-3.1 c 0.5,-0.4 1.3,-0.4 1.8,0 2,1.5 4.2,2.9 6.4,4.1 0.6,0.3 0.9,1 0.7,1.6 l -1.2,4.8 c -0.2,0.7 0.2,1.4 0.9,1.7 l 4.1,1.5 c 0.7,0.3 1.5,0 1.8,-0.7 l 2.3,-4.5 c 0.3,-0.6 1,-0.9 1.6,-0.7 2.5,0.6 5,1 7.5,1.1 0.7,0 1.2,0.5 1.3,1.2 l 0.9,4.9 c 0.1,0.7 0.8,1.2 1.5,1.2 l 4.3,-0.3 c 0.7,0 1.3,-0.6 1.4,-1.4 l 0.2,-5 c 0,-0.7 0.5,-1.2 1.2,-1.3 l 2.7,-0.6 c 1.6,-0.4 3.1,-0.9 4.6,-1.5 0.6,-0.2 1.3,0 1.7,0.5 l 2.8,4.1 c 0.4,0.6 1.2,0.8 1.9,0.5 l 3.9,-2 c 0.6,-0.3 0.9,-1.1 0.7,-1.8 l -1.8,-4.6 c -0.2,-0.6 0,-1.3 0.5,-1.7 2.1,-1.5 4.1,-3.1 5.9,-4.9 0.5,-0.5 1.2,-0.6 1.8,-0.2 l 4.2,2.6 c 0.6,0.4 1.4,0.2 1.9,-0.3 l 2.7,-3.4 c 0.5,-0.6 0.4,-1.4 -0.1,-1.9 l -3.5,-3.4 c -0.5,-0.5 -0.6,-1.2 -0.2,-1.8 1.3,-2.2 2.4,-4.5 3.4,-6.9 0.2,-0.6 0.9,-1 1.5,-0.9 l 4.8,0.6 c 0.7,0.1 1.4,-0.4 1.6,-1.1 l 1,-4.2 c 0.2,-0.7 -0.2,-1.4 -0.9,-1.7 l -4.5,-1.7 c -0.6,-0.2 -1,-0.9 -0.9,-1.5 0.3,-2.5 0.4,-5.1 0.2,-7.7 0,-0.7 0.4,-1.3 1,-1.5 l 4.6,-1.4 c 0.7,-0.2 1.1,-0.9 1,-1.6 l -0.8,-4.3 c -0.1,-0.7 -0.8,-1.2 -1.5,-1.2 l -4.7,0.3 c -0.7,0 -1.3,-0.4 -1.5,-1 -0.8,-2.5 -1.8,-4.9 -2.9,-7.2 -0.3,-0.6 -0.2,-1.3 0.3,-1.8 l 3.5,-3.1 c 0.6,-0.5 0.7,-1.3 0.2,-1.9 l -2.5,-3.6 c -0.4,-0.6 -1.2,-0.8 -1.9,-0.5 l -4.1,2.2 c -0.6,0.3 -1.3,0.2 -1.8,-0.3 -1.7,-2 -3.6,-3.8 -5.7,-5.4 -0.5,-0.4 -0.7,-1.1 -0.4,-1.7 l 1.9,-4.2 c 0.3,-0.7 0.1,-1.5 -0.6,-1.8 l -3.7,-2.3 c -0.6,-0.4 -1.4,-0.2 -1.9,0.3 l -2.8,3.7 c -0.4,0.5 -1.1,0.7 -1.7,0.4 -2.4,-1.1 -4.8,-1.9 -7.4,-2.6 -0.6,-0.2 -1.1,-0.7 -1.1,-1.4 l 0.1,-4.6 c 0,-0.7 -0.5,-1.4 -1.3,-1.4 l -4.3,-0.5 c -0.7,-0.1 -1.4,0.4 -1.6,1.1 l -1.1,4.5 c -0.2,0.6 -0.7,1.1 -1.4,1.1 -1.9,0 -3.9,0.1 -5.8,0.4 -0.7,0.1 -1.3,-0.3 -1.5,-0.9 l -1.6,-4.3 c -0.3,-0.7 -1,-1.1 -1.7,-0.9 l -4.2,1.1 c -0.7,0.2 -1.2,0.9 -1.1,1.6 l 0.6,4.6 c 0.1,0.7 -0.3,1.3 -0.9,1.5 -2.5,1 -4.8,2.2 -7,3.5 -0.6,0.4 -1.3,0.3 -1.8,-0.2 l -3.3,-3.3 c -0.5,-0.5 -1.3,-0.6 -1.9,-0.1 l -3.4,2.7 c -0.6,0.5 -0.7,1.3 -0.3,1.9 l 2.5,4 c 0.4,0.6 0.3,1.3 -0.2,1.8 -1.8,1.9 -3.4,3.9 -4.9,6.1 -0.4,0.6 -1.1,0.8 -1.7,0.5 l -4.4,-1.7 c -0.7,-0.3 -1.5,0 -1.8,0.7 l -2,3.9 c -0.3,0.7 -0.1,1.5 0.5,1.9 l 4,2.6 c 0.6,0.4 0.8,1.1 0.6,1.7 -0.9,2.4 -1.5,4.9 -2,7.5 -0.1,0.7 -0.7,1.2 -1.3,1.2 l -4.8,0.3 c -0.7,0 -1.3,0.6 -1.4,1.4 l -0.2,4.3 c 0,0.7 0.5,1.4 1.2,1.5 l 4.8,0.8 c 0.7,0.1 1.1,0.6 1.2,1.3 0.2,2.5 0.6,5.1 1.3,7.6 0.2,0.6 -0.1,1.3 -0.7,1.6 l -4.3,2.2 c -0.7,0.3 -0.9,1.1 -0.7,1.8 l 1.6,4.1 c 0.1,0.5 0.8,0.9 1.5,0.7 z m 33,-5.1 c -2.7,-2 -5,-4.7 -6.4,-7.9 -0.4,-0.8 0.1,-1.8 1,-2 l 4.8,-1.2 c 0.6,-0.2 1.3,0.1 1.6,0.7 2.2,4.1 6.5,6.7 11.1,6.7 0.7,0 1.2,0.4 1.4,1.1 l 1.2,4.8 c 0.2,0.9 -0.4,1.7 -1.3,1.8 -3.5,0.2 -7,-0.5 -10,-1.9 -0.1,-0.1 -0.3,-0.1 -0.4,-0.2 -0.1,-0.1 -0.3,-0.1 -0.4,-0.2 -0.1,-0.1 -0.3,-0.2 -0.4,-0.2 -0.1,-0.1 -0.3,-0.2 -0.4,-0.2 -0.7,-0.6 -1.3,-1 -1.8,-1.3 z m 20.2,2.3 c -0.8,0.4 -1.8,-0.1 -2,-1 l -1.2,-4.8 c -0.2,-0.7 0.1,-1.3 0.8,-1.6 4.3,-2.2 7,-6.6 7,-11.4 0,-0.7 0.4,-1.2 1.1,-1.4 l 4.8,-1.2 c 0.9,-0.2 1.7,0.4 1.8,1.3 0.3,3.5 -0.4,7 -1.9,10.1 -0.6,1.2 -1.2,2.4 -2,3.4 -2.1,2.8 -5,5.1 -8.4,6.6 z m 3.9,-35.2 c 2.8,2.1 5.2,4.9 6.7,8.2 0.4,0.8 -0.1,1.8 -1,2 l -4.8,1.2 c -0.7,0.2 -1.3,-0.1 -1.6,-0.7 -2.2,-4.4 -6.8,-7 -11.7,-6.9 -0.7,0 -1.3,-0.4 -1.4,-1.1 l -1.2,-4.8 c -0.2,-0.9 0.4,-1.7 1.3,-1.8 3.6,-0.3 7.2,0.3 10.4,1.8 0.5,0.2 0.9,0.4 1.3,0.7 0.1,0.1 0.3,0.2 0.4,0.2 0.1,0.1 0.3,0.2 0.4,0.2 0.1,0.1 0.3,0.2 0.4,0.3 0.1,0.1 0.3,0.2 0.4,0.3 0.1,0.2 0.2,0.3 0.4,0.4 z m -25.7,18.2 -4.8,1.2 c -0.9,0.2 -1.7,-0.4 -1.8,-1.3 -0.3,-3.6 0.4,-7.2 1.8,-10.3 0.6,-1.2 1.2,-2.4 2,-3.4 2,-2.7 4.7,-5 7.8,-6.4 0.8,-0.4 1.8,0.1 2,1 l 1.2,4.8 c 0.2,0.6 -0.1,1.3 -0.7,1.6 -4.1,2.3 -6.7,6.7 -6.6,11.4 0.2,0.7 -0.3,1.3 -0.9,1.4 z m -17.1,-22.3 c -0.7,-0.4 -0.9,-1.4 -0.4,-2.1 5.1,-7 12.6,-12.4 21.7,-14.7 9,-2.3 18.2,-1.2 26,2.5 0.8,0.4 1.1,1.3 0.6,2 l -5.6,9.4 c -0.4,0.6 -1.1,0.9 -1.8,0.6 -4.8,-2.1 -10.4,-2.6 -15.8,-1.2 -5.5,1.4 -10.1,4.6 -13.4,8.7 -0.4,0.6 -1.2,0.7 -1.9,0.3 z m 64.4,1.5 c 1.6,2.9 2.9,6.1 3.8,9.5 2.3,9.1 1.2,18.2 -2.5,26.1 -0.4,0.8 -1.3,1.1 -2,0.6 l -9.4,-5.6 c -0.6,-0.4 -0.9,-1.1 -0.6,-1.8 2.1,-4.9 2.6,-10.4 1.2,-15.9 -1.4,-5.5 -4.6,-10.2 -8.8,-13.4 -0.6,-0.4 -0.7,-1.2 -0.4,-1.9 l 5.6,-9.4 c 0.4,-0.7 1.4,-0.9 2.1,-0.4 4.4,3.2 8.2,7.3 11,12.2 m -2.4,41.7 c -5.1,7 -12.6,12.4 -21.7,14.7 -9.1,2.3 -18.3,1.2 -26.2,-2.5 -0.8,-0.4 -1.1,-1.3 -0.6,-2 l 5.6,-9.4 c 0.4,-0.6 1.1,-0.9 1.8,-0.6 4.9,2.1 10.5,2.7 16,1.3 5.5,-1.4 10.1,-4.6 13.4,-8.7 0.4,-0.6 1.2,-0.7 1.9,-0.3 l 9.4,5.6 c 0.7,0.2 0.9,1.2 0.4,1.9 z m -53.9,8.6 c -7,-5.1 -12.3,-12.6 -14.7,-21.6 -2.3,-9.1 -1.2,-18.2 2.5,-26.1 0.4,-0.8 1.3,-1.1 2,-0.6 l 9.4,5.6 c 0.6,0.4 0.9,1.1 0.6,1.8 -2.1,4.9 -2.6,10.4 -1.2,15.9 1.4,5.5 4.5,10.1 8.7,13.3 0.6,0.4 0.7,1.2 0.3,1.9 l -5.6,9.4 c -0.3,0.7 -1.3,0.9 -2,0.4 z"
       id="path128"
       inkscape:connector-curvature="0"
       style="fill:#3e437a" /><path
       class="st16"
       d="m 1255.7,-22.6 0.5,2.4 c 0.3,1.5 1.9,2.4 3.4,1.8 l 0.2,-0.1 c 1.4,-0.5 2.9,0.2 3.3,1.6 3.2,10 9.3,18.8 17.4,25.4 1.1,0.9 1.3,2.5 0.3,3.6 l -0.1,0.1 c -1,1.2 -0.8,2.9 0.5,3.8 l 2.1,1.4 c 1.3,0.9 3.1,0.3 3.7,-1.1 0.6,-1.3 2.1,-1.9 3.4,-1.3 4.6,2.3 9.5,3.9 14.8,4.9 5.3,0.9 10.5,1.1 15.6,0.5 1.4,-0.2 2.7,0.9 2.8,2.3 v 0.2 c 0.1,1.5 1.5,2.6 3.1,2.3 l 2.4,-0.5 c 1.5,-0.3 2.4,-1.9 1.8,-3.4 l -0.1,-0.2 c -0.5,-1.3 0.2,-2.8 1.5,-3.3 9.8,-3.4 18.6,-9.6 25,-17.8 0.9,-1.1 2.6,-1.3 3.6,-0.3 l 0.5,0.4 c 1.2,1 2.9,0.8 3.8,-0.5 l 1.4,-2.1 c 0.9,-1.3 0.3,-3.1 -1.1,-3.7 l -0.6,-0.3 c -1.3,-0.6 -1.9,-2.1 -1.3,-3.4 2.1,-4.4 3.7,-9.1 4.6,-14.1 1,-5.4 1.1,-10.7 0.5,-15.9 -0.2,-1.4 0.9,-2.7 2.3,-2.8 l 1.1,-0.1 c 1.5,-0.1 2.6,-1.6 2.3,-3.1 l -0.5,-2.4 c -0.3,-1.5 -2,-2.4 -3.4,-1.8 l -1,0.4 c -1.3,0.5 -2.9,-0.2 -3.3,-1.5 -3.4,-9.7 -9.5,-18.3 -17.5,-24.8 -1.1,-0.9 -1.3,-2.5 -0.3,-3.6 l 0.9,-1 c 1,-1.2 0.7,-3 -0.5,-3.8 l -2.1,-1.4 c -1.3,-0.8 -3.1,-0.3 -3.7,1.1 l -0.5,1.2 c -0.6,1.3 -2.1,1.9 -3.4,1.3 -4.5,-2.2 -9.4,-3.9 -14.6,-4.8 -4.9,-0.9 -9.8,-1 -14.6,-0.6 -1.4,0.1 -2.7,-0.9 -2.8,-2.4 l -0.1,-1.2 c -0.1,-1.5 -1.5,-2.6 -3,-2.3 l -2.4,0.5 c -1.5,0.3 -2.4,1.9 -1.8,3.4 l 0.4,1 c 0.5,1.4 -0.2,2.9 -1.6,3.3 -9.9,3.1 -18.6,9.1 -25.3,17 -0.9,1.1 -2.5,1.2 -3.6,0.3 l -0.6,-0.5 c -1.2,-1 -2.9,-0.8 -3.8,0.5 l -1.4,2.1 c -0.9,1.3 -0.3,3.1 1.1,3.7 l 0.6,0.3 c 1.3,0.6 1.9,2.2 1.2,3.5 -2.5,4.8 -4.3,10 -5.2,15.5 -0.9,4.9 -1,9.8 -0.6,14.5 0.1,1.4 -0.9,2.7 -2.4,2.8 h -0.3 c -1.9,0.1 -2.9,1.5 -2.6,3 z m 13.7,-25.5 c 2.8,-8.8 8.1,-16.3 14.9,-22 1.1,-0.9 2.8,-0.7 3.7,0.5 l 6.6,9.4 c 0.7,1.1 0.6,2.5 -0.4,3.4 -3.8,3.3 -6.7,7.5 -8.6,12.4 -0.4,1.1 -1.6,1.8 -2.8,1.6 l -11.4,-2 c -1.5,-0.3 -2.4,-1.9 -2,-3.3 z m 29.4,-14.6 -6.6,-9.5 c -0.9,-1.3 -0.4,-3 0.9,-3.7 7.7,-4 16.6,-5.8 25.8,-5 1.5,0.1 2.5,1.5 2.3,3 l -2,11.3 c -0.2,1.3 -1.4,2.2 -2.6,2.1 -5.1,-0.3 -10.1,0.7 -14.6,2.7 -1.2,0.4 -2.5,0.1 -3.2,-0.9 z m 25.2,-2.8 2,-11.4 c 0.3,-1.5 1.8,-2.4 3.2,-2 8.6,2.7 16,7.8 21.6,14.3 1,1.1 0.7,2.8 -0.5,3.7 l -9.4,6.6 c -1,0.7 -2.5,0.6 -3.3,-0.4 -3.3,-3.6 -7.4,-6.4 -12.1,-8.1 -1.1,-0.3 -1.8,-1.5 -1.5,-2.7 z m 7.6,60.8 6.6,9.4 c 0.9,1.2 0.5,3 -0.9,3.7 -7.8,4.2 -16.8,6.3 -26.2,5.6 -1.5,-0.1 -2.6,-1.5 -2.3,-3 l 2,-11.3 c 0.2,-1.2 1.3,-2.1 2.6,-2.1 5.3,0.2 10.4,-0.9 15,-3.1 1.1,-0.5 2.4,-0.2 3.2,0.8 z m -25.6,3.4 -2,11.4 c -0.3,1.5 -1.8,2.4 -3.2,2 -9,-2.7 -16.7,-8 -22.4,-14.8 -1,-1.1 -0.7,-2.8 0.5,-3.7 l 9.4,-6.6 c 1,-0.7 2.5,-0.6 3.3,0.4 3.4,3.8 7.8,6.8 12.8,8.5 1.1,0.4 1.8,1.6 1.6,2.8 z m -10.5,-23.2 c -8.2,-22.2 16.3,-39.4 34.3,-24 1.9,1.6 3.4,3.7 4.2,6.1 8.2,22.2 -16.3,39.4 -34.3,24 -1.9,-1.7 -3.3,-3.8 -4.2,-6.1 z m 61.3,-31.3 c 4.1,7.7 6.1,16.5 5.4,25.7 -0.1,1.5 -1.5,2.6 -3,2.3 l -11.3,-2 c -1.2,-0.2 -2.1,-1.3 -2.1,-2.6 0.2,-5.1 -0.9,-10.1 -3,-14.5 -0.5,-1.1 -0.2,-2.4 0.8,-3.2 l 9.4,-6.6 c 1.3,-0.9 3.1,-0.5 3.8,0.9 z m 3.5,36 c -2.6,8.9 -7.7,16.5 -14.4,22.3 -1.1,1 -2.9,0.8 -3.7,-0.5 l -6.6,-9.4 c -0.7,-1 -0.6,-2.4 0.3,-3.3 3.6,-3.4 6.5,-7.7 8.2,-12.6 0.4,-1.2 1.6,-1.9 2.8,-1.7 l 11.3,2 c 1.6,0.2 2.6,1.7 2.1,3.2 z m -87.8,8.3 c -4.1,-7.9 -6,-16.9 -5.2,-26.3 0.1,-1.5 1.5,-2.5 3,-2.3 l 11.3,2 c 1.3,0.2 2.2,1.4 2.1,2.6 -0.3,5.3 0.7,10.5 2.8,15 0.5,1.1 0.2,2.4 -0.8,3.1 l -9.4,6.6 c -1.3,1.1 -3.1,0.6 -3.8,-0.7 z"
       id="path130"
       inkscape:connector-curvature="0"
       style="fill:#00a1d9" /><path
       class="st14"
       d="m 1214.1,17.2 0.3,1.2 c 0.2,0.7 0.9,1.2 1.7,0.9 h 0.1 c 0.7,-0.3 1.4,0.1 1.6,0.8 1.6,4.9 4.5,9.2 8.5,12.4 0.5,0.4 0.6,1.2 0.2,1.8 -0.5,0.6 -0.4,1.4 0.3,1.9 l 1,0.7 c 0.6,0.4 1.5,0.2 1.8,-0.5 0.3,-0.6 1,-0.9 1.7,-0.6 2.2,1.1 4.7,1.9 7.2,2.4 2.6,0.5 5.1,0.5 7.6,0.2 0.7,-0.1 1.3,0.4 1.4,1.1 v 0.1 c 0.1,0.8 0.8,1.3 1.5,1.1 l 1.2,-0.3 c 0.7,-0.2 1.2,-1 0.9,-1.7 v -0.1 c -0.3,-0.7 0.1,-1.4 0.7,-1.6 4.8,-1.7 9.1,-4.7 12.2,-8.7 0.4,-0.6 1.2,-0.6 1.8,-0.2 l 0.2,0.2 c 0.6,0.5 1.4,0.4 1.8,-0.3 l 0.7,-1 c 0.4,-0.6 0.2,-1.5 -0.5,-1.8 l -0.3,-0.1 c -0.6,-0.3 -0.9,-1 -0.6,-1.7 1,-2.1 1.8,-4.5 2.2,-6.9 0.5,-2.6 0.5,-5.2 0.2,-7.8 -0.1,-0.7 0.4,-1.3 1.1,-1.4 h 0.5 c 0.8,-0.1 1.3,-0.8 1.1,-1.5 l -0.3,-1.2 c -0.2,-0.7 -1,-1.2 -1.7,-0.9 l -0.5,0.2 c -0.7,0.3 -1.4,-0.1 -1.6,-0.7 -1.6,-4.8 -4.6,-9 -8.6,-12.1 -0.5,-0.4 -0.6,-1.2 -0.2,-1.8 l 0.4,-0.5 c 0.5,-0.6 0.4,-1.4 -0.3,-1.8 l -1,-0.7 c -0.6,-0.4 -1.5,-0.2 -1.8,0.6 l -0.2,0.6 c -0.3,0.7 -1,0.9 -1.7,0.6 -2.2,-1.1 -4.6,-1.9 -7.1,-2.3 -2.4,-0.4 -4.8,-0.5 -7.1,-0.3 -0.7,0.1 -1.3,-0.5 -1.3,-1.2 v -0.6 c 0,-0.8 -0.7,-1.3 -1.5,-1.1 l -1.2,0.2 c -0.7,0.2 -1.2,0.9 -0.9,1.7 l 0.2,0.5 c 0.3,0.7 -0.1,1.4 -0.8,1.6 -4.8,1.5 -9.1,4.4 -12.3,8.3 -0.4,0.5 -1.2,0.6 -1.8,0.1 l -0.3,-0.3 c -0.6,-0.5 -1.4,-0.4 -1.9,0.3 l -0.7,1 c -0.4,0.6 -0.2,1.5 0.5,1.8 l 0.3,0.1 c 0.7,0.3 0.9,1.1 0.6,1.7 -1.2,2.3 -2.1,4.9 -2.6,7.6 -0.4,2.4 -0.5,4.8 -0.3,7.1 0.1,0.7 -0.5,1.3 -1.2,1.3 h -0.2 c -0.6,0.2 -1.1,0.9 -1,1.6 z m 6.8,-12.4 c 1.4,-4.3 4,-8 7.3,-10.7 0.6,-0.5 1.4,-0.3 1.8,0.2 l 3.2,4.6 c 0.4,0.5 0.3,1.2 -0.2,1.6 -1.8,1.6 -3.3,3.7 -4.2,6.1 -0.2,0.6 -0.8,0.9 -1.4,0.8 l -5.6,-1 c -0.7,-0.2 -1.1,-0.9 -0.9,-1.6 z m 14.3,-7.2 -3.2,-4.6 c -0.4,-0.6 -0.2,-1.5 0.5,-1.8 3.8,-1.9 8.1,-2.8 12.6,-2.5 0.7,0.1 1.2,0.7 1.1,1.4 l -1,5.5 c -0.1,0.6 -0.7,1.1 -1.3,1 -2.5,-0.1 -5,0.3 -7.1,1.3 -0.6,0.4 -1.2,0.2 -1.6,-0.3 z m 12.3,-1.3 1,-5.6 c 0.1,-0.7 0.9,-1.2 1.6,-1 4.2,1.3 7.8,3.8 10.6,7 0.5,0.6 0.4,1.4 -0.2,1.8 l -4.6,3.2 c -0.5,0.4 -1.2,0.3 -1.6,-0.2 -1.6,-1.7 -3.6,-3.1 -5.9,-4 -0.6,-0.1 -1,-0.7 -0.9,-1.2 z m 3.7,29.7 3.2,4.6 c 0.4,0.6 0.2,1.4 -0.4,1.8 -3.8,2.1 -8.2,3.1 -12.8,2.7 -0.7,-0.1 -1.2,-0.7 -1.1,-1.4 l 1,-5.5 c 0.1,-0.6 0.6,-1.1 1.3,-1 2.6,0.1 5.1,-0.4 7.3,-1.5 0.5,-0.4 1.2,-0.2 1.5,0.3 z m -12.4,1.6 -1,5.5 c -0.1,0.7 -0.9,1.2 -1.6,1 -4.4,-1.3 -8.1,-3.9 -11,-7.2 -0.5,-0.6 -0.4,-1.4 0.2,-1.8 l 4.6,-3.2 c 0.5,-0.4 1.2,-0.3 1.6,0.2 1.7,1.9 3.8,3.3 6.2,4.2 0.7,0.1 1.1,0.7 1,1.3 z M 1263.6,1 c 2,3.8 3,8.1 2.7,12.5 -0.1,0.7 -0.7,1.3 -1.4,1.1 l -5.5,-1 c -0.6,-0.1 -1,-0.6 -1,-1.3 0.1,-2.5 -0.4,-4.9 -1.5,-7.1 -0.3,-0.5 -0.1,-1.2 0.4,-1.5 l 4.6,-3.2 c 0.5,-0.4 1.3,-0.2 1.7,0.5 z m 1.7,17.6 c -1.3,4.3 -3.8,8.1 -7,10.9 -0.6,0.5 -1.4,0.4 -1.8,-0.2 l -3.2,-4.6 c -0.4,-0.5 -0.3,-1.2 0.2,-1.6 1.8,-1.7 3.2,-3.8 4,-6.2 0.2,-0.6 0.8,-0.9 1.4,-0.8 l 5.5,1 c 0.7,0 1.1,0.8 0.9,1.5 z m -42.9,4 c -2,-3.8 -2.9,-8.3 -2.5,-12.8 0.1,-0.7 0.7,-1.2 1.4,-1.1 l 5.5,1 c 0.6,0.1 1.1,0.7 1,1.3 -0.2,2.6 0.3,5.1 1.4,7.4 0.3,0.5 0.1,1.2 -0.4,1.5 l -4.6,3.2 c -0.6,0.4 -1.5,0.2 -1.8,-0.5 z"
       id="path132"
       inkscape:connector-curvature="0"
       style="fill:#9da3e0" /><defs
       id="defs135"><path
         id="SVGID_00000010291095370055722420000007544852593073422223_"
         d="m 1501.4,151.3 -99,-163.8 -222.5,292 136.2,89.5 z"
         inkscape:connector-curvature="0" /></defs><clipPath
       id="SVGID_00000003095948907406602350000017705471774980051097_"><use
         xlink:href="#SVGID_00000010291095370055722420000007544852593073422223_"
         style="overflow:visible"
         id="use137"
         x="0"
         y="0"
         width="100%"
         height="100%" /></clipPath><g
       id="g178"><path
         class="st23"
         d="m 1112,234.5 17.8,11.8 -8,13 z"
         id="path176"
         inkscape:connector-curvature="0"
         style="fill:#ba4044" /></g><g
       id="g188"><defs
         id="defs181"><path
           id="SVGID_00000052090415250443431890000007043911693167827381_"
           d="m 1136.1,250.9 16.9,-20.3 c 0,0 -30.1,-69.2 -99.9,-82.1 0.1,0.1 -1.1,52.4 83,102.4 z"
           inkscape:connector-curvature="0" /></defs><use
         xlink:href="#SVGID_00000052090415250443431890000007043911693167827381_"
         style="overflow:visible;fill:#f06060"
         id="use183"
         x="0"
         y="0"
         width="100%"
         height="100%" /><clipPath
         id="SVGID_00000116956488932812672310000011425978813602856344_"><use
           xlink:href="#SVGID_00000052090415250443431890000007043911693167827381_"
           style="overflow:visible"
           id="use185"
           x="0"
           y="0"
           width="100%"
           height="100%" /></clipPath></g><g
       id="g192"><path
         class="st23"
         d="m 1150.5,225.3 11.9,-10.9 -22.8,-6.5 z"
         id="path190"
         inkscape:connector-curvature="0"
         style="fill:#ba4044" /></g><g
       id="g196"><path
         class="st24"
         d="m 1094.3,182.9 c 2.4,0.7 3.7,3.2 3,5.6 -0.7,2.4 -3.2,3.7 -5.6,3 -2.4,-0.7 -3.7,-3.2 -3,-5.6 0.7,-2.3 3.2,-3.7 5.6,-3 z"
         id="path194"
         inkscape:connector-curvature="0"
         style="fill:#ffffff" /></g><g
       id="g200"><path
         class="st24"
         d="m 1105.1,193.6 c 2.4,0.7 3.7,3.2 3,5.6 -0.7,2.4 -3.2,3.7 -5.6,3 -2.4,-0.7 -3.7,-3.2 -3,-5.6 0.7,-2.4 3.2,-3.7 5.6,-3 z"
         id="path198"
         inkscape:connector-curvature="0"
         style="fill:#ffffff" /></g><g
       id="g204"><path
         class="st24"
         d="m 1084.3,173.5 c 2.4,0.7 3.7,3.2 3,5.6 -0.7,2.4 -3.2,3.7 -5.6,3 -2.4,-0.7 -3.7,-3.2 -3,-5.6 0.8,-2.4 3.3,-3.7 5.6,-3 z"
         id="path202"
         inkscape:connector-curvature="0"
         style="fill:#ffffff" /></g><path
       class="st25"
       d="m 1062.5,179.7 19.9,-21.5 m 47.5,90.2 20.6,-22.9"
       id="path206"
       inkscape:connector-curvature="0"
       style="fill:#ffffff;stroke:#ffffff;stroke-width:3.13520002;stroke-miterlimit:10" /><g
       id="g216"><defs
         id="defs209"><path
           id="SVGID_00000000910313175957022340000014080750131522177455_"
           d="m 1136.7,248.8 c 2.7,2.7 7.9,10.1 10.5,12.9 5.3,5.8 6.6,7.9 11.8,13.8 5,5.7 10.4,10.8 14.7,17 2.5,3.6 5.7,8.2 8.9,11.2 0.2,-2 -0.4,-4.1 -1.1,-6.1 -0.5,-1.5 -3.2,-4.9 -2.7,-6.3 2.9,2.4 6.7,6 8.4,9.4 -0.7,-2.7 -1.6,-5.5 -2.7,-8.1 -1,-2.4 -1.7,-5.4 -3.4,-7.4 2.6,0.3 5.9,2.6 8.3,3.9 3.6,2 7.5,3.8 11.1,5.8 -0.2,-2.9 -2.9,-6.1 -4.3,-8.6 -1.3,-2.4 -2.9,-4.9 -4.4,-7.1 2.2,0.6 4.4,2.2 6.6,2.7 -3.2,-3 -4.9,-7.9 -8.7,-10.4 3.7,0.5 7.8,2.8 11.5,3.7 -0.8,-1.1 -2,-1.8 -3,-2.7 -1.8,-1.6 -3.1,-3.7 -4.9,-5.4 -4.2,-3.9 -8.6,-7.5 -12.8,-11.4 -3.7,-3.3 -7.7,-5.8 -11.3,-9.1 -5.3,-4.7 -9.7,-12.2 -16.3,-15.2"
           inkscape:connector-curvature="0" /></defs><use
         xlink:href="#SVGID_00000000910313175957022340000014080750131522177455_"
         style="overflow:visible;fill:#ffd285"
         id="use211"
         x="0"
         y="0"
         width="100%"
         height="100%" /><clipPath
         id="SVGID_00000152971472301393927700000015021838583026132159_"><use
           xlink:href="#SVGID_00000000910313175957022340000014080750131522177455_"
           style="overflow:visible"
           id="use213"
           x="0"
           y="0"
           width="100%"
           height="100%" /></clipPath></g><circle
       class="st29"
       cx="1170.4"
       cy="145.7"
       r="31.200001"
       id="circle218"
       style="fill:#0971b7" /><circle
       cx="1175.1"
       cy="138.5"
       r="21.799999"
       style="fill:#00a0d9"
       id="circle220" /><path
       d="m 1141.7,159 c 0,0 -21.7,1.7 -17.5,-3.4 4.2,-5.1 26.7,-13.7 45.1,-18.7 18.4,-5 36.5,-7.7 43.8,-7.2 7.3,0.5 -11.5,10.1 -11.5,10.1 0,0 3.2,-7.6 -20.4,-0.9 -23.6,6.7 -35.6,12.1 -35.6,12.1 0,0 -8,2.8 -3.9,8 z"
       style="fill:#75e4ea"
       id="path222"
       inkscape:connector-curvature="0" /><path
       class="st29"
       d="m 1187.3,137.4 c 0,0 -24.7,9.7 -33,22.2 l -3.9,-11.1 c -0.1,0.1 25,-10.1 36.9,-11.1 z"
       id="path224"
       inkscape:connector-curvature="0"
       style="fill:#0971b7" /></g></svg>