<?xml version="1.0" encoding="UTF-8" standalone="no"?>
<svg
   xmlns:dc="http://purl.org/dc/elements/1.1/"
   xmlns:cc="http://creativecommons.org/ns#"
   xmlns:rdf="http://www.w3.org/1999/02/22-rdf-syntax-ns#"
   xmlns:svg="http://www.w3.org/2000/svg"
   xmlns="http://www.w3.org/2000/svg"
   xmlns:xlink="http://www.w3.org/1999/xlink"
   xmlns:sodipodi="http://sodipodi.sourceforge.net/DTD/sodipodi-0.dtd"
   xmlns:inkscape="http://www.inkscape.org/namespaces/inkscape"
   viewBox="0 0 299.99999 737.3"
   xml:space="preserve"
   version="1.1"
   id="svg388"
   sodipodi:docname="scienceBR.svg"
   width="300"
   height="737.29999"
   inkscape:version="0.92.4 (5da689c313, 2019-01-14)"><metadata
     id="metadata394"><rdf:RDF><cc:Work
         rdf:about=""><dc:format>image/svg+xml</dc:format><dc:type
           rdf:resource="http://purl.org/dc/dcmitype/StillImage" /><dc:title></dc:title></cc:Work></rdf:RDF></metadata><defs
     id="defs392" /><sodipodi:namedview
     pagecolor="#ffffff"
     bordercolor="#666666"
     borderopacity="1"
     objecttolerance="10"
     gridtolerance="10"
     guidetolerance="10"
     inkscape:pageopacity="0"
     inkscape:pageshadow="2"
     inkscape:window-width="1920"
     inkscape:window-height="1016"
     id="namedview390"
     showgrid="false"
     inkscape:zoom="0.9650482"
     inkscape:cx="655.15353"
     inkscape:cy="410.35808"
     inkscape:window-x="0"
     inkscape:window-y="36"
     inkscape:window-maximized="1"
     inkscape:current-layer="RH_Graphic" /><style
     id="style2">.st0{fill:#ededed;stroke:#25c7a1;stroke-miterlimit:10}.st1{fill:#2d75be}.st2{fill:#555d68}.st3{fill:#fff;stroke:#555d68;stroke-miterlimit:10}.st4{fill:#ededed}.st5{fill:#223242}.st10{fill:#009dd6}.st12{opacity:.49;fill:#01528a}.st13{opacity:.5;fill:#bae2f7}.st14{fill:#9da3e0}.st15{fill:#3e437a}.st16{fill:#00a1d9}.st17{fill:#074d82}.st19{fill:#7776ab}.st23{fill:#ba4044}.st24,.st25{fill:#fff}.st25{stroke:#fff;stroke-width:3.1352;stroke-miterlimit:10}.st29{fill:#0971b7}.st32{fill-rule:evenodd;clip-rule:evenodd}.st32,.st33{fill:#c6d9fa}.st36,.st38{fill-rule:evenodd;clip-rule:evenodd;fill:#fff}.st38{fill:#1c1c1c}.st40{fill:#4a4848}.st43{fill:#2554ab}.st44{fill:#2385df}.st45{fill-rule:evenodd;clip-rule:evenodd;fill:#8169d6}.st46{fill:#ac8fff}.st52{fill:#61cfed}.st53{fill:#063169}.st54{fill:#007d3b}.st57{fill:#1652a1}.st59{fill:#e6e6e6}</style><g
     id="RH_Graphic"
     transform="translate(-1050)"><defs
       id="defs49"><path
         id="SVGID_1_"
         d="m 1313.2,234.5 35.3,206 -144.2,0.6 7.7,-177.8 z"
         inkscape:connector-curvature="0" /></defs><clipPath
       id="SVGID_00000090274812190717197600000014014865609368410764_"><use
         xlink:href="#SVGID_1_"
         style="overflow:visible"
         id="use51"
         x="0"
         y="0"
         width="100%"
         height="100%" /></clipPath><g
       clip-path="url(#SVGID_00000090274812190717197600000014014865609368410764_)"
       id="g62"><defs
         id="defs55"><path
           id="SVGID_00000032609759154323632040000006710800717619627186_"
           d="m 1325.1,301.3 -75.2,36.9 -2.1,12.7 9.2,8.9 26.2,3.7 6.3,18.2 -7.1,13.9 -15,6.3 -5.9,26.4 34.1,-11.8 4.4,-16.9 43.6,-23.9 23.6,10.2 19,-23.6 -14.6,-30.4 z"
           inkscape:connector-curvature="0" /></defs><clipPath
         id="SVGID_00000076564140439506068900000013978499366118275968_"><use
           xlink:href="#SVGID_00000032609759154323632040000006710800717619627186_"
           style="overflow:visible"
           id="use57"
           x="0"
           y="0"
           width="100%"
           height="100%" /></clipPath><path
         style="fill:#02518c"
         d="m 1264,353.3 c -0.8,1.5 -0.2,3.3 1.2,4 l 2.4,1.3 v 0.1 c -1.8,5.1 -2.7,10.3 -2.7,15.4 0,1.4 -1,2.6 -2.3,2.9 l -0.2,0.1 c -1.6,0.4 -2.6,2 -2.2,3.6 l 1.9,8.4 c 0.4,1.6 2,2.6 3.6,2.2 1.4,-0.3 2.8,0.4 3.4,1.7 1.8,4.1 4.3,7.9 7.3,11.3 0.9,1 1,2.6 0.2,3.7 l -0.1,0.2 c -1,1.3 -0.7,3.2 0.6,4.2 l 6.9,5.1 c 1.3,1 3.2,0.7 4.2,-0.6 l 0.1,-0.1 c 0.8,-1.1 2.4,-1.5 3.6,-0.9 1,0.5 2.1,0.9 3.1,1.3 3.2,1.2 6.4,1.9 9.6,2.3 1.4,0.2 2.5,1.3 2.6,2.7 v 0.5 c 0.1,1.6 1.6,2.9 3.2,2.7 l 8.6,-0.7 c 1.6,-0.1 2.9,-1.6 2.7,-3.2 V 421 c -0.1,-1.4 0.7,-2.7 2.1,-3.1 4.2,-1.3 8.1,-3.1 11.7,-5.5 1.2,-0.8 2.7,-0.6 3.7,0.4 l 0.6,0.6 c 1.2,1.2 3.1,1.1 4.2,0 l 6,-6.1 c 1.2,-1.2 1.1,-3.1 0,-4.2 l -0.7,-0.7 c -1,-1 -1.2,-2.5 -0.4,-3.7 1.7,-2.7 3.1,-5.5 4.2,-8.6 0.2,-0.4 0.3,-0.9 0.4,-1.3 0.4,-1.3 1.7,-2.2 3.1,-2 l 1.3,0.1 c 1.6,0.2 3.1,-1 3.3,-2.7 l 0.9,-8.5 c 0.2,-1.6 -1,-3.1 -2.7,-3.3 l -1.2,-0.1 c -1.4,-0.1 -2.5,-1.3 -2.7,-2.7 -0.4,-3.8 -1.3,-7.6 -2.7,-11.2 -0.5,-1.3 0,-2.8 1.1,-3.6 l 1.2,-0.8 c 1.4,-0.9 1.7,-2.8 0.8,-4.1 l -4.8,-7.1 c -0.9,-1.4 -2.8,-1.7 -4.1,-0.8 l -1,0.7 c -1.2,0.8 -2.7,0.6 -3.8,-0.4 -2.1,-2.1 -4.5,-4 -7,-5.6 -1.2,-0.8 -1.6,-2.2 -1.2,-3.5 l 0.4,-1.2 c 0.6,-1.5 -0.2,-3.3 -1.8,-3.8 l -8.1,-2.9 c -1.5,-0.6 -3.3,0.2 -3.8,1.8 l -0.3,0.9 c -0.5,1.3 -1.8,2.1 -3.2,1.9 -4.3,-0.7 -8.6,-0.7 -12.8,-0.1 -1.4,0.2 -2.7,-0.6 -3.2,-1.9 l -0.4,-0.9 c -0.6,-1.5 -2.3,-2.3 -3.8,-1.7 l -8,3.1 c -1.5,0.6 -2.3,2.3 -1.7,3.8 l 0.2,0.5 c 0.5,1.3 0,2.8 -1.2,3.6 -3.7,2.3 -7.1,5.1 -10,8.5 -0.9,1 -2.4,1.3 -3.6,0.6 l -0.5,-0.3 c -1.5,-0.8 -3.3,-0.2 -4,1.2 z m 64.3,-12.3 c 14.5,7.8 22.3,24.3 18.9,40.5 -5.1,25 -32.5,37.8 -55,25.7 -14.5,-7.8 -22.3,-24.3 -18.9,-40.5 5.1,-24.9 32.5,-37.7 55,-25.7 z"
         clip-path="url(#SVGID_00000076564140439506068900000013978499366118275968_)"
         id="path60"
         inkscape:connector-curvature="0" /></g><path
       style="fill:#b3b3b2"
       d="m 1283.9,385.8 2.8,-0.6 c 0.4,-0.1 0.8,0.1 1,0.5 0.7,1.4 1.5,2.7 2.4,3.9 0.2,0.3 0.2,0.8 0,1.1 l -1.9,2.2 c -0.3,0.3 -0.3,0.8 0,1.1 l 1.8,1.9 c 0.3,0.3 0.8,0.4 1.1,0.1 l 2.4,-1.8 c 0.3,-0.2 0.7,-0.2 1.1,0 1.2,1 2.4,1.8 3.7,2.5 0.3,0.2 0.5,0.6 0.4,1 l -0.8,2.8 c -0.1,0.4 0.1,0.9 0.5,1 l 2.4,1 c 0.4,0.2 0.9,0 1.1,-0.4 l 1.4,-2.6 c 0.2,-0.3 0.6,-0.5 1,-0.4 1.4,0.4 2.9,0.7 4.4,0.8 0.4,0 0.7,0.3 0.8,0.7 l 0.4,2.9 c 0.1,0.4 0.4,0.7 0.9,0.7 l 2.6,-0.1 c 0.4,0 0.8,-0.3 0.8,-0.8 l 0.3,-3 c 0,-0.4 0.3,-0.7 0.7,-0.8 0.5,-0.1 1.1,-0.2 1.6,-0.3 0.9,-0.2 1.9,-0.5 2.8,-0.8 0.4,-0.1 0.8,0 1,0.4 l 1.6,2.5 c 0.2,0.4 0.7,0.5 1.1,0.3 l 2.3,-1.1 c 0.4,-0.2 0.6,-0.6 0.4,-1.1 l -1,-2.8 c -0.1,-0.4 0,-0.8 0.3,-1 1.3,-0.8 2.5,-1.7 3.6,-2.8 0.3,-0.3 0.7,-0.3 1.1,-0.1 l 2.4,1.6 c 0.4,0.2 0.8,0.2 1.1,-0.2 l 1.7,-2 c 0.3,-0.3 0.3,-0.8 0,-1.1 l -2,-2.1 c -0.3,-0.3 -0.3,-0.7 -0.1,-1.1 0.8,-1.3 1.5,-2.6 2.1,-4 0.2,-0.4 0.5,-0.6 0.9,-0.5 l 2.8,0.5 c 0.4,0.1 0.8,-0.2 1,-0.6 l 0.7,-2.5 c 0.1,-0.4 -0.1,-0.9 -0.5,-1 l -2.6,-1.1 c -0.4,-0.2 -0.6,-0.5 -0.5,-0.9 0.2,-1.5 0.3,-3 0.3,-4.6 0,-0.4 0.3,-0.7 0.6,-0.8 l 2.7,-0.7 c 0.4,-0.1 0.7,-0.5 0.6,-0.9 l -0.4,-2.5 c -0.1,-0.4 -0.4,-0.7 -0.9,-0.7 l -2.8,0.1 c -0.4,0 -0.7,-0.2 -0.9,-0.6 -0.4,-1.5 -0.9,-2.9 -1.6,-4.3 -0.2,-0.4 -0.1,-0.8 0.2,-1 l 2.2,-1.7 c 0.3,-0.3 0.4,-0.8 0.2,-1.1 l -1.4,-2.2 c -0.2,-0.4 -0.7,-0.5 -1.1,-0.3 l -2.5,1.2 c -0.4,0.2 -0.8,0.1 -1,-0.2 -1,-1.2 -2.1,-2.3 -3.2,-3.3 -0.3,-0.3 -0.4,-0.7 -0.2,-1 l 1.2,-2.4 c 0.2,-0.4 0.1,-0.9 -0.3,-1.1 l -2.1,-1.4 c -0.4,-0.2 -0.8,-0.2 -1.1,0.2 l -1.8,2.1 c -0.3,0.3 -0.7,0.4 -1,0.2 -1.4,-0.7 -2.8,-1.2 -4.3,-1.7 -0.4,-0.1 -0.6,-0.5 -0.6,-0.9 l 0.1,-2.7 c 0,-0.4 -0.3,-0.8 -0.7,-0.9 l -2.5,-0.4 c -0.4,-0.1 -0.8,0.2 -1,0.6 l -0.7,2.6 c -0.1,0.4 -0.5,0.6 -0.9,0.6 -1.1,0 -2.3,0 -3.4,0.1 -0.4,0 -0.8,-0.2 -0.9,-0.6 l -0.9,-2.6 c -0.1,-0.4 -0.6,-0.7 -1,-0.6 l -2.5,0.5 c -0.4,0.1 -0.7,0.5 -0.7,0.9 l 0.3,2.7 c 0,0.4 -0.2,0.8 -0.6,0.9 -1.5,0.5 -2.9,1.2 -4.2,1.9 -0.3,0.2 -0.8,0.1 -1.1,-0.2 l -1.9,-2 c -0.3,-0.3 -0.8,-0.4 -1.1,-0.1 l -2.1,1.5 c -0.3,0.3 -0.4,0.7 -0.2,1.1 l 1.4,2.4 c 0.2,0.3 0.1,0.8 -0.1,1 -1.1,1.1 -2.1,2.2 -3,3.5 -0.2,0.3 -0.7,0.4 -1,0.3 l -2.6,-1.1 c -0.4,-0.2 -0.9,0 -1.1,0.4 l -1.3,2.2 c -0.2,0.4 -0.1,0.9 0.2,1.1 l 2.3,1.6 c 0.3,0.2 0.4,0.6 0.3,1 -0.6,1.4 -1,2.9 -1.3,4.4 -0.1,0.4 -0.4,0.7 -0.8,0.7 l -2.8,0.1 c -0.4,0 -0.8,0.3 -0.8,0.8 l -0.2,2.6 c 0,0.4 0.3,0.8 0.7,0.9 l 2.8,0.6 c 0.4,0.1 0.7,0.4 0.7,0.8 0.1,1.5 0.3,3 0.6,4.5 0.1,0.4 -0.1,0.8 -0.5,0.9 l -2.6,1.2 c -0.4,0.2 -0.6,0.6 -0.4,1 l 0.8,2.4 c -0.1,0.9 0.3,1.1 0.8,1.1 z m 19.5,-2.4 c -1.6,-1.2 -2.8,-2.9 -3.6,-4.8 -0.2,-0.5 0.1,-1 0.6,-1.2 l 2.9,-0.6 c 0.4,-0.1 0.8,0.1 1,0.5 1.2,2.5 3.7,4.1 6.4,4.2 0.4,0 0.7,0.3 0.8,0.7 l 0.6,2.9 c 0.1,0.5 -0.3,1 -0.8,1 -2.1,0.1 -4.1,-0.4 -5.9,-1.3 -0.1,0 -0.2,-0.1 -0.3,-0.1 -0.1,0 -0.2,-0.1 -0.2,-0.1 -0.1,0 -0.2,-0.1 -0.2,-0.1 -0.1,-0.1 -0.2,-0.1 -0.2,-0.2 -0.4,-0.4 -0.7,-0.6 -1.1,-0.9 z m 12,1.8 c -0.5,0.2 -1,-0.1 -1.1,-0.6 l -0.6,-2.8 c -0.1,-0.4 0.1,-0.8 0.5,-1 2.6,-1.2 4.3,-3.8 4.4,-6.6 0,-0.4 0.3,-0.7 0.7,-0.8 l 2.9,-0.6 c 0.5,-0.1 1,0.3 1,0.8 0.1,2.1 -0.4,4.1 -1.3,5.9 -0.4,0.7 -0.8,1.4 -1.3,2 -1.5,1.6 -3.2,2.9 -5.2,3.7 z m 3,-20.7 c 1.6,1.3 3,3 3.8,5 0.2,0.5 -0.1,1 -0.6,1.2 l -2.8,0.6 c -0.4,0.1 -0.8,-0.1 -1,-0.5 -1.2,-2.6 -3.9,-4.3 -6.8,-4.3 -0.4,0 -0.7,-0.3 -0.8,-0.7 l -0.6,-2.8 c -0.1,-0.5 0.3,-1 0.8,-1 2.2,-0.1 4.3,0.3 6.1,1.3 0.3,0.1 0.5,0.3 0.8,0.4 0.1,0 0.2,0.1 0.2,0.2 0.1,0.1 0.2,0.1 0.2,0.2 0.1,0.1 0.2,0.1 0.2,0.2 0.1,0.1 0.2,0.1 0.2,0.2 0.1,-0.1 0.2,-0.1 0.3,0 z m -15.6,10.2 -2.8,0.6 c -0.5,0.1 -1,-0.3 -1,-0.8 -0.1,-2.2 0.4,-4.2 1.3,-6.1 0.4,-0.7 0.8,-1.4 1.3,-2 1.2,-1.6 2.9,-2.8 4.8,-3.6 0.5,-0.2 1,0.1 1.2,0.6 l 0.6,2.9 c 0.1,0.4 -0.1,0.8 -0.5,0.9 -2.5,1.3 -4.1,3.8 -4.1,6.6 -0.1,0.5 -0.4,0.9 -0.8,0.9 z m -9.6,-13.5 c -0.4,-0.3 -0.5,-0.8 -0.2,-1.2 3.2,-4.1 7.7,-7.1 13.1,-8.2 5.4,-1.2 10.8,-0.3 15.3,2 0.4,0.2 0.6,0.8 0.3,1.2 l -3.5,5.4 c -0.2,0.4 -0.7,0.5 -1.1,0.3 -2.8,-1.3 -6.1,-1.8 -9.3,-1 -3.3,0.7 -6.1,2.5 -8.1,4.9 -0.3,0.3 -0.8,0.4 -1.1,0.2 z m 38,23.3 c -0.2,0.4 -0.8,0.6 -1.2,0.3 l -5.4,-3.5 c -0.4,-0.2 -0.5,-0.7 -0.3,-1.1 1.3,-2.8 1.8,-6.1 1.1,-9.4 -0.7,-3.3 -2.5,-6.1 -4.9,-8.1 -0.3,-0.3 -0.4,-0.8 -0.2,-1.1 l 3.5,-5.4 c 0.3,-0.4 0.8,-0.5 1.2,-0.2 4.1,3.2 7.1,7.7 8.3,13.2 1.1,5.3 0.3,10.7 -2.1,15.3 z m -2.3,3.5 c -3.2,4.1 -7.7,7.1 -13.1,8.2 -5.4,1.2 -10.8,0.3 -15.4,-2.1 -0.4,-0.2 -0.6,-0.8 -0.3,-1.2 l 3.5,-5.4 c 0.2,-0.4 0.7,-0.5 1.1,-0.3 2.8,1.3 6.1,1.8 9.4,1.1 3.3,-0.7 6.1,-2.5 8.1,-4.9 0.3,-0.3 0.8,-0.4 1.1,-0.2 l 5.4,3.5 c 0.5,0.4 0.5,0.9 0.2,1.3 z m -32,3.9 c -4,-3.2 -7,-7.7 -8.2,-13.1 -1.2,-5.4 -0.3,-10.8 2,-15.4 0.2,-0.4 0.8,-0.6 1.2,-0.3 l 5.4,3.5 c 0.4,0.2 0.5,0.7 0.3,1.1 -1.3,2.8 -1.8,6.1 -1.1,9.4 0.7,3.3 2.5,6 4.8,8.1 0.3,0.3 0.4,0.8 0.2,1.1 l -3.5,5.4 c -0.2,0.4 -0.7,0.5 -1.1,0.2 z"
       clip-path="url(#SVGID_00000090274812190717197600000014014865609368410764_)"
       id="path64"
       inkscape:connector-curvature="0" /><path
       class="st5"
       d="m 1244.6,452.8 c 0.5,0.6 0.5,1.4 0,2 l -0.1,0.1 c -0.5,0.7 -0.4,1.7 0.3,2.3 l 3.6,2.9 c 0.7,0.5 1.7,0.4 2.3,-0.3 0.5,-0.6 1.3,-0.8 2,-0.4 2.2,1.1 4.5,1.8 6.9,2.2 0.7,0.1 1.3,0.8 1.3,1.5 v 0.1 c 0,0.9 0.8,1.6 1.7,1.5 l 4.6,-0.2 c 0.9,0 1.6,-0.8 1.5,-1.7 v -0.1 c 0,-0.8 0.5,-1.4 1.2,-1.6 0.6,-0.2 1.2,-0.3 1.7,-0.5 1.7,-0.6 3.3,-1.4 4.8,-2.3 0.6,-0.4 1.5,-0.3 2,0.3 l 0.2,0.2 c 0.6,0.6 1.6,0.7 2.3,0 l 3.3,-3.2 c 0.6,-0.6 0.7,-1.6 0,-2.3 l -0.2,-0.2 c -0.5,-0.5 -0.6,-1.4 -0.2,-2 1.3,-1.9 2.3,-4.1 3,-6.3 0.2,-0.7 0.9,-1.2 1.7,-1.1 h 0.5 c 0.9,0.1 1.7,-0.6 1.7,-1.5 l 0.4,-4.6 c 0.1,-0.9 -0.6,-1.7 -1.4,-1.7 h -0.5 c -0.8,-0.1 -1.4,-0.7 -1.4,-1.4 -0.2,-1.7 -0.6,-3.4 -1.2,-5 -0.1,-0.2 -0.2,-0.5 -0.3,-0.7 -0.3,-0.7 0,-1.5 0.6,-1.9 l 0.6,-0.4 c 0.7,-0.5 0.9,-1.5 0.5,-2.2 l -2.5,-3.9 c -0.5,-0.7 -1.5,-0.9 -2.2,-0.5 l -0.5,0.4 c -0.6,0.4 -1.5,0.3 -2,-0.2 -1.5,-1.5 -3.2,-2.7 -4.9,-3.8 -0.7,-0.4 -1,-1.1 -0.7,-1.9 l 0.2,-0.7 c 0.3,-0.8 -0.2,-1.7 -1.1,-2 l -4.4,-1.4 c -0.8,-0.3 -1.7,0.2 -2,1.1 l -0.2,0.6 c -0.2,0.7 -0.9,1.2 -1.7,1.1 -1.6,-0.2 -3.2,-0.2 -4.8,0 -0.7,0.1 -1.4,-0.4 -1.7,-1.1 l -0.2,-0.7 c -0.3,-0.8 -1.2,-1.3 -2,-1 l -4.4,1.5 c -0.8,0.3 -1.3,1.2 -1,2 l 0.2,0.5 c 0.3,0.7 0,1.5 -0.7,1.9 -2,1.2 -3.8,2.6 -5.4,4.3 -0.5,0.5 -1.3,0.7 -2,0.3 l -0.5,-0.3 c -0.8,-0.4 -1.8,-0.2 -2.2,0.6 l -2.3,4 c -0.4,0.8 -0.2,1.8 0.6,2.2 l 0.3,0.1 c 0.7,0.4 1,1.2 0.7,1.9 -0.8,2.2 -1.2,4.6 -1.3,6.9 0,0.7 -0.6,1.4 -1.3,1.5 l -0.3,0.1 c -0.9,0.2 -1.4,1 -1.3,1.9 l 0.9,4.5 c 0.2,0.9 1,1.4 1.9,1.3 l 1.4,-0.3 c 0.9,3 2.3,5.4 4,7.6 z m 7.6,-9.4 c -4,-7.8 0.5,-17.1 9.1,-18.7 5.5,-1.1 11.2,1.7 13.8,6.7 4,7.8 -0.5,17.1 -9.1,18.7 -5.6,1 -11.2,-1.7 -13.8,-6.7 z"
       style="fill:#223242"
       clip-path="url(#SVGID_00000090274812190717197600000014014865609368410764_)"
       id="path66"
       inkscape:connector-curvature="0" /><g
       clip-path="url(#SVGID_00000090274812190717197600000014014865609368410764_)"
       id="g72"><path
         class="st10"
         d="m 1243.8,392.2 c 0.3,0.9 1.3,1.3 2.1,0.9 l 1.4,-0.5 c 1.5,2.6 3.4,4.9 5.5,6.7 0.6,0.5 0.7,1.3 0.4,2 l -0.1,0.1 c -0.4,0.8 -0.1,1.8 0.7,2.2 l 4.2,2.2 c 0.8,0.4 1.8,0.1 2.2,-0.7 0.4,-0.7 1.2,-1 1.9,-0.8 2.4,0.7 4.9,1 7.4,1 0.8,0 1.4,0.5 1.6,1.3 v 0.1 c 0.2,0.9 1.1,1.4 2,1.2 l 4.7,-1.1 c 0.9,-0.2 1.4,-1.1 1.2,-2 v -0.1 c -0.2,-0.8 0.2,-1.5 0.9,-1.9 0.6,-0.3 1.1,-0.6 1.7,-0.9 1.6,-0.9 3.1,-2 4.5,-3.2 0.6,-0.5 1.4,-0.6 2.1,-0.1 l 0.2,0.1 c 0.7,0.5 1.8,0.4 2.3,-0.4 l 2.8,-3.9 c 0.5,-0.7 0.4,-1.8 -0.4,-2.3 l -0.2,-0.2 c -0.6,-0.5 -0.9,-1.3 -0.5,-2 1,-2.2 1.6,-4.6 1.9,-7 0.1,-0.8 0.7,-1.4 1.5,-1.4 h 0.5 c 0.9,-0.1 1.6,-0.9 1.5,-1.8 l -0.4,-4.8 c -0.1,-0.9 -0.9,-1.6 -1.8,-1.5 h -0.5 c -0.8,0.1 -1.5,-0.4 -1.7,-1.2 -0.5,-1.7 -1.2,-3.3 -2.1,-4.9 -0.1,-0.2 -0.3,-0.4 -0.4,-0.7 -0.4,-0.7 -0.3,-1.5 0.3,-2.1 l 0.5,-0.5 c 0.7,-0.6 0.7,-1.7 0.1,-2.3 l -3.3,-3.5 c -0.6,-0.7 -1.7,-0.7 -2.3,-0.1 l -0.5,0.5 c -0.6,0.5 -1.4,0.6 -2.1,0.2 -1.8,-1.2 -3.7,-2.2 -5.7,-2.9 -0.7,-0.3 -1.2,-1 -1.1,-1.8 l 0.1,-0.8 c 0.1,-0.9 -0.5,-1.7 -1.4,-1.8 l -4.8,-0.6 c -0.9,-0.1 -1.7,0.5 -1.8,1.4 l -0.1,0.7 c -0.1,0.8 -0.7,1.4 -1.5,1.5 -1.7,0.1 -3.3,0.4 -4.9,0.9 -0.7,0.2 -1.5,-0.1 -1.9,-0.8 l -0.4,-0.6 c -0.5,-0.8 -1.5,-1.1 -2.3,-0.6 l -4.2,2.4 c -0.8,0.5 -1.1,1.5 -0.6,2.3 l 0.3,0.5 c 0.4,0.7 0.2,1.6 -0.4,2.1 -1.8,1.6 -3.4,3.4 -4.7,5.4 -0.4,0.6 -1.2,0.9 -1.9,0.7 l -0.5,-0.2 c -0.9,-0.3 -1.8,0.1 -2.1,1 l -1.6,4.5 c -0.3,0.9 0.1,1.8 1,2.1 l 0.3,0.1 c 0.7,0.3 1.2,1 1.1,1.8 -0.4,2.4 -0.4,4.9 -0.1,7.3 0.1,0.8 -0.3,1.5 -1,1.8 l -0.3,0.1 c -0.9,0.3 -1.3,1.3 -0.9,2.1 z m 19.7,-27.5 c 6.8,-2.6 14.6,-0.5 19,5.3 6.9,8.9 3.3,21.8 -7.2,25.8 -6.8,2.6 -14.6,0.5 -19,-5.3 -6.8,-8.9 -3.3,-21.8 7.2,-25.8 z"
         id="path68"
         inkscape:connector-curvature="0"
         style="fill:#009dd6" /><circle
         transform="rotate(-74.413,1269.417,380.264)"
         class="st10"
         cx="1269.4"
         cy="380.20001"
         r="7.8000002"
         id="circle70"
         style="fill:#009dd6" /></g><g
       clip-path="url(#SVGID_00000090274812190717197600000014014865609368410764_)"
       id="g76"><path
         d="m 1296.7,451.2 1.3,1.7 c 0.8,1.1 2.4,1.2 3.3,0.2 l 0.1,-0.1 c 0.9,-0.9 2.3,-0.9 3.2,0 6.2,6.6 14.3,11.3 23.1,13.4 1.2,0.3 1.9,1.5 1.6,2.7 v 0.1 c -0.4,1.3 0.5,2.6 1.8,2.8 l 2.1,0.3 c 1.3,0.2 2.5,-0.9 2.5,-2.2 0,-1.3 1,-2.3 2.2,-2.3 4.4,0.1 8.9,-0.4 13.4,-1.7 4.5,-1.2 8.6,-3.1 12.4,-5.4 1.1,-0.7 2.5,-0.3 3.1,0.8 l 0.1,0.1 c 0.7,1.2 2.2,1.5 3.2,0.7 l 1.7,-1.3 c 1.1,-0.8 1.2,-2.4 0.2,-3.3 l -0.1,-0.1 c -0.9,-0.8 -0.9,-2.3 0,-3.2 6.4,-6.3 11,-14.4 13,-23.2 0.3,-1.2 1.5,-2 2.7,-1.6 l 0.5,0.1 c 1.3,0.4 2.6,-0.5 2.8,-1.8 l 0.3,-2.1 c 0.2,-1.3 -0.9,-2.5 -2.3,-2.5 h -0.6 c -1.2,0 -2.3,-1 -2.3,-2.2 0,-4.2 -0.5,-8.5 -1.7,-12.8 -1.3,-4.6 -3.1,-8.8 -5.5,-12.6 -0.7,-1.1 -0.3,-2.5 0.8,-3.1 l 0.8,-0.5 c 1.2,-0.7 1.5,-2.2 0.7,-3.2 l -1.3,-1.7 c -0.8,-1.1 -2.4,-1.1 -3.3,-0.2 l -0.7,0.7 c -0.8,0.9 -2.3,0.9 -3.2,0.1 -6.3,-6.4 -14.2,-10.8 -22.9,-12.9 -1.2,-0.3 -1.9,-1.5 -1.6,-2.7 l 0.3,-1.1 c 0.4,-1.3 -0.5,-2.6 -1.8,-2.8 l -2.1,-0.3 c -1.3,-0.2 -2.5,0.9 -2.5,2.3 v 1.1 c 0,1.3 -1,2.3 -2.2,2.3 -4.4,-0.1 -8.8,0.5 -13.2,1.7 -4.2,1.1 -8.1,2.8 -11.6,4.9 -1.1,0.6 -2.4,0.3 -3,-0.8 l -0.5,-0.9 c -0.6,-1.2 -2.2,-1.5 -3.2,-0.7 l -1.7,1.3 c -1.1,0.8 -1.2,2.4 -0.2,3.3 l 0.7,0.7 c 0.9,0.9 0.9,2.3 0,3.2 -6.5,6.1 -11.2,14 -13.5,22.7 -0.3,1.2 -1.5,1.9 -2.7,1.6 l -0.7,-0.2 c -1.3,-0.4 -2.6,0.5 -2.8,1.8 l -0.3,2.1 c -0.2,1.3 0.9,2.5 2.2,2.5 h 0.5 c 1.3,0 2.3,1 2.3,2.3 -0.2,4.6 0.4,9.4 1.7,14.1 1.1,4.2 2.8,8.1 4.9,11.6 0.6,1.1 0.3,2.4 -0.8,3 l -0.3,0.1 c -1.4,0.6 -1.7,2.1 -0.9,3.2 z m 1.3,-25.1 c -1.1,-7.9 0.3,-15.8 3.5,-22.7 0.5,-1.2 2,-1.6 3.1,-1 l 8.6,4.9 c 1,0.6 1.4,1.8 0.9,2.8 -1.7,4 -2.5,8.4 -2.1,12.9 0.1,1.1 -0.6,2 -1.6,2.3 l -9.6,2.7 c -1.3,0.3 -2.6,-0.6 -2.8,-1.9 z m 17.5,-22.4 -8.7,-4.9 c -1.2,-0.7 -1.5,-2.2 -0.6,-3.3 4.6,-6 10.8,-10.7 18.3,-13.5 1.2,-0.4 2.5,0.2 2.9,1.5 l 2.6,9.6 c 0.3,1.1 -0.3,2.2 -1.3,2.6 -4.1,1.7 -7.7,4.3 -10.4,7.5 -0.7,0.9 -1.8,1.1 -2.8,0.5 z m 18.7,-11.5 -2.6,-9.6 c -0.3,-1.3 0.5,-2.6 1.8,-2.8 7.8,-1.1 15.4,0.1 22.3,3.2 1.2,0.5 1.6,2 1,3.1 l -4.9,8.7 c -0.5,1 -1.7,1.4 -2.7,1 -3.9,-1.6 -8.2,-2.3 -12.5,-1.9 -1.2,0 -2.1,-0.7 -2.4,-1.7 z m 28.5,44.8 8.7,4.9 c 1.1,0.6 1.5,2.1 0.7,3.2 -4.5,6.2 -10.8,11.2 -18.4,14.1 -1.2,0.5 -2.6,-0.2 -2.9,-1.5 l -2.7,-9.6 c -0.3,-1.1 0.2,-2.2 1.3,-2.6 4.2,-1.8 7.8,-4.6 10.6,-8 0.6,-0.8 1.8,-1 2.7,-0.5 z m -18.7,12.1 2.7,9.6 c 0.4,1.3 -0.5,2.6 -1.8,2.8 -8,1.2 -16,-0.1 -23.1,-3.3 -1.2,-0.5 -1.6,-2 -1,-3.1 l 4.9,-8.6 c 0.5,-1 1.7,-1.4 2.8,-0.9 4.1,1.7 8.6,2.4 13.2,1.9 1,-0.1 2,0.6 2.3,1.6 z m -16.9,-14.2 c -14.7,-14.3 -1.9,-36.8 17.9,-31.5 2.1,0.6 4,1.7 5.6,3.2 14.7,14.3 1.9,36.8 -17.9,31.5 -2.1,-0.6 -4,-1.7 -5.6,-3.2 z m 36.4,-47.3 c 6,4.5 10.9,10.7 13.8,18.1 0.5,1.2 -0.2,2.6 -1.5,2.9 l -9.6,2.7 c -1.1,0.3 -2.2,-0.2 -2.6,-1.2 -1.8,-4.1 -4.5,-7.6 -7.8,-10.2 -0.8,-0.7 -1.1,-1.8 -0.5,-2.8 l 4.9,-8.7 c 0.7,-1.3 2.2,-1.6 3.3,-0.8 z m 16.2,26.9 c 1.2,7.9 0.1,15.8 -3,22.8 -0.5,1.2 -2,1.7 -3.1,1 l -8.7,-4.9 c -1,-0.5 -1.4,-1.7 -1,-2.7 1.6,-4 2.2,-8.4 1.7,-12.9 -0.1,-1.1 0.6,-2.1 1.6,-2.3 l 9.6,-2.7 c 1.4,-0.4 2.7,0.4 2.9,1.7 z m -65.7,39.1 c -6.1,-4.6 -11,-11 -13.8,-18.6 -0.4,-1.2 0.2,-2.5 1.5,-2.9 l 9.6,-2.6 c 1.1,-0.3 2.2,0.3 2.6,1.3 1.7,4.3 4.4,7.9 7.8,10.7 0.8,0.7 1,1.8 0.5,2.8 l -4.9,8.7 c -0.7,1.1 -2.3,1.4 -3.3,0.6 z"
         style="fill:#eb6061"
         id="path74"
         inkscape:connector-curvature="0" /></g><path
       class="st5"
       d="m 1408.1,373.2 c -3.5,37.5 -36.5,67.9 -62.8,68.4 -3.6,-8.1 -19,-111.5 -23.9,-141.4 -0.1,-0.5 -6.5,-39.4 -6.4,-47.3 9.4,2.3 25.3,30 35.2,27.2 4.2,-1.2 2.2,-17.1 6.3,-15.6 20.6,7.4 26.4,16.7 31.2,21.6 16.6,16.6 24.2,46.1 20.4,87.1 z"
       id="path78"
       inkscape:connector-curvature="0"
       style="fill:#223242" /><path
       class="st10"
       d="m 1315.1,252.5 41.2,12.1 10.9,10.5 6.9,29.8 -19.9,24 -24.9,13.9 z"
       id="path80"
       inkscape:connector-curvature="0"
       style="fill:#009dd6" /><path
       class="st12"
       d="m 1374.1,304.9 -33.7,-13.7 -3.4,7.3 12.7,27.8 6.5,1.8 z"
       id="path82"
       inkscape:connector-curvature="0"
       style="opacity:0.49000005;fill:#01528a" /><path
       class="st13"
       d="m 1346.6,317.6 -9.6,-18.8 -14.1,2.8 2.3,14.8 z m 7.1,-53.8 -10.2,11.5 -25.3,-0.2 -3.1,-22.8 z"
       id="path84"
       inkscape:connector-curvature="0"
       style="opacity:0.5;fill:#bae2f7" /><path
       class="st5"
       d="m 1329.7,344.9 -5.4,-30 12.7,-10.1 19.2,23.3 z m 15.6,94.8 c -6.2,43.9 -14.1,44.7 -18.2,81.9 0,0 -2.3,25 0.4,45.1 4,30 9.2,46.5 21.1,73.9 13.9,32.2 33.1,62 53.8,90.1 L 1219.8,688.5 1190.3,439 c 0.3,2.3 141.8,0.9 154.9,-0.2 0,0.4 0.1,0.6 0.1,0.9 z"
       id="path86"
       inkscape:connector-curvature="0"
       style="fill:#223242" /><path
       class="st10"
       d="m 1138.8,510.4 19.2,-29.6 -10.5,-19.2 6.3,-23.1 92.3,1.8 1.3,4.9 0.5,18.9 19.3,-7.2 15.2,9.9 -10.9,41.5 0.4,39.6 18.5,5.8 24.9,52.7 19.1,0.6 10,30 19.1,30.4 9.7,63.3 18.9,4.7 -216.1,1.5 8.8,-19.4 32.5,-69.2 -22.2,-44.6 -43,-16.9 -5.7,-13.6 7,-39.7 -17.2,-15.3 c -0.7,-3.3 0.5,-3.7 2.6,-7.8 z"
       id="path88"
       inkscape:connector-curvature="0"
       style="fill:#009dd6" /><path
       class="st12"
       d="m 1256.9,697.3 -34.6,0.6 2.5,38.5 34.6,-0.1 z"
       id="path90"
       inkscape:connector-curvature="0"
       style="opacity:0.49000005;fill:#01528a" /><path
       class="st5"
       d="m 1335.2,605.6 -56.2,64.5 52.1,-25.2 -103.5,68.7 10.8,22.7 171.5,-1.3 -42.3,-69.1 z"
       id="path92"
       inkscape:connector-curvature="0"
       style="fill:#223242" /><path
       class="st13"
       d="m 1271.4,652.7 -65.6,35.6 12.2,-44.3 36.1,-6.1 25.4,-15.2 z"
       id="path94"
       inkscape:connector-curvature="0"
       style="opacity:0.5;fill:#bae2f7" /><path
       class="st5"
       d="m 1147.5,461.6 18.5,-1.9 c 4.7,-0.5 9.4,0.4 13.6,2.7 l 20.6,11.1 -23.9,13.4 -3.6,12.2 -14.7,-18.3 z"
       id="path96"
       inkscape:connector-curvature="0"
       style="fill:#223242" /><path
       class="st13"
       d="m 1252.6,462.5 -9.2,28 -10,-0.1 5.4,-9.1 z m -79.9,36.6 -10.8,-8 -14.9,20.8 -8.4,-1.1 19.4,-30 z m 37,-5.4 -29.3,5.9 -6.7,9.7 -1.3,26.9 11,-5.5 11,-23.3 z m -62.8,78.5 9,-1.8 -6.9,-14.5 z"
       id="path98"
       inkscape:connector-curvature="0"
       style="opacity:0.5;fill:#bae2f7" /><path
       class="st5"
       d="m 1136.7,518.8 25.6,4.7 -12.9,31.3 3.3,-21.3"
       id="path100"
       inkscape:connector-curvature="0"
       style="fill:#223242" /><path
       class="st12"
       d="m 1254.6,536.7 c -1.5,0 -43.7,7.6 -43.7,7.6 l -0.5,34.6 80.2,-25.2 z"
       id="path102"
       inkscape:connector-curvature="0"
       style="opacity:0.49000005;fill:#01528a" /><path
       class="st5"
       d="m 1260.4,509.3 -24.4,58.5 -34.2,16.7 -49.4,2.2 32.8,14.1 c 6.6,2.4 11.7,7.7 14,14.3 l 16.9,33.8 -31.6,71.3 63.8,-83 -5.3,-44.2 30.1,-46.8 -1.2,-37.7 z"
       id="path104"
       inkscape:connector-curvature="0"
       style="fill:#223242" /><path
       class="st12"
       d="m 1176.3,486.9 3.6,12.5 -7.2,10.9 v -11.2 z m -20.4,83.5 18,10.7 4.1,5.1 -25.6,0.6 -5.5,-14.6 z m 115.9,-105.5 -12.1,5.2 -7.7,22.5 9.7,10.7 13.2,-8 4.5,-17.1 z"
       id="path106"
       inkscape:connector-curvature="0"
       style="opacity:0.49000005;fill:#01528a" /><path
       class="st13"
       d="m 1176.6,439.1 -7.1,20.3 -22,2.2 6,-23.1 z"
       id="path108"
       inkscape:connector-curvature="0"
       style="opacity:0.5;fill:#bae2f7" /><path
       class="st5"
       d="m 1249.4,440.3 6.2,18.1 -16.8,22.9 -23.5,-41.7 z"
       id="path110"
       inkscape:connector-curvature="0"
       style="fill:#223242" /><path
       class="st14"
       d="m 1180.7,394.4 c 0.4,0.7 0.2,1.5 -0.4,2 l -0.1,0.1 c -0.7,0.6 -0.8,1.6 -0.2,2.3 l 3.1,3.6 c 0.6,0.7 1.6,0.8 2.3,0.2 0.6,-0.5 1.5,-0.5 2.1,-0.1 2,1.5 4.2,2.8 6.5,3.7 0.7,0.3 1.2,1 1,1.8 v 0.1 c -0.1,0.9 0.5,1.8 1.4,1.9 l 4.7,0.7 c 0.9,0.1 1.8,-0.5 1.9,-1.4 v -0.1 c 0.1,-0.8 0.8,-1.4 1.6,-1.4 0.6,0 1.2,-0.1 1.9,-0.2 1.9,-0.3 3.7,-0.7 5.4,-1.3 0.7,-0.3 1.6,0 2,0.7 l 0.1,0.2 c 0.5,0.8 1.5,1 2.3,0.5 l 4,-2.6 c 0.8,-0.5 1,-1.5 0.5,-2.3 l -0.2,-0.2 c -0.4,-0.7 -0.3,-1.5 0.2,-2.1 1.7,-1.7 3.2,-3.7 4.4,-5.8 0.4,-0.7 1.2,-1 1.9,-0.8 l 0.5,0.1 c 0.9,0.3 1.8,-0.2 2.1,-1.1 l 1.4,-4.6 c 0.3,-0.9 -0.2,-1.8 -1.1,-2.1 l -0.5,-0.2 c -0.8,-0.2 -1.2,-0.9 -1.2,-1.7 0.1,-1.7 0.1,-3.5 -0.2,-5.3 0,-0.3 -0.1,-0.5 -0.1,-0.8 -0.1,-0.8 0.3,-1.5 1,-1.8 l 0.7,-0.3 c 0.9,-0.3 1.3,-1.3 0.9,-2.2 l -1.8,-4.4 c -0.3,-0.9 -1.3,-1.3 -2.2,-0.9 l -0.6,0.3 c -0.7,0.3 -1.6,0 -2,-0.6 -1.2,-1.8 -2.6,-3.4 -4.3,-4.8 -0.6,-0.5 -0.7,-1.4 -0.4,-2.1 l 0.4,-0.7 c 0.4,-0.8 0.1,-1.8 -0.7,-2.3 l -4.2,-2.3 c -0.8,-0.4 -1.8,-0.1 -2.3,0.7 l -0.3,0.6 c -0.4,0.7 -1.2,1 -2,0.8 -1.6,-0.5 -3.2,-0.8 -4.9,-1 -0.8,-0.1 -1.4,-0.7 -1.5,-1.4 l -0.1,-0.7 c -0.1,-0.9 -1,-1.5 -1.9,-1.4 l -4.8,0.7 c -0.9,0.1 -1.5,1 -1.4,1.9 l 0.1,0.5 c 0.1,0.8 -0.4,1.5 -1.1,1.8 -2.3,0.8 -4.4,1.9 -6.4,3.3 -0.6,0.4 -1.5,0.4 -2.1,-0.1 l -0.4,-0.4 c -0.7,-0.6 -1.7,-0.5 -2.3,0.2 l -3.2,3.6 c -0.6,0.7 -0.5,1.7 0.2,2.3 l 0.2,0.2 c 0.6,0.5 0.7,1.4 0.3,2.1 -1.2,2.1 -2.2,4.4 -2.7,6.8 -0.2,0.7 -0.9,1.3 -1.6,1.3 h -0.3 c -0.9,0 -1.7,0.7 -1.7,1.7 v 4.8 c 0,0.9 0.7,1.7 1.7,1.7 h 1.5 c 0.6,3 1.6,5.8 2.9,8.3 z m 2.2,-5.8 c -4,-13.7 6.2,-27.1 20.4,-27 9.2,0.1 17.3,6.2 19.9,15.1 4,13.7 -6.2,27.1 -20.4,27 -9.2,-0.1 -17.3,-6.2 -19.9,-15.1 z"
       id="path112"
       inkscape:connector-curvature="0"
       style="fill:#9da3e0" /><circle
       transform="rotate(-53.453,1203.079,382.632)"
       class="st14"
       cx="1203.1"
       cy="382.60001"
       r="16.700001"
       id="circle114"
       style="fill:#9da3e0" /><path
       class="st15"
       d="m 1119.3,413.7 2.9,-0.7 c 0.4,-0.1 0.8,0.1 1,0.4 0.7,1.4 1.6,2.6 2.5,3.8 0.3,0.3 0.3,0.8 0,1.1 l -1.8,2.3 c -0.3,0.3 -0.2,0.8 0.1,1.2 l 1.9,1.8 c 0.3,0.3 0.8,0.3 1.2,0.1 l 2.3,-1.9 c 0.3,-0.3 0.8,-0.3 1.1,0 1.2,0.9 2.5,1.7 3.9,2.5 0.4,0.2 0.5,0.6 0.4,1 l -0.7,2.9 c -0.1,0.4 0.1,0.9 0.5,1 l 2.5,0.9 c 0.4,0.2 0.9,0 1.1,-0.4 l 1.4,-2.7 c 0.2,-0.4 0.6,-0.5 1,-0.5 1.5,0.3 3,0.6 4.5,0.7 0.4,0 0.7,0.3 0.8,0.7 l 0.5,3 c 0.1,0.4 0.5,0.7 0.9,0.7 l 2.6,-0.2 c 0.4,0 0.8,-0.4 0.8,-0.8 l 0.1,-3 c 0,-0.4 0.3,-0.7 0.7,-0.8 0.5,-0.1 1.1,-0.2 1.6,-0.4 1,-0.2 1.9,-0.5 2.8,-0.9 0.4,-0.1 0.8,0 1,0.3 l 1.7,2.5 c 0.2,0.4 0.7,0.5 1.1,0.3 l 2.3,-1.2 c 0.4,-0.2 0.6,-0.7 0.4,-1.1 l -1.1,-2.8 c -0.1,-0.4 0,-0.8 0.3,-1 1.3,-0.9 2.4,-1.9 3.5,-2.9 0.3,-0.3 0.7,-0.3 1.1,-0.1 l 2.5,1.6 c 0.4,0.2 0.9,0.1 1.1,-0.2 l 1.6,-2.1 c 0.3,-0.3 0.2,-0.8 -0.1,-1.2 l -2.1,-2.1 c -0.3,-0.3 -0.3,-0.7 -0.1,-1.1 0.8,-1.3 1.5,-2.7 2,-4.1 0.1,-0.4 0.5,-0.6 0.9,-0.6 l 2.9,0.4 c 0.4,0.1 0.8,-0.2 1,-0.7 l 0.6,-2.5 c 0.1,-0.4 -0.1,-0.9 -0.5,-1 l -2.7,-1 c -0.4,-0.1 -0.6,-0.5 -0.6,-0.9 0.2,-1.5 0.2,-3.1 0.1,-4.6 0,-0.4 0.2,-0.8 0.6,-0.9 l 2.7,-0.8 c 0.4,-0.1 0.7,-0.6 0.6,-1 l -0.5,-2.6 c -0.1,-0.4 -0.5,-0.7 -0.9,-0.7 l -2.9,0.2 c -0.4,0 -0.8,-0.2 -0.9,-0.6 -0.5,-1.5 -1.1,-3 -1.8,-4.3 -0.2,-0.4 -0.1,-0.8 0.2,-1.1 l 2.1,-1.8 c 0.3,-0.3 0.4,-0.8 0.1,-1.1 l -1.5,-2.2 c -0.3,-0.4 -0.7,-0.5 -1.1,-0.3 l -2.5,1.3 c -0.4,0.2 -0.8,0.1 -1.1,-0.2 -1,-1.2 -2.2,-2.3 -3.4,-3.2 -0.3,-0.2 -0.4,-0.7 -0.3,-1 l 1.2,-2.5 c 0.2,-0.4 0,-0.9 -0.3,-1.1 l -2.2,-1.4 c -0.4,-0.2 -0.9,-0.1 -1.1,0.2 l -1.7,2.2 c -0.2,0.3 -0.7,0.4 -1,0.3 -1.4,-0.6 -2.9,-1.2 -4.5,-1.6 -0.4,-0.1 -0.7,-0.5 -0.7,-0.9 v -2.8 c 0,-0.4 -0.3,-0.8 -0.8,-0.9 l -2.6,-0.3 c -0.4,-0.1 -0.8,0.2 -1,0.7 l -0.7,2.7 c -0.1,0.4 -0.4,0.7 -0.8,0.7 -1.2,0 -2.3,0.1 -3.5,0.2 -0.4,0.1 -0.8,-0.2 -0.9,-0.6 l -1,-2.6 c -0.2,-0.4 -0.6,-0.6 -1,-0.5 l -2.5,0.7 c -0.4,0.1 -0.7,0.5 -0.6,1 l 0.4,2.8 c 0.1,0.4 -0.2,0.8 -0.5,0.9 -1.5,0.6 -2.9,1.3 -4.2,2.1 -0.3,0.2 -0.8,0.2 -1.1,-0.1 l -2,-2 c -0.3,-0.3 -0.8,-0.3 -1.2,-0.1 l -2.1,1.6 c -0.3,0.3 -0.4,0.8 -0.2,1.1 l 1.5,2.4 c 0.2,0.3 0.2,0.8 -0.1,1.1 -1.1,1.1 -2.1,2.3 -2.9,3.6 -0.2,0.3 -0.7,0.5 -1,0.3 l -2.6,-1 c -0.4,-0.2 -0.9,0 -1.1,0.4 l -1.2,2.3 c -0.2,0.4 -0.1,0.9 0.3,1.1 l 2.4,1.6 c 0.3,0.2 0.5,0.6 0.3,1 -0.5,1.5 -0.9,3 -1.2,4.5 -0.1,0.4 -0.4,0.7 -0.8,0.7 l -2.9,0.2 c -0.4,0 -0.8,0.4 -0.8,0.8 l -0.1,2.6 c 0,0.4 0.3,0.8 0.7,0.9 l 2.9,0.5 c 0.4,0.1 0.7,0.4 0.7,0.8 0.1,1.5 0.4,3 0.8,4.6 0.1,0.4 -0.1,0.8 -0.4,1 l -2.6,1.4 c -0.4,0.2 -0.6,0.7 -0.4,1.1 l 0.9,2.4 c 0.5,0.3 0.9,0.6 1.3,0.5 z m 19.9,-3.2 c -1.6,-1.2 -3,-2.8 -3.9,-4.8 -0.2,-0.5 0.1,-1.1 0.6,-1.2 l 2.9,-0.7 c 0.4,-0.1 0.8,0.1 1,0.4 1.3,2.5 3.9,4 6.7,4 0.4,0 0.8,0.3 0.8,0.7 l 0.7,2.9 c 0.1,0.5 -0.2,1 -0.8,1.1 -2.1,0.1 -4.2,-0.3 -6,-1.1 -0.1,0 -0.2,-0.1 -0.3,-0.1 -0.1,0 -0.2,-0.1 -0.3,-0.1 -0.1,0 -0.2,-0.1 -0.3,-0.1 -0.1,0 -0.2,-0.1 -0.3,-0.1 -0.2,-0.4 -0.5,-0.6 -0.8,-0.9 z m 12.2,1.4 c -0.5,0.2 -1.1,-0.1 -1.2,-0.6 l -0.7,-2.9 c -0.1,-0.4 0.1,-0.8 0.5,-1 2.6,-1.3 4.2,-4 4.2,-6.9 0,-0.4 0.3,-0.7 0.7,-0.8 l 2.9,-0.7 c 0.5,-0.1 1,0.2 1.1,0.8 0.2,2.1 -0.3,4.2 -1.1,6.1 -0.3,0.7 -0.7,1.4 -1.2,2.1 -1.5,1.6 -3.2,3 -5.2,3.9 z m 2.3,-21.2 c 1.7,1.2 3.1,2.9 4,5 0.2,0.5 -0.1,1.1 -0.6,1.2 l -2.9,0.7 c -0.4,0.1 -0.8,-0.1 -1,-0.4 -1.3,-2.6 -4.1,-4.2 -7.1,-4.1 -0.4,0 -0.8,-0.3 -0.9,-0.7 l -0.7,-2.9 c -0.1,-0.5 0.2,-1 0.8,-1.1 2.2,-0.2 4.3,0.2 6.3,1.1 0.3,0.1 0.5,0.3 0.8,0.4 0.1,0 0.2,0.1 0.3,0.1 0.1,0 0.2,0.1 0.2,0.1 0.1,0 0.2,0.1 0.2,0.2 0.1,0.1 0.2,0.1 0.2,0.2 0.2,0.1 0.3,0.2 0.4,0.2 z m -15.5,11.1 -2.9,0.7 c -0.5,0.1 -1,-0.2 -1.1,-0.8 -0.2,-2.2 0.2,-4.3 1.1,-6.2 0.3,-0.7 0.7,-1.4 1.2,-2.1 1.2,-1.6 2.8,-3 4.7,-3.9 0.5,-0.2 1.1,0 1.2,0.6 l 0.7,2.9 c 0.1,0.4 -0.1,0.8 -0.4,1 -2.5,1.4 -4,4 -4,6.9 0.2,0.4 -0.1,0.8 -0.5,0.9 z m -10.3,-13.5 c -0.4,-0.3 -0.6,-0.8 -0.3,-1.3 3.1,-4.2 7.6,-7.5 13,-8.9 5.4,-1.4 10.9,-0.7 15.7,1.5 0.5,0.2 0.6,0.8 0.4,1.2 l -3.4,5.7 c -0.2,0.4 -0.7,0.5 -1.1,0.4 -2.9,-1.2 -6.2,-1.6 -9.5,-0.7 -3.3,0.9 -6.1,2.8 -8.1,5.3 -0.3,0.3 -0.7,0.4 -1.1,0.2 z m 38.8,0.9 c 1,1.7 1.8,3.7 2.3,5.7 1.4,5.5 0.7,11 -1.5,15.7 -0.2,0.5 -0.8,0.6 -1.2,0.4 l -5.7,-3.4 c -0.4,-0.2 -0.5,-0.7 -0.4,-1.1 1.3,-2.9 1.6,-6.3 0.7,-9.6 -0.9,-3.3 -2.8,-6.1 -5.3,-8.1 -0.3,-0.3 -0.4,-0.8 -0.2,-1.1 l 3.4,-5.7 c 0.3,-0.4 0.8,-0.6 1.3,-0.3 2.6,2.1 4.9,4.6 6.6,7.5 m -1.4,25.1 c -3.1,4.2 -7.6,7.5 -13,8.9 -5.5,1.4 -11,0.7 -15.8,-1.5 -0.5,-0.2 -0.6,-0.8 -0.4,-1.2 l 3.4,-5.7 c 0.2,-0.4 0.7,-0.5 1.1,-0.4 2.9,1.3 6.3,1.6 9.6,0.8 3.3,-0.9 6.1,-2.8 8.1,-5.3 0.3,-0.3 0.7,-0.4 1.1,-0.2 l 5.7,3.4 c 0.4,0.2 0.5,0.8 0.2,1.2 z m -32.5,5.2 c -4.2,-3.1 -7.4,-7.6 -8.8,-13 -1.4,-5.5 -0.7,-11 1.5,-15.7 0.2,-0.5 0.8,-0.6 1.2,-0.4 l 5.7,3.4 c 0.4,0.2 0.5,0.7 0.4,1.1 -1.3,2.9 -1.6,6.3 -0.7,9.6 0.8,3.3 2.7,6.1 5.2,8 0.3,0.3 0.4,0.7 0.2,1.1 l -3.4,5.7 c -0.3,0.3 -0.9,0.5 -1.3,0.2 z"
       id="path116"
       inkscape:connector-curvature="0"
       style="fill:#3e437a" /><path
       class="st16"
       d="m 1123.6,344.2 0.3,1.5 c 0.2,0.9 1.2,1.5 2,1.1 h 0.1 c 0.8,-0.3 1.7,0.1 2,1 1.9,6 5.6,11.3 10.5,15.3 0.7,0.5 0.8,1.5 0.2,2.2 -0.6,0.7 -0.5,1.8 0.3,2.3 l 1.3,0.8 c 0.8,0.5 1.9,0.2 2.2,-0.7 0.3,-0.8 1.3,-1.1 2.1,-0.8 2.7,1.4 5.7,2.4 8.9,2.9 3.2,0.6 6.3,0.6 9.4,0.3 0.9,-0.1 1.6,0.5 1.7,1.4 v 0.1 c 0.1,0.9 0.9,1.6 1.8,1.4 l 1.5,-0.3 c 0.9,-0.2 1.4,-1.2 1.1,-2.1 v -0.1 c -0.3,-0.8 0.1,-1.7 0.9,-2 5.9,-2 11.2,-5.8 15.1,-10.7 0.5,-0.7 1.5,-0.8 2.2,-0.2 l 0.3,0.2 c 0.7,0.6 1.8,0.5 2.3,-0.3 l 0.8,-1.3 c 0.5,-0.8 0.2,-1.9 -0.7,-2.2 l -0.4,-0.2 c -0.8,-0.3 -1.1,-1.3 -0.8,-2.1 1.3,-2.6 2.2,-5.5 2.7,-8.5 0.6,-3.2 0.6,-6.5 0.3,-9.6 -0.1,-0.9 0.5,-1.6 1.4,-1.7 h 0.7 c 0.9,-0.1 1.6,-0.9 1.4,-1.8 l -0.3,-1.5 c -0.2,-0.9 -1.2,-1.4 -2.1,-1.1 l -0.6,0.3 c -0.8,0.3 -1.7,-0.1 -2,-0.9 -2,-5.9 -5.7,-11 -10.5,-14.9 -0.7,-0.5 -0.8,-1.5 -0.2,-2.2 l 0.5,-0.6 c 0.6,-0.7 0.5,-1.8 -0.3,-2.3 l -1.3,-0.8 c -0.8,-0.5 -1.9,-0.2 -2.2,0.7 l -0.3,0.7 c -0.3,0.8 -1.3,1.2 -2.1,0.8 -2.7,-1.3 -5.7,-2.3 -8.8,-2.9 -3,-0.5 -5.9,-0.6 -8.8,-0.4 -0.9,0.1 -1.6,-0.6 -1.7,-1.4 v -0.8 c -0.1,-0.9 -0.9,-1.6 -1.8,-1.4 l -1.5,0.3 c -0.9,0.2 -1.5,1.2 -1.1,2 l 0.2,0.6 c 0.3,0.8 -0.1,1.7 -1,2 -5.9,1.9 -11.2,5.5 -15.2,10.2 -0.5,0.7 -1.5,0.7 -2.2,0.2 l -0.4,-0.3 c -0.7,-0.6 -1.8,-0.5 -2.3,0.3 l -0.8,1.3 c -0.5,0.8 -0.2,1.9 0.7,2.2 l 0.3,0.2 c 0.8,0.4 1.1,1.3 0.7,2.1 -1.5,2.9 -2.6,6 -3.2,9.4 -0.5,3 -0.6,5.9 -0.4,8.8 0.1,0.9 -0.6,1.6 -1.4,1.7 h -0.2 c -0.9,0 -1.5,0.9 -1.3,1.8 z m 8.3,-15.4 c 1.7,-5.3 4.9,-9.8 9,-13.2 0.7,-0.6 1.7,-0.4 2.2,0.3 l 4,5.6 c 0.4,0.6 0.3,1.5 -0.2,2 -2.3,2 -4.1,4.5 -5.2,7.5 -0.3,0.7 -1,1.1 -1.7,1 l -6.9,-1.2 c -1,-0.2 -1.5,-1.1 -1.2,-2 z m 17.6,-8.8 -4,-5.7 c -0.5,-0.8 -0.3,-1.8 0.6,-2.2 4.7,-2.4 10,-3.5 15.5,-3 0.9,0.1 1.5,0.9 1.4,1.8 l -1.2,6.8 c -0.1,0.8 -0.8,1.3 -1.6,1.3 -3.1,-0.2 -6.1,0.4 -8.8,1.6 -0.6,0.2 -1.4,0 -1.9,-0.6 z m 15.2,-1.6 1.2,-6.8 c 0.2,-0.9 1.1,-1.5 2,-1.2 5.2,1.6 9.6,4.7 13,8.6 0.6,0.7 0.4,1.7 -0.3,2.2 l -5.6,4 c -0.6,0.4 -1.5,0.3 -2,-0.2 -2,-2.1 -4.4,-3.8 -7.3,-4.9 -0.7,-0.3 -1.1,-1 -1,-1.7 z m 4.6,36.6 4,5.7 c 0.5,0.7 0.3,1.8 -0.5,2.2 -4.7,2.5 -10.1,3.8 -15.8,3.3 -0.9,-0.1 -1.5,-0.9 -1.4,-1.8 l 1.2,-6.8 c 0.1,-0.8 0.8,-1.3 1.6,-1.3 3.2,0.1 6.3,-0.5 9,-1.9 0.6,-0.2 1.4,0 1.9,0.6 z m -15.4,2 -1.2,6.8 c -0.2,0.9 -1.1,1.5 -1.9,1.2 -5.4,-1.6 -10,-4.8 -13.5,-8.9 -0.6,-0.7 -0.4,-1.7 0.3,-2.2 l 5.6,-4 c 0.6,-0.4 1.5,-0.3 2,0.2 2.1,2.3 4.7,4.1 7.7,5.1 0.7,0.4 1.1,1.1 1,1.8 z m -6.4,-14 c -5,-13.4 9.8,-23.7 20.7,-14.4 1.1,1 2,2.2 2.5,3.6 5,13.4 -9.8,23.7 -20.7,14.4 -1.1,-0.9 -1.9,-2.1 -2.5,-3.6 z m 37,-18.8 c 2.5,4.6 3.7,9.9 3.3,15.5 -0.1,0.9 -0.9,1.5 -1.8,1.4 l -6.8,-1.2 c -0.7,-0.1 -1.3,-0.8 -1.3,-1.6 0.1,-3.1 -0.5,-6.1 -1.8,-8.7 -0.3,-0.7 -0.1,-1.5 0.5,-1.9 l 5.7,-4 c 0.7,-0.6 1.7,-0.3 2.2,0.5 z m 2.1,21.7 c -1.6,5.3 -4.7,9.9 -8.7,13.4 -0.7,0.6 -1.7,0.5 -2.2,-0.3 l -4,-5.7 c -0.4,-0.6 -0.3,-1.5 0.2,-2 2.2,-2 3.9,-4.6 4.9,-7.6 0.2,-0.7 1,-1.1 1.7,-1 l 6.8,1.2 c 1,0.2 1.6,1.1 1.3,2 z m -52.9,5 c -2.5,-4.7 -3.6,-10.2 -3.1,-15.8 0.1,-0.9 0.9,-1.5 1.8,-1.4 l 6.8,1.2 c 0.8,0.1 1.3,0.8 1.3,1.6 -0.2,3.2 0.4,6.3 1.7,9.1 0.3,0.7 0.1,1.5 -0.5,1.9 l -5.7,4 c -0.8,0.4 -1.9,0.2 -2.3,-0.6 z"
       id="path118"
       inkscape:connector-curvature="0"
       style="fill:#00a1d9" /><path
       class="st14"
       d="m 1098.5,368.2 0.2,0.7 c 0.1,0.5 0.6,0.7 1,0.5 0.4,-0.2 0.8,0.1 1,0.5 1,2.9 2.7,5.5 5.1,7.5 0.3,0.3 0.4,0.8 0.1,1.1 -0.3,0.3 -0.2,0.9 0.2,1.1 l 0.6,0.4 c 0.4,0.3 0.9,0.1 1.1,-0.3 0.2,-0.4 0.6,-0.6 1,-0.4 1.3,0.7 2.8,1.2 4.4,1.4 1.6,0.3 3.1,0.3 4.6,0.1 0.4,0 0.8,0.3 0.8,0.7 v 0.1 c 0,0.5 0.5,0.8 0.9,0.7 l 0.7,-0.2 c 0.5,-0.1 0.7,-0.6 0.5,-1 V 381 c -0.2,-0.4 0,-0.8 0.4,-1 2.9,-1 5.5,-2.8 7.4,-5.2 0.3,-0.3 0.8,-0.4 1.1,-0.1 l 0.1,0.1 c 0.3,0.3 0.9,0.2 1.1,-0.2 l 0.4,-0.6 c 0.3,-0.4 0.1,-0.9 -0.3,-1.1 l -0.2,-0.1 c -0.4,-0.2 -0.6,-0.6 -0.4,-1 0.6,-1.3 1.1,-2.7 1.3,-4.2 0.3,-1.6 0.3,-3.2 0.1,-4.7 -0.1,-0.4 0.3,-0.8 0.7,-0.8 h 0.3 c 0.5,0 0.8,-0.5 0.7,-0.9 l -0.2,-0.7 c -0.1,-0.5 -0.6,-0.7 -1,-0.5 l -0.3,0.1 c -0.4,0.2 -0.8,0 -1,-0.4 -1,-2.9 -2.8,-5.4 -5.2,-7.3 -0.3,-0.3 -0.4,-0.7 -0.1,-1.1 l 0.3,-0.3 c 0.3,-0.3 0.2,-0.9 -0.2,-1.1 l -0.6,-0.4 c -0.4,-0.2 -0.9,-0.1 -1.1,0.3 l -0.2,0.4 c -0.2,0.4 -0.6,0.6 -1,0.4 -1.3,-0.7 -2.8,-1.1 -4.3,-1.4 -1.5,-0.3 -2.9,-0.3 -4.3,-0.2 -0.4,0 -0.8,-0.3 -0.8,-0.7 v -0.4 c 0,-0.5 -0.5,-0.8 -0.9,-0.7 l -0.7,0.1 c -0.5,0.1 -0.7,0.6 -0.5,1 l 0.1,0.3 c 0.2,0.4 -0.1,0.8 -0.5,1 -2.9,0.9 -5.5,2.7 -7.4,5 -0.3,0.3 -0.8,0.4 -1.1,0.1 l -0.2,-0.2 c -0.3,-0.3 -0.9,-0.2 -1.1,0.2 l -0.4,0.6 c -0.3,0.4 -0.1,0.9 0.3,1.1 l 0.2,0.1 c 0.4,0.2 0.6,0.6 0.4,1 -0.7,1.4 -1.3,2.9 -1.5,4.6 -0.3,1.4 -0.3,2.9 -0.2,4.3 0,0.4 -0.3,0.8 -0.7,0.8 h -0.1 c -0.3,0.1 -0.6,0.5 -0.6,1 z m 4.1,-7.5 c 0.8,-2.6 2.4,-4.8 4.4,-6.5 0.3,-0.3 0.8,-0.2 1.1,0.1 l 1.9,2.8 c 0.2,0.3 0.2,0.7 -0.1,1 -1.1,1 -2,2.2 -2.5,3.6 -0.1,0.3 -0.5,0.5 -0.8,0.5 l -3.3,-0.6 c -0.6,0 -0.8,-0.5 -0.7,-0.9 z m 8.6,-4.3 -1.9,-2.8 c -0.3,-0.4 -0.1,-0.9 0.3,-1.1 2.3,-1.2 4.9,-1.7 7.6,-1.5 0.4,0 0.7,0.4 0.7,0.9 l -0.6,3.3 c -0.1,0.4 -0.4,0.6 -0.8,0.6 -1.5,-0.1 -3,0.2 -4.3,0.8 -0.4,0.2 -0.7,0.1 -1,-0.2 z m 7.4,-0.8 0.6,-3.3 c 0.1,-0.4 0.5,-0.7 1,-0.6 2.5,0.8 4.7,2.3 6.4,4.2 0.3,0.3 0.2,0.8 -0.1,1.1 l -2.8,1.9 c -0.3,0.2 -0.7,0.2 -1,-0.1 -1,-1 -2.2,-1.9 -3.6,-2.4 -0.3,-0.1 -0.5,-0.5 -0.5,-0.8 z m 2.3,17.9 1.9,2.8 c 0.3,0.4 0.1,0.9 -0.3,1.1 -2.3,1.2 -5,1.8 -7.7,1.6 -0.4,0 -0.8,-0.4 -0.7,-0.9 l 0.6,-3.3 c 0.1,-0.4 0.4,-0.6 0.8,-0.6 1.6,0.1 3.1,-0.3 4.4,-0.9 0.4,-0.2 0.8,-0.1 1,0.2 z m -7.5,1 -0.6,3.3 c -0.1,0.4 -0.5,0.7 -0.9,0.6 -2.6,-0.8 -4.9,-2.3 -6.6,-4.4 -0.3,-0.3 -0.2,-0.8 0.1,-1.1 l 2.8,-1.9 c 0.3,-0.2 0.7,-0.2 1,0.1 1,1.1 2.3,2 3.8,2.5 0.2,0.1 0.4,0.5 0.4,0.9 z m 14.9,-16.1 c 1.2,2.3 1.8,4.9 1.6,7.6 0,0.4 -0.4,0.8 -0.9,0.7 l -3.3,-0.6 c -0.4,-0.1 -0.6,-0.4 -0.6,-0.8 0.1,-1.5 -0.3,-3 -0.9,-4.3 -0.2,-0.3 -0.1,-0.7 0.2,-0.9 l 2.8,-2 c 0.4,-0.2 0.9,-0.1 1.1,0.3 z m 1.1,10.6 c -0.8,2.6 -2.3,4.9 -4.2,6.6 -0.3,0.3 -0.8,0.2 -1.1,-0.1 l -1.9,-2.8 c -0.2,-0.3 -0.2,-0.7 0.1,-1 1.1,-1 1.9,-2.3 2.4,-3.7 0.1,-0.3 0.5,-0.6 0.8,-0.5 l 3.3,0.6 c 0.4,0 0.7,0.5 0.6,0.9 z m -25.9,2.4 c -1.2,-2.3 -1.8,-5 -1.5,-7.7 0,-0.4 0.4,-0.7 0.9,-0.7 l 3.3,0.6 c 0.4,0.1 0.6,0.4 0.6,0.8 -0.1,1.6 0.2,3.1 0.8,4.4 0.2,0.3 0,0.7 -0.2,0.9 l -2.8,2 c -0.4,0.3 -0.9,0.1 -1.1,-0.3 z"
       id="path120"
       inkscape:connector-curvature="0"
       style="fill:#9da3e0" /><path
       class="st17"
       d="m 1196.9,344.2 c 0.1,0.3 0,0.7 -0.3,0.9 h -0.1 c -0.4,0.2 -0.5,0.7 -0.2,1.1 l 1.2,1.9 c 0.2,0.4 0.7,0.5 1.1,0.2 0.3,-0.2 0.7,-0.2 1,0.1 0.8,0.8 1.8,1.6 2.8,2.2 0.3,0.2 0.5,0.6 0.4,0.9 v 0.1 c -0.1,0.4 0.1,0.9 0.5,1 l 2.2,0.6 c 0.4,0.1 0.9,-0.1 1,-0.5 0.1,-0.4 0.4,-0.6 0.8,-0.6 h 0.9 c 0.9,0 1.8,-0.1 2.6,-0.3 0.4,-0.1 0.7,0.1 0.9,0.4 l 0.1,0.1 c 0.2,0.4 0.7,0.6 1.1,0.4 l 2.1,-1 c 0.4,-0.2 0.6,-0.7 0.4,-1.1 l -0.1,-0.1 c -0.2,-0.3 -0.1,-0.7 0.2,-1 0.9,-0.7 1.7,-1.5 2.4,-2.5 0.2,-0.3 0.6,-0.4 1,-0.2 l 0.2,0.1 c 0.4,0.2 0.9,0 1,-0.4 l 0.9,-2.1 c 0.2,-0.4 0,-0.9 -0.4,-1 l -0.2,-0.1 c -0.3,-0.2 -0.5,-0.5 -0.4,-0.9 0.2,-0.8 0.3,-1.7 0.3,-2.5 v -0.4 c 0,-0.4 0.2,-0.7 0.6,-0.8 l 0.3,-0.1 c 0.4,-0.1 0.7,-0.5 0.6,-1 l -0.6,-2.2 c -0.1,-0.4 -0.5,-0.7 -1,-0.6 l -0.3,0.1 c -0.4,0.1 -0.7,-0.1 -0.9,-0.4 -0.5,-0.9 -1,-1.8 -1.7,-2.5 -0.2,-0.3 -0.3,-0.7 0,-1 l 0.2,-0.3 c 0.3,-0.4 0.2,-0.8 -0.2,-1.1 l -1.8,-1.3 c -0.4,-0.3 -0.8,-0.2 -1.1,0.2 l -0.2,0.3 c -0.2,0.3 -0.6,0.4 -1,0.2 -0.7,-0.3 -1.5,-0.6 -2.3,-0.8 -0.4,-0.1 -0.6,-0.4 -0.6,-0.8 v -0.3 c 0,-0.4 -0.4,-0.8 -0.8,-0.8 h -2.3 c -0.4,0 -0.8,0.4 -0.8,0.8 v 0.3 c 0,0.4 -0.3,0.7 -0.6,0.8 -1.1,0.2 -2.2,0.6 -3.2,1.1 -0.3,0.2 -0.7,0.1 -1,-0.2 l -0.2,-0.2 c -0.3,-0.3 -0.8,-0.4 -1.1,-0.1 l -1.7,1.5 c -0.3,0.3 -0.4,0.8 -0.1,1.1 l 0.1,0.1 c 0.2,0.3 0.3,0.7 0,1 -0.7,0.9 -1.3,1.9 -1.7,3 -0.1,0.3 -0.5,0.5 -0.8,0.5 h -0.1 c -0.4,-0.1 -0.8,0.2 -0.9,0.7 l -0.3,2.3 c -0.1,0.4 0.2,0.8 0.7,0.9 l 0.7,0.1 c 0,1.6 0.2,3 0.7,4.2 z m 5.1,-3.1 c -0.6,-4.3 3,-7.9 7.2,-7.3 2.8,0.4 4.9,2.6 5.3,5.3 0.6,4.3 -3,7.9 -7.2,7.3 -2.8,-0.4 -4.9,-2.6 -5.3,-5.3 z"
       id="path122"
       inkscape:connector-curvature="0"
       style="fill:#074d82" /><defs
       id="defs135"><path
         id="SVGID_00000010291095370055722420000007544852593073422223_"
         d="m 1501.4,151.3 -99,-163.8 -222.5,292 136.2,89.5 z"
         inkscape:connector-curvature="0" /></defs><clipPath
       id="SVGID_00000003095948907406602350000017705471774980051097_"><use
         xlink:href="#SVGID_00000010291095370055722420000007544852593073422223_"
         style="overflow:visible"
         id="use137"
         x="0"
         y="0"
         width="100%"
         height="100%" /></clipPath><path
       class="st19"
       d="m 1311.1,163.7 c -12.8,7.4 -36.7,24.8 -41.5,34.5 -1.8,4.6 -7.2,32.7 -6.6,43.3 2.4,0.8 5.5,0.2 8.7,-3.6 3,-1.5 7.6,-27.8 12.3,-34.3 14.5,-9.4 19.7,-10.1 32.5,-17.3 18.2,-10.4 4.9,-28.6 -5.4,-22.6 z"
       style="fill:#7776ab"
       clip-path="url(#SVGID_00000003095948907406602350000017705471774980051097_)"
       id="path140"
       inkscape:connector-curvature="0" /><path
       class="st19"
       d="m 1320.1,164.3 c -11.2,8.1 -31.8,26.4 -35.5,35.7 -1.3,4.4 -3.7,30.8 -2.2,40.5 2.3,0.5 5.2,-0.4 7.7,-4.1 2.7,-1.7 4.5,-26.3 8.3,-32.7 12.6,-10 17.4,-11.2 28.6,-19 16.1,-11.3 2.1,-26.9 -6.9,-20.4 z"
       style="fill:#7776ab"
       clip-path="url(#SVGID_00000003095948907406602350000017705471774980051097_)"
       id="path142"
       inkscape:connector-curvature="0" /><path
       class="st14"
       d="m 1313.5,155.7 c 38.3,16.2 105.3,-12.6 135.6,-46.6 0,0 -11.3,47.3 -0.3,52.1 -10.3,8.4 -46,47.5 -58.5,57.2 -8.1,6.2 -24.3,14.7 -84.7,-36.7 0,0 -12,-4.6 7.9,-26 z"
       style="fill:#9da3e0"
       clip-path="url(#SVGID_00000003095948907406602350000017705471774980051097_)"
       id="path144"
       inkscape:connector-curvature="0" /><path
       class="st14"
       d="m 1308.6,156.3 c -14.7,6.1 -42.5,21.3 -49,30.9 -2.6,4.7 -12.3,34.1 -13.1,45.5 2.4,1.2 5.9,1 9.7,-2.6 3.4,-1.2 12,-28.7 17.9,-35 16.7,-7.9 22.4,-8 36.9,-13.8 20.9,-8.4 9.4,-29.9 -2.4,-25 z"
       style="fill:#9da3e0"
       clip-path="url(#SVGID_00000003095948907406602350000017705471774980051097_)"
       id="path146"
       inkscape:connector-curvature="0" /><g
       clip-path="url(#SVGID_00000003095948907406602350000017705471774980051097_)"
       id="g170"><path
         class="st15"
         d="m 1219.9,281.5 c 0,0 -0.2,-0.2 -0.4,-0.5 -0.2,-0.3 -0.6,-0.7 -0.9,-1.2 -0.2,-0.2 -0.3,-0.5 -0.5,-0.7 -0.1,-0.2 -0.3,-0.5 -0.4,-0.7 l -0.3,-0.6 c -0.1,-0.2 -0.2,-0.3 -0.2,-0.5 -0.4,-0.9 1.1,-2.8 2.3,-4.5 0.4,-0.6 0.7,-1.2 0.9,-1.8 0.2,-0.6 0.3,-1.2 0.4,-1.7 0.2,-1 0.2,-1.8 0.2,-1.8 -0.3,-1.2 -1,-1.7 -1.8,-1.8 -0.4,-0.1 -0.7,-0.1 -1,-0.1 h -0.4 c 0,0 -0.4,0.1 -1,0.1 -0.5,0.1 -1.2,0.1 -1.5,0.1 -0.7,0 -0.8,-0.5 -0.8,-0.5 v -0.8 c 0,-0.5 0,-1.2 0.1,-1.9 0.1,-1.4 0.3,-3.1 0.3,-3.7 0.1,-0.6 0.6,-1.2 1.3,-1.7 0.7,-0.5 1.6,-1 2.4,-1.5 0.5,-0.3 1,-0.8 1.4,-1.3 0.4,-0.5 0.8,-1 1.1,-1.5 0.3,-0.5 0.6,-0.9 0.7,-1.3 0.2,-0.3 0.3,-0.5 0.3,-0.5 0.1,-0.4 0.2,-0.7 0.2,-1 v -0.9 c -0.1,-0.5 -0.2,-1 -0.4,-1.3 -0.2,-0.4 -0.4,-0.6 -0.6,-0.8 l -0.3,-0.3 c 0,0 -0.3,-0.2 -0.7,-0.6 -0.4,-0.3 -0.8,-0.7 -1,-1 -0.2,-0.3 -0.3,-0.5 -0.3,-0.7 v -0.3 c 0,0 0.6,-1.3 1.3,-2.8 0.4,-0.7 0.8,-1.5 1.1,-2.2 0.4,-0.7 0.7,-1.2 0.9,-1.5 0.4,-0.6 1,-0.9 1.6,-0.9 0.7,-0.1 1.4,0 2.2,0 0.5,0 1,-0.1 1.5,-0.4 0.5,-0.2 1,-0.5 1.4,-0.9 0.4,-0.3 0.8,-0.6 1.1,-0.8 0.3,-0.2 0.4,-0.4 0.4,-0.4 0.5,-0.7 0.8,-1.3 1.1,-1.9 0.2,-0.6 0.4,-1.2 0.4,-1.7 0.1,-0.5 0.1,-1 0.1,-1.3 v -0.5 c 0,0 -0.1,-0.5 -0.1,-1.1 -0.1,-0.6 -0.1,-1.3 -0.1,-1.7 0,-0.9 0.4,-1.3 0.4,-1.3 l 0.2,-0.2 0.5,-0.5 1.5,-1.5 c 0.6,-0.5 1.2,-1.1 1.8,-1.5 0.3,-0.2 0.5,-0.4 0.7,-0.6 0.2,-0.2 0.4,-0.3 0.5,-0.4 1.1,-0.8 1.9,0.6 2.7,1.7 0.3,0.4 0.7,0.6 1.1,0.7 0.4,0.1 0.9,0.1 1.3,0.1 0.8,-0.1 1.5,-0.2 1.5,-0.2 1.2,-0.7 2.1,-1.8 2.7,-2.8 0.3,-0.5 0.5,-1 0.7,-1.3 l 0.2,-0.6 0.4,-1.2 c 0.3,-0.7 0.6,-1.5 0.8,-2 0.4,-0.9 0.9,-1.1 0.9,-1.1 0,0 0.3,-0.1 0.7,-0.2 0.4,-0.1 1,-0.3 1.6,-0.5 1.2,-0.3 2.6,-0.6 3.1,-0.6 0.5,-0.1 0.7,0.4 0.8,1.2 0.1,0.7 0,1.7 0,2.6 0,1.2 0.6,2 1.1,2.5 0.3,0.3 0.5,0.5 0.7,0.6 0.2,0.1 0.3,0.2 0.3,0.2 h 0.8 c 0.3,0 0.5,-0.1 0.8,-0.2 0.5,-0.2 1,-0.6 1.4,-0.9 0.9,-0.7 1.5,-1.4 1.5,-1.4 0,0 0.4,-0.5 0.9,-1 0.5,-0.6 1.1,-1.2 1.4,-1.6 0.4,-0.4 0.6,-0.5 0.8,-0.6 0.2,-0.1 0.3,0 0.3,0 0,0 0.2,0.1 0.5,0.3 0.3,0.1 0.8,0.4 1.2,0.7 0.9,0.5 1.8,1.2 2.2,1.5 0.4,0.3 0.2,1 -0.1,1.8 -0.3,0.8 -0.8,1.9 -1.3,2.8 -0.6,1.3 -0.6,2.5 -0.6,3.5 0,0.5 0.1,0.9 0.1,1.1 0,0.3 0.1,0.4 0.1,0.4 0.2,0.2 0.3,0.4 0.5,0.6 l 0.6,0.3 c 0.4,0.1 0.9,0.1 1.3,0.1 0.4,-0.1 0.8,-0.2 1.1,-0.3 0.3,-0.1 0.5,-0.2 0.5,-0.2 0,0 0.5,-0.2 1,-0.5 0.6,-0.3 1.2,-0.5 1.6,-0.7 0.8,-0.3 1,0.1 1,0.1 0,0 0.1,0.3 0.2,0.7 0.1,0.4 0.3,1 0.4,1.6 0.1,0.6 0.3,1.3 0.4,1.9 0.1,0.6 0.2,1.1 0.2,1.4 0.1,1.1 -1.6,2.6 -3.1,4.1 -0.2,0.2 -0.5,0.5 -0.7,0.8 l -0.6,0.9 c -0.3,0.6 -0.6,1.2 -0.8,1.7 -0.2,0.5 -0.4,1 -0.5,1.3 -0.1,0.3 -0.2,0.5 -0.2,0.5 -0.1,1.4 0.4,2.2 1,2.7 0.6,0.5 1.2,0.6 1.2,0.6 0,0 0.4,0.1 0.9,0.2 0.5,0.1 1,0.3 1.3,0.4 0.6,0.3 0.5,0.8 0.5,0.8 0,0 -0.1,0.3 -0.2,0.9 -0.1,0.5 -0.3,1.2 -0.5,2 -0.4,1.5 -1,3.2 -1.2,3.9 -0.2,0.7 -0.8,1.1 -1.5,1.4 -0.7,0.3 -1.6,0.5 -2.4,0.8 -1.1,0.3 -2.1,1.3 -2.8,2.1 -0.4,0.4 -0.7,0.8 -0.9,1.1 -0.2,0.3 -0.4,0.5 -0.4,0.5 -0.4,0.7 -0.6,1.4 -0.7,2 -0.1,0.6 -0.1,1.1 0,1.6 0.1,0.9 0.4,1.5 0.4,1.5 0,0 0.2,0.4 0.4,0.9 0.2,0.5 0.5,1 0.6,1.4 0.2,0.7 -0.1,1.2 -0.1,1.2 0,0 -0.1,0.1 -0.1,0.2 -0.1,0.1 -0.2,0.3 -0.4,0.6 -0.3,0.5 -0.8,1.1 -1.3,1.8 -0.3,0.3 -0.5,0.7 -0.8,1 -0.3,0.3 -0.5,0.6 -0.8,0.9 -0.5,0.6 -0.9,1.1 -1.1,1.3 -1,1.2 -3.9,-0.2 -5.4,0.4 -2.2,0.8 -4.3,2.5 -4.8,4.9 -0.1,0.3 -0.1,0.6 -0.1,0.6 0,0 -0.1,0.5 -0.2,1.2 -0.1,0.7 -0.2,1.5 -0.3,1.9 -0.2,0.9 -0.6,1.3 -0.6,1.3 0,0 -0.3,0.2 -0.7,0.5 -0.4,0.3 -1,0.6 -1.7,1 -1.3,0.7 -2.7,1.4 -3.2,1.7 -1.1,0.5 -1.4,-1.3 -1.9,-2.9 -0.1,-0.5 -0.4,-0.9 -0.8,-1.1 -0.3,-0.3 -0.7,-0.4 -1.1,-0.6 -0.3,-0.1 -0.7,-0.2 -0.9,-0.2 -0.2,0 -0.4,-0.1 -0.4,-0.1 -1.2,0.3 -2.2,1.2 -3,2.1 -0.8,0.9 -1.2,1.7 -1.2,1.7 0,0 -0.3,0.5 -0.7,1.2 -0.4,0.6 -0.9,1.4 -1.1,1.8 -0.3,0.4 -0.5,0.7 -0.7,0.8 -0.2,0.1 -0.3,0.1 -0.3,0.1 h -0.7 c -0.4,0 -0.9,-0.1 -1.5,-0.1 -0.6,-0.1 -1.1,-0.1 -1.6,-0.2 -0.5,-0.1 -0.9,-0.2 -1.1,-0.2 -0.9,-0.3 -0.2,-2.4 0.3,-4.4 0.2,-0.6 0.2,-1.2 0.1,-1.7 -0.1,-0.5 -0.2,-1 -0.4,-1.4 -0.2,-0.4 -0.3,-0.7 -0.4,-0.9 -0.1,-0.2 -0.2,-0.3 -0.2,-0.3 -0.4,-0.3 -0.9,-0.3 -1.4,-0.3 -0.5,0 -1,0.2 -1.4,0.4 -0.9,0.4 -1.6,1 -1.6,1 0,0 -0.4,0.4 -1,0.8 -0.6,0.4 -1.2,0.9 -1.6,1.2 z m 17.8,-14.2 c 5.7,3.6 15,-0.8 20.7,-9.9 5.7,-9 5.8,-19.3 0.1,-22.9 -5.7,-3.6 -15,0.8 -20.7,9.9 -5.8,9.1 -5.8,19.3 -0.1,22.9 z"
         id="path148"
         inkscape:connector-curvature="0"
         style="fill:#3e437a" /><path
         class="st15"
         d="m 1256,212.3 c 1.8,1.5 5.4,2.7 7.7,4.2 -1.3,2.2 -2.7,4.3 -3.9,6.4 -1.4,-0.6 -2.9,-0.8 -4.2,-1.6 -1,-0.6 -2,-1.3 -3.1,-1.6 m 23.1,14 c 2.3,0.9 5,-0.6 6.8,-2.2 2.2,-2 0.5,-2.8 -1.5,-4 -1.9,-1.1 -4,-2.2 -6.3,-2.3 -5.9,-0.3 -2.3,7.3 1,8.5 z"
         id="path150"
         inkscape:connector-curvature="0"
         style="fill:#3e437a" /><path
         class="st15"
         d="m 1266.5,213.4 c 2.2,1.3 4.9,2.5 6.9,4.2 1.3,1.1 0.6,1.6 -0.7,3 -2.6,2.8 -6.5,6.4 -10,3.1 -1.2,-1.1 -1.9,-3.5 -1.7,-5.2 m 23.1,30 c -2.2,-1.4 -4.3,-3.1 -6.6,-4.3 -2.2,2.5 2.1,4.5 3.4,5.6 m -8.3,1.9 c -1.1,-2 -4.8,-0.2 -6.1,0.8 -2.4,1.9 -5.5,6.2 -4.6,9.4 0.6,2 2.7,2.5 4.6,2.2 3.9,-0.5 4.5,-4.2 5.2,-7.5 m -19.5,32.9 c -1,-1.5 -3.5,-3 -5.1,-4 -0.8,-0.6 -1.8,-0.9 -1.5,-2.1 0.3,-1.1 1.8,-1.7 2.8,-1.7 1.9,0 3,1.3 3.5,3 0.4,1.2 0.6,3.4 0.3,4.8 z m -16.1,2.1 c -1.2,-1.7 -4.1,-2.6 -5.8,-3.8 -0.4,-0.3 -1.7,-1 -1.8,-1.5 -0.1,-0.8 1.8,-2.8 2.2,-3.4 1.2,-1.7 3.3,-5.5 5.7,-4.8 4.7,1.1 2.1,9.6 -0.3,13.5 z"
         id="path152"
         inkscape:connector-curvature="0"
         style="fill:#3e437a" /><path
         class="st15"
         d="m 1223.2,271.8 c -2.4,0.2 -5.7,2.1 -5.8,4.8 -0.1,2.5 1.9,4.6 3.7,5.9 1.9,1.4 4.1,2.1 6,3.3 1.2,0.7 2.4,1.4 3.5,2.1 1.5,1 2.9,2.3 4.5,3.1 2.2,1.1 3.6,-1.7 4,-3.6 1.2,-5.2 -1.5,-10.5 -5.9,-12.9 m -11.3,-4.5 c -1.5,-1 -6.4,-2.6 -7.1,-4.7 -0.5,-1.4 0.9,-5.5 2.5,-5.8 1,-0.2 3.1,0.7 4.1,1.1 1.4,0.5 2.7,1 4.1,1.5"
         id="path154"
         inkscape:connector-curvature="0"
         style="fill:#3e437a" /><defs
         id="defs157"><path
           id="SVGID_00000089562598230463009850000017401214179735342774_"
           d="m 1227.3,286.2 c 0,0 -0.2,-0.2 -0.4,-0.5 -0.2,-0.3 -0.6,-0.7 -0.9,-1.2 -0.2,-0.2 -0.3,-0.5 -0.5,-0.7 -0.1,-0.2 -0.3,-0.5 -0.4,-0.7 l -0.3,-0.6 c -0.1,-0.2 -0.2,-0.3 -0.2,-0.5 -0.4,-0.9 1.1,-2.8 2.3,-4.5 0.4,-0.6 0.7,-1.2 0.9,-1.8 0.2,-0.6 0.3,-1.2 0.4,-1.7 0.2,-1 0.2,-1.8 0.2,-1.8 -0.3,-1.2 -1,-1.7 -1.8,-1.8 -0.4,-0.1 -0.7,-0.1 -1,-0.1 h -0.4 c 0,0 -0.4,0.1 -1,0.1 -0.5,0.1 -1.2,0.1 -1.5,0.1 -0.7,0 -0.8,-0.5 -0.8,-0.5 v -0.8 c 0,-0.5 0,-1.2 0.1,-1.9 0.1,-1.4 0.3,-3.1 0.3,-3.7 0.1,-0.6 0.6,-1.2 1.3,-1.7 0.7,-0.5 1.6,-1 2.4,-1.5 0.5,-0.3 1,-0.8 1.4,-1.3 0.4,-0.5 0.8,-1 1.1,-1.5 0.3,-0.5 0.6,-0.9 0.7,-1.3 0.2,-0.3 0.3,-0.5 0.3,-0.5 0.1,-0.4 0.2,-0.7 0.2,-1 v -0.9 c -0.1,-0.5 -0.2,-1 -0.4,-1.3 -0.2,-0.4 -0.4,-0.6 -0.6,-0.8 l -0.3,-0.3 c 0,0 -0.3,-0.2 -0.7,-0.6 -0.4,-0.3 -0.8,-0.7 -1,-1 -0.2,-0.3 -0.3,-0.5 -0.3,-0.7 v -0.3 c 0,0 0.6,-1.3 1.3,-2.8 0.4,-0.7 0.8,-1.5 1.1,-2.2 0.4,-0.7 0.7,-1.2 0.9,-1.5 0.4,-0.6 1,-0.9 1.6,-0.9 0.7,-0.1 1.4,0 2.2,0 0.5,0 1,-0.1 1.5,-0.4 0.5,-0.2 1,-0.5 1.4,-0.9 0.4,-0.3 0.8,-0.6 1.1,-0.8 0.3,-0.2 0.4,-0.4 0.4,-0.4 0.5,-0.7 0.8,-1.3 1.1,-1.9 0.2,-0.6 0.4,-1.2 0.4,-1.7 0.1,-0.5 0.1,-1 0.1,-1.3 v -0.5 c 0,0 -0.1,-0.5 -0.1,-1.1 -0.1,-0.6 -0.1,-1.3 -0.1,-1.7 0,-0.9 0.4,-1.3 0.4,-1.3 l 0.2,-0.2 0.5,-0.5 1.5,-1.5 c 0.6,-0.5 1.2,-1.1 1.8,-1.5 0.3,-0.2 0.5,-0.4 0.7,-0.6 0.2,-0.2 0.4,-0.3 0.5,-0.4 1.1,-0.8 1.9,0.6 2.7,1.7 0.3,0.4 0.7,0.6 1.1,0.7 0.4,0.1 0.9,0.1 1.3,0.1 0.8,-0.1 1.5,-0.2 1.5,-0.2 1.2,-0.7 2.1,-1.8 2.7,-2.8 0.3,-0.5 0.5,-1 0.7,-1.3 l 0.2,-0.6 0.4,-1.2 c 0.3,-0.7 0.6,-1.5 0.8,-2 0.4,-0.9 0.9,-1.1 0.9,-1.1 0,0 0.3,-0.1 0.7,-0.2 0.4,-0.1 1,-0.3 1.6,-0.5 1.2,-0.3 2.6,-0.6 3.1,-0.6 0.5,-0.1 0.7,0.4 0.8,1.2 0.1,0.7 0,1.7 0,2.6 0,1.2 0.6,2 1.1,2.5 0.3,0.3 0.5,0.5 0.7,0.6 0.2,0.1 0.3,0.2 0.3,0.2 h 0.8 c 0.3,0 0.5,-0.1 0.8,-0.2 0.5,-0.2 1,-0.6 1.4,-0.9 0.9,-0.7 1.5,-1.4 1.5,-1.4 0,0 0.4,-0.5 0.9,-1 0.5,-0.6 1.1,-1.2 1.4,-1.6 0.4,-0.4 0.6,-0.5 0.8,-0.6 0.2,-0.1 0.3,0 0.3,0 0,0 0.2,0.1 0.5,0.3 0.3,0.1 0.8,0.4 1.2,0.7 0.9,0.5 1.8,1.2 2.2,1.5 0.4,0.3 0.2,1 -0.1,1.8 -0.3,0.8 -0.8,1.9 -1.3,2.8 -0.6,1.3 -0.6,2.5 -0.6,3.5 0,0.5 0.1,0.9 0.1,1.1 0,0.3 0.1,0.4 0.1,0.4 0.2,0.2 0.3,0.4 0.5,0.5 l 0.6,0.3 c 0.4,0.1 0.9,0.1 1.3,0.1 0.4,-0.1 0.8,-0.2 1.1,-0.3 0.3,-0.1 0.5,-0.2 0.5,-0.2 0,0 0.5,-0.2 1,-0.5 0.6,-0.3 1.2,-0.5 1.6,-0.7 0.8,-0.3 1,0.1 1,0.1 0,0 0.1,0.3 0.2,0.7 0.1,0.4 0.3,1 0.4,1.6 0.1,0.6 0.3,1.3 0.4,1.9 0.1,0.6 0.2,1.1 0.2,1.4 0.1,1.1 -1.6,2.6 -3.1,4.1 -0.2,0.2 -0.5,0.5 -0.7,0.8 l -0.6,0.9 c -0.3,0.6 -0.6,1.2 -0.8,1.7 -0.2,0.5 -0.4,1 -0.5,1.3 -0.1,0.3 -0.2,0.5 -0.2,0.5 -0.1,1.4 0.4,2.2 1,2.7 0.6,0.5 1.2,0.6 1.2,0.6 0,0 0.4,0.1 0.9,0.2 0.5,0.1 1,0.3 1.3,0.4 0.6,0.3 0.5,0.8 0.5,0.8 0,0 -0.1,0.3 -0.2,0.9 -0.1,0.5 -0.3,1.2 -0.5,2 -0.4,1.5 -1,3.2 -1.2,3.9 -0.2,0.7 -0.8,1.1 -1.5,1.4 -0.7,0.3 -1.6,0.5 -2.4,0.8 -1.1,0.3 -2.1,1.3 -2.8,2.1 -0.4,0.4 -0.7,0.8 -0.9,1.1 -0.2,0.3 -0.4,0.5 -0.4,0.5 -0.4,0.7 -0.6,1.4 -0.7,2 -0.1,0.6 -0.1,1.1 0,1.6 0.1,0.9 0.4,1.5 0.4,1.5 0,0 0.2,0.4 0.4,0.9 0.2,0.5 0.5,1 0.6,1.4 0.2,0.7 -0.1,1.2 -0.1,1.2 0,0 -0.1,0.1 -0.1,0.2 -0.1,0.1 -0.2,0.3 -0.4,0.6 -0.3,0.5 -0.8,1.1 -1.3,1.8 -0.3,0.3 -0.5,0.7 -0.8,1 -0.3,0.3 -0.5,0.6 -0.8,0.9 -0.5,0.6 -0.9,1.1 -1.1,1.3 -0.5,0.5 -1,0.6 -1.6,0.4 -0.6,-0.2 -1.2,-0.5 -1.8,-0.9 -0.4,-0.2 -0.9,-0.2 -1.4,-0.2 -0.2,0 -0.5,0.1 -0.7,0.2 -0.2,0.1 -0.5,0.1 -0.7,0.2 -0.4,0.2 -0.8,0.4 -1.1,0.5 -0.3,0.1 -0.5,0.2 -0.5,0.2 -1.2,1 -1.8,2.3 -2.2,3.4 -0.2,0.5 -0.3,1 -0.4,1.4 -0.1,0.3 -0.1,0.6 -0.1,0.6 0,0 -0.1,0.5 -0.2,1.2 -0.1,0.7 -0.2,1.5 -0.3,1.9 -0.2,0.9 -0.6,1.3 -0.6,1.3 0,0 -0.3,0.2 -0.7,0.5 -0.4,0.3 -1,0.6 -1.7,1 -1.3,0.7 -2.7,1.4 -3.2,1.7 -1.1,0.5 -1.4,-1.3 -1.9,-2.9 -0.1,-0.5 -0.4,-0.9 -0.8,-1.1 -0.3,-0.3 -0.7,-0.4 -1.1,-0.6 -0.3,-0.1 -0.7,-0.2 -0.9,-0.2 -0.2,0 -0.4,-0.1 -0.4,-0.1 -1.2,0.3 -2.2,1.2 -3,2.1 -0.8,0.9 -1.2,1.7 -1.2,1.7 0,0 -0.3,0.5 -0.7,1.2 -0.4,0.6 -0.9,1.4 -1.1,1.8 -0.3,0.4 -0.5,0.7 -0.7,0.8 -0.2,0.1 -0.3,0.1 -0.3,0.1 h -0.7 c -0.4,0 -0.9,-0.1 -1.5,-0.1 -0.6,-0.1 -1.1,-0.1 -1.6,-0.2 -0.5,-0.1 -0.9,-0.2 -1.1,-0.2 -0.9,-0.3 -0.2,-2.4 0.3,-4.4 0.2,-0.6 0.2,-1.2 0.1,-1.7 -0.1,-0.5 -0.2,-1 -0.4,-1.4 -0.2,-0.4 -0.3,-0.7 -0.4,-0.9 -0.1,-0.2 -0.2,-0.3 -0.2,-0.3 -0.4,-0.3 -0.9,-0.3 -1.4,-0.3 -0.5,0 -1,0.2 -1.4,0.4 -0.9,0.4 -1.6,1 -1.6,1 0,0 -0.4,0.4 -1,0.8 -0.6,0.4 -1.2,0.9 -1.6,1.2 -0.1,0 -0.4,-0.2 -0.4,-0.2 z m 17.8,-14.2 c 5.7,3.6 15,-0.8 20.7,-9.9 5.7,-9 5.8,-19.3 0.1,-22.9 -5.7,-3.6 -15,0.8 -20.7,9.9 -5.8,9.1 -5.8,19.3 -0.1,22.9 z"
           inkscape:connector-curvature="0" /></defs><use
         xlink:href="#SVGID_00000089562598230463009850000017401214179735342774_"
         style="overflow:visible;fill:#00a1d9"
         id="use159"
         x="0"
         y="0"
         width="100%"
         height="100%" /><clipPath
         id="SVGID_00000050633303743220857830000008265025552979266196_"><use
           xlink:href="#SVGID_00000089562598230463009850000017401214179735342774_"
           style="overflow:visible"
           id="use161"
           x="0"
           y="0"
           width="100%"
           height="100%" /></clipPath><g
         clip-path="url(#SVGID_00000050633303743220857830000008265025552979266196_)"
         id="g166"><path
           d="m 1295,270.8 c -14.8,-13.1 -40.4,-9.4 -56.1,1.7 -9.1,6.4 -19.1,18.8 -15.1,30.6 6.4,18.7 38.5,7.7 51.2,1.7 7,-3.3 11.8,-8.1 16.2,-14.4 1.3,-1.9 2.9,-3.8 4,-5.8 5.4,-9.3 2.8,-12.6 -4.4,-20.1"
           style="fill:#55d4ff"
           id="path164"
           inkscape:connector-curvature="0" /></g><path
         class="st15"
         d="m 1222.7,232.2 71.6,21.5 4.4,-30.9 -63.2,-11 z"
         style="fill:#3e437a"
         clip-path="url(#SVGID_00000050633303743220857830000008265025552979266196_)"
         id="path168"
         inkscape:connector-curvature="0" /></g><path
       class="st14"
       d="m 1330.6,232.8 c -17.1,0.7 -30.5,3.2 -38.3,5.7 -7,2.3 -14.4,4.1 -20.8,6.3 -0.5,-4 2.8,-11.4 5.9,-13.7 14,-10.8 33.2,-7.9 69.4,-36.6 17,-13.5 36.1,-8.4 43.6,-0.6 5.3,5.5 10.7,15.3 -0.4,25 -8.3,7.5 -44.8,13.4 -59.4,13.9 z"
       style="fill:#9da3e0"
       clip-path="url(#SVGID_00000003095948907406602350000017705471774980051097_)"
       id="path172"
       inkscape:connector-curvature="0" /><ellipse
       cx="1279.2"
       cy="737"
       rx="144.2"
       ry="3.5"
       style="fill:#313561"
       id="ellipse174" /></g></svg>