<?xml version="1.0" encoding="UTF-8" standalone="no"?>
<svg
   xmlns:dc="http://purl.org/dc/elements/1.1/"
   xmlns:cc="http://creativecommons.org/ns#"
   xmlns:rdf="http://www.w3.org/1999/02/22-rdf-syntax-ns#"
   xmlns:svg="http://www.w3.org/2000/svg"
   xmlns="http://www.w3.org/2000/svg"
   xmlns:xlink="http://www.w3.org/1999/xlink"
   xmlns:sodipodi="http://sodipodi.sourceforge.net/DTD/sodipodi-0.dtd"
   xmlns:inkscape="http://www.inkscape.org/namespaces/inkscape"
   viewBox="0 0 299.99999 737.3"
   xml:space="preserve"
   version="1.1"
   id="svg388"
   sodipodi:docname="scienceTL.svg"
   width="300"
   height="737.29999"
   inkscape:version="0.92.4 (5da689c313, 2019-01-14)"><metadata
     id="metadata394"><rdf:RDF><cc:Work
         rdf:about=""><dc:format>image/svg+xml</dc:format><dc:type
           rdf:resource="http://purl.org/dc/dcmitype/StillImage" /><dc:title></dc:title></cc:Work></rdf:RDF></metadata><defs
     id="defs392" /><sodipodi:namedview
     pagecolor="#ffffff"
     bordercolor="#666666"
     borderopacity="1"
     objecttolerance="10"
     gridtolerance="10"
     guidetolerance="10"
     inkscape:pageopacity="0"
     inkscape:pageshadow="2"
     inkscape:window-width="1920"
     inkscape:window-height="1016"
     id="namedview390"
     showgrid="false"
     inkscape:zoom="0.9650482"
     inkscape:cx="725.48624"
     inkscape:cy="338.94736"
     inkscape:window-x="0"
     inkscape:window-y="36"
     inkscape:window-maximized="1"
     inkscape:current-layer="LH_Graphic" /><style
     id="style2">.st0{fill:#ededed;stroke:#25c7a1;stroke-miterlimit:10}.st1{fill:#2d75be}.st2{fill:#555d68}.st3{fill:#fff;stroke:#555d68;stroke-miterlimit:10}.st4{fill:#ededed}.st5{fill:#223242}.st10{fill:#009dd6}.st12{opacity:.49;fill:#01528a}.st13{opacity:.5;fill:#bae2f7}.st14{fill:#9da3e0}.st15{fill:#3e437a}.st16{fill:#00a1d9}.st17{fill:#074d82}.st19{fill:#7776ab}.st23{fill:#ba4044}.st24,.st25{fill:#fff}.st25{stroke:#fff;stroke-width:3.1352;stroke-miterlimit:10}.st29{fill:#0971b7}.st32{fill-rule:evenodd;clip-rule:evenodd}.st32,.st33{fill:#c6d9fa}.st36,.st38{fill-rule:evenodd;clip-rule:evenodd;fill:#fff}.st38{fill:#1c1c1c}.st40{fill:#4a4848}.st43{fill:#2554ab}.st44{fill:#2385df}.st45{fill-rule:evenodd;clip-rule:evenodd;fill:#8169d6}.st46{fill:#ac8fff}.st52{fill:#61cfed}.st53{fill:#063169}.st54{fill:#007d3b}.st57{fill:#1652a1}.st59{fill:#e6e6e6}</style><g
     id="LH_Graphic"><path
       class="st14"
       d="m 127.7,105.2 c 0.5,1 0.3,2.2 -0.6,3 l -0.1,0.1 c -1,0.9 -1.1,2.4 -0.3,3.5 l 4.6,5.4 c 0.9,1 2.4,1.1 3.5,0.3 0.9,-0.8 2.2,-0.8 3.1,-0.1 2.9,2.3 6.1,4.1 9.6,5.4 1.1,0.4 1.7,1.5 1.5,2.6 v 0.2 c -0.2,1.3 0.7,2.6 2.1,2.8 l 7,1 c 1.3,0.2 2.6,-0.7 2.8,-2.1 v -0.1 c 0.2,-1.1 1.1,-2 2.3,-2.1 l 2.7,-0.3 c 2.8,-0.4 5.4,-1.1 7.9,-2 1.1,-0.4 2.3,0 2.9,1 l 0.2,0.3 c 0.7,1.1 2.2,1.5 3.4,0.8 l 6,-3.8 c 1.1,-0.7 1.5,-2.2 0.8,-3.4 l -0.2,-0.4 c -0.6,-1 -0.5,-2.2 0.3,-3 2.5,-2.5 4.7,-5.4 6.4,-8.5 0.6,-1 1.7,-1.5 2.8,-1.2 l 0.7,0.2 c 1.3,0.4 2.7,-0.3 3,-1.6 l 2,-6.8 c 0.4,-1.3 -0.3,-2.7 -1.6,-3 l -0.7,-0.2 c -1.1,-0.3 -1.8,-1.4 -1.7,-2.5 0.2,-2.6 0.1,-5.2 -0.3,-7.9 -0.1,-0.4 -0.1,-0.7 -0.2,-1.1 -0.2,-1.1 0.4,-2.2 1.5,-2.7 l 1,-0.4 c 1.3,-0.5 1.9,-1.9 1.4,-3.2 l -2.6,-6.6 c -0.5,-1.3 -1.9,-1.9 -3.2,-1.4 l -0.9,0.4 c -1.1,0.4 -2.3,0 -3,-0.9 -1.8,-2.6 -3.9,-5 -6.3,-7.1 -0.9,-0.8 -1.1,-2 -0.6,-3 l 0.6,-1 c 0.6,-1.2 0.2,-2.7 -1,-3.3 l -6.2,-3.4 c -1.2,-0.6 -2.7,-0.2 -3.3,1 l -0.5,0.9 c -0.6,1 -1.8,1.5 -2.9,1.2 -2.3,-0.7 -4.8,-1.2 -7.3,-1.4 -1.1,-0.1 -2,-1 -2.2,-2.1 L 162,47.6 c -0.2,-1.3 -1.4,-2.3 -2.8,-2.1 l -7,1 c -1.3,0.2 -2.3,1.4 -2.1,2.8 l 0.1,0.8 c 0.2,1.2 -0.5,2.3 -1.6,2.6 -3.4,1.2 -6.5,2.8 -9.4,4.8 -0.9,0.7 -2.2,0.6 -3,-0.2 l -0.6,-0.5 c -1,-0.9 -2.6,-0.8 -3.5,0.2 l -4.7,5.3 c -0.9,1 -0.8,2.6 0.2,3.5 L 128,66 c 0.9,0.8 1.1,2.1 0.5,3.1 -1.8,3.1 -3.2,6.5 -4,10 -0.3,1.1 -1.3,1.9 -2.4,1.9 h -0.4 c -1.4,0 -2.5,1.1 -2.5,2.4 v 7.1 c 0,1.4 1.1,2.5 2.4,2.5 h 2.2 v 0.1 c 0.6,4.3 1.9,8.4 3.9,12.1 z m 3.3,-8.5 c -5.8,-20.1 9.2,-39.9 30.1,-39.8 13.6,0.1 25.5,9.2 29.3,22.2 5.8,20.1 -9.2,39.9 -30.1,39.8 -13.5,-0.1 -25.5,-9.2 -29.3,-22.2 z"
       id="path253"
       inkscape:connector-curvature="0"
       style="fill:#9da3e0" /><circle
       transform="rotate(-53.453,160.72,87.865)"
       class="st14"
       cx="160.7"
       cy="87.900002"
       r="24.6"
       id="circle255"
       style="fill:#9da3e0" /><path
       class="st15"
       d="m 37.3,133.5 4.2,-1.1 c 0.6,-0.1 1.2,0.1 1.4,0.6 1.1,2 2.3,3.9 3.7,5.7 0.4,0.5 0.4,1.1 0,1.6 l -2.7,3.4 c -0.4,0.5 -0.4,1.2 0.1,1.7 l 2.7,2.7 c 0.5,0.5 1.2,0.5 1.7,0.1 l 3.4,-2.8 c 0.5,-0.4 1.1,-0.4 1.6,0 1.8,1.4 3.7,2.6 5.7,3.6 0.5,0.3 0.8,0.9 0.7,1.4 l -1.1,4.3 c -0.2,0.6 0.2,1.3 0.8,1.5 l 3.6,1.4 c 0.6,0.2 1.3,0 1.6,-0.6 l 2,-4 c 0.3,-0.5 0.9,-0.8 1.4,-0.7 2.2,0.5 4.4,0.8 6.7,1 0.6,0 1.1,0.5 1.2,1.1 l 0.8,4.3 c 0.1,0.6 0.7,1.1 1.3,1.1 l 3.9,-0.2 c 0.6,0 1.2,-0.6 1.2,-1.2 l 0.2,-4.4 c 0,-0.6 0.5,-1.1 1,-1.2 0.8,-0.2 1.6,-0.3 2.4,-0.5 1.4,-0.4 2.8,-0.8 4.1,-1.3 0.6,-0.2 1.2,0 1.5,0.5 l 2.5,3.6 c 0.4,0.5 1.1,0.7 1.7,0.4 l 3.4,-1.8 c 0.6,-0.3 0.8,-1 0.6,-1.6 L 99,148 c -0.2,-0.6 0,-1.2 0.5,-1.5 1.9,-1.3 3.6,-2.8 5.2,-4.3 0.4,-0.4 1.1,-0.5 1.6,-0.2 l 3.7,2.3 c 0.6,0.3 1.3,0.2 1.7,-0.3 l 2.4,-3 c 0.4,-0.5 0.4,-1.2 -0.1,-1.7 l -3.1,-3.1 c -0.4,-0.4 -0.5,-1.1 -0.2,-1.6 1.2,-1.9 2.2,-4 3,-6.1 0.2,-0.6 0.8,-0.9 1.4,-0.8 l 4.3,0.6 c 0.6,0.1 1.3,-0.3 1.4,-1 l 0.9,-3.7 c 0.2,-0.6 -0.2,-1.3 -0.8,-1.5 l -4,-1.5 c -0.6,-0.2 -0.9,-0.8 -0.8,-1.4 0.3,-2.2 0.3,-4.5 0.2,-6.8 0,-0.6 0.3,-1.1 0.9,-1.3 l 4,-1.2 c 0.6,-0.2 1,-0.8 0.9,-1.5 l -0.7,-3.8 c -0.1,-0.6 -0.7,-1.1 -1.3,-1 l -4.2,0.3 c -0.6,0 -1.1,-0.3 -1.3,-0.9 -0.7,-2.2 -1.6,-4.4 -2.6,-6.4 -0.3,-0.5 -0.2,-1.2 0.3,-1.6 l 3.1,-2.7 c 0.5,-0.4 0.6,-1.2 0.2,-1.7 l -2.2,-3.2 C 113,86.9 112.3,86.7 111.7,87 l -3.7,1.9 c -0.5,0.3 -1.2,0.2 -1.6,-0.3 -1.5,-1.7 -3.2,-3.3 -5,-4.8 -0.5,-0.4 -0.6,-1 -0.4,-1.5 l 1.7,-3.7 C 103,78 102.8,77.3 102.2,77 l -3.3,-2 c -0.6,-0.3 -1.3,-0.2 -1.7,0.3 l -2.5,3.2 c -0.4,0.5 -1,0.6 -1.5,0.4 -2.1,-1 -4.3,-1.7 -6.6,-2.3 -0.6,-0.1 -1,-0.7 -1,-1.3 l 0.1,-4.1 c 0,-0.7 -0.5,-1.2 -1.1,-1.3 l -3.8,-0.5 c -0.6,-0.1 -1.3,0.3 -1.4,1 l -1,4 c -0.1,0.6 -0.7,1 -1.2,1 -1.7,0 -3.4,0.1 -5.1,0.3 -0.6,0.1 -1.2,-0.3 -1.4,-0.8 l -1.4,-3.8 c -0.2,-0.6 -0.9,-0.9 -1.5,-0.8 l -3.7,1 c -0.6,0.2 -1,0.8 -0.9,1.4 l 0.6,4.1 c 0.1,0.6 -0.2,1.1 -0.8,1.4 -2.2,0.9 -4.3,1.9 -6.2,3.1 -0.5,0.3 -1.2,0.2 -1.6,-0.2 l -2.9,-2.9 c -0.5,-0.5 -1.2,-0.5 -1.7,-0.1 l -3,2.4 c -0.5,0.4 -0.6,1.1 -0.3,1.7 l 2.2,3.5 c 0.3,0.5 0.2,1.1 -0.2,1.6 -1.6,1.7 -3.1,3.5 -4.3,5.4 -0.3,0.5 -1,0.7 -1.5,0.5 l -3.9,-1.5 c -0.6,-0.2 -1.3,0 -1.6,0.6 l -1.8,3.4 c -0.3,0.6 -0.1,1.3 0.4,1.7 l 3.5,2.3 c 0.5,0.3 0.7,0.9 0.5,1.5 -0.8,2.1 -1.4,4.4 -1.8,6.6 -0.1,0.6 -0.6,1 -1.2,1.1 l -4.2,0.2 c -0.7,0 -1.2,0.6 -1.2,1.2 l -0.2,3.9 c 0,0.7 0.4,1.2 1.1,1.3 l 4.2,0.7 c 0.6,0.1 1,0.6 1.1,1.2 0.2,2.2 0.5,4.5 1.1,6.7 0.1,0.6 -0.1,1.2 -0.6,1.4 l -3.8,2 c -0.6,0.3 -0.8,1 -0.6,1.6 l 1.4,3.6 c 0.1,0.7 0.8,1 1.4,0.8 z M 66.5,129 c -2.4,-1.8 -4.4,-4.2 -5.7,-7 -0.3,-0.7 0.1,-1.6 0.8,-1.8 l 4.2,-1.1 c 0.6,-0.1 1.2,0.1 1.4,0.6 1.9,3.6 5.8,5.9 9.9,5.9 0.6,0 1.1,0.4 1.3,1 l 1.1,4.3 c 0.2,0.8 -0.4,1.5 -1.2,1.6 -3.1,0.2 -6.2,-0.4 -8.9,-1.7 -0.1,-0.1 -0.3,-0.1 -0.4,-0.2 -0.1,-0.1 -0.3,-0.1 -0.4,-0.2 -0.1,-0.1 -0.2,-0.1 -0.4,-0.2 -0.1,-0.1 -0.2,-0.1 -0.4,-0.2 -0.3,-0.4 -0.8,-0.7 -1.3,-1 z m 18,2 c -0.7,0.3 -1.6,-0.1 -1.8,-0.9 l -1.1,-4.2 c -0.1,-0.6 0.1,-1.2 0.7,-1.5 3.8,-1.9 6.2,-5.9 6.2,-10.1 0,-0.6 0.4,-1.1 1,-1.2 l 4.2,-1.1 c 0.8,-0.2 1.5,0.3 1.6,1.1 0.2,3.1 -0.4,6.2 -1.7,8.9 -0.5,1.1 -1.1,2.1 -1.8,3 -1.8,2.6 -4.3,4.7 -7.3,6 z m 3.4,-31.2 c 2.5,1.8 4.6,4.3 5.9,7.3 0.3,0.7 -0.1,1.6 -0.9,1.8 l -4.2,1.1 c -0.6,0.1 -1.2,-0.1 -1.5,-0.7 -2,-3.9 -6.1,-6.3 -10.4,-6.1 -0.6,0 -1.1,-0.4 -1.3,-1 l -1,-4.2 c -0.2,-0.8 0.3,-1.5 1.1,-1.6 3.2,-0.3 6.4,0.3 9.2,1.6 l 1.2,0.6 c 0.1,0.1 0.3,0.1 0.4,0.2 0.1,0.1 0.2,0.1 0.4,0.2 0.1,0.1 0.2,0.1 0.4,0.2 0.1,0.1 0.2,0.2 0.4,0.2 0.1,0.2 0.2,0.3 0.3,0.4 z m -22.8,16.2 -4.2,1.1 c -0.8,0.2 -1.5,-0.3 -1.6,-1.1 -0.3,-3.2 0.3,-6.4 1.6,-9.2 0.5,-1.1 1.1,-2.1 1.8,-3 1.8,-2.4 4.1,-4.4 6.9,-5.7 0.7,-0.3 1.6,0.1 1.8,0.8 l 1.1,4.3 c 0.1,0.6 -0.1,1.2 -0.6,1.4 -3.7,2 -5.9,5.9 -5.8,10.2 0,0.5 -0.4,1.1 -1,1.2 z M 50,96.2 c -0.6,-0.4 -0.8,-1.2 -0.4,-1.9 4.5,-6.2 11.2,-11 19.2,-13.1 8,-2.1 16.1,-1.1 23.1,2.2 0.7,0.3 0.9,1.2 0.6,1.8 l -4.9,8.3 C 87.3,94 86.6,94.3 86,94 81.7,92.2 76.8,91.7 71.9,92.9 67,94.2 62.9,97 60,100.6 c -0.4,0.5 -1.1,0.6 -1.7,0.3 z m 57.1,1.3 c 1.5,2.6 2.6,5.4 3.4,8.4 2.1,8 1.1,16.2 -2.2,23.1 -0.3,0.7 -1.2,0.9 -1.8,0.6 l -8.3,-4.9 c -0.6,-0.3 -0.8,-1 -0.5,-1.6 1.8,-4.3 2.3,-9.2 1.1,-14.1 C 97.5,104.1 94.7,100 91,97.1 90.5,96.7 90.4,96 90.7,95.4 l 4.9,-8.3 c 0.4,-0.6 1.2,-0.8 1.9,-0.4 3.7,2.8 7.1,6.5 9.6,10.8 m -2.1,37 c -4.5,6.2 -11.2,11 -19.2,13.1 -8.1,2.1 -16.2,1.1 -23.2,-2.2 -0.7,-0.3 -0.9,-1.2 -0.6,-1.8 l 4.9,-8.3 c 0.3,-0.6 1,-0.8 1.6,-0.5 4.3,1.9 9.3,2.4 14.2,1.1 4.9,-1.3 9,-4.1 11.9,-7.7 0.4,-0.5 1.1,-0.6 1.7,-0.3 l 8.3,4.9 c 0.7,0.2 0.8,1.1 0.4,1.7 z m -47.9,7.6 c -6.2,-4.5 -10.9,-11.1 -13,-19.2 -2.1,-8 -1.1,-16.2 2.2,-23.1 0.3,-0.7 1.2,-0.9 1.8,-0.6 l 8.3,4.9 c 0.6,0.3 0.8,1 0.5,1.6 -1.8,4.3 -2.3,9.2 -1.1,14.1 1.2,4.9 4,8.9 7.7,11.8 0.5,0.4 0.6,1.1 0.3,1.7 l -4.9,8.3 c -0.3,0.8 -1.1,0.9 -1.8,0.5 z"
       id="path257"
       inkscape:connector-curvature="0"
       style="fill:#3e437a" /><path
       class="st16"
       d="m 43.5,31.2 0.5,2.2 c 0.3,1.4 1.7,2.1 3,1.6 l 0.1,-0.1 c 1.2,-0.5 2.6,0.2 3,1.4 2.9,8.8 8.2,16.7 15.4,22.5 1,0.8 1.1,2.3 0.3,3.2 v 0.1 c -0.9,1 -0.7,2.6 0.5,3.4 l 1.9,1.2 c 1.2,0.8 2.7,0.3 3.3,-1 0.5,-1.2 1.9,-1.7 3.1,-1.1 4,2 8.4,3.5 13.1,4.3 4.7,0.8 9.3,0.9 13.8,0.4 1.3,-0.1 2.4,0.8 2.5,2.1 v 0.2 c 0.1,1.4 1.4,2.3 2.7,2 l 2.2,-0.5 c 1.4,-0.3 2.1,-1.7 1.6,-3 l -0.1,-0.2 c -0.5,-1.2 0.1,-2.5 1.3,-2.9 8.7,-3 16.5,-8.5 22.2,-15.8 0.8,-1 2.3,-1.1 3.2,-0.3 l 0.4,0.4 c 1,0.9 2.6,0.7 3.4,-0.5 l 1.2,-1.9 c 0.8,-1.2 0.3,-2.7 -1,-3.3 l -0.5,-0.2 c -1.2,-0.5 -1.7,-1.9 -1.1,-3 1.9,-3.9 3.3,-8.1 4,-12.5 0.8,-4.8 1,-9.5 0.4,-14.1 -0.2,-1.3 0.8,-2.4 2.1,-2.5 l 1,-0.1 c 1.4,-0.1 2.3,-1.4 2,-2.7 l -0.5,-2.2 c -0.3,-1.4 -1.7,-2.1 -3,-1.6 l -0.9,0.4 c -1.2,0.5 -2.5,-0.1 -2.9,-1.3 -3,-8.6 -8.4,-16.3 -15.5,-22 -1,-0.8 -1.1,-2.3 -0.3,-3.2 l 0.8,-0.9 c 0.9,-1 0.7,-2.6 -0.5,-3.4 l -1.9,-1.2 c -1.2,-0.8 -2.7,-0.3 -3.3,1 l -0.5,1.1 c -0.5,1.2 -1.9,1.7 -3.1,1.1 -4,-2 -8.3,-3.4 -13,-4.2 -4.4,-0.8 -8.7,-0.9 -12.9,-0.5 -1.3,0.1 -2.4,-0.8 -2.4,-2.1 L 89,-29.6 c -0.1,-1.4 -1.4,-2.3 -2.7,-2.1 l -2.3,0.5 c -1.4,0.3 -2.1,1.7 -1.6,3 l 0.4,0.9 c 0.5,1.2 -0.2,2.6 -1.4,2.9 -8.7,2.8 -16.5,8 -22.4,15.1 -0.8,1 -2.3,1.1 -3.2,0.2 l -0.6,-0.5 c -1,-0.9 -2.6,-0.7 -3.4,0.5 l -1.2,1.9 c -0.8,1.2 -0.3,2.7 1,3.3 l 0.5,0.2 c 1.2,0.5 1.7,1.9 1.1,3.1 -2.2,4.2 -3.8,8.8 -4.7,13.8 -0.8,4.4 -0.9,8.7 -0.5,12.9 0.1,1.3 -0.8,2.4 -2.1,2.4 h -0.3 c -1.4,0.1 -2.3,1.4 -2.1,2.7 z M 55.8,8.6 c 2.5,-7.8 7.1,-14.5 13.2,-19.5 1,-0.8 2.5,-0.6 3.3,0.4 l 5.8,8.3 c 0.7,0.9 0.5,2.2 -0.4,3 -3.3,2.9 -6,6.7 -7.6,11 -0.4,1 -1.4,1.6 -2.5,1.4 L 57.5,11.4 C 56.2,11.3 55.3,9.9 55.8,8.6 Z m 26,-13 -5.9,-8.4 c -0.8,-1.1 -0.4,-2.7 0.8,-3.3 6.9,-3.5 14.7,-5.2 22.9,-4.4 1.3,0.1 2.2,1.3 2,2.6 l -1.8,10 c -0.2,1.1 -1.2,1.9 -2.3,1.8 -4.6,-0.3 -9,0.6 -13,2.4 -0.9,0.5 -2.1,0.2 -2.7,-0.7 z m 22.3,-2.4 1.8,-10.1 c 0.2,-1.3 1.6,-2.2 2.9,-1.8 7.6,2.4 14.2,6.9 19.2,12.7 0.9,1 0.7,2.5 -0.4,3.3 l -8.3,5.9 c -0.9,0.7 -2.2,0.5 -3,-0.3 -2.9,-3.2 -6.6,-5.7 -10.7,-7.2 -1.1,-0.4 -1.7,-1.5 -1.5,-2.5 z m 6.8,53.9 5.9,8.3 c 0.8,1.1 0.4,2.6 -0.8,3.3 -6.9,3.7 -14.9,5.6 -23.2,4.9 -1.3,-0.1 -2.3,-1.3 -2,-2.6 l 1.7,-10 c 0.2,-1.1 1.2,-1.9 2.3,-1.9 4.7,0.2 9.2,-0.8 13.3,-2.8 0.9,-0.4 2.1,-0.1 2.8,0.8 z m -22.7,3 -1.8,10.1 C 86.2,61.5 84.8,62.4 83.5,62 75.5,59.6 68.7,54.9 63.6,48.9 62.8,47.9 63,46.4 64,45.6 l 8.3,-5.8 c 0.9,-0.7 2.2,-0.5 3,0.3 3,3.4 6.9,6 11.3,7.6 1.2,0.3 1.8,1.3 1.6,2.4 z M 78.9,29.5 C 71.6,9.8 93.3,-5.4 109.3,8.3 c 1.7,1.4 3,3.3 3.8,5.4 C 120.4,33.4 98.7,48.6 82.7,35 80.9,33.5 79.6,31.6 78.9,29.5 Z M 133.2,1.8 c 3.6,6.8 5.4,14.6 4.8,22.8 -0.1,1.3 -1.3,2.3 -2.6,2 l -10,-1.7 c -1.1,-0.2 -1.9,-1.2 -1.9,-2.3 0.2,-4.6 -0.8,-8.9 -2.7,-12.9 -0.5,-1 -0.2,-2.2 0.7,-2.8 L 130,1 c 1.1,-0.8 2.6,-0.4 3.2,0.8 z m 3.2,31.9 c -2.3,7.9 -6.9,14.6 -12.8,19.7 -1,0.9 -2.5,0.7 -3.3,-0.4 l -5.9,-8.3 c -0.6,-0.9 -0.5,-2.2 0.3,-2.9 3.2,-3 5.8,-6.8 7.3,-11.2 0.4,-1 1.4,-1.7 2.5,-1.5 l 10.1,1.7 c 1.4,0.3 2.2,1.6 1.8,2.9 z m -77.9,7.4 c -3.6,-7 -5.3,-15 -4.6,-23.3 0.1,-1.3 1.3,-2.2 2.6,-2 l 10,1.8 c 1.1,0.2 1.9,1.2 1.9,2.3 -0.3,4.7 0.6,9.3 2.5,13.3 0.5,1 0.1,2.2 -0.7,2.8 l -8.4,5.9 c -1.1,0.7 -2.7,0.4 -3.3,-0.8 z"
       id="path259"
       inkscape:connector-curvature="0"
       style="fill:#00a1d9" /><path
       class="st14"
       d="m 6.7,66.6 0.2,1.1 c 0.1,0.7 0.8,1 1.5,0.8 h 0.1 c 0.6,-0.2 1.2,0.1 1.4,0.7 1.4,4.3 4,8.2 7.5,11 0.5,0.4 0.5,1.1 0.1,1.6 -0.4,0.5 -0.3,1.3 0.2,1.6 l 0.9,0.6 c 0.6,0.4 1.3,0.1 1.6,-0.5 0.3,-0.6 0.9,-0.8 1.5,-0.5 2,1 4.1,1.7 6.4,2.1 2.3,0.4 4.6,0.5 6.7,0.2 0.6,-0.1 1.2,0.4 1.2,1 v 0.1 c 0,0.7 0.7,1.1 1.3,1 l 1.1,-0.2 c 0.7,-0.1 1,-0.8 0.8,-1.5 v -0.1 c -0.2,-0.6 0.1,-1.2 0.7,-1.4 4.3,-1.5 8,-4.2 10.8,-7.7 0.4,-0.5 1.1,-0.6 1.6,-0.2 l 0.2,0.2 c 0.5,0.4 1.3,0.3 1.6,-0.2 l 0.6,-0.9 c 0.4,-0.6 0.1,-1.3 -0.5,-1.6 l -0.3,-0.1 c -0.6,-0.2 -0.8,-0.9 -0.6,-1.5 0.9,-1.9 1.6,-4 2,-6.1 0.4,-2.3 0.5,-4.7 0.2,-6.9 -0.1,-0.6 0.4,-1.2 1,-1.2 H 57 c 0.7,0 1.1,-0.7 1,-1.3 v -1.3 c -0.1,-0.7 -0.8,-1 -1.5,-0.8 L 56,54.8 C 55.4,55 54.8,54.7 54.6,54.1 53.1,49.9 50.5,46.2 47,43.4 46.5,43 46.5,42.3 46.9,41.8 l 0.4,-0.4 c 0.4,-0.5 0.3,-1.3 -0.2,-1.6 l -0.9,-0.6 c -0.6,-0.4 -1.3,-0.1 -1.6,0.5 l -0.2,0.5 c -0.2,0.6 -0.9,0.8 -1.5,0.6 -2,-1 -4.1,-1.7 -6.3,-2.1 -2.1,-0.4 -4.3,-0.5 -6.3,-0.3 -0.6,0.1 -1.2,-0.4 -1.2,-1 v -0.5 c 0,-0.7 -0.7,-1.1 -1.3,-1 l -1.1,0.2 c -0.7,0.1 -1,0.8 -0.8,1.5 l 0.2,0.4 c 0.2,0.6 -0.1,1.2 -0.7,1.4 -4.3,1.4 -8.1,3.9 -10.9,7.4 -0.4,0.5 -1.1,0.5 -1.6,0.1 L 12.6,46.7 C 12.1,46.3 11.3,46.4 11,46.9 l -0.6,0.9 c -0.4,0.6 -0.1,1.3 0.5,1.6 l 0.3,0.1 c 0.6,0.3 0.8,0.9 0.5,1.5 -1.1,2.1 -1.8,4.3 -2.3,6.7 C 9,59.8 8.9,62 9.1,64 c 0.1,0.6 -0.4,1.2 -1,1.2 H 7.9 C 7,65.3 6.6,65.9 6.7,66.6 Z m 6,-11.1 c 1.2,-3.8 3.5,-7.1 6.5,-9.5 0.5,-0.4 1.2,-0.3 1.6,0.2 l 2.8,4.1 c 0.3,0.5 0.2,1.1 -0.2,1.5 -1.6,1.4 -2.9,3.3 -3.7,5.4 -0.2,0.5 -0.7,0.8 -1.2,0.7 L 13.6,57 c -0.7,-0.2 -1.1,-0.9 -0.9,-1.5 z m 12.7,-6.3 -2.9,-4.1 c -0.4,-0.5 -0.2,-1.3 0.4,-1.6 3.4,-1.7 7.2,-2.5 11.2,-2.2 0.6,0.1 1.1,0.7 1,1.3 l -0.9,4.9 c -0.1,0.5 -0.6,0.9 -1.1,0.9 -2.2,-0.1 -4.4,0.3 -6.3,1.2 -0.5,0.2 -1.1,0 -1.4,-0.4 z M 36.3,48 37.2,43.1 c 0.1,-0.7 0.8,-1.1 1.4,-0.9 3.7,1.2 6.9,3.4 9.4,6.2 0.4,0.5 0.3,1.2 -0.2,1.6 l -4.1,2.9 C 43.2,53.2 42.6,53.1 42.3,52.7 40.9,51.2 39.1,49.9 37,49.2 36.5,49 36.2,48.5 36.3,48 Z m 3.3,26.3 2.9,4.1 c 0.4,0.5 0.2,1.3 -0.4,1.6 -3.4,1.8 -7.3,2.7 -11.3,2.4 -0.6,0 -1.1,-0.6 -1,-1.3 l 0.9,-4.9 c 0.1,-0.5 0.6,-0.9 1.1,-0.9 2.3,0.1 4.5,-0.4 6.5,-1.4 0.4,-0.1 1,0 1.3,0.4 z m -11.1,1.5 -0.9,4.9 c -0.1,0.6 -0.8,1.1 -1.4,0.9 C 22.3,80.4 19,78.1 16.5,75.2 16.1,74.7 16.2,74 16.7,73.6 l 4.1,-2.9 c 0.5,-0.3 1.1,-0.2 1.4,0.2 1.5,1.6 3.4,2.9 5.5,3.7 0.6,0.2 0.9,0.7 0.8,1.2 z M 50.6,52.2 c 1.8,3.3 2.6,7.2 2.4,11.1 0,0.6 -0.6,1.1 -1.3,1 L 46.8,63.5 C 46.3,63.4 45.9,62.9 45.9,62.4 46,60.2 45.5,58 44.6,56.1 44.4,55.6 44.5,55 45,54.7 l 4.1,-2.9 c 0.4,-0.4 1.1,-0.2 1.5,0.4 z m 1.5,15.6 c -1.1,3.8 -3.4,7.2 -6.2,9.7 -0.5,0.4 -1.2,0.3 -1.6,-0.2 l -2.9,-4.1 c -0.3,-0.4 -0.3,-1.1 0.2,-1.4 1.6,-1.5 2.8,-3.3 3.6,-5.5 0.2,-0.5 0.7,-0.8 1.2,-0.7 l 4.9,0.9 c 0.6,0 1,0.6 0.8,1.3 z M 14,71.4 C 12.2,68 11.4,64 11.8,60 c 0.1,-0.6 0.7,-1.1 1.3,-1 l 4.9,0.9 c 0.5,0.1 0.9,0.6 0.9,1.1 -0.1,2.3 0.3,4.5 1.2,6.5 0.2,0.5 0.1,1.1 -0.4,1.4 l -4.1,2.9 C 15.1,72.1 14.3,72 14,71.4 Z"
       id="path261"
       inkscape:connector-curvature="0"
       style="fill:#9da3e0" /><path
       class="st17"
       d="m 151.6,31.3 c 0.2,0.5 0,1.1 -0.5,1.4 H 151 c -0.5,0.3 -0.7,1.1 -0.3,1.6 l 1.8,2.8 c 0.3,0.5 1.1,0.7 1.6,0.3 0.5,-0.3 1.1,-0.2 1.5,0.2 1.2,1.3 2.6,2.3 4.2,3.2 0.5,0.3 0.7,0.8 0.6,1.3 v 0.1 c -0.2,0.6 0.2,1.3 0.8,1.4 l 3.2,0.9 c 0.6,0.2 1.3,-0.2 1.4,-0.8 v -0.1 c 0.2,-0.5 0.7,-0.9 1.2,-0.8 h 1.3 c 1.3,0 2.6,-0.1 3.8,-0.4 0.5,-0.1 1.1,0.2 1.3,0.7 l 0.1,0.2 c 0.3,0.6 1,0.8 1.5,0.6 l 3.1,-1.4 c 0.6,-0.3 0.8,-1 0.6,-1.5 l -0.1,-0.2 c -0.2,-0.5 -0.1,-1.1 0.4,-1.4 1.4,-1 2.6,-2.2 3.6,-3.6 0.3,-0.4 0.9,-0.6 1.4,-0.4 l 0.3,0.1 c 0.6,0.3 1.3,0 1.5,-0.6 l 1.4,-3.1 c 0.3,-0.6 0,-1.3 -0.6,-1.5 l -0.3,-0.2 c -0.5,-0.2 -0.8,-0.8 -0.7,-1.3 0.3,-1.2 0.4,-2.4 0.4,-3.7 v -0.5 c 0,-0.5 0.4,-1 0.9,-1.2 l 0.5,-0.1 c 0.6,-0.2 1,-0.8 0.8,-1.4 l -0.8,-3.3 c -0.2,-0.6 -0.8,-1 -1.4,-0.8 l -0.5,0.1 c -0.5,0.1 -1.1,-0.1 -1.3,-0.6 -0.7,-1.4 -1.5,-2.6 -2.5,-3.8 -0.4,-0.4 -0.4,-1 -0.1,-1.5 l 0.3,-0.4 c 0.4,-0.5 0.3,-1.2 -0.3,-1.6 l -2.7,-2 c -0.5,-0.4 -1.2,-0.3 -1.6,0.3 L 177,8.7 c -0.3,0.4 -0.9,0.6 -1.4,0.4 C 174.5,8.6 173.4,8.2 172.3,8 171.8,7.9 171.4,7.4 171.4,6.9 V 6.4 c 0,-0.6 -0.5,-1.2 -1.2,-1.2 h -3.4 c -0.6,0 -1.2,0.5 -1.2,1.2 v 0.4 c 0,0.6 -0.4,1 -0.9,1.1 -1.7,0.3 -3.3,0.9 -4.7,1.7 -0.5,0.2 -1.1,0.1 -1.4,-0.3 L 158.3,9 c -0.4,-0.5 -1.2,-0.5 -1.6,-0.1 l -2.5,2.2 c -0.5,0.4 -0.5,1.2 -0.1,1.6 l 0.1,0.2 c 0.4,0.4 0.4,1 0,1.5 -1.1,1.3 -1.9,2.8 -2.5,4.5 -0.2,0.5 -0.7,0.8 -1.2,0.7 h -0.2 c -0.6,-0.1 -1.2,0.4 -1.3,1 l -0.5,3.3 c -0.1,0.6 0.4,1.2 1,1.3 l 1,0.1 c 0,2.1 0.4,4.1 1.1,6 z m 7.4,-4.7 c -0.9,-6.3 4.4,-11.6 10.7,-10.7 4.1,0.6 7.3,3.8 7.9,7.8 0.9,6.3 -4.4,11.6 -10.7,10.7 -4.1,-0.5 -7.3,-3.7 -7.9,-7.8 z"
       id="path263"
       inkscape:connector-curvature="0"
       style="fill:#074d82" /><path
       class="st36"
       d="M 164.9,234.8 H 135 c -2.5,0 -4.6,-2 -4.6,-4.6 v -5.6 c 0,-2.5 2,-4.6 4.6,-4.6 h 29.9 c 2.5,0 4.6,2 4.6,4.6 v 5.6 c 0,2.6 -2.1,4.6 -4.6,4.6 z"
       id="path265"
       inkscape:connector-curvature="0"
       style="clip-rule:evenodd;fill:#ffffff;fill-rule:evenodd" /><path
       class="st24"
       d="m 131.9,245.9 c 0.1,-0.1 0.2,-0.2 0.3,-0.2 0,0 0.1,-0.1 0.1,0 0.1,0 0.1,-0.1 0.2,-0.1 0.2,-0.1 0.4,-0.3 0.5,-0.4 0.4,-0.2 0.7,-0.4 1.1,-0.5 0.4,-0.1 0.9,0 1.1,0.3 0.1,0.1 0.2,0.3 0.4,0.4 l 0.6,0.3 c 0.4,0.1 0.8,0.2 1.3,0.2 0.4,0 0.9,0 1.3,-0.1 0.5,-0.1 0.9,-0.3 1.3,-0.5 l 0.6,-0.3 c 0.2,-0.1 0.3,-0.2 0.5,-0.3 0.4,-0.2 0.8,-0.3 1.2,-0.2 0.4,0 0.7,0.2 1,0.4 0.7,0.5 1.3,1.2 2.1,1.4 0.4,0.1 0.9,0 1.3,-0.1 0.4,-0.1 0.8,-0.2 1.2,-0.4 0.9,-0.3 1.7,-0.7 2.5,-1 0.9,-0.3 1.9,-0.3 2.8,0 0.4,0.1 0.7,0.4 1.1,0.6 0.4,0.2 0.8,0.3 1.3,0.3 h 0.7 c 0.3,0 0.5,-0.3 0.7,-0.6 0.1,-0.1 0.3,-0.6 0,-0.6 -0.5,0 -0.9,0.1 -1.4,0 -0.4,-0.1 -0.7,-0.4 -1.1,-0.6 -0.9,-0.5 -1.9,-0.6 -2.8,-0.4 -0.9,0.2 -1.8,0.6 -2.6,0.9 -0.4,0.2 -0.8,0.3 -1.3,0.4 -0.4,0.1 -0.8,0.3 -1.2,0.3 -0.4,0 -0.8,-0.1 -1.2,-0.3 -0.4,-0.2 -0.7,-0.5 -1,-0.8 -0.3,-0.2 -0.6,-0.5 -1,-0.6 -0.4,-0.2 -0.8,-0.2 -1.2,-0.1 -0.5,0.1 -0.9,0.3 -1.3,0.5 l -0.6,0.3 c -0.2,0.1 -0.3,0.2 -0.6,0.3 -0.8,0.3 -1.7,0.3 -2.5,0.2 -0.4,-0.1 -0.8,-0.2 -1.1,-0.5 -0.1,-0.1 -0.2,-0.3 -0.4,-0.4 -0.2,-0.1 -0.4,-0.2 -0.7,-0.2 -0.4,0 -0.9,0.1 -1.3,0.3 -0.4,0.2 -0.8,0.5 -1.2,0.7 -0.1,0.1 -0.2,0.2 -0.4,0.3 0,0 -0.1,0.1 0,0 l -0.1,0.1 c -0.3,0.2 -0.5,0.5 -0.6,0.8 0,0.1 -0.1,0.2 0,0.3 0.2,0 0.3,-0.1 0.4,-0.1 z m 0.6,5.5 c 0.6,-0.3 1.2,-0.4 1.7,-0.7 0.5,-0.2 1,-0.5 1.5,-0.5 1,-0.1 1.9,0.6 2.7,1.1 0.4,0.2 0.9,0.4 1.4,0.5 0.6,0.1 1.1,0 1.6,-0.1 1.1,-0.3 2.1,-0.9 3.2,-1 0.5,0 1.2,0 1.7,0.2 0.6,0.2 1.1,0.7 1.7,0.8 0.1,0 0.2,-0.1 0.3,-0.2 0.1,-0.1 0.3,-0.3 0.3,-0.4 0.1,-0.1 0.3,-0.5 0,-0.6 -0.5,-0.1 -1,-0.5 -1.5,-0.7 -0.5,-0.2 -0.9,-0.2 -1.4,-0.2 -1.2,0 -2.3,0.5 -3.4,0.9 -0.5,0.2 -1,0.4 -1.6,0.3 -0.5,0 -0.9,-0.2 -1.3,-0.4 -0.9,-0.4 -1.7,-1.1 -2.7,-1.2 -0.6,-0.1 -1.2,0.2 -1.8,0.5 -0.6,0.3 -1.3,0.5 -1.9,0.8 -0.3,0.1 -0.5,0.4 -0.6,0.7 0,0.1 -0.1,0.2 -0.1,0.3 0,-0.1 0.1,-0.1 0.2,-0.1 z m 34.5,-16.7 0.6,0.6 1.6,1.6 2.4,2.4 c 1,1 2,1.9 3,2.9 1.1,1.1 2.2,2.1 3.3,3.2 1.1,1.1 2.2,2.2 3.3,3.2 1,1 2,2 3.1,3 0.9,0.8 1.7,1.7 2.6,2.5 0.6,0.6 1.2,1.2 1.9,1.8 l 0.9,0.9 c 0.2,0.2 0.5,0 0.7,-0.1 0.3,-0.2 0.7,-0.5 0.9,-0.8 0.2,-0.3 0.5,-0.7 0.6,-1.1 0.1,-0.2 0.1,-0.5 -0.1,-0.7 l -0.6,-0.6 -1.6,-1.6 -2.4,-2.4 c -1,-1 -2,-1.9 -3,-2.9 -1.1,-1.1 -2.2,-2.1 -3.3,-3.2 -1.1,-1.1 -2.2,-2.2 -3.3,-3.2 -1,-1 -2,-2 -3.1,-3 -0.9,-0.8 -1.7,-1.7 -2.6,-2.5 -0.6,-0.6 -1.2,-1.2 -1.9,-1.8 l -0.9,-0.9 c -0.2,-0.2 -0.5,0 -0.7,0.1 -0.3,0.2 -0.7,0.5 -0.9,0.8 -0.2,0.3 -0.5,0.7 -0.6,1.1 0,0.2 -0.1,0.5 0.1,0.7 z"
       id="path267"
       inkscape:connector-curvature="0"
       style="fill:#ffffff" /><path
       transform="rotate(45.001,156.319,241.886)"
       class="st36"
       d="m 153.9,230.2 h 4.8 v 23.3 h -4.8 z"
       id="path269"
       inkscape:connector-curvature="0"
       style="clip-rule:evenodd;fill:#ffffff;fill-rule:evenodd" /><defs
       id="defs272"><circle
         id="SVGID_00000098202304962421903780000013069822679360342915_"
         transform="rotate(-45.001,246.228,229.536)"
         cx="246.2"
         cy="229.5"
         r="17.9" /></defs><use
       xlink:href="#SVGID_00000098202304962421903780000013069822679360342915_"
       style="clip-rule:evenodd;overflow:visible;fill:#4a4848;fill-rule:evenodd"
       id="use274"
       x="0"
       y="0"
       width="100%"
       height="100%" /><clipPath
       id="SVGID_00000080187265141645416590000012129273673755342520_"><use
         xlink:href="#SVGID_00000098202304962421903780000013069822679360342915_"
         style="overflow:visible"
         id="use276"
         x="0"
         y="0"
         width="100%"
         height="100%" /></clipPath><path
       class="st38"
       d="m 253.8,212.2 c 0.8,0.1 1.8,0.2 2.6,0.7 0.1,0.1 0.4,0.3 0.4,0.5 0.1,0.3 -0.1,0.4 -0.3,0.4 -0.2,0 -0.5,-0.2 -0.8,-0.3 -0.6,-0.2 -1.2,-0.2 -1.8,-0.3 -1.4,-0.1 -2.7,-0.2 -4.1,-0.1 -1.3,0.1 -2.5,0 -3.8,0.5 -1.7,0.7 -3.2,1.6 -4.7,2.5 -0.8,0.5 -1.6,1.1 -2.4,1.7 -0.8,0.6 -1.3,1.3 -1.9,2 -0.1,0.2 -0.3,0.3 -0.5,0.4 -0.4,0.2 -0.8,0.4 -1.1,0.7 -0.9,1 -1.6,2.4 -2.1,3.7 -0.4,1.1 -0.9,2.2 -0.8,3.3 0,1.1 0.3,2.3 0.6,3.4 0.3,1 1,1.9 1.4,2.8 0.4,0.8 0.9,1.6 1.4,2.4 0.8,1.3 1.9,2.4 2.9,3.5 1,1 2.3,2.1 3.7,2.7 0.6,0.3 1.2,0.7 1.8,0.9 0.3,0.1 0.6,0.1 0.9,0.3 0.3,0.2 0.5,0.3 0.9,0.4 1.4,0.3 2.7,0.6 4.1,0.8 1,0.1 2.1,0.3 3.1,0.1 0.6,-0.1 1.3,-0.2 1.9,-0.2 0.3,0 0.8,0 1,-0.1 -0.2,-0.2 -0.3,0.1 -0.5,0.2 -0.3,0.2 -0.6,0.3 -0.8,0.4 l -0.9,0.6 c -1,0.6 -2,1.3 -3.2,1.7 -1,0.4 -2,0.6 -3,0.8 -1.4,0.3 -2.6,0.9 -4,0.8 -1.2,0 -2.4,-0.3 -3.5,-0.5 -0.9,-0.1 -1.8,-0.3 -2.7,-0.6 -0.6,-0.2 -1.2,-0.6 -1.7,-0.9 -1.7,-0.9 -3.5,-1.6 -5.1,-2.7 -2.9,-2 -5.5,-4.6 -7.3,-7.7 -1.2,-2 -2.3,-4.2 -3,-6.5 -0.6,-1.9 -0.8,-3.9 -0.9,-5.8 -0.2,-2.3 0.1,-4.7 1.1,-6.8 0.8,-1.8 1.9,-3.4 3.1,-4.9 1.4,-1.6 3.2,-3.1 5,-4.2 2.3,-1.4 5,-2.1 7.7,-2.5 2,-0.3 4.1,-0.4 6.1,0 2,0.3 4.1,1 6.1,1.7 1.5,0.6 2.9,1.2 4.2,2.1 1.3,0.9 2.4,2 3.4,3.2"
       style="clip-rule:evenodd;fill:#1c1c1c;fill-rule:evenodd"
       clip-path="url(#SVGID_00000080187265141645416590000012129273673755342520_)"
       id="path279"
       inkscape:connector-curvature="0" /><defs
       id="defs282"><path
         id="SVGID_00000134964596931340233310000001956096728040123531_"
         transform="rotate(-33.301,217.812,248.167)"
         d="m 195.2,246 h 45.3 v 4.2 h -45.3 z"
         inkscape:connector-curvature="0" /></defs><use
       xlink:href="#SVGID_00000134964596931340233310000001956096728040123531_"
       style="clip-rule:evenodd;overflow:visible;fill:#4a4848;fill-rule:evenodd"
       id="use284"
       x="0"
       y="0"
       width="100%"
       height="100%" /><clipPath
       id="SVGID_00000080886039036082505670000016521335835449378692_"><use
         xlink:href="#SVGID_00000134964596931340233310000001956096728040123531_"
         style="overflow:visible"
         id="use286"
         x="0"
         y="0"
         width="100%"
         height="100%" /></clipPath><path
       class="st38"
       d="m 210.5,253.2 h -0.2 c 0.1,-0.2 0.2,-0.2 0.4,-0.3 0.6,-0.4 1.1,-0.9 1.7,-1.3 1.7,-1.1 3.4,-2.3 5,-3.5 1.4,-1 2.9,-1.9 4.4,-2.8 2.4,-1.4 4.8,-2.9 7.1,-4.5 0.5,-0.3 1.1,-0.6 1.5,-1 0.3,-0.2 0.5,-0.6 0.8,-0.8 0.6,-0.5 1.5,-0.8 2.2,-1.4 0.2,-0.2 0.6,-0.5 0.8,-0.8 0.2,-0.3 0.2,-0.8 0.3,-1.1 0.1,-0.6 0.2,-0.9 0.1,-1.5 -0.1,-0.4 -0.3,-1.1 -0.5,-1.4 -0.6,-0.6 -2.2,0.1 -2.8,0.4 -1.2,0.5 -2.4,1.1 -3.6,1.7 -2.4,1.2 -4.6,2.8 -6.9,4.4 -2.4,1.6 -4.9,3.1 -7.2,4.6 -2.1,1.4 -4.1,2.9 -6.1,4.2 -1.5,1 -3,1.7 -4.4,2.7 l -1.2,0.9 c -0.3,0.3 -0.7,0.7 -1.2,0.8 0.1,-0.1 0.1,-0.1 0.2,0"
       style="clip-rule:evenodd;fill:#1c1c1c;fill-rule:evenodd"
       clip-path="url(#SVGID_00000080886039036082505670000016521335835449378692_)"
       id="path289"
       inkscape:connector-curvature="0" /><path
       class="st38"
       d="m 128.4,294.3 -0.8,-4.1 -45.9,9.6 0.8,4.1 z"
       id="path291"
       inkscape:connector-curvature="0"
       style="clip-rule:evenodd;fill:#1c1c1c;fill-rule:evenodd" /><path
       class="st40"
       d="m 162.6,252.3 c -0.6,0.9 -1.3,2.2 -2.3,2.8 -1,0.6 -2.1,1.1 -3.1,1.7 -0.3,0.2 -0.9,0.4 -1.3,0.5 -0.2,0.1 -0.4,0.1 -0.6,0.2 -0.4,0.2 -0.5,0.1 -0.9,0.1 -0.5,0 -0.9,0.2 -1.4,0.2 -0.3,-0.1 -0.7,-0.2 -1,-0.3 -0.3,-0.1 -0.5,-0.1 -0.7,-0.1 -0.3,-0.1 -0.5,-0.3 -0.8,-0.3 -0.2,0 -0.5,0.1 -0.7,0.1 -0.4,0 -0.7,-0.2 -1,-0.3 -0.5,-0.2 -1.1,-0.3 -1.7,-0.5 -0.7,-0.2 -1.2,0 -1.8,0 -0.4,0 -0.7,-0.1 -1.2,-0.1 -0.4,0.1 -0.7,0.2 -1.1,0.2 -0.7,0.1 -1.4,0.3 -2.2,0.4 -1.8,0.3 -3.3,1.3 -4.5,2.6 -1.4,1.5 -2.9,3.4 -3.6,5.3 -0.3,0.9 -0.5,1.7 -0.9,2.6 -0.5,0.9 -1.1,1.8 -1.5,2.7 -1.2,2.7 -0.7,6.2 0.1,8.9 0.7,2.3 1.8,4.4 3.3,6.3 1.1,-0.3 0.5,-2.3 1.4,-3 0.5,-0.5 1.4,-0.2 1.9,0.3 0.5,0.6 0.6,1.3 0.7,2 1.4,7.7 4.3,15.3 9.7,20.9 4.1,4.3 10,7.2 16,7.3 1.3,0 2.6,-0.1 3.9,-0.4 0.7,-0.1 1.2,-0.2 1.6,-0.7 0.5,-0.6 1,-1.3 1.3,-2.1 0.6,-1.6 0.1,-3.4 -0.7,-4.9 -1.3,-2.7 -3.5,-4.9 -4.8,-7.6 -1.3,-2.7 -1.7,-6.3 0.3,-8.5 1.2,-1.3 3.1,-2 3.8,-3.5 1.1,-2.3 -0.9,-4.8 -1.6,-7.3 -0.5,-1.7 -0.2,-3.6 0.5,-5.2 1.2,-2.5 3.7,-3.4 5.9,-4.9 0.7,-0.4 1.2,-0.6 1.9,-0.9 0.7,-0.3 1.3,-0.8 2,-1.1 1.3,-0.6 2.6,-0.8 4,-1.1 1.4,-0.3 3.1,-0.4 4.6,-0.4 0.5,0 1.2,0.1 1.7,0.2 0.3,0.1 0.6,0.3 1,0.4 1,0.3 1.8,0.6 2.8,1 3.7,1.6 6.7,4.4 9.7,7 1.5,1.4 2.7,2.9 3.8,4.6 1.2,1.7 2.5,3.4 3.2,5.3 0.7,1.8 1.4,3.5 1.9,5.3 0.7,-11.8 -3.4,-23.9 -12.4,-32.9 -9.2,-9.2 -21.6,-13.3 -33.7,-12.4 0.4,0.8 0.7,1.8 0.8,2.6 0.1,2.6 -0.9,5 -2.3,7 z"
       id="path293"
       inkscape:connector-curvature="0"
       style="fill:#4a4848" /><path
       d="m 137.2,315.8 c 16.7,16.7 43.9,16.7 60.7,-0.1 7.7,-7.7 11.9,-17.7 12.5,-27.7 -0.5,-1.8 -1.2,-3.5 -1.9,-5.3 -0.8,-1.9 -2.1,-3.6 -3.2,-5.3 -1.1,-1.7 -2.3,-3.2 -3.8,-4.6 -3,-2.7 -5.9,-5.5 -9.7,-7 -0.9,-0.4 -1.7,-0.8 -2.8,-1 -0.3,-0.1 -0.6,-0.3 -1,-0.4 -0.5,-0.1 -1.2,-0.2 -1.7,-0.2 -1.5,0 -3.2,0.1 -4.6,0.4 -1.4,0.3 -2.7,0.5 -4,1.1 -0.7,0.3 -1.3,0.8 -2,1.1 -0.7,0.3 -1.3,0.5 -1.9,0.9 -2.3,1.4 -4.7,2.3 -5.9,4.9 -0.8,1.6 -1,3.5 -0.5,5.2 0.7,2.5 2.7,5 1.6,7.3 -0.7,1.6 -2.6,2.3 -3.8,3.5 -2,2.2 -1.7,5.8 -0.3,8.5 1.3,2.7 3.5,4.9 4.8,7.6 0.7,1.5 1.3,3.3 0.7,4.9 -0.3,0.8 -0.8,1.5 -1.3,2.1 -0.4,0.5 -0.9,0.6 -1.6,0.7 -1.3,0.3 -2.6,0.4 -3.9,0.4 -6,-0.1 -11.8,-3 -16,-7.3 -5.4,-5.6 -8.3,-13.3 -9.7,-20.9 -0.1,-0.7 -0.3,-1.4 -0.7,-2 -0.5,-0.6 -1.4,-0.8 -1.9,-0.3 -0.9,0.8 -0.3,2.8 -1.4,3 -1.5,-1.8 -2.6,-4 -3.3,-6.3 -0.8,-2.7 -1.3,-6.3 -0.1,-8.9 0.4,-0.9 1.1,-1.8 1.5,-2.7 0.4,-0.8 0.6,-1.7 0.9,-2.6 0.7,-1.9 2.2,-3.9 3.6,-5.3 1.2,-1.3 2.7,-2.3 4.5,-2.6 0.7,-0.1 1.4,-0.3 2.2,-0.4 0.4,0 0.7,-0.1 1.1,-0.2 0.5,-0.1 0.8,0 1.2,0.1 0.7,0.1 1.2,-0.2 1.8,0 0.6,0.2 1.2,0.3 1.7,0.5 0.3,0.1 0.6,0.3 1,0.3 0.3,0 0.5,-0.1 0.7,-0.1 0.3,0 0.6,0.2 0.8,0.3 0.3,0.1 0.5,0.1 0.7,0.1 0.3,0.1 0.7,0.3 1,0.3 0.5,0.1 0.9,-0.1 1.4,-0.2 0.4,0 0.5,0 0.9,-0.1 0.2,-0.1 0.4,-0.1 0.6,-0.2 0.4,-0.1 1,-0.3 1.3,-0.5 1,-0.6 2.1,-1.1 3.1,-1.7 1,-0.6 1.7,-1.8 2.3,-2.8 1.4,-2.1 2.5,-4.5 2.4,-7 0,-0.8 -0.4,-1.8 -0.8,-2.6 -9.8,0.8 -19.4,4.9 -27,12.5 -16.9,16.8 -17,43.9 -0.2,60.6 z"
       style="fill:#1c1c1c"
       id="path295"
       inkscape:connector-curvature="0" /><path
       d="m 148.3,315.7 c -0.9,-0.7 -2.2,-0.6 -3,0.3 l -15.5,18.7 3.3,2.7 15.5,-18.7 c 0.7,-1 0.6,-2.3 -0.3,-3 z"
       style="clip-rule:evenodd;fill:#2554ab;fill-rule:evenodd"
       id="path297"
       inkscape:connector-curvature="0" /><path
       class="st43"
       d="m 213,304.8 c -2,-1.7 -3.6,-3.7 -5.8,-5.2 -2.1,-1.5 -4.7,-2.4 -6.9,-3.8 -7.3,-4.6 -9.9,-15.3 -5.5,-22.8 0.8,-1.4 1.8,-2.6 2.2,-4.1 0.5,-1.6 0.3,-3.3 0.4,-5 0.3,-3.7 2.4,-7.2 5.4,-9.3 2.9,-2 7,-2.8 10.5,-3.1 -10.3,-3.1 -22,-0.5 -30.2,7.7 -11.9,11.9 -11.9,31.1 0,43 9.9,9.9 24.8,11.5 36.4,4.9 -0.3,0 -0.5,0.1 -0.8,0.1 -2.1,0.5 -4.1,-1.1 -5.7,-2.4 z"
       id="path299"
       inkscape:connector-curvature="0"
       style="fill:#2554ab" /><path
       class="st44"
       d="m 226.2,259.1 c -3.7,-3.7 -8.1,-6.2 -12.8,-7.6 -3.5,0.2 -7.6,1 -10.5,3.1 -3,2.1 -5.1,5.6 -5.4,9.3 -0.1,1.7 0.1,3.4 -0.4,5 -0.4,1.5 -1.4,2.8 -2.2,4.1 -4.4,7.4 -1.8,18.2 5.5,22.8 2.2,1.4 4.8,2.3 6.9,3.8 2.1,1.5 3.8,3.5 5.8,5.2 1.5,1.3 3.6,2.9 5.8,2.5 0.3,-0.1 0.5,-0.1 0.8,-0.1 2.3,-1.3 4.6,-3 6.6,-5 11.8,-12 11.8,-31.2 -0.1,-43.1 z"
       id="path301"
       inkscape:connector-curvature="0"
       style="fill:#2385df" /><path
       class="st40"
       d="m 70,298 c -0.2,2.1 0.8,4.3 2.7,5.2 0.3,0.2 0.7,0.3 1,0.2 1.4,-0.2 1.4,-2.7 2.7,-3 1.4,-0.3 1.8,1.9 2.8,3 0.8,0.8 2.4,0.8 3.1,-0.1 0.6,-0.7 0.7,-1.7 0.9,-2.6 0.1,-0.5 0.3,-0.9 0.6,-1.3 -0.6,-1.5 -1.5,-3 -2.7,-4.2 -2,-2 -4.5,-3.1 -7.2,-3.4 -0.2,0.4 -0.6,0.9 -0.8,1.1 -1.5,1.6 -3,2.8 -3.1,5.1 z"
       id="path303"
       inkscape:connector-curvature="0"
       style="fill:#4a4848" /><path
       d="m 64.4,295.2 c -4.6,4.6 -4.6,12.1 0,16.7 4.6,4.6 12.1,4.6 16.7,0 3.4,-3.4 4.3,-8.3 2.7,-12.4 -0.3,0.4 -0.5,0.8 -0.6,1.3 -0.2,0.9 -0.3,1.9 -0.9,2.6 -0.8,0.9 -2.3,1 -3.1,0.1 -1,-1 -1.3,-3.2 -2.8,-3 -1.4,0.3 -1.4,2.8 -2.7,3 -0.3,0.1 -0.7,-0.1 -1,-0.2 -1.9,-0.9 -2.8,-3.2 -2.7,-5.2 0.2,-2.3 1.7,-3.5 3.1,-5.1 0.2,-0.2 0.7,-0.7 0.8,-1.1 -3.4,-0.4 -6.9,0.7 -9.5,3.3 z"
       id="path305"
       inkscape:connector-curvature="0" /><path
       class="st45"
       d="m 154.5,230.5 c 0.3,0.4 0.9,0.8 1.4,0.8 0.7,0.1 1.4,0.2 2,0.4 0.3,0.1 0.6,0.2 0.9,0.1 0.6,-0.1 0.9,-0.8 0.9,-1.4 0,-0.8 -0.5,-1.6 -1.2,-2.1 -0.7,-0.5 -1.5,-0.6 -2.4,-0.6 -0.4,0 -0.7,0.1 -1,0.3 -0.5,0.3 -0.9,0.8 -0.9,1.3 0,0.4 0.1,0.9 0.3,1.2 z"
       id="path307"
       inkscape:connector-curvature="0"
       style="clip-rule:evenodd;fill:#8169d6;fill-rule:evenodd" /><path
       class="st46"
       d="m 172.4,237.3 c -1.4,0.9 -3,1.5 -4.6,1.8 -1.2,0.2 -2.4,0.4 -3.6,0.4 -1.2,0.1 -2.4,-0.4 -3.2,-1.2 -1.1,-1.1 -1.5,-2.8 -2.7,-3.8 -2.4,-1.9 -6,0.1 -9,-0.7 -2,-0.6 -3.3,-2.3 -4.5,-3.9 -0.6,-0.9 -1.3,-1.8 -1.6,-2.8 -0.3,-1 -0.3,-2.3 0.4,-3.1 0.7,-0.8 1.9,-1.2 2.5,-2.1 0.8,-1.3 0.1,-2.9 -0.4,-4.3 -1.1,-2.9 0.9,-5.9 2.9,-7.9 4.4,-4.4 11.4,-4.9 17.7,-1.8 -8.6,-6.2 -20.7,-5.4 -28.5,2.4 -8.7,8.7 -8.7,22.7 0,31.3 8.6,8.6 22.7,8.6 31.3,0 1.3,-1.4 2.4,-2.8 3.3,-4.3 z"
       id="path309"
       inkscape:connector-curvature="0"
       style="fill:#ac8fff" /><path
       d="m 148.6,209.6 c -2,2 -4,5 -2.9,7.9 0.5,1.4 1.3,3 0.4,4.3 -0.6,0.9 -1.8,1.2 -2.5,2.1 -0.7,0.8 -0.8,2.1 -0.4,3.1 0.3,1 1,1.9 1.6,2.8 1.2,1.6 2.5,3.4 4.5,3.9 2.9,0.9 6.6,-1.2 9,0.7 1.2,1 1.6,2.7 2.7,3.8 0.8,0.8 2,1.3 3.2,1.2 1.2,-0.1 2.4,-0.2 3.6,-0.4 1.6,-0.3 3.2,-0.9 4.6,-1.8 5.2,-8.5 4.1,-19.8 -3.3,-27.2 -0.9,-0.9 -1.8,-1.7 -2.8,-2.4 -6.3,-2.9 -13.3,-2.4 -17.7,2 z"
       style="fill:#8169d6"
       id="path311"
       inkscape:connector-curvature="0" /><path
       class="st44"
       d="m 133.7,325.5 c -2.8,-0.6 -6,-0.5 -8.4,1.1 -1.3,0.8 -2.6,2 -2.8,3.6 -0.1,1.2 0.3,2.3 0.6,3.5 0.3,1 0.4,2.1 0.4,3.1 0,0.8 -0.2,1.7 -0.9,2 -1.3,0.5 -2.1,-1.7 -3.5,-2.2 -1.4,-0.5 -2.6,1 -3.2,2.3 -0.7,1.6 -1.1,3.6 0.1,4.9 1.3,1.4 3.6,1 5.3,1.7 2.1,1 2.9,3.5 3.3,5.7 0.5,2.2 0.9,4.7 2.7,6.1 1.6,1.2 3.7,1.3 5.7,1.2 1.6,0 3.9,0.4 5.3,-0.4 0.5,-0.3 0.9,-0.7 1.4,-1 0.8,-0.5 1.8,-0.8 2.5,-1.4 1.1,-1 2.3,-1.9 3.3,-2.9 0.6,-0.6 1.2,-1.3 1.8,-2 1.7,-5.9 0.8,-12.4 -2.5,-17.7 -0.4,-0.5 -0.9,-1 -1.4,-1.5 -2.6,-2.8 -6,-5.4 -9.7,-6.1 z"
       id="path313"
       inkscape:connector-curvature="0"
       style="fill:#2385df" /><path
       class="st43"
       d="m 110.4,329 c -8.7,8.7 -8.7,22.7 0,31.3 8.7,8.6 22.7,8.6 31.3,0 2.8,-2.8 4.7,-6.1 5.7,-9.7 -0.6,0.7 -1.1,1.4 -1.8,2 -1,1 -2.2,1.9 -3.3,2.9 -0.7,0.7 -1.7,0.9 -2.5,1.4 -0.5,0.3 -0.9,0.7 -1.4,1 -1.4,0.9 -3.7,0.4 -5.3,0.4 -2,0 -4.1,0 -5.7,-1.2 -1.8,-1.4 -2.3,-3.9 -2.7,-6.1 -0.5,-2.2 -1.3,-4.7 -3.3,-5.7 -1.7,-0.8 -4,-0.4 -5.3,-1.7 -1.2,-1.3 -0.8,-3.3 -0.1,-4.9 0.6,-1.3 1.8,-2.8 3.2,-2.3 1.4,0.5 2.1,2.7 3.5,2.2 0.7,-0.3 0.9,-1.2 0.9,-2 0,-1.1 -0.1,-2.1 -0.4,-3.1 -0.3,-1.1 -0.8,-2.3 -0.6,-3.5 0.2,-1.6 1.4,-2.8 2.8,-3.6 2.5,-1.5 5.6,-1.6 8.4,-1.1 3.7,0.7 7.1,3.3 9.7,5.9 0.5,0.5 1,1 1.4,1.5 -0.9,-1.4 -1.9,-2.7 -3.1,-3.9 -8.7,-8.5 -22.8,-8.4 -31.4,0.2 z"
       id="path315"
       inkscape:connector-curvature="0"
       style="fill:#2554ab" /><g
       id="g319"><path
         class="st45"
         d="m 158,239.5 -6.2,0.3 0.7,15.9 c 0.1,1.3 1.2,2.3 2.5,2.3 l 1.5,-0.1 c 1.3,-0.1 2.3,-1.2 2.3,-2.5 z"
         id="path317"
         inkscape:connector-curvature="0"
         style="clip-rule:evenodd;fill:#8169d6;fill-rule:evenodd" /></g></g></svg>