<?xml version="1.0" encoding="UTF-8" standalone="no"?>
<svg
   xmlns:dc="http://purl.org/dc/elements/1.1/"
   xmlns:cc="http://creativecommons.org/ns#"
   xmlns:rdf="http://www.w3.org/1999/02/22-rdf-syntax-ns#"
   xmlns:svg="http://www.w3.org/2000/svg"
   xmlns="http://www.w3.org/2000/svg"
   xmlns:sodipodi="http://sodipodi.sourceforge.net/DTD/sodipodi-0.dtd"
   xmlns:inkscape="http://www.inkscape.org/namespaces/inkscape"
   viewBox="0 0 299.99999 737.3"
   xml:space="preserve"
   version="1.1"
   id="svg1538"
   sodipodi:docname="societyTL.svg"
   width="300"
   height="737.29999"
   inkscape:version="0.92.4 (5da689c313, 2019-01-14)"><metadata
     id="metadata1544"><rdf:RDF><cc:Work
         rdf:about=""><dc:format>image/svg+xml</dc:format><dc:type
           rdf:resource="http://purl.org/dc/dcmitype/StillImage" /><dc:title></dc:title></cc:Work></rdf:RDF></metadata><defs
     id="defs1542" /><sodipodi:namedview
     pagecolor="#ffffff"
     bordercolor="#666666"
     borderopacity="1"
     objecttolerance="10"
     gridtolerance="10"
     guidetolerance="10"
     inkscape:pageopacity="0"
     inkscape:pageshadow="2"
     inkscape:window-width="1920"
     inkscape:window-height="1016"
     id="namedview1540"
     showgrid="false"
     inkscape:zoom="1.1206779"
     inkscape:cx="140.6"
     inkscape:cy="364.14999"
     inkscape:window-x="0"
     inkscape:window-y="36"
     inkscape:window-maximized="1"
     inkscape:current-layer="LH_graphics" /><style
     id="style1336">.st0{fill:#ededed;stroke:#25c7a1;stroke-miterlimit:10}.st1{fill:#2d75be}.st2{fill:#555d68}.st3{fill:#fff;stroke:#555d68;stroke-miterlimit:10}.st4{fill:#ededed}.st5{fill:#eeba30}.st7{fill-rule:evenodd;clip-rule:evenodd;fill:#b3b3b3}.st8{fill:#009fd7}.st9{fill:#f47458}.st10{fill:#b75742}.st12{fill:#184655}.st13{fill:#313561}.st14{fill:#f7dc3c}.st15{fill:#ffe59e}.st16{font-family:'FontAwesome5Pro-Solid'}.st22{fill:#12a056}.st26{fill:#fff}.st28{fill:#9da3e0;stroke:#fff;stroke-width:1.0867;stroke-miterlimit:10}.st29{fill:#365aad}.st30{fill:#4a9bed;stroke:#4a9bed;stroke-width:.2129;stroke-miterlimit:10}</style><g
     id="LH_graphics"><ellipse
       transform="matrix(0.04386175,-0.99899757,0.99899757,0.04386175,-30.960883,209.56393)"
       cx="94"
       cy="121"
       rx="73.400002"
       ry="79.199997"
       style="fill:#8be2eb"
       id="ellipse1487" /><path
       class="st12"
       d="m 34.2,72.3 c -1.7,2.8 -3.1,5.9 -2.8,9.2 0.3,3.8 2.2,7.4 2.3,11.2 0.2,6.5 -4.8,11.9 -6.4,18.1 -1.7,7 4.8,15 7.4,18.9 2.6,3.9 1.5,-3.2 3.1,-5.9 1.6,-2.8 5,11.6 10.3,14.8 2.9,1.7 6.2,2.8 8.3,5.4 3,3.8 2.2,9.2 1.7,14.1 -0.5,4.8 0.2,10.7 4.6,12.9 2.6,1.3 5.8,0.8 8.1,2.5 4.1,2.9 2.1,9.4 3.7,14.1 1.7,5.2 5.2,5.2 10.6,6.3 5.4,1.1 -0.7,-10.7 1.8,-14.8 1.3,-2.2 3.3,-3.9 4.4,-6.2 1.4,-3.2 1,-7.5 3.8,-9.6 2.1,-1.6 5,-1.2 7.7,-1.2 2.6,0 5.8,-1.2 6.1,-3.8 0.3,-2.3 -2.1,-4.2 -4.3,-4.7 -2.3,-0.5 -4.7,-0.3 -6.9,-1 -6.4,-2 -9.4,-10.9 -16.1,-11.3 -5.7,-0.4 -10.5,6 -16.1,4.9 -3.1,-0.6 -5.3,-3.4 -7.6,-5.6 -3,-2.8 -6.7,-4.9 -9.1,-8.3 -2.4,-3.3 -2.8,-8.7 0.6,-11 2.5,-1.7 6.1,-1 8.5,0.7 2.5,1.8 4.2,4.4 6,6.9 0.6,0.8 1.2,1.5 2.1,1.8 2.4,0.8 4.2,-2.6 3.6,-5.1 -0.6,-2.5 -2.3,-4.6 -2.4,-7.2 -0.1,-4.5 4.7,-7.3 8.9,-8.7 4.2,-1.5 9.2,-3.2 10.4,-7.5 0.4,-1.5 0.3,-3.2 1,-4.6 2.2,-4.7 13.9,-7.1 11.1,-9.8 -2.8,-2.7 -11.6,-3.3 -13.4,-8.9 -0.6,-2 -1.3,-4.6 -3.3,-4.8 -3.4,-0.3 -5.3,3.8 -8.1,4.6 -1.3,0.3 -1.5,2.6 -1.4,5.4 0,2 -1.6,3.7 -3.6,3.7 -2,0 -3.7,-1.6 -3.7,-3.6 0,-0.8 0.1,-1.5 0.4,-2.3 0.5,-1.3 1.6,-2.4 2.6,-3.4 4.3,-4.1 17.3,-8.7 14.5,-10.4 -2.7,-1.8 -15.7,-6.6 -17.6,-3.9 -1.9,2.7 1.3,0.4 2,3.6 1,3.2 -9.4,2.8 -14.2,4.2 -0.8,0.2 -1.7,0.4 -2.4,0.1 -0.8,-0.4 -1.2,-1.4 -1.6,-2.2 -2.4,-4.3 -10.4,-1.5 -10.4,-1.5 0,0 -2.6,1.4 -4.2,3.9 z"
       id="path1489"
       inkscape:connector-curvature="0"
       style="fill:#184655" /><path
       class="st26"
       d="m 70.5,52.8 c -1.2,2.2 2.3,2.1 2.6,4.6 3.1,0.3 4.4,-4.6 7.5,-5.2 1.7,-0.3 3.4,0.9 4.4,2.4 0.9,1.5 1.4,3.3 2.2,4.8 1.8,3.5 5.5,6 9.5,6.4 0.9,0.1 1.8,0 2.5,-0.6 1.9,-1.7 -0.8,-4.8 -0.1,-7.2 0.8,-2.8 4.8,-2.3 7.5,-3.3 0.7,-0.3 6.4,-1.8 6.5,-2.6 0.2,-1.4 -2.5,-2.3 -5.4,-3 -5,-1.3 -13.8,-1.2 -18.1,-0.8 -5.8,0.5 -15.4,0.1 -19.1,4.5 z"
       id="path1491"
       inkscape:connector-curvature="0"
       style="fill:#ffffff" /><path
       class="st12"
       d="m 166,146.3 c 1.3,-8.1 1.2,-16.5 -0.3,-24.6 -0.4,-2.2 -1.3,-4.7 -3.5,-5 -2.5,-0.4 -5.6,2.5 -7.2,0.5 -0.7,-0.9 -0.4,-2.2 0,-3.2 1,-2.8 2.7,-5.3 4.7,-7.4 1.3,-1.3 2.8,-2.5 3.8,-4 2.1,-3.3 0.6,-8.1 -2.4,-10.7 -3,-2.5 -6.9,2 -10,0.2 -3.2,-1.8 -3.3,-6.2 -3.8,-9.8 -0.4,-2.7 -2.4,-9.8 -4.6,-6.3 -2.2,3.5 2.9,17.4 8.6,24.1 0.7,0.8 1.4,1.7 1.4,2.8 -0.1,2.5 -3.8,2.4 -6.3,2.9 -3.1,0.6 -7.8,-1 -5.2,4.3 1.4,2.8 7.9,6.7 6.1,8.5 -1.8,1.9 -7.1,7.3 -9.7,11.7 -2.5,4.4 -3.8,9.9 -1.8,14.6 1.9,4.7 7.6,8 12.3,6 2.2,-0.9 4.6,-2.9 6.6,-1.6 1.8,1.1 1.6,3.8 1.5,5.9 -0.1,2.2 1.1,5 3.2,4.5 0.7,-0.2 1.2,-0.7 1.7,-1.2 3,-3.2 4.2,-7.8 4.9,-12.2 z"
       id="path1493"
       inkscape:connector-curvature="0"
       style="fill:#184655" /><g
       style="opacity:0.6800001"
       id="g1501"><path
         class="st26"
         d="m 116.1,122.2 c 0,12.9 -0.9,25.9 -3.2,38.7 -0.6,3.2 -1.2,6.4 -2,9.5 -0.8,3.1 -1.7,6.3 -2.8,9.3 -0.6,1.5 -1.2,3 -1.9,4.5 -0.7,1.5 -1.5,2.9 -2.4,4.3 -0.9,1.4 -1.9,2.7 -3.2,3.7 -0.6,0.5 -1.3,1 -2.1,1.3 -0.8,0.3 -1.6,0.6 -2.4,0.6 -0.8,0 -1.7,-0.1 -2.5,-0.5 -0.8,-0.3 -1.5,-0.8 -2.1,-1.3 -1.3,-1 -2.3,-2.3 -3.3,-3.7 -0.9,-1.4 -1.7,-2.8 -2.4,-4.2 -0.7,-1.5 -1.3,-3 -1.9,-4.5 -1.1,-3 -2.1,-6.1 -2.9,-9.3 -0.8,-3.1 -1.5,-6.3 -2.1,-9.5 -1.2,-6.4 -1.9,-12.8 -2.5,-19.3 -0.5,-6.5 -0.8,-12.9 -0.8,-19.4 0,-3.2 0.1,-6.5 0.2,-9.7 0.1,-3.2 0.3,-6.5 0.5,-9.7 0.5,-6.5 1.2,-12.9 2.2,-19.3 0.5,-3.2 1.1,-6.4 1.9,-9.5 0.7,-3.2 1.6,-6.3 2.7,-9.3 0.5,-1.5 1.1,-3 1.8,-4.5 0.7,-1.5 1.4,-2.9 2.3,-4.3 0.9,-1.4 1.9,-2.7 3.2,-3.7 0.6,-0.5 1.3,-1 2.1,-1.3 0.8,-0.3 1.6,-0.5 2.4,-0.4 0.8,0 1.6,0.2 2.4,0.6 0.8,0.3 1.4,0.8 2.1,1.3 1.3,1 2.3,2.3 3.3,3.6 0.9,1.3 1.7,2.7 2.5,4.2 0.7,1.4 1.4,2.9 2,4.4 1.2,3 2.2,6.1 3.1,9.2 0.9,3.1 1.6,6.3 2.2,9.5 2.6,12.8 3.6,25.8 3.6,38.7 z m -0.8,0 c 0,-6.5 -0.2,-12.9 -0.8,-19.3 -0.5,-6.4 -1.3,-12.8 -2.5,-19.2 -0.6,-3.2 -1.3,-6.3 -2.1,-9.4 -0.8,-3.1 -1.8,-6.2 -3,-9.2 -0.6,-1.5 -1.2,-3 -1.9,-4.4 -0.7,-1.4 -1.5,-2.8 -2.4,-4.2 -0.9,-1.3 -1.9,-2.6 -3.2,-3.6 -0.6,-0.5 -1.3,-1 -2,-1.3 -0.7,-0.3 -1.5,-0.5 -2.3,-0.6 -0.8,0 -1.6,0.1 -2.3,0.4 -0.7,0.3 -1.4,0.7 -2,1.2 -1.2,1 -2.2,2.3 -3.1,3.7 -0.9,1.4 -1.6,2.8 -2.3,4.3 -0.7,1.5 -1.2,3 -1.8,4.5 -1,3 -1.9,6.2 -2.6,9.3 -0.7,3.1 -1.3,6.3 -1.8,9.5 -1,6.4 -1.6,12.8 -2.1,19.2 -0.4,6.4 -0.6,12.9 -0.6,19.4 0,6.5 0.2,12.9 0.7,19.3 0.5,6.4 1.2,12.9 2.3,19.2 0.6,3.2 1.2,6.3 2,9.5 0.8,3.1 1.7,6.2 2.8,9.2 0.6,1.5 1.2,3 1.9,4.5 0.7,1.5 1.5,2.9 2.3,4.2 0.9,1.3 1.9,2.6 3.1,3.6 0.6,0.5 1.3,0.9 2,1.2 0.7,0.3 1.5,0.5 2.3,0.4 0.8,0 1.5,-0.2 2.3,-0.6 0.7,-0.3 1.4,-0.8 2,-1.3 1.2,-1 2.2,-2.3 3.1,-3.6 1.7,-2.7 3,-5.7 4.1,-8.7 1.1,-3 2,-6.1 2.8,-9.3 0.8,-3.1 1.4,-6.3 2,-9.5 1.1,-6.4 1.8,-12.8 2.3,-19.2 0.6,-6.3 0.8,-12.7 0.8,-19.2 z"
         id="path1495"
         inkscape:connector-curvature="0"
         style="fill:#ffffff" /><path
         class="st26"
         d="m 148.8,122.2 c 0,4.2 -0.3,8.3 -0.8,12.5 -0.6,4.1 -1.4,8.2 -2.5,12.2 -2.3,8 -5.7,15.7 -10.3,22.7 -2.3,3.5 -4.9,6.7 -7.9,9.7 -2.9,3 -6.2,5.6 -9.7,7.8 -3.5,2.2 -7.3,4 -11.3,5.2 -4,1.2 -8.2,1.8 -12.3,1.8 -4.2,0 -8.3,-0.6 -12.3,-1.8 -4,-1.2 -7.8,-3 -11.3,-5.2 -3.5,-2.2 -6.8,-4.9 -9.7,-7.8 -2.9,-3 -5.6,-6.2 -7.9,-9.7 -4.6,-6.9 -8.1,-14.6 -10.3,-22.7 -1.1,-4 -2,-8.1 -2.5,-12.2 -0.6,-4.1 -0.8,-8.3 -0.8,-12.5 0,-4.2 0.3,-8.3 0.8,-12.5 0.6,-4.1 1.4,-8.2 2.5,-12.2 2.3,-8 5.7,-15.7 10.3,-22.7 2.3,-3.5 5,-6.7 7.9,-9.7 2.9,-2.9 6.2,-5.6 9.7,-7.8 3.5,-2.2 7.3,-4 11.3,-5.2 4,-1.2 8.1,-1.8 12.3,-1.8 4.2,0 8.3,0.6 12.3,1.8 4,1.2 7.8,3 11.3,5.2 3.5,2.2 6.8,4.9 9.7,7.8 2.9,3 5.6,6.2 7.9,9.7 4.6,6.9 8.1,14.6 10.3,22.6 1.1,4 1.9,8.1 2.5,12.2 0.5,4.3 0.7,8.5 0.8,12.6 z m -0.9,0 c 0,-4.1 -0.2,-8.3 -0.8,-12.3 -0.5,-4.1 -1.3,-8.1 -2.4,-12.1 -2.2,-8 -5.5,-15.6 -10,-22.5 -2.3,-3.4 -4.9,-6.7 -7.7,-9.6 -2.9,-2.9 -6.1,-5.6 -9.6,-7.8 -3.5,-2.2 -7.3,-4 -11.2,-5.2 -4,-1.2 -8.1,-1.8 -12.2,-1.8 -4.1,0 -8.3,0.6 -12.2,1.8 -4,1.2 -7.7,3 -11.2,5.2 -3.5,2.2 -6.7,4.9 -9.6,7.8 -2.9,3 -5.5,6.2 -7.7,9.6 -4.5,6.9 -7.8,14.6 -10,22.5 -2.2,8 -3.2,16.2 -3.2,24.5 0,8.2 1.1,16.5 3.2,24.5 2.2,7.9 5.5,15.6 10,22.5 2.3,3.4 4.8,6.7 7.7,9.6 2.9,2.9 6.1,5.6 9.6,7.8 3.5,2.2 7.2,4 11.2,5.2 3.9,1.2 8.1,1.8 12.2,1.8 4.1,0 8.2,-0.6 12.2,-1.8 3.9,-1.2 7.7,-3 11.2,-5.2 3.5,-2.2 6.7,-4.9 9.6,-7.8 2.9,-2.9 5.5,-6.2 7.7,-9.6 4.5,-6.9 7.9,-14.6 10,-22.5 1.1,-4 1.9,-8 2.4,-12.1 0.5,-4.2 0.8,-8.4 0.8,-12.5 z"
         id="path1497"
         inkscape:connector-curvature="0"
         style="fill:#ffffff" /><path
         class="st26"
         d="m 29.7,93.8 16.5,-0.1 16.5,-0.1 h 33 l 33,0.1 16.5,0.1 16.5,0.1 -16.4,0.1 -16.5,0.1 -33,0.1 h -33 L 46.2,94 29.7,93.9 c 0,0 -0.1,0 0,-0.1 -0.1,0 0,0 0,0 z M 48.9,66.1 60.6,66 72.3,65.9 h 23.4 l 23.5,0.1 11.7,0.1 11.7,0.1 -11.7,0.1 -11.7,0.1 -23.5,0.1 H 72.3 L 60.6,66.4 48.9,66.3 c -0.1,-0.1 -0.1,-0.1 0,-0.2 -0.1,0 -0.1,0 0,0 z m -24.9,55.3 18,-0.1 18,-0.1 h 35.9 l 35.9,0.1 18,0.1 18,0.1 -18,0.1 -18,0.1 -35.9,0.1 H 60 l -18,-0.1 -18,-0.1 c -0.1,0 -0.1,-0.1 0,-0.2 -0.1,0.1 -0.1,0 0,0 z m 5.7,27.7 16.5,-0.1 16.5,-0.1 h 33 l 33,0.1 16.5,0.1 16.5,0.1 -16.5,0.1 -16.5,0.1 -33,0.1 h -33 l -16.5,-0.1 -16.5,-0.1 c 0,-0.1 -0.1,-0.1 0,-0.2 -0.1,0 0,0 0,0 z M 145,177 H 51.2 c -0.1,0 -0.2,-0.1 -0.2,-0.2 0,-0.1 0.1,-0.2 0.2,-0.2 H 145 c 0.1,0 0.2,0.1 0.2,0.2 0,0.1 -0.1,0.2 -0.2,0.2 z"
         id="path1499"
         inkscape:connector-curvature="0"
         style="fill:#ffffff" /></g><path
       class="st22"
       d="M 109,22.4 C 109,14 102.2,7.3 93.9,7.3 c -8.4,0 -15.1,6.8 -15.1,15.1 0,8.4 10.3,21.6 15.1,29.3 5.5,-8 15.1,-20.9 15.1,-29.3 z"
       id="path1503"
       inkscape:connector-curvature="0"
       style="fill:#12a056" /><path
       class="st26"
       d="m 97.8,21.7 c 0,-2.2 -1.8,-4 -4,-4 -2.2,0 -4,1.8 -4,4 0,2.2 1.8,4 4,4 2.2,0 4,-1.8 4,-4 z"
       id="path1505"
       inkscape:connector-curvature="0"
       style="fill:#ffffff" /><path
       class="st22"
       d="M 83.2,97.2 C 83.2,88.8 76.4,82 68,82 c -8.4,0 -15.1,6.8 -15.1,15.1 0,8.4 10.3,21.6 15.1,29.3 5.6,-8 15.2,-20.9 15.2,-29.2 z"
       id="path1507"
       inkscape:connector-curvature="0"
       style="fill:#12a056" /><path
       class="st26"
       d="m 72,96.5 c 0,-2.2 -1.8,-4 -4,-4 -2.2,0 -4,1.8 -4,4 0,2.2 1.8,4 4,4 2.2,-0.1 4,-1.8 4,-4 z"
       id="path1509"
       inkscape:connector-curvature="0"
       style="fill:#ffffff" /><path
       class="st22"
       d="m 183.5,69.4 c 5.7,-6.1 5.3,-15.7 -0.8,-21.4 -6.1,-5.7 -15.7,-5.3 -21.4,0.8 -5.7,6.1 -7.1,22.8 -8.8,31.8 9.6,-2 25.4,-5 31,-11.2 z"
       id="path1511"
       inkscape:connector-curvature="0"
       style="fill:#12a056" /><path
       class="st26"
       d="m 175.8,61.3 c 1.5,-1.6 1.4,-4.1 -0.2,-5.6 -1.6,-1.5 -4.1,-1.4 -5.6,0.2 -1.5,1.6 -1.4,4.1 0.2,5.6 1.6,1.5 4.1,1.4 5.6,-0.2 z"
       id="path1513"
       inkscape:connector-curvature="0"
       style="fill:#ffffff" /><path
       class="st5"
       d="m 232.1,235.5 c 0,5.2 -4.2,9.4 -9.4,9.4 H 105.8 c -5.2,0 -9.4,-4.2 -9.4,-9.4 v -86 c 0,-5.2 4.2,-9.4 9.4,-9.4 h 116.9 c 5.2,0 9.4,4.2 9.4,9.4 z"
       id="path1515"
       inkscape:connector-curvature="0"
       style="fill:#eeba30" /><path
       class="st28"
       d="m 106.4,177.6 h 116.4 v 33.5 H 106.4 Z"
       id="path1517"
       inkscape:connector-curvature="0"
       style="fill:#9da3e0;stroke:#ffffff;stroke-width:1.08669996;stroke-miterlimit:10" /><path
       class="st29"
       d="m 96.3,159 h 136.5 v 3 H 96.3 Z"
       id="path1519"
       inkscape:connector-curvature="0"
       style="fill:#365aad" /><path
       class="st26"
       d="m 96.3,176.2 h 136.5 v 3 H 96.3 Z"
       id="path1521"
       inkscape:connector-curvature="0"
       style="fill:#ffffff" /><path
       class="st12"
       d="m 113.3,151.4 c 0,-2 -1.6,-3.7 -3.7,-3.7 -2,0 -3.7,1.6 -3.7,3.7 0,2 1.6,3.7 3.7,3.7 2,0 3.7,-1.6 3.7,-3.7 z"
       id="path1523"
       inkscape:connector-curvature="0"
       style="fill:#184655" /><circle
       transform="matrix(0.03328,-0.9994,0.9994,0.03328,-33.838,267.875)"
       class="st26"
       cx="121.6"
       cy="151.39999"
       r="3.7"
       id="circle1525"
       style="fill:#ffffff" /><path
       class="st26"
       d="m 137.2,151.4 c 0,-2 -1.6,-3.7 -3.7,-3.7 -2,0 -3.7,1.6 -3.7,3.7 0,2 1.6,3.7 3.7,3.7 2,0 3.7,-1.6 3.7,-3.7 z"
       id="path1527"
       inkscape:connector-curvature="0"
       style="fill:#ffffff" /><path
       class="st30"
       d="m 107.8,166.1 0.8,3.4 c 0.2,0.8 0.3,1.6 0.5,2.4 l 0.6,-2.4 1,-3.4 h 1.5 l 0.9,3.3 c 0.2,0.9 0.4,1.7 0.6,2.5 0.1,-0.8 0.3,-1.6 0.5,-2.5 l 0.8,-3.3 h 1.8 l -2.3,7.4 h -1.7 l -0.9,-3 c -0.2,-0.8 -0.4,-1.5 -0.6,-2.4 -0.2,0.9 -0.3,1.6 -0.6,2.4 l -0.9,3 h -1.7 l -2.2,-7.4 z m 11.6,0 0.8,3.4 c 0.2,0.8 0.3,1.6 0.5,2.4 l 0.6,-2.4 1,-3.4 h 1.5 l 0.9,3.3 c 0.2,0.9 0.4,1.7 0.6,2.5 0.1,-0.8 0.3,-1.6 0.5,-2.5 l 0.8,-3.3 h 1.8 l -2.3,7.4 h -1.7 l -0.9,-3 c -0.2,-0.8 -0.4,-1.5 -0.6,-2.4 -0.2,0.9 -0.4,1.6 -0.6,2.4 l -0.9,3 h -1.7 l -2.2,-7.4 z m 11.7,0 0.8,3.4 c 0.2,0.8 0.3,1.6 0.5,2.4 l 0.6,-2.4 1,-3.4 h 1.5 l 0.9,3.3 c 0.2,0.9 0.4,1.7 0.6,2.5 0.1,-0.8 0.3,-1.6 0.5,-2.5 l 0.8,-3.3 h 1.8 l -2.3,7.4 h -1.7 l -0.9,-3 c -0.2,-0.8 -0.4,-1.5 -0.6,-2.4 -0.2,0.9 -0.4,1.6 -0.6,2.4 l -0.9,3 h -1.7 l -2.2,-7.4 z"
       id="path1529"
       inkscape:connector-curvature="0"
       style="fill:#4a9bed;stroke:#4a9bed;stroke-width:0.2129;stroke-miterlimit:10" /><path
       class="st28"
       d="M 106.4,218.2 H 160 v 26.4 h -53.6 z m 62.5,0 h 53.6 v 26.4 h -53.6 z"
       id="path1531"
       inkscape:connector-curvature="0"
       style="fill:#9da3e0;stroke:#ffffff;stroke-width:1.08669996;stroke-miterlimit:10" /><path
       class="st29"
       d="m 175.2,204.8 h 47.6 v 3 h -47.6 z m -68.8,-25.7 h 63.2 v 3.3 h -63.2 z"
       id="path1533"
       inkscape:connector-curvature="0"
       style="fill:#365aad" /><path
       class="st26"
       d="m 200.4,224.4 -37.1,-31.3 5.1,48.7 11.5,-10.5 9.7,18.1 4.8,-2.6 -9.9,-18.3 z"
       id="path1535"
       inkscape:connector-curvature="0"
       style="fill:#ffffff" /></g></svg>