<?xml version="1.0" encoding="UTF-8" standalone="no"?>
<svg
   xmlns:dc="http://purl.org/dc/elements/1.1/"
   xmlns:cc="http://creativecommons.org/ns#"
   xmlns:rdf="http://www.w3.org/1999/02/22-rdf-syntax-ns#"
   xmlns:svg="http://www.w3.org/2000/svg"
   xmlns="http://www.w3.org/2000/svg"
   xmlns:xlink="http://www.w3.org/1999/xlink"
   xmlns:sodipodi="http://sodipodi.sourceforge.net/DTD/sodipodi-0.dtd"
   xmlns:inkscape="http://www.inkscape.org/namespaces/inkscape"
   viewBox="0 0 299.99999 737.3"
   xml:space="preserve"
   version="1.1"
   id="svg1088"
   sodipodi:docname="societyTR.svg"
   width="300"
   height="737.29999"
   inkscape:version="0.92.4 (5da689c313, 2019-01-14)"><metadata
     id="metadata1094"><rdf:RDF><cc:Work
         rdf:about=""><dc:format>image/svg+xml</dc:format><dc:type
           rdf:resource="http://purl.org/dc/dcmitype/StillImage" /><dc:title></dc:title></cc:Work></rdf:RDF></metadata><defs
     id="defs1092" /><sodipodi:namedview
     pagecolor="#ffffff"
     bordercolor="#666666"
     borderopacity="1"
     objecttolerance="10"
     gridtolerance="10"
     guidetolerance="10"
     inkscape:pageopacity="0"
     inkscape:pageshadow="2"
     inkscape:window-width="1920"
     inkscape:window-height="1016"
     id="namedview1090"
     showgrid="false"
     inkscape:zoom="1.0072359"
     inkscape:cx="691.5"
     inkscape:cy="367.14999"
     inkscape:window-x="0"
     inkscape:window-y="36"
     inkscape:window-maximized="1"
     inkscape:current-layer="RH_graphics" /><style
     id="style886">.st0{fill:#ededed;stroke:#25c7a1;stroke-miterlimit:10}.st1{fill:#2d75be}.st2{fill:#555d68}.st3{fill:#fff;stroke:#555d68;stroke-miterlimit:10}.st4{fill:#ededed}.st5{fill:#eeba30}.st7{fill-rule:evenodd;clip-rule:evenodd;fill:#b3b3b3}.st8{fill:#009fd7}.st9{fill:#f47458}.st10{fill:#b75742}.st12{fill:#184655}.st13{fill:#313561}.st14{fill:#f7dc3c}.st15{fill:#ffe59e}.st16{font-family:'FontAwesome5Pro-Solid'}.st22{fill:#12a056}.st26{fill:#fff}.st28{fill:#9da3e0;stroke:#fff;stroke-width:1.0867;stroke-miterlimit:10}.st29{fill:#365aad}.st30{fill:#4a9bed;stroke:#4a9bed;stroke-width:.2129;stroke-miterlimit:10}</style><g
     id="RH_graphics"
     transform="translate(-1047.5)"><g
       id="g1008"><path
         d="m 1121.8,214.1 13.2,-2.1 4.2,26.5 c 1.6,10 7.2,11.1 12.4,2.4 l 21,-34.8 113.5,-17.9 c 5.9,-0.9 10.2,-7.1 9.3,-13 l -4.1,-26 -84.5,13.3 c -13,2 -26,-7.3 -28,-20.3 l -10.9,-69.6 -66.5,10.5 c -5.9,0.9 -10.5,6.2 -9.6,12.1 l 17.2,109.4 c 0.8,5.9 6.8,10.4 12.8,9.5 z"
         style="fill:#e6e6e6"
         id="path1004"
         inkscape:connector-curvature="0" /><path
         class="st22"
         d="m 1342.9,6.3 -157.4,24.8 c -1.6,0.2 -3.1,1.1 -4.1,2.4 -1,1.3 -1.4,3 -1.2,4.6 l 16,102 c 0.5,3.5 3.7,5.9 7.2,5.4 l 96.6,-15.2 40,35.1 c 7.6,6.7 12.5,3.9 10.9,-6.1 l -5.7,-36.1 15.5,-2.4 c 3.5,-0.6 5.8,-3.9 5.2,-7.4 l -16,-102 c -0.3,-1.6 -1.2,-3.1 -2.5,-4 -1.2,-1 -2.8,-1.4 -4.5,-1.1 z m -108,87.7 c -3,0.5 -6,-0.3 -8.4,-2 -2.4,-1.8 -4,-4.4 -4.5,-7.4 -0.5,-3 0.3,-6 2,-8.4 1.8,-2.4 4.4,-4 7.4,-4.5 3,-0.5 6,0.3 8.4,2 2.4,1.8 4,4.4 4.5,7.4 0.5,3 -0.3,6 -2,8.4 -1.8,2.4 -4.5,4.1 -7.4,4.5 z m 42.9,-6.7 c -3,0.5 -6,-0.3 -8.4,-2 -2.4,-1.8 -4,-4.4 -4.5,-7.4 -0.5,-3 0.3,-6 2,-8.4 1.8,-2.4 4.4,-4 7.4,-4.5 3,-0.5 6,0.3 8.4,2 2.4,1.8 4,4.4 4.5,7.4 0.5,3 -0.3,6 -2,8.4 -1.8,2.4 -4.5,4 -7.4,4.5 z m 42.8,-6.8 c -3,0.5 -6,-0.3 -8.4,-2 -2.4,-1.8 -4,-4.4 -4.5,-7.4 -0.5,-3 0.3,-6 2,-8.4 1.8,-2.4 4.4,-4 7.4,-4.5 3,-0.5 6,0.3 8.4,2 2.4,1.8 4,4.4 4.5,7.4 0.5,3 -0.3,6 -2,8.4 -1.7,2.4 -4.4,4.1 -7.4,4.5 z"
         id="path1006"
         inkscape:connector-curvature="0"
         style="fill:#12a056" /></g><g
       id="g1032"
       transform="translate(100,20)"><defs
         id="defs1011"><path
           id="SVGID_1_"
           d="m 1115.9,286.5 -7.5,-4.1 -23.9,11.8 -31.9,-22.5 71.5,-28.4 -26.9,-12.2 -39.1,6.2 c 0,0 -8.2,-7.9 -16.4,-7.5 -6.8,5.9 -5.2,11.2 -5.2,11.2 l -30,5.1 c 0,0 -24.1,-16.8 -33.1,-20.2 -8.9,-3.4 -20.5,-1.7 -21.8,0 -1.2,1.7 5.6,9.3 8.9,12.5 3.3,3.2 36.1,22.1 36.1,22.1 l 5.9,21.1 -4.7,-3.3 c -1.7,2.3 -4.3,10 -4.3,10 1.5,1 8.4,4.1 12.5,5.8 l 6.3,22.4 16.6,8 13.4,-41.4 34.7,21.1 5.5,12.7 12.4,8.6 c 0,0 1.4,-16.6 2.6,-17.1 1.2,-0.4 24.2,-7.4 24.2,-7.4 l -10.6,-6.5 z"
           inkscape:connector-curvature="0" /></defs><use
         xlink:href="#SVGID_1_"
         style="overflow:visible;fill:#ffe59e"
         id="use1013"
         x="0"
         y="0"
         width="100%"
         height="100%" /><clipPath
         id="SVGID_00000160161934262234961760000006145368948147102358_"><use
           xlink:href="#SVGID_1_"
           style="overflow:visible"
           id="use1015"
           x="0"
           y="0"
           width="100%"
           height="100%" /></clipPath><path
         class="st15"
         d="m 1015.8,320.4 -7.8,-25.5 -14.2,-5.7 5,-6.6 6.4,1.9 -6.6,-22.4 c 0,0 -40.1,-20.6 -44.4,-28.4 -4.3,-7.9 12.8,-4.8 12.8,-4.8 l 116,69.5 25.8,-2.9 13.4,7.6 -27.8,26.8 -54.4,-48.2 -13.6,44.3 z"
         style="fill:#ffe59e"
         clip-path="url(#SVGID_00000160161934262234961760000006145368948147102358_)"
         id="path1018"
         inkscape:connector-curvature="0" /><path
         class="st15"
         d="m 1005.1,250.4 37.5,-4.7 -3.1,-4.3 c 0,0 5.4,-1.1 7.9,-4.3 0,0 14.4,5.4 20.5,11 l -7.3,-9.1 34.9,-4.9 29.2,11.6 -68.4,27.2 z"
         style="fill:#ffe59e"
         clip-path="url(#SVGID_00000160161934262234961760000006145368948147102358_)"
         id="path1020"
         inkscape:connector-curvature="0" /><path
         style="fill:none;stroke:#ffe59e;stroke-miterlimit:10"
         d="m 1027.5,324.4 37,19.2 -3.1,13.9 25.2,13.1 9.2,-36.2 43.7,24.8"
         id="path1022"
         inkscape:connector-curvature="0" /><g
         id="g1026"><path
           class="st15"
           d="M 1097.7,255.4 1230,340 m -132.3,-84.6 0.7,0.5 m 1.8,1.1 128.2,82 m 0.9,0.6 0.7,0.4"
           id="path1024"
           inkscape:connector-curvature="0"
           style="fill:#ffe59e" /></g><g
         id="g1030"><path
           class="st15"
           d="m 1110.9,305.8 0.3,0.2 m 3.6,2.1 154.1,88.3 m 1.8,1.1 0.3,0.1 0.1,-0.2 m 1.9,-4.1 5.5,-12 m 0.9,-2.1 0.2,-0.3 0.2,0.2 m 3.6,2.3 97,62.5 m 1.8,1.2 0.3,0.2"
           id="path1028"
           inkscape:connector-curvature="0"
           style="fill:#ffe59e" /></g></g></g></svg>