<?xml version="1.0" encoding="UTF-8" standalone="no"?>
<svg
   xmlns:dc="http://purl.org/dc/elements/1.1/"
   xmlns:cc="http://creativecommons.org/ns#"
   xmlns:rdf="http://www.w3.org/1999/02/22-rdf-syntax-ns#"
   xmlns:svg="http://www.w3.org/2000/svg"
   xmlns="http://www.w3.org/2000/svg"
   xmlns:sodipodi="http://sodipodi.sourceforge.net/DTD/sodipodi-0.dtd"
   xmlns:inkscape="http://www.inkscape.org/namespaces/inkscape"
   viewBox="0 0 299.99999 737.3"
   xml:space="preserve"
   version="1.1"
   id="svg1088"
   sodipodi:docname="societyBR.svg"
   width="300"
   height="737.29999"
   inkscape:version="0.92.4 (5da689c313, 2019-01-14)"><metadata
     id="metadata1094"><rdf:RDF><cc:Work
         rdf:about=""><dc:format>image/svg+xml</dc:format><dc:type
           rdf:resource="http://purl.org/dc/dcmitype/StillImage" /><dc:title></dc:title></cc:Work></rdf:RDF></metadata><defs
     id="defs1092" /><sodipodi:namedview
     pagecolor="#ffffff"
     bordercolor="#666666"
     borderopacity="1"
     objecttolerance="10"
     gridtolerance="10"
     guidetolerance="10"
     inkscape:pageopacity="0"
     inkscape:pageshadow="2"
     inkscape:window-width="1920"
     inkscape:window-height="1016"
     id="namedview1090"
     showgrid="false"
     inkscape:zoom="1.0072359"
     inkscape:cx="691.5"
     inkscape:cy="367.14999"
     inkscape:window-x="0"
     inkscape:window-y="36"
     inkscape:window-maximized="1"
     inkscape:current-layer="RH_graphics" /><style
     id="style886">.st0{fill:#ededed;stroke:#25c7a1;stroke-miterlimit:10}.st1{fill:#2d75be}.st2{fill:#555d68}.st3{fill:#fff;stroke:#555d68;stroke-miterlimit:10}.st4{fill:#ededed}.st5{fill:#eeba30}.st7{fill-rule:evenodd;clip-rule:evenodd;fill:#b3b3b3}.st8{fill:#009fd7}.st9{fill:#f47458}.st10{fill:#b75742}.st12{fill:#184655}.st13{fill:#313561}.st14{fill:#f7dc3c}.st15{fill:#ffe59e}.st16{font-family:'FontAwesome5Pro-Solid'}.st22{fill:#12a056}.st26{fill:#fff}.st28{fill:#9da3e0;stroke:#fff;stroke-width:1.0867;stroke-miterlimit:10}.st29{fill:#365aad}.st30{fill:#4a9bed;stroke:#4a9bed;stroke-width:.2129;stroke-miterlimit:10}</style><g
     id="RH_graphics"
     transform="translate(-1047.5)"><path
       class="st7"
       d="m 1185.5,737.7 v -88.5 h 3.9 v -41.1 h 17.4 v 41.1 h 3.9 V 684 h 5.3 v 33.4 h 4.3 V 541.9 h 42 v 46.7 h 7.7 V 454.8 h 3.4 v -55 h 3.4 v -27.9 h 10.6 l 10.1,14.6 v 13.2 h 4.8 v 55 h 8.7 v 164.4 h 6.8 v 65.5 h 4.3 V 597 h 8.7 v -34.8 h 7.2 V 526 h 3.9 v -55 h 2.9 v 55 h 3.9 v 36.2 h 7.2 V 597 h 8.7 v 77.3 h 17.4 v 61.8 z m 95,-357.4 h 1.4 v 6.3 h -1.4 z m 8.7,10.4 h 1.4 v 6.3 h -1.4 z m -4.9,-2.8 h 2.9 v 8.4 h -2.9 z M 1194.6,613 h 1.4 v 4.9 h -1.4 z m -2.4,36.2 h 1.9 v 4.9 h -1.9 z m 10.2,-9.7 h 1.4 v 4.9 h -1.4 z m -8.7,0 h 1.4 v 4.9 h -1.4 z m 2.4,0 h 1.9 v 4.9 h -1.9 z m 43.9,25.8 h 2.9 v 4.9 h -2.9 z m 0.4,22.3 h 2.9 v 14.6 h -2.9 z m 0,-8.4 h 2.9 v 4.9 h -2.9 z m -13.5,-5.6 h 3.4 v 18.8 h -3.4 z m -7.7,50.9 h 2.9 v 4.9 h -2.9 z m -10.6,0 h 3.4 v 4.9 h -3.4 z m -5.8,-27.2 h 2.9 v 4.9 h -2.9 z m -1.9,-43.2 h 1.9 v 9.1 h -1.9 z m 165.9,25.8 h 4.8 v 9.8 h -4.8 z m 1.9,16.7 h 5.8 v 2.8 h -5.8 z m -71.8,-117 h 2.9 v 4.9 h -2.9 z m -4.4,68.9 h 2.9 v 4.9 h -2.9 z m -4.8,-8.3 h 2.9 v 4.9 h -2.9 z m 1.5,23.7 h 3.4 v 10.5 h -3.4 z m 27,26.4 h 3.4 v 15.3 h -3.4 z m 4.8,11.2 h 2.9 v 4.2 h -2.9 z m 4.3,0 h 3.4 v 4.2 h -3.4 z m 11.1,-16 h 2.9 v 4.9 h -2.9 z m 1,7.6 h 7.2 v 4.9 h -7.2 z m 15.4,-22.3 h 7.7 v 4.9 h -7.7 z m -20.7,-8.3 h 2.9 v 4.9 h -2.9 z m 2.4,14.6 h 2.9 v 4.9 h -2.9 z m -6.3,-8.4 h 9.2 v 4.9 h -9.2 z m 11.6,-118.4 h 5.8 v 2.1 h -5.8 z m 3.9,-11.9 h 2.4 v 4.2 h -2.4 z m -1.5,60 h 2.9 v 9.1 h -2.9 z m 0,10.4 h 2.9 v 4.9 h -2.9 z m -8.2,-36.9 h 6.3 v 2.1 h -6.3 z m -1.9,36.9 h 3.4 v 4.9 h -3.4 z m 8.2,37.6 h 3.4 v 4.9 h -3.4 z m -2.9,-5.5 h 6.8 v 1.4 h -6.8 z m 0,-3.5 h 6.8 v 1.4 h -6.8 z m 19.3,4.2 h 2.9 v 4.9 h -2.9 z m -5.3,-8.4 h 3.4 v 0.7 h 4.8 v 4.9 h -4.8 v 9.8 h -3.4 z m -96.5,78.7 h 2.9 v 4.9 h -2.9 z m -8.7,7 h 6.3 v 4.2 h -6.3 z m 0,-8.3 h 3.4 v 4.9 h -3.4 z m 75.8,4.1 h 2.9 v 4.9 h -2.9 z m -8.7,7 h 6.3 v 4.2 h -6.3 z m 0,-8.4 h 3.4 v 4.9 h -3.4 z m 33.7,-10.4 h 2.9 v 4.2 h -2.9 z m -8.6,7 h 6.3 v 4.2 h -6.3 z m 0,-8.4 h 2.9 v 4.2 h -2.9 z m -106.6,5.6 h 2.9 v 4.9 h -2.9 z m -1.5,9 h 9.2 v 4.9 h -9.2 z m 6.8,-9 h 2.9 v 4.9 h -2.9 z m 20.7,-32.8 h 2.9 v 4.9 h -2.9 z m -1.4,9.1 h 9.2 v 4.9 h -9.2 z m 6.2,-9.1 h 2.9 v 4.9 h -2.9 z m 12.1,-9 h 3.4 v 4.9 h -3.4 z m -1.5,9 h 9.2 v 4.2 h -9.2 z m 6.8,-9 h 2.9 v 4.2 h -2.9 z m 51.6,-41.8 h 1.9 v 27.9 h -1.9 z m -2.4,32 h 9.2 v 4.9 h -9.2 z m 6.7,-9 h 2.9 v 4.9 h -2.9 z m 14.5,6.2 h 2.9 v 4.9 h -2.9 z m -1.4,9.1 h 9.2 v 4.2 h -9.2 z m 6.7,-9.1 h 2.9 v 4.9 h -2.9 z m -61.2,48.8 h 3.4 v 4.2 h -3.4 z m -1.5,8.4 h 9.2 v 4.9 h -9.2 z m 6.8,-9.1 h 2.9 v 4.9 h -2.9 z m -12.6,9.1 h 3.4 v 4.9 h -3.4 z m 0,-8.4 h 3.4 v 4.9 h -3.4 z m 79.6,16 h 2.9 v 4.9 h -2.9 z m -36.6,-7.6 h 2.9 v 4.2 h -2.9 z m 0,-8.4 h 2.9 v 4.2 h -2.9 z m -9.2,-8.4 h 12.1 v 4.2 H 1321 Z m 9.2,-8.3 h 2.9 v 4.9 h -2.9 z m 22.1,25.1 h 3.4 v 4.2 h -3.4 z m 9.7,0 h 2.9 v 4.2 h -2.9 z m -9.7,-8.4 h 3.4 v 4.2 h -3.4 z m 9.7,0 h 2.9 v 4.2 h -2.9 z m -9.7,-8.4 h 3.4 v 4.2 h -3.4 z m 9.7,0 h 2.9 v 4.2 h -2.9 z m -9.7,-8.3 h 5.8 v 4.9 h -5.8 z m 9.7,-4.2 h 2.9 v 9.1 h -2.9 z m 9.6,29.3 h 2.9 v 4.2 h -2.9 z m 0,-8.4 h 2.9 v 4.2 h -2.9 z m -2.9,-8.4 h 5.8 v 2.1 h -5.8 z m 4.9,-13.2 h 1 v 9.8 h -1 z m -31.9,5.6 h 2.9 v 4.9 h -2.9 z m 0,-8.4 h 9.2 v 4.9 h -9.2 z m 0,-8.3 h 2.9 v 4.9 h -2.9 z m 0,-7.7 h 2.9 v 4.2 h -2.9 z m 0,-106.6 h 2.9 V 565 h -2.9 z m -0.5,-7.7 h 2.9 v 1.4 h -2.9 z m -0.9,-8.4 h 1.9 v 4.2 h -1.9 z m 1.4,-8.3 h 2.9 v 4.2 h -2.9 z m 7.7,62.7 h 2.9 v 4.9 h -2.9 z m -10.6,0 h 9.6 v 4.9 h -9.6 z m 7.7,-8.4 h 5.8 v 4.9 h -5.8 z m -4.8,-2.7 h 2.9 v 7.7 h -2.9 z m 7.7,-5.6 h 2.9 v 4.9 h -2.9 z m -10.1,0 h 5.3 v 4.9 h -5.3 z m 7.2,-8.4 h 5.8 v 4.9 h -5.8 z m -4.8,0 h 2.9 v 4.9 h -2.9 z m -7.7,25.1 h 3.4 v 4.9 h -3.4 z m 0,-8.4 h 4.8 v 4.9 h -4.8 z m 0,-8.3 h 3.4 v 4.9 h -3.4 z m 0,-8.4 h 6.3 v 2.8 h -6.3 z m 13,66.2 h 2.9 v 16 h -2.9 z m -9.6,0 h 6.8 v 1.4 h -6.8 z m 19.3,-8.3 h 2.9 v 4.9 h -2.9 z m -9.7,0 h 5.8 v 4.9 h -5.8 z m -9.6,0 h 2.9 v 4.9 h -2.9 z m 19.3,-8.4 h 2.9 v 4.9 h -2.9 z m -9.7,0 h 2.9 v 4.9 h -2.9 z m -9.6,0 h 7.7 v 4.9 h -7.7 z m 19.3,-8.4 h 2.9 v 4.9 h -2.9 z m -9.7,0 h 2.9 v 4.9 h -2.9 z m -9.6,-4.8 h 2.9 v 9.8 h -2.9 z m -10.1,29.9 h 2.9 v 4.9 h -2.9 z m 0,-8.3 h 2.9 v 4.9 h -2.9 z m 0,-8.4 h 2.9 v 4.9 h -2.9 z m 0,-8.4 h 2.9 v 4.9 h -2.9 z m -61.8,110.8 h 2.9 v 4.2 h -2.9 z m 0,-8.3 h 2.9 v 4.2 h -2.9 z m 0,-8.4 h 2.9 v 4.2 h -2.9 z m 0,-8.4 h 2.9 v 4.2 h -2.9 z m -69.9,30.7 h 2.9 v 4.9 h -2.9 z m -3.9,-8.4 h 11.1 v 4.9 h -11.1 z m 3.9,-8.3 h 8.7 v 4.9 h -8.7 z m -6.3,-8.4 h 9.2 v 4.9 h -9.2 z m 14.5,24.4 h 2.9 v 4.9 h -2.9 z m 3.4,-7.7 h 4.3 v 4.2 h -4.3 z m 1.4,-8.3 h 2.9 v 4.2 h -2.9 z m 0,-18.8 h 2.9 v 14.6 h -2.9 z m -6.7,-5.6 h 6.3 v 4.2 h -6.3 z m -5.3,0 h 2.9 v 11.8 h -2.9 z m 7.2,-8.4 h 2.9 v 4.2 h -2.9 z m -8.2,0 h 6.3 v 4.2 h -6.3 z m 8.2,-8.3 h 2.9 v 4.2 h -2.9 z m -7.2,0 h 5.3 v 4.2 h -5.3 z m 8.1,-8.4 h 1.9 v 4.2 h -1.9 z m -8.1,-11.8 h 2.9 v 16 h -2.9 z m -7.3,36.9 h 3.4 v 4.2 h -3.4 z m 0,-16.7 h 3.4 v 12.5 h -3.4 z m 0,-8.4 h 3.4 v 4.2 h -3.4 z m 9.7,-19.5 h 1.4 v 4.9 h -1.4 z m -2.9,-8.4 h 6.3 v 4.9 h -6.3 z m -2.9,-8.3 h 9.2 v 4.9 h -9.2 z m 5.8,-8.4 h 3.4 v 4.9 h -3.4 z m 80.5,94.8 h 2.9 v 4.9 h -2.9 z m 0,-8.4 h 2.9 v 4.9 h -2.9 z m 0,-8.3 h 2.9 v 4.9 h -2.9 z m 0,-8.4 h 2.9 v 4.9 h -2.9 z m -53.5,11.8 h 9.2 v 4.2 h -9.2 z m 5.8,-8.3 h 3.4 v 4.9 h -3.4 z m 0,-8.4 h 3.4 v 4.9 h -3.4 z m 0,-8.3 h 3.4 v 4.9 h -3.4 z m 15.9,25 h 3.4 v 4.2 h -3.4 z m 0,-8.3 h 3.4 v 4.9 h -3.4 z m 0,-8.4 h 3.4 v 4.9 h -3.4 z m 0,-8.3 h 3.4 v 4.9 h -3.4 z m 19.7,-0.7 h 2.9 v 4.9 h -2.9 z m 0,-7.7 h 2.9 v 4.2 h -2.9 z m 0,-8.4 h 2.9 v 4.2 h -2.9 z m 0,-8.3 h 2.9 v 4.2 h -2.9 z m -1.9,-17.5 h 2.9 v 4.9 h -2.9 z m 6.8,0 h 3.4 v 4.9 h -3.4 z m 0,-22.2 h 3.4 v 4.9 h -3.4 z m -5.3,-7.7 h 1.4 v 20.2 h -1.4 z m -31.9,55 h 2.9 v 4.9 h -2.9 z m 2,-8.3 h 2.9 v 4.9 h -2.9 z m -1,-14 h 3.4 v 4.2 h -3.4 z m 13,-3.4 h 3.4 v 4.9 h -3.4 z m 0,-6.3 h 3.4 v 4.2 h -3.4 z m 0,-7 h 3.4 v 4.9 h -3.4 z m 0,-7 h 3.4 v 4.9 h -3.4 z m 0.5,-47.3 h 2.9 v 4.9 h -2.9 z m 2.9,18.8 v 23 h -3.4 v -18.8 h -7.2 v -4.2 z m -2.9,-12.6 h 2.9 v 4.9 h -2.9 z m -20.7,-8.3 h 1.4 v 4.2 h -1.4 z m 0,95.4 h 2.9 v 4.9 h -2.9 z m 13,0 h 2.9 v 4.9 h -2.9 z m -13,-29.2 h 2.9 v 4.9 h -2.9 z m 13,0 h 2.9 v 4.9 h -2.9 z m -13,-28.6 h 2.9 v 4.2 h -2.9 z m 13,0 h 2.9 v 4.2 h -2.9 z m -13,49.5 h 2.9 v 4.9 h -2.9 z m 13,0 h 2.9 v 4.9 h -2.9 z m -13,-29.3 h 7.7 v 4.9 h -7.7 z m 13,0 h 2.9 v 4.9 h -2.9 z m -13,-28.6 h 2.9 v 4.2 h -2.9 z m 13,0 h 2.9 v 4.2 h -2.9 z m -13,49.5 h 2.9 v 4.9 h -2.9 z m 13,-5.6 h 2.9 v 10.5 h -8.7 v -4.9 h 5.8 z m -13,-23.7 h 2.9 v 4.9 h -2.9 z m 7.2,0 h 8.7 v 4.9 h -8.7 z m -7.2,-28.5 h 2.9 v 4.2 h -2.9 z m 26,74.5 h 2.9 v 4.9 h -2.9 z m 0,-29.2 h 2.9 v 4.9 h -2.9 z m 0,-28.6 h 2.9 v 4.2 h -2.9 z m -6.3,49.5 h 9.2 v 4.9 h -9.2 z m 6.3,-29.3 h 2.9 v 4.9 h -2.9 z m 0,-28.6 h 2.9 v 4.2 h -2.9 z m -6.7,49.5 h 9.6 v 4.9 h -9.6 z m 6.7,-29.3 h 2.9 v 4.9 h -2.9 z m 0,-28.6 h 2.9 v 4.2 h -2.9 z m 0,-12.5 h 2.9 v 4.9 h -2.9 z m -9.6,0 h 2.9 v 4.9 h -2.9 z m -10.2,0 h 2.9 v 24.4 h -2.9 z m 19.8,-8.4 h 2.9 v 4.9 h -2.9 z m -9.6,0 h 2.9 v 4.9 h -2.9 z m -10.2,-2.7 h 2.9 v 7.7 h -2.9 z m 19.8,-5.6 h 2.9 v 4.9 h -2.9 z m -9.6,0 h 2.9 v 4.9 h -2.9 z m -10.2,0 h 2.9 v 4.9 h -2.9 z m -9.6,16.7 h 2.9 v 4.9 h -2.9 z m 0,-8.4 h 1 v 4.9 h -1 z m 0,-8.3 h 7.2 v 4.9 h -7.2 z m 75.2,113.6 h 3.4 V 675 h -3.4 z m 7.3,6.9 h 2.9 v 4.2 h -2.9 z m -9.2,18.2 h 12.1 v 4.9 h -12.1 z m 9.6,13.2 h 2.9 v 4.2 h -2.9 z m -6.7,-20.2 h 2.9 v 4.2 h -2.9 z m -7.2,-1.4 h 2.9 v 4.9 h -2.9 z m 1.4,-21.6 h 2.9 v 4.9 h -2.9 z m -17.4,-11.2 h 2.9 v 4.9 h -2.9 z m 0,-23 h 2.9 v 19.5 h -2.9 z m 4.9,32.1 h 2.9 v 4.9 h -2.9 z m 0,-8.4 h 6.3 v 4.9 h -6.3 z m 20.7,6.3 h 6.3 v 4.2 h -6.3 z m 0,-8.4 h 2.9 v 4.2 h -2.9 z m -8.7,-4.1 h 2.9 v 4.9 h -2.9 z m 0,-7.7 h 2.9 v 4.2 h -2.9 z m -7.2,-4.2 h 3.4 v 4.9 h -3.4 z m 0,-8.3 h 3.4 v 4.9 h -3.4 z m -3.4,-14 h 2.9 v 4.2 h -2.9 z m 0,-8.3 h 2.9 v 4.9 h -2.9 z m -7.2,15.3 h 2.9 v 4.9 h -2.9 z m 0,-8.4 h 2.9 v 4.9 h -2.9 z m 19.3,-19.5 h 3.4 v 4.2 h -3.4 z m -19.8,-17.4 h 3.4 v 4.2 h -3.4 z m 4.3,-6.3 h 3.4 v 4.2 h -3.4 z m 0,7 h 3.4 v 4.2 h -3.4 z m 11.6,33.4 h 3.4 v 4.9 h -3.4 z m 5.3,-6.9 h 2.9 v 11.8 h -2.9 z m 5.3,35.5 h 2.9 v 4.2 h -2.9 z m 9.2,25.1 h 2.9 v 4.2 h -2.9 z m 0,-8.4 h 2.9 v 4.2 h -2.9 z m -3.9,-8.3 h 6.8 v 4.2 h -6.8 z m 3.9,-8.4 h 2.9 v 4.2 h -2.9 z m 0,-8.3 h 2.9 v 4.9 h -2.9 z m -17.9,-9.1 h 11.6 v 13.9 h -11.6 z m 8.7,-11.2 h 2.9 v 4.9 h -2.9 z m -27.5,-24.3 h 11.1 v 4.9 h -11.1 z m 2.9,11.8 h 2.9 v 4.9 h -2.9 z m 13,0 h 2.9 v 4.9 h -2.9 z m 11.6,-33.4 h 2.9 v 4.9 h -2.9 z m 0,6.2 h 2.9 v 4.9 h -2.9 z m -6.7,-18.1 h 2.9 v 4.9 h -2.9 z m -0.5,9.1 h 2.9 v 21.6 h -2.9 z m -7.7,-1.4 h 3.4 v 4.9 h -3.4 z m 0,16.7 h 3.4 v 4.2 h -3.4 z m 14.9,20.9 h 2.9 v 4.9 h -2.9 z m 0,-20.9 h 2.9 v 4.2 h -2.9 z m 0,-24.4 h 2.9 v 4.9 h -2.9 z m 0,-9.1 h 2.9 v 4.9 h -2.9 z m -13,0.7 h 3.4 v 4.2 h -3.4 z m -6.3,0 h 2.9 v 4.2 h -2.9 z m -6.7,-3.4 h 2.9 v 4.2 h -2.9 z m 9.6,9 h 5.8 v 4.2 h -5.8 z m -8.2,0 h 6.3 v 4.2 h -6.3 z m -1.9,0 h 1 v 4.2 h -1 z m -2.4,0 h 1 v 4.2 h -1 z m -2.4,18.1 h 2.9 v 4.2 h -2.9 z m 0,-9 h 8.2 v 4.2 h -8.2 z m 0,-9.1 h 1 v 4.2 h -1 z m 0,-9 h 2.9 v 4.2 h -2.9 z m 0.9,-3.5 h 21.2 v 2.1 h -21.2 z m 0,-3.5 h 21.2 v 2.1 h -21.2 z m 0,-4.2 h 21.2 v 2.1 h -21.2 z m 27.5,-57.8 h 1 V 475 h -1 z m 0,12.5 h 1 v 11.1 h -1 z m 0,13.3 h 1 v 10.5 h -1 z m -3.3,39 h 9.2 v 4.2 h -9.2 z m 0,-6.3 h 9.2 v 4.2 h -9.2 z m 1.9,-20.2 h 7.2 v 2.8 h -7.2 z m 0,3.5 h 7.2 v 2.8 h -7.2 z m 0,3.5 h 7.2 v 2.1 h -7.2 z m 4.3,6.2 h 2.9 v 4.9 h -2.9 z m -6.2,0 h 2.9 v 4.9 h -2.9 z m -6.3,0 h 2.9 v 4.9 h -2.9 z m -5.8,0 h 2.9 v 4.9 h -2.9 z m -8.2,0 h 2.9 v 4.9 h -2.9 z m 0,-9 h 2.9 v 4.2 h -2.9 z m 0,-9.1 h 2.9 v 4.2 h -2.9 z m 0,-9.7 h 2.9 v 4.9 h -2.9 z m 0,-9.1 h 2.9 v 4.9 h -2.9 z m 0,-9 h 2.9 v 4.9 h -2.9 z m -4.8,45.9 h 2.9 v 4.9 h -2.9 z m 0,-9 h 2.9 v 4.2 h -2.9 z m 0,-9.1 h 2.9 v 4.2 h -2.9 z m 0,-9.7 h 2.9 v 4.9 h -2.9 z m 0,-9.1 h 2.9 v 4.9 h -2.9 z m 0,-9 h 2.9 v 4.9 h -2.9 z m 4.8,-9.1 h 2.9 v 4.2 h -2.9 z m -4.8,0 h 2.9 v 4.2 h -2.9 z m 32.3,39 h 2.9 v 1.4 h -2.9 z m 0,-2.8 h 2.9 v 1.4 h -2.9 z m 0,-2.1 h 2.9 v 1.4 h -2.9 z m 0,-2.7 h 2.9 v 1.4 h -2.9 z m 0,-2.1 h 2.9 v 1.4 h -2.9 z m 0,-2.8 h 2.9 v 1.4 h -2.9 z m 0,-2.1 h 2.9 v 1.4 h -2.9 z m 0,-2.8 h 2.9 v 1.4 h -2.9 z m 0,-2.1 h 2.9 v 1.4 h -2.9 z m 0,-19.5 h 2.9 v 16.7 h -2.9 z m -21.2,44.6 h 14.5 v 4.9 h -14.5 z m 0,-7.7 h 14.5 v 4.9 h -14.5 z m 0,-7.6 h 14.5 v 4.2 h -14.5 z m 0,-8.4 h 14.5 v 4.9 h -14.5 z m 0,-7.7 h 14.5 v 4.2 h -14.5 z m 0,-8.3 h 14.5 v 4.9 h -14.5 z m 0,-7.7 h 14.5 v 4.9 h -14.5 z m 0,-7.7 h 14.5 v 4.2 h -14.5 z m 5.3,-20.2 h 2.9 v 2.1 h -2.9 z m 0,-11.8 h 2.9 v 2.8 h -2.9 z m -1.5,16.7 h 1.9 v 4.2 h -1.9 z m 3.4,0 h 2.9 v 4.2 h -2.9 z m 3.9,0 h 3.4 v 4.2 h -3.4 z m -11.6,7 h 2.9 v 4.9 h -2.9 z m -6.3,6.9 h 3.4 v 4.9 h -3.4 z m 0,-6.2 h 3.4 v 4.9 h -3.4 z m 0,-6.3 h 3.4 v 4.2 h -3.4 z m 0,-7 h 3.4 v 4.9 h -3.4 z m 0,-6.2 h 3.4 v 4.9 h -3.4 z m 11.6,0 h 3.4 v 4.9 h -3.4 z m -5.3,0 h 2.9 v 17.4 h -2.9 z m 0,-6.3 h 2.9 v 4.2 h -2.9 z m -6.3,0 h 3.4 v 4.2 h -3.4 z m 17.9,10.5 h 3.4 v 4.9 h -3.4 z m 0,-5.6 h 3.4 v 4.9 h -3.4 z m 0,-5.6 h 3.4 v 4.9 h -3.4 z m -11.1,-5.6 h 14.5 v 4.2 h -14.5 z m 11.1,-6.2 h 3.4 v 4.9 h -3.4 z m -5.8,0 h 2.9 v 4.9 h -2.9 z m -12.1,0 h 3.4 v 4.9 h -3.4 z m 4.8,0 h 2.9 v 4.9 h -2.9 z"
       id="path932"
       inkscape:connector-curvature="0"
       style="clip-rule:evenodd;fill:#b3b3b3;fill-rule:evenodd" /><path
       class="st8"
       d="m 1109.8,644.8 0.1,-0.1 c 0.3,-0.2 1.4,-0.9 2.1,-1 0.9,-0.1 1.9,0 1.9,0 l -1.5,1.8 z"
       id="path934"
       inkscape:connector-curvature="0"
       style="fill:#009fd7" /><path
       class="st9"
       d="m 1108.3,710.7 c 0.8,0 1.4,-0.6 1.4,-1.4 0,-18.3 -14.9,-33.2 -33.2,-33.2 -7.9,0 -15.5,2.8 -21.5,7.9 -0.6,0.5 -0.7,1.4 -0.2,1.9 0.5,0.6 1.4,0.7 1.9,0.2 5.5,-4.6 12.5,-7.2 19.7,-7.2 16.8,0 30.5,13.7 30.5,30.5 0,0.6 0.6,1.3 1.4,1.3 z"
       id="path936"
       inkscape:connector-curvature="0"
       style="fill:#f47458" /><path
       class="st10"
       d="m 1129.7,708.7 c 0.4,0 0.8,-0.2 1,-0.6 l 25.4,-45.3 c 0.3,-0.6 0.1,-1.3 -0.4,-1.6 -0.6,-0.3 -1.3,-0.1 -1.6,0.4 l -26.3,45.2 c -0.3,0.6 0.8,1.4 1.4,1.7 0.1,0.1 0.3,0.2 0.5,0.2 z"
       id="path938"
       inkscape:connector-curvature="0"
       style="fill:#b75742" /><path
       class="st10"
       d="m 1127.5,710.9 c 42.7,-0.7 41.6,0.1 42.2,-1.1 0.4,-0.8 1.6,1.7 -20.7,-36.6 l -48.3,-8.9 c -0.7,-0.1 -1.4,0.5 -1.4,1.2 0.1,0.6 -0.3,-0.4 28.2,45.4 z m -24.6,-43.9 44.7,8.2 19.1,32.9 -37.9,0.4 z"
       id="path940"
       inkscape:connector-curvature="0"
       style="fill:#b75742" /><path
       class="st12"
       d="m 1076.9,729.2 c 11,0 20,-9 20,-20 0,-3.2 -0.7,-6.3 -2.2,-9.1 -0.1,-0.2 -0.4,-0.3 -0.6,-0.2 -0.2,0.1 -0.3,0.4 -0.2,0.6 1.4,2.7 2.1,5.6 2.1,8.7 0,10.5 -8.5,19 -19,19 -2.8,0 -5.4,-0.6 -7.9,-1.7 -0.2,-0.1 -0.5,0 -0.6,0.2 -0.1,0.2 0,0.5 0.2,0.6 2.5,1.3 5.3,1.9 8.2,1.9 z"
       style="opacity:0.56999966;fill:#184655"
       id="path942"
       inkscape:connector-curvature="0" /><path
       class="st12"
       d="m 1047.5,709.3 c 0,-16.2 13.2,-29.4 29.4,-29.4 16.2,0 29.4,13.2 29.4,29.4 0,16.2 -13.2,29.4 -29.4,29.4 -16.2,0 -29.4,-13.2 -29.4,-29.4 z m 3.7,0 c 0,14.2 11.5,25.7 25.7,25.7 14.2,0 25.7,-11.5 25.7,-25.7 0,-14.2 -11.5,-25.7 -25.7,-25.7 -14.2,-0.1 -25.7,11.5 -25.7,25.7 z"
       id="path944"
       inkscape:connector-curvature="0"
       style="fill:#184655" /><path
       class="st10"
       d="m 1076.4,710.4 c 0.4,0 0.8,-0.2 1,-0.6 l 31,-56.3 c 0.3,-0.5 0.5,-1.1 0.5,-1.8 V 648 c 0,-0.7 0.2,-1.5 0.4,-1.6 0.2,-0.1 1.1,0 1.7,0.4 l 5.4,3.2 c 0.5,0.3 1.3,0.1 1.6,-0.4 0.3,-0.5 0.2,-1.3 -0.4,-1.6 l -5.4,-3.2 c -1.1,-0.7 -3,-1 -4.2,-0.3 -1.2,0.7 -1.4,2.1 -1.4,3.5 v 3.7 c 0,0.2 -0.1,0.5 -0.2,0.7 l -31,56.3 c -0.3,0.6 -0.1,1.3 0.5,1.6 0.2,0.1 0.4,0.1 0.5,0.1 z"
       id="path946"
       inkscape:connector-curvature="0"
       style="fill:#b75742" /><path
       class="st8"
       d="m 1130.6,624.1 c 0.7,-1.5 2.6,-8.7 2.6,-8.7 l 12,0.8 c 0,0 -5.7,12.5 -6.9,14.9 -3.3,3 -16.8,12 -18,13 -0.6,0.4 -1.5,1.3 -1.9,2 -0.9,1.7 -1.2,2.5 -2.1,4.1 -1,1.9 -6.8,-1 -6.8,-2.6 0,-1.1 2.3,-3 4.1,-4.5 0.9,-0.6 16.4,-17.6 17,-19 z"
       id="path948"
       inkscape:connector-curvature="0"
       style="fill:#009fd7" /><path
       class="st13"
       d="m 1140.9,594.6 c 3,1 5.1,3.1 4.2,12 -0.9,8.9 -2.9,15.5 -2.9,15.5 0,0 -8.7,1.4 -13.8,-2.1 0,0 2.1,-28.8 12.5,-25.4 z"
       id="path950"
       inkscape:connector-curvature="0"
       style="fill:#313561" /><path
       class="st12"
       d="m 1139.2,709.3 c 0,-16.2 13.2,-29.4 29.4,-29.4 16.2,0 29.4,13.2 29.4,29.4 0,16.2 -13.2,29.4 -29.4,29.4 -16.2,0 -29.4,-13.2 -29.4,-29.4 z m 3.7,0 c 0,14.2 11.5,25.7 25.7,25.7 14.2,0 25.7,-11.5 25.7,-25.7 0,-14.2 -11.5,-25.7 -25.7,-25.7 -14.2,0 -25.7,11.5 -25.7,25.7 z"
       id="path952"
       inkscape:connector-curvature="0"
       style="fill:#184655" /><path
       class="st12"
       d="m 1168.7,729.2 c 11,0 20,-9 20,-20 0,-3.2 -0.7,-6.3 -2.2,-9.1 -0.1,-0.2 -0.4,-0.3 -0.6,-0.2 -0.2,0.1 -0.3,0.4 -0.2,0.6 1.4,2.7 2.1,5.6 2.1,8.7 0,10.5 -8.5,19 -19,19 -2.8,0 -5.4,-0.6 -7.9,-1.7 -0.2,-0.1 -0.5,0 -0.6,0.2 -0.1,0.2 0,0.5 0.2,0.6 2.5,1.3 5.3,1.9 8.2,1.9 z"
       id="path954"
       inkscape:connector-curvature="0"
       style="fill:#184655" /><path
       class="st9"
       d="m 1148.1,686.3 c 0.3,0 0.6,-0.1 0.9,-0.3 5.5,-4.6 12.5,-7.2 19.7,-7.2 6.1,0 11.9,1.8 17,5.2 0.6,0.4 1.5,0.3 1.9,-0.4 0.4,-0.6 0.3,-1.5 -0.4,-1.9 -5.5,-3.7 -11.9,-5.6 -18.5,-5.6 -7.9,0 -15.5,2.8 -21.5,7.9 -0.6,0.5 -0.7,1.4 -0.2,1.9 0.3,0.3 0.7,0.4 1.1,0.4 z"
       id="path956"
       inkscape:connector-curvature="0"
       style="fill:#f47458" /><path
       class="st12"
       d="m 1168.7,706.2 c 0.2,0 0.3,-0.1 0.4,-0.3 0,-0.2 -0.1,-0.4 -0.3,-0.4 l -40.5,-1.9 c -0.2,0 -0.4,0.1 -0.4,0.3 0,0.2 0.1,0.4 0.3,0.4 z m -41.1,8.7 41.1,-1.9 c 0.2,0 0.3,-0.2 0.3,-0.4 0,-0.2 -0.2,-0.4 -0.4,-0.3 l -41.1,1.9 c -0.2,0 -0.3,0.2 -0.3,0.4 0,0.2 0.2,0.3 0.4,0.3 z"
       id="path958"
       inkscape:connector-curvature="0"
       style="fill:#184655" /><circle
       class="st12"
       cx="1128.2"
       cy="709.29999"
       r="6.5999999"
       id="circle960"
       style="fill:#184655" /><path
       class="st12"
       d="m 1118.7,725.4 c 0.2,0 0.3,-0.1 0.4,-0.2 l 9.4,-15.2 c 0.1,-0.2 0.1,-0.5 -0.1,-0.6 -0.2,-0.1 -0.5,-0.1 -0.6,0.1 l -9.4,15.2 c -0.1,0.2 -0.1,0.5 0.1,0.6 0.1,0.1 0.2,0.1 0.2,0.1 z"
       id="path962"
       inkscape:connector-curvature="0"
       style="fill:#184655" /><path
       class="st12"
       d="m 1123.8,726.6 c 0.4,0 0.8,-0.3 0.9,-0.8 0.1,-0.5 -0.3,-1 -0.8,-1 l -10.1,-1.5 c -0.5,-0.1 -1,0.3 -1,0.8 -0.1,0.5 0.3,1 0.8,1 l 10.1,1.5 z m 37.6,-66.6 h -9 c -0.7,0 -1.2,0.5 -1.2,1.2 v 1.4 c 0,0.7 0.5,1.2 1.2,1.2 h 11.3 c 0.9,0 1.5,-0.9 1.1,-1.7 -0.6,-1.3 -1.9,-2.1 -3.4,-2.1 z m 7.3,54.2 c 2.7,0 4.9,-2.2 4.9,-4.9 0,-2.7 -2.2,-4.9 -4.9,-4.9 -2.7,0 -4.9,2.2 -4.9,4.9 0,2.7 2.2,4.9 4.9,4.9 z m -87.6,-4.9 c 0,2.3 -1.9,4.2 -4.2,4.2 -2.3,0 -4.2,-1.9 -4.2,-4.2 0,-2.3 1.9,-4.2 4.2,-4.2 2.3,0 4.2,1.9 4.2,4.2 z"
       id="path964"
       inkscape:connector-curvature="0"
       style="fill:#184655" /><path
       class="st8"
       d="m 1110.2,644.3 c 0,0 1.3,-1.4 3.2,-1.2 2,0.2 1,1.7 1,1.8 0,0.1 -3.3,1.7 -3.3,1.7 0,0 0.6,-1.6 0.2,-1.9 -0.5,-0.3 -1.1,-0.4 -1.1,-0.4 z m 26,79.9 0.3,6.1 c 0.1,0.8 0.6,2.7 0.6,3.4 0,2.7 -11.8,-2.3 -9.2,-3.4 0.2,-0.1 1.5,-0.9 1.6,-1.8 0.1,-1.4 0.4,-4.2 0.4,-4.2 z"
       id="path966"
       inkscape:connector-curvature="0"
       style="fill:#009fd7" /><path
       class="st12"
       d="m 1128.1,730.3 c 0,0 2.8,0.8 4.2,1 1.4,0.2 3.3,-1.5 4.3,-1 1.1,0.5 1,5.5 1,5.5 0,0 -14.8,0.9 -19,-0.5 -1.7,-0.5 3.8,-3.1 9.5,-5 z"
       id="path968"
       inkscape:connector-curvature="0"
       style="fill:#184655" /><path
       class="st8"
       d="m 1162.3,724.8 0.3,6.1 c 0.1,0.8 0.6,2.7 0.6,3.4 0,2.7 -11.8,-2.3 -9.2,-3.4 0.2,-0.1 1.9,-1.5 1.9,-2.4 0.1,-1.4 0.1,-3.6 0.1,-3.6 z"
       id="path970"
       inkscape:connector-curvature="0"
       style="fill:#009fd7" /><path
       class="st12"
       d="m 1154.1,730.9 c 0,0 2.8,0.8 4.2,1 1.4,0.2 3.3,-1.5 4.3,-1 1.1,0.5 1.2,5.1 1.2,5.1 0,0 -15.8,1.1 -19.6,0.1 -1.7,-0.5 4.2,-3.3 9.9,-5.2 z m -10.5,-94.5 -2.2,3.3 -13.3,49 0.4,37.6 8.4,0.2 c 0,0 3.9,-32.9 3.9,-35.5 0,-2.6 18.2,-44.6 18.2,-44.6 z"
       id="path972"
       inkscape:connector-curvature="0"
       style="fill:#184655" /><path
       class="st12"
       d="m 1143.9,639.6 c 0,0 7.2,38.3 7.2,44.8 0,6.5 3,43 3,43 h 8.4 c 0,0 0.6,-11.1 1.5,-27.5 0.1,-2.6 -0.2,-7.7 0,-10.4 1.3,-19.1 3.9,-32.8 2.7,-39.9 -0.2,-1.1 -3.1,-8.7 -3.9,-9.5 -5.5,-5.7 -18.9,-0.5 -18.9,-0.5 z m -0.6,-52.1 c 0,0 1.4,-2.4 2.5,-3.6 1.2,-1.2 2.8,-4.5 2.3,-8.4 -0.5,-3.9 -3.5,-5.4 -5.1,-5.9 -1.6,-0.5 -7.7,-0.4 -9.8,0.6 -2,1 -1,8.8 -1,8.8 l 3.3,6 z"
       id="path974"
       inkscape:connector-curvature="0"
       style="fill:#184655" /><path
       class="st13"
       d="m 1135.6,595.1 c -0.1,0.1 -4,8.6 -3.3,14.7 1.4,11.1 7,29.3 9.1,29.9 16.4,4.9 22.4,1.2 22.4,1.2 0,0 -6.5,-33.8 -10.3,-41.5 -1.6,-3.2 -3.5,-5.9 -7.1,-6.5 -0.8,0 -7.6,-1 -10.8,2.2 z"
       id="path976"
       inkscape:connector-curvature="0"
       style="fill:#313561" /><path
       class="st9"
       d="m 1135.9,592.1 0.4,-3.4 7,-6.4 0.1,3.1"
       id="path978"
       inkscape:connector-curvature="0"
       style="fill:#f47458" /><path
       class="st8"
       d="m 1140,571.7 c -3.1,-1.2 -6.6,0.7 -7.2,3.9 -0.3,1.4 -0.6,3.2 -0.7,5.1 -0.3,4.7 1.9,9.4 4,9.5 2.1,0.1 8.2,-2.6 8.7,-9.3 0.3,-4.1 -1.6,-7.9 -4.8,-9.2 z"
       id="path980"
       inkscape:connector-curvature="0"
       style="fill:#009fd7" /><path
       class="st8"
       d="m 1143.2,581.4 c -0.1,1 0.6,1.9 1.4,2 0.8,0.1 1.6,-0.8 1.6,-1.8 0.1,-1 -0.6,-1.9 -1.4,-2 -0.8,-0.1 -1.6,0.7 -1.6,1.8 z"
       id="path982"
       inkscape:connector-curvature="0"
       style="fill:#009fd7" /><path
       class="st12"
       d="m 1144.8,579.6 c 0,0 0.5,-2.2 0.3,-4.4 -0.2,-2.1 -2,-5.2 -4.2,-5.6 -2.2,-0.5 -7.3,0.4 -7.9,-1 -0.7,-1.4 -0.7,-1.2 -0.9,-1.5 -0.5,-0.5 -3.6,1.6 -3.4,5.2 0.1,3.6 3.3,3.5 4,3.6 0.6,0.1 6.3,-2.3 8,-2.2 1.7,0.2 4.1,5.9 4.1,5.9 z"
       id="path984"
       inkscape:connector-curvature="0"
       style="fill:#184655" /><path
       class="st8"
       d="m 1172.4,555 c 0.4,3 0.9,2.8 0.9,3.2 0,0.5 -2.7,5.9 -2.7,5.9 0,0 -7.9,16.2 -8.4,17.1 l -14.1,11.9 3.7,8.8 c 0,0 15,-13.4 15.7,-14.2 0.7,-0.8 8.9,-24 9.7,-26 0,0 1.8,-2.1 2.9,-3.4 1.1,-1.3 1.6,-3.1 1.8,-3.5 0,-0.1 0.8,-1.5 1.3,-3.6 0.4,-1.8 -0.8,-0.3 -0.8,-0.3 0,0 -1.3,3.1 -1.5,3 -0.2,-0.1 0.7,-1.8 1.1,-3.7 0.1,-0.5 0.2,-1 0.3,-1.4 0.3,-1.2 -0.4,-1.7 -0.8,-0.5 -0.2,0.4 -0.4,1.1 -0.6,1.7 -0.1,0.6 -0.4,1.1 -0.6,1.5 -0.4,0.9 -0.6,1.6 -0.6,1.6 0,0 -0.2,0.1 -0.1,-0.4 0.1,-0.6 0.7,-1.9 0.8,-2.9 0.1,-0.5 0.3,-1.7 0.3,-1.7 0,0 0,-1.8 -0.1,-1.8 -0.5,-0.2 -0.9,1 -0.9,1.8 -0.2,0.5 -0.4,1.7 -0.4,1.7 0,0 -0.9,2.3 -1.2,2.2 -0.1,-0.1 0.3,-1.5 0.4,-3.1 0.2,-1.4 0.1,-2.9 -0.2,-2.9 -0.5,-0.1 -0.8,1.4 -0.8,1.4 0,0 -0.2,1.1 -0.3,1.5 -0.1,0.4 -0.5,1.7 -0.5,1.7 0,0 -1.6,4.3 -1.9,4.1 -0.3,-0.1 -0.9,-0.8 -0.9,-1.1 0,-0.3 0.3,-0.8 0.3,-1.1 0,-0.3 -0.2,-0.7 -0.6,-0.7 -0.4,0 -0.9,1.4 -0.9,1.4 0,0 -0.4,0.9 -0.3,1.8 z"
       id="path986"
       inkscape:connector-curvature="0"
       style="fill:#009fd7" /><path
       class="st13"
       d="m 1155.5,586.1 c -0.6,-0.1 -15.5,9 -15.6,12.5 -0.1,3.5 4.9,9.2 9.2,6.9 4.3,-2.3 13,-11.4 13,-11.4 0,0 -4.8,-7.5 -6.6,-8 z"
       id="path988"
       inkscape:connector-curvature="0"
       style="fill:#313561" /><path
       class="st8"
       d="m 1136.3,590 -0.7,6.7 c 0,0 -0.2,1.9 0.8,2.6 1.6,1.3 7.6,-5.1 7.6,-5.1 l -0.7,-10.5 z"
       id="path990"
       inkscape:connector-curvature="0"
       style="fill:#009fd7" /><text
       transform="rotate(13.904,-1283.001,5110.019)"
       class="st15 st16"
       style="font-size:56.4510994px;font-family:FontAwesome5Pro-Solid;fill:#ffe59e"
       id="text996"></text>
<g
       id="g1000"><text
         transform="rotate(-12.075,2991.576,-5053.828)"
         class="st14 st16"
         style="font-size:56.52500153px;font-family:FontAwesome5Pro-Solid;fill:#f7dc3c"
         id="text998"></text>
</g></g></svg>