<?xml version="1.0" encoding="UTF-8" standalone="no"?>
<svg
   xmlns:dc="http://purl.org/dc/elements/1.1/"
   xmlns:cc="http://creativecommons.org/ns#"
   xmlns:rdf="http://www.w3.org/1999/02/22-rdf-syntax-ns#"
   xmlns:svg="http://www.w3.org/2000/svg"
   xmlns="http://www.w3.org/2000/svg"
   xmlns:sodipodi="http://sodipodi.sourceforge.net/DTD/sodipodi-0.dtd"
   xmlns:inkscape="http://www.inkscape.org/namespaces/inkscape"
   viewBox="0 0 299.99999 737.3"
   xml:space="preserve"
   version="1.1"
   id="svg1538"
   sodipodi:docname="societyBL.svg"
   width="300"
   height="737.29999"
   inkscape:version="0.92.4 (5da689c313, 2019-01-14)"><metadata
     id="metadata1544"><rdf:RDF><cc:Work
         rdf:about=""><dc:format>image/svg+xml</dc:format><dc:type
           rdf:resource="http://purl.org/dc/dcmitype/StillImage" /><dc:title></dc:title></cc:Work></rdf:RDF></metadata><defs
     id="defs1542" /><sodipodi:namedview
     pagecolor="#ffffff"
     bordercolor="#666666"
     borderopacity="1"
     objecttolerance="10"
     gridtolerance="10"
     guidetolerance="10"
     inkscape:pageopacity="0"
     inkscape:pageshadow="2"
     inkscape:window-width="1920"
     inkscape:window-height="1016"
     id="namedview1540"
     showgrid="false"
     inkscape:zoom="1.1206779"
     inkscape:cx="140.6"
     inkscape:cy="364.14999"
     inkscape:window-x="0"
     inkscape:window-y="36"
     inkscape:window-maximized="1"
     inkscape:current-layer="LH_graphics" /><style
     id="style1336">.st0{fill:#ededed;stroke:#25c7a1;stroke-miterlimit:10}.st1{fill:#2d75be}.st2{fill:#555d68}.st3{fill:#fff;stroke:#555d68;stroke-miterlimit:10}.st4{fill:#ededed}.st5{fill:#eeba30}.st7{fill-rule:evenodd;clip-rule:evenodd;fill:#b3b3b3}.st8{fill:#009fd7}.st9{fill:#f47458}.st10{fill:#b75742}.st12{fill:#184655}.st13{fill:#313561}.st14{fill:#f7dc3c}.st15{fill:#ffe59e}.st16{font-family:'FontAwesome5Pro-Solid'}.st22{fill:#12a056}.st26{fill:#fff}.st28{fill:#9da3e0;stroke:#fff;stroke-width:1.0867;stroke-miterlimit:10}.st29{fill:#365aad}.st30{fill:#4a9bed;stroke:#4a9bed;stroke-width:.2129;stroke-miterlimit:10}</style><g
     id="LH_graphics"><path
       class="st7"
       d="M 0.5,739 V 486.8 H 48 V 631.3 H 58.7 V 351.8 h 6.6 v -8.3 h 4.1 v -5.9 h 17.2 v -32 h 1.6 v -40.3 h 1.6 v 40.3 h 1.6 v 32 h 18 v 5.9 h 4.1 v 8.3 h 5.7 v 142.1 h 16.4 v 151.6 h 13.9 V 310.3 h 14.8 V 290.2 L 184,261.8 h 27 v 330.4 h 7.4 v 112.5 h 14.8 V 471.4 h 47.5 V 739 Z m 127.9,-79.3 h 5.7 v 7.1 h -5.7 z m 73.8,16.6 h 5.7 v 7.1 h -5.7 z m 45.9,0 h 11.5 v 7.1 H 248.1 Z M 242.3,649 h 17.2 v 8.3 h -17.2 z m 0,-14.2 h 17.2 v 8.3 h -17.2 z m 0,-14.2 h 17.2 v 8.3 H 242.3 Z M 257.1,533 h 4.9 v 8.3 h -4.9 z m 9.8,14.2 h 4.9 v 8.3 h -4.9 z M 256.3,503.4 H 262 V 527 h -5.7 z m 0.8,99.4 h 4.9 v 7.1 h -4.9 z m -1.7,-49.7 h 4.9 v 15.4 h -4.9 z m 0,148 h 11.5 v 7.1 h -11.5 z m -9.8,0 h 4.9 v 7.1 h -4.9 z m -80.4,5.9 h 15.6 v 7.1 h -15.6 z m -9.8,0 h 4.9 v 7.1 h -4.9 z m -32.8,-13 h 4.9 v 7.1 h -4.9 z m -2.4,14.3 h 15.6 v 8.3 h -15.6 z m 11.4,-15.4 h 4.9 v 8.3 h -4.9 z m -21.3,15.4 h 4.9 v 8.3 h -4.9 z m 0,-14.3 h 4.9 v 8.3 h -4.9 z m 39.4,-28.4 h 4.9 v 8.3 h -4.9 z m -2.5,15.4 h 15.6 v 8.3 h -15.6 z m 11.5,-15.4 h 4.9 v 8.3 h -4.9 z M 137.4,681 h 4.9 v 8.3 h -4.9 z m 0,-14.2 h 4.9 v 8.3 h -4.9 z m 55.7,28.4 h 5.7 v 8.3 h -5.7 z m -11.5,-23.7 h 4.9 v 8.3 h -4.9 z m -17.2,-30.8 h 5.7 v 7.1 h -5.7 z m 0,-13 h 5.7 v 7.1 h -5.7 z m 0,-13 h 12.3 v 8.3 h -12.3 z m 31.2,3.5 h 4.9 v 7.1 h -4.9 z m -7.4,-20.1 h 12.3 v 8.3 h -12.3 z m 6.5,-18.9 h 4.9 v 7.1 h -4.9 z m 0,-32 h 4.9 v 7.1 h -4.9 z m -24.5,-5.9 h 4.9 v 7.1 h -4.9 z m 13.9,4.7 h 5.7 v 8.3 h -5.7 z m 8.2,-17.8 h 4.9 v 7.1 h -4.9 z m 0,-16.5 h 4.9 v 7.1 h -4.9 z m 0,-33.2 h 2.5 v 13 h -2.5 z m 7.4,0 h 2.5 v 34.3 h -2.5 z m -20.5,7.1 h 4.9 v 8.3 h -4.9 z M 43.9,685.7 h 5.7 v 7.1 h -5.7 z m 10.7,22.5 h 4.9 v 7.1 h -4.9 z m -23,-15.4 h 4.9 v 8.3 H 31.6 Z M 15.2,690.5 H 21 v 8.3 h -5.7 v -8.3 z m 78.7,-1.2 h 5.7 v 8.3 H 93.9 Z M 72.6,669.2 h 4.9 v 8.3 h -4.9 z m -18,5.9 h 5.7 v 8.3 h -5.7 z m 20.5,16.6 h 5.7 v 8.3 h -5.7 z m 19.6,-14.3 h 4.9 v 8.3 h -4.9 z m 5,-26 h 4.9 v 8.3 h -4.9 z m -13.1,0 h 4.9 v 7.1 h -4.9 z m -25.5,0 H 66 v 7.1 h -4.9 z m -14.7,0 h 4.9 v 8.3 h -4.9 z m -18,-110.2 h 4.9 v 3.6 h -4.9 z m 0,6 h 4.9 v 3.6 h -4.9 z m 0,21.3 h 4.9 v 3.6 h -4.9 z m 3.2,39.1 h 4.9 v 17.8 h -4.9 z m -19.6,0 h 4.9 v 8.3 H 12 Z m 18.8,-14.2 h 4.9 v 8.3 h -4.9 z m 6.6,-28.5 h 2.5 v 7.1 h -2.5 z m 0,-13 h 2.5 v 8.3 h -2.5 z m -9,1.2 h 4.9 v 3.6 h -4.9 z m -6.6,0 h 4.9 v 3.6 h -4.9 z m 0,-24.9 H 30 v 7.1 h -8.2 z m 3.3,-17.7 H 30 v 7.1 h -4.9 z m 92.6,158.6 h 4.9 v 7.1 h -4.9 z m -11.5,-42.6 h 4.1 v 33.2 h -4.1 z m 11.5,-68.7 h 4.9 v 7.1 h -4.9 z m 7.4,0 h 4.9 v 7.1 h -4.9 z m -7.4,17.8 h 4.9 v 7.1 h -4.9 z m -38.5,61.6 h 4.9 v 7.1 H 79.2 Z M 80.8,623 H 89 v 3.6 h -8.2 z m 0,-7.1 H 89 v 4.7 h -8.2 z m 3.3,-9.5 H 89 v 3.6 h -4.9 z m 21.3,3.5 h 5.7 v 8.3 h -5.7 z m 0,-14.2 h 5.7 v 8.3 h -5.7 z m 0,-14.2 h 5.7 v 8.3 h -5.7 z m -9.8,-14.2 h 15.6 v 8.3 H 95.6 Z m -22.2,0 h 4.1 v 18.9 h -4.1 z m 0,-9.5 h 4.1 v 2.4 h -4.1 z m -6.5,24.9 h 4.9 V 604 h -4.9 z m 4.9,-82.9 h 2.5 v 20.1 h -2.5 z m -4.9,32 h 4.9 v 2.4 h -4.9 z m 52.4,-20.2 h 1.6 v 3.6 h -1.6 z m 3.3,0 h 0.8 v 3.6 h -0.8 z m -3.3,7.1 H 130 v 3.6 h -10.7 z m 0.9,-17.7 h 9.8 v 8.3 h -9.8 z m -14.8,1.2 h 4.9 v 7.1 h -4.9 z m -19.7,-19 h 5.7 v 27.2 h -5.7 z m 15.6,7.1 h 4.9 v 7.1 h -4.9 z m -7.4,-7.1 h 4.9 v 14.2 h -4.9 z m -15.5,-8.3 h 4.9 v 8.3 h -4.9 z m 20.4,-32 h 4.9 v 15.4 h -4.9 z m -21.3,47.4 h 5.7 v 7.1 h -5.7 z m 0,-40.3 h 9.8 v 8.3 h -9.8 z m -9.8,-28.4 h 11.5 v 8.3 H 67.7 Z m 9.8,10.7 h 5.7 v 7.1 h -5.7 z m 23,-3.6 h 4.9 v 8.3 h -4.9 z m 8.2,-14.2 h 2.5 v 8.3 h -2.5 z m -1.7,42.7 h 5.7 v 8.3 H 107 Z m 0,-14.3 h 5.7 v 8.3 H 107 Z m 0,-17.7 h 5.7 V 437 H 107 Z m -4.9,-64 h 0.8 V 373 h -0.8 z m -2.4,0 h 0.8 V 373 h -0.8 z m -0.9,14.2 h 4.9 v 7.1 h -4.9 z m 0,14.2 h 4.9 v 7.1 h -4.9 z m -7.3,24.9 H 107 v 8.3 H 91.5 Z m -7.4,0 H 89 v 8.3 h -4.9 z m 7.4,-10.6 h 4.9 v 7.1 h -4.9 z m -18.9,0 h 5.7 v 7.1 h -5.7 z m 0,-23.7 h 5.7 v 2.4 h -5.7 z m 0,-7.1 h 5.7 v 3.6 h -5.7 z m 34.4,-6 h 4.9 v 2.4 H 107 Z M 91.5,360 h 4.9 v 8.3 h -4.9 z m 0,15.4 h 4.9 v 7.1 h -4.9 z m 85.2,81.7 h 5.7 v 7.1 h -5.7 z m 20.5,-9.4 h 5.7 v 13 h -5.7 z m 0,-22.5 h 5.7 v 13 h -5.7 z M 167.7,411 h 5.7 v 8.3 h -5.7 z m 9.8,0 h 4.9 v 42.6 h -4.9 z m -16.4,-20.2 h 4.9 v 8.3 h -4.9 z m 9.9,0 h 4.9 v 8.3 H 171 Z m 7.4,0 h 4.9 v 8.3 h -4.9 z m -17.3,-14.2 h 4.9 v 8.3 h -4.9 z m 9.9,0 h 4.9 v 8.3 H 171 Z m 18,0 h 4.9 v 8.3 H 189 Z m -10.6,0 h 4.9 v 8.3 h -4.9 z m 0,-14.2 h 4.9 v 8.3 h -4.9 z m -3.3,-14.2 h 4.9 v 8.3 h -4.9 z m 7.4,0 h 4.9 v 8.3 h -4.9 z m -12.3,-17.8 h 5.7 v 15.4 h -5.7 z m 27,-10.6 h 5.7 v 56.8 h -5.7 z m -21.3,-21.3 h 5.7 v 8.3 h -5.7 z m -0.8,-9.5 h 15.6 v 4.7 h -15.6 z m 22.1,-3.6 h 4.9 v 2.4 h -4.9 z m 0,9.5 h 4.9 v 2.4 h -4.9 z m 0,-3.6 h 4.9 v 2.4 h -4.9 z m -3.3,-17.7 h 8.2 v 7.1 h -8.2 z m -9,0 h 5.7 v 7.1 h -5.7 z m 59.9,334 h 4.9 v 8.3 h -4.9 z m 0,-14.3 h 4.9 v 8.3 h -4.9 z m 0,-14.2 h 13.1 v 8.3 h -13.1 z m 0,-29.6 h 4.9 v 23.7 h -4.9 z m 22.1,122 h 4.9 v 7.1 h -4.9 z m 0,-68.7 h 4.9 v 7.1 h -4.9 z m 0,54.5 h 4.9 v 7.1 h -4.9 z m -9,-68.7 h 12.3 v 7.1 h -12.3 z m 9,54.5 h 4.9 v 8.3 h -4.9 z m 0,-68.7 h 4.9 v 10.7 h -4.9 z m 0,43.8 h 4.9 v 18.9 h -4.9 z m -1.7,-58 h 7.4 v 7.1 h -7.4 z m 1.7,-27.3 h 4.9 v 8.3 h -4.9 z m 0,-14.2 h 4.9 v 8.3 h -4.9 z m 0,-13 h 4.9 v 7.1 h -4.9 z m 0,-14.2 h 4.9 v 7.1 h -4.9 z m -22.1,41.4 h 4.9 v 8.3 h -4.9 z m 0,-14.2 h 4.9 v 8.3 h -4.9 z m 0,-13 h 4.9 v 7.1 h -4.9 z m 0,-14.2 h 15.6 v 7.1 h -15.6 z m -80.4,111.3 h 5.7 v 7.1 h -5.7 z m 0,-14.2 h 12.3 v 7.1 h -12.3 z m 0,-14.2 h 5.7 v 7.1 h -5.7 z m 0,-14.2 h 26.2 v 7.1 h -26.2 z m -94.2,91.2 h 4.9 v 7.1 h -4.9 z m 0,-14.2 h 4.9 v 7.1 H 70.2 Z M 65.2,623 H 75 v 7.1 h -9.8 z m 5,-14.3 h 4.9 v 7.1 h -4.9 z m 25.4,21.4 h 4.9 v 7.1 h -4.9 z m 0,-14.3 h 4.9 v 7.1 h -4.9 z m 0,-14.2 h 4.9 v 7.1 h -4.9 z m 0,-14.2 h 4.9 v 8.3 h -4.9 z m 22.1,53.3 h 4.9 v 8.3 h -4.9 z m -2.5,-14.2 h 4.1 v 8.3 h -4.1 z m 2.5,-14.2 h 4.9 v 8.3 h -4.9 z m 0,-14.2 h 4.9 v 8.3 h -4.9 z m 73,54.5 h 23 v 7.1 h -23 z m 18,-14.2 h 4.9 v 8.3 h -4.9 z m 0,-14.3 h 4.9 v 8.3 h -4.9 z m 0,-14.2 h 4.9 v 8.3 h -4.9 z m -29.5,33.2 h 4.9 v 8.3 h -4.9 z m 0,-14.2 H 198 v 8.3 h -18.9 v -8.3 z m 0,-14.2 h 4.9 v 8.3 h -4.9 z m 0,-39.1 h 4.9 v 33.2 h -4.9 z m 0,-48.6 h 4.9 v 8.3 h -4.9 z m 0,-14.2 h 4.9 v 8.3 h -4.9 z m 0,-14.2 h 15.6 v 8.3 h -15.6 z m -0.8,-23.7 h 5.7 v 8.3 h -5.7 z M 162.8,527 h 5.7 v 8.3 h -5.7 z m 0,-14.2 h 11.5 v 8.3 h -11.5 z m 0,-14.2 h 5.7 v 8.3 h -5.7 z m 0,-26 h 5.7 v 20.1 h -5.7 z m -2.5,-110.2 h 4.9 v 8.3 h -4.9 z m 0,-14.2 h 4.9 v 8.3 h -4.9 z m 2.5,-17.8 h 5.7 v 8.3 h -5.7 z m 0,-10.6 h 19.7 v 8.3 h -19.7 z m 27,42.6 h 5.7 v 8.3 h -5.7 z m 0,-14.2 h 5.7 v 8.3 h -5.7 z m -9,-14.2 h 14.8 v 8.3 h -14.8 z m 9,-14.2 h 5.7 v 8.3 h -5.7 z m 0,133.8 h 5.7 v 7.1 h -5.7 z m 0,-14.2 h 5.7 v 8.3 h -5.7 z m 0,-14.2 h 5.7 v 8.3 h -5.7 z m 0,-14.2 h 14.8 v 8.3 H 189.8 Z M 162,453.6 h 4.9 v 7.1 H 162 Z m 0,-14.2 h 4.9 v 8.3 H 162 Z m 0,-14.2 h 11.5 v 7.1 H 162 Z m 0,-14.2 h 4.9 v 8.3 H 162 Z m -95.1,78.1 h 4.9 v 7.1 h -4.9 z m 0,-14.2 h 4.9 v 7.1 h -4.9 z m 0,-14.2 h 4.9 v 7.1 h -4.9 z m 0,-28.4 h 4.9 v 22.5 h -4.9 z m 25.4,39.1 h 18.9 v 8.3 H 92.3 Z m -2.5,-14.2 h 7.4 v 8.3 H 89.8 Z M 92.3,443 h 4.9 v 8.3 h -4.9 z m 0,-14.3 h 4.9 V 437 H 92.3 Z M 107,403.9 h 4.9 V 411 H 107 Z m -22.9,0 H 89 V 411 H 84.1 Z M 107,389.7 h 4.9 v 7.1 H 107 Z m -22.9,0 h 11.5 v 7.1 H 84.1 Z M 107,375.5 h 4.9 v 7.1 H 107 Z m -22.9,0 H 89 v 7.1 H 84.1 Z M 107,361.2 h 4.9 v 2.4 H 107 Z m -22.9,-13 H 89 v 20.1 h -4.9 z m -18.9,55.7 h 4.9 v 7.1 h -4.9 z m 0,-14.2 h 13.1 v 7.1 H 65.2 Z m 5,-20.2 v 13 H 65.3 V 366 h 15.6 v 3.6 z m -5,-8.3 h 15.6 v 3.6 H 65.2 Z m 59.9,214.4 h 4.9 v 7.1 h -4.9 z m -19.7,-21.3 h 4.9 v 8.3 h -4.9 z m -13.1,0 H 98 v 8.3 h -5.7 z m -13.1,0 h 5.7 v 41.5 h -5.7 z m 26.2,-24.9 h 4.9 v 18.9 h -4.9 z M 92.3,540.1 H 98 v 8.3 h -5.7 z m -15.6,0 h 10.7 v 8.3 H 76.7 Z m 48.4,-14.2 h 4.9 v 8.3 h -4.9 z m -11.5,0 h 4.9 v 14.2 H 130 v 8.3 h -11.5 v 1.2 h -4.9 z m -27,0 h 15.6 v 8.3 H 86.6 Z m -7.4,-2.4 h 5.7 v 10.7 h -5.7 z m 45.9,-11.9 h 4.9 v 3.6 h -4.9 z m -16.4,0 h 4.9 v 8.3 h -4.9 z m -16.4,0 h 9.8 v 8.3 H 92.3 Z M 79.2,514 h 8.2 v 5.9 h -8.2 z m -12.3,40.3 h 4.9 v 21.3 h -4.9 z m 0,-14.2 h 4.9 v 8.3 h -4.9 z m 0,-14.2 h 4.9 v 2.4 h -4.9 z m 0,-26.1 h 2.5 v 20.1 H 66.9 Z M 12,671.5 h 16.4 v 8.3 H 12 Z m 0,-13 h 5.7 v 7.1 H 12 Z m -1.7,-14.2 h 7.4 v 7.1 h -7.4 z m 0,-14.2 h 9 v 7.1 h -9 z m 23.8,41.4 H 39 v 8.3 h -4.9 z m 0,-13 H 39 v 7.1 h -4.9 z m 0,-14.2 h 31.2 v 3.6 H 34.1 Z m 0,-14.2 H 39 v 7.1 H 34.1 Z M 21.8,607.6 h 5.7 v 59.2 h -5.7 z m 0,-14.2 h 5.7 v 8.3 h -5.7 z m 0,-14.3 h 18 v 8.3 h -18 z m 0,-14.2 h 5.7 v 8.3 h -5.7 z m 15.6,-24.8 h 2.5 v 7.1 h -2.5 z m -2.5,-14.2 h 4.9 v 7.1 h -4.9 z m 0,-14.3 h 4.9 v 7.1 H 34.9 Z M 17.7,497.4 h 22.1 v 8.3 H 17.7 Z m -7.4,53.3 h 4.9 V 591 h -4.9 z m 0,-14.2 H 21 v 7.1 H 10.3 Z m 0,-14.2 H 21 v 7.1 H 10.3 Z m 0,-14.2 h 4.9 v 7.1 h -4.9 z"
       id="path1485"
       inkscape:connector-curvature="0"
       style="clip-rule:evenodd;fill:#b3b3b3;fill-rule:evenodd" /></g></svg>